<svg xmlns="http://www.w3.org/2000/svg" height="600" width="900" viewBox="-225 -114 450 300">
  <path d="m-225-114h450v300h-450z"/>
  <circle fill="#CE1126" r="64.5"/>
  <!-- 32 sun rays at 5° intervals from -80° to 75° -->
  <g transform="rotate(-80)"><path fill="#CE1126" d="m0 0c-2.16666 0-3 3.25-3 6.5 0 7.833332.95963 11.928508 3 23.5 2.04036-11.571492 3-15.666668 3-23.5 0-3.25-.83333-6.5-3-6.5z" transform="translate(0,-102)"/></g>
  <g transform="rotate(-75)"><path fill="#CE1126" d="m0 0c-2.16666 0-3 3.25-3 6.5 0 7.833332.95963 11.928508 3 23.5 2.04036-11.571492 3-15.666668 3-23.5 0-3.25-.83333-6.5-3-6.5z" transform="translate(0,-102)"/></g>
  <g transform="rotate(-70)"><path fill="#CE1126" d="m0 0c-2.16666 0-3 3.25-3 6.5 0 7.833332.95963 11.928508 3 23.5 2.04036-11.571492 3-15.666668 3-23.5 0-3.25-.83333-6.5-3-6.5z" transform="translate(0,-102)"/></g>
  <g transform="rotate(-65)"><path fill="#CE1126" d="m0 0c-2.16666 0-3 3.25-3 6.5 0 7.833332.95963 11.928508 3 23.5 2.04036-11.571492 3-15.666668 3-23.5 0-3.25-.83333-6.5-3-6.5z" transform="translate(0,-102)"/></g>
  <g transform="rotate(-60)"><path fill="#CE1126" d="m0 0c-2.16666 0-3 3.25-3 6.5 0 7.833332.95963 11.928508 3 23.5 2.04036-11.571492 3-15.666668 3-23.5 0-3.25-.83333-6.5-3-6.5z" transform="translate(0,-102)"/></g>
  <g transform="rotate(-55)"><path fill="#CE1126" d="m0 0c-2.16666 0-3 3.25-3 6.5 0 7.833332.95963 11.928508 3 23.5 2.04036-11.571492 3-15.666668 3-23.5 0-3.25-.83333-6.5-3-6.5z" transform="translate(0,-102)"/></g>
  <g transform="rotate(-50)"><path fill="#CE1126" d="m0 0c-2.16666 0-3 3.25-3 6.5 0 7.833332.95963 11.928508 3 23.5 2.04036-11.571492 3-15.666668 3-23.5 0-3.25-.83333-6.5-3-6.5z" transform="translate(0,-102)"/></g>
  <g transform="rotate(-45)"><path fill="#CE1126" d="m0 0c-2.16666 0-3 3.25-3 6.5 0 7.833332.95963 11.928508 3 23.5 2.04036-11.571492 3-15.666668 3-23.5 0-3.25-.83333-6.5-3-6.5z" transform="translate(0,-102)"/></g>
  <g transform="rotate(-40)"><path fill="#CE1126" d="m0 0c-2.16666 0-3 3.25-3 6.5 0 7.833332.95963 11.928508 3 23.5 2.04036-11.571492 3-15.666668 3-23.5 0-3.25-.83333-6.5-3-6.5z" transform="translate(0,-102)"/></g>
  <g transform="rotate(-35)"><path fill="#CE1126" d="m0 0c-2.16666 0-3 3.25-3 6.5 0 7.833332.95963 11.928508 3 23.5 2.04036-11.571492 3-15.666668 3-23.5 0-3.25-.83333-6.5-3-6.5z" transform="translate(0,-102)"/></g>
  <g transform="rotate(-30)"><path fill="#CE1126" d="m0 0c-2.16666 0-3 3.25-3 6.5 0 7.833332.95963 11.928508 3 23.5 2.04036-11.571492 3-15.666668 3-23.5 0-3.25-.83333-6.5-3-6.5z" transform="translate(0,-102)"/></g>
  <g transform="rotate(-25)"><path fill="#CE1126" d="m0 0c-2.16666 0-3 3.25-3 6.5 0 7.833332.95963 11.928508 3 23.5 2.04036-11.571492 3-15.666668 3-23.5 0-3.25-.83333-6.5-3-6.5z" transform="translate(0,-102)"/></g>
  <g transform="rotate(-20)"><path fill="#CE1126" d="m0 0c-2.16666 0-3 3.25-3 6.5 0 7.833332.95963 11.928508 3 23.5 2.04036-11.571492 3-15.666668 3-23.5 0-3.25-.83333-6.5-3-6.5z" transform="translate(0,-102)"/></g>
  <g transform="rotate(-15)"><path fill="#CE1126" d="m0 0c-2.16666 0-3 3.25-3 6.5 0 7.833332.95963 11.928508 3 23.5 2.04036-11.571492 3-15.666668 3-23.5 0-3.25-.83333-6.5-3-6.5z" transform="translate(0,-102)"/></g>
  <g transform="rotate(-10)"><path fill="#CE1126" d="m0 0c-2.16666 0-3 3.25-3 6.5 0 7.833332.95963 11.928508 3 23.5 2.04036-11.571492 3-15.666668 3-23.5 0-3.25-.83333-6.5-3-6.5z" transform="translate(0,-102)"/></g>
  <g transform="rotate(-5)"><path fill="#CE1126" d="m0 0c-2.16666 0-3 3.25-3 6.5 0 7.833332.95963 11.928508 3 23.5 2.04036-11.571492 3-15.666668 3-23.5 0-3.25-.83333-6.5-3-6.5z" transform="translate(0,-102)"/></g>
  <path fill="#CE1126" d="m0 0c-2.16666 0-3 3.25-3 6.5 0 7.833332.95963 11.928508 3 23.5 2.04036-11.571492 3-15.666668 3-23.5 0-3.25-.83333-6.5-3-6.5z" transform="translate(0,-102)"/>
  <g transform="rotate(5)"><path fill="#CE1126" d="m0 0c-2.16666 0-3 3.25-3 6.5 0 7.833332.95963 11.928508 3 23.5 2.04036-11.571492 3-15.666668 3-23.5 0-3.25-.83333-6.5-3-6.5z" transform="translate(0,-102)"/></g>
  <g transform="rotate(10)"><path fill="#CE1126" d="m0 0c-2.16666 0-3 3.25-3 6.5 0 7.833332.95963 11.928508 3 23.5 2.04036-11.571492 3-15.666668 3-23.5 0-3.25-.83333-6.5-3-6.5z" transform="translate(0,-102)"/></g>
  <g transform="rotate(15)"><path fill="#CE1126" d="m0 0c-2.16666 0-3 3.25-3 6.5 0 7.833332.95963 11.928508 3 23.5 2.04036-11.571492 3-15.666668 3-23.5 0-3.25-.83333-6.5-3-6.5z" transform="translate(0,-102)"/></g>
  <g transform="rotate(20)"><path fill="#CE1126" d="m0 0c-2.16666 0-3 3.25-3 6.5 0 7.833332.95963 11.928508 3 23.5 2.04036-11.571492 3-15.666668 3-23.5 0-3.25-.83333-6.5-3-6.5z" transform="translate(0,-102)"/></g>
  <g transform="rotate(25)"><path fill="#CE1126" d="m0 0c-2.16666 0-3 3.25-3 6.5 0 7.833332.95963 11.928508 3 23.5 2.04036-11.571492 3-15.666668 3-23.5 0-3.25-.83333-6.5-3-6.5z" transform="translate(0,-102)"/></g>
  <g transform="rotate(30)"><path fill="#CE1126" d="m0 0c-2.16666 0-3 3.25-3 6.5 0 7.833332.95963 11.928508 3 23.5 2.04036-11.571492 3-15.666668 3-23.5 0-3.25-.83333-6.5-3-6.5z" transform="translate(0,-102)"/></g>
  <g transform="rotate(35)"><path fill="#CE1126" d="m0 0c-2.16666 0-3 3.25-3 6.5 0 7.833332.95963 11.928508 3 23.5 2.04036-11.571492 3-15.666668 3-23.5 0-3.25-.83333-6.5-3-6.5z" transform="translate(0,-102)"/></g>
  <g transform="rotate(40)"><path fill="#CE1126" d="m0 0c-2.16666 0-3 3.25-3 6.5 0 7.833332.95963 11.928508 3 23.5 2.04036-11.571492 3-15.666668 3-23.5 0-3.25-.83333-6.5-3-6.5z" transform="translate(0,-102)"/></g>
  <g transform="rotate(45)"><path fill="#CE1126" d="m0 0c-2.16666 0-3 3.25-3 6.5 0 7.833332.95963 11.928508 3 23.5 2.04036-11.571492 3-15.666668 3-23.5 0-3.25-.83333-6.5-3-6.5z" transform="translate(0,-102)"/></g>
  <g transform="rotate(50)"><path fill="#CE1126" d="m0 0c-2.16666 0-3 3.25-3 6.5 0 7.833332.95963 11.928508 3 23.5 2.04036-11.571492 3-15.666668 3-23.5 0-3.25-.83333-6.5-3-6.5z" transform="translate(0,-102)"/></g>
  <g transform="rotate(55)"><path fill="#CE1126" d="m0 0c-2.16666 0-3 3.25-3 6.5 0 7.833332.95963 11.928508 3 23.5 2.04036-11.571492 3-15.666668 3-23.5 0-3.25-.83333-6.5-3-6.5z" transform="translate(0,-102)"/></g>
  <g transform="rotate(60)"><path fill="#CE1126" d="m0 0c-2.16666 0-3 3.25-3 6.5 0 7.833332.95963 11.928508 3 23.5 2.04036-11.571492 3-15.666668 3-23.5 0-3.25-.83333-6.5-3-6.5z" transform="translate(0,-102)"/></g>
  <g transform="rotate(65)"><path fill="#CE1126" d="m0 0c-2.16666 0-3 3.25-3 6.5 0 7.833332.95963 11.928508 3 23.5 2.04036-11.571492 3-15.666668 3-23.5 0-3.25-.83333-6.5-3-6.5z" transform="translate(0,-102)"/></g>
  <g transform="rotate(70)"><path fill="#CE1126" d="m0 0c-2.16666 0-3 3.25-3 6.5 0 7.833332.95963 11.928508 3 23.5 2.04036-11.571492 3-15.666668 3-23.5 0-3.25-.83333-6.5-3-6.5z" transform="translate(0,-102)"/></g>
  <g transform="rotate(75)"><path fill="#CE1126" d="m0 0c-2.16666 0-3 3.25-3 6.5 0 7.833332.95963 11.928508 3 23.5 2.04036-11.571492 3-15.666668 3-23.5 0-3.25-.83333-6.5-3-6.5z" transform="translate(0,-102)"/></g>
  <!-- Horizontal stripes cover bottom half -->
  <path d="m-225-21.5h450v207.5h-450z" stroke-width="5.259911"/>
  <path fill="#CE1126" d="m-225-14h450v200h-450z" stroke-width="1.414214"/>
  <path fill="#339E35" d="m-225 86h450v100h-450z"/>
</svg>
