<svg xmlns="http://www.w3.org/2000/svg" width="1005" height="567">
  <path fill="#0047AB" d="M0 0h1005v189H0z"/>
  <path fill="#FFFFFF" d="M0 189h1005v189H0z"/>
  <path fill="#0047AB" d="M0 378h1005v189H0z"/>
  <g transform="translate(246.5,27.5)">
    <path fill="#FFCC00" d="m204.6 267.1 51.4-89 51.4 89z"/>
    <path fill="#009900" d="M322.8 296.5 256 330l-66.8-33.4V252h133.6z"/>
    <path fill="#FFCC00" d="m319 182-23.6 23.5a55.5 55.5 0 0 1-39.4 95 55.7 55.7 0 0 1-39.3-95L193 182a89 89 0 1 0 126 0"/>
  </g>
</svg>