<svg xmlns="http://www.w3.org/2000/svg" viewBox="0 0 1900 1000">
  <rect fill="#B31942" width="1900" height="1000"/>
  <rect fill="#FFF" y="76.9" width="1900" height="76.9"/>
  <rect fill="#FFF" y="230.8" width="1900" height="76.9"/>
  <rect fill="#FFF" y="384.6" width="1900" height="76.9"/>
  <rect fill="#FFF" y="538.5" width="1900" height="76.9"/>
  <rect fill="#FFF" y="692.3" width="1900" height="76.9"/>
  <rect fill="#FFF" y="846.2" width="1900" height="76.9"/>
  <rect fill="#0A3161" width="760" height="538.5"/>
  <g fill="#FFF">
    <path d="M63.3,23.1L70.2,44.3L92.6,44.3L74.5,57.5L81.4,78.8L63.3,65.6L45.2,78.8L52.1,57.5L34.0,44.3L56.4,44.3z"/>
    <path d="M190.0,23.1L196.9,44.3L219.3,44.3L201.2,57.5L208.1,78.8L190.0,65.6L171.9,78.8L178.8,57.5L160.7,44.3L183.1,44.3z"/>
    <path d="M316.7,23.1L323.6,44.3L346.0,44.3L327.9,57.5L334.8,78.8L316.7,65.6L298.6,78.8L305.5,57.5L287.4,44.3L309.8,44.3z"/>
    <path d="M443.3,23.1L450.2,44.3L472.6,44.3L454.5,57.5L461.4,78.8L443.3,65.6L425.2,78.8L432.1,57.5L414.0,44.3L436.4,44.3z"/>
    <path d="M570.0,23.1L576.9,44.3L599.3,44.3L581.2,57.5L588.1,78.8L570.0,65.6L551.9,78.8L558.8,57.5L540.7,44.3L563.1,44.3z"/>
    <path d="M696.7,23.1L703.6,44.3L726.0,44.3L707.9,57.5L714.8,78.8L696.7,65.6L678.6,78.8L685.5,57.5L667.4,44.3L689.8,44.3z"/>
    <path d="M126.7,76.9L133.6,98.2L156.0,98.2L137.9,111.3L144.8,132.6L126.7,119.5L108.6,132.6L115.5,111.3L97.4,98.2L119.8,98.2z"/>
    <path d="M253.3,76.9L260.2,98.2L282.6,98.2L264.5,111.3L271.4,132.6L253.3,119.5L235.2,132.6L242.1,111.3L224.0,98.2L246.4,98.2z"/>
    <path d="M380.0,76.9L386.9,98.2L409.3,98.2L391.2,111.3L398.1,132.6L380.0,119.5L361.9,132.6L368.8,111.3L350.7,98.2L373.1,98.2z"/>
    <path d="M506.7,76.9L513.6,98.2L536.0,98.2L517.9,111.3L524.8,132.6L506.7,119.5L488.6,132.6L495.5,111.3L477.4,98.2L499.8,98.2z"/>
    <path d="M633.3,76.9L640.2,98.2L662.6,98.2L644.5,111.3L651.4,132.6L633.3,119.5L615.2,132.6L622.1,111.3L604.0,98.2L626.4,98.2z"/>
    <path d="M63.3,130.8L70.2,152.0L92.6,152.0L74.5,165.2L81.4,186.5L63.3,173.3L45.2,186.5L52.1,165.2L34.0,152.0L56.4,152.0z"/>
    <path d="M190.0,130.8L196.9,152.0L219.3,152.0L201.2,165.2L208.1,186.5L190.0,173.3L171.9,186.5L178.8,165.2L160.7,152.0L183.1,152.0z"/>
    <path d="M316.7,130.8L323.6,152.0L346.0,152.0L327.9,165.2L334.8,186.5L316.7,173.3L298.6,186.5L305.5,165.2L287.4,152.0L309.8,152.0z"/>
    <path d="M443.3,130.8L450.2,152.0L472.6,152.0L454.5,165.2L461.4,186.5L443.3,173.3L425.2,186.5L432.1,165.2L414.0,152.0L436.4,152.0z"/>
    <path d="M570.0,130.8L576.9,152.0L599.3,152.0L581.2,165.2L588.1,186.5L570.0,173.3L551.9,186.5L558.8,165.2L540.7,152.0L563.1,152.0z"/>
    <path d="M696.7,130.8L703.6,152.0L726.0,152.0L707.9,165.2L714.8,186.5L696.7,173.3L678.6,186.5L685.5,165.2L667.4,152.0L689.8,152.0z"/>
    <path d="M126.7,184.6L133.6,205.9L156.0,205.9L137.9,219.0L144.8,240.3L126.7,227.2L108.6,240.3L115.5,219.0L97.4,205.9L119.8,205.9z"/>
    <path d="M253.3,184.6L260.2,205.9L282.6,205.9L264.5,219.0L271.4,240.3L253.3,227.2L235.2,240.3L242.1,219.0L224.0,205.9L246.4,205.9z"/>
    <path d="M380.0,184.6L386.9,205.9L409.3,205.9L391.2,219.0L398.1,240.3L380.0,227.2L361.9,240.3L368.8,219.0L350.7,205.9L373.1,205.9z"/>
    <path d="M506.7,184.6L513.6,205.9L536.0,205.9L517.9,219.0L524.8,240.3L506.7,227.2L488.6,240.3L495.5,219.0L477.4,205.9L499.8,205.9z"/>
    <path d="M633.3,184.6L640.2,205.9L662.6,205.9L644.5,219.0L651.4,240.3L633.3,227.2L615.2,240.3L622.1,219.0L604.0,205.9L626.4,205.9z"/>
    <path d="M63.3,238.4L70.2,259.7L92.6,259.7L74.5,272.9L81.4,294.2L63.3,281.0L45.2,294.2L52.1,272.9L34.0,259.7L56.4,259.7z"/>
    <path d="M190.0,238.4L196.9,259.7L219.3,259.7L201.2,272.9L208.1,294.2L190.0,281.0L171.9,294.2L178.8,272.9L160.7,259.7L183.1,259.7z"/>
    <path d="M316.7,238.4L323.6,259.7L346.0,259.7L327.9,272.9L334.8,294.2L316.7,281.0L298.6,294.2L305.5,272.9L287.4,259.7L309.8,259.7z"/>
    <path d="M443.3,238.4L450.2,259.7L472.6,259.7L454.5,272.9L461.4,294.2L443.3,281.0L425.2,294.2L432.1,272.9L414.0,259.7L436.4,259.7z"/>
    <path d="M570.0,238.4L576.9,259.7L599.3,259.7L581.2,272.9L588.1,294.2L570.0,281.0L551.9,294.2L558.8,272.9L540.7,259.7L563.1,259.7z"/>
    <path d="M696.7,238.4L703.6,259.7L726.0,259.7L707.9,272.9L714.8,294.2L696.7,281.0L678.6,294.2L685.5,272.9L667.4,259.7L689.8,259.7z"/>
    <path d="M126.7,292.3L133.6,313.6L156.0,313.6L137.9,326.7L144.8,348.0L126.7,334.9L108.6,348.0L115.5,326.7L97.4,313.6L119.8,313.6z"/>
    <path d="M253.3,292.3L260.2,313.6L282.6,313.6L264.5,326.7L271.4,348.0L253.3,334.9L235.2,348.0L242.1,326.7L224.0,313.6L246.4,313.6z"/>
    <path d="M380.0,292.3L386.9,313.6L409.3,313.6L391.2,326.7L398.1,348.0L380.0,334.9L361.9,348.0L368.8,326.7L350.7,313.6L373.1,313.6z"/>
    <path d="M506.7,292.3L513.6,313.6L536.0,313.6L517.9,326.7L524.8,348.0L506.7,334.9L488.6,348.0L495.5,326.7L477.4,313.6L499.8,313.6z"/>
    <path d="M633.3,292.3L640.2,313.6L662.6,313.6L644.5,326.7L651.4,348.0L633.3,334.9L615.2,348.0L622.1,326.7L604.0,313.6L626.4,313.6z"/>
    <path d="M63.3,346.1L70.2,367.4L92.6,367.4L74.5,380.6L81.4,401.9L63.3,388.7L45.2,401.9L52.1,380.6L34.0,367.4L56.4,367.4z"/>
    <path d="M190.0,346.1L196.9,367.4L219.3,367.4L201.2,380.6L208.1,401.9L190.0,388.7L171.9,401.9L178.8,380.6L160.7,367.4L183.1,367.4z"/>
    <path d="M316.7,346.1L323.6,367.4L346.0,367.4L327.9,380.6L334.8,401.9L316.7,388.7L298.6,401.9L305.5,380.6L287.4,367.4L309.8,367.4z"/>
    <path d="M443.3,346.1L450.2,367.4L472.6,367.4L454.5,380.6L461.4,401.9L443.3,388.7L425.2,401.9L432.1,380.6L414.0,367.4L436.4,367.4z"/>
    <path d="M570.0,346.1L576.9,367.4L599.3,367.4L581.2,380.6L588.1,401.9L570.0,388.7L551.9,401.9L558.8,380.6L540.7,367.4L563.1,367.4z"/>
    <path d="M696.7,346.1L703.6,367.4L726.0,367.4L707.9,380.6L714.8,401.9L696.7,388.7L678.6,401.9L685.5,380.6L667.4,367.4L689.8,367.4z"/>
    <path d="M126.7,400.0L133.6,421.3L156.0,421.3L137.9,434.4L144.8,455.7L126.7,442.6L108.6,455.7L115.5,434.4L97.4,421.3L119.8,421.3z"/>
    <path d="M253.3,400.0L260.2,421.3L282.6,421.3L264.5,434.4L271.4,455.7L253.3,442.6L235.2,455.7L242.1,434.4L224.0,421.3L246.4,421.3z"/>
    <path d="M380.0,400.0L386.9,421.3L409.3,421.3L391.2,434.4L398.1,455.7L380.0,442.6L361.9,455.7L368.8,434.4L350.7,421.3L373.1,421.3z"/>
    <path d="M506.7,400.0L513.6,421.3L536.0,421.3L517.9,434.4L524.8,455.7L506.7,442.6L488.6,455.7L495.5,434.4L477.4,421.3L499.8,421.3z"/>
    <path d="M633.3,400.0L640.2,421.3L662.6,421.3L644.5,434.4L651.4,455.7L633.3,442.6L615.2,455.7L622.1,434.4L604.0,421.3L626.4,421.3z"/>
    <path d="M63.3,453.9L70.2,475.1L92.6,475.1L74.5,488.3L81.4,509.6L63.3,496.4L45.2,509.6L52.1,488.3L34.0,475.1L56.4,475.1z"/>
    <path d="M190.0,453.9L196.9,475.1L219.3,475.1L201.2,488.3L208.1,509.6L190.0,496.4L171.9,509.6L178.8,488.3L160.7,475.1L183.1,475.1z"/>
    <path d="M316.7,453.9L323.6,475.1L346.0,475.1L327.9,488.3L334.8,509.6L316.7,496.4L298.6,509.6L305.5,488.3L287.4,475.1L309.8,475.1z"/>
    <path d="M443.3,453.9L450.2,475.1L472.6,475.1L454.5,488.3L461.4,509.6L443.3,496.4L425.2,509.6L432.1,488.3L414.0,475.1L436.4,475.1z"/>
    <path d="M570.0,453.9L576.9,475.1L599.3,475.1L581.2,488.3L588.1,509.6L570.0,496.4L551.9,509.6L558.8,488.3L540.7,475.1L563.1,475.1z"/>
    <path d="M696.7,453.9L703.6,475.1L726.0,475.1L707.9,488.3L714.8,509.6L696.7,496.4L678.6,509.6L685.5,488.3L667.4,475.1L689.8,475.1z"/>
  </g>
</svg>
