<svg width="1000" height="700" viewBox="-2100 -1470 4200 2940" xmlns="http://www.w3.org/2000/svg">
<clipPath id="B"><circle r="735"/></clipPath>
<path d="m-2100-1470h4200v2940h-4200z" fill="#009440"/>
<path d="M -1743,0 0,1113 1743,0 0,-1113 Z" fill="#FFCB00"/>
<circle r="735" fill="#302681"/>
<path d="m-2205 1470a1785 1785 0 0 1 3570 0h-105a1680 1680 0 1 0-3360 0z" clip-path="url(#B)" fill="#FFFFFF"/>
<g transform="translate(-420,1470)" fill="#009440">
<g transform="rotate(-7) translate(0,-1697.5)">
<path d="m0 0a31.5 35 0 0 0 0-70 31.5 35 0 0 0 0 70m0-13a18.5 22 0 0 0 0-44 18.5 22 0 0 0 0 44" fill-rule="evenodd"/>
</g>
<g transform="rotate(-4) translate(0,-1697.5)">
<g><path d="m-31.5 0h13v-26h28a22 22 0 0 0 0-44h-40zm13-39h27a9 9 0 0 0 0-18h-27z" fill-rule="evenodd"/><path d="m28 0c0-10 0-32-15-32h-19c22 0 22 22 22 32"/></g>
</g>
<g transform="rotate(-1) translate(0,-1697.5)">
<path d="m-31.5 0h33a30 30 0 0 0 30-30v-10a30 30 0 0 0-30-30h-33zm13-13h19a19 19 0 0 0 19-19v-6a19 19 0 0 0-19-19h-19z" fill-rule="evenodd"/>
</g>
<g transform="rotate(2) translate(0,-1697.5)">
<path transform="translate(-31.5)" d="m0 0h63v-13h-51v-18h40v-12h-40v-14h48v-13h-60z"/>
</g>
<g transform="rotate(5) translate(0,-1697.5)">
<path d="m-31.5 0h12v-48l14 48h11l14-48v48h12v-70h-17.5l-14 48-14-48h-17.5z"/>
</g>
<g transform="rotate(9.75) translate(0,-1697.5)">
<path d="m-26.25 0h52.5v-12h-40.5v-16h33v-12h-33v-11h39.25v-12h-51.25z"/>
</g>
<g transform="rotate(14.5) translate(0,-1697.5)">
<path d="m-31.5 0h13v-26h28a22 22 0 0 0 0-44h-40zm13-39h27a9 9 0 0 0 0-18h-27z" fill-rule="evenodd"/>
</g>
<g transform="rotate(17.5) translate(0,-1697.5)">
<g><path d="m-31.5 0h13v-26h28a22 22 0 0 0 0-44h-40zm13-39h27a9 9 0 0 0 0-18h-27z" fill-rule="evenodd"/><path d="m28 0c0-10 0-32-15-32h-19c22 0 22 22 22 32"/></g>
</g>
<g transform="rotate(20.5) translate(0,-1697.5)">
<path d="m0 0a31.5 35 0 0 0 0-70 31.5 35 0 0 0 0 70m0-13a18.5 22 0 0 0 0-44 18.5 22 0 0 0 0 44" fill-rule="evenodd"/>
</g>
<g transform="rotate(23.5) translate(0,-1697.5)">
<g>
<clipPath id="g"><path d="m-31.5 0v-70h63v70zm31.5-47v12h31.5v-12z"/></clipPath>
<g clip-path="url(#g)"><path d="m0 0a31.5 35 0 0 0 0-70 31.5 35 0 0 0 0 70m0-13a18.5 22 0 0 0 0-44 18.5 22 0 0 0 0 44" fill-rule="evenodd"/></g>
<path d="M5-35H31.5V-25H5z"/>
<path d="m21.5-35h10v35h-10z"/>
</g>
</g>
<g transform="rotate(26.5) translate(0,-1697.5)">
<g><path d="m-31.5 0h13v-26h28a22 22 0 0 0 0-44h-40zm13-39h27a9 9 0 0 0 0-18h-27z" fill-rule="evenodd"/><path d="m28 0c0-10 0-32-15-32h-19c22 0 22 22 22 32"/></g>
</g>
<g transform="rotate(29.5) translate(0,-1697.5)">
<path transform="translate(-31.5)" d="m0 0h63v-13h-51v-18h40v-12h-40v-14h48v-13h-60z"/>
</g>
<g transform="rotate(32.5) translate(0,-1697.5)">
<path d="m-15.75-22c0 7 6.75 10.5 16.75 10.5s14.74-3.25 14.75-7.75c0-14.25-46.75-5.25-46.5-30.25 0.25-21.5 24.75-20.5 33.75-20.5s26 4 25.75 21.25h-15.25c0-7.5-7-10.25-15-10.25-7.75 0-13.25 1.25-13.25 8.5-0.25 11.75 46.25 4 46.25 28.75 0 18.25-18 21.75-31.5 21.75-11.5 0-31.55-4.5-31.5-22z"/>
</g>
<g transform="rotate(35.5) translate(0,-1697.5)">
<path d="m-15.75-22c0 7 6.75 10.5 16.75 10.5s14.74-3.25 14.75-7.75c0-14.25-46.75-5.25-46.5-30.25 0.25-21.5 24.75-20.5 33.75-20.5s26 4 25.75 21.25h-15.25c0-7.5-7-10.25-15-10.25-7.75 0-13.25 1.25-13.25 8.5-0.25 11.75 46.25 4 46.25 28.75 0 18.25-18 21.75-31.5 21.75-11.5 0-31.55-4.5-31.5-22z"/>
</g>
<g transform="rotate(38.5) translate(0,-1697.5)">
<path d="m0 0a31.5 35 0 0 0 0-70 31.5 35 0 0 0 0 70m0-13a18.5 22 0 0 0 0-44 18.5 22 0 0 0 0 44" fill-rule="evenodd"/>
</g>
</g>
<g transform="translate(-600,-132)">
<g transform="scale(31.5)" fill="#FFFFFF">
<path transform="rotate(18,0,-1)" d="m0-1v1h0.5"/>
<path transform="scale(-1,1) rotate(18,0,-1)" d="m0-1v1h0.5"/>
<path transform="rotate(72) rotate(18,0,-1)" d="m0-1v1h0.5"/>
<path transform="rotate(72) scale(-1,1) rotate(18,0,-1)" d="m0-1v1h0.5"/>
<path transform="rotate(-72) rotate(18,0,-1)" d="m0-1v1h0.5"/>
<path transform="rotate(-72) scale(-1,1) rotate(18,0,-1)" d="m0-1v1h0.5"/>
<path transform="rotate(144) rotate(18,0,-1)" d="m0-1v1h0.5"/>
<path transform="rotate(144) scale(-1,1) rotate(18,0,-1)" d="m0-1v1h0.5"/>
<path transform="rotate(216) rotate(18,0,-1)" d="m0-1v1h0.5"/>
<path transform="rotate(216) scale(-1,1) rotate(18,0,-1)" d="m0-1v1h0.5"/>
</g>
</g>
<g transform="translate(-535,177)">
<g transform="scale(31.5)" fill="#FFFFFF">
<path transform="rotate(18,0,-1)" d="m0-1v1h0.5"/>
<path transform="scale(-1,1) rotate(18,0,-1)" d="m0-1v1h0.5"/>
<path transform="rotate(72) rotate(18,0,-1)" d="m0-1v1h0.5"/>
<path transform="rotate(72) scale(-1,1) rotate(18,0,-1)" d="m0-1v1h0.5"/>
<path transform="rotate(-72) rotate(18,0,-1)" d="m0-1v1h0.5"/>
<path transform="rotate(-72) scale(-1,1) rotate(18,0,-1)" d="m0-1v1h0.5"/>
<path transform="rotate(144) rotate(18,0,-1)" d="m0-1v1h0.5"/>
<path transform="rotate(144) scale(-1,1) rotate(18,0,-1)" d="m0-1v1h0.5"/>
<path transform="rotate(216) rotate(18,0,-1)" d="m0-1v1h0.5"/>
<path transform="rotate(216) scale(-1,1) rotate(18,0,-1)" d="m0-1v1h0.5"/>
</g>
</g>
<g transform="translate(-625,243)">
<g transform="scale(26.25)" fill="#FFFFFF">
<path transform="rotate(18,0,-1)" d="m0-1v1h0.5"/>
<path transform="scale(-1,1) rotate(18,0,-1)" d="m0-1v1h0.5"/>
<path transform="rotate(72) rotate(18,0,-1)" d="m0-1v1h0.5"/>
<path transform="rotate(72) scale(-1,1) rotate(18,0,-1)" d="m0-1v1h0.5"/>
<path transform="rotate(-72) rotate(18,0,-1)" d="m0-1v1h0.5"/>
<path transform="rotate(-72) scale(-1,1) rotate(18,0,-1)" d="m0-1v1h0.5"/>
<path transform="rotate(144) rotate(18,0,-1)" d="m0-1v1h0.5"/>
<path transform="rotate(144) scale(-1,1) rotate(18,0,-1)" d="m0-1v1h0.5"/>
<path transform="rotate(216) rotate(18,0,-1)" d="m0-1v1h0.5"/>
<path transform="rotate(216) scale(-1,1) rotate(18,0,-1)" d="m0-1v1h0.5"/>
</g>
</g>
<g transform="translate(-463,132)">
<g transform="scale(15)" fill="#FFFFFF">
<path transform="rotate(18,0,-1)" d="m0-1v1h0.5"/>
<path transform="scale(-1,1) rotate(18,0,-1)" d="m0-1v1h0.5"/>
<path transform="rotate(72) rotate(18,0,-1)" d="m0-1v1h0.5"/>
<path transform="rotate(72) scale(-1,1) rotate(18,0,-1)" d="m0-1v1h0.5"/>
<path transform="rotate(-72) rotate(18,0,-1)" d="m0-1v1h0.5"/>
<path transform="rotate(-72) scale(-1,1) rotate(18,0,-1)" d="m0-1v1h0.5"/>
<path transform="rotate(144) rotate(18,0,-1)" d="m0-1v1h0.5"/>
<path transform="rotate(144) scale(-1,1) rotate(18,0,-1)" d="m0-1v1h0.5"/>
<path transform="rotate(216) rotate(18,0,-1)" d="m0-1v1h0.5"/>
<path transform="rotate(216) scale(-1,1) rotate(18,0,-1)" d="m0-1v1h0.5"/>
</g>
</g>
<g transform="translate(-382,250)">
<g transform="scale(26.25)" fill="#FFFFFF">
<path transform="rotate(18,0,-1)" d="m0-1v1h0.5"/>
<path transform="scale(-1,1) rotate(18,0,-1)" d="m0-1v1h0.5"/>
<path transform="rotate(72) rotate(18,0,-1)" d="m0-1v1h0.5"/>
<path transform="rotate(72) scale(-1,1) rotate(18,0,-1)" d="m0-1v1h0.5"/>
<path transform="rotate(-72) rotate(18,0,-1)" d="m0-1v1h0.5"/>
<path transform="rotate(-72) scale(-1,1) rotate(18,0,-1)" d="m0-1v1h0.5"/>
<path transform="rotate(144) rotate(18,0,-1)" d="m0-1v1h0.5"/>
<path transform="rotate(144) scale(-1,1) rotate(18,0,-1)" d="m0-1v1h0.5"/>
<path transform="rotate(216) rotate(18,0,-1)" d="m0-1v1h0.5"/>
<path transform="rotate(216) scale(-1,1) rotate(18,0,-1)" d="m0-1v1h0.5"/>
</g>
</g>
<g transform="translate(-404,323)">
<g transform="scale(21)" fill="#FFFFFF">
<path transform="rotate(18,0,-1)" d="m0-1v1h0.5"/>
<path transform="scale(-1,1) rotate(18,0,-1)" d="m0-1v1h0.5"/>
<path transform="rotate(72) rotate(18,0,-1)" d="m0-1v1h0.5"/>
<path transform="rotate(72) scale(-1,1) rotate(18,0,-1)" d="m0-1v1h0.5"/>
<path transform="rotate(-72) rotate(18,0,-1)" d="m0-1v1h0.5"/>
<path transform="rotate(-72) scale(-1,1) rotate(18,0,-1)" d="m0-1v1h0.5"/>
<path transform="rotate(144) rotate(18,0,-1)" d="m0-1v1h0.5"/>
<path transform="rotate(144) scale(-1,1) rotate(18,0,-1)" d="m0-1v1h0.5"/>
<path transform="rotate(216) rotate(18,0,-1)" d="m0-1v1h0.5"/>
<path transform="rotate(216) scale(-1,1) rotate(18,0,-1)" d="m0-1v1h0.5"/>
</g>
</g>
<g transform="translate(228,-228)">
<g transform="scale(31.5)" fill="#FFFFFF">
<path transform="rotate(18,0,-1)" d="m0-1v1h0.5"/>
<path transform="scale(-1,1) rotate(18,0,-1)" d="m0-1v1h0.5"/>
<path transform="rotate(72) rotate(18,0,-1)" d="m0-1v1h0.5"/>
<path transform="rotate(72) scale(-1,1) rotate(18,0,-1)" d="m0-1v1h0.5"/>
<path transform="rotate(-72) rotate(18,0,-1)" d="m0-1v1h0.5"/>
<path transform="rotate(-72) scale(-1,1) rotate(18,0,-1)" d="m0-1v1h0.5"/>
<path transform="rotate(144) rotate(18,0,-1)" d="m0-1v1h0.5"/>
<path transform="rotate(144) scale(-1,1) rotate(18,0,-1)" d="m0-1v1h0.5"/>
<path transform="rotate(216) rotate(18,0,-1)" d="m0-1v1h0.5"/>
<path transform="rotate(216) scale(-1,1) rotate(18,0,-1)" d="m0-1v1h0.5"/>
</g>
</g>
<g transform="translate(515,258)">
<g transform="scale(31.5)" fill="#FFFFFF">
<path transform="rotate(18,0,-1)" d="m0-1v1h0.5"/>
<path transform="scale(-1,1) rotate(18,0,-1)" d="m0-1v1h0.5"/>
<path transform="rotate(72) rotate(18,0,-1)" d="m0-1v1h0.5"/>
<path transform="rotate(72) scale(-1,1) rotate(18,0,-1)" d="m0-1v1h0.5"/>
<path transform="rotate(-72) rotate(18,0,-1)" d="m0-1v1h0.5"/>
<path transform="rotate(-72) scale(-1,1) rotate(18,0,-1)" d="m0-1v1h0.5"/>
<path transform="rotate(144) rotate(18,0,-1)" d="m0-1v1h0.5"/>
<path transform="rotate(144) scale(-1,1) rotate(18,0,-1)" d="m0-1v1h0.5"/>
<path transform="rotate(216) rotate(18,0,-1)" d="m0-1v1h0.5"/>
<path transform="rotate(216) scale(-1,1) rotate(18,0,-1)" d="m0-1v1h0.5"/>
</g>
</g>
<g transform="translate(617,265)">
<g transform="scale(21)" fill="#FFFFFF">
<path transform="rotate(18,0,-1)" d="m0-1v1h0.5"/>
<path transform="scale(-1,1) rotate(18,0,-1)" d="m0-1v1h0.5"/>
<path transform="rotate(72) rotate(18,0,-1)" d="m0-1v1h0.5"/>
<path transform="rotate(72) scale(-1,1) rotate(18,0,-1)" d="m0-1v1h0.5"/>
<path transform="rotate(-72) rotate(18,0,-1)" d="m0-1v1h0.5"/>
<path transform="rotate(-72) scale(-1,1) rotate(18,0,-1)" d="m0-1v1h0.5"/>
<path transform="rotate(144) rotate(18,0,-1)" d="m0-1v1h0.5"/>
<path transform="rotate(144) scale(-1,1) rotate(18,0,-1)" d="m0-1v1h0.5"/>
<path transform="rotate(216) rotate(18,0,-1)" d="m0-1v1h0.5"/>
<path transform="rotate(216) scale(-1,1) rotate(18,0,-1)" d="m0-1v1h0.5"/>
</g>
</g>
<g transform="translate(545,323)">
<g transform="scale(26.25)" fill="#FFFFFF">
<path transform="rotate(18,0,-1)" d="m0-1v1h0.5"/>
<path transform="scale(-1,1) rotate(18,0,-1)" d="m0-1v1h0.5"/>
<path transform="rotate(72) rotate(18,0,-1)" d="m0-1v1h0.5"/>
<path transform="rotate(72) scale(-1,1) rotate(18,0,-1)" d="m0-1v1h0.5"/>
<path transform="rotate(-72) rotate(18,0,-1)" d="m0-1v1h0.5"/>
<path transform="rotate(-72) scale(-1,1) rotate(18,0,-1)" d="m0-1v1h0.5"/>
<path transform="rotate(144) rotate(18,0,-1)" d="m0-1v1h0.5"/>
<path transform="rotate(144) scale(-1,1) rotate(18,0,-1)" d="m0-1v1h0.5"/>
<path transform="rotate(216) rotate(18,0,-1)" d="m0-1v1h0.5"/>
<path transform="rotate(216) scale(-1,1) rotate(18,0,-1)" d="m0-1v1h0.5"/>
</g>
</g>
<g transform="translate(368,477)">
<g transform="scale(26.25)" fill="#FFFFFF">
<path transform="rotate(18,0,-1)" d="m0-1v1h0.5"/>
<path transform="scale(-1,1) rotate(18,0,-1)" d="m0-1v1h0.5"/>
<path transform="rotate(72) rotate(18,0,-1)" d="m0-1v1h0.5"/>
<path transform="rotate(72) scale(-1,1) rotate(18,0,-1)" d="m0-1v1h0.5"/>
<path transform="rotate(-72) rotate(18,0,-1)" d="m0-1v1h0.5"/>
<path transform="rotate(-72) scale(-1,1) rotate(18,0,-1)" d="m0-1v1h0.5"/>
<path transform="rotate(144) rotate(18,0,-1)" d="m0-1v1h0.5"/>
<path transform="rotate(144) scale(-1,1) rotate(18,0,-1)" d="m0-1v1h0.5"/>
<path transform="rotate(216) rotate(18,0,-1)" d="m0-1v1h0.5"/>
<path transform="rotate(216) scale(-1,1) rotate(18,0,-1)" d="m0-1v1h0.5"/>
</g>
</g>
<g transform="translate(367,551)">
<g transform="scale(21)" fill="#FFFFFF">
<path transform="rotate(18,0,-1)" d="m0-1v1h0.5"/>
<path transform="scale(-1,1) rotate(18,0,-1)" d="m0-1v1h0.5"/>
<path transform="rotate(72) rotate(18,0,-1)" d="m0-1v1h0.5"/>
<path transform="rotate(72) scale(-1,1) rotate(18,0,-1)" d="m0-1v1h0.5"/>
<path transform="rotate(-72) rotate(18,0,-1)" d="m0-1v1h0.5"/>
<path transform="rotate(-72) scale(-1,1) rotate(18,0,-1)" d="m0-1v1h0.5"/>
<path transform="rotate(144) rotate(18,0,-1)" d="m0-1v1h0.5"/>
<path transform="rotate(144) scale(-1,1) rotate(18,0,-1)" d="m0-1v1h0.5"/>
<path transform="rotate(216) rotate(18,0,-1)" d="m0-1v1h0.5"/>
<path transform="rotate(216) scale(-1,1) rotate(18,0,-1)" d="m0-1v1h0.5"/>
</g>
</g>
<g transform="translate(441,419)">
<g transform="scale(21)" fill="#FFFFFF">
<path transform="rotate(18,0,-1)" d="m0-1v1h0.5"/>
<path transform="scale(-1,1) rotate(18,0,-1)" d="m0-1v1h0.5"/>
<path transform="rotate(72) rotate(18,0,-1)" d="m0-1v1h0.5"/>
<path transform="rotate(72) scale(-1,1) rotate(18,0,-1)" d="m0-1v1h0.5"/>
<path transform="rotate(-72) rotate(18,0,-1)" d="m0-1v1h0.5"/>
<path transform="rotate(-72) scale(-1,1) rotate(18,0,-1)" d="m0-1v1h0.5"/>
<path transform="rotate(144) rotate(18,0,-1)" d="m0-1v1h0.5"/>
<path transform="rotate(144) scale(-1,1) rotate(18,0,-1)" d="m0-1v1h0.5"/>
<path transform="rotate(216) rotate(18,0,-1)" d="m0-1v1h0.5"/>
<path transform="rotate(216) scale(-1,1) rotate(18,0,-1)" d="m0-1v1h0.5"/>
</g>
</g>
<g transform="translate(500,382)">
<g transform="scale(26.25)" fill="#FFFFFF">
<path transform="rotate(18,0,-1)" d="m0-1v1h0.5"/>
<path transform="scale(-1,1) rotate(18,0,-1)" d="m0-1v1h0.5"/>
<path transform="rotate(72) rotate(18,0,-1)" d="m0-1v1h0.5"/>
<path transform="rotate(72) scale(-1,1) rotate(18,0,-1)" d="m0-1v1h0.5"/>
<path transform="rotate(-72) rotate(18,0,-1)" d="m0-1v1h0.5"/>
<path transform="rotate(-72) scale(-1,1) rotate(18,0,-1)" d="m0-1v1h0.5"/>
<path transform="rotate(144) rotate(18,0,-1)" d="m0-1v1h0.5"/>
<path transform="rotate(144) scale(-1,1) rotate(18,0,-1)" d="m0-1v1h0.5"/>
<path transform="rotate(216) rotate(18,0,-1)" d="m0-1v1h0.5"/>
<path transform="rotate(216) scale(-1,1) rotate(18,0,-1)" d="m0-1v1h0.5"/>
</g>
</g>
<g transform="translate(365,405)">
<g transform="scale(21)" fill="#FFFFFF">
<path transform="rotate(18,0,-1)" d="m0-1v1h0.5"/>
<path transform="scale(-1,1) rotate(18,0,-1)" d="m0-1v1h0.5"/>
<path transform="rotate(72) rotate(18,0,-1)" d="m0-1v1h0.5"/>
<path transform="rotate(72) scale(-1,1) rotate(18,0,-1)" d="m0-1v1h0.5"/>
<path transform="rotate(-72) rotate(18,0,-1)" d="m0-1v1h0.5"/>
<path transform="rotate(-72) scale(-1,1) rotate(18,0,-1)" d="m0-1v1h0.5"/>
<path transform="rotate(144) rotate(18,0,-1)" d="m0-1v1h0.5"/>
<path transform="rotate(144) scale(-1,1) rotate(18,0,-1)" d="m0-1v1h0.5"/>
<path transform="rotate(216) rotate(18,0,-1)" d="m0-1v1h0.5"/>
<path transform="rotate(216) scale(-1,1) rotate(18,0,-1)" d="m0-1v1h0.5"/>
</g>
</g>
<g transform="translate(-280,30)">
<g transform="scale(26.25)" fill="#FFFFFF">
<path transform="rotate(18,0,-1)" d="m0-1v1h0.5"/>
<path transform="scale(-1,1) rotate(18,0,-1)" d="m0-1v1h0.5"/>
<path transform="rotate(72) rotate(18,0,-1)" d="m0-1v1h0.5"/>
<path transform="rotate(72) scale(-1,1) rotate(18,0,-1)" d="m0-1v1h0.5"/>
<path transform="rotate(-72) rotate(18,0,-1)" d="m0-1v1h0.5"/>
<path transform="rotate(-72) scale(-1,1) rotate(18,0,-1)" d="m0-1v1h0.5"/>
<path transform="rotate(144) rotate(18,0,-1)" d="m0-1v1h0.5"/>
<path transform="rotate(144) scale(-1,1) rotate(18,0,-1)" d="m0-1v1h0.5"/>
<path transform="rotate(216) rotate(18,0,-1)" d="m0-1v1h0.5"/>
<path transform="rotate(216) scale(-1,1) rotate(18,0,-1)" d="m0-1v1h0.5"/>
</g>
</g>
<g transform="translate(200,-37)">
<g transform="scale(21)" fill="#FFFFFF">
<path transform="rotate(18,0,-1)" d="m0-1v1h0.5"/>
<path transform="scale(-1,1) rotate(18,0,-1)" d="m0-1v1h0.5"/>
<path transform="rotate(72) rotate(18,0,-1)" d="m0-1v1h0.5"/>
<path transform="rotate(72) scale(-1,1) rotate(18,0,-1)" d="m0-1v1h0.5"/>
<path transform="rotate(-72) rotate(18,0,-1)" d="m0-1v1h0.5"/>
<path transform="rotate(-72) scale(-1,1) rotate(18,0,-1)" d="m0-1v1h0.5"/>
<path transform="rotate(144) rotate(18,0,-1)" d="m0-1v1h0.5"/>
<path transform="rotate(144) scale(-1,1) rotate(18,0,-1)" d="m0-1v1h0.5"/>
<path transform="rotate(216) rotate(18,0,-1)" d="m0-1v1h0.5"/>
<path transform="rotate(216) scale(-1,1) rotate(18,0,-1)" d="m0-1v1h0.5"/>
</g>
</g>
<g transform="translate(0,330)">
<g transform="scale(31.5)" fill="#FFFFFF">
<path transform="rotate(18,0,-1)" d="m0-1v1h0.5"/>
<path transform="scale(-1,1) rotate(18,0,-1)" d="m0-1v1h0.5"/>
<path transform="rotate(72) rotate(18,0,-1)" d="m0-1v1h0.5"/>
<path transform="rotate(72) scale(-1,1) rotate(18,0,-1)" d="m0-1v1h0.5"/>
<path transform="rotate(-72) rotate(18,0,-1)" d="m0-1v1h0.5"/>
<path transform="rotate(-72) scale(-1,1) rotate(18,0,-1)" d="m0-1v1h0.5"/>
<path transform="rotate(144) rotate(18,0,-1)" d="m0-1v1h0.5"/>
<path transform="rotate(144) scale(-1,1) rotate(18,0,-1)" d="m0-1v1h0.5"/>
<path transform="rotate(216) rotate(18,0,-1)" d="m0-1v1h0.5"/>
<path transform="rotate(216) scale(-1,1) rotate(18,0,-1)" d="m0-1v1h0.5"/>
</g>
</g>
<g transform="translate(85,184)">
<g transform="scale(26.25)" fill="#FFFFFF">
<path transform="rotate(18,0,-1)" d="m0-1v1h0.5"/>
<path transform="scale(-1,1) rotate(18,0,-1)" d="m0-1v1h0.5"/>
<path transform="rotate(72) rotate(18,0,-1)" d="m0-1v1h0.5"/>
<path transform="rotate(72) scale(-1,1) rotate(18,0,-1)" d="m0-1v1h0.5"/>
<path transform="rotate(-72) rotate(18,0,-1)" d="m0-1v1h0.5"/>
<path transform="rotate(-72) scale(-1,1) rotate(18,0,-1)" d="m0-1v1h0.5"/>
<path transform="rotate(144) rotate(18,0,-1)" d="m0-1v1h0.5"/>
<path transform="rotate(144) scale(-1,1) rotate(18,0,-1)" d="m0-1v1h0.5"/>
<path transform="rotate(216) rotate(18,0,-1)" d="m0-1v1h0.5"/>
<path transform="rotate(216) scale(-1,1) rotate(18,0,-1)" d="m0-1v1h0.5"/>
</g>
</g>
<g transform="translate(0,118)">
<g transform="scale(26.25)" fill="#FFFFFF">
<path transform="rotate(18,0,-1)" d="m0-1v1h0.5"/>
<path transform="scale(-1,1) rotate(18,0,-1)" d="m0-1v1h0.5"/>
<path transform="rotate(72) rotate(18,0,-1)" d="m0-1v1h0.5"/>
<path transform="rotate(72) scale(-1,1) rotate(18,0,-1)" d="m0-1v1h0.5"/>
<path transform="rotate(-72) rotate(18,0,-1)" d="m0-1v1h0.5"/>
<path transform="rotate(-72) scale(-1,1) rotate(18,0,-1)" d="m0-1v1h0.5"/>
<path transform="rotate(144) rotate(18,0,-1)" d="m0-1v1h0.5"/>
<path transform="rotate(144) scale(-1,1) rotate(18,0,-1)" d="m0-1v1h0.5"/>
<path transform="rotate(216) rotate(18,0,-1)" d="m0-1v1h0.5"/>
<path transform="rotate(216) scale(-1,1) rotate(18,0,-1)" d="m0-1v1h0.5"/>
</g>
</g>
<g transform="translate(-74,184)">
<g transform="scale(21)" fill="#FFFFFF">
<path transform="rotate(18,0,-1)" d="m0-1v1h0.5"/>
<path transform="scale(-1,1) rotate(18,0,-1)" d="m0-1v1h0.5"/>
<path transform="rotate(72) rotate(18,0,-1)" d="m0-1v1h0.5"/>
<path transform="rotate(72) scale(-1,1) rotate(18,0,-1)" d="m0-1v1h0.5"/>
<path transform="rotate(-72) rotate(18,0,-1)" d="m0-1v1h0.5"/>
<path transform="rotate(-72) scale(-1,1) rotate(18,0,-1)" d="m0-1v1h0.5"/>
<path transform="rotate(144) rotate(18,0,-1)" d="m0-1v1h0.5"/>
<path transform="rotate(144) scale(-1,1) rotate(18,0,-1)" d="m0-1v1h0.5"/>
<path transform="rotate(216) rotate(18,0,-1)" d="m0-1v1h0.5"/>
<path transform="rotate(216) scale(-1,1) rotate(18,0,-1)" d="m0-1v1h0.5"/>
</g>
</g>
<g transform="translate(-37,235)">
<g transform="scale(15)" fill="#FFFFFF">
<path transform="rotate(18,0,-1)" d="m0-1v1h0.5"/>
<path transform="scale(-1,1) rotate(18,0,-1)" d="m0-1v1h0.5"/>
<path transform="rotate(72) rotate(18,0,-1)" d="m0-1v1h0.5"/>
<path transform="rotate(72) scale(-1,1) rotate(18,0,-1)" d="m0-1v1h0.5"/>
<path transform="rotate(-72) rotate(18,0,-1)" d="m0-1v1h0.5"/>
<path transform="rotate(-72) scale(-1,1) rotate(18,0,-1)" d="m0-1v1h0.5"/>
<path transform="rotate(144) rotate(18,0,-1)" d="m0-1v1h0.5"/>
<path transform="rotate(144) scale(-1,1) rotate(18,0,-1)" d="m0-1v1h0.5"/>
<path transform="rotate(216) rotate(18,0,-1)" d="m0-1v1h0.5"/>
<path transform="rotate(216) scale(-1,1) rotate(18,0,-1)" d="m0-1v1h0.5"/>
</g>
</g>
<g transform="translate(220,495)">
<g transform="scale(26.25)" fill="#FFFFFF">
<path transform="rotate(18,0,-1)" d="m0-1v1h0.5"/>
<path transform="scale(-1,1) rotate(18,0,-1)" d="m0-1v1h0.5"/>
<path transform="rotate(72) rotate(18,0,-1)" d="m0-1v1h0.5"/>
<path transform="rotate(72) scale(-1,1) rotate(18,0,-1)" d="m0-1v1h0.5"/>
<path transform="rotate(-72) rotate(18,0,-1)" d="m0-1v1h0.5"/>
<path transform="rotate(-72) scale(-1,1) rotate(18,0,-1)" d="m0-1v1h0.5"/>
<path transform="rotate(144) rotate(18,0,-1)" d="m0-1v1h0.5"/>
<path transform="rotate(144) scale(-1,1) rotate(18,0,-1)" d="m0-1v1h0.5"/>
<path transform="rotate(216) rotate(18,0,-1)" d="m0-1v1h0.5"/>
<path transform="rotate(216) scale(-1,1) rotate(18,0,-1)" d="m0-1v1h0.5"/>
</g>
</g>
<g transform="translate(283,430)">
<g transform="scale(21)" fill="#FFFFFF">
<path transform="rotate(18,0,-1)" d="m0-1v1h0.5"/>
<path transform="scale(-1,1) rotate(18,0,-1)" d="m0-1v1h0.5"/>
<path transform="rotate(72) rotate(18,0,-1)" d="m0-1v1h0.5"/>
<path transform="rotate(72) scale(-1,1) rotate(18,0,-1)" d="m0-1v1h0.5"/>
<path transform="rotate(-72) rotate(18,0,-1)" d="m0-1v1h0.5"/>
<path transform="rotate(-72) scale(-1,1) rotate(18,0,-1)" d="m0-1v1h0.5"/>
<path transform="rotate(144) rotate(18,0,-1)" d="m0-1v1h0.5"/>
<path transform="rotate(144) scale(-1,1) rotate(18,0,-1)" d="m0-1v1h0.5"/>
<path transform="rotate(216) rotate(18,0,-1)" d="m0-1v1h0.5"/>
<path transform="rotate(216) scale(-1,1) rotate(18,0,-1)" d="m0-1v1h0.5"/>
</g>
</g>
<g transform="translate(162,412)">
<g transform="scale(21)" fill="#FFFFFF">
<path transform="rotate(18,0,-1)" d="m0-1v1h0.5"/>
<path transform="scale(-1,1) rotate(18,0,-1)" d="m0-1v1h0.5"/>
<path transform="rotate(72) rotate(18,0,-1)" d="m0-1v1h0.5"/>
<path transform="rotate(72) scale(-1,1) rotate(18,0,-1)" d="m0-1v1h0.5"/>
<path transform="rotate(-72) rotate(18,0,-1)" d="m0-1v1h0.5"/>
<path transform="rotate(-72) scale(-1,1) rotate(18,0,-1)" d="m0-1v1h0.5"/>
<path transform="rotate(144) rotate(18,0,-1)" d="m0-1v1h0.5"/>
<path transform="rotate(144) scale(-1,1) rotate(18,0,-1)" d="m0-1v1h0.5"/>
<path transform="rotate(216) rotate(18,0,-1)" d="m0-1v1h0.5"/>
<path transform="rotate(216) scale(-1,1) rotate(18,0,-1)" d="m0-1v1h0.5"/>
</g>
</g>
<g transform="translate(-295,390)">
<g transform="scale(31.5)" fill="#FFFFFF">
<path transform="rotate(18,0,-1)" d="m0-1v1h0.5"/>
<path transform="scale(-1,1) rotate(18,0,-1)" d="m0-1v1h0.5"/>
<path transform="rotate(72) rotate(18,0,-1)" d="m0-1v1h0.5"/>
<path transform="rotate(72) scale(-1,1) rotate(18,0,-1)" d="m0-1v1h0.5"/>
<path transform="rotate(-72) rotate(18,0,-1)" d="m0-1v1h0.5"/>
<path transform="rotate(-72) scale(-1,1) rotate(18,0,-1)" d="m0-1v1h0.5"/>
<path transform="rotate(144) rotate(18,0,-1)" d="m0-1v1h0.5"/>
<path transform="rotate(144) scale(-1,1) rotate(18,0,-1)" d="m0-1v1h0.5"/>
<path transform="rotate(216) rotate(18,0,-1)" d="m0-1v1h0.5"/>
<path transform="rotate(216) scale(-1,1) rotate(18,0,-1)" d="m0-1v1h0.5"/>
</g>
</g>
<g transform="translate(0,575)">
<g transform="scale(10.5)" fill="#FFFFFF">
<path transform="rotate(18,0,-1)" d="m0-1v1h0.5"/>
<path transform="scale(-1,1) rotate(18,0,-1)" d="m0-1v1h0.5"/>
<path transform="rotate(72) rotate(18,0,-1)" d="m0-1v1h0.5"/>
<path transform="rotate(72) scale(-1,1) rotate(18,0,-1)" d="m0-1v1h0.5"/>
<path transform="rotate(-72) rotate(18,0,-1)" d="m0-1v1h0.5"/>
<path transform="rotate(-72) scale(-1,1) rotate(18,0,-1)" d="m0-1v1h0.5"/>
<path transform="rotate(144) rotate(18,0,-1)" d="m0-1v1h0.5"/>
<path transform="rotate(144) scale(-1,1) rotate(18,0,-1)" d="m0-1v1h0.5"/>
<path transform="rotate(216) rotate(18,0,-1)" d="m0-1v1h0.5"/>
<path transform="rotate(216) scale(-1,1) rotate(18,0,-1)" d="m0-1v1h0.5"/>
</g>
</g>
</svg>