<svg xmlns="http://www.w3.org/2000/svg" width="512" height="512" viewBox="0 0 512 512">
  <defs>
    <clipPath id="r">
      <rect width="512" height="512"/>
    </clipPath>
  </defs>
  <g clip-path="url(#r)">
    <g transform="matrix(0.365714 0 0 0.365714 -109.714286 0)"><path fill="#28166F" d="M0 0h2000v1400H0z"/><path fill="#FFFFFF" d="m170 700 830 530 830-530-830-530z"/><circle cx="1000" cy="700" r="350" fill="#00923F"/><path fill="#F8C300" d="M1000 350 892 683l166 54z"/><path fill="#F8C300" d="m1000 350 108 333-166 54z"/><path fill="#F8C300" d="M1333 592H983v175z"/><path fill="#F8C300" d="m1333 592-283 206-103-142z"/><path fill="#F8C300" d="m667 592 283 206 103-142z"/><path fill="#F8C300" d="M667 592h350v175z"/><path fill="#F8C300" d="m1206 983-108-333-167 54z"/><path fill="#F8C300" d="M1206 983 923 777l102-141z"/><path fill="#F8C300" d="m794 983 283-206-102-141z"/><path fill="#F8C300" d="m794 983 108-333 167 54z"/></g>
    <!-- border --><rect width="512" height="512" fill="none" stroke="#cdcfd3" stroke-width="16"/>
  </g>
</svg>
