<svg xmlns="http://www.w3.org/2000/svg" width="512" height="512" viewBox="0 0 512 512">
  <defs><clipPath id="r"><rect width="512" height="512"/></clipPath></defs>
  <g clip-path="url(#r)">
    <g transform="scale(1.120350) translate(-114.0,0.0)">

<defs>
<linearGradient id="Gradient1" x1="621.394" x2="629.193" y1="1213.57" y2="1221.82" gradientUnits="userSpaceOnUse"><stop offset="0" stop-color="#EFECE6" /><stop offset="1" stop-color="#E5F2FB" /></linearGradient>
<linearGradient id="Gradient2" x1="1378.69" x2="1363.51" y1="480.129" y2="490.729" gradientUnits="userSpaceOnUse"><stop offset="0" stop-color="#29292D" /><stop offset="1" stop-color="#0F2D46" /></linearGradient>
</defs>
<path fill="#00287e" d="M0 0h685v457H0z"/>
<g transform="translate(76.3,29.7) scale(0.26)">
<path fill="#E9B12C" d="M1455.78 332.047c-1.49-24.871-18.27-46.039-14.24-72.346.82-5.392.24-11.122 6.23-13.588 12.37 4.061 2.95 47.234 28.87 55.08 25.61 7.75 43.89-32.341 57.69-29.488 5.43 5.649 3.26 11.925 12.69 12.69 12.78 1.039 11.06-20.075 23.83-16.699 5.16 7.945-3.3 13.378 4.62 17.804 14.06-.144 20.93-19.287 33.09-23.033l2.53.461c5.56 10.824-10.37 27.915-17.29 35.015-14.84 15.271-32.53 23.673-51.71 32.49-6.67 3.066-33.07 15.674-25.78 27.403 6.08 9.781 18.86-2.749 23.86-8.035 3.75-3.969 9.01-10.96 15.08-11.845 4.87 3.354 1.67 12.228.37 17.115 15.06-6.027 27.54-25.638 34.31-25.8 3.23 1.736 2.36.708 3.91 3.726-.56 7.043-6.21 11.648-5.61 16.765 7.28 4.352 26.38-15.78 31.06-20.915 6-6.586 9.27-20.281 19.45-19.385 5.49 3.907 2.51 8.784.1 14.06-12.91 28.21-33.52 44.065-60.84 56.303-21.8 9.768-72.87 12.663-79.89 37.924l.47 2.208c3.84.612 15.35-5.605 20.11-7.185 18.18-6.034 44.44-3.842 61.88 3.266-33.11 51.944-62.9 25.024-69.12 34.024.47 9.289 16.73 9.386 24.25 10.074 11.52 47.334 2.34 67.012 2.33 114.625-4.58-2.608-9.58-5.331-14.02-8.1-.05 21.296 1.38 28.848 6.92 49.605-7.69-2.976-9.03-3.593-15.74-8.023-1.93 33.003-.53 38.759 12.19 69.425-3.93-.491-8.7-.939-12.5-1.777-7.74 42.765-5.67 59.109 19.49 96.931 16.38 24.627 33.05 35.858 52.24 56.259 22.9 24.338 38.01 57.802 36.26 91.851-7.91-3.861-12.38-6.406-19.62-11.505-2.74 22.442-7.95 36.441-14.89 57.123-6.31 18.823-.37 45.26 11.58 60.46 4.34 5.83 11.41 11.81 14.82 17.94-.07 12.35-.73 27.32-1.93 39.61-3.23 33.27 2.08 67.22 1.29 100.05-16.81 11.89-13.18 16.68-18.46 35.1-11.36-5.61-18.2-9.26-28.67-16.93 7.21-16.91 10.46-17.35 19.65-31.46.72-19.49.2-92.34-10.51-108.26-19.41-28.86-50.11-53.5-67.73-86.896-14.45-27.403-6.51-51.825-13.25-75.042-3.65-4.973-1.74-9.801-4.38-12.97-2.89.718-3.31.754-5.85 2.216-1.7 3.847.51 8.331-1.39 16.46-8.13-1.957-26.97-11.413-34.56-15.115-22.67-11.057-41.26-21.749-60.89-37.413-19.01-15.168-38.97-35.342-59.56-47.311-3.23-14.329-5.61-27.817-9.13-42.482 19.78-5.36 42.62-8.14 61.11-14.956 9.87-3.638 13.97-15.178 16.84-24.477-7.75 4.971-15.97 11.03-26.21 14.82-23.47 8.693-80.58 12.498-97.4 28.46-5.12 4.855-7.85 49.01-5.89 57.529 1.02 4.403 6.66 21.018 8.22 28.675-3.45 1.751-7.15 3.969-10.54 5.898 7.73 25.539 3.96 34.561-21.62 44.7-2.29-16.01-.33-53.781-.6-71.844.8-24.126-.85-51.316 1.19-75.113 2.56-29.995 71.96-47.422 92.48-66.868 10.64-10.087 11.1-11.722 12.72-25.023-11.56 9.839-22.94 17.978-36.59 24.684 7.5-34.18 24.8-58.989 47.15-84.779l-12.69-4.681c10.35-12.65 25.69-23.322 38.89-32.859-8.16-.659-15.34-.479-23.5-.368 7.14-28.551 38.28-34.421 52.04-57.578 4.08-6.881 5.34-12.295 7.3-20.021-7.35-1.254-12.17-1.751-19.61-2.233-8.86 3.679-13.89 9.055-20.87 15.45-6.35-1.55-13.71-4.063-20.03-6.045-3.93-2.743-9.05-7.063-12.1-10.759-2.8-2.202-7.32-5.555-7.39-9.215-.15-7.964 3.61-21.586 9.08-27.431 13.5-14.429 43.63-15.98 61.49-24.046 10.26-4.634 17.58-10.91 28.06-15.584 5.82-2.599 17.68-4.564 20.68-6.918-7-6.344-87.28 2.064-125.03-33.179-4.09-3.813-10.43-10.513-10.46-16.455-.01-1.097.3-2.13.58-3.177 7.7-6.08 19.52 9.613 26.65 14.229a73.5 73.5 0 0 0 23.36 9.74c-2.69-5.5-6.56-11.514-5.17-17.443 6.96-5.935 18.58 10.82 26.78 15.798 12.7 7.709 57.22 15.615 69.3 7.501 4.84-6.894-2.96-21.341-10.37-25.072-39.86-20.065-99.99-3.439-121.71-53.704-.91-2.089-.1-3.466.53-5.435 10.46-4.907 27.24 27.517 50.52 26.548 9.58-5.884-9.67-22.64 1.01-32.033 8.02-1.658 8.4 8.245 11.82 13.91 11.85 19.626 34.38 27.261 56.37 26.894" />
<path fill="url(#Gradient2)" d="M1359.36 486.594c7.09-2.719 13.12-5.877 20.58-5.605l2.07 1.152c-.78 6.05-11.83 10.076-17.02 12.633-3.38-3.514-2.41-5.954-5.63-8.18" />
<path fill="#1A303E" d="M1481.17 870.252c10.24 10.45 13.39 16.332 13.98 30.87-3.65-4.973-1.74-9.801-4.38-12.97-2.89.718-3.31.754-5.85 2.216-1.7 3.847.51 8.331-1.39 16.46-1.14-11.106-1.45-25.021-2.36-36.576" />
<path fill="#003271" d="m1349.68 487.119 9.68-.525c3.22 2.226 2.25 4.666 5.63 8.18l-3.21 3.104c-3.93-2.743-9.05-7.063-12.1-10.759" />
<path fill="#003271" d="M1446.08 430.197c7.04-.007 11.73 1.528 18.2 3.976-5.12 5.292-8.14 8.288-15 10.99-6.97-.213-11.56-2.135-18.05-4.502 5.13-6.129 6.83-8.283 14.85-10.464" />
<path fill="#1A303E" d="m1369.98 456.177.34.351c1.42 6.579-6.65 14.228-12.52 16.482-7.17-8.611 4.86-15.088 12.18-16.833" />
<path fill="#E9B12C" d="m570.749 408.07-.357-.623c-2.971-5.094-5.683-10.359-10.875-13.462-19.441-11.621-38.217-22.916-56.243-36.711-6.498-4.973-19.589-4.202-27.648-4.129-23.292.208-50.239.413-68.41-16.559-1.445-1.351-.905-2.36-.68-4.011 1.07-1.109 2.147-2.733 3.865-2.213 11.106 3.361 22.246 10.15 34.627 7.538 11.649-2.458 9.552-13.738 13.815-21.132 7.274-2.821 12.595 19.172 25.703 22.173 3.524-.843 1.968-.05 4.717-2.691.898-6.872-9.239-19.784-15.425-23.297-9.134-5.186-27.587-8.023-31.972-18.656 3.505-7.014 19.136 6.286 32.033-1.949 11.907-7.604 16.14-19.101 18.748-32.822.965-5.078-.236-7.848 1.449-13.943 2.283-2.605.884-1.785 4.422-2.399 11.559 7.921-3.605 45.578-3.308 57.067.353 13.641 17.788 42.485 30.346 46.256 14.6-1.678 29.179-38.732 31.908-52.254 1.496-7.416.151-25.203 6.365-29.265 11.388 4.696 3.689 38.944 2.312 48.729-1.349 9.588 7.081 22.93 9.111 32.894 1.522 7.474.793 25.11 4.795 30.049 11.189 2.21 20.985-27.152 27.448-30.916l1.521.792c3.179 10.181-.47 18.643-4.371 27.6 19.057-10.547 37.874-32.849 46.377-53.051 1.863-4.426 2.214-13.078 4.387-19.494 2.634-2.489 1.593-2.245 4.579-2.56 10.363 9.885-6.912 45.07-11.769 55.53 16.213-5.85 31.04-17.384 40.833-31.646 4.215-6.138 8.487-19.938 15.809-21.715l1.053 1.02c1.804 6.68-2.143 20.524-3.777 27.702 19.475-5.373 27.958-15.271 39.067-30.88 1.495-2.101 2.795-1.959 4.77-2.056 10.714 10.102-20.438 39.518-30.742 43.88-7.88 3.336-59.483 25.075-59.254 33.462 7.978 4.988 28.551-2.631 34.365 2.468l-.481 1.812c-17.503 16.798-44.471 4.941-64.365 8.331-5.231.891-8.902 9.184-10.868 14 25.304 6.617 25.042 14.759 47.043 26.126 13.237 6.284 29.287 8.189 41.567 16.3 5.707 3.769 7.711 14.023 3.111 19.593-3.261 2.869-4.417 5.45-4.305 9.823-2.133 11.737-8.507 11.731-18.416 12.422-10.696.745-23.173 2.116-33.605 4.822-27.499 7.132-36.421 3.009-59.542-12.676 13.107 28.723 27.668 31.939 58.114 25.63 10.919 25.515 23.841 33.847 40.47 54.143 34.093 41.612 58.386 96.23 58.101 150.6-11.765-6.462-22.544-12.246-33.029-20.797-2.713-2.212-8.982-8.565-11.342-8.629-3.1 17.792 12.828 24.017 26.093 32.668 21.52 14.034 51.759 25.309 70.257 43.152 5.771 5.566 5.415 17.749 5.724 24.91-.347 44.9 1.011 90.321.102 135.161-25.044-11.004-29.119-17.919-21.662-44.127-3.538-1.877-7.894-4.05-11.269-6.057 1.691-5.064 8.088-23.413 8.388-26.633 1.235-13.295.849-46.216-4.082-57.933-5.731-13.619-60.307-20.711-74.213-25.7-8.991-3.226-20.099-3.563-29.006-8.183-6.394-2.827-15.332-9.296-21.39-13.446 4.152 11.963 8.251 21.937 21.149 26.177 20.247 6.656 42.192 9.663 62.22 17.03-5.48 13.906-12.562 30.385-21.163 42.7-32.66 46.758-90.915 96.081-146.265 112.797l.647-13.285c-2.677-11.767 1.165-25.31-.772-28.948-11.525-1.668-4.657 13.551-11.062 20.664-5.245 23.723-2.717 37.062-12.32 64.214-12.18 34.433-64.427 73.233-75.243 100.793-7.644 19.47-8.688 79.12-5.607 99.8.232 1.55 15.067 23.61 17.792 29.2-8.33 6.32-18.88 11.23-28.258 16-4.669-18.07-3.871-21.1-18.061-33.04-.142-5.03-.236-11.01.182-15.99 3.453-41.14-.565-80.93-1.947-121.82 4.833-6.38 11.436-12.42 16.471-19.71 22.381-32.402 12.73-54.913.989-87.86-2.318-6.507-4.499-20.186-5.678-27.484a407 407 0 0 1-20.648 11.564c-2.363-62.212 38.353-96.335 80.486-134.35 32.547-29.365 47.297-49.881 59.015-91.656-5.768 1.387-10.001 1.858-15.912 2.556a622 622 0 0 0 5.138-13.164c8.984-24.073 9.36-44.549-1.243-67.775-3.36 2.349-8.037 4.494-11.771 6.377 1.136-18.267 1.862-24.737-2.73-42.547-5.737 3.901-7.651 4.822-14.19 6.78 5.474-35.777.987-43.361.233-77.566a195.2 195.2 0 0 1 9.195-64.913c4.574-2.228 12.14-4.781 13.472-9.854-10.749-9.645-48.147 15.891-73.036-41.491 34.668-6.166 59.739-3.776 88.901 16.082 2.897-1.572 6.149-3.615 9.027-5.319" />
<path fill="#1A303E" d="M571.711 870.677c-.812 11.101-1.878 36.61-3.385 46.85-2.677-11.767 1.165-25.31-.772-28.948-11.525-1.668-4.657 13.551-11.062 20.664 1.895-18.336 2.016-24.742 15.219-38.566" />
<path fill="#1A303E" d="M702.045 472.781c-7.324-1.195-14.667.132-21.401-1.504-1.199-2.871-.862-1.88.154-5.586 5.281-4.869 16.055-2.462 25.552-2.733-3.261 2.869-4.417 5.45-4.305 9.823" />
<path fill="#003271" d="M557.23 333.664c4.628 7.515 8.003 22.647 3.812 30.858-3.073 2.476-1.672 1.797-6.099 1.991-14.628-9.382-4.556-21.874 2.287-32.849" />
<path fill="#003271" d="M608.408 425.125c7.116-.485 19.962.65 21.773 9.124-2.169 2.891-2.753 2.383-6.592 3.727-7.272 1.587-20.488-.544-21.652-9.131 2.19-2.886 2.39-2.205 6.471-3.72" />
<path fill="#E9B12C" d="M983.879 224.925c2.851-3.527 5.655-6.401 10.404-6.858 9.397-.903 38.187 9.888 45.397 16.47 9.21 8.401 27.05 71.821 33.36 87.985 20.47-4.293 38.1-8.702 33.46-34.612-2.55-14.285-26.49-35.196-17.24-47.723 18.87-25.562 80.93-.398 99.65 11.678 53.94 34.795 85.14 96.272 100.51 156.606 8.5 35.483 9.14 72.723 7.45 108.832-6.36-5.149-11.7-9.14-16.48-15.972-2.06-12.879-2.7-26.253-4.41-39.049-3.81-28.52-15.79-79.781-30.45-104.469-2.71 1.203-6.12 2.594-8.68 3.954 19.09 45.325 27.73 77.444 30.97 126.973-8.41-6.546-12.12-9.623-16.74-19.29-6.4-13.397-18.88-98.628-37.1-98.239l-1.59 1.61c.39 6.113 4.7 14.797 6.98 20.749 7.91 20.628 12.63 42.33 16.14 64.087-11.94-7.568-10.67-6.998-18.61-17.246-9.17-11.842-15.76-63.057-30.7-62.391-1.06 1.031-2.5 2.163-1.91 3.967 2.43 7.348 5.91 16.435 8.36 23.613 2.34 6.999 4.3 14.119 5.88 21.33-35.94-11.647-20.65-25.121-38.63-40.627-7.71 2.852 1.7 21.639 3.54 27.837-20.06-1.946-22.51-6.996-35.57-9.121-1.48 1.662-1.33 3.289-1.56 5.576-4.9 2.926-28.48-10.051-33.93-12.699-.16 9.011-.4 18.197-.43 27.193 10.64 13.665 33.83 36.24 46.68 48.706-5.42 5.666-11.12 11.948-17.52 16.449-11.15-7.226-19.2-15.681-28.63-24.929 3.59 16.462 6.8 29.83 2.17 46.431l-17.07-6.066c.86 4.296 1.7 9.052 2.67 13.28 5.32 5.01 8.3 6.902 14.69 10.572l11.18-2.24c1.11 3.547 1.52 4.467 1.75 8.112l4.96.74-.54 7.68-.03 1.612-1.45 7.977c-3.29 3.83-7.17 6.694-11.12 9.852-1.29-14.087-4.17-13.829-16.12-19.869-.47 6.463-1.43 17.466-9.23 18.421-7.39-4.194-6.6-14.703-6.82-22.101-7.43 3.982-15.6 7.834-17.48 15.875-.31 1.309-1.09 2.283-2.03 3.244-4.67-1.226-10.53-6.337-9.56-11.33 2.11-10.808 17.96-20.082 25.91-27.427l-1.94-14.07c-5.4 1.837-10.43 4.095-15.66 6.361-7.22-17.597-11.4-36.516-19.48-55.184a1497 1497 0 0 1-12.03 55.435c-5.61-2.456-11.23-4.461-16.967-6.563a554 554 0 0 0-1.489 14.256c10.016 11.466 40.376 22.705 18.516 38.158-4.91.717-2.17-3.798-5.95-8.189-3.81-4.415-10.563-7.667-15.602-10.374-.638 11.397-.075 14.835-6.41 24.569-8.923-7.879-9.046-11.217-10.588-22.55-10.94 6.734-13.392 8.123-15.381 21.117-13.91-9.959-15.867-14.364-4.976-28.51-4.87-1.467-10.797-2.966-15.088-5.495-9.823 4.693-7.357 30.047-46.649 31.487 6.565-18.329 12.123-25.557 29.991-34.265a586 586 0 0 0-20.507-3.045c-9.022 19.479-20.238 28.507-42.068 29.719-3.279-4.923-.598-7.281-4.021-12.092l-3.466-.26c-9.414 6.332-13.366 6.878-24.335 9.401 6.053-15.892 7.976-17.99 21.004-29.041-24.679 5.198-26.257 15.629-55.317 3.7 24.589-21.762 30.007-9.791 53.924-10.794l1.316-.065c-13.423-7.059-17.89-11.856-24.304-25.619 22.946 1.449 29.148 5.661 41.115 24.69l20.588.172c-14.722-10.399-18.062-16.805-22.964-34.075 20.801 4.837 34.089 13.441 39.07 35.395l19.34 2.278c-13.713-13.432-15.649-20.284-18.47-38.512 23.439 8.456 31.173 17.264 35.231 41.883l10.122 3.294c2.384.128 13.813 3.847 16.775 4.753 6.17-3.727 8.241-5.263 13.336-10.259.82-4.162 1.494-8.786 2.2-13.008-5.684 1.739-12.288 4.72-17.86 7.055-8.122-26.398-5.418-43.757 3.699-68.671-5.817-16.331-8.801-26.699-12.581-43.671-8.209 4.01-24.243 12.574-32.825 13.658-4.77-2.235-.421-2.717-4.03-6.027-9.337.989-23.849 11.992-33.678 7.775-3.996-3.666-5.537-6.34-10.665-3.504-6.555 11.166-13.752 13.392-25.336 16.978 2.362-10.005 14.093-40.765 14.362-46.793-2.198-2.032-3.011-2.076-5.946-3.051-14.153 10.658-11.36 58.298-44.979 80.256 4.252-24.23 9.535-47.819 18.809-70.717 1.936-4.781 4.137-9.534 4.842-14.656-1.608-3.507-.674-2.903-3.433-4.049-4.269 1.627-6.652 8.206-8.557 12.275a250 250 0 0 0-17.037 48.979c-6.389 26.628-4.364 41.047-27.225 59.357 1.876-30.598 8.086-60.405 16.771-89.769 2.646-8.945 13.158-30.33 13.58-37.761-2.654-2.536-1.135-1.626-4.851-2.621-7.798 1.965-10.335 16.068-13.162 22.856-15.719 37.738-20.563 77.681-24.381 118.021-4.787 6.086-11.661 11.773-17.711 16.53-8.532-105.436 32.019-224.17 127.096-279.559 13.264-7.728 40.455-15.544 52.618-1.611 4.017 4.602 4.212 14.032 2.117 19.537-14.126 37.123 14.198 50.921 45.341 61.244 6.084-13.008 13.092-28.27 17.535-41.79-2.693-6.236-3.432-7.655-7.399-13.143-11.994-12.201-15.336-19.792-32.717-12.447-1.426-3.232-1.393-5.121-1.5-8.529-.621-19.809 17.133-16.008 29.756-16.003" />
<path fill="#F6EFD2" d="M983.879 224.925c2.851-3.527 5.655-6.401 10.404-6.858 9.397-.903 38.187 9.888 45.397 16.47 9.21 8.401 27.05 71.821 33.36 87.985 1.61 3.896 3.57 10.935 4.89 15.186-6.48-1.807-12.67-3.861-19.06-5.954-2.94 6.157-6 12.257-9.17 18.297l-13.28-11.816c-4.24 5.731-8.8 12.575-12.92 18.488-4.67-7.184-8.04-11.625-13.31-18.264l-12.95 12.342c-2.966-5.697-5.868-11.948-8.697-17.758-6.287 2.6-13.357 4.718-19.873 6.823a1100 1100 0 0 1 9.534-23.029c6.084-13.008 13.092-28.27 17.535-41.79-2.693-6.236-3.432-7.655-7.399-13.143-11.994-12.201-15.336-19.792-32.717-12.447-1.426-3.232-1.393-5.121-1.5-8.529-.621-19.809 17.133-16.008 29.756-16.003" />
<path fill="#E9B12C" d="M988.34 261.904c-11.994-12.201-15.336-19.792-32.717-12.447-1.426-3.232-1.393-5.121-1.5-8.529-.621-19.809 17.133-16.008 29.756-16.003 6.919 4.83 14.018 28.786 11.255 36.164-2.949 1.16-3.525.95-6.794.815" />
<path fill="#003271" d="M997.38 231.503c4.68.94 15.56 5.124 19.64 7.611l.15 1.216c-12.48 3.661-16.41 4.766-19.79-8.827" />
<path fill="#1A303E" d="M868.089 520.917c6.806.354 13.971.913 20.742.477-15.217 10.023-20.543 14.158-26.749 31.541-3.279-4.923-.598-7.281-4.021-12.092l-3.466-.26c6.821-6.913 9.268-10.877 13.494-19.666" />
<path fill="#1A303E" d="M875.286 411.391c3.199-6.297 8.995-19.408 14.791-22.771l1.294.803c1.212 7.883-3.33 17.661-5.42 25.472-3.996-3.666-5.537-6.34-10.665-3.504" />
<path fill="#F6EFD2" d="M522.272 1234.27c33.243-3.87 60.362 9.98 90.184 21.85 7.427 2.95 28.334 10.52 34.614 14.26 16.515 9.82 31.435 19.32 48.524 28.66 183.089 98.29 400.586 109.37 592.716 30.2a670 670 0 0 0 73.66-35.4c14.55-8.18 28.72-17.72 43.31-25.42 8.61-4.2 17.96-6.98 26.77-10.65 51.38-21.39 82.68-37.2 135.86-8.11-18.65 19.12-41.12 38.53-61.6 55.56a772.73 772.73 0 0 1-493.82 167.68c-199.624-2.05-390.501-82.22-531.72-223.32a115.05 115.05 0 0 1 41.502-15.31" />
<path fill="#003271" d="m1043.91 1400.97 17.71-.37.4 54.77-15.06.38v-16l-.13-18.82c-3.03 8.27-7.91 18.78-11.48 27.04-3.81.09-5.1.24-8.78-.52-6.36-4.4-9.66-16.22-13.74-24.29l.18 32.73-14.413-.1c-.704-17.93-.429-36.78-.441-54.79l17.244-.18c4.37 7.37 10.54 21.27 14.44 29.4 4.37-7.93 9.65-20.43 14.07-29.25" />
<path fill="#003271" d="M768.414 1353.51c15.105 4.87 51.962 12.38 39.636 36.09-2.451 4.71-8.942 6.68-13.733 7.8 1.756 8.27 2.991 16.6 4.318 24.95l-16.177-6.09c-2.118-5.87-1.468-20.89-8.099-23.83-4.974 2.83-7.17 12.28-9.067 17.96l-15.184-5.69c6.001-17.1 12.103-34.16 18.306-51.19" />
<path fill="#F0F3EE" d="M779.692 1369.49c5.777 1.83 12.229 2.74 14.64 8.6-.089 3.77-.542 4.02-2.835 7.25l-1-.08c-5.952-.43-9.451-2.16-15.021-4.33z" />
<path fill="#003271" d="M1199.43 1379.28c13.78-.13 24.36 13.41 16.53 26.02-5.8 9.34-17.23 11.08-27.11 13.45 1.25 4.47 4.47 13.73 2.87 17.81l-2.95 1.26-11.17 2.47-12.55-53.56c10.97-2.6 23.37-5.83 34.38-7.45" />
<path fill="#F0F3EE" d="M1192.66 1392.18c4.17-.64 5.79-.4 8.92 2.53 2.21 7.02-.72 8.71-7.04 10.97l-5.13 1.17c-5.76-1.39-6.45-6.3-4.98-11.17 2.94-3.2 3.39-2.45 8.23-3.5" />
<path fill="#003271" d="M917.258 1392.88c5.105.71 10.694 1.01 15.869 1.39-.202 6.05-4.938 37.53-2.204 40.26 21.455 21.39 20.983-26.31 22.397-37.33 4.78.68 10.419 1.14 15.29 1.66l-.933 11.06c-1.701 11.2-.474 28.27-9.12 36.35-10.025 9.47-32.517 6.55-40.802-3.81-7.774-9.73-1.914-37.42-.497-49.58" />
<path fill="#003271" d="M1391.62 1298.1c1.77 1.87 4.55 7.51 5.91 10.03-7.61 4.62-16.58 9.41-24.42 13.83l4.64 8.37c6.9-3.5 13.85-7.56 20.6-11.37l5.67 9.63-20.61 11.89 5.06 9.11c5.19-2.84 20.53-11.98 25.03-13.28l1.68 1.15c1.71 3.45 3.2 5 3.03 8.42-7.06 5.3-30.02 17.3-38.37 21.63-8.69-14.68-17.88-32.44-26.27-47.6 11.82-7.4 25.77-14.95 38.05-21.81" />
<path fill="#003271" d="M1115.27 1393.23c6.73-.47 17.84-.15 20.47 7.04-.54 3.74-2.99 5.54-5.71 8.41-5.93-2.77-18.64-5.58-23.43.13 5.34 14.09 31.17-2.16 36.12 18.38 1.15 4.55.34 9.37-2.23 13.3-5.2 7.82-15.81 9.14-24.29 10.49-7.13-.23-18.82-.73-21.35-8.24.79-3.84 3.62-5.82 6.56-8.68 8.59 3.66 18.48 8.97 25.45-.37l-.39-1.99c-8.37-6.48-32.44-1.72-34.85-16.53-2.46-15.16 12.84-20.08 23.65-21.94" />
<path fill="#003271" d="M659.098 1306.13c15.694-1.04 40.801 10.22 34.19 28.57-2.119 1.81-1.468 1.94-4.631 2.24-2.399.22-7.996-2.49-8.589-4.7-1.162-4.9-.326-6.8-4.228-10.26-11.909-10.56-24.971 10.56-22.871 21.05.8 4 5.616 6.54 9.092 8.42 3.473-.54 6.665-2.35 9.701-4.02 5.735 1.17 8.116 4.54 8.146 10.41-.932 1.88-2.126 4.56-4.464 5.06-39.426 8.4-54.15-41.04-16.346-56.77" />
<path fill="#003271" d="M1315.95 1338.17c5.21-.35 12.12 1.2 16.7 3.71 2.16 2.85 1.63 1.49 1.57 5.39-2.03 4.17-5.68 5.94-9.67 8.62-5.19-4.42-12.41-7.74-17.48-.71-6 8.32.83 22.98 9.02 27.61 8.19 4.64 13.12-8 17.13-12.66 2.96-3.34 8.67-3.26 12.18-.95-.41 4.67-.58 8.59-2.98 12.74-5.55 11.21-28.29 19.08-38.9 10.83-24.08-18.74-18.5-47.92 12.43-54.58" />
<path fill="#003271" d="M856.753 1381.26c17.771-1.14 27.651 6.75 31.996 23.64-6.144.41-10.81 1.68-15.332-2.1-10.43-25.56-34.585 6.5-19.942 21.66 5.085 5.26 12.055.59 16.133-3.76l.81-.87c5.61 2.31 11.098 2.98 10.816 9.51-6.74 11.63-26.42 10.41-36.727 4.59-14.196-8.03-14.324-28.12-6.669-40.7 4.808-7.91 10.61-10.09 18.915-11.97" />
<path fill="#003271" d="m1251.56 1362.93 2.26.13c3.4 4.12 15.24 43.52 17.63 51.04l-12.21 4.27c-1.94.52-.93.48-3.06-.48-4.03-8.15-13.92-40.9-16.94-50.57z" />
<path fill="#003271" d="m726.263 1335.42 14.077 6.05c-5.198 14.22-15.875 36.26-22.363 50.67-4.48-1.97-10.007-4.91-14.486-7.14 5.921-14.99 15.651-35.12 22.772-49.58" />
<path fill="#F6EFD2" d="M830.078 777.506c128.541-1.456 259.022.273 387.832-.245l-.06 214.652-45.33.016c-31.98-.441-65.05-.023-97.11-.018l-42.44.51-.09.154c-.18 6.602 33.3 25.975 38.8 32.455-33.95 18.88-197.43 23.06-241.23 24.05-.98-27.93-.339-58.837-.328-86.978z" />
<path fill="#E9B12C" d="M830.122 962.102c16.113-.256 30.249-1.962 43.384 7.96 4.739 3.58 12.155 7.579 18.166 8.181 20.871 2.089 43.908.094 65.002.997-1.266 9.425-6.515 36.17-3.373 43.75 3.081 2.82 9.287 2.33 10.496-.6 5.418-13.11 6.591-28.479 10.339-42.267 4.887.816 9.185.795 14.124.908.338 12.389.302 29.719 1.508 41.699 9.692.29 21.442.9 30.852-1.04 1.86-10.07 2.83-20.78 4.76-30.419 3.49.907 4.03 1.06 7.59 1.15l-.09.154c-.18 6.602 33.3 25.975 38.8 32.455-33.95 18.88-197.43 23.06-241.23 24.05-.98-27.93-.339-58.837-.328-86.978" />
<path fill="#003271" d="M972.455 879.334c-2.599-8.972-1.557-7.628-10.419-10.812.085-.472 11.534-15.959 12.354-16.415 12.06-6.703 9.683 6.428 24.545 5.125l1.835.943.11 2.153c-2.469 2.376-4.272 2.834-7.464 4.14-3.683 7.172 2.58 9.012-5.356 16.117 2.532 3.784 8.206 5.062 11.185 9.197 12.605 17.495 6.705 21.777 30.975 21.349 1.27-7.975 3.06-28.157 7.54-33.081l2.03-.108c5.59 5.794-6.34 27.109.15 36.846.13 3.29-.63 4.781-2.63 7.36-4.55 5.889-10.25 57.884-11.93 69.123-1.93 9.639-2.9 20.349-4.76 30.419-9.41 1.94-21.16 1.33-30.852 1.04-1.206-11.98-1.17-29.31-1.508-41.699-4.939-.113-9.237-.092-14.124-.908-3.748 13.788-4.921 29.157-10.339 42.267-1.209 2.93-7.415 3.42-10.496.6-3.142-7.58 2.107-34.325 3.373-43.75.821-6.048 3.029-19.112 2.423-24.62-1.595-1.906-2.01-1.936-4.165-3.095-1.685-6.695 6.333-20.44 6.593-27.474.248-6.734-2.262-14.724-4.005-21.353-7.05 2.567-20.459 10.056-23.113-.887-2.023-8.343-2.232-31.157 5.638-36.543 2.319 1.13 2.429.575 2.948 2.148 2.232 6.778 2.744 15.647 3.59 22.935 11.033-6.923 12.929-8.276 25.872-11.017" />
<path fill="#F6EFD2" d="m974.136 980.123 5.434-20.467c3.92 8.07 6.457 12.62 8.69 21.375-4.939-.113-9.237-.092-14.124-.908" />
<path fill="#F6EFD2" d="M995.654 913.153c5.456 5.497 6.406 6.603 12.966 10.465 6.76-.047 13.52-.286 20.27-.715a3001 3001 0 0 1-10.12 63.939c-3.78-2.057-9.58-4.052-13.78-5.64-.28-24.903-13.505-32.451-9.336-68.049" />
<path fill="#E9B12C" d="M1004.99 981.202c4.2 1.588 10 3.583 13.78 5.64-1.22 9.734-2.82 19.778-4.24 29.508l-10.92-3.38c.36-10.59.81-21.182 1.38-31.768" />
<path fill="#E9B12C" d="M1075.41 991.911c-4.94-14.059-5.46-27.645 1.01-41.396a51.28 51.28 0 0 1 29.74-26.722c13.07-4.527 28.46-4.048 40.95 2.053a49.7 49.7 0 0 1 25.25 28.815c4.8 14.057 2.3 23.512.16 37.268-31.98-.441-65.05-.023-97.11-.018" />
<path fill="#E9B12C" d="M1202.09 885.803c2.63 2.398 4.07 3.133 4.73 6.411-1.81 6.458-29.75 32.871-36.3 38.656-3.19-3.224-4.12-3.146-5.09-7.154 2.96-5.274 30.99-32.671 36.66-37.913" />
<path fill="#E9B12C" d="M1118.56 857.125c3.05-.054 6.72-.627 8.97 1.107 1.42 8.784.52 41.195.4 51.907-3.95.03-5.05.232-8.75-.879-2.4-5.238-.78-43.984-.62-52.135" />
<path fill="#E9B12C" d="M1053.59 896.571c8.19 4.826 22.9 19.662 27.37 28.303.58 1.127-1.61 3.678-2.33 4.785l-2.51.462c-5.09-2.401-20.61-18.66-24.23-23.641-.99-3.258.58-6.459 1.7-9.909" />
<path fill="#E9B12C" d="M1088.75 877.796c4.15 3.403 13.09 28.256 14.23 34.135-1.64 2.561-3.45 2.764-6.58 4.239-3.77-4.221-13.05-27.333-14.32-33.441 1.19-2.652 3.96-3.559 6.67-4.933" />
<path fill="#E9B12C" d="M1157.39 877.949c3.62 1.249 3.94 1.285 6.93 3.569 1.26 4.884-10.46 28.43-13.4 34.764l-8.22-4.168c3.7-9.86 9.57-25.295 14.69-34.165" />
<path fill="#E9B12C" d="M1205.46 932.008c2.39.502 4.55 6.377 5.65 8.591-8.84 3.772-17.72 7.428-26.66 10.965l-1.64-.273c-2.25-3.624-2.03-2.248-2.25-6.177 3.1-5.286 18.32-10.125 24.9-13.106" />
<path fill="#E9B12C" d="M1186.97 967.496c7.05-.423 15.16-2.304 21.17.547 2.16 3.381 1.39 3.975 1.3 8.506-6.7.376-19.72 2.536-23.87-2.687.04-3.294.05-3.41 1.4-6.366" />
<path fill="#E9B12C" d="M1038.55 966.993c7.6.149 15.39-2.04 21.23 1.589 1.82 3.382 1.13 3.875.95 8.073-7.22.151-15.78 2.145-21.55-1.004-1.89-3.643-1.09-4.076-.63-8.658" />
<path fill="#E9B12C" d="M1047.86 935.483c6.5 1.714 13.94 3.875 17.92 9.216.56 4.077.19 3.081-2.05 7.538-6.57-2.237-14.79-3.864-18.32-9.419-.13-3.76.56-3.744 2.45-7.335" />
<path fill="#F6EFD2" d="M568.504 1167.33c30.968-3.89 82.562 16.56 113.004 26.57a977 977 0 0 0 60.403 18.04 1105.4 1105.4 0 0 0 561.389.83c43.4-10.97 83.6-26.34 125.93-39.15 31.81-9.76 67.44-10.86 94.72 11.22 21.2 17.16 39.07 31.3 63.17 44.9-2.88 3.25-6.98 7.05-10.17 10.17-2.02-1.22-4.06-2.39-6.14-3.49-35.39-19.02-60.11-19.83-98.31-8.31-15.55 5.31-32.33 12.55-47.9 18.43a992 992 0 0 1-81.13 26.95 1169.7 1169.7 0 0 1-599.71 10.27c-34.965-8.95-71.475-19.47-105.292-31.86-63.578-23.3-101.083-49.87-166.841-12.11-2.659-2.25-7.33-7.4-9.894-10.08 9.917-5.56 23.202-13.56 32.177-20.44 25.621-19.65 40.652-37.74 74.594-41.94" />
<path fill="#003271" d="M1325.78 1253.77c1.48 1.41 1.34 1.74 1.95 3.76l-1.18 2.05c-9.22 5.43-28.52 11.36-37.68 2.6-5.09-4.86-6.4-18.87-1.21-23.57 5.73-5.19 24.85-11.05 32.51-10.65l1.02 1.68c-.76 6.76-6.62 3.16-12.49 8.05l-.08 2.28c2.38 3.23 1.39 2.95 4.42 3.63 2.83-1.59 3.23-2.02 6.36-2.31 2.88 1.91 2.01 1.53 3.42 5.63 1 2.28 1.99 4.56 2.96 6.85" />
<path fill="#F0F3EE" d="M1325.78 1253.77c-3.53 1.29-5.06 1.83-8.73 2.52-3.8-1.19-2.77-.28-4.8-3.14l.77-2.52c3.77-3.29 4.22-2.51 9.8-3.71 1 2.28 1.99 4.56 2.96 6.85" />
<path fill="#F0F3EE" d="m1294.89 1238.46 4.06.6c5.75 4.39 8.4 16.33 4.56 22.55-11.78-.75-14.08-14.58-8.62-23.15" />
<path fill="#003271" d="M760.067 1235.32c6.941 1.71 21.878 2.95 24.776 8.62l-1.043 2.01c-5.894 1.76-7.306-2.4-13.288-.8-5.54 8.48 5.602 5.98 9.253 10.13-.501 2.7-.906 2.74-2.848 4.66-.884 4.52-.067 4.12-2.758 6.83 2.887.6 2.77.49 4.869 2.52l-.249 1.98c-3.815 3.43-12.496 1.57-16.687-.59-4.074-2.1-4.005-3.96-5.236-7.92-5.517-4.14-9.212 1.62-17.489 2.26l-.602-1.44c2.79-6.33 16.285-22.36 21.302-28.26" />
<path fill="#F0F3EE" d="M774.159 1266.77c-2.202-.42-4.161-1.02-6.307-1.63-2.47-2.81-1.886-1.24-2.037-4.79l2.014-1.88c4.469-.86 4.462-.08 9.088 1.47-.884 4.52-.067 4.12-2.758 6.83" />
<path fill="#F0F3EE" d="m761.614 1243.99.805.98c-.791 4.63-.817 9.06-5.261 11.28-2.381-1.5-1.717-.5-2.543-2.71 1.169-3.83 4.215-6.5 6.999-9.55" />
<path fill="#003271" d="M689.147 1216.02c1.703.22 4.784.59 6.386 1.03a14.07 14.07 0 0 1 8.721 7.07c8.636 16.48-11.917 26.26-12.723 28.7 3.068 1.93 5.034 3.14 7.633 5.75l-2.23 1.71c-12.532 1.85-34.435-30.48-7.787-44.26" />
<path fill="#F0F3EE" d="M689.504 1222.63c3.212.02 3.055.03 6.033 1.32 6.019 7.16 1.43 15.05-4.136 20.92-13.952.56-6.765-15.82-1.897-22.24" />
<path fill="#003271" d="M1262.75 1262.34c1.22-6.64 2.57-20.76 6.76-24.71 6.91 3.25 12.46 29.01 10.48 34.32l-5.95 2.14c-3.48-1.38-3.92-1.61-6.65-4.16-3.25 2.07-1.55 1.6-5.22 1.68-1.33.94-4.24 3.06-5.66 3.45l.04 1.38c-2.92 2.3-1.31 1.84-4.98 1.45-3.29-3.79-9.4-29.45-6.9-32.68 2.37-.65 4.15-1.45 6.5-.9 4.21 4.43 8.42 12.52 11.58 18.03" />
<path fill="#F0F3EE" d="M1269.91 1252.87c2.15 8.19 2.96 12.99 4.13 21.22-3.48-1.38-3.92-1.61-6.65-4.16z" />
<path fill="#F0F3EE" d="M1252.69 1256.42c3.25 4.76 6.45 10.25 9.48 15.19-1.33.94-4.24 3.06-5.66 3.45-1.42-5.72-2.64-12.77-3.82-18.64" />
<path fill="#003271" d="M1413.94 1217.79c.07-4.29.19-8.58.37-12.87.2-4.05.32-8.44 3.25-11.11 7 1.2 16.68 27 13.66 32.63-3.33 1.05-1.85 1.23-4.63.1-2.47-5.99-4.34-12.02-6.33-18.18-.31 8.02.8 15.34-4.59 20.38l-5.96 5.23c-2.86 1.43-3.19 1.79-6.27 1.77-1.92-4.69-11.43-28.12-10.72-31.01 3.13-1.66 3.32-1.75 6.77-2.36 4.4 4.08 10.25 10.84 14.45 15.42" />
<path fill="#F0F3EE" d="M1402.46 1213.97c4.66 5.69 8.02 9.58 13.21 14.77l-5.96 5.23c-2.39-5.32-5.24-14.27-7.25-20" />
<path fill="#003271" d="M1181.71 1255.23c3.1-.26 3.76-.23 6.85.12 1.86 2.6 5.23 29.22 3.99 32.73-3.41 1.23-1.74 1.17-5.17.29-2.43-3.18-2.79-14.82-3.32-19.81-1.7 5.79-2.14 13.37-6.73 16.62-6.01-1.01-6.38-7.39-10.6-11.82l-.26 1.91c.68 4.07 2.81 13.3 1.31 16.58l-3.29.67c-4.76-3.36-9.38-32.43-1.96-35.44 5.29 2.49 10.6 14.35 13.42 19.84q2.82-10.86 5.76-21.69" />
<path fill="#003271" d="M1346 1220.18c3.13-1.84 1.99-1.75 5.18-1.61 4.48 5.02 12.49 27.42 6.21 33-4.77-.25-16.15-13.36-20.06-17.37 1.12 3.89 5.9 18.44 5.07 21.26-3.75 1.27-2.83 1.63-5.62.45-3.37-7.01-8.34-22.41-7.6-30.18l1.21-1.87c5.05-.9 5.9.52 9.39 4.06-.75-2.02-1.82-3.88-1.22-5.8 3.16-.4 3.61-.54 6.66-1.65z" />
<path fill="#F0F3EE" d="M1339.78 1227.92c-.75-2.02-1.82-3.88-1.22-5.8 3.16-.4 3.61-.54 6.66-1.65l.78-.29c1.92 6.56 3.83 13.47 5.95 19.94-2.19-2.1-10.91-10.23-12.17-12.2" />
<path fill="#003271" d="M1003.63 1278.66c.05 4.27.79 17.78-.81 20.75l-2.56.98c-5.272-2.39-6.195-31.26.49-34.48 3.64.86 4.56 2.03 6.35 5.39 2.65-1.22 5.86-1.76 8.93-3.13 3.02-1.93 1.44-1.5 4.86-1.54 3.4 4.8 3.02 28.52-.46 33.53-7.22 1.31-13.26-15.95-16.8-21.5" />
<path fill="#F0F3EE" d="m1016.03 1268.17-.08 20.96c-2.89-5.9-5.78-12.04-8.85-17.83 2.65-1.22 5.86-1.76 8.93-3.13" />
<path fill="#003271" d="M792.675 1242.7c7.408 1.33 20.826 2.9 23.072 11.25-2.991 14-9.562 2.44-5.259 25.99l-1.451 1.02c-3.233-.33-3.058-.34-5.763-2.22-1.294-4.74-1.328-12.66-6.501-13.54-4.22 4.5-.512 8.32-6.134 12.63l-1.917-.64c-3.782-6.04 2.278-26.07 3.953-34.49" />
<path fill="#F0F3EE" d="M798.613 1250.33c3.667.65 4.579.58 7.664 2.47 1.643 3.62 1.157 2.41.431 6.99-3.113.63-5.763 1.16-8.393-.4-1.523-3.05-.456-5.54.298-9.06" />
<path fill="#003271" d="m945.206 1263.87 5.37.23c5.713 2.9 10.142 16.59 13.01 22.9.16-4.75.843-16.92 2.049-21.31l2.11-.65 1.789 1.08c3.025 6.3.729 24.64.416 33.46-5.964-.11-7.957-1.01-10.482-6.68-2.52-5.66-4.586-10.35-7.654-15.77-.177 5.23.092 17.18-2.639 20.89-3.742-.19-2.816.44-4.872-1.66-.845-6.75.565-24.56.903-32.49" />
<path fill="#003271" d="m621.503 1209.73.014-1.18c.309-18.97 22.802-13.49 23.344-2.92-4.39 3.31-10.473-2.98-15.601-2.57-2.05 6.99 21.862 14.78 6.819 26.65-5.441 4.29-23.22-2.06-19.945-11.38 1.833-.99 2.353-1.37 4.384-1.93-.422-1.87.71-4.29.985-6.67" />
<path fill="url(#Gradient1)" d="M621.503 1209.73c4.855 4.55 10.094 7.57 10.862 14.12l-1.36.95c-6.527-1.19-7.815-2.82-10.487-8.4-.422-1.87.71-4.29.985-6.67" />
<path fill="#003271" d="M884.331 1258.03c6.211.58 14.586.68 19.433 4.68 12.892 10.64.75 18.83-11.255 19.07l-1.467-.47-1.426.95c-1.127 5.9-1.813 7.12-6.294 11.09l-1.961-1.13c-.618-4.19 2.344-28.47 2.97-34.19" />
<path fill="#F0F3EE" d="M890.934 1264.97c3.587.33 6.002.11 8.723 2.31 1.605 2.93 1.063 3.99.53 7.52-3.504.27-6.055.9-9.082-.65-1.496-3.68-.677-4.88-.171-9.18" />
<path fill="#003271" d="M856.681 1269.72c18.4 18.55-23.786 24.59-21.185 9.23l2.518-1.65c6.922.41 5.564 6.11 14.15 3.86l.499-1.69c-2.968-5.37-12.645-11.01-14.271-14.94-4.598-11.13 20.265-17.4 22.993-4.27l-2.269 3.2z" />
<path fill="#F0F3EE" d="M856.681 1269.72c-4.694-2.12-9.864-3.32-9.392-9.05l2.212-1.02c4.013.04 6.089 1.76 9.615 3.81z" />
<path fill="#003271" d="M1047.14 1280.85c8.19 2.04 11.53 8.74 5.79 15.57-2.53 3.01-6.21 4.8-10.13 4.95-5.16.18-8.64-2.48-12.04-5.93-.25-2.71-.56-1.5.91-3.75 2.99-.7 7.49 1.59 10.92 2.72 2.81-.49 3.02-.28 5.06-2.35-2.61-6.43-14.74-6.62-17.8-16.1.98-12.15 23.2-13.03 23.37-3.82l-3.14 3.07c-.96 2.92-.95 3.42-2.94 5.64" />
<path fill="#F0F3EE" d="M1047.14 1280.85c-4.8-1.38-5.86-1.21-8.4-4.85l.46-2.06 2.57-1.31c3.96-.22 4.82.55 8.31 2.58-.96 2.92-.95 3.42-2.94 5.64" />
<path fill="#003271" d="M1375.03 1209.91c4.58 3.35 21.47 24.22 18.51 30.34-6.65 2.42-3.2-2.48-8.97-5.1-13.13 3.08-5.82 6.91-13.21 12.88l-2.29-.82c-1.3-8.7-1.13-23.53-.95-32.76.04-2.1 4.49-3.43 6.91-4.54" />
<path fill="#003271" d="M1225.16 1247.9c3.78 2.14 15.62 26.49 17.33 31.47-2.19 2.33-.9 1.75-3.9 2.01-4.59-2.52-4.16-5.37-7.42-7.05-13.34 1.31-7.89 9.03-15.46 10.6l-1.32-1.25c.12-7.74 2.77-23.94 3.9-32.23 2.15-2.77 3.05-2.34 6.87-3.55" />
<path fill="#003271" d="M1132.81 1261.31c3.46-.36 4.83-.77 8.09.16 3.62 6.16 10.85 23.79 13.02 30.82l-1.04 1.33-3.97.17c-3.12-1.83-2.81-2.96-4.49-6.82-17.41.18-7.01 5-14.87 10.28-2.92-.48-1.57.1-3.94-2.32 1.08-9.03 4.93-24.54 7.2-33.62" />
<path fill="#F0F3EE" d="M1136.96 1269.6c3.01 3.44 5.12 8.26 3.78 12.69-3.23-.46-2.65.09-4.81-1.7-1.19-3.52.17-7.17 1.03-10.99" />
<path fill="#003271" d="M716.381 1223.6c2.728.66 2.707.66 5.157 2.04 3.487 8.47-7.564 19.27-2.881 27.41 13.727 6.5 10.276-17.58 16.396-23.71 2.888.11 2.901.29 5.414 1.49l-.047 2.44c-1.63 6.32-5.287 24.31-10.251 25.86-31.199 9.73-16.041-27.99-13.788-35.53" />
<path fill="#003271" d="M1080.95 1264.47c4.33.55 3.74-.18 6.64 2.14 1.53 8.01 2.44 21.84-2.2 28.88-4.02 6.09-11.4 7.94-17 2.61-6.12-5.84-5.63-10.99-5.9-18.78-.28-4.55-.74-7.8.21-12.29 2.05-1.79.83-1.3 3.93-1.1 6.55 5.87-.56 25.2 8.11 28.58 10.1-2.64 6.31-20.48 6.21-30.04" />
<path fill="#003271" d="M916.199 1261.76c5.736.13 21.258-.76 21.781 5.99-5.467 4.08-9.406-1.17-14.424 1.82-1.002 2.66-.838 2.67-.469 5.38 3.796 2.48 4.095.25 9.988 1.78 1.62 2.51 1.165 1.08.637 4.64-5.312 4.11-7.089-3.92-13.662 4.62 3.459 7.79 9.625 1.87 15.889 7.73l-.493 2.21c-3.488 1.75-17.136.19-22.072-.13.848-11.35 1.789-22.7 2.825-34.04" />
<path fill="#003271" d="M1096.74 1263.88c2.75-.02 2.86-.03 5.53.6 3.67 5.12 3.01 19.42 3.64 26.8 4.6-.18 7.45-1.2 12.11-.21 2.57 2.08 1.75 1.35 2.27 5.8l-21.34 1.38c-.92-11.6-1.81-22.75-2.21-34.37" />
<path fill="#003271" d="M654.91 1204.33c3.13.78 3.4.79 6.091 2.47.879 3.36-8.138 26.97-9.737 31.48-3.692-.75-2.961-.07-5.45-2.27-1.008-6.78 6.372-23.69 9.096-31.68" />
<path fill="#003271" d="M824.587 1248.55c3.384.71 3.737.8 6.812 2.32.101 4.39-4.011 26.49-4.974 32.86-2.864-.48-4.831-.42-6.79-2.45.117-6.45 3.736-25.48 4.952-32.73" />
<path fill="#003271" d="M980.658 1265.44c2.805.29 3.312.43 6.052 1.2 1.32 4.18.306 28.25.168 33.72-2.224-.22-4.146-.57-6.332-.96-1.929-3.63-.149-28.69.112-33.96" />
<path fill="#9F1D2F" d="M1005.46 101.437c110.74-4.844 239.91 25.37 337.61 76.902-1.34 3.263-3.09 6.697-4.68 9.886-9.36 18.827-16.85 38.339-26.11 57.221-85.56-41.271-170.58-65.894-266.03-69.507-106.196-4.853-215.095 22.447-309.798 69.634-8.888-18.402-23.527-48.955-30.626-67.702 92.954-48.437 195.378-72.303 299.634-76.434" />
<path fill="#FCE4D7" d="m1256.79 160.088 10.51 3.709-.7 29.75c6.29-6.799 13.22-15.255 19.34-22.364l9.62 4.656c-2.61 6.711-10.91 31.623-14.73 35.54-3.3-.828-4.13-.445-6.18-2.46.3-4.788 3.28-10.675 5.25-15.271 1.13-2.627 2.36-4.268 2.03-6.763-6.25 4.141-13.06 19.432-20.45 17.044-3.35-5.186-1.47-22.272-1.43-30.2-2.8 7.471-4.7 19.253-9.82 24.383-3.39.979-2.04.868-5.93-.747-1.33-4.096 10.28-31.264 12.49-37.277" />
<path fill="#FCE4D7" d="M985.871 119.471c10.876-.655 38.409-1.892 25.209 17.475.09 3.487 2.16 4.626 4.35 8.765.09 4.263-.33 4.924-2.17 8.823-8.6 5.552-17.049 4.557-27.168 4.654-.027-6.784-2.103-35.825-.221-39.717" />
<path fill="#9F1D2F" d="m994.2 141.091 1.136-.039c4.485-.138 7.674-.562 10.984 2.543 1.13 4.042.83 2.671-.24 7.18-3.41.817-7.466 1.982-10.46.408-2.073-2.817-1.469-6.349-1.42-10.092" />
<path fill="#9F1D2F" d="M993.658 125.909c3.891-.078 7.482-.564 10.492 1.563 1.84 2.734 1.43 3.638 1.17 7.165-3.25.973-7.298 2.022-10.286.453-2.041-2.703-1.446-5.581-1.376-9.181" />
<path fill="#FCE4D7" d="M936.214 124.387c14.676-2.256 21.259 10.698 11.009 22.225 3.535 5.183 7.703 9.75 7.4 15.886l-2.35 1.22c-6.658-3.086-7.795-6.013-11.613-12.223l-1.236-1.404c-11.298-1.736-2.399 8.218-5.613 14.483-2.931 1.362-2.785 1.258-6.024.658-3.24-3.129-3.125-13.671-3.982-18.714-1.101-6.484-1.871-13.571-2.789-20.139z" />
<path fill="#9F1D2F" d="M932.03 131.32c5.206-.232 7.735-.994 11.223 3.524.578 3.406.166 3.832-1.146 7.204-3.16.772-3.902.895-7.149.921-3.291-1.886-2.291-.766-4.071-4.051-.001-3.746-.135-4.175 1.143-7.598" />
<path fill="#FCE4D7" d="M1171.44 135.082c2.69.493 3.74.768 6.36 1.584 5.7 5.69 7.91 19.691 11.19 28.7 1.72-7.322 2.38-20.181 8.8-23.673 3.6.71 2.85-.015 4.57 2.267-.65 8.301-6.16 26.374-8.16 36.829-3.07.325-3.59-.02-6.64-.943-5.14-4.726-8.1-20.436-11.55-28.951-1.28 6.936-2.31 21.444-8.91 24.172l-2.87-1.262c-2.27-4.645 5.51-31.799 7.21-38.723" />
<path fill="#FCE4D7" d="M825.02 149.182c8.956 1.177 16.268 7.293 11.7 16.691-3.728 7.67-8.154 8.772-15.562 11.58a276 276 0 0 1 1.362 4.713c1.307 4.739 2.223 6.096.188 9.709-2.529.251-2.526.324-4.994-.151-4.484-4.799-10.752-28.761-13.04-36.314 7.865-2.843 12.204-4.205 20.346-6.228" />
<path fill="#9F1D2F" d="M823.893 156.14c10.953 3.322 5.427 10.552-2.482 13.963l-2.036-.262c-3.65-3.639-4.062-5.405-2.806-10.387 2.514-2.917 3.035-2.274 7.324-3.314" />
<path fill="#FCE4D7" d="m1128.37 126.708 7.15 1.41c6.18 6.145-9.85 25.971.71 33.716 3.4.672 3.57.797 6.66-.478 8.34-8.313 1.29-24.244 10.06-30.098 3.07.129 2.93.035 5.54 1.603l-.02 3.322c-3.68 17.36-5.59 48.98-32.65 25.972-4.35-3.7 1.63-29.319 2.55-35.447" />
<path fill="#FCE4D7" d="M1215.47 145.945c1.37.396 5 1.313 5.61 2.351 4.31 7.326-5.68 20.662-5.63 28.62.02 2.968 1.25 3.498 2.7 4.881 3.46 1.124 3.71 1.345 7.18.734 7.73-6.406 6.94-26.409 13.1-29.171 3.4.628 3.22.562 5.83 2.864l-.3 2.513c-5.36 17.415-12.44 48.258-35.8 22.408-3.86-4.27 5.52-29.694 7.31-35.2" />
<path fill="#FCE4D7" d="M1026.12 118.793c3.71-.075 4.53-.256 8.01.772 3.47 9.879-5.26 26.408 4.48 32.552 3.55.366 3.79.527 6.79-1.116 6.9-9.102-1.74-25.686 5.06-31.848 2.77-.166 3.38-.376 5.97.766l.48 2.831c-.05 6.602 1.07 26.321-4.35 31.894-8.49 8.726-25.57 5.014-26.6-8.834-.6-7.986-.06-18.182.16-27.017" />
<path fill="#FCE4D7" d="M900.423 129.142c3.693-.195 4.401-.27 7.995.347 2.832 4.919 6.512 30.229 3.284 34.933-4.345 6.329-16.593 9.21-22.964 4.122-5.556-4.439-6.493-15.231-7.858-21.757-1.004-4.835-2.553-8.255-.963-12.282 3.01-1.134 3.31-1.409 6.412-1.142 4.621 5.396 1.546 30.783 13.059 31.79 10.87-5.064 2.438-24.782 1.035-36.011" />
<path fill="#FCE4D7" d="M775.331 165.85c1.201.309 2.399 1.338 3.496 2.1.413 1.928.452 1-.032 2.787-2.543 3.004-11.469 6.847-15.462 8.821-.463 2.305-.09 2.532.516 4.958 5.228 4.568 8.26-1.766 16.392-1.819 2.168 2.014 1.428.743 1.656 4.261-2.078 2.231-10.122 5.211-13.406 6.595 1.226 3.197 1.812 6.092 4.498 7.909 4.201.776 10.153-2.825 14.772-4.809l1.556.646c1.807 2.918 1.629 1.461 1.095 4.416-4.048 3.854-17.512 8.788-23.364 11.15-5.274-11.667-10.203-24.934-14.932-36.937q11.548-5.176 23.215-10.078" />
<path fill="#FCE4D7" d="M1076.8 121.077c.68-.06 1.38-.111 2.07-.153 7.7-.443 17.74 2.663 18.26 11.588-6.58 4.586-13.7-9.887-19.47-3.272-.81 10.456 20.98 11.25 18.5 25.031-2.77 4.637-7.28 6.327-12.28 7.586-6.65-.08-16.6-3.16-18.5-10.396.86-3.456.1-2.611 2.47-4.327 4.62.754 6.82 5.712 13.65 7.831 3.91-.487 2.47.165 5.42-2.479 0-9.517-36.08-17.325-10.12-31.409" />
<path fill="#FCE4D7" d="m847.478 140.479 3.954.632c3.775 3.887 7.763 24.823 9.275 31.233 4.617-1.089 12.785-3.668 16.894-2.559 1.018 2.559 1.042 2.369.823 5.096l-2.645.97a418 418 0 0 0-21.328 5.767c-2.918-11.349-6.308-22.746-8.671-34.234-.841-4.089-.273-4.152 1.698-6.905" />
<path fill="#FCE4D7" d="M963.336 121.063c2.892-.101 4.292.004 7.184.278 2.703 3.078 3.901 33.2 4.321 39.488-3.007.114-4.403.016-7.411-.266-2.466-3.728-3.677-32.943-4.094-39.5" />
<path fill="#F6EFD2" d="M1098.66 1006.41c7.58-1.05 30.23-.51 39.09-.51l80.18.09c-.11 17.09 2.23 51.02-4.11 65.25-7.97 17.88-56.94 29.47-75.24 35.49l-114.66 37.79c-20.13-7.72-47.605-15.95-68.662-22.97-31.421-10.62-63.281-20.48-94.635-31.26-16.952-5.84-22.092-10.39-29.294-25.9 73.661-3.36 149.11-1.23 222.001-14.47 83.15-15.1 32.97-27.99 30.26-38.92l1.47-2.04c4.25-2.32 8.66-2.17 13.6-2.55" />
<path fill="#E9B12C" d="M1412.54 887.443c3.27.745 23.37 11.714 28.17 14.096 15.15 7.532 27.26 13.115 43.28 18.725 1.08 8.19 1.74 14.983 2.34 23.2-9.62 8.828-19.9 17.73-28.08 27.83-20.76 25.624-10.84 46.446-7.5 74.596-3.72 6.01-7.09 9.88-12.05 14.94-16.59 16.9-30.22 36.29-42.29 56.59-5.48 9.21-9.81 19.09-15.77 28.05l-.71 1.06c-3.42 1.25-7.79 2.35-11.36 3.35-7.58 2.36-11.18 8.07-15.68 14.15-10-3.45-19.95-7.03-29.85-10.77 16.28-22.56 37.4-23.45 45.07-36.85 8.28-15.9 40.38-61.25 38.58-78.01-1.71-15.85-13.73-56.21-16.86-74.368-6.16-35.668 3.68-48.713 22.71-76.589" />
<path fill="#E9B12C" d="M1091.55 1185.86a103.4 103.4 0 0 0-31.62 24.63c-3.41 3.88-7.4 8.96-10.02 13.43-5.64 9.64-3.95 12.35-16.36 10.82-1.13-3.37 2.12-10.26 3.65-13.54 47.48-101.46 189.68-81.49 276.64-56.32 14.48 4.19 33.68 10.64 47.47 17.41-18.58 6.47-21.33 4.91-40.66 3.14-12.38-1.05-24.85-.13-36.95 2.73a122.6 122.6 0 0 0-34.09 14.09c-19.34 11.84-20.09 14.09-42.43 17.32 10.21-16.58 15.34-23.59 29.95-37.5-18.3 5.42-36.32 12.72-50.77 25.54-6.6 5.85-20.72 23.67-31.01 18.82 1.59-12.39 17.71-35.95 25.36-46.47-27.4 11.07-44.86 25.08-59.16 51.2-4.32.41-5.54 1.24-9.04-.46-2.5-5.64 4.18-17.57 6.13-23.95.31-4.09.75-5-1.33-8.23-3.58-.84-5.75.68-9.46 2.19-4.19 3.23-8.27 7.6-11.63 11.68-5.38 6.52-8.67 14.98-14.56 21.05-.02.01-5.01.63-5.39.34.09.08-2.31-.38-2.15-.35-1.09-1.47-1.98-2-1.31-4.28 4.33-14.74 11.61-30.07 18.74-43.29" />
<path fill="#1A303E" d="M1107.85 1200.71c6.01-6.51 14.87-13.3 22.83-17.2a506 506 0 0 0-12.04 23.24c.31-4.09.75-5-1.33-8.23-3.58-.84-5.75.68-9.46 2.19" />
<path fill="#E9B12C" d="M840.072 1145.42c33.049-4.34 86.763 2.82 116.426 18.44 30.249 15.92 49.112 38.8 59.822 71.15l-11.35-.01c-14.299-24.39-23.292-34.82-48.142-49.1 6.991 12.95 14.058 28.7 18.737 43.07.712 2.18-.927 3.81-2.099 5.12-2.282.43-6.254.52-7.546-1.67-13.18-22.34-26.207-35.24-48.395-49.31 5.501 9.98 20.019 36.94 18.769 47.74-5.234 6.22-12.682-5.73-15.522-9.82-6.888-9.91-13.318-16.9-22.702-24.41-11.178-8.28-18.184-11.27-30.693-16.87a161.8 161.8 0 0 1 26.749 47.59l-12.758-1.63c-28.124-26.86-32.321-30.83-70.682-44.37 12.601 11.28 22.661 23.46 30.772 38.35-21.108-2.88-23.186-5.37-41.266-16.49a126.1 126.1 0 0 0-36.189-15.25c-25.914-6.29-37.548-.27-61.96-1.47-2.295-.11-12.331-3.44-15.18-4.38 44.985-19.7 104.501-32.83 153.209-36.68" />
<path fill="#E9B12C" d="M645.623 904.018c.46.401.647.528 1.186 1.187 32.601 39.931 1.094 89.289-4.11 132.865-.379 3.17-.143 10.21 1.547 13.86 11.016 23.81 24.315 49.03 39.433 70.49 12.364 12.08 24.282 10.84 41.789 31.68-10.662 3.42-19.563 6.49-29.975 10.58-7.692-9.4-11.031-11.09-22.41-14.56-7.86-4.04-14.248-20.12-19.258-28.28-7.758-12.63-15.688-24.42-24.372-36.44-8.802-12.18-23.418-23.62-30.91-36.18 1.079-18.15 8.493-38.98 1.685-56.895-6.752-17.772-24.747-31.275-37.795-44.831 10.157-5.034 23.54-9.441 34.235-14.39 18.009-8.333 32.74-17.73 48.955-29.086" />
<path fill="#9F1D2F" d="M1273.91 104.062c.49-.032.97-.072 1.46-.095 26.06-1.204 131.7 67.373 156.45 89.129-15.01 4.404-29.67 10.498-45.28 14.693 1.43 13.563 3.95 28.443 6.1 41.973l1.11 8.17c-17.88-12.274-41.24-26.456-57.78-38.815 6.02-11.517 14.95-32.855 20.24-45.246-19.45-9.973-38.05-19.14-58.38-27.333-13.21-5.326-26.37-9.973-39.43-15.677 4.44-11.849 3.81-20.515 15.51-26.799" />
<path fill="#9F1D2F" d="M767.093 104.125c17.043-1.085 18.539 14.237 22.332 27.198-33.665 13.629-64.744 23.926-96.986 42.849a3937 3937 0 0 0 20.63 44.957c-7.635 4.965-55.279 37.35-58.075 37.244 1.566-15.09 4.602-33.273 6.938-48.335a1594 1594 0 0 1-45.41-15.023c27.902-23.475 117.518-79.992 150.571-88.89" />
<path fill="#E9B12C" d="M1212.94 595.29c5.72-.624 16.98-.835 22.38 1.203 26.88 10.143 58.79 28.847 84.08 42.691-13.14 27.189-14.8 31.27-21.3 61.487-5.76-6.538-10.98-13.503-16.31-20.399-13.15-15.389-32.02-42.005-44.74-58.701-26.49 6.708-49.9 6.344-76.26.813 14.47-15.43 31.57-23.448 52.15-27.094" />
<path fill="#E9B12C" d="M817.879 595.238q2.904-.14 5.811-.237c26.26-.855 47.912 9.754 66.832 27.435-30.621 5.107-48.356 6.326-79.104-.651-6.486 7.411-17.462 23.071-23.918 31.535a3184 3184 0 0 1-28.058 36.592c-3.872-24.552-5.981-36.031-13.403-59.663 11.871-7.272 59.347-32.413 71.84-35.011" />
<path fill="#F6EFD2" d="M1111.44 676.214c36.97-2.913 45.67 37.154 27.96 63.285-3.54 5.212-9.74 7.604-15.6 9.536-44.26 5.348-49.74-61.343-12.36-72.821" />
<path fill="#003271" d="M1112.29 690.077c1.1-.124 2.21-.21 3.32-.261 19.55-.846 18.51 33.985 7.75 45.132-22.78 7.054-24.06-32.953-11.07-44.871" />
<path fill="#F6EFD2" d="M1023.55 676.866c14.45-.25 35-2.607 47.04 7.081 10.33 8.318 4.43 20.121-3.13 28.075 10.69 6.709 10.81 15.56 7.79 26.395-11.43 13.882-34.91 10.016-51.66 9.831-.31-23.793-.32-47.589-.04-71.382" />
<path fill="#003271" d="M1040.41 717.967c11.51-.077 24.85-1.433 18.13 14.994-5.64 2.999-11.94 2.274-18.29 2.169-.05-5.636.1-11.506.16-17.163" />
<path fill="#003271" d="M1040.34 690.167c10.59-.089 24.43.367 15.92 14.976-5.68 1.888-10.09 1.52-15.94 1.266z" />
<path fill="#F6EFD2" d="M1159.86 676.894c21.06-.396 56.2-5.659 53.63 26.215-.56 6.996-6.56 12.196-11.65 16.147q7.245 14.308 14.04 28.827l-15.13.233c-8.83-.035-7.35-18.001-16.53-25.175-3.17-1.043-3.01-.946-6.25.089-1.57 2.165-1 20.978-1.01 25.195l-17.06.005z" />
<path fill="#003271" d="M1177.07 690.235c12.7-.219 25.51 1.958 16.38 17.913-6.52 1.951-9.62 1.706-16.49 1.736-.01-6.55.02-13.1.11-19.649" />
<path fill="#F6EFD2" d="m933.139 676.866 16.87-.052.029 12.686c-.042 13.767 3.044 41.203-5.963 51.532-12.887 14.778-46.864 10.065-48.556-12.969-1.238-16.865-.523-34.113-.367-51.184l16.894.016c-.023 9.282-2.383 52.575 4.359 56.995 23.777 15.587 16.806-43.417 16.734-57.024" />
<path fill="#F6EFD2" d="M964.156 676.861c15.003-.393 32.242-.007 47.384.013l.12 13.481-30.592-.105.039 14.958 26.123.089-.1 12.956c-7.365-.077-17.752-.488-24.841.296l-1.132 1.53-.083 14.938 30.606.053.2 13.171-47.776.131z" />
<path fill="#F6EFD2" d="m829.012 676.802 55.685.043-.071 13.715-19.608-.09.044 35.711.138 22.229-16.998-.068.114-57.686-19.313-.034z" />
<path fill="#D3B063" d="M1106.12 527.292c13.96-3.406 32.1-8.384 45.96-10.772.27 2.524.61 4.626.39 7.168l-1.48.273c-5.67 8.773-9.67 6.918-19.46 6.255l-.2 3.151c4.03 1.003 32.58.53 40.05 2.541l7.78.284-1.66 1.797 2.85 1.005.29 2.439c-3.47 1.54-2.21-1.862-3.56 1.086 2.07.298 4.21.532 6.23 1.018-23.67.255-47.34.351-71.02.287l.54-7.68-4.96-.74c-.23-3.645-.64-4.565-1.75-8.112" />
<path fill="#D3B063" d="M1106.12 527.292c13.96-3.406 32.1-8.384 45.96-10.772.27 2.524.61 4.626.39 7.168l-1.48.273c-10.08 2.439-34.47 7.82-43.12 11.443-.23-3.645-.64-4.565-1.75-8.112" />
<path fill="#2C3025" d="M1107.87 535.404c8.65-3.623 33.04-9.004 43.12-11.443-5.67 8.773-9.67 6.918-19.46 6.255l-.2 3.151c4.03 1.003 32.58.53 40.05 2.541-18.48.768-39.74.114-58.55.236z" />
<path fill="#E9B12C" d="M1152.08 516.52c3.89-1.444 3.98-.699 5.49-3.439-.8-2.407-1.49-4.207-2.46-6.555 9.82.568 22.39 1.928 32.05 3.91-4.16 3.229-22.08 18.16-25.9 17.753-1.11-2.343-.89-2.637-.78-5.188-2.92-1.144-4.71-.201-8.01.687.22-2.542-.12-4.644-.39-7.168" />
<path fill="#E9B12C" d="M1153.24 556.486c2.78.648 5.19 1.601 7.76.536-.27-2.539-.34-3.182.62-5.675l1.24-.655c7.2 5.336 18.54 13.247 24.99 18.905-6.23 1.004-26.18 4.384-31.35 3.756.34-4.78 2.64-2.576 2.44-7.213-1.95-1.239-1.79-1.201-4.09-1.465z" />
<path fill="#E9B12C" d="m1179.16 536.192 2.6-.952c.83-2.493.37-3.174-.39-5.681l1.02-.935c7.88 1.875 21.21 7.378 29.02 10.679-6.52 3.018-22.08 11.372-28.42 10.478-1.35-2.491-.61-2.502.32-6.244-2.02-.486-4.16-.72-6.23-1.018 1.35-2.948.09.454 3.56-1.086l-.29-2.439-2.85-1.005z" />
<path fill="#D3B063" d="M1112.26 545.436c13.63 4.264 27.13 7.606 40.98 11.05l1.61 8.189q-22.11-5.235-44.04-11.262z" />
</g>

    </g>
  </g>
</svg>