<svg xmlns="http://www.w3.org/2000/svg" width="512" height="512" viewBox="0 0 512 512">
  <defs><clipPath id="r"><rect width="512" height="512"/></clipPath></defs>
  <g clip-path="url(#r)">
    <rect fill="#00287e" width="512" height="512"/>
    <g transform="scale(1.12035) translate(-114.0,0.0)">
<defs><linearGradient id="b" x1="621.394" x2="629.193" y1="1213.57" y2="1221.82" gradientUnits="userSpaceOnUse"><stop offset="0" stop-color="#efece6"/><stop offset="1" stop-color="#e5f2fb"/></linearGradient><linearGradient id="a" x1="1378.69" x2="1363.51" y1="480.129" y2="490.729" gradientUnits="userSpaceOnUse"><stop offset="0" stop-color="#29292d"/><stop offset="1" stop-color="#0f2d46"/></linearGradient></defs><path fill="#00287e" d="M0 0h685v457H0z"/><path fill="#e9b12c" d="M471.555 99.245c-.445-7.434-5.46-13.76-4.256-21.623.245-1.612.072-3.325 1.862-4.062 3.697 1.214.882 14.118 8.629 16.463 7.654 2.316 13.118-9.666 17.243-8.814 1.623 1.689.974 3.565 3.793 3.793 3.82.31 3.305-6 7.122-4.99 1.542 2.374-.986 3.998 1.381 5.32 4.202-.043 6.256-5.764 9.89-6.884l.756.138c1.662 3.235-3.099 8.343-5.167 10.466-4.436 4.564-9.723 7.075-15.456 9.71-1.993.917-9.884 4.685-7.705 8.19 1.817 2.924 5.637-.82 7.131-2.4 1.121-1.187 2.693-3.276 4.508-3.541 1.455 1.002.499 3.655.11 5.115 4.501-1.8 8.232-7.662 10.255-7.71.965.518.705.21 1.169 1.113-.168 2.105-1.856 3.481-1.677 5.01 2.176 1.301 7.885-4.716 9.283-6.25 1.794-1.97 2.771-6.062 5.814-5.795 1.64 1.168.75 2.626.03 4.203-3.859 8.431-10.02 13.17-18.185 16.828-6.515 2.92-21.78 3.785-23.878 11.335l.14.66c1.148.183 4.589-1.675 6.011-2.147 5.434-1.804 13.283-1.149 18.495.976-9.896 15.525-18.8 7.48-20.659 10.17.14 2.776 5 2.804 7.248 3.01 3.443 14.148.7 20.03.697 34.26-1.37-.78-2.864-1.593-4.19-2.42-.016 6.364.412 8.621 2.068 14.826-2.299-.89-2.7-1.074-4.705-2.398-.577 9.864-.158 11.584 3.644 20.75-1.175-.147-2.6-.28-3.737-.531-2.313 12.782-1.694 17.667 5.826 28.971 4.896 7.36 9.878 10.718 15.614 16.815 6.844 7.275 11.36 17.277 10.837 27.454-2.364-1.154-3.7-1.915-5.864-3.44-.819 6.708-2.376 10.893-4.45 17.074-1.886 5.626-.11 13.528 3.46 18.071 1.298 1.742 3.411 3.53 4.43 5.362-.02 3.691-.218 8.166-.576 11.839-.966 9.944.621 20.091.385 29.904-5.024 3.553-3.94 4.985-5.517 10.49-3.396-1.676-5.44-2.767-8.57-5.06 2.155-5.054 3.127-5.185 5.874-9.403.215-5.825.06-27.599-3.142-32.357-5.801-8.626-14.977-15.99-20.243-25.972-4.32-8.19-1.946-15.49-3.96-22.43-1.092-1.486-.52-2.929-1.31-3.876-.864.215-.99.225-1.748.662-.508 1.15.152 2.49-.416 4.92-2.43-.585-8.06-3.411-10.33-4.518-6.775-3.304-12.331-6.5-18.199-11.182-5.681-4.534-11.647-10.563-17.801-14.14-.966-4.283-1.677-8.315-2.73-12.698 5.913-1.602 12.74-2.433 18.266-4.47 2.95-1.088 4.175-4.537 5.033-7.316-2.316 1.486-4.773 3.297-7.834 4.43-7.015 2.598-24.084 3.735-29.111 8.506-1.53 1.45-2.347 14.648-1.76 17.195.304 1.316 1.99 6.282 2.456 8.57-1.031.523-2.137 1.186-3.15 1.763 2.31 7.633 1.183 10.33-6.462 13.36-.685-4.785-.099-16.074-.18-21.473.24-7.211-.254-15.338.356-22.45.765-8.966 21.508-14.174 27.641-19.986 3.18-3.015 3.318-3.504 3.802-7.48-3.455 2.941-6.856 5.374-10.936 7.378 2.241-10.216 7.412-17.63 14.092-25.34l-3.792-1.398c3.093-3.781 7.678-6.971 11.623-9.821-2.439-.197-4.585-.144-7.024-.11 2.134-8.534 11.442-10.288 15.555-17.21 1.219-2.056 1.596-3.675 2.181-5.984-2.196-.375-3.637-.523-5.86-.667-2.649 1.1-4.152 2.706-6.239 4.618-1.898-.464-4.097-1.215-5.986-1.807-1.175-.82-2.705-2.111-3.617-3.216-.837-.658-2.188-1.66-2.209-2.754-.044-2.38 1.08-6.452 2.714-8.199 4.035-4.313 13.04-4.776 18.379-7.187 3.066-1.385 5.254-3.261 8.387-4.658 1.74-.777 5.284-1.364 6.18-2.068-2.092-1.896-26.086.617-37.37-9.916-1.222-1.14-3.117-3.143-3.126-4.919-.003-.328.09-.636.174-.95 2.301-1.816 5.834 2.874 7.965 4.254a22 22 0 0 0 6.982 2.91c-.804-1.643-1.96-3.44-1.545-5.213 2.08-1.774 5.553 3.234 8.004 4.722 3.796 2.304 17.102 4.667 20.713 2.242 1.447-2.06-.885-6.378-3.1-7.494-11.913-5.997-29.885-1.027-36.377-16.051-.272-.624-.03-1.036.158-1.625 3.127-1.466 8.142 8.225 15.1 7.935 2.863-1.758-2.89-6.767.302-9.574 2.397-.496 2.51 2.464 3.533 4.158 3.542 5.866 10.276 8.148 16.848 8.038"/><path fill="url(#a)" d="M1359.36 486.594c7.09-2.719 13.12-5.877 20.58-5.605l2.07 1.152c-.78 6.05-11.83 10.076-17.02 12.633-3.38-3.514-2.41-5.954-5.63-8.18" transform="translate(36.44)scale(.29889)"/><path fill="#1a303e" d="M479.144 260.108c3.06 3.123 4.002 4.881 4.178 9.227-1.09-1.487-.52-2.93-1.309-3.877-.864.215-.99.225-1.748.662-.508 1.15.152 2.49-.416 4.92-.34-3.32-.433-7.478-.705-10.932"/><path fill="#003271" d="m439.843 145.594 2.893-.157c.963.665.673 1.395 1.683 2.445l-.96.928c-1.174-.82-2.704-2.111-3.616-3.216M468.656 128.58c2.104-.001 3.506.457 5.44 1.19-1.53 1.58-2.433 2.476-4.484 3.284-2.083-.064-3.455-.638-5.395-1.346 1.534-1.832 2.042-2.475 4.439-3.127"/><path fill="#1a303e" d="m445.91 136.346.102.105c.425 1.966-1.987 4.252-3.742 4.926-2.143-2.574 1.453-4.51 3.64-5.031"/><path fill="#e9b12c" d="m207.03 121.967-.107-.186c-.888-1.523-1.698-3.096-3.25-4.024-5.81-3.473-11.423-6.849-16.81-10.972-1.943-1.486-5.855-1.256-8.264-1.234-6.962.062-15.016.123-20.447-4.95-.432-.403-.27-.705-.203-1.198.32-.332.641-.817 1.155-.662 3.32 1.005 6.649 3.034 10.35 2.253 3.481-.734 2.855-4.106 4.129-6.316 2.174-.843 3.764 5.73 7.682 6.627 1.053-.252.588-.015 1.41-.804.268-2.054-2.762-5.913-4.61-6.963-2.73-1.55-8.246-2.398-9.557-5.576 1.048-2.097 5.72 1.879 9.575-.583 3.559-2.272 4.824-5.709 5.603-9.81.289-1.518-.07-2.345.433-4.167.683-.779.265-.534 1.322-.717 3.455 2.367-1.077 13.622-.989 17.056.106 4.078 5.317 12.699 9.07 13.826 4.364-.502 8.722-11.577 9.537-15.618.447-2.217.045-7.533 1.903-8.747 3.403 1.403 1.102 11.64.69 14.564-.402 2.866 2.117 6.854 2.724 9.832.455 2.234.237 7.505 1.433 8.981 3.344.66 6.272-8.115 8.204-9.24l.455.236c.95 3.043-.14 5.573-1.307 8.25 5.696-3.153 11.32-9.818 13.862-15.857.556-1.322.661-3.908 1.31-5.826.788-.744.477-.671 1.37-.765 3.097 2.954-2.066 13.47-3.518 16.597 4.846-1.748 9.277-5.196 12.204-9.459 1.26-1.834 2.537-5.959 4.725-6.49l.315.305c.54 1.997-.64 6.134-1.129 8.28 5.821-1.606 8.357-4.565 11.677-9.23.447-.628.835-.585 1.426-.614 3.202 3.019-6.109 11.811-9.189 13.115-2.355.997-17.778 7.494-17.71 10.001 2.384 1.491 8.534-.786 10.271.738l-.144.541c-5.231 5.021-13.291 1.477-19.237 2.49-1.564.267-2.661 2.745-3.249 4.185 7.563 1.978 7.485 4.411 14.06 7.809 3.957 1.878 8.754 2.447 12.425 4.871 1.705 1.127 2.304 4.192.93 5.857-.975.857-1.32 1.629-1.287 2.936-.638 3.508-2.543 3.506-5.504 3.712-3.197.223-6.927.633-10.045 1.442-8.219 2.131-10.885.899-17.796-3.79 3.918 8.586 8.27 9.547 17.37 7.661 3.263 7.627 7.125 10.117 12.096 16.183 10.19 12.437 17.45 28.762 17.365 45.013-3.516-1.932-6.738-3.66-9.872-6.216-.81-.662-2.684-2.56-3.39-2.58-.926 5.318 3.834 7.179 7.8 9.765 6.431 4.194 15.47 7.564 20.998 12.897 1.725 1.664 1.619 5.305 1.711 7.446-.104 13.42.302 26.995.03 40.398-7.485-3.29-8.703-5.356-6.474-13.19-1.058-.56-2.36-1.21-3.368-1.81.505-1.513 2.417-6.998 2.507-7.96.369-3.974.254-13.814-1.22-17.316-1.713-4.07-18.025-6.19-22.182-7.681-2.687-.964-6.007-1.065-8.67-2.446-1.91-.845-4.582-2.778-6.392-4.019 1.24 3.576 2.466 6.557 6.32 7.824 6.052 1.99 12.612 2.888 18.598 5.09-1.638 4.157-3.755 9.082-6.326 12.763-9.761 13.975-27.173 28.717-43.717 33.714l.194-3.971c-.8-3.517.348-7.565-.23-8.652-3.446-.499-1.393 4.05-3.307 6.176-1.568 7.09-.812 11.077-3.683 19.193-3.64 10.291-19.256 21.888-22.489 30.125-2.284 5.82-2.596 23.648-1.676 29.83.07.463 4.504 7.056 5.318 8.727-2.49 1.889-5.643 3.356-8.446 4.782-1.395-5.4-1.157-6.306-5.398-9.875-.042-1.503-.07-3.29.054-4.78 1.032-12.296-.168-24.188-.582-36.41 1.445-1.907 3.419-3.712 4.923-5.89 6.69-9.685 3.805-16.414.296-26.261-.693-1.945-1.345-6.034-1.697-8.215a122 122 0 0 1-6.171 3.457c-.707-18.595 11.463-28.794 24.056-40.156 9.728-8.777 14.136-14.909 17.639-27.395-1.724.415-2.99.555-4.756.764a186 186 0 0 0 1.535-3.935c2.686-7.195 2.798-13.315-.371-20.257-1.004.702-2.402 1.343-3.518 1.906.34-5.46.556-7.393-.816-12.716-1.715 1.165-2.287 1.44-4.241 2.026 1.636-10.693.295-12.96.07-23.184a58.3 58.3 0 0 1 2.747-19.401c1.368-.666 3.629-1.43 4.027-2.946-3.213-2.882-14.39 4.75-21.83-12.4 10.362-1.844 17.856-1.13 26.572 4.806.866-.47 1.838-1.08 2.698-1.59"/><path fill="#1a303e" d="M207.318 260.235c-.243 3.318-.562 10.942-1.012 14.003-.8-3.517.348-7.565-.23-8.652-3.446-.499-1.393 4.05-3.307 6.176.566-5.48.602-7.395 4.549-11.527M246.273 141.309c-2.19-.358-4.384.039-6.397-.45-.358-.858-.257-.562.046-1.67 1.579-1.455 4.799-.735 7.638-.816-.975.857-1.32 1.629-1.287 2.936"/><path fill="#003271" d="M202.99 99.728c1.383 2.246 2.391 6.77 1.139 9.223-.919.74-.5.537-1.823.595-4.372-2.804-1.362-6.538.683-9.818M218.286 127.065c2.127-.145 5.966.194 6.508 2.727-.649.864-.823.712-1.97 1.114-2.174.474-6.124-.163-6.472-2.73.654-.862.714-.658 1.934-1.111"/><path fill="#e9b12c" d="M330.51 67.227c.852-1.054 1.69-1.913 3.11-2.05 2.808-.27 11.413 2.956 13.568 4.923 2.753 2.511 8.085 21.467 9.97 26.298 6.119-1.283 11.388-2.601 10.002-10.345-.763-4.27-7.918-10.52-5.153-14.264 5.64-7.64 24.189-.119 29.784 3.49 16.122 10.4 25.447 28.775 30.041 46.808 2.54 10.606 2.732 21.736 2.227 32.529-1.901-1.54-3.497-2.732-4.926-4.774-.616-3.85-.807-7.847-1.318-11.671-1.139-8.525-4.72-23.846-9.101-31.225-.81.36-1.83.775-2.594 1.182 5.705 13.547 8.288 23.147 9.256 37.95-2.513-1.956-3.622-2.876-5.003-5.765-1.913-4.004-5.643-29.479-11.089-29.362l-.475.48c.116 1.828 1.405 4.423 2.086 6.202 2.364 6.166 3.775 12.652 4.824 19.155-3.569-2.262-3.189-2.091-5.562-5.154-2.741-3.54-4.71-18.847-9.176-18.648-.317.308-.747.646-.57 1.185.725 2.197 1.765 4.913 2.498 7.058a62 62 0 0 1 1.757 6.375c-10.742-3.48-6.172-7.508-11.546-12.143-2.304.853.508 6.468 1.058 8.32-5.995-.581-6.728-2.09-10.631-2.726-.443.497-.398.983-.466 1.667-1.465.874-8.513-3.004-10.142-3.796-.048 2.694-.12 5.44-.128 8.128 3.18 4.084 10.111 10.832 13.952 14.558-1.62 1.693-3.324 3.57-5.237 4.916-3.332-2.16-5.738-4.687-8.557-7.45 1.073 4.92 2.033 8.915.649 13.877l-5.102-1.813c.257 1.284.508 2.705.798 3.969 1.59 1.497 2.48 2.063 4.39 3.16l3.342-.67c.332 1.06.454 1.335.523 2.425l1.483.221-.162 2.295-.009.482-.433 2.385c-.984 1.144-2.143 2-3.324 2.944-.385-4.21-1.246-4.133-4.818-5.938-.14 1.931-.427 5.22-2.759 5.505-2.208-1.253-1.972-4.394-2.038-6.605-2.22 1.19-4.663 2.341-5.225 4.744-.092.392-.325.683-.606.97-1.396-.366-3.148-1.894-2.858-3.386.63-3.23 5.368-6.003 7.744-8.198l-.58-4.205c-1.613.549-3.117 1.224-4.68 1.9-2.158-5.259-3.407-10.913-5.822-16.493a447 447 0 0 1-3.596 16.569c-1.677-.734-3.356-1.333-5.071-1.962a166 166 0 0 0-.445 4.261c2.993 3.427 12.068 6.787 5.534 11.405-1.468.215-.649-1.135-1.778-2.447-1.14-1.32-3.158-2.292-4.664-3.101-.19 3.406-.022 4.434-1.916 7.343-2.667-2.355-2.703-3.352-3.164-6.74-3.27 2.013-4.003 2.428-4.597 6.312-4.158-2.977-4.743-4.293-1.488-8.521-1.455-.439-3.227-.887-4.51-1.643-2.935 1.403-2.198 8.981-13.942 9.411 1.962-5.478 3.623-7.638 8.964-10.24a175 175 0 0 0-6.13-.911c-2.696 5.822-6.048 8.52-12.573 8.883-.98-1.472-.179-2.177-1.202-3.615l-1.036-.077c-2.814 1.892-3.995 2.056-7.273 2.81 1.809-4.75 2.384-5.377 6.278-8.68-7.377 1.553-7.848 4.67-16.534 1.105 7.35-6.504 8.969-2.926 16.117-3.226l.394-.02c-4.012-2.109-5.348-3.543-7.265-7.656 6.859.433 8.712 1.692 12.29 7.38l6.153.05c-4.4-3.108-5.399-5.022-6.864-10.184 6.217 1.446 10.189 4.017 11.678 10.58l5.78.68c-4.099-4.015-4.677-6.063-5.52-11.51 7.005 2.527 9.317 5.16 10.53 12.518l3.025.984c.713.038 4.129 1.15 5.014 1.42 1.844-1.113 2.463-1.572 3.986-3.066.245-1.244.446-2.626.657-3.888-1.698.52-3.672 1.411-5.338 2.11-2.427-7.89-1.62-13.08 1.106-20.526-1.739-4.88-2.63-7.98-3.76-13.053-2.454 1.199-7.246 3.759-9.811 4.083-1.426-.668-.126-.812-1.205-1.802-2.79.296-7.128 3.585-10.066 2.324-1.194-1.096-1.655-1.895-3.188-1.047-1.959 3.337-4.11 4.003-7.572 5.074.706-2.99 4.212-12.184 4.292-13.986-.656-.607-.9-.62-1.777-.911-4.23 3.185-3.395 17.424-13.443 23.987 1.27-7.242 2.85-14.292 5.621-21.136.579-1.43 1.237-2.85 1.448-4.38-.481-1.049-.202-.869-1.026-1.211-1.276.486-1.989 2.453-2.558 3.669a74.7 74.7 0 0 0-5.092 14.64c-1.91 7.958-1.305 12.268-8.137 17.74.56-9.145 2.416-18.054 5.012-26.83.791-2.674 3.933-9.066 4.06-11.287-.794-.758-.34-.486-1.45-.783-2.332.587-3.09 4.802-3.935 6.831-4.698 11.28-6.146 23.218-7.287 35.275-1.43 1.82-3.485 3.519-5.294 4.94-2.55-31.513 9.57-67.001 37.988-83.556 3.964-2.31 12.091-4.646 15.727-.482 1.2 1.376 1.259 4.194.633 5.84-4.223 11.095 4.243 15.22 13.551 18.305 1.819-3.888 3.913-8.45 5.241-12.49-.804-1.865-1.025-2.289-2.211-3.929-3.585-3.647-4.584-5.916-9.779-3.72-.426-.966-.416-1.53-.448-2.55-.186-5.92 5.12-4.784 8.894-4.783"/><path fill="#f6efd2" d="M330.51 67.227c.852-1.054 1.69-1.913 3.11-2.05 2.808-.27 11.413 2.956 13.568 4.923 2.753 2.511 8.085 21.467 9.97 26.298.482 1.164 1.068 3.268 1.462 4.539-1.936-.54-3.787-1.154-5.696-1.78a162 162 0 0 1-2.741 5.469l-3.97-3.532c-1.267 1.713-2.63 3.759-3.861 5.526-1.396-2.147-2.403-3.474-3.978-5.459l-3.87 3.69c-.887-1.704-1.755-3.572-2.6-5.308-1.88.777-3.993 1.41-5.94 2.039a329 329 0 0 1 2.85-6.883c1.818-3.888 3.912-8.45 5.24-12.49-.804-1.865-1.025-2.289-2.211-3.929-3.585-3.647-4.584-5.916-9.779-3.72-.426-.966-.416-1.53-.448-2.55-.186-5.92 5.12-4.784 8.894-4.783"/><path fill="#e9b12c" d="M331.843 78.28c-3.585-3.647-4.584-5.916-9.779-3.72-.426-.966-.416-1.53-.448-2.55-.186-5.92 5.12-4.784 8.894-4.783 2.068 1.444 4.19 8.604 3.364 10.81-.882.346-1.054.283-2.031.243"/><path fill="#003271" d="M334.545 69.193c1.399.281 4.65 1.532 5.87 2.275l.045.364c-3.73 1.094-4.905 1.424-5.915-2.639"/><path fill="#1a303e" d="M295.901 155.696c2.035.106 4.176.273 6.2.142-4.548 2.996-6.14 4.232-7.995 9.428-.98-1.472-.179-2.177-1.202-3.615l-1.036-.077c2.039-2.066 2.77-3.251 4.033-5.878M298.052 122.96c.957-1.882 2.689-5.801 4.421-6.806l.387.24c.362 2.356-.995 5.279-1.62 7.613-1.194-1.096-1.655-1.895-3.188-1.047"/><path fill="#f6efd2" d="M192.54 368.908c9.937-1.156 18.042 2.983 26.956 6.531 2.22.882 8.468 3.144 10.345 4.262 4.937 2.935 9.396 5.775 14.504 8.566a207.45 207.45 0 0 0 177.155 9.027 200 200 0 0 0 22.016-10.58c4.35-2.446 8.585-5.297 12.945-7.598 2.574-1.256 5.368-2.087 8.002-3.184 15.356-6.393 24.712-11.118 40.606-2.424-5.574 5.715-12.29 11.517-18.411 16.607a230.96 230.96 0 0 1-147.597 50.117 228.16 228.16 0 0 1-158.925-66.748 34.4 34.4 0 0 1 12.405-4.576"/><path fill="#003271" d="m348.452 418.733 5.293-.11.12 16.37-4.501.113v-4.782l-.04-5.625c-.905 2.472-2.363 5.613-3.43 8.082-1.14.027-1.525.072-2.625-.156-1.9-1.315-2.887-4.848-4.106-7.26l.054 9.783-4.308-.03c-.21-5.359-.129-10.993-.132-16.376l5.154-.054c1.306 2.203 3.15 6.358 4.316 8.788 1.306-2.37 2.884-6.107 4.205-8.743M266.11 404.548c4.514 1.455 15.53 3.7 11.846 10.787-.732 1.408-2.672 1.996-4.104 2.331.525 2.472.894 4.962 1.29 7.457l-4.835-1.82c-.633-1.754-.438-6.244-2.42-7.122-1.487.845-2.143 3.67-2.71 5.368l-4.539-1.701a1377 1377 0 0 1 5.472-15.3"/><path fill="#f0f3ee" d="M269.48 409.324c1.727.547 3.656.82 4.376 2.57-.026 1.127-.162 1.202-.847 2.168l-.299-.024c-1.779-.129-2.825-.646-4.49-1.295z"/><path fill="#003271" d="M394.935 412.25c4.119-.039 7.281 4.008 4.94 7.777-1.733 2.792-5.149 3.312-8.102 4.02.374 1.336 1.336 4.104.858 5.324l-.882.376-3.338.738-3.752-16.008c3.28-.777 6.985-1.743 10.276-2.227"/><path fill="#f0f3ee" d="M392.912 416.106c1.246-.191 1.73-.12 2.666.756.66 2.098-.215 2.603-2.104 3.279l-1.534.35c-1.721-.416-1.927-1.883-1.488-3.339.879-.956 1.013-.732 2.46-1.046"/><path fill="#003271" d="M310.597 416.315c1.526.212 3.197.302 4.743.416-.06 1.808-1.475 11.217-.658 12.033 6.412 6.393 6.271-7.864 6.694-11.158 1.429.204 3.114.341 4.57.496l-.279 3.306c-.508 3.348-.142 8.45-2.726 10.865-2.996 2.83-9.719 1.957-12.195-1.139-2.324-2.908-.572-11.184-.149-14.819M452.379 387.987c.529.558 1.36 2.244 1.766 2.997-2.275 1.381-4.956 2.813-7.299 4.134l1.387 2.502c2.062-1.046 4.14-2.26 6.157-3.399l1.695 2.879-6.16 3.553 1.512 2.723c1.551-.849 6.136-3.58 7.481-3.969l.502.344c.511 1.03.957 1.494.906 2.516-2.11 1.584-8.973 5.171-11.468 6.465-2.598-4.387-5.344-9.696-7.852-14.227 3.533-2.212 7.702-4.468 11.373-6.518M369.78 416.42c2.012-.14 5.333-.045 6.12 2.104-.162 1.118-.895 1.656-1.708 2.514-1.772-.828-5.57-1.668-7.003.038 1.597 4.212 9.317-.645 10.796 5.494.344 1.36.102 2.8-.666 3.975-1.554 2.337-4.726 2.732-7.26 3.136-2.131-.07-5.625-.219-6.381-2.463.236-1.148 1.082-1.74 1.96-2.595 2.568 1.094 5.524 2.681 7.607-.11l-.117-.595c-2.501-1.937-9.696-.514-10.416-4.94-.735-4.532 3.838-6.002 7.069-6.558M233.436 390.387c4.691-.311 12.195 3.054 10.22 8.539-.634.54-.44.58-1.385.67-.717.065-2.39-.745-2.567-1.405-.347-1.465-.097-2.033-1.264-3.067-3.559-3.156-7.463 3.156-6.835 6.292.239 1.195 1.678 1.954 2.717 2.516 1.038-.161 1.992-.702 2.9-1.201 1.714.35 2.425 1.357 2.434 3.111-.278.562-.635 1.363-1.334 1.512-11.784 2.511-16.185-12.266-4.886-16.967M429.762 399.963c1.557-.105 3.622.359 4.991 1.109.646.852.487.445.47 1.61-.607 1.247-1.698 1.776-2.89 2.577-1.552-1.32-3.71-2.313-5.225-.212-1.794 2.487.248 6.868 2.696 8.252 2.447 1.387 3.92-2.39 5.12-3.784.884-.998 2.59-.974 3.64-.284-.123 1.396-.173 2.568-.89 3.808-1.66 3.35-8.456 5.703-11.628 3.237-7.197-5.6-5.529-14.322 3.716-16.313M292.513 412.842c5.312-.34 8.265 2.018 9.563 7.066-1.836.122-3.23.502-4.582-.628-3.118-7.64-10.337 1.943-5.96 6.474 1.52 1.572 3.603.176 4.821-1.124l.242-.26c1.677.69 3.318.89 3.233 2.843-2.014 3.476-7.896 3.111-10.977 1.371-4.243-2.4-4.281-8.404-1.993-12.164 1.437-2.364 3.17-3.016 5.653-3.578M410.516 407.363l.676.04c1.016 1.23 4.555 13.007 5.27 15.255l-3.65 1.276c-.58.155-.278.143-.915-.144-1.204-2.436-4.16-12.224-5.063-15.114zM253.511 399.141l4.208 1.808c-1.554 4.25-4.745 10.838-6.684 15.145-1.34-.589-2.991-1.468-4.33-2.134 1.77-4.48 4.678-10.497 6.806-14.819"/><path fill="#f6efd2" d="M284.54 232.387c38.42-.435 77.419.082 115.919-.073l-.018 64.157-13.549.005c-9.558-.132-19.443-.007-29.025-.006l-12.685.153-.027.046c-.053 1.973 9.953 7.763 11.597 9.7-10.147 5.643-59.01 6.893-72.1 7.188-.293-8.348-.102-17.585-.098-25.996z"/><path fill="#e9b12c" d="M284.554 287.56c4.815-.076 9.04-.586 12.966 2.38 1.417 1.07 3.633 2.265 5.43 2.445 6.238.624 13.124.028 19.428.298-.378 2.817-1.947 10.81-1.008 13.076.921.843 2.776.697 3.137-.179 1.62-3.918 1.97-8.512 3.09-12.633 1.461.244 2.746.238 4.222.271.101 3.703.09 8.883.45 12.464 2.898.086 6.41.269 9.222-.311.556-3.01.846-6.211 1.423-9.092 1.043.271 1.204.317 2.268.344l-.027.046c-.053 1.973 9.953 7.763 11.597 9.7-10.147 5.643-59.01 6.893-72.1 7.188-.293-8.348-.102-17.585-.098-25.996"/><path fill="#003271" d="M327.095 262.822c-.777-2.681-.465-2.28-3.114-3.231.025-.141 3.447-4.77 3.692-4.906 3.605-2.004 2.895 1.92 7.337 1.531l.548.282.033.644c-.738.71-1.277.847-2.23 1.237-1.102 2.144.77 2.694-1.602 4.817.757 1.131 2.453 1.513 3.343 2.75 3.768 5.228 2.004 6.508 9.258 6.38.38-2.384.915-8.416 2.254-9.887l.607-.033c1.67 1.732-1.895 8.103.045 11.013.038.983-.189 1.43-.786 2.2-1.36 1.76-3.064 17.3-3.566 20.66-.577 2.881-.867 6.082-1.423 9.092-2.812.58-6.324.397-9.221.31-.36-3.58-.35-8.76-.45-12.463-1.477-.033-2.762-.027-4.222-.271-1.12 4.121-1.471 8.715-3.09 12.633-.362.876-2.217 1.022-3.138.18-.939-2.266.63-10.26 1.008-13.077.246-1.808.906-5.712.725-7.359-.477-.57-.601-.578-1.245-.925-.504-2 1.893-6.109 1.97-8.211.074-2.013-.676-4.401-1.197-6.382-2.107.767-6.115 3.005-6.908-.266-.605-2.493-.667-9.312 1.685-10.922.693.338.726.172.881.642.667 2.026.82 4.677 1.073 6.855 3.298-2.069 3.865-2.473 7.733-3.293"/><path fill="#f6efd2" d="m327.598 292.947 1.624-6.117c1.171 2.412 1.93 3.772 2.597 6.388-1.476-.033-2.76-.027-4.221-.271M334.029 272.93c1.63 1.643 1.915 1.974 3.875 3.128q3.031-.021 6.059-.213a897 897 0 0 1-3.025 19.11c-1.13-.615-2.863-1.21-4.119-1.685-.083-7.444-4.036-9.7-2.79-20.34"/><path fill="#e9b12c" d="M336.82 293.27c1.255.474 2.988 1.07 4.118 1.685-.365 2.91-.843 5.912-1.267 8.82l-3.264-1.01c.108-3.166.242-6.331.412-9.495M357.867 296.47c-1.476-4.202-1.632-8.262.302-12.372a15.33 15.33 0 0 1 8.889-7.987c3.906-1.353 8.506-1.21 12.24.613a14.86 14.86 0 0 1 7.546 8.613c1.435 4.201.688 7.027.048 11.139-9.558-.132-19.443-.007-29.025-.006M395.73 264.756c.786.717 1.217.936 1.414 1.916-.541 1.93-8.892 9.825-10.85 11.554-.953-.964-1.231-.94-1.521-2.138.885-1.577 9.263-9.765 10.957-11.332M370.764 256.184c.912-.016 2.009-.187 2.681.331.425 2.626.156 12.313.12 15.515-1.18.009-1.51.069-2.616-.263-.717-1.566-.233-13.146-.185-15.583M351.345 267.974c2.448 1.443 6.845 5.877 8.181 8.46.173.337-.481 1.1-.696 1.43l-.75.138c-1.522-.718-6.16-5.577-7.243-7.066-.296-.974.174-1.93.508-2.962M361.854 262.363c1.24 1.017 3.913 8.445 4.253 10.202-.49.766-1.03.826-1.966 1.267-1.127-1.261-3.9-8.17-4.28-9.995.355-.793 1.183-1.064 1.993-1.474M382.37 262.408c1.082.374 1.178.384 2.071 1.067.377 1.46-3.126 8.498-4.005 10.39l-2.457-1.245c1.106-2.947 2.86-7.56 4.391-10.212M396.738 278.566c.714.15 1.36 1.906 1.688 2.568a324 324 0 0 1-7.968 3.277l-.49-.082c-.673-1.083-.607-.671-.673-1.846.927-1.58 5.476-3.026 7.443-3.917M391.211 289.173c2.107-.126 4.531-.689 6.328.163.645 1.011.415 1.189.388 2.543-2.002.112-5.894.758-7.134-.803.012-.985.015-1.02.418-1.903M346.85 289.023c2.272.044 4.6-.61 6.346.475.544 1.01.337 1.158.283 2.412-2.158.046-4.716.642-6.44-.3-.565-1.088-.326-1.218-.189-2.587M349.633 279.605c1.943.512 4.166 1.158 5.356 2.754.167 1.219.057.921-.613 2.253-1.964-.668-4.42-1.155-5.475-2.815-.04-1.124.167-1.12.732-2.192"/><path fill="#f6efd2" d="M206.359 348.9c9.256-1.162 24.677 4.95 33.776 7.942a292 292 0 0 0 18.053 5.392 330.4 330.4 0 0 0 167.793.248c12.971-3.278 24.987-7.872 37.639-11.701 9.507-2.917 20.157-3.246 28.31 3.353 6.337 5.13 11.678 9.356 18.881 13.42-.86.972-2.086 2.108-3.04 3.04a37 37 0 0 0-1.835-1.043c-10.577-5.685-17.966-5.927-29.383-2.484-4.648 1.587-9.663 3.751-14.317 5.509a297 297 0 0 1-24.249 8.055 349.6 349.6 0 0 1-179.246 3.07c-10.45-2.676-21.363-5.82-31.47-9.523-19.003-6.964-30.213-14.906-49.867-3.62-.795-.672-2.191-2.211-2.958-3.012 2.965-1.662 6.935-4.053 9.618-6.11 7.658-5.873 12.15-11.28 22.295-12.535"/><path fill="#003271" d="M432.7 374.737c.442.421.4.52.583 1.124l-.353.612c-2.756 1.623-8.524 3.396-11.262.777-1.522-1.452-1.913-5.64-.362-7.044 1.713-1.552 7.427-3.303 9.717-3.183l.305.502c-.227 2.02-1.979.944-3.733 2.406l-.024.681c.711.966.415.882 1.32 1.085.847-.475.966-.604 1.902-.69.86.57.6.457 1.022 1.682q.45 1.022.885 2.048"/><path fill="#f0f3ee" d="M432.7 374.737c-1.055.385-1.513.547-2.61.753-1.135-.356-.827-.084-1.434-.939l.23-.753c1.127-.983 1.261-.75 2.929-1.109q.45 1.022.885 2.048M423.467 370.16l1.214.18c1.718 1.312 2.51 4.881 1.362 6.74-3.52-.224-4.208-4.358-2.576-6.92"/><path fill="#003271" d="M263.615 369.222c2.074.511 6.539.882 7.405 2.577l-.312.6c-1.761.527-2.183-.717-3.971-.239-1.656 2.535 1.674 1.788 2.765 3.028-.15.807-.27.82-.85 1.393-.265 1.35-.02 1.231-.825 2.041.863.18.828.147 1.455.754l-.074.591c-1.14 1.026-3.735.47-4.988-.176-1.218-.628-1.197-1.184-1.565-2.367-1.649-1.238-2.753.484-5.227.675l-.18-.43c.834-1.892 4.867-6.683 6.367-8.447"/><path fill="#f0f3ee" d="M267.827 378.622c-.658-.125-1.244-.305-1.885-.487-.739-.84-.564-.37-.61-1.432l.603-.561c1.336-.257 1.334-.024 2.716.439-.264 1.35-.02 1.231-.824 2.041M264.077 371.814l.24.293c-.236 1.383-.243 2.708-1.572 3.371-.711-.448-.513-.15-.76-.81.35-1.145 1.26-1.943 2.092-2.854"/><path fill="#003271" d="M242.418 363.454c.509.066 1.43.176 1.908.308a4.2 4.2 0 0 1 2.607 2.113c2.581 4.925-3.562 7.849-3.803 8.578.917.577 1.505.938 2.282 1.718l-.667.512c-3.745.553-10.292-9.11-2.327-13.23"/><path fill="#f0f3ee" d="M242.524 365.43c.96.005.914.008 1.804.394 1.799 2.14.427 4.498-1.237 6.253-4.17.167-2.022-4.729-.567-6.648"/><path fill="#003271" d="M413.86 377.298c.365-1.984.769-6.205 2.021-7.385 2.066.971 3.724 8.67 3.133 10.258l-1.779.64c-1.04-.413-1.171-.482-1.987-1.244-.972.619-.464.478-1.56.502-.398.28-1.268.915-1.692 1.031l.012.413c-.873.687-.392.55-1.489.433-.983-1.133-2.81-8.802-2.062-9.768.708-.194 1.24-.433 1.943-.269 1.258 1.324 2.516 3.742 3.46 5.39"/><path fill="#f0f3ee" d="M416 374.468c.643 2.448.886 3.882 1.235 6.342-1.04-.412-1.171-.481-1.987-1.243zM410.854 375.529c.971 1.423 1.928 3.063 2.833 4.54-.397.28-1.267.915-1.691 1.031-.425-1.71-.79-3.817-1.142-5.571"/><path fill="#003271" d="M459.05 363.983q.03-1.923.11-3.847c.06-1.21.096-2.522.972-3.32 2.092.358 4.985 8.07 4.082 9.752-.995.314-.552.368-1.383.03-.739-1.79-1.298-3.593-1.892-5.434-.093 2.397.239 4.585-1.372 6.092l-1.782 1.563c-.854.427-.953.535-1.874.529-.573-1.402-3.416-8.405-3.204-9.269.936-.496.993-.523 2.024-.705 1.315 1.22 3.063 3.24 4.319 4.609"/><path fill="#f0f3ee" d="M455.618 362.841c1.393 1.7 2.398 2.863 3.949 4.415l-1.782 1.563c-.714-1.59-1.566-4.265-2.167-5.978"/><path fill="#003271" d="M389.639 375.173c.926-.078 1.124-.069 2.047.036.556.777 1.564 8.734 1.193 9.783-1.02.367-.52.35-1.545.086-.727-.95-.834-4.43-.993-5.92-.508 1.73-.64 3.995-2.011 4.967-1.797-.302-1.907-2.209-3.168-3.533l-.078.57c.203 1.217.84 3.976.391 4.956l-.983.2c-1.423-1.004-2.803-9.692-.586-10.592 1.581.744 3.168 4.29 4.011 5.93q.843-3.246 1.722-6.483M438.743 364.697c.936-.55.595-.523 1.548-.481 1.34 1.5 3.734 8.195 1.857 9.863-1.426-.074-4.827-3.993-5.996-5.191.335 1.162 1.763 5.511 1.515 6.354-1.12.38-.846.487-1.68.134-1.007-2.095-2.492-6.698-2.271-9.02l.362-.559c1.509-.269 1.763.155 2.806 1.214-.224-.604-.544-1.16-.364-1.734.944-.12 1.079-.161 1.99-.493z"/><path fill="#f0f3ee" d="M436.884 367.01c-.224-.603-.544-1.16-.364-1.733.944-.12 1.079-.161 1.99-.493l.233-.087c.574 1.96 1.145 4.026 1.779 5.96-.655-.628-3.261-3.058-3.638-3.646"/><path fill="#003271" d="M336.413 382.176c.015 1.276.236 5.314-.242 6.202l-.765.293c-1.576-.714-1.852-9.343.146-10.306 1.088.257 1.363.607 1.898 1.611.792-.364 1.752-.526 2.67-.935.902-.577.43-.449 1.452-.46 1.016 1.434.902 8.524-.138 10.021-2.158.392-3.963-4.767-5.021-6.426"/><path fill="#f0f3ee" d="m340.12 379.04-.025 6.265c-.864-1.763-1.727-3.598-2.645-5.329.792-.364 1.752-.526 2.67-.935"/><path fill="#003271" d="M273.361 371.428c2.214.398 6.225.867 6.896 3.363-.894 4.184-2.858.729-1.572 7.768l-.434.305c-.966-.1-.914-.102-1.722-.664-.387-1.417-.397-3.784-1.943-4.047-1.261 1.345-.153 2.487-1.833 3.775l-.573-.191c-1.13-1.806.68-7.792 1.181-10.309"/><path fill="#f0f3ee" d="M275.136 373.709c1.096.194 1.368.173 2.29.738.492 1.082.346.72.13 2.09-.931.187-1.723.346-2.51-.12-.454-.912-.136-1.656.09-2.708"/><path fill="#003271" d="m318.95 377.756 1.606.068c1.707.867 3.031 4.959 3.888 6.845.048-1.42.252-5.057.613-6.37l.63-.194.535.323c.904 1.883.218 7.365.124 10-1.782-.032-2.378-.301-3.133-1.996-.753-1.691-1.37-3.093-2.287-4.713-.053 1.563.027 5.135-.789 6.244-1.118-.057-.842.131-1.456-.497-.253-2.017.169-7.34.27-9.71M222.2 361.574l.004-.353c.092-5.67 6.815-4.032 6.977-.873-1.312.99-3.13-.89-4.663-.768-.612 2.09 6.535 4.418 2.038 7.966-1.626 1.282-6.94-.616-5.96-3.402.547-.296.702-.41 1.31-.577-.127-.559.212-1.282.294-1.993"/><path fill="url(#b)" d="M621.503 1209.73c4.855 4.55 10.094 7.57 10.862 14.12l-1.36.95c-6.527-1.19-7.815-2.82-10.487-8.4-.422-1.87.71-4.29.985-6.67" transform="translate(36.44)scale(.29889)"/><path fill="#003271" d="M300.756 376.01c1.856.173 4.36.203 5.808 1.399 3.853 3.18.224 5.628-3.364 5.7l-.438-.14-.426.283c-.337 1.764-.542 2.128-1.882 3.315l-.586-.338c-.184-1.252.7-8.51.888-10.219"/><path fill="#f0f3ee" d="M302.73 378.084c1.072.099 1.793.033 2.607.69.48.877.317 1.193.158 2.248-1.047.081-1.81.27-2.714-.194-.448-1.1-.203-1.458-.052-2.744"/><path fill="#003271" d="M292.492 379.504c5.5 5.544-7.11 7.35-6.332 2.759l.752-.493c2.07.122 1.663 1.826 4.23 1.153l.149-.505c-.887-1.605-3.78-3.29-4.266-4.465-1.374-3.327 6.057-5.2 6.873-1.276l-.679.956z"/><path fill="#f0f3ee" d="M292.492 379.504c-1.403-.634-2.949-.992-2.807-2.705l.66-.305c1.2.012 1.82.526 2.874 1.139z"/><path fill="#003271" d="M349.418 382.83c2.447.61 3.446 2.613 1.73 4.654a4.16 4.16 0 0 1-3.028 1.48c-1.542.054-2.582-.741-3.598-1.773-.075-.81-.168-.448.272-1.12.893-.21 2.238.475 3.264.813.84-.147.902-.084 1.512-.703-.78-1.922-4.406-1.978-5.32-4.812.293-3.631 6.934-3.894 6.985-1.142l-.939.918c-.287.873-.284 1.022-.878 1.686"/><path fill="#f0f3ee" d="M349.418 382.83c-1.435-.412-1.752-.361-2.511-1.449l.137-.616.769-.391c1.183-.066 1.44.164 2.483.771-.287.873-.284 1.022-.878 1.686"/><path fill="#003271" d="M447.42 361.628c1.369 1 6.417 7.239 5.532 9.068-1.987.723-.956-.741-2.68-1.524-3.925.92-1.74 2.065-3.949 3.85l-.684-.246c-.389-2.6-.338-7.033-.284-9.791.012-.628 1.342-1.026 2.065-1.357M402.626 372.982c1.13.64 4.668 7.918 5.18 9.406-.655.697-.27.523-1.166.601-1.372-.753-1.244-1.605-2.218-2.107-3.987.391-2.358 2.699-4.62 3.168l-.395-.373c.035-2.314.828-7.156 1.165-9.634.643-.828.912-.699 2.054-1.06M375.023 376.99c1.034-.107 1.444-.23 2.418.048 1.082 1.841 3.243 7.11 3.892 9.212l-.311.397-1.187.051c-.932-.547-.84-.884-1.342-2.038-5.203.054-2.095 1.494-4.444 3.072-.873-.143-.47.03-1.178-.693.323-2.699 1.474-7.335 2.152-10.049"/><path fill="#f0f3ee" d="M376.264 379.468c.9 1.028 1.53 2.469 1.13 3.793-.966-.137-.793.027-1.438-.508-.356-1.052.05-2.143.308-3.285"/><path fill="#003271" d="M250.558 365.72c.815.197.809.197 1.541.61 1.042 2.53-2.26 5.759-.861 8.192 4.103 1.942 3.071-5.255 4.9-7.087.864.033.868.087 1.619.445l-.014.73c-.488 1.889-1.58 7.266-3.064 7.729-9.325 2.908-4.795-8.366-4.121-10.62M359.523 377.935c1.294.164 1.118-.054 1.985.64.457 2.394.729 6.527-.658 8.631-1.201 1.82-3.407 2.374-5.081.78-1.83-1.745-1.683-3.284-1.763-5.613-.084-1.36-.222-2.33.062-3.673.613-.535.248-.388 1.175-.329 1.958 1.755-.167 7.532 2.424 8.543 3.019-.79 1.886-6.122 1.856-8.98M310.28 377.125c1.715.039 6.355-.227 6.511 1.79-1.634 1.22-2.811-.35-4.311.544-.3.795-.25.798-.14 1.608 1.134.741 1.224.075 2.985.532.484.75.348.323.19 1.387-1.587 1.229-2.119-1.172-4.083 1.381 1.034 2.328 2.877.559 4.749 2.31l-.147.66c-1.043.524-5.122.058-6.597-.038q.38-5.09.844-10.174M364.242 377.759c.822-.006.855-.01 1.653.179 1.097 1.53.9 5.804 1.088 8.01 1.375-.054 2.227-.359 3.62-.063.768.622.523.404.678 1.734l-6.378.412c-.275-3.467-.541-6.8-.66-10.272M232.185 359.96c.935.233 1.016.236 1.82.738.263 1.004-2.432 8.061-2.91 9.409-1.104-.224-.885-.02-1.629-.678-.301-2.027 1.905-7.081 2.719-9.47M282.9 373.177c1.01.212 1.116.239 2.035.693.03 1.312-1.199 7.918-1.486 9.821-.856-.143-1.444-.125-2.03-.732.035-1.928 1.117-7.615 1.48-9.782M329.547 378.225c.838.087.99.128 1.809.358.394 1.25.091 8.444.05 10.079-.665-.066-1.24-.17-1.893-.287-.576-1.085-.044-8.575.034-10.15"/><path fill="#9f1d2f" d="M336.96 30.318c33.099-1.448 71.706 7.583 100.908 22.985-.401.976-.924 2.002-1.4 2.955-2.797 5.627-5.036 11.46-7.803 17.103-25.573-12.336-50.985-19.695-79.513-20.775-31.741-1.45-64.29 6.71-92.595 20.813-2.657-5.5-7.032-14.632-9.154-20.235 27.783-14.478 58.396-21.611 89.557-22.846"/><path fill="#fce4d7" d="m412.08 47.848 3.14 1.109-.208 8.892c1.88-2.032 3.95-4.56 5.78-6.684l2.875 1.391c-.78 2.006-3.26 9.452-4.402 10.623-.987-.248-1.235-.133-1.847-.736.09-1.43.98-3.19 1.569-4.564.337-.785.705-1.276.606-2.021-1.868 1.237-3.903 5.808-6.112 5.094-1.001-1.55-.44-6.657-.427-9.026-.837 2.233-1.405 5.754-2.935 7.287-1.013.293-.61.26-1.773-.223-.397-1.224 3.073-9.344 3.733-11.142M331.105 35.708c3.25-.195 11.48-.565 7.535 5.224.027 1.042.645 1.382 1.3 2.62.027 1.273-.099 1.471-.649 2.636-2.57 1.66-5.095 1.362-8.12 1.391-.008-2.027-.628-10.707-.066-11.87"/><path fill="#9f1d2f" d="m333.594 42.17.34-.011c1.34-.041 2.294-.168 3.283.76.338 1.208.248.798-.072 2.146-1.019.244-2.231.592-3.126.122-.62-.842-.44-1.898-.425-3.017M333.432 37.633c1.163-.024 2.237-.169 3.136.467.55.817.428 1.087.35 2.141-.971.291-2.181.605-3.074.136-.61-.808-.432-1.668-.412-2.744"/><path fill="#fce4d7" d="M316.263 37.178c4.387-.675 6.354 3.197 3.29 6.643 1.057 1.549 2.303 2.914 2.212 4.748l-.702.364c-1.99-.922-2.33-1.797-3.471-3.653l-.37-.42c-3.376-.518-.716 2.457-1.677 4.33-.876.406-.833.375-1.8.196-.969-.935-.935-4.086-1.19-5.594-.33-1.938-.56-4.056-.834-6.019z"/><path fill="#9f1d2f" d="M315.013 39.25c1.556-.07 2.311-.297 3.354 1.053.173 1.018.05 1.146-.343 2.153-.944.231-1.166.268-2.136.276-.984-.564-.685-.23-1.217-1.211 0-1.12-.04-1.248.342-2.271"/><path fill="#fce4d7" d="M386.57 40.374c.803.148 1.117.23 1.9.474 1.704 1.7 2.364 5.885 3.345 8.578.514-2.189.711-6.032 2.63-7.076 1.076.213.852-.004 1.366.678-.194 2.481-1.841 7.883-2.439 11.008-.918.097-1.073-.006-1.985-.282-1.536-1.413-2.42-6.108-3.452-8.653-.382 2.073-.69 6.41-2.663 7.224l-.858-.377c-.678-1.388 1.647-9.504 2.155-11.574M283.029 44.589c2.676.352 4.862 2.18 3.497 4.988-1.115 2.293-2.438 2.622-4.652 3.462a83 83 0 0 1 .407 1.408c.391 1.417.665 1.822.057 2.902-.756.075-.755.097-1.493-.045-1.34-1.434-3.214-8.596-3.898-10.854 2.351-.85 3.648-1.257 6.082-1.861"/><path fill="#9f1d2f" d="M282.692 46.668c3.273.993 1.622 3.154-.742 4.174l-.609-.079c-1.09-1.087-1.214-1.615-.838-3.104.751-.872.907-.68 2.189-.99"/><path fill="#fce4d7" d="m373.696 37.872 2.137.42c1.847 1.838-2.944 7.763.213 10.078 1.016.201 1.067.238 1.99-.143 2.493-2.484.386-7.246 3.007-8.996.918.039.876.01 1.656.48l-.006.992c-1.1 5.19-1.671 14.64-9.759 7.763-1.3-1.106.487-8.763.762-10.594M399.73 43.621c.409.119 1.494.393 1.676.703 1.288 2.19-1.698 6.176-1.683 8.554.006.887.374 1.046.807 1.459 1.035.336 1.11.402 2.146.22 2.31-1.915 2.075-7.894 3.916-8.72 1.016.188.962.168 1.742.856l-.09.752c-1.601 5.205-3.717 14.423-10.7 6.697-1.153-1.276 1.65-8.875 2.185-10.52M343.135 35.506c1.109-.023 1.354-.077 2.394.23 1.037 2.953-1.572 7.894 1.34 9.73 1.06.11 1.132.157 2.029-.334 2.062-2.72-.52-7.677 1.512-9.519.828-.05 1.01-.112 1.784.23l.144.846c-.015 1.973.32 7.867-1.3 9.532-2.538 2.608-7.643 1.499-7.95-2.64-.18-2.387-.019-5.435.047-8.075M305.566 38.599c1.103-.058 1.315-.08 2.39.104.846 1.47 1.946 9.035.98 10.44-1.298 1.892-4.959 2.754-6.863 1.233-1.66-1.327-1.94-4.553-2.349-6.503-.3-1.445-.763-2.467-.287-3.671.9-.339.989-.421 1.916-.341 1.381 1.612.462 9.2 3.903 9.501 3.25-1.513.729-7.407.31-10.763M268.177 49.57c.36.093.717.4 1.045.628.123.576.135.3-.01.833-.76.898-3.427 2.047-4.62 2.637-.14.689-.028.757.153 1.482 1.563 1.365 2.47-.528 4.9-.544.648.602.426.222.495 1.274-.621.666-3.026 1.557-4.007 1.97.366.956.541 1.821 1.344 2.365 1.256.232 3.035-.845 4.415-1.438l.465.193c.54.872.487.437.328 1.32-1.21 1.152-5.234 2.627-6.984 3.333-1.576-3.487-3.05-7.453-4.463-11.04q3.452-1.547 6.94-3.012M358.283 36.188c.203-.017.412-.033.618-.045 2.302-.133 5.303.796 5.458 3.463-1.967 1.37-4.095-2.955-5.82-.978-.241 3.125 6.271 3.363 5.53 7.482-.828 1.386-2.176 1.89-3.67 2.267-1.988-.024-4.962-.944-5.53-3.107.257-1.033.03-.78.739-1.293 1.38.225 2.038 1.707 4.08 2.34 1.168-.145.738.05 1.62-.74 0-2.845-10.785-5.179-3.025-9.389M289.741 41.987l1.182.19c1.128 1.161 2.32 7.419 2.772 9.335 1.38-.326 3.821-1.097 5.05-.765.304.765.31.708.245 1.523l-.79.29a125 125 0 0 0-6.375 1.723c-.872-3.392-1.885-6.798-2.592-10.232-.25-1.222-.081-1.24.508-2.064M324.37 36.184c.864-.03 1.282.001 2.147.083.808.92 1.166 9.923 1.291 11.803-.898.034-1.316.005-2.215-.08-.737-1.114-1.099-9.846-1.223-11.806"/><path fill="#f6efd2" d="M364.816 300.804c2.266-.314 9.036-.153 11.684-.153l23.965.027c-.033 5.108.666 15.25-1.229 19.503-2.382 5.344-17.018 8.808-22.488 10.607l-34.27 11.295c-6.017-2.307-14.23-4.767-20.523-6.865-9.391-3.174-18.914-6.121-28.285-9.343-5.067-1.746-6.603-3.106-8.756-7.742 22.017-1.004 44.567-.367 66.354-4.325 24.852-4.513 9.854-8.365 9.044-11.632l.44-.61c1.27-.693 2.588-.649 4.064-.762"/><path fill="#e9b12c" d="M458.631 265.246c.978.223 6.985 3.501 8.42 4.213 4.528 2.251 8.148 3.92 12.936 5.597.323 2.448.52 4.478.7 6.934-2.876 2.639-5.949 5.3-8.394 8.318-6.204 7.659-3.24 13.882-2.241 22.296-1.112 1.796-2.12 2.953-3.602 4.465-4.958 5.052-9.032 10.847-12.64 16.914-1.638 2.753-2.932 5.706-4.713 8.384l-.212.317c-1.023.374-2.329.702-3.396 1.001-2.265.706-3.341 2.412-4.686 4.23a327 327 0 0 1-8.922-3.22c4.866-6.742 11.178-7.008 13.47-11.013 2.475-4.753 12.07-18.307 11.532-23.317-.511-4.737-4.104-16.8-5.04-22.227-1.84-10.661 1.1-14.56 6.788-22.892M362.691 354.44a30.9 30.9 0 0 0-9.45 7.36c-1.02 1.16-2.212 2.679-2.995 4.015-1.686 2.881-1.181 3.691-4.89 3.234-.338-1.007.633-3.067 1.09-4.047 14.192-30.325 56.694-24.356 82.685-16.833 4.328 1.252 10.067 3.18 14.188 5.203-5.553 1.934-6.375 1.468-12.153.939a35.1 35.1 0 0 0-11.043.816 36.6 36.6 0 0 0-10.19 4.211c-5.78 3.539-6.004 4.211-12.681 5.177 3.051-4.956 4.585-7.05 8.951-11.208-5.47 1.62-10.855 3.801-15.174 7.633-1.973 1.749-6.193 7.075-9.269 5.625.475-3.703 5.294-10.745 7.58-13.89-8.19 3.31-13.408 7.497-17.682 15.304-1.291.122-1.656.37-2.702-.138-.747-1.685 1.25-5.251 1.832-7.158.093-1.222.224-1.494-.397-2.46-1.07-.25-1.72.203-2.828.655-1.252.965-2.472 2.271-3.476 3.49-1.608 1.95-2.591 4.478-4.352 6.292-.006.003-1.497.189-1.61.102.026.024-.691-.114-.643-.105-.326-.439-.592-.597-.392-1.279 1.294-4.405 3.47-8.987 5.601-12.939"/><path fill="#1a303e" d="M367.563 358.878c1.796-1.946 4.445-3.975 6.824-5.141a151 151 0 0 0-3.599 6.946c.093-1.222.224-1.494-.397-2.46-1.07-.25-1.72.203-2.828.655"/><path fill="#e9b12c" d="M287.527 342.352c9.878-1.297 25.933.843 34.799 5.512 9.04 4.758 14.679 11.597 17.88 21.266l-3.393-.003c-4.273-7.29-6.961-10.408-14.389-14.676 2.09 3.87 4.202 8.578 5.6 12.873.213.652-.276 1.14-.627 1.53-.682.13-1.869.156-2.255-.498-3.94-6.678-7.833-10.533-14.465-14.739 1.644 2.983 5.984 11.041 5.61 14.27-1.564 1.858-3.79-1.713-4.64-2.936-2.058-2.962-3.98-5.051-6.785-7.296-3.34-2.474-5.435-3.368-9.173-5.042a48.4 48.4 0 0 1 7.995 14.224l-3.814-.487c-8.406-8.028-9.66-9.215-21.126-13.262 3.767 3.372 6.773 7.012 9.198 11.463-6.31-.861-6.93-1.605-12.334-4.929a37.7 37.7 0 0 0-10.817-4.558c-7.745-1.88-11.222-.08-18.519-.44-.686-.032-3.685-1.028-4.537-1.308 13.446-5.889 31.234-9.813 45.792-10.964M229.409 270.2c.137.12.193.158.354.355 9.744 11.935.327 26.687-1.228 39.712-.113.947-.043 3.051.462 4.142 3.293 7.117 7.268 14.655 11.786 21.069 3.696 3.61 7.258 3.24 12.49 9.469-3.186 1.022-5.846 1.94-8.958 3.162-2.3-2.81-3.298-3.315-6.699-4.352-2.349-1.207-4.258-6.014-5.756-8.452a173 173 0 0 0-7.284-10.892c-2.63-3.64-7-7.06-9.239-10.814.323-5.425 2.539-11.65.504-17.005-2.018-5.312-7.397-9.348-11.297-13.4 3.036-1.504 7.036-2.821 10.233-4.3 5.383-2.491 9.785-5.3 14.632-8.694"/><path fill="#9f1d2f" d="M417.196 31.103q.219-.017.437-.029c7.789-.36 39.363 20.137 46.76 26.64-4.485 1.316-8.867 3.138-13.533 4.392.428 4.053 1.18 8.5 1.823 12.545l.332 2.442c-5.344-3.669-12.326-7.908-17.27-11.602 1.8-3.442 4.469-9.82 6.05-13.523-5.813-2.98-11.373-5.72-17.45-8.17-3.947-1.591-7.88-2.98-11.784-4.685 1.327-3.542 1.138-6.132 4.635-8.01M265.715 31.122c5.094-.325 5.541 4.255 6.675 8.129-10.062 4.073-19.352 7.151-28.988 12.807a1177 1177 0 0 0 6.166 13.437c-2.282 1.484-16.522 11.163-17.358 11.132.468-4.51 1.375-9.945 2.074-14.447a476 476 0 0 1-13.573-4.49c8.34-7.017 35.125-23.909 45.004-26.568"/><path fill="#e9b12c" d="M398.973 177.925c1.71-.186 5.075-.25 6.69.36 8.033 3.031 17.57 8.622 25.13 12.76-3.928 8.126-4.424 9.346-6.366 18.377-1.722-1.954-3.282-4.036-4.875-6.097-3.93-4.6-9.57-12.555-13.373-17.545-7.917 2.005-14.914 1.896-22.793.243 4.325-4.612 9.436-7.008 15.587-8.098M280.894 177.91q.868-.042 1.737-.071c7.849-.256 14.32 2.915 19.975 8.2-9.152 1.526-14.453 1.89-23.643-.195-1.938 2.215-5.22 6.896-7.149 9.426a952 952 0 0 1-8.386 10.936c-1.157-7.338-1.788-10.769-4.006-17.832 3.548-2.174 17.738-9.688 21.472-10.465"/><path fill="#f6efd2" d="M368.636 202.112c11.05-.87 13.65 11.105 8.357 18.915-1.058 1.558-2.911 2.273-4.663 2.85-13.228 1.599-14.866-18.334-3.694-21.765"/><path fill="#003271" d="M368.89 206.256q.494-.055.992-.078c5.844-.253 5.533 10.157 2.317 13.49-6.809 2.107-7.191-9.85-3.309-13.412"/><path fill="#f6efd2" d="M342.367 202.307c4.319-.075 10.46-.78 14.06 2.117 3.087 2.486 1.324 6.013-.936 8.39 3.195 2.006 3.231 4.652 2.328 7.89-3.416 4.15-10.434 2.994-15.44 2.938a861 861 0 0 1-.012-21.335"/><path fill="#003271" d="M347.406 214.592c3.44-.023 7.427-.429 5.419 4.481-1.686.897-3.569.68-5.467.649-.015-1.685.03-3.44.048-5.13M347.385 206.283c3.165-.027 7.302.11 4.758 4.476-1.697.564-3.015.454-4.764.378z"/><path fill="#f6efd2" d="M383.108 202.315c6.295-.118 16.798-1.69 16.03 7.836-.168 2.09-1.961 3.645-3.482 4.826q2.165 4.276 4.196 8.616l-4.522.07c-2.64-.01-2.197-5.38-4.94-7.525-.948-.312-.9-.283-1.869.027-.47.647-.299 6.27-.302 7.53l-5.099.002z"/><path fill="#003271" d="M388.252 206.303c3.796-.065 7.625.585 4.896 5.354-1.949.583-2.875.51-4.929.519q-.006-2.937.033-5.873"/><path fill="#f6efd2" d="m315.344 202.307 5.042-.015.009 3.791c-.013 4.115.91 12.315-1.782 15.403-3.852 4.417-14.007 3.008-14.513-3.877-.37-5.04-.156-10.196-.11-15.298l5.05.005c-.007 2.774-.713 15.714 1.302 17.035 7.107 4.659 5.024-12.977 5.002-17.044M324.615 202.306c4.484-.118 9.636-.002 14.162.004l.036 4.029-9.144-.032.012 4.471 7.808.027-.03 3.872c-2.201-.023-5.306-.146-7.425.089l-.338.457-.025 4.465 9.148.016.06 3.936-14.28.04zM284.222 202.288l16.643.013-.02 4.1-5.862-.028.014 10.674.04 6.644-5.08-.02.034-17.242-5.772-.01z"/><path fill="#d3b063" d="M367.046 157.601c4.172-1.018 9.594-2.506 13.737-3.22.08.755.182 1.383.116 2.143l-.442.082c-1.695 2.622-2.89 2.067-5.816 1.87l-.06.941c1.204.3 9.738.158 11.97.76l2.326.084-.496.537.851.3.087.73c-1.037.46-.66-.557-1.064.324.619.09 1.258.16 1.862.305q-10.612.114-21.227.085l.162-2.295-1.483-.221c-.069-1.09-.191-1.365-.523-2.425"/><path fill="#d3b063" d="M367.046 157.601c4.172-1.018 9.594-2.506 13.737-3.22.08.755.182 1.383.116 2.143l-.442.082c-3.013.729-10.303 2.337-12.888 3.42-.069-1.09-.191-1.365-.523-2.425"/><path fill="#2c3025" d="M367.569 160.026c2.585-1.083 9.875-2.691 12.888-3.42-1.695 2.622-2.89 2.067-5.816 1.87l-.06.941c1.204.3 9.738.158 11.97.76-5.523.229-11.877.034-17.5.07z"/><path fill="#e9b12c" d="M380.783 154.382c1.163-.432 1.19-.21 1.64-1.028-.238-.72-.445-1.258-.734-1.96 2.935.17 6.692.577 9.579 1.17-1.243.964-6.6 5.427-7.741 5.305-.332-.7-.266-.788-.233-1.55-.873-.342-1.408-.06-2.395.205.066-.76-.035-1.388-.116-2.142M381.13 166.327c.83.194 1.55.479 2.319.16-.08-.759-.102-.95.185-1.696l.37-.196c2.153 1.595 5.542 3.96 7.47 5.65-1.862.3-7.825 1.311-9.37 1.123.102-1.428.789-.77.73-2.156-.584-.37-.536-.359-1.223-.437zM388.877 160.261l.777-.284c.248-.745.11-.949-.117-1.698l.305-.28c2.355.56 6.34 2.206 8.674 3.192-1.949.902-6.6 3.4-8.494 3.132-.404-.745-.183-.748.095-1.866-.604-.146-1.243-.216-1.862-.305.404-.88.027.136 1.064-.324l-.087-.73-.851-.3z"/><path fill="#d3b063" d="M368.881 163.024c4.074 1.275 8.109 2.274 12.249 3.303l.48 2.448q-6.608-1.565-13.162-3.366z"/>
    </g>
  </g>
</svg>