<svg xmlns="http://www.w3.org/2000/svg" width="512" height="512" viewBox="0 0 512 512">
  <defs><clipPath id="r"><rect width="512" height="512"/></clipPath></defs>
  <g clip-path="url(#r)">
    <g transform="scale(0.71) translate(-72.0,-32.0)">
<path fill="#0033A2" d="M0 0h2048v1366H0z"/><path fill="#00833D" d="M155.017 478.928c22.139 4.697 29.983 22.623 42.221 28.419l3.285.061c2.959 1.077 1.834 2.382 4.811 3.043.202-3.083-4.434-11.629-6.209-14.369-3.469-1.12-3.129-.526-7.047.702 11.095-8.078 7.143-.006 18.984-.838-3.626 4.429.283 8.568 3.507 12.66.99-6.905 1.438-18.408 6.865-22.741l1.707.071c3.275 6.509-.359 22.026 2.069 25.81l3.184.154c5.528 4.66 13.355 2.352 14.214 8.408.044.311.354 10.146.395 9.831l.755 2.127 1.775.425c1.505-1.084 1.309-.666 2.238-2.12 1.392-3.958.889-4.399 3.81-7.035 7.161 2.321 4.452 23.741 3.283 29.956.502 4.209-.042 5.954 2.291 8.776l.874-.475a69 69 0 0 0 2.021-.201c6.626-.766 2.752-2.281 5.6-5.891q4.112 1.127 8.251 2.145c3.596.848 5.127 1.416 7.856-.298-.077-3.962-2.575-5.727-5.854-6.737l-3.305-.859c-2.118-3.652-4.463-6.649-9.509-7.277-3.755-.468 2.394-7.588 1.519-9.483-1.568-3.395-2.837-5.725-3.66-9.19 3.85-.685 5.143-.846 8.603 1.783l3.783 4.373c.913-1.204 1.739-2.188 2.721-3.336.115-3.563.136-4.428 1.108-7.836 3.97-2.72 4.154-3.416 5.69-7.863 3.399-4.761 7.784-7.665 12.66-10.84-6.653 14.871-10.914 22.622-10.704 39.142 1.961-6.598 4.843-22.307 11.761-23.934.917 6.218-.41 9.399 5.031 13.187 3.106 4.057 4.804 9.294 6.654 14.103 2.176-2.879 3.67-5.652 6.919-6.775 4.765 3.158 3.338 9.849 7.129 10.462.535-.273 2.104-1.206 2.562-1.173 2.881 3.275.852 5.187.852 9.116.388 2.534.681 6.382 1.997 8.392 3.569-10.018 5.837-7.221 14.213-12.505-.404 4.094-1.297 7.816.38 11.376l1.67.321a161 161 0 0 0 6.58-5.949l1.389.299c1.642 5.178.517 9.523-1.949 14.218a101 101 0 0 1-4.86 8.275l2.137 1.869c2.542-.854 1.442-.975 3.696-.531l.355.536 11.147 10.638c.505-2.84.701-6.394 2.625-8.303 10.904 5.834 9.794 33.765 21.089 46.348l.814-.619c-.623-5.754-2.54-15.227-1.602-20.189l1.134-1.221c15.335 7.571 14.492 32.427 25.689 41.872 5.084 4.288 16.093 7.702 22.557 9.831 9.498-2.455 25.819-5.783 29.861-15.09 4.451-10.249 7.843-29.091 19.206-35.504l1.581.395c2.275 6.287-2.015 17.016-.15 20.905 12.05-10.134 8.98-39.561 21.312-45.829 1.4 1.762 1.372 3.546 1.699 5.826l1.337.698 10.931-8.951c.396 3.755.741 7.911 1.317 11.609 6.597-4.085 5.88-1.036 7.835-9.182-4.618-6.703-11.45-16.642-10.402-25.361l1.738-1.076c3.799 1.23 6.319 5.253 9.028 8.549-.023-4.616-1.514-11.765 3.377-12.84 3.323 1.624 5.654 1.747 8.399 3.066 3.933-1.775-.252-5.638 3.095-11.51 2.546 1.237 2.81 1.463 5.566 1.809 3.043-2.793 3.343-7.107 4.873-11.911 2.4 2.434 5.405 6.195 7.692 8.906 2.254-5.178 4.008-8.655 6.744-13.607l.395-.831c1.857-.57 1.743-.491 3.127-1.851.168-5.024-.009-6.222 2.694-10.52 5.2 2.285 5.941 10.902 9.691 18.21l.812-.236c-.524-13.554-5.282-22.215-10.965-34.102 5.892 4.034 11.332 7.311 14.681 13.707-.018-.059 6.611 15.922 6.555 15.825l.638-.146.345 2.187c-3.379 7.777-4.729 12.039-3.118 20.651l-2.363.523c-2.065 2.895-2.427 3.18-3.357 6.523 5.126 3.444 13.521-4.48 17.712-2.869a116 116 0 0 1-.503 5.416c1.584.467 2.214.648 3.872.864l1.27.159.451 1.97c-.985 2.394-2.023 4.127-1.763 6.653 2.647 2.024 1.214 1.447 4.409 1.924 9.384-9.745-5.899-37.034 3.973-49.286l1.688.081c2.976 2.647 3.291 5.266 4.327 9.068 1.631.497 2.852.953 4.568 1.098.483-1.795-.713-12.964.914-16.554 1.724-1.155 12.853-3.778 16.325-4.861 4.987-2.033-2.431-19.281 2.147-26.044l2.071-.382 2.03 1.548c3.672 6.912 3.387 16.65 3.489 24.463 3.207-4.925 9.344-11.383 4.905-16.125 8.226.827 6.847-1.946 13.205-3.131l.764 1.741c-3.65 2.388-6.987 10.934-8.112 15.202l.597 1.529c1.664-.868 1.595-.753 2.53-2.37l4.511-1.459c11.531-2.67 17.211-21.521 42.391-28.018-6.828 11.197-26.786 27.709-28.993 33.554a4.6 4.6 0 0 1-.208.688c2.514 2.14 4.886 2.073 8.244 2.562 2.27 3.431 2.296 2.316 1.958 5.57-3.018 1.565-4.849 1.538-8.36.418a38 38 0 0 1-1.626-.56l-2.038.018c.799 4.266 3.338 6.661 2.691 9.74l-1.35 1.224c-5.025-1.347-3.691-5.018-7.037-3.764l-1.978 3.93c-2.724.777-1.597.741-4.587-.484-3.849-6.369-4.839-9.678-13.037-5.534 2.392 3.476 3.056 3.105 2.578 6.502-4.573 2.987-16.743 9.18-18.688 12.19l1.885.732c4.593-1.441 30.974-7.579 34.226-4.093-3.607 4.838-19.615 8.703-27.202 12.475l-1.097.553c5.535-.401 15.536-1.91 19.698.637-1.141 7.03-31.46 10.868-37.26 14.213-7.352 4.24-19.867 14.732-24.701 21.41 29.455-9.139 25.74-22.465 58.32-21.132-2.993 2.222-10.538 6.615-11.239 9.051l2.626 1.771.089 1.399-5.678 4.979c-.299 4.08 3.986 1.497 6.241 6.49-13.714 11.271-48.863-7.19-72.863 16.008 9.519.252 19.407.859 28.871-.09 6.238-.626 20.022-8.087 25.28-4.655l-1.764 4.236c2.195 4.121 9.583-.587 9.775 5.779-1.618 1.261-2.423 1.599-2.912 3.573 3.38 3.558 12.159 2.547 14.587 6.508-.541.59-1.321 1.467-2.078 1.787-28.007 11.837-52.575-7.952-79.841-10.27-4.575-.389-8.669-.148-12.592 2.374.994 1.837 13.894 3.873 17.05 4.613 9.315 2.185 48.531 16.827 48.706 26.396l-3.368 1.864-.22 1.118c3.696 3.803 6.559 6.307 10.621 9.742l-.39 1.288c-3.895 1.159-8.882.475-13.031.193l6.751 13.575c-19.774-7.033-26.783-21.346-40.221-36.23-9.489-10.509-50.425-19.373-59.153-9.57 7.857 4.971 48.079 4.77 54.854 16.932-.777 1.422-1.047 1.969-2.091 3.227l-.724.861c3.437 3.113 12.41 9.824 11.094 14.433-5.911.655-16.071-3.009-21.599-5.218 2.56 3.404 6.036 6.665 4.819 10.946-9.741 2.541-29.324-22.195-40.193-26.513-7.818-3.107-11.63-3.213-19.796-4.261 7.53 5.278 22.097 16.597 24.255 25.877-.733 3.117.094 1.942-2.456 3.713-11.225.673-26.073-20.458-35.292-23.839-11.959-4.386-43.711 9.811-55.86 14.627 15.89 6.455 40.441 16.456 50.888 30.594 3.413 4.62 16.15 32.582 13.982 37.955-3.626-2.523-11.078-13.399-15.195-17.893-19.323-21.098-38.021-35.626-64.379-46.424-37.66 16.116-54.413 33.24-79.886 64.301l-.558-1.131c5.508-40.855 31.378-54.825 66.266-67.529-10.466-4.336-23.66-9.159-33.629-12.749-30.434-10.96-27.627 6.671-50.715 18.991-2.567 1.369-4.914 2.143-7.746 1.184-1.847-3.108-1.332-1.89-1.298-5.871 8.028-10.903 13.172-14.676 23.643-22.89-29.217 4.7-26.705 9.623-49.077 26.71-2.688 2.053-9.341 6.05-12.953 5.443-.666-4.256 5.27-9.918 7.917-12.954-8.08 3.294-17.083 5.085-25.615 7.086 2.766-5.002 13.205-16.115 13.572-17.413l-3.097-1.524-.154-1.447c8.403-9.192 44.957-13.698 58.491-15.953-10.661-4.307-18.802-4.879-30.262-3.911-43.689 3.692-35.919 35.179-73.556 49.241 2.72-4.116 6.527-8.658 6.336-13.272l-2.148-1.033-.878.099c-3.181.335-7.679.983-10.213-1.086.806-2.032 8.699-6.472 11.721-8.964.989-4.728-1.009-.648-2.665-6.504 5.73-9.639 39.178-22.196 50.816-24.245 4.264-.751 8.262-1.847 12.483-3.142l.422-.861c-12.972-10.514-64.989 18.991-82.307 9.784-2.592-1.378-8.782-1.164-10.392-3.891 2.604-3.167 10.289-3.949 13.524-7.929-.875-1.734-1.415-2.412-2.531-3.975 1.845-2.396 5.075-2.04 9.185-3.279l.746-1.609-2.202-4c2.039-2.049 6.225-.596 8.813.31 17.969 6.286 27.899 5.822 46.227 4.62-28.973-22.33-56.125-4.957-73.348-16.198.825-2.418 3.66-2.976 6.742-4.934-.85-3.9-4.129-2.045-5.301-7.357l2.074-2.61c-.267-1.57-9.227-7.447-11.554-9.241 29.627-.122 31.775 12.387 60.56 23.312-8.007-9.255-17.507-17.013-27.932-23.408-8.469-5.195-31.969-4.195-35.627-14.022 4.408-2.94 16.74.205 22.625 1.174-13.214-7.805-20.31-5.911-33.201-15.661 10.33.02 24.816 1.574 34.768 4.367l.603.175-.345-3.208-4.759-1.366c-5.178-7.91-5.035-3.741-11.316-7.098-.068-2.973 1.536-4.34 3.445-6.8-3.262-1.593-6.589-2.144-10.002-.66l-.533 1.737c-2.292 4.047-2.945 5.587-7.652 6.059l-1.616-3.808-1.974-.539-4.344 2.724-1.849-.958c-1.323-3.657 1.271-4.337 3.191-9.718-2.344-1.077-5.54.709-9.555 1.413-3.229-1.1-2.175-.249-4.02-2.988 3.076-4.589 7.228-2.672 10.065-7.417-.767-6.169-14.932-15.577-19.661-21.283-3.775-4.555-5.212-6.486-8.462-11.689"/><path fill="#013497" d="M259.286 573.541c12.499 3.26 17.163 11.995 33.306 10.341 6.09-.624 22.41 24.363 27.38 31.359-13.895-5.379-55.388-29.302-61.864-41.086z"/><path fill="#013497" d="M541.847 556.284c3.933-1.775-.252-5.638 3.095-11.51 2.325 25.778 18.802 40.619-2.328 67.733-5.549 7.122-12.853 11.473-21.063 15.055 13.45-16.917 26.998-31.843 24.208-55.157-.585-4.895-4.226-13.248-3.912-16.121"/><path fill="#013497" d="M327.714 562.803c-5.429 21.343-.708 35.486 13.334 52.877 1.893 2.344 6.25 6.084 6.673 8.587l-1.745.61c-8.196-2.662-17.111-11.949-21.395-19.224-13.039-22.141-3.464-31.666.884-50.146l.252-1.096c.388 2.534.681 6.382 1.997 8.392"/><path fill="#FEA400" d="M646.195 513.574c7.878 11.885-2.256 20.75-11.138 27.737-3.561-.24-4.271-.059-7.255-1.763l-.494-1.934 1.648-2.625c.483-1.795-.713-12.964.914-16.554 1.724-1.155 12.853-3.778 16.325-4.861"/><path fill="#FEA400" d="M228.394 511.9c5.528 4.66 13.355 2.352 14.214 8.408.044.311.354 10.146.395 9.831l-1.399 2.434c2.207 3.08 3.237 3.126 1.599 6.988-13.678-.553-29.88-20.165-14.809-27.661"/><path fill="#013497" d="M529.707 583.946c11.804 25.666-28.997 59.623-38.171 51.028 2.976-6.233 37.399-23.461 36.352-39.866l-1.004-1.908a106 106 0 0 0-3.874 1.633l-1.138-1.705c6.597-4.085 5.88-1.036 7.835-9.182"/><path fill="#013497" d="M348.139 606.898c10.519 12.337 23.921 18.909 35.124 30.709-18.852-4.816-30.049-10.961-39.019-29.278z"/><path fill="#FEA400" d="M260.948 524.002c3.85-.685 5.143-.846 8.603 1.783l3.783 4.373c3.012 6.038 6.383 14.228 2.569 20.653l-3.305-.859c-2.118-3.652-4.463-6.649-9.509-7.277-3.755-.468 2.394-7.588 1.519-9.483-1.568-3.395-2.837-5.725-3.66-9.19"/><path fill="#013497" d="M296.57 515.491c.917 6.218-.41 9.399 5.031 13.187-8.598 10.716 3.489 35.143 4.879 45.515l-1.115.327c-17.332-13.031-9.176-39.954-8.795-59.029"/><path fill="#013497" d="m569.817 529.971.395-.831c1.857-.57 1.743-.491 3.127-1.851.168-5.024-.009-6.222 2.694-10.52-6.123 22.961 11.539 29.044-7.894 57.278l-1.801.271.9.725-1.086-.13c.819-14.537 9.809-24.855 5.36-43.271z"/><path fill="#013497" d="m243.003 530.139.755 2.127 1.775.425c1.505-1.084 1.309-.666 2.238-2.12.015 11.457 1.355 27.942-.019 38.307-3.584-10.743-4.825-18.204-10.651-27.959 1.628-1.248 3.938-1.15 6.102-1.358 1.638-3.862.608-3.908-1.599-6.988z"/><path fill="#013497" d="M624.388 533.891c1.631.497 2.852.953 4.568 1.098l-1.648 2.625.494 1.934c2.984 1.704 3.694 1.523 7.255 1.763-.527 1.841-9.3 21.117-10.185 22.003l-1.114-.712c-1.372-5.865.441-21.397.63-28.711"/><path fill="#FEA400" d="m644.292 546.582-1.984-1.28.245-1.854c3.688-4.928 11.662-14.504 17.849-15.558 2.392 3.476 3.056 3.105 2.578 6.502-4.573 2.987-16.743 9.18-18.688 12.19"/><path fill="#FEA400" d="M211.429 526.055c5.437 1.274 15.52 11.462 17.58 16.575l-.743 1.071c-3.718-.947-1.935-1.311-4.207-2.382l-4.759-1.366c-5.178-7.91-5.035-3.741-11.316-7.098-.068-2.973 1.536-4.34 3.445-6.8"/><path fill="#013497" d="M340.107 587.852c1.448-3.37 2.422-6.545 5.03-9.014l2.137 1.869c2.542-.854 1.442-.975 3.696-.531l.355.536c-.498 3.722-.392 11.126-2.148 13.581-2.466.031-3.089-.774-5.076-2.265l-.252-.603c-2.32-1.351-2.238-1.476-3.742-3.573"/><path fill="#013497" d="M344.244 608.329c-4.727-7.006-6.473-12.186-4.137-20.477 1.504 2.097 1.422 2.222 3.742 3.573l.252.603c.258 5.937 1.191 9.514 4.038 14.87z"/><path fill="#013497" d="M258.108 574.155c-6.63-7.084-4.767-11.79-3.244-20.663.502 4.209-.042 5.954 2.291 8.776l.874-.475c2.307 3.965 3.322 4.266 3.368 8.389l-2.111 3.359z"/><path fill="#FEA400" d="M687.522 514.77a4.595 4.595 0 1 1-8.562-3.342 4.595 4.595 0 0 1 8.562 3.342"/><path fill="#FEA400" d="m669.821 510.005 4.511-1.459c2.478 3.075 3.138 3.425 3.392 7.145-1.451 2.98-.338 1.949-3.513 3.124-4.824-2.262-4.291-3.632-4.39-8.81"/><path fill="#FEA400" d="m197.238 507.347 3.285.061 1.37 2.636c-.084 4.193.472 2.783-1.667 5.782-3.557 1.177-2.11 1.198-5.484.104l-.936-2.204c.381-3.245 1.204-3.738 3.432-6.379"/><path fill="#FEA400" d="M687.738 522.76c-.182-1.26-.19-2.471-.243-3.745 2.842-2.229 3.991-1.503 8.271-1.683 2.27 3.431 2.296 2.316 1.958 5.57-3.018 1.565-4.849 1.538-8.36.418a38 38 0 0 1-1.626-.56"/><path fill="#FEA400" d="M193.242 533.191c-.544-4.562-1.212-7.56 3.052-10.005 3.378 1.509 2.219.791 4.6 3.946-2.292 4.047-2.945 5.587-7.652 6.059"/><path fill="#013497" d="m611.961 574.986.85 1.454c-10.268 12.665-42.89 32.174-58.26 38.562l-.842-.876c1.503-3.599 14.756-21.036 18.528-26.78 7.961-2.967 12.246-2.392 20.712-3.607 7.987-1.146 9.794-6.121 19.012-8.753"/><path fill="#FEA400" d="M186.606 507.272a4.525 4.525 0 1 1 3.873 8.18 4.525 4.525 0 0 1-3.873-8.18"/><path fill="#FEA400" d="M232.031 238.962c5.292-9.875 14.415-19.008 21.976-27.141 101.339-109.013 288.151-101.317 379.71 16.097 2.546 3.265 6.066 7.788 7.984 11.388l1.787.558c22.358-29.871 16.73-47.375 62.754-49.531.236-6.122 1.79-13.393 6.546-17.647 5.184-4.638 17.177-7.031 23.893-5.471-1.416 2.919-12.953 6.379-13.683 8.768-3.829 12.518-11.277 19.134-19.144 29.197-18.678 4.922-26.792 7.588-40.971 21.424 6.412 11.386 15.861 19.388 23.783 29.688 21.95 28.537-4.412 29.779-25.936 35.338l-.517 1.862c-13.228 3.138-19.356 7.166-27.377 17.877l-1.645-.713c-8.659 7.563-17.508 4.983-25.257-2.161-7.684-7.083-11.332-17.399-16.943-25.979-11.632-17.787-26.195-33.961-43.393-46.526-39.773-29.299-91.286-38.893-139.593-31.55a176.58 176.58 0 0 0-115.069 67.495c-10.457 13.756-26.6 56.304-49.419 36.419-23.167 30.086-42.936 29.27-74.396 39.731-4.517 11.412-11.483 34.296-26.723 35.928l-.679-1.461c.742-2.73 2.445-4.053 4.789-5.87 7.354-5.699 8.043-20.411 8.631-29.502 7.897-12.875 24.348-18.176 36.638-28.954 13.257-11.625 14.559-14.28 24.271-28.128-7.941-2.389-15.763-3.962-23.84-6.561 20.333-8.482 30.023-26.243 41.823-44.575"/><path fill="#BE7807" d="m641.701 239.306 1.787.558c8.334 11.686 20.746 35.446 32.856 40.108 2.275.876.929-.051 2.581 2.742l-.152.465c-9.118 1.736-33.632-36.017-37.072-43.873"/><path fill="#BE7807" d="M631.191 310.656c7.083-10.444 17.038-17.007 29.539-19.026l-.517 1.862c-13.228 3.138-19.356 7.166-27.377 17.877z"/><path fill="#0F0E0C" d="M521 169.033c25.921-3.43 30.742 26.7 8.28 37.253-23.919 2.67-29.122-24.354-8.28-37.253"/><path fill="#FEA400" d="M523.926 174.872c17.009.835 15.729 16.517 3.684 24.909-18.073.48-14.492-15.771-3.684-24.909"/><path fill="#0F0E0C" d="M279.363 212.997c11.171-1.327 8.11 2.682 14.056 9.374 22.843 7.39 4 22.249-5.478 31.091a630 630 0 0 1-24.944-25.649c3.759-4.649 11.674-11.305 16.366-14.816"/><path fill="#FEA400" d="M291.612 228.582c3.827 1.568 4.925 2.277 5.233 6.318-1.613 3.964-4.8 6.213-8.05 9.05-3.099-3.119-3.973-3.02-4.96-6.918 1.106-3.523 4.773-5.903 7.777-8.45"/><path fill="#FEA400" d="M280.079 219.497c3.775.451 2.622-.162 5.525 1.903l.292 2.114c-1.354 3.927-4.061 6.062-7.033 8.927-2.789-1.172-3.921-2.482-5.146-4.827.841-3.513 3.628-5.495 6.362-8.117"/><path fill="#0F0E0C" d="M481.753 153.956c10.577 2.558 26.62 3.531 24.155 17.765a47 47 0 0 0-1.458 1.633c-6.604 7.883 4.61 7.858-6.085 19.529-9.535 1.3-16.392-1.332-25.705-3.753z"/><path fill="#FEA400" d="M483.824 175.722c4.231.961 8.476 1.428 11.738 4.057 1.454 3.772.956 2.863-.03 7.392-4.049-.063-9.524-.049-12.421-2.755-1.211-4.144-.499-3.932.713-8.694"/><path fill="#FEA400" d="M487.329 161.787c3.87.857 7.971 1.263 10.83 3.742 1.357 3.498.894 2.529.125 6.811-4.218-.408-8.141-.246-11.404-2.653-1.359-3.734-.65-3.583.449-7.9"/><path fill="#0F0E0C" d="M556.663 183.369c10.311 3.388 32.119 18.944 13.006 28.145l.353-.024c-2.494 5.072-5.758 13.393-10.052 16.264-3.318-.679-2.161-.263-4.833-3.322l.459-2.965 5.906-8.825c-3.191-2.451-7.031-5.031-10.36-7.379-2.391 3.629-4.999 8.286-8.44 10.68l-2.373-.572-1.184-2.048c.476-7.258 12.714-22.827 17.518-29.954"/><path fill="#FEA400" d="M559.581 192.389c3.892 2.218 8.392 4.212 10.119 8.172-.383 4.084-.419 3.031-3.323 6.704-3.581-1.579-8.487-3.744-10.271-7.087.107-4.319.595-3.645 3.475-7.789"/><path fill="#0F0E0C" d="M589.907 206.689c1.994 1.153 2.704 2.08 4.268 3.715 1.845 5.923-2.977 21.079-4.576 28.554 5.204-4.883 10.81-13.524 16.906-15.637 2.977.706 1.896.128 4.039 2.978-.963 4.537-18.904 21.671-23.247 26.08-1.734-.514-2.817-1.735-4.201-2.954-2.195-5.787 3.351-22.767 5.095-29.684-5.109 5.481-12.426 15.683-18.939 16.234l-2.338-2.069-.066-1.668c4.814-7.119 16.707-18.822 23.059-25.549"/><path fill="#0F0E0C" d="M306.08 190.989c4.601 2.805 26.229 18.041 28.968 22.317l-.737 1.482c-9.324 2.388-7.691-2.64-16.691 3.341l-2.628 2.403c-.181 4.867-.452 6.84-3.268 10.775l-1.489.179c-2.716-3.825-9.207-29.225-10.937-35.43z"/><path fill="#FEA400" d="M308.573 201.891c3.236 1.329 7.902 4.277 9.879 7.264l-.875 1.791c-3.261 2.031-2.312 2.149-5.356 1.811-2.599-2.721-2.869-6.944-3.648-10.866"/><path fill="#0F0E0C" d="M423.133 150.151c6.693-.213 21.803-2.199 26.029 2.785l-.502 2.127c-7.056 2.85-17.141-2.043-18.264 5.17 3.542 6.364 9.631 2.6 17.723 5.569l.571 1.715c-2.605 4.869-12.374 3.326-17.868 3.41-.073 3.489.001 4.606.574 8.047 4.151 3.096 13.467-.913 19.007 1.827l.511 1.95-1.427 2.029c-3.636 2.324-20.509 1.457-25.999 1.418a882 882 0 0 1-.355-36.047"/><path fill="#0F0E0C" d="M375.193 157.983c3.051.269 2.265-.263 3.974 1.524l-.291 1.956c-2.566 3.382-4.977 3.814-8.927 5.193 2.393 8.66 8.036 18.69 7.668 27.08-1.801 3.018-.546 2.035-3.858 3.09-2.896-1.883-2.619-3.131-4.071-6.876l-7.004-20.734c-3.419 1.287-5.989 2.666-9.538 2.258-2.208-2.329-1.548-.963-1.845-4.33 3.936-3.06 18.405-7.344 23.892-9.161"/><path fill="#0F0E0C" d="M342.765 169.92c1.592.08 2.239.624 3.755 1.352l.186 2.042c-2.247 3.326-4.724 4.215-8.296 6.12 3.475 8.126 11.158 18.112 11.097 26.151-1.652 2.906-.484 1.913-3.629 3.073-2.832-1.533-3.552-4.052-5.042-7.079-2.419-5.399-6.578-13.004-9.361-18.442-3.524 1.682-6.288 3.519-10.046 3.217l-1.09-1.635.508-2.174c4.156-4.849 15.753-9.664 21.918-12.625"/><path fill="#0F0E0C" d="m389.379 153.337 3.216.564c4.118 3.957 5.91 22.746 6.974 29.501 4.845-1.065 14.874-4.487 17.753-.044l-.794 2.871-2.75.912-20.405 3.713c-1.751-8.986-5.154-24.765-5.743-34.55z"/><path fill="#BE7807" d="M226.351 295.599c4.858.764 11.418 5.329 13.224 9.94-2.547.341-9.003-6.842-13.224-9.94"/><path fill="#FEFEFE" d="M436.263 239.682c2.889 3.37 22.436 65.963 25.546 75.546q40.74.132 81.476.726c-18.977 15.165-44.848 32.659-64.99 47.499l24.816 77.472c-21.736-14.404-45.668-32.24-67.13-47.595-21.36 15.811-44.007 31.866-65.726 47.226 8.048-25.366 16.891-51.298 25.393-76.51-21.379-16.417-44.629-32.115-65.588-48.902 26.623-.566 54.366-.178 81.071-.176 8.877-24.549 16.041-50.411 25.132-75.286"/><path fill="#00833D" d="M234.572 419.411c4.39.701 6.824 3.073 10.798.415a91 91 0 0 1-1.233-5.178c4.783-6.006 3.855 1.353 11.325-.789 6.504 1.771 6.977 5.788 9.266 12.296-.872 3.141-.016 1.951-2.456 3.826l-4.381-.233-1.827 1.88.827 1.041c1.08 1.371 1.601 2.22 2.504 3.702l-.531 2.006c-.801.45-2.196 1.304-2.993 1.599l-2.227 1.751c-.596 3.299-.804 3.573.469 6.51 4.335-.047 15.576-22.869 24.079-19.436 2.145 4.473-1.521 1.348-1.223 7.362l.955 2.462c-1.19.876-2.099 1.405-2.668 2.81l.583 4.514c.794 9.665-8.498 26.258-13.507 34.85l2.864 1.116c10.966 1.404 3.975-4.887 10.565-8.762 3.318.9 2.247.164 4.551 2.541.449 3.145.34 3.565-.068 6.764 2.704.186 4.017.32 6.671.839l1.075 1.459c-1.584 4.166-2.503 4.004-7.022 4.904 2.245 4.229 4.507 4.493 5.025 8.377-1.745 1.845-3.201 1.958-5.843 1.856l-2.515-.221c-1.826 3.992-2.795 11.849 1.587 14.51 1.858-1.248 2.1-1.539 3.631-3.059-1.536 4.447-1.72 5.143-5.69 7.863-.972 3.408-.993 4.273-1.108 7.836-.982 1.148-1.808 2.132-2.721 3.336l-3.783-4.373c-3.46-2.629-4.753-2.468-8.603-1.783 2.634-14.048-37.042-45.473-44.425-60.056l-.676-1.253c2.149-3.006 2.507-1.254 7.476-2.69l1.271-.381-1.668-2.459-.18-.38c-.719-6.82-16.159-23.209-8.68-28.598 3.943-.101 7.058 1.963 10.716 3.771 2.062 1.505 3.642 2.597 5.81 3.944l1.206-.826 1.277-8.262c-.509-3.282.192-4.167 1.497-7.401"/><path fill="#013497" d="M265.196 481.915c10.966 1.404 3.975-4.887 10.565-8.762 3.318.9 2.247.164 4.551 2.541.449 3.145.34 3.565-.068 6.764 2.704.186 4.017.32 6.671.839l1.075 1.459c-1.584 4.166-2.503 4.004-7.022 4.904 2.245 4.229 4.507 4.493 5.025 8.377-1.745 1.845-3.201 1.958-5.843 1.856l-2.515-.221c-1.826 3.992-2.795 11.849 1.587 14.51 1.858-1.248 2.1-1.539 3.631-3.059-1.536 4.447-1.72 5.143-5.69 7.863-.972 3.408-.993 4.273-1.108 7.836-.982 1.148-1.808 2.132-2.721 3.336l-3.783-4.373 3.284-1.092a205.5 205.5 0 0 1-16.581-31.699c1.546-4.204 2.903-9.271 6.078-12.195z"/><path fill="#FEA400" d="M265.196 481.915c10.966 1.404 3.975-4.887 10.565-8.762 3.318.9 2.247.164 4.551 2.541.449 3.145.34 3.565-.068 6.764 2.704.186 4.017.32 6.671.839l1.075 1.459c-1.584 4.166-2.503 4.004-7.022 4.904 2.245 4.229 4.507 4.493 5.025 8.377-1.745 1.845-3.201 1.958-5.843 1.856-1.367-1.727-2.81-3.457-4.204-5.167l-1.824-.046c-3.138 3.623-3.918 4.667-8.547 6.373-.541-1.556-.907-3.117-1.326-4.712 1.611-2.692 1.707-2.804 2.202-5.855l-3.383-3.441c-.037-3.258-.251-2.046 2.128-5.13"/><path fill="#1F6D3A" d="M265.575 501.053c4.629-1.706 5.409-2.75 8.547-6.373l1.824.046c1.394 1.71 2.837 3.44 4.204 5.167l-2.515-.221c-1.826 3.992-2.795 11.849 1.587 14.51 1.858-1.248 2.1-1.539 3.631-3.059-1.536 4.447-1.72 5.143-5.69 7.863-.972 3.408-.993 4.273-1.108 7.836-.982 1.148-1.808 2.132-2.721 3.336l-3.783-4.373 3.284-1.092 1.627 1.58c1.678-3.398-.454-22.209-3.844-25.498z"/><path fill="#FEA400" d="M234.572 419.411c4.39.701 6.824 3.073 10.798.415a91 91 0 0 1-1.233-5.178c4.783-6.006 3.855 1.353 11.325-.789 6.504 1.771 6.977 5.788 9.266 12.296-.872 3.141-.016 1.951-2.456 3.826l-4.381-.233-1.827 1.88.827 1.041c1.08 1.371 1.601 2.22 2.504 3.702l-.531 2.006c-.801.45-2.196 1.304-2.993 1.599l-2.32-.877c-4.931 4.967-4.528 2.825-9.556 4.897-1.793.242-2.065.055-3.865-.296-.31-.815-.721-1.881-1.265-2.545-5.319-6.491-2.595-8.851-5.79-14.343-.509-3.282.192-4.167 1.497-7.401"/><path fill="#013497" d="m275.256 441.435.583 4.514c-4.19 7.406-14.778 22.619-21.398 27.624 1.886-7.046 3.495-16.651 9.22-21.078.918-.154 2.489-.325 3.251-.698 2.002-5.702 5.023-3.67 8.344-10.362"/><path fill="#013497" d="M224.594 459.622c2.688 1.092 5.697 2.414 8.418 3.307 5.057.692 12.106 14.337 11.424 19.361-4.721-5.493-19.833-26.101-27.913-18.344l-.676-1.253c2.149-3.006 2.507-1.254 7.476-2.69z"/><path fill="#013497" d="M233.075 426.812c3.195 5.492.471 7.852 5.79 14.343.544.664.955 1.73 1.265 2.545 1.8.351 2.072.538 3.865.296l1.24 2.525c-3.979-.161-5.813-.989-8.76 1.619.935.6-10.759-15.014-11.693-16.184 2.062 1.505 3.642 2.597 5.81 3.944l1.206-.826z"/><path fill="#013497" d="M236.475 448.14c2.947-2.608 4.781-1.78 8.76-1.619.186 6.884.424 12.284-.285 19.195-4.037-7.099-5.452-9.945-8.475-17.576"/><path fill="#FEA400" d="m276.969 436.163.955 2.462c-1.19.876-2.099 1.405-2.668 2.81-3.321 6.692-6.342 4.66-8.344 10.362l-1.787-.847-.664-2.092c1.509-6.008 6.391-11.315 12.508-12.695"/><path fill="#FEA400" d="m222.926 457.163.268-3.592c5.498-3.842 12.427 4.993 9.818 9.358-2.721-.893-5.73-2.215-8.418-3.307z"/><path fill="#00833D" d="m615.126 432.081-.262-3.133c2.083-3.934 1.42.673 6.643-3.074l.101-5.06 1.683-.84 3.994 1.399 1.757 2.026 1.188-1.179c4.381-.741 5.373-1.043 9.834.205.299 4.333-.168 9.157 1.696 12.326 3.008.693 1.561.734 4.508-.09 4.25-2.52 6.926-4.483 11.81-5.268l1.928.733c2.524 8.453-9.152 20.229-9.349 23.919l-2.918 6.75c.771.532 2.608 1.877 3.339 2.232l3.06.46c1.017 12.49-43.34 43.525-43.233 61.651-4.225-.692-5.036-.288-8.977 1.46-1.52 2.981-1.776 3.173-4.138 5.616l-.345-2.187-.638.146c.056.097-6.573-15.884-6.555-15.825.57.367 1.977.958 2.651 1.266 2.697-3.295 2.261-10.282 2.029-14.316l-1.258-.659c-2.654 1.474-3.135 1.54-6.161 1.27-1.34-2.851-1.429-2.953-1.236-6.022 2.416-1.994 2.812-2.323 4.472-4.963-3.28-1.128-3.824-1.179-6.519-3.236l-.346-2.839c2.439-2.08 3.725-1.341 7.644-1.349-.031-3.571-.474-6.124 1.266-9.136 6.399-1.678 7.369 3.157 7.784 7.999 2.667 1.706 2.367 1.057 6.345.766l2.752-2.376c-1.353-1.906-3.128-5.051-4.399-7.137-3.493-6.796-9.45-18.015-8.697-25.585l2.326-1.814-.801-2.712c-2.382-2.073-3.494-2.563-4.059-5.458l1.177-2.447-1.759-3.989 1.037-1.409c6.939-.971 17.511 12.189 20.916 17.59l2.094.739 1.21-1.321c-.233-3.535.305-2.379-1.623-5.058l-3.97-.639c-.43-4.773.174-4.474 2.971-7.964z"/><path fill="#013497" d="M587.513 501.909c-1.34-2.851-1.429-2.953-1.236-6.022 2.416-1.994 2.812-2.323 4.472-4.963-3.28-1.128-3.824-1.179-6.519-3.236l-.346-2.839c2.439-2.08 3.725-1.341 7.644-1.349-.031-3.571-.474-6.124 1.266-9.136 6.399-1.678 7.369 3.157 7.784 7.999 2.667 1.706 2.367 1.057 6.345.766l2.752-2.376c3.526 4.446 4.472 8.117 6.374 13.49-4.003 9.769-10.352 20.399-15.605 29.728l.263 2.508 1.221.119c-1.52 2.981-1.776 3.173-4.138 5.616l-.345-2.187-.638.146c.056.097-6.573-15.884-6.555-15.825.57.367 1.977.958 2.651 1.266 2.697-3.295 2.261-10.282 2.029-14.316l-1.258-.659c-2.654 1.474-3.135 1.54-6.161 1.27"/><path fill="#FEA400" d="M587.513 501.909c-1.34-2.851-1.429-2.953-1.236-6.022 2.416-1.994 2.812-2.323 4.472-4.963-3.28-1.128-3.824-1.179-6.519-3.236l-.346-2.839c2.439-2.08 3.725-1.341 7.644-1.349-.031-3.571-.474-6.124 1.266-9.136 6.399-1.678 7.369 3.157 7.784 7.999 2.667 1.706 2.367 1.057 6.345.766 2.344 2.924 2.069 1.694 1.869 4.793-2.765 3.537-4.479 3.779-1.842 8.02.042 3.582.539 2.398-1.426 4.889-4.615.003-5.701-2.696-8.358-6.152-5.742 4.981-3.063 4.989-9.653 7.23"/><path fill="#1F6D3A" d="M587.513 501.909c6.59-2.241 3.911-2.249 9.653-7.23 2.657 3.456 3.743 6.155 8.358 6.152 1.965-2.491 1.468-1.307 1.426-4.889 1.842 2.723 1.675 1.626 1.424 4.422-7.206 5.468-8.202-4.19-10.127 9.529a813 813 0 0 0-1.963 16.092l.701.785a60 60 0 0 0 3.459-2.799l.263 2.508 1.221.119c-1.52 2.981-1.776 3.173-4.138 5.616l-.345-2.187-.638.146c.056.097-6.573-15.884-6.555-15.825.57.367 1.977.958 2.651 1.266 2.697-3.295 2.261-10.282 2.029-14.316l-1.258-.659c-2.654 1.474-3.135 1.54-6.161 1.27"/><path fill="#FEA400" d="m615.126 432.081-.262-3.133c2.083-3.934 1.42.673 6.643-3.074l.101-5.06 1.683-.84 3.994 1.399 1.757 2.026 1.188-1.179c4.381-.741 5.373-1.043 9.834.205-1.17 5.308-1.882 11.751-3.904 16.487-.92 2.154-2.791 3.697-4.083 6.403l-3.003.608-1.132-1.252c-9.259-.178-4.756-5.186-14.815-3.158-.43-4.773.174-4.474 2.971-7.964z"/><path fill="#013497" d="M598.905 446.217c1.79 1.978 2.334 2.075 4.795 3.273l2.202 3.715c3.58.588 3.33-.092 5.511 3.017 3.391 4.834 5.137 13.316 6.673 19.17l-8.947-8.09c-2.867 3.118-3.177 2.487-3.863 6.314-3.493-6.796-9.45-18.015-8.697-25.585z"/><path fill="#1F6D3A" d="M596.579 448.031c3.998 4.137 11.012 13.765 12.56 19.271-2.867 3.118-3.177 2.487-3.863 6.314-3.493-6.796-9.45-18.015-8.697-25.585"/><path fill="#013497" d="M640.064 422.425c.299 4.333-.168 9.157 1.696 12.326 3.008.693 1.561.734 4.508-.09-2.939 3.088-4.302 4.694-6.695 8.12-3.049 4.365-7.387 18.547-11.942 19.977-2.097-3.514-1.472-13.822 1.443-16.835l3.003-.608c1.292-2.706 3.163-4.249 4.083-6.403 2.022-4.736 2.734-11.179 3.904-16.487"/><path fill="#013497" d="M647.739 460.795c.771.532 2.608 1.877 3.339 2.232-3.674 1.886-5.887 3.062-9.264 5.421-3.408 2.382-10.536 12.007-13.445 12.503.418-6.328 4.668-13.064 9.693-16.752 3.531-.654 6.364-2.026 9.677-3.404"/><path fill="#FEA400" d="M594.045 438.047c8.304-1.021 17.011 10.715 11.857 15.158l-2.202-3.715c-2.461-1.198-3.005-1.295-4.795-3.273l-.801-2.712c-2.382-2.073-3.494-2.563-4.059-5.458"/><path fill="#FEA400" d="M638.062 464.199c-.817-7.394 5.806-11.187 12.595-10.154l-2.918 6.75c-3.313 1.378-6.146 2.75-9.677 3.404"/><path fill="#00833D" d="m682.097 405.629.992-.05c5.812-.33 8.789-2.809 11.928-2.157 1.446 1.656 2.032 3.875 2.068 6.05-2.376 3.515-4.482 13.506-2.107 17.14 3.896-3.443 18.323-16.971 22.222-11.055-.798 6.796-10.573 10.818-11.49 15.988l.778.56c2.207 3.651 2.231 4.218 2.361 8.508 3.339 2.714 5.256 3.413 5.771 7.118-2.768 2.892-6.01 3.14-10.063 3.778l-3.034 3.872-2.275 1.241c.246 1.891.024 1.55.794 3.215l7.293 5.413.685 1.696c-5.279 6.233-15.644 10.317-17.152 13.359-1.466 4.839-.441 3.59-3.559 6.532-2.86.339-3.781.349-6.443 1.342 1.505 3.559 2.907 5.426 1.942 8.61-2.88.885-5.187.103-8.002-1.145l-.764-1.741c-6.358 1.185-4.979 3.958-13.205 3.131-.986-1.623-.862-2.091-1.046-3.976 2.514-4.504 4.232-4.528 9.38-6.385-.906-4.765-5.658-3.427-8.516-9.569.958-4.038.382-2.568 3.87-6.094 1.666-4.102-4.191-6.685-2.916-13.212 1.701.782 1.967.832 3.801 1.26 1.031-2.704-.68-11.224-.932-15.529 2.947.175 3.813.369 6.637-.297l.992-2.902c2.878-3.16 3.051-2.293 3.182-5.57-3.786-3.83-4.128-3.725-2.388-8.478 2.282-.601 3.362-1.086 5.541-2.024a132 132 0 0 1-2.132-7.271c-1.287-4.899-2.727-8.999-.091-13.49 4.614.772 8.3 14.947 12.429 18.719 1.7-6.645 3.575-9.529.553-14.799-2.837-1.431-3.88-1.368-7.104-1.788"/><path fill="#FEA400" d="M664.525 471.01c8.211 2.649 8.452 5.254 13.049 8.982 2.608 2.114 5.442-3.815 13.294.313-1.466 4.839-.441 3.59-3.559 6.532-2.86.339-3.781.349-6.443 1.342 1.505 3.559 2.907 5.426 1.942 8.61-2.88.885-5.187.103-8.002-1.145l-.764-1.741c-6.358 1.185-4.979 3.958-13.205 3.131-.986-1.623-.862-2.091-1.046-3.976 2.514-4.504 4.232-4.528 9.38-6.385-.906-4.765-5.658-3.427-8.516-9.569.958-4.038.382-2.568 3.87-6.094"/><path fill="#FEA400" d="M701.523 455.381c-13.361-8.243-10.213-20.574 4.965-23.276 2.207 3.651 2.231 4.218 2.361 8.508 3.339 2.714 5.256 3.413 5.771 7.118-2.768 2.892-6.01 3.14-10.063 3.778z"/><path fill="#FEA400" d="M672.901 426.282c12.477.496 17.633 12.589 10.158 20.5-3.474.399-4.079.453-7.507-.164-2.977-2.69-2-1.653-3.445-6.288 2.878-3.16 3.051-2.293 3.182-5.57-3.786-3.83-4.128-3.725-2.388-8.478"/><path fill="#013497" d="M664.478 443.529c2.947.175 3.813.369 6.637-.297l.992-2.902c1.445 4.635.468 3.598 3.445 6.288 3.428.617 4.033.563 7.507.164l.921.412c1.655 4.426-2.968 15.628-4.691 20.581-3.543-8.836-6.583-19.503-14.811-24.246"/><path fill="#013497" d="M689.644 452.818c3.154 3.592 5.511 7.708 10.398 7.019l7.293 5.413c-10.738.014-13.838.711-24.042 4.28 2.592-5.889 4.756-10.419 6.351-16.712"/><path fill="#FEA400" d="M133.544 164.791c22.009.31 29.87 2.28 35.551 24.465q2.04.185 4.075.401c43.866 4.693 35.082 21.95 56.46 47.851l.641.764 1.76.69c-11.8 18.332-21.49 36.093-41.823 44.575l-2.455-1.497c-3.624-.134-9.382-2.758-9.364-6.659.088-19.279 23.558-33.426 32.077-48.675l.613-1.109c-13.786-13.869-22.892-16.863-41.069-21.614-5.114-6.303-10.814-13.554-14.578-20.705-6.253-11.881-10.206-13.463-21.888-18.487"/><path fill="#BE7807" d="m230.271 238.272 1.76.69c-11.8 18.332-21.49 36.093-41.823 44.575l-2.455-1.497c17.836-4.635 33.786-28.319 42.518-43.768"/><path fill="#00833D" d="M190.871 399.451c2.535.12 4.638-.138 6.586 1.321.439 11.373-2.656 13.695-2.565 22.091 2.119 1.885 2.009 1.336 5.295 1.955-.319 11.643-7.624 2.42-1.009 17.106-1.242 4.417-6.189 3.434-10.113 3.213l-1.525 1.511c.068 6.692 3.053 13.021 5.793 19.022 5.075-14.453 5.717-16 15.629-27.604-.845 4.919-2.963 15.072-2.559 19.576a40 40 0 0 1 4.211-1.264c1.454 5.992-5.586 11.357-1.933 13.976 2.636 3.752 2.22 2.172 2.368 6.17-2.925 6.147-7.45 4.056-8.209 8.587 5.116 2.19 6.508 1.919 9.289 5.895-.057 2.24.114 3.012-1.067 4.94-11.841.832-7.889-7.24-18.984.838-3.258-2.497-2.922-1.448-3.772-4.662 2.045-2.242 2.768-2.652 3.347-5.487-3.057-.314-4.42-.341-7.307-1.295-2.642-2.452-2.465-3.221-3.15-7.001-1.603-2.922-15.096-7.481-17.075-13.428 5.327-3.778 18.072.314 23.733 2.151l-5.412-15.136c-3.655 3.814-4.777 5.107-9.169 7.982l-1.258-.56.275-4.659-1.904-1.13-2.807-3.845c-2.663-.504-7.807-1.305-9.387-3.213.44-2.209 5.754-13.124 7.122-16.479l.768-.907c-.308-3.821-11.912-10.929-10.717-17.096 7.298-.236 17.492 8.695 23.156 13.18-.958-5.215-.672-14.538-3.461-17.706a11.2 11.2 0 0 1 2.194-6.212c3.966-.228 4.047.591 7.901 2.621 3.884-.592 3.569-1.358 5.716-4.451"/><path fill="#FEA400" d="M181.196 478.339c2.498-.948 2.593-.898 5.295-1.169 14.218 6.239 5.245-4.023 22.19-6.816 2.636 3.752 2.22 2.172 2.368 6.17-2.925 6.147-7.45 4.056-8.209 8.587 5.116 2.19 6.508 1.919 9.289 5.895-.057 2.24.114 3.012-1.067 4.94-11.841.832-7.889-7.24-18.984.838-3.258-2.497-2.922-1.448-3.772-4.662 2.045-2.242 2.768-2.652 3.347-5.487-3.057-.314-4.42-.341-7.307-1.295-2.642-2.452-2.465-3.221-3.15-7.001"/><path fill="#FEA400" d="M165.314 430.022c9.838 2.245 18.368 8.596 10.19 18.726l-.775.973c-1.682 2.082-2.037 2.636-4.343 3.838l-2.807-3.845c-2.663-.504-7.807-1.305-9.387-3.213.44-2.209 5.754-13.124 7.122-16.479"/><path fill="#FEA400" d="M189.065 445.137c-7.908-8.348-1.937-20.588 11.122-20.319-.319 11.643-7.624 2.42-1.009 17.106-1.242 4.417-6.189 3.434-10.113 3.213"/><path fill="#013497" d="M190.871 399.451c2.535.12 4.638-.138 6.586 1.321-8.066 6.643-9.863 12.147-14.247 21.578-.694-5.014-2.105-11.999-1.074-16.748 1.814-1.686.797-1.218 3.019-1.7 3.884-.592 3.569-1.358 5.716-4.451"/><path fill="#FEA400" d="M660.213 293.492c10.899 18.511 21.981 27.509 39.732 39.07 8.147 5.306 13.393 8.035 19.612 15.662 1.26 12.056 1.506 21.243 9.042 31.428 2.312 3.124 5.662 6.273 7.623 9.133-10.774-4.906-21.054-11.263-24.227-22.959-5.185-19.117-14.445-18.131-31.873-22.794-19.643-5.256-34.684-15.117-47.286-31.663 8.021-10.711 14.149-14.739 27.377-17.877"/><path fill="#00833D" d="M237.125 381.964c.275-3.972-.325-3.168 1.585-6.138 3.937.199 4.967 1.722 8.061 4.827-4.938 4.315.884 19.751 7.187 22.214 2.407-1.362 1.626-.823 2.959-3.906-.64-1.103-1.225-2.162-1.941-3.219 4.077 1.482 7.067 1.651 8.975 4.635l-.052 3.778-1.579-1.56c-4.703 1.715-7.26 6.361-6.858 11.264-7.47 2.142-6.542-5.217-11.325.789.393 1.854.74 3.353 1.233 5.178-3.974 2.658-6.408.286-10.798-.415 1.852-.28 3.448-.663 5.268-1.067-1.977-3.025-11.165-5.369-15.607-8.851-8.507-6.669-12.67-13.671-18.735-22.45 5.614 1.897 12.019 5.112 18.234 7.375l-.737-1.346-.014-.028-1.037.65-.748-.298.485-1.599c-6.778-6.414-9.788-9.87-14.817-17.627 10.9 4.932 13.073 6.911 21.95 14.554-.003-1.338-.343-3.799-.492-5.226 4.604 2.051 4.915 1.113 8.803-1.534"/><path fill="#013497" d="M237.125 381.964c3.928 2.536 5.069 8.293 1.805 12.217-5.428.63-6.504-1.625-10.116-5.457-.003-1.338-.343-3.799-.492-5.226 4.604 2.051 4.915 1.113 8.803-1.534"/><path fill="#043A1A" d="M224.377 396.659c6.361.066 8.947 4.345 12.973 8.82-4.816-.695-9.35-5.555-12.973-8.82"/><path fill="#00833D" d="M647.176 387.111c7.239-5.464 9.617-7.34 18.139-9.98-7.897 10.435-12.679 13.586-21.201 22.867 6.964-3.814 13.955-7.79 21.343-10.692-4.762 9.178-4.864 9.322-11.281 16.508-7.019 7.861-21.694 10.286-23.946 16.406l-1.188 1.179-1.757-2.026-3.994-1.399-1.683.84-.101 5.06c-5.223 3.747-4.56-.86-6.643 3.074l.262 3.133-3.03.992c-8.498-5.432-1.036-7.489-.909-14.791.018-1.056 1.351-2.081 2.069-2.876 2.178-.432 2.319-.222 3.816-1.77.082-4.487-3.517-9.654-8.018-9.873l-.141-2.347c1.828-2.818 3.853-2.254 8.322-3.529-1.952 3.45-1.868 2.136-1.331 5.463l1.382.536c3.775-.752 7.328-4.531 9.355-7.668l1.988-.97 1.865 1.882 1.418-.844c1.58.645 2.054.689 3.743 1.014 3.7-2.024 8.948-6.881 11.521-10.189"/><path fill="#FEA400" d="M613.256 415.406c11.691 2.278 11.232-4.565 16.795 1.776l-2.766 4.191-3.994-1.399-1.683.84-.101 5.06c-5.223 3.747-4.56-.86-6.643 3.074l.262 3.133-3.03.992c-8.498-5.432-1.036-7.489-.909-14.791.018-1.056 1.351-2.081 2.069-2.876"/><path fill="#8F5B08" d="M612.096 433.073c1.014-7.241 5.855-9.88 11.559-13.824 3.116-.222 3.82-.3 6.396-2.067l-2.766 4.191-3.994-1.399-1.683.84-.101 5.06c-5.223 3.747-4.56-.86-6.643 3.074l.262 3.133z"/><path fill="#FEA400" d="M488.206 472.125c19.659-2.741 27.456 28.434 5.586 35.092l-11.904 2.621-8.235-34.069z"/><path fill="#013497" d="M483.603 478.458c9.416-1.421 15.793.799 16.786 12.713.326 3.902-1.641 7.159-4.52 9.805-3.082 1.007-4.072 1.636-7.138 1.097-4.483-3.884-8.371-19.604-5.128-23.615"/><path fill="#FEA400" d="M625.261 382.915c-3.427.401-3.806.553-7.106-.166-2.238-2.559-1.898-1.422-1.95-4.357 2.931-3.91 6.315-3.538 10.613-6.817-4.18-3.568-7.781-3.193-7.926-9.594 2.212-2.476 1.155-1.713 4.702-2.56 3.41.789 3.762 1.474 6.08 4.102l.693.795c1.807-1.524 2.193-5.041 2.948-7.8 2.625-2.49 1.344-1.788 5.215-2.284 3.57 1.448 2.403.446 4.373 3.786.128 5.623.082 4.009-2.768 9.393 4.139.698 7.24-.099 10.235 2.212 1.105 3.289.859 2.058.04 5.793-3.945 2.665-2.908.36-8.531 1.239.009 3.067.53 2.807 2.4 5.914 1.69 1.863 1.4 3.011 2.897 4.54-2.573 3.308-7.821 8.165-11.521 10.189-1.689-.325-2.163-.369-3.743-1.014l-1.418.844-1.865-1.882-1.988.97c-.78-3.114 1.035-6.836.391-12.183z"/><path fill="#013497" d="M644.279 382.571c1.69 1.863 1.4 3.011 2.897 4.54-2.573 3.308-7.821 8.165-11.521 10.189-1.689-.325-2.163-.369-3.743-1.014-.215-5.793.035-8.147 3.554-12.76 2.173 2.093 2.271 2.134 5.075 3.175 2.699-1.165 1.913-.964 3.738-4.13"/><path fill="#1F6D3A" d="M625.261 382.915c1.791-2.418 3.557-3.501 5.95-5.294l2.622-.268c1.917 2.169 1.299 2.533 1.633 6.173-3.519 4.613-3.769 6.967-3.554 12.76l-1.418.844-1.865-1.882-1.988.97c-.78-3.114 1.035-6.836.391-12.183z"/><path fill="#FEA400" d="m343.7 456.486 4.139 2.158c3.951 5.431 4.155 21.371 5.738 29.697 2.282-5.838 6.595-19.219 12.184-21.831l1.034 1.602c-.104 9.236-7.143 24.419-11.822 32.313-.711-.395-3.464-2.018-3.806-2.455-3.844-4.904-4.44-23.637-4.986-29.709-4.312 6.643-5.454 14.311-10.745 22.016l-2.501.289-1.484-1.659c-.743-7.031 8.758-25.413 12.249-32.421"/><path fill="#FEA400" d="M228.322 383.498c.929-5.078 2.289-4.372 3.174-9.214-3.615.34-5.52.802-8.91-.677-1.833-2.644-1.424-1.393-1.152-4.934 3.326-3.047 6.053-2.858 10.868-3.329-1.005-2.368-1.933-4.289-3.099-6.584.414-3.968-.17-2.563 1.949-5.617 3.693-1.158 2.126-1.087 5.948-.208 3.404 3.077 2.366 3.353 3.486 9.002l1.66.438c2.631-2.682 2.904-3.229 6.264-4.645 3.799.544 2.5-.134 5.057 2.361.175 3.571.416 2.177-1.545 5.463-2.757 1.143-4.206 1.477-6.29 3.52.403 3.024 6.501 2.583 10.718 7.689.183 2.652.407 1.602-1.631 4.129-3.482 1.282-4.037.516-8.048-.239-3.094-3.105-4.124-4.628-8.061-4.827-1.91 2.97-1.31 2.166-1.585 6.138-3.888 2.647-4.199 3.585-8.803 1.534"/><path fill="#FEA400" d="M519.228 461.023c3.346 2.05 24.371 24.457 24.804 27.301l-1.441.798c-7.21-.022-6.778-3.572-12.836-2.14-12.169 4.91-5.511 9.201-12.927 13.233-2.593-8.142-5.229-26.579-3.204-35.113.491-2.067 3.449-2.994 5.604-4.079"/><path fill="#FEA400" d="M450.937 476.891c2.077.079 4.127.341 6.195.567 3.931 3.767 11.859 25.855 14.4 32.367l-1.111 1.884-2.224.503c-3.565-2.051-3.832-3.739-6.422-7.214-20.122.638-8.978 2.755-16.713 8.286-3.194.027-1.974.608-3.974-1.328-.279-3.291 7.745-31.076 9.849-35.065"/><path fill="#FEA400" d="M377.118 470.424c6.375 1.172 18.527 2.94 23.504 5.983.773 2.292.769 1.122-.395 3.599-5.29 1.44-9.139-3.01-16.05-2.264-11.81 8.159 7.319 8.615 11.167 13.844l-1.255 1.25c-4.563 1.148-10.116-.726-14.828-1.873l-2.257 9.493c4.418.981 15.537 2.571 16.995 7.039-6.295 2.413-18.369-1.48-25.019-3.18z"/><path fill="#FEA400" d="M175.06 407.493c-3.77 2.338-2.767 2.465-6.615 2.57-2.074-3.243-.016-8.085-.83-8.598-2.614-1.643-4.284-.641-6.956-4.382-.086-8.989 4.524-3.043 7.943-7.11-1.33-3.271-2.075-4.394-1.876-7.971 2.355-2.716 1.2-1.869 4.791-2.941 2.003.579 2.943.952 4.106 2.892 4.177 6.97 6.032-3.256 12.774.475 1.138 10.119-9.172 7.36 2.474 17.023-2.147 3.093-1.832 3.859-5.716 4.451-3.854-2.03-3.935-2.849-7.901-2.621a11.2 11.2 0 0 0-2.194 6.212"/><path fill="#FEA400" d="M609.054 403.763c-.774 3.41-1.59 6.632-4.726 8.454-4.229-1.064-4.709-5.066-7.535-7.743-.719-.681-2.229 1.024-6.428-1.901-1.245-3.608-1.309-2.249-.486-5.677 1.536-1.233 2.963-1.997 3.403-3.819-3.347-4.036-3.787-4.169-2.885-9.017 4.89-3.48 7.056 3.369 11.083 3.468.777-2.406 1.719-6.548 4.33-7.161 2.489 1.545 4.184 6.616 5.27 9.472 3.152.374 4.047.278 6.774 1.73.933 3.499.687 2.325-.619 6.318-4.469 1.275-6.494.711-8.322 3.529z"/><path fill="#FEA400" d="M682.097 405.629c.66-8.035 3.424-5.623 5.141-10.055.722-1.863-6.363-8.458-2.781-12.266 4.96-.033 9.075 4.057 9.944 3.57 2.683-1.503 4.754-7.448 9.579-5.184 2.003 4.296 1.538 5.872-.075 10.386 1.584 1.687 3.603 1.783 5.96 2.304 2.096 2.679 1.597 1.377 1.63 4.925-3.415 6.1-8.713.158-6.429 10.388l-.821 1.764c-3.449.594-4.263.3-7.16-1.989-.036-2.175-.622-4.394-2.068-6.05-3.139-.652-6.116 1.827-11.928 2.157z"/><path fill="#FEA400" d="M254.976 395.742c-1.02-3.626-1.15-2.292-.204-5.667 2.616-1.479 3.618-1.286 6.727-1.472 1.443-1.81 1.165-3.716 1.257-6.132 1.954-2.651.709-1.826 3.782-2.671 4.779 2.804 1.302 3.401 5.031 6.535 3.131-2.332 5.253-4.481 9.023-4.85 2.308 2.108 1.593 1.229 2.05 5.162-1.321 2.466-1.608 2.902-3.402 5.05.646 2.037 1.717 2.723 3.289 4.176.403 3.829.603 2.261-1.114 6.022-2.562 1.413-3.156 1.233-6.193 1.334-3.058 4.085-2.725 6.251-6.27 8.133-3.135-1.225-4.131-4.073-5.053-7.207l.052-3.778c-1.908-2.984-4.898-3.153-8.975-4.635"/><path fill="#FEA400" d="m409.932 476.591 4.553.732c4.163 3.708 6.813 21.207 8.408 28.018 2.435-6.328 6.457-22.024 11.159-26.432.887-.832 2.275-.146 3.762.201.83 2.238.106 2.538-.907 5.501-3.052 7.106-8.367 25.749-13.946 28.551l-1.746-.795c-5.068-5.916-10.006-27.822-11.283-35.776"/><path fill="#FEA400" d="M601.928 526.598c3.941-1.748 4.752-2.152 8.977-1.46-1.618 9.978-7.418 5.741-1.015 16.085l-.339 2.333c-6.067 4.155-6.091.51-11.174 8.275l-3.705 1.034c-1.611-8.612-.261-12.874 3.118-20.651 2.362-2.443 2.618-2.635 4.138-5.616"/>
    </g>
  </g>
</svg>