<svg xmlns="http://www.w3.org/2000/svg" width="512" height="512" viewBox="0 0 512 512"><defs><clipPath id="a"><path d="M0 0h512v512H0z"/></clipPath></defs><g clip-path="url(#a)"><defs><linearGradient id="e" x1="459.892" x2="462.784" y1="386.704" y2="395.596" gradientUnits="userSpaceOnUse"><stop offset="0" stop-color="#202425"/><stop offset="1" stop-color="#111c3a"/></linearGradient><linearGradient id="d" x1="444.888" x2="448.396" y1="378.56" y2="374.308" gradientUnits="userSpaceOnUse"><stop offset="0" stop-color="#f59b31"/><stop offset="1" stop-color="#f0824d"/></linearGradient><linearGradient id="c" x1="304.472" x2="305.428" y1="413.384" y2="406.08" gradientUnits="userSpaceOnUse"><stop offset="0" stop-color="#eea320"/><stop offset="1" stop-color="#f5933d"/></linearGradient><linearGradient id="b" x1="231.174" x2="238.054" y1="423.012" y2="425.596" gradientUnits="userSpaceOnUse"><stop offset="0" stop-color="#f8a627"/><stop offset="1" stop-color="#fe9643"/></linearGradient></defs><path fill="#00205b" d="M-153.6-51.2h819.2v614.4h-819.2z"/><path fill="#00205b" d="m393.854 199.462.298.014c1.124.044 3.425-.338 4.131-.053-.702 1.654-1.95 2.378-1.947 3.872l.357.594c.608.094 1.212.274 1.756.127-.436-.313-.406-.37-.744-.814l.828-.935c2.256-.636 4.216-1.447 6.396-2.31.712 1.183 3.444 2.337 5.192 3.462.14-.158 2.02-.388 3.128-.116-.896 1.559-1.332 2.694-.536 4.442.148-.205 2.404-2.726 3.904-3.806.568-1.128 2.784-1.77 4.532-2.572.72.62 4.356 1.489 5.936 2.233l-.216-2.798c2.504-.784 6.788.569 9.084.616.664-.174 2.792-.227 4.556.133.456.7 13.464 5.36 9.12 10.005-.46.492-1.248 1.223-1.776 1.714.08 1.18 4.772 1.182 6.364 2.28.98 2.05 4.092 6.463 6.492 8.975.928.968 3.096 2.351 4.428 2.742.44 1.884 7.952 5.27 10.904 11.245.888-2.264 20.244-2.149 26.676-2.545.456-.332 15.568-3.347 19.62-1.036.036 3.44 16.892 15.074 21.776 19.965.464-6.672 9.18-6.094 13.38-9.946l1.552-1.38c13.92 19.852 27.18 25.724 49.452 33.571-.152.303-.672 1.416-.824 1.625-.288 3.042.68 5.258 2.376 7.756.992.298 1.396.794 1.904 1.764.88 1.034 2.836 3.535 3.86 4.086.476.554 1.26 1.378 1.584 1.983.572 2.637 8.9 5.194 12.356 6.945.048 2.559 12.352 6.356 16.596 10.07l1.26 1.39a149 149 0 0 0 3.616 3.574c.816 1.02.944 1.108 1.356 2.317-1.412 1.25-4.016 6.17-5.332 8.128-3.152 4.695-5.62 7.463-9.896 11.147.564 5.612 9.6 10.422 14.108 15.776l-.948 1.772c-.788 1.796-1.98 4.236-2.328 6.09l-.856 1.364c-.044 4.32 3.896 10.596 6.908 13.645.428 2.462 6.204 4.8 7.984 7.392l.216.31.396.616.024.528c.18 4.316-.78 8.31-.564 12.415.448 8.485 2.036 16.96 2.856 25.437-2.7 1.024-6.132 2.952-3.52 6.232.596 1.556 1.428 3.54 1.94 5.084-5.932 5.776-11.788 5.54-19.636 3.888-7.244-1.552-16.936-5.92-22.604-10.836-6.824-.316-11.872 3.48-16.8 7.972a47 47 0 0 0-3.892 3.912c.256 2.708 9.064 9.164 12.892 7.348l.28-.336c1.272 1.24 4.064.6 7.3 2.316.196 2.74 4.5 6.432 6.692 10.184.804 1.636 3.212 1.664 6.348 1.716.028.016 1.084.08 1.532.648-.736 1.316-2.688 2.576-3.952 3.168-7.18 3.504-10.588-4.836-16.064-7.244-2.308-1.344-4.372 4.572-6.292 5.12-9.7 2.776-14.972 1.224-24.128 7.013.536-7.916 3.548-11.012 10.92-14.792-.676-4.368-.48-6.092-.02-10.432a182 182 0 0 1-6.948 7.332c-14.936 14.884-29.744 23.604-51.32 23.092-23.532-.56-39.572-7.156-55.892-23.648-17.976 23.612-40.312 42.348-71.768 40.168-31.84-2.204-49.597-21.604-69.303-43.992a360 360 0 0 1-9.674 1.664c-14.364 15.676-27.678 29.716-51.07 25.632-21.011-3.664-34.079-15.556-49.345-29.292.124 3.824.487 7.112-1.765 10.248l-.298.408c.515 1.876 6.013 5.124 6.3 9.404.094 1.408.6 4.296-.48 5.904-1.096-1.008-4.131-3.792-5.358-4.188-8.201-2.656-11.531-.292-16.752-8.172-8.587 9.12-17.024 9.92-24.843-.597.25 8.088 15.104-5.22 22.64-13.172.332-1.66 8.654-4.624 11.79-9.1-4.688-5.92-10.528-11.252-17.69-13.864-3.442 3.608-13.556 6.732-18.493 8.228-1.087.332-4.124 1.024-4.829 1.416-.309 1.264-.016.724-.926 1.668-5.22 1.592-11.591-.968-16.335-3.06-1.333-2.972-.36-7.568.08-10.884-3.596-.896-7.502-.684-6.519-6.072.968-10.696.841-20.707.538-31.478-.113-4.003 9.882-8.255 11.246-13.2.534-1.933 2.226-3.595 2.59-6.376l-.715-1.92c-.316-1.897-1.297-3.871-2.082-5.64l-1.192-1.728q7.247-7.8 14.303-15.774c-9.965-8.03-9.118-10.857-15.162-19.22l-.179-.241c.288-.764.704-1.546 1.066-2.287.155-.081 3.369-3.034 3.77-3.395l1.394-1.247c.685-.388 5.088-3.492 5.556-3.93.15-3.876 20.844-10.158 23.309-13.268l.034-.798.353-1.202c1.319-1.118 2.556-2.726 3.685-4.072l1.719-1.935.314.173c1.554-2.484 2.985-4.856 2.57-7.809l-.736-1.742c22.736-7.597 35.023-13.664 49.036-33.49.508.448 1.322 1.092 1.694 1.606.942 3.246 7.361 2.34 13.222 9.693l.27-.273c4.46-4.498 9.239-8.732 13.66-13.283.214-3.483 7.981-7.54 13.217-7.052.743.722 15.496 1.588 23.366 1.889.066.193 9.756 1.123 15.084 1.114.1-11.319 9.538-8.138 17.667-13.545.359-1.57 4.196-7.087 7.783-8.87.029-1.007 7.983-1.78 8.472-2.706-1.829-.463-2.91-.614-4.41-1.784-.669-1.306-.601-.64-.192-2.066.422-2.742 8.203-4.466 11.667-5.314.617-1.218 9.855-3.17 12.591-2.719"/><path fill="#dfab16" d="m393.854 199.462.298.014c1.124.044 3.425-.338 4.131-.053-.702 1.654-1.95 2.378-1.947 3.872l.357.594c.608.094 1.212.274 1.756.127-.436-.313-.406-.37-.744-.814l.828-.935c2.256-.636 4.216-1.447 6.396-2.31.712 1.183 3.444 2.337 5.192 3.462.14-.158 2.02-.388 3.128-.116-.896 1.559-1.332 2.694-.536 4.442.148-.205 2.404-2.726 3.904-3.806.568-1.128 2.784-1.77 4.532-2.572.72.62 4.356 1.489 5.936 2.233l-.216-2.798c2.504-.784 6.788.569 9.084.616.664-.174 2.792-.227 4.556.133.456.7 13.464 5.36 9.12 10.005-.46.492-1.248 1.223-1.776 1.714.08 1.18 4.772 1.182 6.364 2.28.98 2.05 4.092 6.463 6.492 8.975.928.968 3.096 2.351 4.428 2.742.44 1.884 7.952 5.27 10.904 11.245l-7.5 3.212c6.692 14.22 15.068.888 21.52 5.582.604 7.746 4.188 3.8 9.156 9.333.088 2.327 1.06 7.403 2.024 10.448.28 4.05 6.928 7.51 7.248 11.702.672 8.752-2.832 10.696-.672 20.342.26 3.558-.008 6.263-1.956 9.394-1.864 2.067-6.02 5.343-7.124 7.612-1.724 3.808-1.84 7.462-4.492 10.903-3.68 4.778-7.964 3.525-12.02-.105-3 2.582-7.004 6.69-6.24 11.137.652 3.796 4.436 5.029 7.312 6.872.584 3.06-3.464 5.686-6.032 6.136-1.752.307-4.464-1.896-6.412-1.418-.692 1.698-.82 4.79-.176 6.503.132 5.669 8.036 4.458 10.812 5.736.416 2.823-2.356 4.658-3.64 7.478-2.128 4.684-3.152 9.392-5.16 14.032-.36.835-6.068 4.802-6.976 5.79-2.912 2.26-6.776 8.436-10.224 9.154-2.488.518-6.4-.092-8.896.545-4.936 1.258-6.996 4.986-11.732 6.942-3.548-.248-8.088-1.852-11.452-1.22-3.7.7-6.7 2.776-10.784 2.812-3.712.032-5.664-1.728-9.148-2.368-2.212-.408-6.31-.192-8.481-.632-5.743-1.16-11.886-2.108-17.588-3.232-1.123-.22-5.85-3.343-7.388-3.8-2.548-.754-4.982-.501-7.06-1.88-3.408-2.261-4.801-6.743-7.27-9.59-2.188-2.523-5.965-5.103-8.04-7.885-3.089-4.142-2.381-7.525-1.671-12.2-1.188-1.128-2.301-2.387-3.412-3.597.047-4.224 7.907-7.93 6.761-14.268-.822-4.546-8.201-2.498-9.139-6.19.262-1.308 2.178-2.325 3.333-3.727q.179-1.147.227-2.308c.146-3.187-.262-6.125-2.586-8.556-2.687-2.81-4.422.253-6.834.147-3.612-.159-5.413-5.93-7.352-8.01-3.128-3.358-7.407-5.3-10.457-8.964-4.341-5.213-.449-11.364-1.422-16.888-.652-3.706-3.623-7.067-2.819-11.639.108-3.658 4.981-9.469 5.446-12.442.019-12.914-.188-14.209 10.82-22.702.225-.85 2.535-1.376 3.894-1.995.43 1.528 9.35 4.332 14.087 1.243.456-.95 3.114-2.963 3.414-4.728-.744-1.621-7.298-3.652-9.664-4.756.1-11.319 9.538-8.138 17.667-13.545.359-1.569 4.196-7.087 7.783-8.869.029-1.008 7.983-1.78 8.472-2.707-1.829-.463-2.91-.614-4.41-1.784-.669-1.306-.601-.64-.192-2.065.422-2.742 8.203-4.466 11.667-5.314.617-1.218 9.855-3.17 12.591-2.72"/><path fill="#2471b1" d="m393.854 199.462.298.014c1.124.044 3.425-.338 4.131-.053-.702 1.654-1.95 2.378-1.947 3.872l.357.594c.608.094 1.212.274 1.756.127l.458.659c-1.056 1.176-8.204 2.259-10.327 2.669-2.8-1.509-4.832-3.216-7.316-5.164.617-1.218 9.855-3.17 12.591-2.72M273.268 149.602c2.504-.784 6.788.569 9.084.616.124 2.68 3.16 4.801 4.452 7.981-4.652-1.102-10.248-2.21-14.72-3.512l-.272-.556.672-1.73zM251.328 148.76a190 190 0 0 0 5.192 3.46c.18.431.24.9.336 1.374l-.612.885c-3.78 1.835-9.088.239-11.312-3.412.256-.636 4.216-1.447 6.396-2.309M243.506 169.767c5.61 4.611 4.986 2.361 11.514 1.348.952-.148 4.28-.026 4.86.545.136 4.071 6.452 2.923 9.476-2.415.808 1.592 9.828 3.796 12.9 9.284a23.8 23.8 0 0 1 2.44 6.552c1.404 6.582-.16 14.368 9.604 11.798.908 1.532 2.604 5.11 3.684 5.956.832.526 6.076-3.006 7.912-4.832.564 2.788 17.376 12.274 21.128 23.853.604 5.155 2.456 9.446 2.728 14.872-48.264.545-97.568.038-145.915.04-1.121-5.669-1.739-9.115-1.226-14.888a39.18 39.18 0 0 1 17.746-23.792c1.972-1.197 5.328-2.79 7.688-2.454.877 10.06 7.956 1.164 10.486.504.013 2.059 5.377 4.274 7.97-.03.256-2.084 1.12-4.713 1.534-7.04.569-11.397 4.97-15.644 15.47-19.303"/><path fill="#00205b" d="M214.18 221.413c1.928 1.391 11.6 9.305 12.971 10.963l65.757.015c1.272-1.346 3.004-3.226 3.3-5.08-1.612-3.67-7.596-.06-10.524-2.95l-1.916-2.331c1.816.033 2.716.058 4.56-.202.652-.65 4.136-.475 6.864-.022.22.454 23.356.366 31.832.051.604 5.155 2.456 9.446 2.728 14.872-48.264.545-97.568.038-145.915.039-1.121-5.668-1.739-9.114-1.226-14.888.297.056 27.774.621 31.569-.468"/><path fill="#dfab16" d="m381.074 250.52.676.748.822.056c-1.525 3.457-2.094 8.218-.996 11.794l.053.696-1.44 1.406-.037 1.16c.134 1.986.239 4.57.491 6.492.254.979.316 1.76 1.044 2.415l.305.814c1.987.669 3.381.338 5.413.554.493.081 8.292.281 10.489-.166l.904.311c1.007-.032 2.503-.03 3.463-.124.664.119 4.824.194 7.48.105l2.064-.001c2.62.04 3.92.069 6.484-.32.756.432 2.232.336 3.996.173l.412.284.788-.255.348.393.284-.276c1.836.052 3.184-.024 5.008-.137l.644.068c1.304.12 1.904.302 3.08-.164l.004-.715.432-.27c2.928 2.89 8.912-.72 10.524 2.95-.296 1.853-2.028 3.733-3.3 5.08l-65.757-.015c-1.37-1.658-11.043-9.572-12.971-10.963-2.156-1.902-5.259-4.136-7.609-5.91.121-4.045 15.07-11.524 20.903-16.183"/><path fill="#2e688c" d="m381.75 251.268.822.056c-1.525 3.457-2.094 8.218-.996 11.794l.053.696-1.44 1.406-.037 1.16c.134 1.986.239 4.57.491 6.492-1.824-.048-4.325.122-6.203.198l-1.27 1.348-.7-.409-.883.05c-.514-2.368 8.515-19.762 10.165-22.791M226.552 215.18c.134 1.986.239 4.57.491 6.492-1.824-.048-4.325.122-6.203.198a532 532 0 0 0 5.712-6.69"/><path fill="#88a2a0" d="m380.189 265.22-.037 1.16a532 532 0 0 1-5.712 6.69l-1.27 1.348-.7-.409c1.045-1.554 6.2-7.092 7.72-8.79"/><path fill="#00205b" d="M220.839 221.87c1.878-.076 4.379-.246 6.203-.198.254.979.316 1.76 1.044 2.415l.305.814c1.987.669 3.381.338 5.413.554-5.546.008-10.079 1.356-14.236-2.237z"/><path fill="#315f6c" d="M208.843 216.005c3.037.565 8.437 1.831 8.751 5.376-2.296.516-6.842-3.841-8.751-5.376"/><path fill="#dfab16" d="M245.106 214.277c.997-1.016 1.842-1.688 2.93-2.583l-.148 1.152.488.638.1.143c1.12-.042 2.288-.11 3.404-.1l.652.768.456.687.292-.575c.064 1.242.004 2.013.476 3.137-.724 2.654-.568 5.28-.552 8.036h-2.064c-2.656.09-4.816.015-7.48-.104-.96.094-2.456.092-3.463.124l-.904-.311c-2.197.447-7.996.248-10.489.166-2.032-.216-3.426.115-5.413-.554l-.305-.814c-.728-.655-.79-1.436-1.044-2.415-.252-1.922-.356-4.506-.491-6.492l.037-1.161.44-1.406c2.495.414 10.792.184 14.115.27l.294-.27c1.114.613 1.654.91 2.668 1.663"/><path fill="#88a2a0" d="m408.48 264.727.652.768.456.686.292-.575c.064 1.242.004 2.013.476 3.137-.724 2.654-.568 5.281-.552 8.036l-2.064.001c-2.656.09-4.816.014-7.48-.105-.96.094-2.456.092-3.463.124l-.904-.311.007-2.432c2.096-2.563 6.18-6.685 8.58-9.33"/><path fill="#88a2a0" d="m408.48 264.727.652.768.456.686-.38.501a150 150 0 0 0-4.824 7.133l-2.124 2.86c-.96.094-2.456.092-3.463.124l-.904-.311.007-2.432c2.096-2.563 6.18-6.685 8.58-9.33"/><path fill="#315f6c" d="m409.132 265.495.456.686-.38.501a150 150 0 0 0-4.824 7.133l-1.736-1.496z"/><path fill="#0d2c3b" d="m402.648 272.321.736 1.496-2.124 2.86c-.96.094-2.456.092-3.463.124.475-2.077 2.027-2.692 3.851-4.479"/><path fill="#d4b951" d="m409.588 266.182.292-.575c.064 1.242.004 2.013.476 3.137-.724 2.654-.568 5.281-.552 8.036l-2.064.001c-.048-3.419 0-6.717-.532-10.098z"/><path fill="#2e688c" d="M245.106 214.277c.997-1.016 1.842-1.688 2.93-2.583l-.148 1.152.488.638.1.143c1.12-.042 2.288-.11 3.404-.1-2.4 2.644-6.484 6.767-8.58 9.33-1.42.152-3.118 1.032-4.234 1.876l-.347-2.44-.463-.73-.064-2.784-.106-1.08c-.222-2.34-.276-2.923 1.056-4.814l.294-.27c1.114.612 1.654.91 2.668 1.662"/><path fill="#315f6c" d="M245.106 214.277c.997-1.016 1.842-1.688 2.93-2.583l-.148 1.152.488.638c-3.328 2.416-6.032 5.362-9.119 8.078l-.064-2.784-.106-1.08c-.222-2.34-.276-2.923 1.056-4.814l.294-.27c1.114.612 1.654.91 2.668 1.662"/><path fill="#2e688c" d="M242.438 212.615c1.114.612 1.654.91 2.668 1.662l-4.018 3.421c-.222-2.34-.276-2.922 1.056-4.813z"/><path fill="#88a2a0" d="M245.106 214.277c.997-1.016 1.842-1.688 2.93-2.583l-.148 1.152c-2.15 1.982-4.398 4.152-6.695 5.933l-.106-1.081zM403.976 264.684l.1.143c-2.276 1.876-7.641 6.513-9.756 8.665l-.463-.73c3.087-2.716 5.791-5.663 9.119-8.078"/><path fill="#0d2c3b" d="M242.067 224.732c1.116-.844 2.814-1.724 4.234-1.876l-2.007 2.432c-2.197.447-7.996.248-10.489.166-2.032-.216-3.426.115-5.413-.554l-.305-.814c3.797-.122 10.621-.807 13.98.646"/><path fill="#d4b951" d="M268.876 212.635c2.144.21 3.896.258 6.056.297l1.772.006c.432 2.464 5.148 7.334 7.064 9.091l1.916 2.331-.432.27-.004.715c-1.176.466-1.776.284-3.08.164l-.644-.068c-1.824.113-3.172.189-5.008.137l-1.284.276-1.348-.393-4.788.255-.412-.284c-1.764.163-2.24.259-3.996-.172-2.564.388-3.864.358-6.484.319-.016-2.755-.172-5.382.552-8.036-.472-1.124-.412-1.895-.476-3.137l.62.036.752-.596c1.068-.166 2.228-.178 3.316-.23l1.14-.046.824-.285c1.256-.63 2.512-.563 3.944-.652"/><path fill="#2e688c" d="m411.88 265.606.62.036c2.56 2.706 5.204 5.392 7.512 8.313l2.272 2.678c-1.764.163-2.24.259-3.996-.172-2.564.388-3.864.358-6.484.319-.016-2.755-.172-5.382.552-8.036-.472-1.124-.412-1.895-.476-3.137"/><path fill="#88a2a0" d="M258.756 217.544c2.496 2.908 3.812 4.515 5.932 7.717-2.564.388-3.864.358-6.484.319-.016-2.755-.172-5.382.552-8.036"/><path fill="#2471b1" d="M268.876 212.635c2.144.21 3.896.258 6.056.297-.272 2.498-3.26 5.292-5.028 7.236-1.588-1.582-4.976-4.696-5.796-6.596l.824-.285c1.256-.63 2.512-.563 3.944-.652"/><path fill="#315f6c" d="M278.14 220.272c-.724-1.196-1.144-1.679-1.36-3.024l.456-.372c2.676 1.626 5.692 5.494 8.016 7.756l-.004.715c-1.176.466-1.776.284-3.08.164l-.644-.068c-1.824.113-3.172.189-5.008.137-.048-1.716.172-3.504.328-5.222z"/><path fill="#0d2c3b" d="M278.14 220.272c1.648 1.334 2.968 3.404 4.028 5.238l-.644-.068c-1.824.113-3.172.189-5.008.137-.048-1.716.172-3.504.328-5.222z"/><path fill="#88a2a0" d="M278.14 220.272c1.648 1.334 2.968 3.404 4.028 5.238l-.644-.068c-1.672-1.987-2.796-3.319-4.68-5.085z"/><path fill="#2e688c" d="M275.108 215.699c.084 2.857.348 7.431.124 10.156l-1.348-.393-4.788.255c-.652-2.92-.744-2.868 1.456-4.986z"/><path fill="#88a2a0" d="M269.096 225.717c-.652-2.92-.744-2.868 1.456-4.986.956 1.39 2.312 3.489 3.332 4.73z"/><path fill="#2e688c" d="M259.652 213.846c1.068-.166 2.228-.178 3.316-.231.628 1.937 5.832 5.655 5.692 7.575l-1.348 1.104-.9.46c-2.308-2.92-4.952-5.607-7.512-8.313z"/><path fill="#88a2a0" d="m412.5 265.642.752-.597.66 8.45-.9.46c-2.308-2.92-4.952-5.608-7.512-8.314"/><path fill="#dfab16" d="M262.576 196.64c1.576.458 1.976.249 2.652 1.376-.068 1.477-.804 2.781-1.212 4.389-.148 1.59-.312 3.167-.38 4.763.308 2.411.4 3.87 1.296 6.118l-.824.285-1.14.046c-1.088.051-2.248.063-3.316.23l-.752.596-.62-.036-2.292.575-.456-.686-.652-.768c-1.116-.01-2.284.057-3.404.1l-1.1-.143-2.488-.638.148-1.152c-.052-4.113.256-8.507.396-12.656.748-.415 1.1-1.149 1.644-1.918.072.05 5.148.029 7.136.22l.872-.05c1.732-.044 2.876.042 4.492-.65M228.972 200.125c1.152-.891 8.864-.524 10.893-.557l.691-.004.744.386.346.437c-.537 1.278-1.64 3.295-.725 4.583-.946 2.514-.174 4.574.548 7.074l-.031.57-.294.27c-3.323-.087-11.62.143-14.115-.271l-.053-.696c-1.098-3.575-.528-8.336.996-11.794"/><path fill="#0e6a34" d="M227.976 211.918c2.893-.49 11.171-.003 14.493.126l-.031.57-.294.27c-3.323-.087-11.62.143-14.115-.271z"/><path fill="#dfab16" d="m422.092 253.9.976.088.016-.11.98.12c1.404 1.609.136 3.83.7 6.415l.376 1.958.304 1.058-.396.504-2.744.196-1.772-.006c-2.16-.04-3.912-.088-6.056-.297-1.432.088-2.688.022-3.944.652-.896-2.25-.988-3.708-1.296-6.118.496-1.535 3.244-3.034 4.856-4.47"/><path fill="#2e688c" d="M268.492 202.699c-.672 4.225-.56 5.753.384 9.936-1.432.088-2.688.022-3.944.652-.896-2.249-.988-3.708-1.296-6.118.496-1.535 3.244-3.034 4.856-4.47"/><path fill="#2471b1" d="M279.54 211.181c.812-2.252 7.344-4.922 9.992-6.52.188 1.83.752 8.301 1.224 9.754-1.068 1.052-1.476.702-2.584 1.686-.084 1.917.056 3.811.156 5.727-1.844.26-2.744.235-4.56.202-1.916-1.757-6.632-6.628-7.064-9.091l2.744-.196.396-.504z"/><path fill="#a59f6b" d="M236.204 191.34c.084-1.154.012-2.543.686-3.404.548 1.108.391 2.094.369 3.359.027 5.19 2.767 4.47 5.041 8.657l-1.744-.386-.691.004c-2.029.033-9.741-.334-10.893.557l-.822-.057-.676-.748a413 413 0 0 0 8.73-7.98"/><path fill="#315f6c" d="M239.865 199.568c-1.759-.286-1.458.022-2.64-.972l-.214-.94c.83-1.293.421-.863 1.93-1.561.362.21.814-.1 1.694.973.086.91.27 1.677-.079 2.496zM232.704 195.973c1.278.02 1.627-.028 2.83.333.018 1.17.826.635 1.014 2.064l-.598.771-1.449.17-5.302-.126z"/><path fill="#d4b951" d="M257.024 191.826c.264-1.071.308-4.072.388-5.429l.452-.013c.24 1.64.456 2.923.5 4.592.52 1.22 2.52 1.998 4.16 3.053l-.084.79.136 1.82c-1.616.692-2.76.606-4.492.65l-.872.051c-1.988-.192-5.064-.172-7.136-.221.148-.637 1.528-1.808 2.156-3.044.992-.628 3.896-.298 4.792-2.25"/><path fill="#2e688c" d="M250.076 197.12c1.148-.637 1.528-1.808 2.156-3.044.816.063 2.964-.204 4.332.632.512 1.142.492 1.368.648 2.634-1.988-.192-5.064-.172-7.136-.221"/><path fill="#315f6c" d="M258.084 197.29c.028-1.808-.24-1.508.568-2.853.268-.448 2.412.04 3.788.383l.136 1.82c-1.616.692-2.76.606-4.492.65"/><path fill="#dfab16" d="m444.356 265.615.368-1.024c.292.681.432.99.668 1.696.792.132 1.86-.167 3.056.85.74 1.808.264 3.788.344 5.871-2.728-.454-4.212-.629-6.864.021-.1-1.916-.24-3.81-.156-5.727.108-.984 1.516-.634 2.584-1.686"/><path fill="#2e688c" d="M275.384 195.633c.14 2.507.124 4.64.084 7.154l-6.976-.088z"/><path fill="#a59f6b" d="m444.2 254.308.192 11.978c-.236-.705-.376-1.015-.668-1.696l-.368 1.024c-.472-1.453-1.036-7.924-1.224-9.754-2.648 1.598-9.18 4.27-9.992 6.52l-.376-1.958c3.972-1.463 7.6-4.47 11.436-6.116"/><path fill="#d4b951" d="M275.528 188.082c1.2.374 3.028.696 3.676 1.501-.676 1.226-2.52 1.686-2.56 1.89-.408 2.04-.184 9.381-.16 11.214l-1.016.1c.04-2.515.056-4.647-.084-7.154l-.108-1.245c.336-2.085.256-4.191.252-6.306"/><path fill="#88a2a0" d="M264.016 202.405c.688 1.088.24.704 1.348 1.25.628-.936 7.576-6.843 9.912-9.267l.108 1.245-6.892 7.066c-1.612 1.435-3.36 2.934-4.856 4.47.068-1.597.232-3.174.38-4.764"/><path fill="#dfab16" d="M256.888 182.231c1.488.748 4.412 1.773 4.312 3.586-1.028.793-1.972.588-3.336.568l-.452.013c-.08 1.356-.124 4.358-.388 5.429-.276-2.855-.148-6.659-.136-9.595"/><path fill="#0e6a34" d="m352.35 327.971.974.033c-4.604 8.237-8.212 17.116-7.32 26.596.148 1.58.232 3.126.148 4.713-2.932.198-5.424-.083-6.676 2.91.02 2.714 1.376 4.261 2.972 6.29-3.576 7.597-8.728 10.997-16.512 13.42-4.236-.435-1.716-10.652-12.44 1.244-1.636-.156-4.052-.376-5.544-1.026-2.524-.932-1.044-3.444-1.884-5.13-1.888-3.8-4.616-2.574-7.392-1.414-1.196-.952-2.32-3.653-4.264-5.372-1.956 2.13-2.46 3.128-3.816 5.665-5.836-3.646-9.788-.648-7.352 6.078-1.901.516-3.42.868-5.342 1.185-5.224.864-6.029-6.23-10.687-5.684-2.084 1.264-2.523 2.667-3.273 4.87-8.773-2.754-15.566-7.237-18.561-16.235.665-2.099 3.713-4.503 2.046-7.102-2.072-1.521-3.898-1.184-6.404-1.03-.384-1.166.26-5.054.339-6.572.454-8.743-1.655-16.007-6.013-23.439"/><path fill="#dfab16" d="m372.758 350.794-.917-1.505c-2.203-.714-4.507-1.11-4.68-3.618.58-.664.805-.807 1.073-1.646l-.742-.339c.174-1.132 1.266-1.972 2.117-2.832.028-.798.071-.988.237-1.774.15-.812 1.166-.98 2.837-.69l.552.1c.819-1.63.92-2.297 2.787-2.435.637.572.671.693 1.456.993l.791-1.2c1.824-.927 2.325-.07 3.604 1.302-.333-.357 3.48-.071 3.919.053.938.897.651.344.712 1.796l1.612.152c2.594 1.858 4.72 4.9 3.174 8.174-.477 1.01-2.448 1.51-3.477 1.87-1.218 1.769-1.586 2.829-2.39 4.812.05 3.736 2.376 7.98 3.801 11.569-7.118 2.502-11.944 3.688-19.126.456.517-3.999 2.548-6.918 3.269-11.239zM231.824 302.806c1.05 3.736 2.376 7.98 3.801 11.569-7.118 2.502-11.944 3.688-19.126.456.517-3.999 2.548-6.918 3.269-11.24.437.2 2.543.264 4.747 1.294l.677-.735.552.04.251.03c.335-.035 3.076.337 3.656.719.152.984.224 1.102.572 21"/><path fill="#c99917" d="m379.344 355.392.251.03c-.116 1.53-.168 2.294-.528 3.778-.558-.78-.599-2.7-.724-3.808"/><path fill="#a47112" d="M219.158 299.594c1.876-1.03.097.094 1.323-2.246l.169.02.845 1.709.723.064a32 32 0 0 0 .403-1.431l.095-.386c.525 1.095.358 1.26 1.214 1.671l1.03-1.715c.369.6.21.618.246 1.524l.366.271c.424-.595.756-1.116 1.145-1.732l.266 1.599.406.177.682-.901c2.197 1.625 3.18 1.025 5.232-.656l.913.433c-1.218 1.768-1.586 2.828-2.39 4.81-1.208 2.774.399 3.144-.602 4.133-.347-.898-.42-1.016-.572-2-.58-.382-3.321-.754-3.656-.718l-1.251-.03-.552-.04-.677.735c-2.204-1.03-2.31-1.093-4.747-1.293z"/><path fill="#c99917" d="M228.07 298.22c2.106-2.106 3.065-3.156 5.644-.968l-.412.312c-2.052 1.681-3.035 2.281-5.232.656"/><path fill="#dfab16" d="M282.456 297.858c-1.948-.021-3.364-.814-4.768-2.149-.284-1.404-.028-1.062 1.032-2.718l-1.072-.936-.004-.737c1.216-2.347 3.732-3.46 6.02-4.588.672-1.482.716-1.778 2.34-2.03.744.564.876.693 1.74 1.116.52-.902.572-1.137 1.492-1.657.572.37 2.556 1.834 3.192 2.367.204-.676 1.388-.87 2.72-.992.716 1.258.512.687 1.908 2.362.072-.02 1.66-.164 2.492.475.52 1.795.984 1.97 2.448 3.216.064 1.107.216.61-.56 1.507.892 1.809.964 1.27.676 2.908-.92 1.159-3 1.59-4.532 2.098-.452 1.523-1.132 3.61-1.476 5.118.156 4.085 2.028 7.048 3.568 10.986-2.936 1.19-3.972 1.561-7.068 2.154-5.16.346-7.276.231-12.032-1.697.624-4.02 2.496-7.39 3.424-11.558-.392-1.791-1.26-3.023-1.54-5.25"/><path fill="#dfab16" d="M291.972 305.294c.704-1.603 1.14-1.23 2.82-1.466l.532-.727.78.121c1.156 4.085 2.028 7.048 3.568 10.986-2.936 1.19-3.972 1.561-7.068 2.154-5.16.346-7.276.231-12.032-1.697.624-4.02 2.496-7.39 3.424-11.558q2.328.762 4.632 1.572c.78-.528.412-.474 1.212-.548l1.276.159.484.09z"/><path fill="#c99917" d="M291.972 305.294c.704-1.603 1.14-1.23 2.82-1.466l.532-.727.78.121c1.156 4.085 2.028 7.048 3.568 10.986-2.936 1.19-3.972 1.561-7.068 2.154.128-3.461-.764-7.184-.632-11.068M443.44 355.331l.276.159c-.228 1.534-.408 2.341-.828 3.834-.408-.544-.396-3.084-.448-3.993"/><path fill="#a47112" d="m436.056 349.058.92.078c.812 1.28.504 1.269 1.624 1.65.18-1.082.128-2.145.868-2.625l.068.356c.204 1.068.06 1.05.676 1.822.768-.52.656-.663 1.14-1.6l.532 1.061c.92-.256.48-.046 1.184-1.072.616 1.185.412 1.318 1.34 1.668l.164-.259c.388-.609.54-.995 1.16-1.35.036.504.076.962.132 1.464l.512.003.224-1.322c.652.453.356.18.616 1.267.012-.328 1.936-.62 2.964-.896-.452 1.523-1.132 3.61-1.476 5.118l-.78-.12-.532.726c-1.68.237-2.116-.137-2.82 1.466l-.372-.914-.484-.09-1.276-.16c-.8.074-.432.02-1.212.548q-2.304-.81-4.632-1.572c-.392-1.79-1.26-3.023-1.54-5.249"/><path fill="#c99917" d="M289.468 297.529c.592-.699.42-.504 1.2-1.026l.756.522c4.984-2.272 4.024-1.092 9.136-.769.904-.729.612-.277.896-1.409-1.144-.67-1.572.111-3.672.344l-.648-.582.136-.526c2.468-1.331 1.444-1.045 4.164-.986.892 1.809.964 1.27.676 2.908-.92 1.159-3 1.591-4.532 2.098a60 60 0 0 0-2.964.896c-.26-1.088.036-.814-.616-1.267l-1.224 1.322-.512-.003a36 36 0 0 1-.132-1.464c-.62.354-.772.74-1.16 1.35l-.164.259c-.928-.349-.724-.482-1.34-1.668"/><path fill="#dfab16" d="M251.26 299.617c-1.744-3.806-4.76-.787-5.691-4.882.455-.664.584-.901.939-1.625l-1.106-.776-.039-.851c1.316-2.339 3.852-3.53 6.192-4.66.64-1.454.636-1.889 2.22-2.132.76.52.988.735 1.9.989l.692-1.292.076-.245c1.268.354 1.332.51 2.34 1.458l.276.267c.82.162 2.036-.14 2.908-.296.528.577.98.198 2.056 1.485.184 1.019 2.592 1.208 3.496 3.425 1.114 1.78 3.946.98 5.826-1.1"/><path fill="#dfab16" d="M251.26 299.617c.888.028.828.016 1.62-.397.072-.679.128-1.359.176-2.04.356.779.416.966.92 1.648.432.007 2.084-.442 3.372-1.05.212.507.384.863.636 1.353l.472-.457c1.904.578.588.312 1.66.097.976-.395 3.036.05 5.42-.266-.464 1.106-1.296 3.248-1.8 4.252.184 4.186 2.184 7.438 3.68 11.516-2.392.76-4.784 1.608-7.268 1.946-4.572.73-7.372-.009-11.624-1.522.432-4.19 2.492-7.15 3.332-11.504-.304-1.326-.432-2.224-.596-3.577"/><path fill="#a47112" d="M251.26 299.617c.888.028.828.016 1.62-.397.072-.679.128-1.359.176-2.04.356.779.416.966.92 1.648.432.007 2.084-.442 3.372-1.05.212.507.384.863.636 1.353l.472-.457c1.904.578.588.312 1.66.097.976-.395 3.036.05 5.42-.266-.464 1.106-1.296 3.248-1.8 4.252l-.804 1.477c-.812-.19-.928-.21-1.676-.559-.48.68-.376.404-.584 1.19-.904-.8-.4-.584-1.508-.773-.248.514-.412 1.031-.564 1.582a61 61 0 0 1-.96-1.655l-.62.431c-.2 1.29-.408 2.042-.76 3.306l-.18-.124a54 54 0 0 0-.16-3.409 252 252 0 0 0-4.064-1.03c-.304-1.326-.432-2.224-.596-3.577"/><path fill="#c99917" d="M260.672 304.865c.208-.785.104-.51.584-1.189.748.348.864.368 1.676.559l.804-1.477c1.184 4.186 2.184 7.438 3.68 11.516-2.392.759-4.784 1.608-7.268 1.946.356-3.319-1.132-9.257.524-11.355M258.456 298.675c2.068-3.952 5.148-3.753 8.212-.994l-1.132.826c-2.384.315-3.444-.129-5.42.266-1.072.214.244.481-1.66-.097M268.52 290.482c-2.092.946-3.74 1.336-5.108-1.052.248-1.466.284-1.087 1.612-2.373.184 1.019 2.592 1.208 3.496 3.425"/><path fill="#885c15" d="M230.168 254.065c-4.955-.934-15.806-2.286-19.198-6.465-.768-.946-1.33-2.135-.18-2.984.742.11 7.78 2.603 10.692 3.453.84 1.118 7.133 2.13 11.208 2.622.723 1.895 31.731-1.368 47.355.562.116.384 7.448 2.385 10.168 3.959.58-5.32 14.588-8.865 23.32-8.376.928.052 2.36.373 3.08.972-.56 3.68-11.936 4.374-15.652 5.553l4.172 3.459c3.936-1.72 14.356-7.035 18.252-3.607.432 3.396-8.892 3.545-11.264 4.722-6.06 3.009-11.484 7.547-16.22 12.32-1.324-.9-3.472-1.792-5.004-2.641-1.472.069-5.492-.95-7.132-1.31-1.596.367-4.964-.427-6.608-.864.852-2.94 4.56-4.597 8.016-7-15.648-4.158-27.344-2.956-43.278-3.502a1428 1428 0 0 1-12.755 16.144c-1.931-.061-3.958-.093-5.877-.22.458-3.106 12.281-13.492 12.913-16.063-.944-.432-.444-.316-1.576-.228-3.991 3.576-11.742 11.978-15.238 16.28-1.766.109-3.31.363-4.968-.171l-.593-.598c.576-3.104 12.996-12.627 16.367-16.033"/><path fill="#dfab16" d="m443.292 311.914.156 2.975-3.952 3.923c-1.472.069-5.492-.95-7.132-1.311.916-1.842 3.932-3.86 5.928-5.587M296.208 255.885c1.628.412 3.632 1.718 3.856 3.524l-1.256 1.184c-1.396-.705-3.16-1.354-3.94-2.588.064-1.272.12-.918 1.34-2.12"/><path fill="#a47112" d="M236.595 270.844c8.365-7.498 20.329-9.416 31.137-7.546.728.472 6.956 2.054 9.424 2.137.644.438 5.012 1.23 6.608.864.64.361 5.66 1.379 7.132 1.311.532.849 3.68 1.742 5.004 2.642-2.772.803-16.904.609-20.808.614z"/><path d="M322.44 187.309c5.888-2.264 20.244-2.149 26.676-2.545.456-.332 15.568-3.347 19.62-1.037.036 3.441 16.892 15.074 21.776 19.966.464-6.672 9.18-6.094 13.38-9.946l1.552-1.381c13.92 19.853 27.18 25.725 49.452 33.572-.152.303-.672 1.416-.824 1.625-.288 3.042.68 5.258 2.376 7.756.992.298 1.396.794 1.904 1.764.88 1.034 2.836 3.535 3.86 4.086.476.554 1.26 1.378 1.584 1.982.572 2.637 8.9 5.194 12.356 6.946.048 2.559 12.352 6.356 16.596 10.07l1.26 1.39a149 149 0 0 0 3.616 3.574c.816 1.02.944 1.108 1.356 2.317-1.412 1.25-4.016 6.17-5.332 8.128-3.152 4.695-5.62 7.463-9.896 11.147.564 5.612 9.6 10.422 14.108 15.776l-.948 1.772c-.788 1.796-1.98 4.236-2.328 6.089l-.856 1.365c-.044 4.32 3.896 10.596 6.908 13.644.428 2.462 6.204 4.8 7.984 7.392l.216.31.396.616.024.528c.18 4.316-.78 8.31-.564 12.415.448 8.485 2.036 16.961 2.856 25.437-2.7 1.024-6.132 2.952-3.52 6.232.596 1.556 1.428 3.54 1.94 5.084-5.932 5.776-11.788 5.54-19.636 3.888-7.244-1.552-16.936-5.92-22.604-10.836-2.864-4.804-11.936-10.98-17.688-11.476-5.144-3.724-10.524-8.924-15.52-13.012-15.388-12.592-28.536-19.866-48.572-20.522-7.256 3.585-8.836 5.302-17.184 5.094l-3.112 2.186c.544-.886 1.108-1.799 1.316-2.815.872-4.23 5.08-9.92 8.112-133.032-3.077 8.464-8.133 12.316-10.144.068-3.689 20.184-3.54 25.776-9.316.496-2.58.336-9.586.14-12.986-.264-4.607-1.212-11.598 2.204-15.404.816-3.136 6.304-3.667 10.16-4.055-8.5-5.792-17.108-11.386-24.672-18.393-1.864-1.724-3.796-3.363-5.744-4.99-13.208-.697-18.128-4.53-30.572 1.132-1.624 5.36-3.272 11.52-3.264 17.127.004 2.699 1.288 4.84.832 7.218-1.112 1.318-2.644 1.869-4.232 2.645.636 1.897 5.216 4.203 5.464 6.143.576 2.648-1.652 9.038-3.504 10.836-9.936 9.592-10.492-18.576-10.344-22.958.108-3.115 2.684-8.409 2.62-12.431.948-3.13 2.216-5.836 1.956-9.394-2.16-9.646 1.344-11.59.672-20.342-.32-4.192-5.968-7.653-7.248-11.702-.964-3.044.064-8.12-2.024-10.447-4.968-5.534-5.552-1.588-9.156-9.333-6.452"/><path fill="#00205b" d="M458.352 237.088c.88 1.034 2.836 3.535 3.86 4.086.476.554 1.26 1.378 1.584 1.982.572 2.637 8.9 5.194 12.356 6.946.048 2.559 12.352 6.356 16.596 10.07l1.26 1.39a149 149 0 0 0 3.616 3.574c.816 1.02.944 1.108 1.356 2.317-1.412 1.25-4.016 6.17-5.332 8.128-3.152 4.695-5.62 7.463-9.896 11.147.564 5.612 9.6 10.422 14.108 15.776l-.948 1.772c-.788 1.796-1.98 4.236-2.328 6.09l-.856 1.364c-.044 4.32 3.896 10.596 6.908 13.644.428 2.462 6.204 4.8 7.984 7.392l.216.31.396.616.024.528c.18 4.316-.78 8.31-.564 12.415.448 8.485 2.036 16.961 2.856 25.437-2.7 1.024-6.132 2.952-3.52 6.232.596 1.556 1.428 3.54 1.94 5.084-5.932 5.776-11.788 5.54-19.636 3.888-7.244-1.552-16.936-5.92-22.604-10.836-2.864-4.804-11.936-10.98-17.688-11.476-5.144-3.724-10.524-8.924-15.52-13.012-15.388-12.592-28.536-19.866-48.572-20.522.98-2.49 1.072-3.876 1.424-6.55l.276-.008c5.712-.186 6.576-1.268 11.616-3.568a50 50 0 0 1 10.836-3.542.08 44.08 0 0 1 11.076-.993c5.632.238 8.772 2.123 12.28-3.134-1.036-11.401-1.516-17.416 11.656-11.821.932 1.246 7.144 1.442 9.996 2.878.124 2.078 6.256 8.342 9.32 11.655.128 3.568 5.76 5.745 9.724 8.119.54-12.718 2.552-18.578 1.708-31.45-2.836-3.506-2.628-4.362-3.168-8.96a115 115 0 0 1-15.292-11.63c-4.328-3.827-8.384-8.385-13.284-11.288-.752-1.811-3.42-4.14-4.924-5.555.544-5.463 14.116-9.418 19.16-18.495"/><path fill="#fcfafc" d="M458.352 237.088c.88 1.034 2.836 3.535 3.86 4.086.476.554 1.26 1.378 1.584 1.982.572 2.637 8.9 5.194 12.356 6.946.048 2.559 12.352 6.356 16.596 10.07l1.26 1.39a149 149 0 0 0 3.616 3.574c.816 1.02.944 1.108 1.356 2.317-1.412 1.25-4.016 6.17-5.332 8.128-3.152 4.695-5.62 7.463-9.896 11.147.564 5.612 9.6 10.422 14.108 15.776l-.948 1.772c-.788 1.796-1.98 4.236-2.328 6.09l-.856 1.364c-4.68-5.164-10.128-10.473-14.596-15.514.232 12.241.412 18.355-2.492 30.543-1.188 6.376-12.184 46.646-4.5 47.492.596-1.588 2.504-5.836 2.344-8.672-.028-.5-1.288-.832-1.808-1.052l-.04-.452c1.304-1.2 3.692-2.064 5.404-2.792-.256 3.588.004 12.536-2.896 14.892-1.108.9-3.016 1.572-4.448 1.296-1.08-.212-1.944-1.04-2.524-1.932-5.492-8.48 3.744-40.549 5.98-51.072.54-12.718 2.552-18.578 1.708-31.45-2.836-3.506-2.628-4.362-3.168-8.96a115 115 0 0 1-15.292-11.63c-4.328-3.827-8.384-8.385-13.284-11.288-.752-1.811-3.42-4.14-4.924-5.555.544-5.463 14.116-9.418 19.16-18.495"/><path d="M463.796 243.156c2.572 2.637 8.9 5.194 12.356 6.946.048 2.559 12.352 6.356 16.596 10.07-5.852 9.52-10.38 13.625-18.22 21.596-8.156-4.441-18.944-14.71-25.64-21.058.884-5.112 10.784-9.558 14.908-17.553"/><path fill="#af1e1b" d="M458.352 237.088c.88 1.034 2.836 3.535 3.86 4.086-3.148 7.956-5.94 11.288-13.02 16.407-.908.654-4.392 2.959-5.076 3.556-.752-1.811-3.42-4.14-4.924-5.555.544-5.463 14.116-9.418 19.16-18.495M494.584 310.364c-3.612-5.167-20.664-19.917-19.524-25.123.612-2.33 8.608 4.506 10.848 6.936.692 3.999 7.344 8.07 11.004 12.098-.788 1.796-1.98 4.236-2.328 6.089M494.008 261.56a149 149 0 0 0 3.616 3.574c-.724.993-2.504 4.312-3.264 5.573-3.608 5.976-6.548 9.894-11.84 14.52-2.512-1.517-3.32-1.842-6.112-2.825.78-8.776 10.676-9.575 17.6-20.844"/><path d="M479.132 296.214c4.468 5.041 9.916 10.35 14.596 15.514-.044 4.32 3.896 10.596 6.908 13.644.428 2.462 6.204 4.8 7.984 7.392l.216.31.396.616.024.528c.18 4.316-.78 8.31-.564 12.415.448 8.485 2.036 16.961 2.856 25.437-2.7 1.024-6.132 2.952-3.52 6.232.596 1.556 1.428 3.54 1.94 5.084-5.932 5.776-11.788 5.54-19.636 3.888.52-1.776 3.708-8.356 4.796-10.212.948-8.472 5.408-17.776 2.928-27.112-1.86-6.993-14.836-19.99-21.416-23.194.904-12.188 2.724-18.302 2.492-30.543"/><path fill="#00205b" d="M336.46 196.104c5.972-1.211 16.128-2.296 22.172-1.617.48 5.121 11.292 14.152 15.896 22.164.88 3.267 5.112 7.468 7.416 10.554-5.252 2.245-19.72 7.675-23.552 10.104-2.552 4.134-2.452 8.08-4.176 10.618-2.16-9.646 1.344-11.59.672-20.342-.32-4.192-5.968-7.653-7.248-11.702-.964-3.044.064-8.12-2.024-10.447-4.968-5.534-5.552-1.588-9.156-9.333"/><path d="M405.444 192.372c13.92 19.853 27.18 25.725 49.452 33.572-.152.303-.672 1.416-.824 1.625-.288 3.042.68 5.258 2.376 7.756.992.298 1.396.794 1.904 1.764-5.044 9.076-10.616 13.032-19.16 18.495-2.328-2.057.336-2.456-.656-3.857-4.216-5.798-8.572-11.206-12.204-17.402-4.676-7.975-6.076-15.081-7.704-23.952-6.144-5.443-10.232-9.682-14.736-16.62z"/><path fill="#fcfafc" d="M405.444 192.372c13.92 19.853 27.18 25.725 49.452 33.572-.152.303-.672 1.416-.824 1.625-12.54-3.78-21.448-7.29-32.252-14.81.288 16.487 9.08 25.58 20.056 38.247.136-4.362 11.464-8.554 14.572-15.68.992.297 1.396.793 1.904 1.763-5.044 9.076-10.616 13.032-19.16 18.495-2.328-2.057.336-2.456-.656-3.857-4.216-5.798-8.572-11.206-12.204-17.402-4.676-7.975-6.076-15.08-7.704-23.952-6.144-5.443-10.232-9.682-14.736-16.62z"/><path d="m274.679 254.076.27-.273c4.46-4.498 9.239-8.732 13.66-13.283.214-3.483 7.981-7.54 13.217-7.052.743.722 15.496 1.588 23.366 1.889.066.192 9.756 1.122 15.084 1.111.366 1.103 8.92 3.134 9.664 4.755-.3 1.765-1.957 3.778-3.414 4.728-4.737 3.09-9.656.286-14.087-1.243-1.359.62-2.669 1.145-3.894 1.995-3.904-2.582-17.435-2.4-22.255-1.768-9.485 7.21-10.338 11.922-15.498 21.761-1.676 3.195-5.376 8.18-7.664 11.057.134 1.338 22.747 8.498 23.62 10.236.289 6.552 6.196 22.031 8.46 29.854.548 5.351-.384 17.815-2.412 23.125-5.177 12.066-12.8-4.783-10.455-10.172.258-.618 4.328-3.594 5.267-4.589-1.504-.696-3.207-1.27-4.21-2.502-.928-3.095.876-6.57.584-9.079-.579-4.97-2.043-10.72-3.492-15.499-12.192-5.752-17.112-1.819-29.933-1.334-3.83 2.47-9.59 8.144-13.601 11.318-5.674 4.491-11.818 8.09-17.31 12.313.33 1.324 13.322 9.112 12.106 20.603-.312 3.184-2.321 9.88.237 12.432.706 5.694 17.688 5.046 24.457 8.278.886 4.232 18.728 14.812 22.23 23.723-7.702 1.208-14.213-.413-19.954-5.902-23.07-.296-43.026 14.134-59.085 29.123-1.587 0-3.045.224-4.256 1.292-2.829 2.5-9.49 7.912-11.014 11.112-3.442 3.608-13.556 6.732-18.493 8.228-1.087.332-4.124 1.024-4.829 1.416-.309 1.264-.016.724-.926 1.668-5.22 1.592-11.591-.968-16.335-3.06-1.333-2.972-.36-7.568.08-10.884-3.596-.896-7.502-.684-6.519-6.072.968-10.696.841-20.707.538-31.478-.113-4.003 9.882-8.255 11.246-13.2.534-1.933 2.226-3.595 2.59-6.376l-.715-1.92c-.316-1.897-1.297-3.871-2.082-5.64l-1.192-1.728q7.247-7.8 14.303-15.774c-9.965-8.03-9.118-10.857-15.162-19.22l-.179-.241c.288-.764.704-1.546 1.066-2.287.155-.081 3.369-3.034 3.77-3.395l1.394-1.247c.685-.388 5.088-3.492 5.556-3.93.15-3.876 20.844-10.158 23.309-13.268l.034-.798.353-1.202c1.319-1.118 2.556-2.726 3.685-4.072l1.719-1.935.314.173c1.554-2.484 2.985-4.856 2.57-7.809l-.736-1.742c22.736-7.597 35.023-13.664 49.036-33.49.508.448 1.322 1.092 1.694 1.606.942 3.246 7.361 2.34 13.222 9.693"/><path fill="#00205b" d="M49.575 240.452c1.319-1.118 2.556-2.726 3.685-4.072.342 9.129 10.678 12.946 19.619 18.258-2.301 1.27-3.713 3.275-5.138 5.414-.778.724-1.429.952-1.969 1.407-8.825 7.427-16.505 15.382-26.49 21.41-1.237 12.174 1.092 23.54 3.087 35.585l.352-.25c5.84-4.199 8.068-11.363 13.371-14.97.11-.755 7.772-1.137 9.532-1.715.77-1.236 6.137-2.752 10.153-3.546.107 1.714 1.606 2.34 2.238 4.333.536 4.85-2.217 12.286 4.447 13.922.83.45 6.414.066 8.547.055.661-.032 7.315.322 10.901 1.055.286.68 7.247 1.756 10.25 3.177.997 2.364 7.016 3.29 12.661 3.62.127 1.712.296 3.485.302 5.197-23.07-.296-43.026 14.134-59.085 29.123-1.587 0-3.045.224-4.256 1.292-2.829 2.5-9.49 7.912-11.014 11.112-3.442 3.608-13.556 6.732-18.493 8.228-1.087.332-4.124 1.024-4.829 1.416-.309 1.264-.016.724-.926 1.668-5.22 1.592-11.591-.968-16.335-3.06-1.333-2.972-.36-7.568.08-10.884-3.596-.896-7.502-.684-6.519-6.072.968-10.696.841-20.707.538-31.478-.113-4.003 9.882-8.255 11.246-13.199.534-1.934 2.226-3.596 2.59-6.377l-.715-1.919c-.316-1.898-1.297-3.872-2.082-5.64l-1.192-1.729q7.247-7.8 14.303-15.774c-9.965-8.03-9.118-10.857-15.162-19.219l-.179-.242c.288-.764.704-1.546 1.066-2.287.155-.08 3.369-3.034 3.77-3.395l1.394-1.247c.685-.388 5.088-3.492 5.556-3.93.15-3.875 20.844-10.157 23.309-13.267l.034-.798z"/><path fill="#fcfafc" d="M49.575 240.452c1.319-1.118 2.556-2.726 3.685-4.072.342 9.129 10.678 12.946 19.619 18.258-2.301 1.27-3.713 3.275-5.138 5.414-.778.724-1.429.952-1.969 1.407-8.825 7.427-16.505 15.382-26.49 21.41-1.237 12.174 1.092 23.54 3.087 35.585.173 6.848 8.306 46.542 5.283 50.71-1.017 1.404-2.655 2.364-4.368 2.628-1.109.168-2.167-.044-3.056-.748-2.171-1.72-2.726-5.412-2.897-8.02-.164-2.512-.162-5.048-.166-7.568.738 1.028 3.509 1.912 4.832 3.42l.136.66-1.48.424c-.835 2.384-.338 7.392 2.354 8.732.82-.632 1.757-12.364 1.323-15.976a558 558 0 0 0-4.47-31.887.4 502.4 0 0 1-4.012-28.622c-4.753 5.495-12.565 13.61-17.728 18.895l-.715-1.919c-.316-1.898-1.297-3.872-2.082-5.64l-1.192-1.729q7.247-7.8 14.303-15.774c-9.965-8.03-9.118-10.857-15.162-19.219l-.179-.242c.288-.764.704-1.546 1.066-2.287.155-.08 3.369-3.034 3.77-3.395l1.394-1.247c.685-.388 5.088-3.492 5.556-3.929.15-3.876 20.844-10.158 23.309-13.268l.034-.798z"/><path d="M48.188 242.452c4.462 9.006 6.647 11.381 14.594 17.508-7.778 7.216-16.336 15.226-25.229 21-7.942-7.805-12.393-11.78-18.23-21.31.685-.388 5.088-3.492 5.556-3.93.15-3.875 20.844-10.157 23.309-13.267"/><path fill="#af1e1b" d="M49.575 240.452c1.319-1.118 2.556-2.726 3.685-4.072.342 9.129 10.678 12.946 19.619 18.258-2.301 1.27-3.713 3.275-5.138 5.414-9.952-7.106-12.668-7.037-18.167-19.6M15.322 303.544c5.566-6.204 11.36-13.343 17.686-18.721.709-.602 3.02-1.172 3.995-1.464-.277 2.315-.384 4.246-1.805 6.162-5.174 6.976-11.989 13.164-17.793 19.664-.316-1.898-1.297-3.872-2.082-5.64M14.158 264.291c.155-.081 3.369-3.034 3.77-3.395.547 9.523 10.168 12.895 17.496 20.807-2.677.987-3.506 1.333-5.918 2.812-8.93-7.435-9.753-11.582-15.348-20.224"/><path d="M35.848 292.208a502 502 0 0 0 4.012 28.622c-6.315 3.561-21.215 14.402-23.421 21.482-1.206 3.872-.605 14.992-.38 19.357.734 6.692 6.985 11.384 11.386 18.836-.309 1.264-.016.724-.926 1.668-5.22 1.592-11.591-.968-16.335-3.06-1.333-2.972-.36-7.568.08-10.884-3.596-.896-7.502-.684-6.519-6.072.968-10.696.841-20.707.538-31.478-.113-4.003 9.882-8.255 11.246-13.2.534-1.933 2.226-3.595 2.59-6.377.164-5.286 12.975-13.4 17.728-18.895M57.127 225.067c22.736-7.597 35.023-13.664 49.036-33.49.508.448 1.322 1.092 1.694 1.606-5.765 7.536-8.217 10.632-15.179 17.003-2.503 17.146-8.485 26.903-19.211 40.052-1.384 1.697 1.501 1.648-.587 4.4-8.941-5.312-14.278-9.129-19.619-18.258l1.719-1.935.314.173c1.554-2.484 2.985-4.856 2.57-7.809z"/><path fill="#fcfafc" d="M57.127 225.067c22.736-7.597 35.023-13.664 49.036-33.49.508.448 1.322 1.092 1.694 1.606-5.765 7.536-8.217 10.632-15.179 17.003-2.503 17.146-8.485 26.903-19.211 40.052-1.384 1.697 1.501 1.648-.587 4.4-8.941-5.312-14.278-9.129-19.619-18.258l1.719-1.935.314.173c3.39 7.436 8.287 11.049 14.863 15.531.496-14.047 16.062-20.03 19.383-37.849-10.462 7.414-19.639 10.703-31.676 14.51z"/><path fill="#af1e1b" d="M450.04 364.964c5.752.496 14.824 6.672 17.688 11.476-6.824-.316-11.872 3.48-16.8 7.972a47 47 0 0 0-3.892 3.912c.256 2.708 9.064 9.164 12.892 7.348l.28-.336c1.272 1.24 4.064.6 7.3 2.316.196 2.74 4.5 6.432 6.692 10.185.804 1.636 3.212 1.664 6.348 1.716.028.016 1.084.08 1.532.648-.736 1.316-2.688 2.576-3.952 3.168-7.18 3.504-10.588-4.836-16.064-7.244-2.308-1.344-4.372 4.572-6.292 5.12-9.7 2.776-14.972 1.224-24.128 7.012.536-7.916 3.548-11.012 10.92-14.792-.676-4.368-.48-6.092-.02-10.432a182 182 0 0 1-6.948 7.332c-14.936 14.884-29.744 23.604-51.32 23.092-23.532-.56-39.572-7.156-55.892-23.648-17.976 23.612-40.312 42.348-71.768 40.168-31.84-2.204-49.597-21.604-69.303-43.992-3.113-3.284-6.718-7.92-11.287-8.532.585-3.524 8.531-4.168 12.455-4.562.77.328 5.628.624 8.366 1.121.696-1.656 33.904-.7 47.574 5.289.862 3.38 11.554 8.668 12.626 16.412l.82.092c1.12-6.312 4.776-9.948 9.512-13.9l2.66-1.58c7.736-3.464 13.764-3.504 22.028-3.529.904.52 16.216 1.568 21.944 3.248.564-4.088 18.612-4.696 26.36 1.636l-4.504.412c-3.02 2.164-4.612 4.14-6.996 6.973.924 1.032 24.92 2.316 31.86 1.836l-.44.444c.18.196.408.488.664.568.96 3.42 24.04 4.544 35.092 1.652.212-3.72 24.82-12.776 34.516-23.284.064-2.236 5.764-5.556 7.208-7.992l.416.308c3.92-3.552 6.996-5.508 11.852-7.624"/><path fill="#dfab16" d="M292.068 386.796c5.904.52 16.216 1.568 21.944 3.24-1.984 1.764-4.02 3.668-6.016 5.392-3.88 4.24-9.26 10.376-14.228 13.176l-.708-.1c-1.78 2.184-2.536 2.696-5.308 3.712a66.3 66.3 0 0 1-21.732 7.044l.336-.852c-8.448 1.04-9.048-6.384-8.488-12.604.12-6.312 4.776-9.948 9.512-13.9l2.66-1.58c7.736-3.464 13.764-3.504 22.028-3.528"/><path fill="#00205b" d="M266.356 418.408c6.304-5.296-.452-7.1.696-12.168.092-4.832 8.416-6.736 12.812-4.845.996 3.88-2.196 7.684 7.888 10.82a66.3 66.3 0 0 1-21.732 7.044zM285.148 392.4c10.136-.4 13.292.132 22.848 3.028-3.88 4.24-9.26 10.376-14.228 13.176l-.708-.1c.724-2.556-.26-4.228.432-5.283.264.876 7.176-1.58 6.436-4.836-1.284-1.248-6.016-1.344-8.424-2.472-2.42-1.136-4.084-2.152-6.356-3.516"/><path fill="#dfab16" d="M196.848 384.012c14.696-1.656 33.904-.7 47.574 5.289.862 3.38 11.554 8.668 12.626 16.412-.348 6.496-1.34 14.204-10.304 11.88l-.41.58c-4.528-.908-16.312-6.408-19.304-9.916-2.696-1.716-3.895-1.376-5.717-4.592l-.711.012c-2.296-1.844-15.647-13.304-16.078-14.764-1.134-.2-6.043-3.864-7.678-4.9"/><path fill="#00205b" d="m380.631 459.456.444-.12c6.64-1.856.824-6.988 6.676-8.692.03-1.464 12.508 1.432 13.46 7.164-.996 1.4-3.136 1.608-3.693 4.008-.731 3.144.406 5.132 2.825 6.976l-.41.58c-4.528-.909-16.312-6.409-19.304-9.917M204.526 388.912c5.807-.36 9.392-.644 15.214.012-2.158 1.024-4.154 1.788-5.302 3.964.117 3.616 6.632 3.128 9.246 3.108-2.208 3.228-2.776 3.708-2.37 7.668l-.711.012c-2.296-1.844-15.647-13.304-16.078-14.764M410.648 456.912l.82.092c-.56 6.22.04 13.644 8.488 12.604l-.336.852c-7.112.972-12.812.188-19.686-1.088l.41-.58c8.964 2.324 9.956-5.384 10.304-11.88"/><path fill="#aa2002" d="m544.848 460.882.444.188c1.004 1.732 1.432 2.056.488 3.98-1.408.856-2.052 1.364-3.72 1.588-.328 1.256-.16 1.844.056 3.124l-.368.588c-.824.024-1.412.108-2.2-.144l-1.764.384-5.32-.044c-1.336-.068-1.424.152-2.324-.492-.404-2.896.648-4.476-.016-8.888.084-.008 5.136-.184 7.012.444l.484-.084c1.652-.62 3.44-.56 5.228-.644"/><path fill="#f49c30" d="m544.848 460.882.444.188c1.004 1.732 1.432 2.056.488 3.98-1.408.856-2.052 1.364-3.72 1.588-.328 1.256-.16 1.844.056 3.124l-.368.588c-.824.024-1.412.108-2.2-.144-.02-2.368-.064-7.352-1.928-8.681.652-.62 3.44-.56 5.228-.644"/><path fill="#f49c30" d="m544.848 460.882.444.188c1.004 1.732 1.432 2.056.488 3.98-1.408.856-2.052 1.364-3.72 1.588l-.084-.744c-.696-1.456-.892-2.176-.504-3.568l.992-.404z"/><path fill="#aa2002" d="M390.864 410.72c1.316.564.952.2 1.656 1.308-.368 1.432-.736 1.792-2.144 2.664-.696-1.456-.892-2.176-.504-3.568z"/><path fill="#f49c30" d="M378.524 409.964c2.084-.008 5.136-.184 7.012.444l-.392 1.22c-2.32.612-1.604-2.26-4.596.452l-.068.596c1.824 1.864 3.46.24 3.56 2.2-1.596 1.34-1.552-.352-3.116 1.188-.024 1.032-.064 1.396.132 2.44l-.192.84c-1.336-.068-1.424.152-2.324-.492-.404-2.896.648-4.476-.016-8.888"/><path fill="#f59036" d="m534.656 469.704.408-.028c1.644-.124 1.9-.164 3.388-.84l.744.1.588 1.652-5.32-.044z"/><path fill="#f49c30" d="M314.612 396.38c9.26-.128 6.284 9.14 1.176 13.272l-.548-.316c-2.336-3.312-4.388-4.524-7.66-6.852.6-3.168 3.436-4.256 7.032-6.104"/><path fill="#aa2002" d="M313.184 398.736c4.94.296 7.388 3.864 3.66 7.988-1.996-2.184-4.8-3.608-5.628-5.912.412-1.32.556-1.056 1.968-2.076"/><path fill="#f59036" d="M363.652 412.9c.896-1.796.692-4.372 2.108-5.228l1.22.421.08.164c1.252.24 4.1.692 5.18 1.184.448 1.576 6.284 5.42 1.592 7.708-3.164 1.544-4.8.952-8 .4-1.312-.36-1.508-.484-2.716-1.152l.868-2.784z"/><path fill="#aa2002" d="M363.652 412.9c.896-1.796.692-4.372 2.108-5.228l1.22.421.08.164c1.308 2.256-.192 7.024-1.228 9.292-1.312-.36-1.508-.484-2.716-1.152l.868-2.784z"/><path fill="#f59036" d="M363.652 412.9c.896-1.796.692-4.372 2.108-5.228l1.22.42-1.996 5.52z"/><path fill="#aa2002" d="M371.164 409.712c4.004 1.644 3.828 3.848 1.728 7.184-1.46.296-1.924.528-2.852-.664-.296-1.892.608-4.56 1.124-6.52"/><path fill="#f59036" d="M218.268 421.484c-1.012-.676-1.25-.844-2.112-1.696.649-1.98 2.971-2.84 3.96-5.048.446-.992 1.389-2.656 1.933-3.696l.434-.104.11 1.376c1.496 1.004 3.195 1.944 4.106 3.468l.027.9c-1.507 1.56-2.131 1.404-2.663 3.128.524 2.264.63 1.48.022 3.388-2.394 2.132-5.566-.164-7.819-1.716"/><path fill="#f49c30" d="M218.268 421.484c-1.012-.676-1.25-.844-2.112-1.696.649-1.98 2.971-2.84 3.96-5.048.446-.992 1.389-2.656 1.933-3.696l.434-.104.11 1.376-.58 1.176c-.997 1.236-1.298 1.48-1.828 2.936l-.202.92c-1.383 1.184-1.679 1.552-2.779 3.016z"/><path fill="#aa2002" d="M221.984 417.348c1.297.988 1.622 1.072 2.063 2.54-.21 1.432.109.86-.95 1.796-1.738.38-2.566-.216-3.892-1.321.1-1.464 1.396-1.832 2.779-3.016M224.015 413.492c1.657 1.096 1.532.668 2.281 2.208-.388 1.204-.025.724-1.25 1.388-1.452.036-1.511-.028-2.86-.66.531-1.456.831-1.7 1.828-2.936"/><path fill="#f49c30" d="M243.606 422.092c2.874.54 6.642.856 8.706 2.812.812 2.304-.532 3.292-2.376 4.468.576 1.704 1.684 3.888 1.068 5.272-1.328.248-1.724.036-3.08-.308-.98.012-1.55-.156-2.512-.336-1.222-.34-2.409-.664-3.613-1.068.063-1.104.154-.956.557-1.872.06-2.404 1.21-6.328 1.25-8.968"/><path fill="#aa2002" d="M245.412 434c-.164-1.656-.443-2.708.19-4.22l.699-.54c1.926.896 1.862 3.18 1.622 5.096-.98.012-1.55-.156-2.512-.336M246.704 424.128c1.336.252 2.168.232 3.028 1.196.156 1.468.136.976-.6 2.492-1.188.132-1.688.316-2.724-.26-.485-1.036.008-2.252.296-3.428"/><path fill="#f49c30" d="M417.248 399.144c2.464-.164 5.912 1.208 5.324 4.28-.688 3.596-2.516 4.592-5.316 6.6-1.12-1.26-3.908-6.148-4.92-7.841.644-1.272 3.104-2.032 4.912-3.04"/><path fill="#aa2002" d="M415.312 400.824c4.604-.288 6.596 2.52 4.276 6.624-.616.048-.8-.012-1.416-.084-1.416-1.46-3.596-4.492-2.86-6.54"/><path fill="url(#b)" d="M233.14 417.78c2.029.74 6.475 1.884 7.266 3.804l-.471.876c-.942.612-1.6 1.032-2.466 1.74.104.976.185.516-.305 1.416-2.35-.256-1.358-1.064-3.678-.684-.955.944-.915 1.128-1.224 2.504.355 2.28 3.698.908 5.06 1.832l-.796 1.424-.731.128c-1.828-.7-5.856-2.108-7.118-3.422.09-3.96 2.973-5.364 4.463-9.62"/><path fill="#aa2002" d="m391.069 475.4-1.891-.388c-1.123-.988-.809-.396-1.071-1.78.608-1.028.328-.688 1.59-1.248.561-.02 2.469.804 3.838 1.676-.942.612-1.6 1.032-2.466 1.74"/><path fill="url(#c)" d="M303.184 406.844c.72-.688 1.312-1.288 2.12-1.884l.208.404c1.432 2.764 3.836 5.676 5.624 8.524l-.284.352c-2.164-.312-8.076-1.628-9.732-1.652l-.98 1.156c-.904-.74-1.868-1.332-2.204-2.416.676-1.204 1.392-1.328 2.728-2.108z"/><path fill="#aa2002" d="M303.184 406.844c2.084 1.668 2.852 2.532 4.632 4.552q-3.588-1.049-7.152-2.176zM508.152 454.976l.624.896.988 1.292c-.184 1.004-.368 2.228-.6 3.204l1.408.048c-.888 1.852-1.06 4.492-1.832 5.596-.816.076-1.052-.128-1.804-.468l-2.416-1.384c-1.256.224-1.76.144-2.46-.864.48-2.208 2.208-5.324 3.092-8.32"/><path fill="#f49c30" d="m508.152 454.976.624.896c-1.096 2.1-3.12 6.036-3.256 8.288-1.256.224-1.76.144-2.46-.864.48-2.208 2.208-5.324 3.092-8.32"/><path fill="#f59036" d="m512.164 460.368.408.048c-.888 1.852-1.06 4.492-1.832 5.596-.816.076-1.052-.128-1.804-.468.32-1.472 1.66-3.264 2.228-5.176"/><path fill="#f49c30" d="M290.724 415.54c2.6.88 7.652 5.384 10.1 7.296-1.444.88-1.86 1.496-3.292 1.416q-.191-.301-.388-.596c-1.036-1.556-1.068-1.44-2.604-1.748-2.916 2.076-2.512 1.868-1.668 5.212l-.628.752-.708.028c-1.56-2.204-2.456-10.024-.812-12.36"/><path fill="url(#d)" d="M440.864 376.164c1.416-1.504 3.18-3.612 4.944-4.52l.704.228.216.876.2 1.396.408 1.064c-.536 1.132-.756 1.184-1.828 1.936.448 1.204 1.048 1.944 2.252 2.228.024-.564 1.596-2.096 2.164-3.212l.62-.008.68.864c-.176 1.12-3.38 4.132-4.58 5.576q-.084-.127-.168-.248l-.288-.404c-1.852-2.628-3.656-4.016-6.324-5.776"/><path fill="#aa2002" d="m600.328 423.948.2 1.396.408 1.064c-.536 1.132-.756 1.184-1.828 1.936l-.94-.5c-1.116-.528-1.412-.66-1.728-1.748.688-1.204 1.624-1.492 2.888-2.148"/><path fill="#f59036" d="m601.528 425.344.408 1.064c-.536 1.132-.756 1.184-1.828 1.936l-.94-.5z"/><path fill="#f49c30" d="m562.344 455.681.324-.932.74.148c.964 1.74 1.052 3.072 1.804 4.96.724 1.62 1.048 1.64.82 3.228-1.964.38-5.184-3.14-7.208-3.336l-1.012.82a25 25 0 0 0-1.46-2.448c.552-.928.788-.704 2.204-1.124z"/><path fill="#aa2002" d="m562.344 455.681.324-.932.74.148c.964 1.74 1.052 3.072 1.804 4.96l-1.064.056c-1.316-.124-4.276-2.12-5.592-2.916z"/><path fill="#f59036" d="m562.344 455.681.324-.932.74.148c.964 1.74 1.052 3.072 1.804 4.96l-1.064.056c-.892-2.028-1.288-2.648-2.804-4.232"/><path fill="#f49c30" d="M207.954 397.48c.772.52 1.901 1.82 2.594 2.548-2.778 1.86-5.075 3.92-7.523 6.164.421 1.568 1.906 1.78 3.884 2.552l.405.152.135.836-1.167.564c-2.159-.24-4.718-3.916-6.189-5.73.532-2.336 5.274-3.792 7.862-7.116M395.372 408.948c1.72-.416 4.996-1.552 6.424-1.184l.284.792-.248.488c-1.28-.172-1.864-.424-2.996.22-.588 1.244-.476.596-.268 2.024l.612.656c1.116-.14 1.24-.204 2.32-.576l.408.444-.3.588-2.176.636c-.448 1.104.044 2.16.388 3.348l.2 1.016c-1.468.3-1.292.508-2.448.048-.216-1.056-.348-1.996-.5-3.06-1.248-.336-1.62-.444-2.892-.54.944-1.924.516-2.248-.488-3.98z"/><path fill="#aa2002" d="M395.372 408.948c.664 1.912 1.2 3.48 1.7 5.44-1.248-.336-1.62-.444-2.892-.54.944-1.924.516-2.248-.488-3.98z"/><path fill="#f49c30" d="M262.228 424.872c.02 2.824-.204 7.372.616 9.96l-.452.48c-.312.028-3.44.36-3.408-.172.156-2.792 1.668-7.224-.048-9.596l-.76-.044c-.692.54-1.152 1.04-2 1.124-.216-1.3-.296-.704.136-1.856.556-.628 3.612-.424 5.36-.404zM267.884 424.168c1.896-.592 2.66-1.08 4.232-.292.888 1.868 1.412 2.868 3.328 3.744l1.02.296-.06.424c-.368 2.536 1.048 3.836.672 5.032-5.456 1.536-2.156-.956-3.74-3.596-.864-1.44-4.096-4.296-5.452-5.608M216.136 405.832c.892.46 2.241 1.66 3.065 2.34-3.01 2.272-5.653 5.06-7.272 8.484l-2.792-2.936c3.211-2.472 4.822-4.48 6.999-7.888M359.164 405.964c1.244-.204.788-.188 2.072.321.348 1.58 1.896 4.54 2.416 6.616l1.332.712-.868 2.784-.284.236-.788-.076c-.98-1.32-1.896-5.264-2.748-7.404l-.324.064-1.408-.048c.232-.976.416-2.2.6-3.204M435.388 388.616c.98 1.012 2.764 2.476 3.016 3.616-3.072 1.26-7.136-1.98-8.368-.22l-1.024.292c-.892-.724-1.06-.852-1.768-1.744l.124-.724c2.736-1.512 6.232.46 7.648-.332zM589.828 432.004l.588.672c.756 2.392 1.788 5.176 4.688 4.716.456-.984 2.02-2.128 2.944-3.604l.616-.12.476.548c-.116 1.244-2.352 4.36-3.488 4.848-5.18 2.212-6.924-2.996-5.824-7.06M575.66 445.984l.636.788c1.148 1.3.724 1.232 2.084 1.48.68-.464 1.372-.92 2.068-1.364l.564.616c-1.196 2.064-1.58.956-1.624 2.852.852 1.016.968 1.18 2.032 1.944l.268.936c-.856.76-1.152 1.132-2.248 1.52-.316-.8-.904-2.352-1.404-3.008-1.216-1.592-3.528-2.296-3.692-4.308zM301.12 412.588c1.896 2.444 3.016 3.908 5.408 5.884l-1.712 1.292c-1.08-.26-3.412-4.532-4.676-6.02z"/><path fill="#f49c30" d="M275.444 427.62c1.004-2.068.908-2.736.844-4.981.292-.58.86-.6 2.088-.416.208 1.464-1.232 4.124-1.912 5.692z"/><path fill="#f59036" d="M406.224 408.548c.44 2.208 1.372 3.46 2.592 5.316-.776.728-.748.796-1.812 1.096-.56-2.332-.784-3.436-1.792-5.592zM430.036 392.012c1.608 1.796 2.384 2.364 4.316 3.788-.292.92-.028.512-1.024 1.1-.904-.316-3.328-3.512-4.316-4.596z"/><path fill="#de6a2d" d="M435.016 389.504c-1.572-2.028-2.752-1.82-3.484-2.984.352-1.156.024-.688 1.092-1.392.304.576 1.632 1.888 2.764 3.488z"/><path fill="#f59036" d="M399.82 416.384c2.02-.804 2.744-1.512 4.664-1.32l-.58.68.368-.128c-1.568 1.216-2.376 1.312-4.252 1.784zM436.228 380.804c1.188-1.536 2.904-3.112 4.884-1.728l-.42.7c-2.152.184-2.456-.184-3.876 1.7zM427.82 401.1c1.08-1.456 1.356-2.368 2.816-2.924.468 1.648-1.396 2.864-2.548 3.86zM261.672 424.364c1.784-.128 2.096-.44 3.544.292l.528.852-.44.632c-1.244.064-1.972-.584-3.076-1.268zM422.06 394.784c1.064-.952 1.936-2.016 3.268-2.16l.812.568-.176.524c-1.484.576-2.156.704-3.268 1.856z"/><path fill="#dfab16" d="M125.122 329.333c5.741 5.49 12.252 7.11 19.954 5.903.752 4.976 10.116 8.864 12.092 17.883.345 15.264-13.478 30.596-27.445 21.388-1.123-.74-2.294-2.412-3.053-3.644-1.279-.996-.955-1.08-2.227-1.072-.939.936-1.153 2.836-1.416 4.222.135 7.248 8.866 13.98 16.654 14.264-.19-1.528-.541-2.952-.046-4.356l.682-.296c5.611 2.792 8.746 5.332 15.07 6.416-2.082-2.816-2.392-3.388-3.112-6.893.356 3.068 17.912 7.6 23.753 4.308.569.612 8.174 5.248 11.287 8.532a360 360 0 0 1-9.674 1.664c-14.364 15.676-27.678 29.716-51.07 25.632-21.011-3.664-34.079-15.556-49.345-29.292.124 3.824.487 7.112-1.765 10.248l-.298.408c.515 1.876 6.013 5.124 6.3 9.404.094 1.408.6 4.296-.48 5.904-1.096-1.008-4.131-3.792-5.358-4.188-8.201-2.656-11.531-.292-16.752-8.172-8.587 9.12-17.024 9.92-24.843-.596.25 8.088 15.104-5.22 22.64-13.172.332-1.66 8.654-4.624 11.79-9.1-4.688-5.92-10.528-11.252-17.69-13.864.524-3.2 8.185-8.612 11.014-11.112.211-1.068 2.669-1.292 4.256-1.292.059-14.99 36.014-29.42 59.085-29.123"/><path fill="#af1e1b" d="M66.038 358.456c6.958 3.78 7.877 5.132 13.108 10.408.393 16.42 33.222 34.152 58.337 34.685.985.124 11.447-1.884 16.239-5.468.716.516 15.302.296 23.918-.44-14.364 15.676-27.678 29.716-51.07 25.632-21.011-3.664-34.079-15.556-49.345-29.292.124 3.824.487 7.112-1.765 10.248l-.298.408c.515 1.876 6.013 5.124 6.3 9.404.094 1.408.6 4.296-.48 5.904-1.096-1.008-4.131-3.792-5.358-4.188-8.201-2.656-11.531-.292-16.752-8.172-8.587 9.12-17.024 9.92-24.843-.596.25 8.088 15.104-5.22 22.64-13.173.332-1.66 8.654-4.624 11.79-9.1-4.688-5.92-10.528-11.252-17.69-13.864.524-3.2 8.185-8.612 11.014-11.112.211-1.068 2.669-1.292 4.256-1.292"/><path fill="#f49c30" d="M94.713 389.424c2.252 1.688 8.98 5.716 5.786 9.052-1.328 1.384-3.284-1.236-3.63 3.124-.142 1.008-.165 2.772-.201 3.832-.836-.596-3.13-2.16-3.756-2.784-.953-.816-.991-.884-1.744-1.904l-.565.128c-1.111-.792-1.77-1.272-2.766-2.23.384-3.08 4.62-5.36 6.876-9.248"/><path fill="#aa2002" d="M91.169 400.744c.494-1.516.562-2.128 1.693-3.276l.869-.192c1.903 1.716.381 3.708-.818 5.372-.953-.816-.991-.884-1.744-1.904M95.911 393.016c1.338.044 1.732.38 2.499 1.38-.009 1.64.048 1.072-.894 2.64-1.305-.232-1.968-.196-2.874-1.064-.031-1.54.296-1.5 1.27-2.956"/><path fill="#f49c30" d="M132.537 407.58c2.56.04 6.011-.46 8.267.376.575 1.124.432.68.108 2.196-.23.428-.764 1.352-.891 1.764l-.124 1.524-.647.388-.257-.084c-1.151-.368-1.914-.52-3.099-.744-.328 1.82-.846 2.956.381 4.481.3.316 2.612-.692 4.732-.82l.478.496-.121 1.256c-1.323.936-7.251.44-9.356.41.225-3.14 1.344-7.924.529-11.232"/><path fill="#aa2002" d="M135.88 412.456c-.02-.828.03-1.692.058-2.52.765-1.216.25-.816 1.564-1.288.686.22 1.992.524 3.41 1.504-.23.428-.764 1.352-.891 1.764l-.124 1.524-.647.388-.257-.084c-1.151-.368-1.914-.52-3.099-.744z"/><path fill="#f49c30" d="m293.621 463.116-.124 1.524-.647.388-.257-.084c-1.151-.368-1.914-.52-3.099-.744l-.014-.544c1.488-.02 2.683-.284 4.141-.54M118.227 404.224c1.362.316 2.469.452 3.629 1.212-1.498 2.712-4.049 7.968-1.058 10.385.577.768 4.273-5.48 5.001-9.24l1.564-.164.748.76c-1.165 5.688-4.287 14.3-11.004 7.656-1.392-1.38.797-8.428 1.12-10.604M76.48 371.764c1.072.744 1.218.912 2.106 1.888.186 1.204-3.064 6.276-3.83 8.548.87-1.252 5.647-1.148 7.465-4.424.879.036 1.648 1.152 2.437 1.948-.684.592-9.089 4.04-10.642 4.012-1.206-.024-.954-.076-1.707-.776-.476-2.712 2.787-8.28 4.171-11.196M87.984 383.5c.596.436 2.127 1.992 2.737 2.58-3.582 2.832-4.91 4.288-7.549 8.124-.865-.724-1.832-1.812-2.632-2.644.936-2.612 5.26-4.796 7.444-8.06M262.506 450.784l.499 1.784-1.269.604c-1.82 2.248-3.457 6.624-4.552 9.412-.851-.324-2.371-1.26-3.219-1.748.05-2.732 3.832-6.2 5.215-9.32z"/><path fill="#f59036" d="M108.58 400.316c-1.317.116-2.143.348-3.266-.24l-.254-.844.726-.608c1.666-.184 1.467.056 3.12.96zM112.405 401.368c1.56.984 1.286.488 1.797 1.928l-.144.824c-1.972.16-1.707-.836-2.922-2.148z"/><path fill="#00205b" d="M104.135 367.04c-3.129-1.088-5.251-2.084-6.665-5.3l.235-.528c3.359.272 5.637 1.956 8.726.704.081-1.148.752-.624 1.125-2.204-1.426-4.056-5.134-6.924-2.53-11.82.09-11.449 27.121-10.62 37.226-6.444.175 4.618 13.338 28.18-1.995 27.147l-.544-.392.274-.516c2.096-3.996 1.235-6.02.179-10.436-5.884-6.496-13.548-6.044-19.794-.268-8.677 8.02-6.887 22.496 1.278 30.173.683 8.552 20.62 9.988 32.071 10.932-4.792 3.576-10.254 5.584-16.239 5.46-25.114-.532-41.944-18.264-58.337-34.684l.951-2.012.592-.168c1.036.912 1.383 1.324 2.623 1.868.305-.364 1.726-.648 2.482-1.976a38 38 0 0 0 .847-1.608c.991 3.284 1.873 6.144 5.247 7.585.993 2.556 9.697-.852 12.248-5.512"/><path fill="#0d2c3b" d="M125.41 362.924c.265 3.524.27 4.528 1.259 7.936-1.279-.996-.955-1.08-2.227-1.072-.939.936-1.153 2.836-1.416 4.22-.618-4.6.506-6.968 2.385-11.084"/><path fill="#0e6a34" d="M166.412 279.198c-.546 8-.95 17.958 1.097 25.781.349-4.91 2.052-7.945 4.608-12.44-1.345 8.728-1.876 18.53-.452 27.274.556-4.013-.163-11.136 2.987-13.944.169-9.064 8.998 9.587 8.857 13.452-.796-2.541-2.314-7.92-4.972-8.978l-.614.728c-1.052 4.584.642 13.335 1.482 18.075.049-1.94 1.861-3.602 3.964-4.53.778-.024 2.899.378 3.705 2.122.852 12.663 6.937 21.019 18.984 30.072-4.482-7.592-5.428-10.917-5.936-19.529.863 6.804 6.418 10.22 11.653 15.924l1.608-1.488c6.56-4.252 37.673 22.352 43.761 27.25.724-10.557 15.748-18.48 30.336-21.869-4.844 8.916-10.812 14.108-19.16 19.51.42-.328 5.064-1.152 6.196-1.684.508-6.396 17.936-16.8 32.576-22.296-3.796 7.048-6.704 10.592-11.932 16.664.712-1.256 15.496-3.836 16.964-8.448.456-10.856 4.888-16.179 12.116-25.794.604 10.458.1 14.758-5.08 24.343.224-4.276 11.408-7.584 14.548-14.637-3.408-10.344-6.196-15.104-2.152-26.219.636 7.528 7.336 11.845 6.58 21.242.46-4.478 4.612-8.009 5.512-13.125-6.96-12.05-9.88-12.789-8.272-27.94.284 8.963 7.908 12.184 10.192 22.932.532-12.14-1.432-10.513-3.52-21.564-.816-4.326-1.364-12.997-1.748-17.624.728 4.066 7.508 7.746 9.648 13.691.124 8.681-.052 16.528-1.04 25.352.436-2.02 2.848-4.062 4.356-6.032.84-5.015 8.56-9.276 12.384-14.302-1.072 16.38-5.712 20.036-17.912 27.923-1.472.953-7.336 12.853-9.028 15.668.504-6.961 11.868-9.16 21.192-12.931-4.824 12.66-13.408 17.595-26.236 19.59-3.196 3.12-5.772 5.345-9.224 8.27.816-2.511 14.62-3.075 22.132-5.063-16.128 23.08-26.38 7.504-37.556 13.649.148.34 14.42 1.736 22.724 5.868-7.988 2.764-21.552 4.964-29.332 2.164-10.856-3.904-10.764-2.996-22.328.217.6 2.176 13.32 4.296 20.728 7.072-3.364 1.268-5.176 1.776-8.728 2.424l-.012.868c-8.264.024-14.292.064-22.028 3.528l-2.66 1.58c-4.736 3.952-8.392 7.588-9.512 13.9l-.82-.092c-1.072-7.744-5.764-13.032-12.626-16.412-13.67-5.988-32.878-6.944-47.574-5.288-2.739-.496-5.596-.792-8.366-1.121.651-.788 2.467.56 4.402-.94.321-3.576 15.304-7.088 20.886-8.612-9.029-.536-13.365.428-23.018-1.364l12.796-3.592c-2.338-1.136-4.399-2.656-6.831-3.808-5.506-2.616-13.422-3.488-19.531-3.916-.582 5.7-2.3 10.112-4.053 15.516-5.374-17.548-8.496-23.944 13.656-21.716-13.508-6.77-28.982-15.437-38.35-27.577.64 2.936 12.133 4.88 19.515 8.568-6.344-11.268-9.402-21.362-19.464-28.976.27 2.965 10.31 4.97 16.074 11.202a397 397 0 0 0-6.742-21.785c1.708 2.297 3.575 5.368 5.156 7.818.258-9.61.685-15.31 3.434-24.554"/><path fill="#00205b" d="M192.884 381.992c5.708-.336 11.384-1.556 16.929-2.024.582-.972 26.152-.304 37.352 3.068-1.622.968-3.79 2.064-4.907 3.488-.038 1.696.958 1.58 2.506 1.924l-.342.852c-13.67-5.988-32.878-6.944-47.574-5.288-2.739-.496-5.596-.792-8.366-1.121.651-.788 2.467.56 4.402-.9"/><path fill="#00205b" d="M244.764 388.448c2.82-1.044 5.628-2.604 8.316-46.296 2.444 8.604 3.812 14.3 7.456-4.736M270.04 390.324c-1.424-4.724-6.948-6.132-8.872-8.896.896-2.412 16.844 2.6 22.204 3.556.64.652 4.856.94 8.708.944l-.012.868c-8.264.024-14.292.064-22.028 3.528"/><path fill="#0d2c3b" d="m365.374 404.404.608-1.488c3.88 4.996 13.078 11.332 17.972 15.756-6.927-4.008-14.185-8.264-19.581-14.268M187.415 339.342c2.562.807 7.576 11.574 8.663 14.306-4.367-3.176-7.999-8.906-8.663-14.306"/><path fill="#dfab16" d="M385.948 331.43c20.036.656 33.184 7.93 48.572 20.522.996 4.088 10.376 9.288 15.52 13.012-4.856 2.116-7.932 4.072-11.852 7.624l-.416-.308c-1.444 2.436-5.144 5.756-7.208 7.992-9.696 10.508-20.304 19.564-34.516 23.284-11.052 2.892-24.132 1.768-35.092-1.652-.256-.08-.484-.372-.664-.568l.44-.444c-6.94.48-24.936-.804-31.86-1.836.384-2.832 3.976-4.808 6.996-6.972l4.504-.412c6.664.076 13.172-.508 19.352-3.252.816-.808 3.276-1.848 5.336-2.752l.564.276c.384 1.48-.048 2.696-.376 4.224.048-.86 8.248-3.988 10.064-3.536.468 1.244.116 1.752-.168 3.22l.36.34c11.444-2.864 15.38-14.88 10.452-25.128.144 3.652-.016 8.2-2.56 10.692-11.256 11.012-27.984-.896-27.824-14.688.124-10.596 3.772-15.448 10.08-22.358l3.112-2.186c8.348.208 9.928-1.509 17.184-5.094"/><path fill="#00205b" d="M372.124 370.088c-14.556-4.34-8.48-19.6.56-25.989.784-6.91 33.468-5.533 33.54 10.164.016 3.832-1.492 5.14-2.296 8.572.748 2.868 3.916 3.724 6.608 3.592.256-.164 5.064-2.42 6.992-4.752-.672 6.872-2.852 8.648-9.164 10.447.192 8.54 11.548 4.624 18.44-1.124.512 1.592.32 1.62 2.176 2.632.424-.476 1.576-1.26 2.772-2.644l2.46 1.412c2.252-.216.708-.788 2.484-1.308l1.076 1.196c-1.444 2.436-5.144 5.756-7.208 7.992-9.696 10.508-20.304 19.564-34.516 23.284-11.052 2.892-24.132 1.768-35.092-1.652-.256-.08-.484-.372-.664-.568l.44-.444c12.72-.268 26.844-5.336 33.812-16.532.624-9.044 4.528-20.692-5.04-26.444-7.544-4.536-16.696-2-18.216 7.18-.268 1.656.112 2.928.668 4.52z"/><path d="M55.534 125.138c-.203 2.275-1.423 12.099.244 13.152.415-2.304 2.634-11.068 6.836-12.829l.971.462c1.764 2.157 2.281 5.19 2.895 7.883.484-.72 8.534-2.588 13.506-7.927-.795 3.06-1.259 5.112-2.587 8.018.718.159.723.218 1.442.2l.791.586c.286 2.724-.282 5.078-.444 7.738.638.489 4.237.879 5.203 1.707-.774 2.228-6.922.924-9.632 2.023l-.063.545c3.873 2.856 15.584 7.686 20.439 8.904.107 2.76 2.36 5.689 3.202 8.524-2.146 6.86-2.081 8.39-9.571 6.146.895 1.19 1.723 1.962 1.79 3.39-1.463 3.682-6.358 1.584-8.686-.14l-.885 5.175c6.294 2.138 13.577 4.505 19.008 8.53l1.79 1.344c1.832.93 3.704 2.673 4.381 3.01-14.014 19.826-26.3 25.893-49.036 33.49l.736 1.742c.415 2.954-1.016 5.326-2.57 7.809l-.314-.173c.416-1.135.359-1.213.135-2.444-4.193-3.65-4.896-4.846-7.294-9.795.094 4.155.487 6.036 1.36 10.013-4.513-2.16-5.453-4.17-8.878-6.377-7.215-4.65-8.49-3.58-12.746-11.26-.246 2.079-.405 4.405-.595 6.51-1.901-3.486-3.154-6.946-4.595-10.64-2.263 2.073-3.685 2.736-6.404 4.114.916-13.143-3.184-12.898-.053-28.217l-3.88 2.24c-.02-2.27.269-4.858.469-7.15-2.144-4.084-3.077-7.302-2.828-11.933.344-6.378-.394-9.04 3.283-14.579-3.395-1.185-4.232-1.448-6.59-4.178.485-2.713 6.418-5.466 9.665-8.459-.836-.908-1.732-2.338-2.444-3.392.751.333 5.053.806 7.753 1.356-.802-2.863-.943-4.612-1.02-7.558.912 3.594 7.919 5.617 12.764.318.448-4.866 8.737-4.48 13.918-1.092.949-3.014 4.616-5.176 8.533-6.785"/><path fill="#af1e1b" d="M78.823 168.361c1.346.766 1.777 1.017 3.243 1.484-.054 1.157-.079 2.542-.197 3.674l-.885 5.174c6.294 2.138 13.577 4.505 19.008 8.53l1.79 1.344c1.832.93 3.704 2.673 4.381 3.01-14.014 19.826-26.3 25.893-49.036 33.49-.14-2.266-1.528-5.437-2.473-7.473.315-1.011 2.482-2.295 3.591-3.032.513-6.98 17.221-24.034 19.19-36.366l.978-5.758z"/><path d="M80.984 178.693c6.294 2.138 13.577 4.505 19.008 8.53-8.38 11.358-21.827 21.784-35.036 26.633.062-13.853 11.866-18.227 16.028-35.162"/><path fill="#fcfafc" d="m253.592 238.422.79 1.344c-11.9 14.39-24.014 22.877-41.865 28.842.892-1.67 2.852-2.237 5.04-3.554.209-4.849 26.656-15.275 35.036-26.633"/><path fill="#af1e1b" d="M78.682 167.989c-4.11-1.328-23.679-10.318-26.42-12.948-.998-2.677 3.528-10.644 5.844-12.125.356-.182 2.169-.245 2.854 1.023-1.999 8.016-12.754 6.994 6.783 15.523.897 1.7 8.093 4.076 12.16 5.276-.775 1.384-1.013 1.698-1.221 3.254"/><path fill="#00205b" d="M63.07 174.137c7.337-.765 7.01-2.206 15.343-1.698l-.978 5.758c-4.21.401-10.671-2.258-14.365-4.059M55.114 232.001c.307-3.91-1.39-9.879-.46-14.407.945 2.036 2.333 5.207 2.473 7.473l.736 1.742c.415 2.954-1.016 5.326-2.57 7.809l-.314-.173c.416-1.135.359-1.213.135-2.444"/><path fill="#fcfafc" d="M79.903 164.736c1.563.021 1.922-.05 3.143.881 1.967.41 2.723-.98 4.23-1.466"/><path fill="#0d1b32" d="M73.261 138.894c1.394-1.83 2.614-3.27 4.136-4.999.718.159.723.218 1.442.2-1.694 1.886-3.586 3.253-5.579 4.799"/><path fill="#fcfafc" d="m220.983 203.132.715.206c.344 1.608.556 2.204-.637 3.438l-1.918-.017c-1.374-.708-1.39-.44-2.033-1.555.661-1.053 2.606-1.577 3.872-2.072M71.116 151.711c1.052.294 1.399.596 2.293 1.186.571 1.181.508.638.064 2.075-1.533.457-1.4.716-2.436.19-.024-1.214.021-2.238.08-3.452"/><path d="M445.308 135.111c.604-2.755.996-5.729 2.824-7.875l1.056-.49c3.612 1.37 5.416 10.546 7.54 14.394.14-5.609-.292-9.962-.364-15.334.532 2.143 5.464 4.13 8.444 6.945.46-2.982 8.992-4.215 12.916.103.328 5.862 7.74 4.802 13.868.47-.06 3.09-.184 4.565-.688 7.613.484-.488 5.124-.96 7.576-1.508-.98 1.4-1.696 2.522-2.916 3.742.396 2.214 6.408 5.758 10.128 8.453l-2.756 2.967c-1.376.402-2.72.81-4.112 1.154.312 6.046 3.728 12.068 3.308 19.261-.144 2.49-1.752 5.45-2.596 7.771-.448 1.184.696 4.022-.056 6.612-1.48.255-1.94-1.666-3.012-.996-.084 2.027.456 6.815.2 7.944-2.172 9.52-4.812 9.978-.652 19.3-2.512-1.475-4.08-2.397-6.4-4.192-1.644 4-2.796 6.744-4.964 10.554-.232-1.868-.452-4.113-.776-5.933-1.152 1.981-3.34 5.511-5.372 6.553-5.172 2.653-10.724 8.117-15.76 10.25.524-2.392 1.66-6.91 1-9.137-2.872 4.69-1.648 5-7.024 9.338.012-2.562.7-11.34-.132-12.76-.84 2.12-1.44 3.367-1.692 5.64-22.272-7.847-35.532-13.718-49.452-33.572.26-.124 4.012-2.809 4.5-3.154l1.76-1.073c8.252-4.98 10.028-5.927 19.268-8.37-.332-1.625-.552-3.36-.796-5.008a34 34 0 0 1-1.308.564c-2.324.952-6.38 2.313-7.548-.724.172-1.563 1.232-2.44 2.316-3.682-7.24 2.083-7.784 1.556-9.916-5.584a52.6 52.6 0 0 1 2.976-8.707c4.048-.952 18.34-6.074 20.264-9.76-2.088-1.41-8.3 1.477-9.632-2.154.592-.547 3.768-1.037 5.444-1.459-.484-2.898-.664-5.939-.768-8.872.78-.081 1.204-.432 1.876-.843-1.056-2.716-1.512-4.365-2.236-7.208.924 5.878 5.964 7.474 13.664 8.772"/><path fill="#af1e1b" d="M429.536 170.797c1.416-.29 1.852-.535 3.192-1.14.148 1.152.308 2.835.572 3.922l.988 5.931c3.148 15.293 8.648 29.11 22.16 38.023q.33.217.66.428c.112 1.136-.052 1.32-.52 2.342-.84 2.12-1.44 3.367-1.692 5.64-22.272-7.847-35.532-13.718-49.452-33.572.26-.124 4.012-2.809 4.5-3.154l1.76-1.073c8.252-4.981 10.028-5.927 19.268-8.37-.332-1.625-.552-3.361-.796-5.008z"/><path d="M430.972 179.775c1.98 9.487 5.664 21.048 11.456 28.767.752 1.004 3.764 4.92 3.456 5.752-14.952-6.72-24.112-13.472-34.18-26.15.252-4.98 10.028-5.927 19.268-8.37"/><path fill="#fcfafc" d="m563.544 240.417.76-1.073c10.068 12.676 19.228 19.428 34.18 26.15.4 1.361 3.92 2.504 6.132 4.154-17.604-6.123-30.56-14.706-42.072-29.23"/><path fill="#af1e1b" d="M456.172 153.992c-2.296-6.221-4.244-6.043-5.856-9.61.664-.726 1.372-.78 2.388-.734.048.199 6.864 9.434 7.684 12.08-8.184 5.072-18.572 9.439-27.484 13.387-.032-1.634-.368-1.963-1.3-3.343.932-.98 21.216-9.348 24.568-11.784"/><path fill="#00205b" d="M433.3 173.579c3.476-1.415 11.812.573 15.608 1.31-4.048 2.521-9.772 4.918-14.62 4.62z"/><path fill="#fcfafc" d="M429.536 170.797c-1.228-1.665-1.432-2.156-.72-3.984.06-.93 1.312-.854 2.788-1.037.932 1.38 1.268 1.709 1.3 3.343l-.176.538c-1.34.605-1.776.85-3.192 1.14"/><path fill="#0d1b32" d="M433.88 133.547c1.376 1.884 2.664 3.631 3.92 5.598-1.56-1.306-4.212-3.662-5.796-4.755.78-.081 1.204-.432 1.876-.843"/><path fill="#fcfafc" d="M443.692 152.721c1.6.464 3.96.894 4.796 2.193l-.508.882c-1.28.382-2.456.889-3.74.696-.772-1.257-.508-2.095-.548-3.771M593.42 203.779l.772.378.84 3.579-.592.397c-1.62-.66-2.1-.79-2.848-2.107.508-1.48.44-1.075 1.828-2.247"/><path d="M220.952 88.919c5.121-11.079 13.325-6.804 16.17-15.069.619-1.798-12.319-9.158-13.327-10.834.489-5.016 9.59-2.004 13.282-2.526.4-.34 8.615 3.865 9.948 6.053.844 6.315.428 13.085.672 19.777.036.83.884.99 1.528 1.172.52-2.65 3.568-23.43 18.008-16.677a18 18 0 0 1 4.928 3.356c2.796 2.631 6.028 6.81 8.488 9.815.596 10.484 17.272 20.255 27.776 28.917.296 3.542 9.704 7.47 12.424 12.327-6.98-2.041-8.552-2.608-14.884-6.423.86 6.29 10.556 9.332 15.58 15.062-16.992-2.382-30.276-19.138-45.724-26.17-1.408-.642-3.24-.506-4.54.243-4.176 7.332 38.676 26.104 39.252 35.84-1.38.485-3.624.184-5.2.123a25.8 25.8 0 0 0-13.032 2.884c-5.56-4.417-12.104-9.687-17.856-13.808-.028 2.467-.344 6.02-1.816 8.062-3.82 2.373-4.764-2.585-4.2 6.661.988.394 3.976 1.67 4.84 1.901l.216 2.798c-1.58-.744-4.216-1.612-5.936-2.233-1.748.802-2.964 1.444-4.532 2.572-1.5 1.08-2.756 3.601-3.904 3.806-.796-1.748-.36-2.883.536-4.442-1.108-.27-1.988-.042-3.128.116a190 190 0 0 1-5.192-3.46c-2.18.862-4.14 1.673-6.396 2.31l-.828.934c.337.444.307.5.744.814-.544.147-1.148-.033-1.756-.127l-.357-.594c-.003-1.494 1.245-2.218 1.947-3.872-.706-.285-3.007.097-4.131.053l-.298-.014c2.831-3.774 3.354-2.288 7.274-1.973.836.307 5.712-3.245 4.18-6.72-1.36.436-1.812.765-3.148.263-2.423-2.228-6.587-13.078-7.655-16.534-6.485-1.69-10.796-4.104-16.721-7.14-.772-.395-1.3-.183-2.064.045-1.932 2.522-.287 28.092-4.543 32.162l-.588-.101c-.788-1.395-4.059-10.578-4.441-12.378-4.05-19.085-9.338-37.427-13.04-56.618-.994-5.156-.955-16.715 7.834-10.264.685 3.439 9.089 14.578 13.61 19.915"/><path fill="#00205b" d="m409.732 191.041.88.9c3.54 3.652 4.688 2.042 7.324-1.398.208 3.086.776 5.662-.944 8.216-1.46 1.184-5.512 2.67-7.228 1.097-1.412-3.453-.396-5.329-.032-8.816"/><path d="m652.58 318.652.816.477c1.872-1.111 3.484-5.22 4.432-7.054.516-6.805 11.04-13.27 19.316-10.788.108 3.629 13.144 15.372 12.504 25.516.064 5.679 25.276 29.619 21.68 45.392.724-2.354 9.536-.347 15.888 3.608-6.416.552-10.46.243-14.144 6.457a177 177 0 0 0 2.14 7.706c-8.592-2.03-11.668-4.216-16.148-11.314-10.992-4.64-13.516-6.26-15.288-18.196-6.604-.815-9.132-1.862-12.288-7.976-.588.786-1.428 2.2-2.184 2.52-1.212-1.916-3.668-13.47-4.864-16.384-1.936-4.712 6.728-13.587 6.284-17.055-.828-.299-1.044-.277-2.056.292-5.536 3.112-5.948 4.108-12.464 3.785.46 11.564 1.56 17.562-4.744 28.068-4.508-5.354-9.544-10.164-14.108-15.777.276-3.684 6.744-6.452 9.896-11.147.316-1.958 3.92-6.878 5.332-8.128M-24.008 274.701c-.264-5.89-.592-11.906 2.214-16.814.067-14.108 23.644-10.41 29.933 3.022.845 1.806 2.435 5.253 4.06 6.16l.894-.492.179.242c6.044 8.362 5.197 11.19 15.162 19.22a879 879 0 0 1-14.303 15.773c-6.47-10.292-5.972-16.756-4.758-28.197-1.157.028-3.494.111-4.567-.112-2.411-.5-7.582-4.13-9.828-3.476-.857 2.76 5.49 8.275 5.818 13.012.414 5.994-2.003 9.102-3.354 14.801-.312 1.316-.292 3.685-1.026 4.692-1.409-.257-1.212-.454-2.478-1.612-3.542 5.638-5.524 6.908-12.25 7.524-1.004 11.036-4.51 14.675-14.951 17.834-4.344 7.463-7.326 9.05-15.866 11.85.817-3.185 1.126-4.662 1.452-7.922-3.739-6.27-7.019-5.518-13.658-5.913.53-4.454 8.086-6.08 15.19-4.092-.319-2.712-.755-5.512-.589-8.245.248-4.1 3.117-15.862 4.719-19.528.979-6.818 11.146-15.014 18.008-17.73"/><path fill="#dfab16" d="M4.962 384.82c-4.481-1.188-12.563-4.812-10.572-10.616.45-7.14 15.936-7.096 10.807 3.004l-.218.424c1.683.616 3.468 1.036 5.206 1.484.744 2.092 11.115 4.652 16.335 3.06.91-.944.617-.404.926-1.668.704-.392 3.742-1.084 4.829-1.417.937-1.496 15.052-4.62 18.493-8.228.162 2.612 13.002 7.944 17.69 13.864-3.136 4.476-6.458 7.44-11.79 9.1-4.836.852-8.946 1.728-13.533 3.62l-.496-.24c.227-1.264.312-1.552.817-2.732-1.042-1.328-1.268-1.592-2.601-2.616-7.966 5.608-11.148 6.472-20.546 6.132.429-3.792 2.369-5.376 4.851-8.572-13.547 5.512-14.362 5.04-28.7 2.356.686-3.52 4.66-4.9 8.502-6.952"/><path d="M50.54 385.876c-3.449 3.316-4.79 4.344-7.084 8.596-1.042-1.328-1.268-1.592-2.601-2.616.252-2.24 6.274-3.992 9.685-5.98"/><path fill="#dfab16" d="M508.028 378.304c1.02-4.324 4.22-6.648 8.72-5.257.94 2.144 1.308 11.264-1.156 14.81.488 1.528 1.884.744 2.536 2.324-1.644 4.4-7.34 2.128-9.076 3.832l.22.4c.6 1.116.96 1.496.828 2.716-3.04 3.464-14.332-.056-17.892-1.512.224 2.356 2.244 4.764 2.1 7.492l-.5.752c-1.776-.916-3.708-2.928-5.236-3.428-6.384-2.104-10.972-1.576-15.988-6.816-2.592.556-3.66.98-5.468 3.14l.392.904c-3.236-1.716-6.028-1.076-7.3-2.316l-.28.336c-3.828 1.816-10.636-4.64-12.892-7.348.22-1.38 2.52-2.684 3.892-3.912.928-4.492 9.976-8.288 16.8-7.973.668 4.916 15.36 9.284 22.604 10.837.848 1.652 13.704 1.888 19.636-3.888-.512-1.544-1.344-3.528-1.94-5.084"/><path fill="url(#e)" d="M458.792 385.136c6.468 5.232 3.848 6.308 7.228 10.236.304.52 3.628-2.98 4.12-4.828l2.444 3.064c-2.592.556-3.66.98-5.468 3.14l.392.904c-3.236-1.716-6.028-1.076-7.3-2.316.468-4.784.168-5.548-1.416-10.2"/></g></svg>