<svg xmlns="http://www.w3.org/2000/svg" width="512" height="512" viewBox="0 0 512 512">
  <defs><clipPath id="clip"><rect width="512" height="512"/></clipPath></defs>
  <g clip-path="url(#clip)">
    <rect fill="#00205b" width="512" height="512"/>
    <g transform="scale(0.4) translate(-384.0,-128.0)">
<defs><linearGradient id="d" x1="1533.73" x2="1540.96" y1="1094.76" y2="1116.99" gradientUnits="userSpaceOnUse"><stop offset="0" stop-color="#202425"/><stop offset="1" stop-color="#111c3a"/></linearGradient><linearGradient id="c" x1="1496.22" x2="1504.99" y1="1074.4" y2="1063.77" gradientUnits="userSpaceOnUse"><stop offset="0" stop-color="#f59b31"/><stop offset="1" stop-color="#f0824d"/></linearGradient><linearGradient id="b" x1="1145.18" x2="1147.57" y1="1161.46" y2="1143.2" gradientUnits="userSpaceOnUse"><stop offset="0" stop-color="#eea320"/><stop offset="1" stop-color="#f5933d"/></linearGradient><linearGradient id="a" x1="961.935" x2="979.136" y1="1185.53" y2="1191.99" gradientUnits="userSpaceOnUse"><stop offset="0" stop-color="#f8a627"/><stop offset="1" stop-color="#fe9643"/></linearGradient></defs><path fill="#00205b" d="M0 0h2048v1536H0z"/><path fill="#00205b" d="m984.634 498.656.744.036c2.809.111 8.562-.844 10.327-.132-1.755 4.134-4.876 5.945-4.868 9.68l.893 1.486c1.519.236 3.029.685 4.389.318-1.091-.783-1.016-.925-1.859-2.034l2.069-2.338c5.641-1.589 10.541-3.618 15.991-5.772 4.28 2.955 8.61 5.839 12.98 8.649 2.85-.396 5.05-.969 7.82-.291-2.24 3.898-3.33 6.736-1.34 11.105 2.87-.513 6.01-6.815 9.76-9.516 3.92-2.821 6.96-4.424 11.33-6.43 4.3 1.552 10.89 3.723 14.84 5.582l-.54-6.994c6.26-1.961 16.97 1.422 22.71 1.539 4.16-.435 6.98-.567 11.39.326 8.64 1.749 33.66 13.402 22.8 25.013-1.15 1.231-3.12 3.057-4.44 4.286 5.2 2.948 11.93 2.955 15.91 5.698 7.45 5.128 10.23 16.16 16.23 22.439 2.32 2.42 7.74 5.878 11.07 6.853 16.1 4.71 19.88 13.177 27.26 28.113 14.72-5.659 50.61-5.372 66.69-6.349 13.64-.829 38.92-8.367 49.05-2.589 15.09 8.602 42.23 37.685 54.44 49.913 13.66-16.68 22.95-15.235 33.45-24.866l3.88-3.452c34.8 49.633 67.95 64.312 123.63 83.929-.38.757-1.68 3.54-2.06 4.063-.72 7.604 1.7 13.146 5.94 19.391 2.48.745 3.49 1.986 4.76 4.409 2.2 2.585 7.09 8.837 9.65 10.215 1.19 1.386 3.15 3.445 3.96 4.954 6.43 6.592 22.25 12.984 30.89 17.363 12.62 6.398 30.88 15.889 41.49 25.174l3.15 3.474c2.96 3.03 5.98 6.009 9.04 8.935 2.04 2.551 2.36 2.769 3.39 5.793-3.53 3.126-10.04 15.425-13.33 20.321-7.88 11.737-14.05 18.658-24.74 27.867 11.41 14.029 24 26.054 35.27 39.44l-2.37 4.43c-1.97 4.491-4.95 10.59-5.82 15.222l-2.14 3.412c-.11 10.801 9.74 26.49 17.27 34.111 6.07 6.154 15.51 12 19.96 18.481l.54.775.99 1.54.06 1.321c.45 10.79-1.95 20.776-1.41 31.038 1.12 21.213 5.09 42.403 7.14 63.593-6.75 2.56-15.33 7.38-8.8 15.58 1.49 3.89 3.57 8.85 4.85 12.71-14.83 14.44-29.47 13.85-49.09 9.72-18.11-3.88-42.34-14.8-56.51-27.09-17.06-.79-29.68 8.7-42 19.93-3.43 3.07-6.68 6.33-9.73 9.78 5.64 6.77 22.66 22.91 32.23 18.37l.7-.84c3.18 3.1 10.16 1.5 18.25 5.79 7.99 6.85 11.25 16.08 16.73 25.46 7.01 4.09 8.03 4.16 15.87 4.29 2.57.04 2.71.2 3.83 1.62-1.84 3.29-6.72 6.44-9.88 7.92-17.95 8.76-26.47-12.09-40.16-18.11-5.77-3.36-10.93 11.43-15.73 12.8-24.25 6.94-37.43 3.06-60.32 17.53 3.84-19.79 8.87-27.53 27.3-36.98-1.69-10.92-1.2-15.23-.05-26.08a455 455 0 0 1-17.37 18.33c-37.34 37.21-74.36 59.01-128.3 57.73-58.83-1.4-98.93-17.89-139.73-59.12-44.94 59.03-100.78 105.87-179.42 100.42-79.601-5.51-123.992-54.01-173.257-109.98a900 900 0 0 1-24.185 4.16c-35.909 39.19-69.195 74.29-127.675 64.08-52.527-9.16-85.198-38.89-123.362-73.23.309 9.56 1.217 17.78-4.413 25.62l-.746 1.02c1.287 4.69 15.033 12.81 15.749 23.51.234 3.52 1.499 10.74-1.199 14.76-2.74-2.52-10.327-9.48-13.394-10.47-20.502-6.64-28.827-.73-41.881-20.43-21.468 22.8-42.559 24.8-62.107-1.49 33.125 20.22 37.76-13.05 56.6-32.93 13.329-4.15 21.634-11.56 29.475-22.75-11.721-14.8-26.321-28.13-44.226-34.66-8.604 9.02-33.89 16.83-46.233 20.57-2.717.83-10.311 2.56-12.072 3.54-.772 3.16-.039 1.81-2.315 4.17-13.05 3.98-28.978-2.42-40.837-7.65-3.333-7.43-.899-18.92.201-27.21-8.989-2.24-18.756-1.71-16.298-15.18 4.92-26.74 2.103-51.767 1.344-78.694-.282-10.008 24.705-20.638 28.114-32.997 1.334-4.836 5.564-8.99 6.476-15.942l-1.788-4.797c-.789-4.744-3.243-9.68-5.206-14.101l-2.98-4.323q18.118-19.501 35.758-39.436c-24.912-20.076-22.795-27.142-37.905-48.048l-.447-.606c.721-1.911 1.76-3.866 2.664-5.718.387-.202 8.423-7.584 9.425-8.488l3.486-3.117c1.713-.97 12.72-8.73 13.891-9.823 10.375-9.69 52.11-25.395 58.272-33.171l.086-1.994 3.382-3.005c3.297-2.796 6.39-6.815 9.213-10.18l4.298-4.838.785.433c3.885-6.209 7.463-12.139 6.425-19.523l-1.841-4.355c56.84-18.993 87.557-34.159 122.591-83.725 1.27 1.119 3.304 2.73 4.234 4.014 7.356 8.116 18.402 5.85 33.056 24.233l.674-.683c11.15-11.244 23.097-21.831 34.15-33.208 8.036-8.707 19.952-18.849 33.042-17.628 19.358 1.805 38.741 3.97 58.416 4.721 12.665.483 24.39 2.808 37.709 2.774 10.249-28.298 23.844-20.345 44.167-33.862 5.898-3.922 10.49-17.717 19.458-22.173 5.072-2.519 19.957-4.451 21.18-6.768-4.572-1.157-7.274-1.535-11.024-4.461-1.672-3.265-1.502-1.601-.481-5.162 6.054-6.854 20.508-11.165 29.167-13.286 6.543-3.044 24.637-7.926 31.478-6.797"/><path fill="#dfab16" d="m984.634 498.656.744.036c2.809.111 8.562-.844 10.327-.132-1.755 4.134-4.876 5.945-4.868 9.68l.893 1.486c1.519.236 3.029.685 4.389.318-1.091-.783-1.016-.925-1.859-2.034l2.069-2.338c5.641-1.589 10.541-3.618 15.991-5.772 4.28 2.955 8.61 5.839 12.98 8.649 2.85-.396 5.05-.969 7.82-.291-2.24 3.898-3.33 6.736-1.34 11.105 2.87-.513 6.01-6.815 9.76-9.516 3.92-2.821 6.96-4.424 11.33-6.43 4.3 1.552 10.89 3.723 14.84 5.582l-.54-6.994c6.26-1.961 16.97 1.422 22.71 1.539 4.16-.435 6.98-.567 11.39.326 8.64 1.749 33.66 13.402 22.8 25.013-1.15 1.231-3.12 3.057-4.44 4.286 5.2 2.948 11.93 2.955 15.91 5.698 7.45 5.128 10.23 16.16 16.23 22.439 2.32 2.42 7.74 5.878 11.07 6.853 16.1 4.71 19.88 13.177 27.26 28.113l-18.75 8.031c16.73 35.551 37.67 2.221 53.8 13.956 9.01 19.364 10.47 9.497 22.89 23.333 5.22 5.817 2.65 18.507 5.06 26.117 3.2 10.124 17.32 18.775 18.12 29.256 1.68 21.88-7.08 26.739-1.68 50.854.65 8.894-.02 15.658-4.89 23.484-4.66 5.168-15.05 13.357-17.81 19.031-4.31 9.52-4.6 18.655-11.23 27.258-9.2 11.944-19.91 8.812-30.05-.262-7.5 6.456-17.51 16.726-15.6 27.842 1.63 9.49 11.09 12.573 18.28 17.181 1.46 7.65-8.66 14.216-15.08 15.339-4.38.767-11.16-4.739-16.03-3.544-1.73 4.245-2.05 11.974-.44 16.258 5.33 14.173 20.09 11.146 27.03 14.341 1.04 7.057-5.89 11.645-9.1 18.696-5.32 11.709-7.88 23.481-12.9 35.081-.9 2.087-15.17 12.004-17.44 14.474-7.28 5.65-16.94 21.09-25.56 22.886-6.22 1.295-16-.229-22.24 1.362-12.34 3.144-17.49 12.464-29.33 17.354-8.87-.62-20.22-4.63-28.63-3.05-9.25 1.75-16.75 6.94-26.96 7.03-9.28.08-14.16-4.32-22.87-5.92-5.53-1.02-15.774-.48-21.202-1.58-14.357-2.9-29.715-5.27-43.971-8.08-2.808-.55-14.625-8.358-18.469-9.497-6.371-1.887-12.455-1.254-17.65-4.701-8.521-5.654-12.003-16.86-18.176-23.977-5.471-6.308-14.912-12.757-20.099-19.712-7.722-10.354-5.953-18.813-4.177-30.497-2.969-2.823-5.752-5.97-8.531-8.993 7.618-10.559 19.767-19.828 16.902-35.669-2.055-11.364-20.503-6.246-22.848-15.476 3.156-3.268 5.445-5.81 8.332-9.316.297-1.911.487-3.837.568-5.769.365-7.967-.655-15.313-6.466-21.391-6.718-7.028-11.054.633-17.084.368-9.031-.397-13.533-14.826-18.379-20.028-7.819-8.393-18.518-13.249-26.143-22.408-10.852-13.033-1.123-28.41-3.554-42.22-1.631-9.265-9.057-17.667-7.047-29.098.27-9.145 12.453-23.673 13.616-31.106 5.048-32.285-.471-35.523 27.051-56.756 3.062-2.126 6.337-3.439 9.734-4.988 11.076 3.821 23.375 10.829 35.217 3.107 3.641-2.374 7.784-7.407 8.534-11.82-1.859-4.052-18.245-9.131-24.159-11.888 10.249-28.298 23.844-20.345 44.167-33.862 5.898-3.922 10.49-17.717 19.458-22.173 5.072-2.519 19.957-4.451 21.18-6.768-4.572-1.157-7.274-1.535-11.024-4.461-1.672-3.265-1.502-1.601-.481-5.162 6.054-6.854 20.508-11.165 29.167-13.286 6.543-3.044 24.637-7.926 31.478-6.797"/><path fill="#2471b1" d="m984.634 498.656.744.036c2.809.111 8.562-.844 10.327-.132-1.755 4.134-4.876 5.945-4.868 9.68l.893 1.486c1.519.236 3.029.685 4.389.318l1.145 1.647c-2.64 2.941-20.51 5.647-25.818 6.673-7.001-3.773-12.081-8.039-18.29-12.911 6.543-3.044 24.637-7.926 31.478-6.797M1067.17 502.005c6.26-1.961 16.97 1.422 22.71 1.539 5.31 6.699 7.9 12.003 11.13 19.952-11.63-2.755-25.62-5.525-36.8-8.779l-.68-1.39 4.18-4.328z"/><path fill="#2471b1" d="M1012.32 499.9c4.28 2.955 8.61 5.839 12.98 8.649.45 1.077.6 2.251.84 3.435l-1.53 2.213c-9.45 4.588-22.72.597-28.281-8.525 5.641-1.589 10.541-3.618 15.991-5.772M992.764 552.418c14.026 11.528 12.466 5.903 28.786 3.371 2.38-.369 10.7-.065 12.15 1.362 10.34 10.177 16.13 7.308 23.69-6.037 14.52 3.981 24.57 9.491 32.25 23.211a59.6 59.6 0 0 1 6.1 16.38c3.51 16.456-.4 35.92 24.01 29.496 2.27 3.831 6.51 12.777 9.21 14.889 7.08 1.314 15.19-7.516 19.78-12.079 31.41 6.969 43.44 30.686 52.82 59.632 4.01 12.888 6.14 23.614 6.82 37.179-120.66 1.363-243.921.094-364.787.097-2.802-14.169-4.347-22.785-3.064-37.218a97.96 97.96 0 0 1 44.366-59.48c4.931-2.992 13.32-6.975 19.221-6.136 14.693 25.152 19.89 2.91 26.214 1.261 7.533 5.147 13.443 10.686 19.925-.072 3.14-5.212 2.8-11.785 3.835-17.599 3.923-28.492 12.424-39.109 38.674-48.257"/><path fill="#00205b" d="M919.451 681.532c4.819 3.477 29.001 23.263 32.427 27.407l164.392.037c3.18-3.366 7.51-8.066 8.25-12.699-4.03-9.175-18.99-.151-26.31-7.375l-4.79-5.828c4.54.083 6.79.144 11.4-.505 6.63-1.624 10.34-1.188 17.16-.052 20.55 1.135 58.39.915 79.58.126 4.01 12.888 6.14 23.614 6.82 37.179-120.66 1.363-243.921.094-364.787.097-2.802-14.169-4.347-22.785-3.064-37.218 13.243.139 69.434 1.553 78.922-1.169"/><path fill="#dfab16" d="m952.685 626.301 1.69 1.87 2.055.141c-3.812 8.643-5.236 20.546-2.491 29.484l.133 1.739-3.6 3.514-.093 2.901c.336 4.964.597 11.425 1.227 16.23.634 2.448.789 4.4 2.61 6.037l.763 2.036c4.968 1.673 8.452.844 13.532 1.385 6.233.203 20.731.702 26.223-.416l2.259.777c2.517-.08 6.257-.074 8.657-.31 6.66.298 12.06.484 18.7.262l5.16-.002c6.55.099 9.8.172 16.21-.797 4.39 1.077 5.58.838 9.99.43l1.03.711 11.97-.638 3.37.982 3.21-.689c4.59.129 7.96-.06 12.52-.343l1.61.17c3.26.299 4.76.754 7.7-.41l.01-1.787 1.08-.676c7.32 7.224 22.28-1.8 26.31 7.375-.74 4.633-5.07 9.333-8.25 12.699l-164.392-.037c-3.426-4.144-27.608-23.93-32.427-27.407-5.391-4.754-13.148-10.34-19.023-14.772 15.302-10.116 37.675-28.813 52.257-40.459"/><path fill="#2e688c" d="m954.375 628.171 2.055.141c-3.812 8.643-5.236 20.546-2.491 29.484l.133 1.739-3.6 3.514-.093 2.901c.336 4.964.597 11.425 1.227 16.23-4.56-.12-10.813.306-15.508.496l-3.176 3.369-1.751-1.022-2.208.125c-1.284-5.921 21.288-49.406 25.412-56.977"/><path fill="#2e688c" d="M950.379 665.95c.336 4.964.597 11.425 1.227 16.23-4.56-.12-10.813.306-15.508.496a1330 1330 0 0 0 14.281-16.726"/><path fill="#88a2a0" d="m950.472 663.049-.093 2.901a1330 1330 0 0 1-14.281 16.726l-3.176 3.369-1.751-1.022c2.613-3.885 15.5-17.731 19.301-21.974"/><path fill="#00205b" d="M936.098 682.676c4.695-.19 10.948-.616 15.508-.496.634 2.448.789 4.4 2.61 6.037l.763 2.036c4.968 1.673 8.452.844 13.532 1.385-13.866.021-25.197 3.389-35.589-5.593z"/><path fill="#315f6c" d="M906.108 668.013c7.592 1.412 21.092 4.578 21.878 13.439-5.739 1.289-17.104-9.602-21.878-13.439"/><path fill="#dfab16" d="M996.765 663.692c2.492-2.541 4.605-4.221 7.325-6.458l-.37 2.88 6.22 1.596 2.75.357c2.8-.106 5.72-.275 8.51-.249l1.63 1.92 1.14 1.716 5.73-1.438c.16 3.105.01 5.033 1.19 7.843-1.81 6.634-1.42 13.202-1.38 20.09l-5.16.002c-6.64.222-12.04.036-18.7-.262-2.4.236-6.14.23-8.657.31l-2.259-.777c-5.492 1.118-19.99.619-26.223.416-5.08-.541-8.564.288-13.532-1.385l-.763-2.036c-1.821-1.637-1.976-3.589-2.61-6.037-.63-4.805-.891-11.266-1.227-16.23l.093-2.901 3.6-3.514c6.237 1.035 26.98.459 35.288.677l.734-.675c2.785 1.529 4.136 2.274 6.671 4.155"/><path fill="#88a2a0" d="m1021.2 661.818 1.63 1.92 1.14 1.716 5.73-1.438c.16 3.105.01 5.033 1.19 7.843-1.81 6.634-1.42 13.202-1.38 20.09l-5.16.002c-6.64.222-12.04.036-18.7-.262-2.4.236-6.14.23-8.657.31l-2.259-.777 5.017-6.08c5.239-6.407 15.449-16.713 21.449-23.324"/><path fill="#88a2a0" d="m1021.2 661.818 1.63 1.92 1.14 1.716-.95 1.253a375 375 0 0 0-12.06 17.833l-5.31 7.149c-2.4.236-6.14.23-8.657.31l-2.259-.777 5.017-6.08c5.239-6.407 15.449-16.713 21.449-23.324"/><path fill="#315f6c" d="m1022.83 663.738 1.14 1.716-.95 1.253a375 375 0 0 0-12.06 17.833l-4.34-3.739z"/><path fill="#0d2c3b" d="m1006.62 680.801 4.34 3.739-5.31 7.149c-2.4.236-6.14.23-8.657.31 3.687-5.192 5.067-6.731 9.627-11.198"/><path fill="#d4b951" d="m1023.97 665.454 5.73-1.438c.16 3.105.01 5.033 1.19 7.843-1.81 6.634-1.42 13.202-1.38 20.09l-5.16.002c-.12-8.548 0-16.792-1.33-25.244z"/><path fill="#2e688c" d="M996.765 663.692c2.492-2.541 4.605-4.221 7.325-6.458l-.37 2.88 6.22 1.596 2.75.357c2.8-.106 5.72-.275 8.51-.249-6 6.611-16.21 16.917-21.449 23.324-3.55.379-7.795 2.58-10.584 4.689l-.867-6.101-1.158-1.824-.159-6.959-.264-2.703c-.556-5.851-.689-7.306 2.641-12.032l.734-.675c2.785 1.529 4.136 2.274 6.671 4.155"/><path fill="#315f6c" d="M996.765 663.692c2.492-2.541 4.605-4.221 7.325-6.458l-.37 2.88 6.22 1.596c-8.32 6.039-15.081 13.406-22.798 20.196l-.159-6.959-.264-2.703c-.556-5.851-.689-7.306 2.641-12.032l.734-.675c2.785 1.529 4.136 2.274 6.671 4.155"/><path fill="#2e688c" d="M990.094 659.537c2.785 1.529 4.136 2.274 6.671 4.155l-10.046 8.552c-.556-5.851-.689-7.306 2.641-12.032z"/><path fill="#88a2a0" d="M996.765 663.692c2.492-2.541 4.605-4.221 7.325-6.458l-.37 2.88c-5.375 4.956-10.996 10.379-16.737 14.833l-.264-2.703zM1009.94 661.71l2.75.357c-5.69 4.691-19.103 16.282-24.39 21.663l-1.158-1.824c7.717-6.79 14.478-14.157 22.798-20.196"/><path fill="#0d2c3b" d="M989.167 689.831c2.789-2.109 7.034-4.31 10.584-4.689l-5.017 6.08c-5.492 1.118-19.99.619-26.223.416-5.08-.541-8.564.288-13.532-1.385l-.763-2.036c9.492-.305 26.553-2.018 34.951 1.614"/><path fill="#d4b951" d="M1056.19 659.587c5.36.524 9.74.646 15.14.743l4.43.016c1.08 6.159 12.87 18.336 17.66 22.728l4.79 5.828-1.08.676-.01 1.787c-2.94 1.164-4.44.709-7.7.41l-1.61-.17c-4.56.283-7.93.472-12.52.343l-3.21.689-3.37-.982-11.97.638-1.03-.711c-4.41.408-5.6.647-9.99-.43-6.41.969-9.66.896-16.21.797-.04-6.888-.43-13.456 1.38-20.09-1.18-2.81-1.03-4.738-1.19-7.843l1.55.089 1.88-1.489c2.67-.416 5.57-.446 8.29-.574l2.85-.114 2.06-.712c3.14-1.575 6.28-1.408 9.86-1.629"/><path fill="#2e688c" d="m1029.7 664.016 1.55.089c6.4 6.764 13.01 13.481 18.78 20.782l5.68 6.695c-4.41.408-5.6.647-9.99-.43-6.41.969-9.66.896-16.21.797-.04-6.888-.43-13.456 1.38-20.09-1.18-2.81-1.03-4.738-1.19-7.843"/><path fill="#88a2a0" d="M1030.89 671.859c6.24 7.27 9.53 11.288 14.83 19.293-6.41.969-9.66.896-16.21.797-.04-6.888-.43-13.456 1.38-20.09"/><path fill="#2471b1" d="M1056.19 659.587c5.36.524 9.74.646 15.14.743-.68 6.245-8.15 13.231-12.57 18.089-3.97-3.954-12.44-11.739-14.49-16.491l2.06-.712c3.14-1.575 6.28-1.408 9.86-1.629"/><path fill="#315f6c" d="M1079.35 678.679c-1.81-2.991-2.86-4.198-3.4-7.561l1.14-.93c6.69 4.066 14.23 13.734 20.04 19.39l-.01 1.787c-2.94 1.164-4.44.709-7.7.41l-1.61-.17c-4.56.283-7.93.472-12.52.343-.12-4.29.43-8.76.82-13.056z"/><path fill="#0d2c3b" d="M1079.35 678.679c4.12 3.334 7.42 8.509 10.07 13.096l-1.61-.17c-4.56.283-7.93.472-12.52.343-.12-4.29.43-8.76.82-13.056z"/><path fill="#88a2a0" d="M1079.35 678.679c4.12 3.334 7.42 8.509 10.07 13.096l-1.61-.17c-4.18-4.967-6.99-8.298-11.7-12.713z"/><path fill="#2e688c" d="M1071.77 667.247c.21 7.142.87 18.578.31 25.39l-3.37-.982-11.97.638c-1.63-7.3-1.86-7.17 3.64-12.464z"/><path fill="#88a2a0" d="M1056.74 692.293c-1.63-7.3-1.86-7.17 3.64-12.464 2.39 3.474 5.78 8.723 8.33 11.826z"/><path fill="#2e688c" d="M1033.13 662.616c2.67-.416 5.57-.446 8.29-.574 4.07 4.842 14.58 14.138 14.23 18.937l-3.37 2.759-2.25 1.149c-5.77-7.301-12.38-14.018-18.78-20.782z"/><path fill="#88a2a0" d="m1031.25 664.105 1.88-1.489 19.15 21.122-2.25 1.149c-5.77-7.301-12.38-14.018-18.78-20.782"/><path fill="#dfab16" d="M1040.44 619.601c3.94 1.144 4.94.623 6.63 3.439-.17 3.692-2.01 6.952-3.03 10.973-.37 3.975-.78 7.918-.95 11.907.77 6.027 1 9.674 3.24 15.296l-2.06.712-2.85.114c-2.72.128-5.62.158-8.29.574l-1.88 1.489-1.55-.089-5.73 1.438-1.14-1.716-1.63-1.92c-2.79-.026-5.71.143-8.51.249l-2.75-.357-6.22-1.596.37-2.88c-.13-10.282.64-21.267.99-31.639 1.87-1.037 2.75-2.873 4.11-4.796 5.18.124 12.87.072 17.84.553l2.18-.127c4.33-.11 7.19.106 11.23-1.624M956.43 628.312c2.879-2.228 22.16-1.31 27.232-1.392l1.727-.009 4.361.966.866 1.092c-1.343 3.195-4.1 8.238-1.813 11.457-2.366 6.284-.436 11.436 1.369 17.685l-.078 1.426-.734.675c-8.308-.218-29.051.358-35.288-.677l-.133-1.739c-2.745-8.938-1.321-20.841 2.491-29.484"/><path fill="#0e6a34" d="M953.939 657.796c7.233-1.224 27.928-.007 36.233.315l-.078 1.426-.734.675c-8.308-.218-29.051.358-35.288-.677z"/><path fill="#dfab16" d="m1055.23 634.748 17.44.221 2.54-.249 4.95.303c3.51 4.019.34 9.573 1.75 16.036l.94 4.894.76 2.644-.99 1.26-6.86.489-4.43-.016c-5.4-.097-9.78-.219-15.14-.743-3.58.221-6.72.054-9.86 1.629-2.24-5.622-2.47-9.269-3.24-15.296 3.74-3.837 8.11-7.585 12.14-11.172"/><path fill="#2e688c" d="M1055.23 634.748c-1.68 10.562-1.4 14.382.96 24.839-3.58.221-6.72.054-9.86 1.629-2.24-5.622-2.47-9.269-3.24-15.296 3.74-3.837 8.11-7.585 12.14-11.172"/><path fill="#2471b1" d="M1082.85 655.953c2.03-5.629 18.36-12.306 24.98-16.301.47 4.576 1.88 20.752 3.06 24.385-2.67 2.631-3.69 1.755-6.46 4.215-.21 4.792.14 9.527.39 14.317-4.61.649-6.86.588-11.4.505-4.79-4.392-16.58-16.569-17.66-22.728l6.86-.489.99-1.26z"/><path fill="#a59f6b" d="M974.509 606.35c.21-2.886.029-6.357 1.715-8.511 1.369 2.77.978 5.235.923 8.395 12.568 12.976 6.917 11.178 12.603 21.643l-4.361-.966-1.727.009c-5.072.082-24.353-.836-27.232 1.392l-2.055-.141-1.69-1.87a1032 1032 0 0 0 21.824-19.951"/><path fill="#315f6c" d="M983.662 626.92c-4.398-.714-3.645.055-6.599-2.429l-.536-2.35c2.075-3.233 1.052-2.157 4.824-3.902 3.406.527 2.035-.249 4.236 2.432.214 2.277.674 4.192-.198 6.24zM965.759 617.933c3.194.051 4.068-.07 7.074.832 2.546 2.924 2.066 1.588 2.534 5.161l-1.496 1.928-3.622.425-13.255-.315z"/><path fill="#d4b951" d="M1026.56 607.566c.66-2.677.77-10.181.97-13.572l1.13-.032c.6 4.1 1.14 7.307 1.25 11.481 3.8 3.051 6.3 4.996 10.4 7.632l-.21 1.975.34 4.551c-4.04 1.73-6.9 1.514-11.23 1.624l-2.18.127c-4.97-.481-12.66-.429-17.84-.553 2.87-1.593 3.82-4.521 5.39-7.61 4.98-1.57 9.74-.744 11.98-5.623"/><path fill="#2e688c" d="M1009.19 620.799c2.87-1.593 3.82-4.521 5.39-7.61 4.54.157 7.41-.51 10.83 1.579 1.28 2.855 1.23 3.42 1.62 6.584-4.97-.481-12.66-.429-17.84-.553"/><path fill="#315f6c" d="M1029.21 621.225c.07-4.52-.6-3.77 1.42-7.132 3.17-1.119 6.03.101 9.47.957l.34 4.551c-4.04 1.73-6.9 1.514-11.23 1.624"/><path fill="#dfab16" d="m1110.89 664.037.92-2.561c.73 1.702 1.08 2.476 1.67 4.239 4.48.329 4.65-.417 7.64 2.124 1.85 4.52.66 9.469.86 14.678-6.82-1.136-10.53-1.572-17.16.052-.25-4.79-.6-9.525-.39-14.317 2.77-2.46 3.79-1.584 6.46-4.215"/><path fill="#2e688c" d="M1072.46 617.083c.35 6.268.31 11.599.21 17.886l-17.44-.221z"/><path fill="#a59f6b" d="m1110.5 635.77 2.98 29.945c-.59-1.763-.94-2.537-1.67-4.239l-.92 2.561c-1.18-3.633-2.59-19.809-3.06-24.385-6.62 3.995-22.95 10.672-24.98 16.301l-.94-4.894c9.93-3.658 19-11.178 28.59-15.289"/><path fill="#d4b951" d="M1072.82 598.205c3 .936 7.57 1.74 9.19 3.753-1.69 3.064-6.3 4.215-6.4 4.726-1.02 5.101-.46 23.453-.4 28.036l-2.54.249c.1-6.287.14-11.618-.21-17.886l-.27-3.112c.84-5.212.64-10.478.63-15.766"/><path fill="#88a2a0" d="M1044.04 634.013c1.72 2.721.6 1.76 3.37 3.122 6.57-2.337 18.94-17.106 24.78-23.164l.27 3.112-17.23 17.665c-4.03 3.587-8.4 7.335-12.14 11.172.17-3.989.58-7.932.95-11.907"/><path fill="#dfab16" d="M1026.22 583.578c3.72 1.87 11.03 4.432 10.78 8.965-2.57 1.983-4.93 1.47-8.34 1.419l-1.13.032c-.2 3.391-.31 10.895-.97 13.572-.69-7.137-.37-16.647-.34-23.988"/><path fill="#0e6a34" d="m880.876 819.927 294.934.082c-11.51 20.593-20.53 42.789-18.3 66.491.37 3.947.58 7.815.37 11.782-7.33.494-13.56-.207-16.69 7.272.05 6.788 3.44 10.654 7.43 15.724-8.94 18.994-21.82 27.494-41.28 33.55-10.59-1.085-4.29-26.628-31.1 3.112-4.09-.39-10.13-.939-13.86-2.564-6.31-2.329-2.61-8.609-4.71-12.825-4.72-9.501-11.54-6.434-18.48-3.536-2.99-2.381-5.8-9.132-10.66-13.429-4.89 5.324-6.15 7.819-9.54 14.163-14.59-9.115-24.471-1.62-18.38 15.195-4.753 1.289-8.549 2.169-13.355 2.963-13.06 2.16-15.072-15.577-26.717-14.211-5.211 3.159-6.308 6.668-8.183 12.173-21.933-6.882-38.916-18.09-46.402-40.584 4.162-5.247 9.283-11.258 5.116-17.754-5.18-3.802-9.746-2.961-16.009-2.575-.96-2.916.651-12.636.848-16.431 1.134-21.858-4.138-40.018-15.032-58.598"/><path fill="#dfab16" d="m931.896 876.986-2.293-3.763c-5.508-1.784-11.267-2.776-11.701-9.045 1.449-1.659 2.013-2.018 2.683-4.116l-1.854-.848c.434-2.831 3.165-4.929 5.292-7.081.069-1.996.177-2.469.593-4.434 2.875-2.03 2.914-2.449 7.093-1.722l1.381.251c2.048-4.077 2.3-5.746 6.968-6.091 1.592 1.431 1.677 1.733 3.64 2.483l1.978-2.998c4.559-2.321 5.812-.176 9.011 3.252-.833-.893 8.699-.178 9.797.133 2.345 2.243 1.628.86 1.78 4.491l4.031.38c6.486 4.646 11.801 12.253 7.934 20.436-1.193 2.524-6.119 3.777-8.692 4.678-3.045 4.42-3.964 7.07-5.976 12.024 2.624 9.341 5.939 19.951 9.502 28.922-17.794 6.254-29.86 9.22-47.814 1.141 3.792-9.997 6.37-17.295 8.173-28.097z"/><path fill="#dfab16" d="M963.561 885.016c2.624 9.341 5.939 19.951 9.502 28.922-17.794 6.254-29.86 9.22-47.814 1.141 3.792-9.997 6.37-17.295 8.173-28.097 6.092.501 6.357.657 11.867 3.233l1.692-1.837 1.38.101 3.128.074c.837-.091 7.69.841 9.139 1.795.379 2.461.561 2.755 1.429 5.001 2.501-2.473-1.515-3.397 1.504-10.333"/><path fill="#c99917" d="m948.361 888.479 3.128.074c-.29 3.826-.419 5.736-1.319 9.446-1.396-1.953-1.497-6.75-1.809-9.52"/><path fill="#a47112" d="M931.896 876.986c4.691-2.576.243.235 3.308-5.616l.423.051 2.112 4.273 1.807.159a80 80 0 0 0 1.007-3.577l.237-.965c1.313 2.738.896 3.15 3.034 4.178l2.574-4.287c.923 1.5.525 1.545.615 3.811l.916.678c1.061-1.488 1.889-2.791 2.862-4.329l.664 3.998 1.016.442 1.704-2.253c5.493 4.063 7.951 2.563 13.08-1.64l2.282 1.083c-3.045 4.42-3.964 7.07-5.976 12.024-3.019 6.936.997 7.86-1.504 10.333-.868-2.246-1.05-2.54-1.429-5.001-1.449-.954-8.302-1.886-9.139-1.795l-3.128-.074-1.38-.101-1.692 1.837c-5.51-2.576-5.775-2.732-11.867-3.233z"/><path fill="#c99917" d="M954.175 873.549c5.265-5.265 7.663-7.889 14.109-2.419l-1.029.779c-5.129 4.203-7.587 5.703-13.08 1.64"/><path fill="#dfab16" d="M1090.14 872.645c-4.87-.053-8.41-2.035-11.92-5.372-.71-3.511-.07-2.654 2.58-6.795l-2.68-2.34-.01-1.842c3.04-5.868 9.33-8.65 15.05-11.469 1.68-3.706 1.79-4.444 5.85-5.075 1.86 1.409 2.19 1.732 4.35 2.789 1.3-2.255 1.43-2.843 3.73-4.142 8.93.927 6.39 4.584 7.98 5.917 3.01-1.69 3.47-2.176 6.8-2.474 6.79 3.145 1.28 1.717 4.77 5.904 2.68-.047 4.15-.411 6.23 1.187 1.3 4.487 2.46 4.924 6.12 8.04.16 2.768.54 1.526-1.4 3.768 2.23 4.523 2.41 3.174 1.69 7.271-2.3 2.897-7.5 3.978-11.33 5.246-1.13 3.808-2.83 9.024-3.69 12.796 2.89 10.213 5.07 17.62 8.92 27.465-7.34 2.975-9.93 3.902-17.67 5.386-12.9.864-18.19.577-30.08-4.242 4.06-10.049 6.24-18.472 8.56-28.896-.98-4.477-3.15-7.558-3.85-13.122"/><path fill="#dfab16" d="M1113.93 891.235c1.76-4.008 2.85-3.074 7.05-3.666l1.33-1.818 1.95.303c2.89 10.213 5.07 17.62 8.92 27.465-7.34 2.975-9.93 3.902-17.67 5.386-12.9.864-18.19.577-30.08-4.242 4.06-10.049 6.24-18.472 8.56-28.896q5.82 1.905 11.58 3.929c1.95-1.321 1.03-1.185 3.03-1.371l3.19.397 1.21.228z"/><path fill="#c99917" d="M1113.93 891.235c1.76-4.008 2.85-3.074 7.05-3.666l1.33-1.818 1.95.303c2.89 10.213 5.07 17.62 8.92 27.465-7.34 2.975-9.93 3.902-17.67 5.386.32-8.653-1.91-17.959-1.58-27.67M1108.6 888.325l3.19.397c-.57 3.834-1.02 5.853-2.07 9.586-1.02-1.361-.99-7.711-1.12-9.983"/><path fill="#a47112" d="m1090.14 872.645 2.3.196c2.03 3.2 1.26 3.172 4.06 4.122 2.95-2.702.32-5.359 2.17-6.559l.17.889c.51 2.671.15 2.625 1.69 4.555 1.92-1.3 1.64-1.657 2.85-4.002l1.33 2.656c2.3-.641 1.2-.115 2.96-2.68 1.54 2.963 1.03 3.296 3.35 4.169l.41-.647c.97-1.523 1.35-2.488 2.9-3.374.09 1.259.19 2.406.33 3.661l1.28.007 3.06-3.306c1.63 1.133.89.447 1.54 3.167 2.53-.819 4.84-1.552 7.41-2.241-1.13 3.808-2.83 9.024-3.69 12.796l-1.95-.303-1.33 1.818c-4.2.592-5.29-.342-7.05 3.666l-.93-2.285-1.21-.228-3.19-.397c-2 .186-1.08.05-3.03 1.371q-5.76-2.024-11.58-3.929c-.98-4.477-3.15-7.558-3.85-13.122"/><path fill="#c99917" d="M1107.67 871.822c1.48-1.748 1.05-1.26 3-2.565l1.89 1.305c12.46-5.681 10.06-2.731 22.84-1.923 2.26-1.823 1.53-.692 2.24-3.523-2.86-1.674-3.93.278-9.18.86l-1.62-1.454.34-1.315c6.17-3.328 3.61-2.613 10.41-2.466 2.23 4.523 2.41 3.174 1.69 7.271-2.3 2.897-7.5 3.978-11.33 5.246-2.57.689-4.88 1.422-7.41 2.241-.65-2.72.09-2.034-1.54-3.167l-3.06 3.306-1.28-.007a90 90 0 0 1-.33-3.661c-1.55.886-1.93 1.851-2.9 3.374l-.41.647c-2.32-.873-1.81-1.206-3.35-4.169"/><path fill="#dfab16" d="M1012.15 877.042c-4.36-9.516-11.9-1.967-14.228-12.206 1.137-1.66 1.461-2.252 2.348-4.062l-2.764-1.941-.097-2.128c3.291-5.847 9.631-8.824 15.481-11.65 1.6-3.634 1.59-4.723 5.55-5.329 1.9 1.299 2.47 1.837 4.75 2.472l1.73-3.23 2.69-.612c3.17.886 3.33 1.274 5.85 3.646l.69.667c2.05.404 5.09-.351 7.27-.74 3.82 1.442 2.45.495 5.14 3.713 5.46 2.548 6.48 3.021 8.74 8.563 5 2.784 4.45 9.864 2.45 14.566-2.75 2.223-3.63 2.293-7.08 3.43l-2.83 2.065c-1.16 2.766-3.24 8.121-4.5 10.629 2.96 10.465 5.46 18.595 9.2 28.789-5.98 1.897-11.96 4.021-18.17 4.866-11.43 1.826-18.43-.023-29.06-3.806 3.58-10.474 6.23-17.877 8.33-28.76-.76-3.316-1.08-5.559-1.49-8.942"/><path fill="#dfab16" d="M1012.15 877.042c2.22.07 2.07.039 4.05-.992.18-1.697.32-3.397.44-5.099.89 1.948 1.04 2.416 2.3 4.121 3.58.018 5.21-1.104 8.43-2.627.53 1.271.96 2.159 1.59 3.385l1.18-1.143c4.76 1.446 1.47.779 4.15.243 4.94-.987 7.59.124 13.55-.664-1.16 2.766-3.24 8.121-4.5 10.629 2.96 10.465 5.46 18.595 9.2 28.789-5.98 1.897-11.96 4.021-18.17 4.866-11.43 1.826-18.43-.023-29.06-3.806 3.58-10.474 6.23-17.877 8.33-28.76-.76-3.316-1.08-5.559-1.49-8.942"/><path fill="#a47112" d="M1012.15 877.042c2.22.07 2.07.039 4.05-.992.18-1.697.32-3.397.44-5.099.89 1.948 1.04 2.416 2.3 4.121 3.58.018 5.21-1.104 8.43-2.627.53 1.271.96 2.159 1.59 3.385l1.18-1.143c4.76 1.446 1.47.779 4.15.243 4.94-.987 7.59.124 13.55-.664-1.16 2.766-3.24 8.121-4.5 10.629l-2.01 3.693c-2.03-.478-2.32-.527-4.19-1.398-1.2 1.699-.94 1.01-1.46 2.973-2.26-1.997-1-1.458-3.77-1.931-.62 1.285-1.03 2.577-1.41 3.956-.84-1.388-1.6-2.721-2.4-4.138l-1.55 1.077c-.5 3.226-1.02 5.105-1.9 8.265l-.45-.309c-.06-2.979-.16-5.553-.4-8.523-3.38-.887-6.77-1.745-10.16-2.576-.76-3.316-1.08-5.559-1.49-8.942"/><path fill="#c99917" d="M1035.68 890.163c.52-1.963.26-1.274 1.46-2.973 1.87.871 2.16.92 4.19 1.398l2.01-3.693c2.96 10.465 5.46 18.595 9.2 28.789-5.98 1.897-11.96 4.021-18.17 4.866.89-8.298-2.83-23.143 1.31-28.387M1030.14 874.687c5.17-9.879 12.87-9.382 20.53-2.486l-2.83 2.065c-5.96.788-8.61-.323-13.55.664-2.68.536.61 1.203-4.15-.243M1055.3 854.205c-5.23 2.364-9.35 3.339-12.77-2.63.62-3.664.71-2.717 4.03-5.933 5.46 2.548 6.48 3.021 8.74 8.563"/><path fill="#885c15" d="M959.419 763.162c-12.388-2.335-39.515-5.716-47.996-16.162-1.919-2.364-3.325-5.338-.449-7.459 6.854.278 19.451 6.507 26.729 8.626 9.599 2.795 17.832 5.326 28.019 6.554 39.308 4.738 79.328-3.42 118.388 1.406 7.79.961 18.62 5.962 25.42 9.895 16.45-13.301 36.47-22.162 58.3-20.94 2.32.13 5.9.933 7.7 2.429-1.4 9.202-29.84 10.936-39.13 13.883l10.43 8.648c9.84-4.3 35.89-17.587 45.63-9.018 1.08 8.49-22.23 8.863-28.16 11.804-15.15 7.523-28.71 18.867-40.55 30.803-3.31-2.25-8.68-4.482-12.51-6.604-3.68.172-13.73-2.373-17.83-3.276-3.99.917-12.41-1.067-16.52-2.161 7.13-7.349 11.4-11.493 20.04-17.499-39.12-10.394-68.36-7.389-108.194-8.755a3569 3569 0 0 1-31.887 40.359c-4.827-.152-9.894-.232-14.693-.5 6.145-7.764 30.702-33.729 32.283-40.157-2.36-1.081-1.11-.79-3.94-.57-9.977 8.941-29.355 29.944-38.096 40.7-4.416.273-8.274.908-12.419-.428l-1.483-1.496c1.44-7.76 32.491-31.568 40.918-40.082"/><path fill="#dfab16" d="m1108.23 779.783 12.89 7.437-9.88 9.807c-3.68.172-13.73-2.373-17.83-3.276 4.79-4.604 9.83-9.648 14.82-13.968M1124.52 767.712c4.07 1.029 9.08 4.294 9.64 8.811l-3.14 2.959c-3.49-1.762-7.9-3.386-9.85-6.469.16-3.181.3-2.294 3.35-5.301"/><path fill="#a47112" d="M975.487 805.111c20.913-18.746 50.823-23.539 77.843-18.864 6.82 1.18 17.39 5.134 23.56 5.343 4.11 1.094 12.53 3.078 16.52 2.161 4.1.903 14.15 3.448 17.83 3.276 3.83 2.122 9.2 4.354 12.51 6.604-6.93 2.007-42.26 1.522-52.02 1.534z"/><path d="M1190.1 596.272c14.72-5.659 50.61-5.372 66.69-6.349 13.64-.829 38.92-8.367 49.05-2.589 15.09 8.602 42.23 37.685 54.44 49.913 13.66-16.68 22.95-15.235 33.45-24.866l3.88-3.452c34.8 49.633 67.95 64.312 123.63 83.929-.38.757-1.68 3.54-2.06 4.063-.72 7.604 1.7 13.146 5.94 19.391 2.48.745 3.49 1.986 4.76 4.409 2.2 2.585 7.09 8.837 9.65 10.215 1.19 1.386 3.15 3.445 3.96 4.954 6.43 6.592 22.25 12.984 30.89 17.363 12.62 6.398 30.88 15.889 41.49 25.174l3.15 3.474c2.96 3.03 5.98 6.009 9.04 8.935 2.04 2.551 2.36 2.769 3.39 5.793-3.53 3.126-10.04 15.425-13.33 20.321-7.88 11.737-14.05 18.658-24.74 27.867 11.41 14.029 24 26.054 35.27 39.44l-2.37 4.43c-1.97 4.491-4.95 10.59-5.82 15.222l-2.14 3.412c-.11 10.801 9.74 26.49 17.27 34.111 6.07 6.154 15.51 12 19.96 18.481l.54.775.99 1.54.06 1.321c.45 10.79-1.95 20.776-1.41 31.038 1.12 21.213 5.09 42.403 7.14 63.593-6.75 2.56-15.33 7.38-8.8 15.58 1.49 3.89 3.57 8.85 4.85 12.71-14.83 14.44-29.47 13.85-49.09 9.72-18.11-3.88-42.34-14.8-56.51-27.09-7.16-12.01-29.84-27.45-44.22-28.69-12.86-9.31-26.31-22.31-38.8-32.53-38.47-31.479-71.34-49.664-121.43-51.305-18.14 8.962-22.09 13.255-42.96 12.735l-7.78 5.466c1.36-2.215 2.77-4.498 3.29-7.038 2.18-10.575 12.7-24.803 20.28-32.499 7.58-7.693 21.16-20.332 30.79-25.357 17.67-9.223 50.46-8.849 64.44-23.289 6.24-6.452.84-23.964.35-32.466-.66-11.518-3.03-28.994 5.51-38.509 7.04-7.839 15.76-9.168 25.4-10.137-21.25-14.479-42.77-28.466-61.68-45.983-4.66-4.31-9.49-8.408-14.36-12.474-33.02-1.743-45.32-11.325-76.43 2.83-4.06 13.403-8.18 28.801-8.16 42.817.01 6.748 3.22 12.102 2.08 18.044-2.78 3.295-6.61 4.672-10.58 6.613 4.09 4.742 13.04 10.507 13.66 15.358 1.44 6.62-4.13 22.595-8.76 27.089-24.84 23.98-26.23-46.439-25.86-57.394.27-7.787 6.71-21.022 6.55-31.078 4.87-7.826 5.54-14.59 4.89-23.484-5.4-24.115 3.36-28.974 1.68-50.854-.8-10.481-14.92-19.132-18.12-29.256-2.41-7.61.16-20.3-5.06-26.117-12.42-13.836-13.88-3.969-22.89-23.333-16.13-11.735-37.07 21.595-53.8-13.956z"/><path fill="#00205b" d="M1529.88 720.721c2.2 2.585 7.09 8.837 9.65 10.215 1.19 1.386 3.15 3.445 3.96 4.954 6.43 6.592 22.25 12.984 30.89 17.363 12.62 6.398 30.88 15.889 41.49 25.174l3.15 3.474c2.96 3.03 5.98 6.009 9.04 8.935 2.04 2.551 2.36 2.769 3.39 5.793-3.53 3.126-10.04 15.425-13.33 20.321-7.88 11.737-14.05 18.658-24.74 27.867 11.41 14.029 24 26.054 35.27 39.44l-2.37 4.43c-1.97 4.491-4.95 10.59-5.82 15.222l-2.14 3.412c-.11 10.801 9.74 26.49 17.27 34.111 6.07 6.154 15.51 12 19.96 18.481l.54.775.99 1.54.06 1.321c.45 10.79-1.95 20.776-1.41 31.038 1.12 21.213 5.09 42.403 7.14 63.593-6.75 2.56-15.33 7.38-8.8 15.58 1.49 3.89 3.57 8.85 4.85 12.71-14.83 14.44-29.47 13.85-49.09 9.72-18.11-3.88-42.34-14.8-56.51-27.09-7.16-12.01-29.84-27.45-44.22-28.69-12.86-9.31-26.31-22.31-38.8-32.53-38.47-31.479-71.34-49.664-121.43-51.305 2.45-6.226 2.68-9.691 3.56-16.378l.69-.018c14.28-.465 16.44-3.171 29.04-8.921a125 125 0 0 1 27.09-8.854 110.2 110.2 0 0 1 27.69-2.483c14.08.594 21.93 5.307 30.7-7.836-2.59-28.502-3.79-43.54 29.14-29.553 7.33 3.116 17.86 3.606 24.99 7.195 10.31 5.194 15.64 20.855 23.3 29.138 7.82 8.919 14.4 14.362 24.31 20.296 6.35-31.794 6.38-46.446 4.27-78.625-7.09-8.764-6.57-10.904-7.92-22.399a288 288 0 0 1-38.23-29.072c-10.82-9.57-20.96-20.966-33.21-28.223-1.88-4.528-8.55-10.35-12.31-13.884 21.36-13.658 35.29-23.546 47.9-46.237"/><path fill="#fcfafc" d="M1529.88 720.721c2.2 2.585 7.09 8.837 9.65 10.215 1.19 1.386 3.15 3.445 3.96 4.954 6.43 6.592 22.25 12.984 30.89 17.363 12.62 6.398 30.88 15.889 41.49 25.174l3.15 3.474c2.96 3.03 5.98 6.009 9.04 8.935 2.04 2.551 2.36 2.769 3.39 5.793-3.53 3.126-10.04 15.425-13.33 20.321-7.88 11.737-14.05 18.658-24.74 27.867 11.41 14.029 24 26.054 35.27 39.44l-2.37 4.43c-1.97 4.491-4.95 10.59-5.82 15.222l-2.14 3.412c-11.7-12.91-25.32-26.183-36.49-38.785.58 30.603 1.03 45.887-6.23 76.358-2.97 15.941-30.46 116.616-11.25 118.726 6.49-3.97 6.26-14.59 5.86-21.68-.07-1.25-3.22-2.08-4.52-2.63l-.1-1.13c3.26-3 9.23-5.16 13.51-6.98-.64 8.97.01 31.34-7.24 37.23-2.77 2.25-7.54 3.93-11.12 3.24-2.7-.53-4.86-2.6-6.31-4.83-13.73-21.2 9.36-101.372 14.95-127.679 6.35-31.794 6.38-46.446 4.27-78.625-7.09-8.764-6.57-10.904-7.92-22.399a288 288 0 0 1-38.23-29.072c-10.82-9.57-20.96-20.966-33.21-28.223-1.88-4.528-8.55-10.35-12.31-13.884 21.36-13.658 35.29-23.546 47.9-46.237"/><path d="M1543.49 735.89c6.43 6.592 22.25 12.984 30.89 17.363 12.62 6.398 30.88 15.889 41.49 25.174-14.63 23.801-25.95 34.063-45.55 53.989-20.39-11.102-47.36-36.773-64.1-52.643 19.71-12.781 26.96-23.894 37.27-43.883"/><path fill="#af1e1b" d="M1529.88 720.721c2.2 2.585 7.09 8.837 9.65 10.215-7.87 19.891-14.85 28.219-32.55 41.017-2.27 1.635-10.98 7.398-12.69 8.889-1.88-4.528-8.55-10.35-12.31-13.884 21.36-13.658 35.29-23.546 47.9-46.237M1620.46 903.909c-9.03-12.917-51.66-49.792-48.81-62.807 9.03-5.825 21.52 11.266 27.12 17.339 9.23 9.998 18.36 20.174 27.51 30.246-1.97 4.491-4.95 10.59-5.82 15.222M1619.02 781.901c2.96 3.03 5.98 6.009 9.04 8.935-1.81 2.483-6.26 10.781-8.16 13.932-9.02 14.94-16.37 24.734-29.6 36.301-6.28-3.793-8.3-4.606-15.28-7.059 19.45-21.939 26.69-23.938 44-52.109"/><path d="M1581.83 868.536c11.17 12.602 24.79 25.875 36.49 38.785-.11 10.801 9.74 26.49 17.27 34.111 6.07 6.154 15.51 12 19.96 18.481l.54.775.99 1.54.06 1.321c.45 10.79-1.95 20.776-1.41 31.038 1.12 21.213 5.09 42.403 7.14 63.593-6.75 2.56-15.33 7.38-8.8 15.58 1.49 3.89 3.57 8.85 4.85 12.71-14.83 14.44-29.47 13.85-49.09 9.72 1.3-4.44 9.27-20.89 11.99-25.53 12.37-21.18 13.52-44.44 7.32-67.78-4.65-17.483-37.09-49.972-53.54-57.986 7.26-30.471 6.81-45.755 6.23-76.358"/><path fill="#00205b" d="M1225.15 618.259c14.93-3.027 40.32-5.74 55.43-4.039 21.2 12.802 28.23 35.381 39.74 55.409 4.7 8.167 12.78 18.671 18.54 26.386-13.13 5.612-49.3 19.188-58.88 25.26-6.38 10.334-6.13 20.199-10.44 26.544-5.4-24.115 3.36-28.974 1.68-50.854-.8-10.481-14.92-19.132-18.12-29.256-2.41-7.61.16-20.3-5.06-26.117-12.42-13.836-13.88-3.969-22.89-23.333"/><path d="M1397.61 608.929c34.8 49.633 67.95 64.312 123.63 83.929-.38.757-1.68 3.54-2.06 4.063-.72 7.604 1.7 13.146 5.94 19.391 2.48.745 3.49 1.986 4.76 4.409-12.61 22.691-26.54 32.579-47.9 46.237-5.82-5.142.84-6.14-1.64-9.643-10.54-14.495-21.43-28.014-30.51-43.504-11.69-19.938-15.19-37.702-19.26-59.88-15.36-13.608-25.58-24.206-36.84-41.55z"/><path fill="#fcfafc" d="M1397.61 608.929c34.8 49.633 67.95 64.312 123.63 83.929-.38.757-1.68 3.54-2.06 4.063-31.35-9.45-53.62-18.224-80.63-37.023 8.22 41.214 22.7 63.951 50.14 95.616 15.34-10.906 28.66-21.385 36.43-39.202 2.48.745 3.49 1.986 4.76 4.409-12.61 22.691-26.54 32.579-47.9 46.237-5.82-5.142.84-6.14-1.64-9.643-10.54-14.495-21.43-28.014-30.51-43.504-11.69-19.938-15.19-37.702-19.26-59.88-15.36-13.608-25.58-24.206-36.84-41.55z"/><path d="m686.698 635.189.674-.683c11.15-11.244 23.097-21.831 34.15-33.208 8.036-8.707 19.952-18.849 33.042-17.628 19.358 1.805 38.741 3.97 58.416 4.721 12.665.483 24.39 2.808 37.709 2.774 5.914 2.757 22.3 7.836 24.159 11.888-.75 4.413-4.893 9.446-8.534 11.82-11.842 7.722-24.141.714-35.217-3.107-3.397 1.549-6.672 2.862-9.734 4.988-9.759-6.454-43.587-6.003-55.638-4.421-23.712 18.023-25.845 29.805-38.746 54.402-4.19 7.987-13.44 20.447-19.16 27.639 7.835 3.344 56.868 21.246 59.049 25.59 8.223 16.381 15.49 55.078 21.149 74.634 3.87 13.377-.959 44.537-6.029 57.813-12.943 30.165-32.001-11.957-26.137-25.43.646-1.545 10.82-8.985 13.167-11.472-3.76-1.739-8.017-3.178-10.525-6.255-2.32-7.737 2.191-16.428 1.46-22.697-1.448-12.424-5.107-26.803-8.73-38.747-30.479-14.379-42.781-4.548-74.832-3.336-9.576 6.173-23.975 20.359-34.003 28.296-14.185 11.227-29.544 20.226-43.275 30.751 33.324 3.31 33.306 22.781 30.266 51.508-.779 7.961-5.802 24.697.593 31.078 14.264 14.234 44.219 12.616 61.143 20.675 22.215 10.579 46.821 37.03 55.575 59.307-19.255 3.02-35.532-1.032-49.884-14.756-57.676-.74-107.564 35.335-147.712 72.807-3.968 0-7.612.56-10.64 3.23-7.072 6.25-23.724 19.78-27.535 27.78-8.604 9.02-33.89 16.83-46.233 20.57-2.717.83-10.311 2.56-12.072 3.54-.772 3.16-.039 1.81-2.315 4.17-13.05 3.98-28.978-2.42-40.837-7.65-3.333-7.43-.899-18.92.201-27.21-8.989-2.24-18.756-1.71-16.298-15.18 4.92-26.74 2.103-51.767 1.344-78.694-.282-10.008 24.705-20.638 28.114-32.997 1.334-4.836 5.564-8.99 6.476-15.942l-1.788-4.797c-.789-4.744-3.243-9.68-5.206-14.101l-2.98-4.323q18.118-19.501 35.758-39.436c-24.912-20.076-22.795-27.142-37.905-48.048l-.447-.606c.721-1.911 1.76-3.866 2.664-5.718.387-.202 8.423-7.584 9.425-8.488l3.486-3.117c1.713-.97 12.72-8.73 13.891-9.823 10.375-9.69 52.11-25.395 58.272-33.171l.086-1.994 3.382-3.005c3.297-2.796 6.39-6.815 9.213-10.18l4.298-4.838.785.433c3.885-6.209 7.463-12.139 6.425-19.523l-1.841-4.355c56.84-18.993 87.557-34.159 122.591-83.725 1.27 1.119 3.304 2.73 4.234 4.014 7.356 8.116 18.402 5.85 33.056 24.233"/><path fill="#00205b" d="M507.937 729.13c3.297-2.796 6.39-6.815 9.213-10.18 13.354 22.822 26.696 32.364 49.048 45.644-5.752 3.175-9.282 8.187-12.844 13.536-1.946 1.81-3.573 2.381-4.922 3.517-22.063 18.567-41.262 38.456-66.226 53.524-3.092 30.434 2.731 58.85 7.717 88.963l.879-.622c14.599-10.497 20.17-28.408 33.427-37.425 2.774-1.887 19.429-2.843 23.829-4.285 9.425-3.089 15.342-6.88 25.382-8.864 2.768 4.286 4.016 5.85 5.594 10.832 3.841 12.125-5.543 30.714 11.117 34.804 4.574 1.123 16.034.164 21.368.135 9.152-.079 18.287.805 27.253 2.638 8.216 1.7 18.117 4.39 25.626 7.943 12.492 5.911 17.541 8.224 31.652 9.051.317 4.281.74 8.713.756 12.992-57.676-.74-107.564 35.335-147.712 72.807-3.968 0-7.612.56-10.64 3.23-7.072 6.25-23.724 19.78-27.535 27.78-8.604 9.02-33.89 16.83-46.233 20.57-2.717.83-10.311 2.56-12.072 3.54-.772 3.16-.039 1.81-2.315 4.17-13.05 3.98-28.978-2.42-40.837-7.65-3.333-7.43-.899-18.92.201-27.21-8.989-2.24-18.756-1.71-16.298-15.18 4.92-26.74 2.103-51.767 1.344-78.694-.282-10.008 24.705-20.638 28.114-32.997 1.334-4.836 5.564-8.99 6.476-15.942l-1.788-4.797c-.789-4.744-3.243-9.68-5.206-14.101l-2.98-4.323q18.118-19.501 35.758-39.436c-24.912-20.076-22.795-27.142-37.905-48.048l-.447-.606c.721-1.911 1.76-3.866 2.664-5.718.387-.202 8.423-7.584 9.425-8.488l3.486-3.117c1.713-.97 12.72-8.73 13.891-9.823 10.375-9.69 52.11-25.395 58.272-33.171l.086-1.994z"/><path fill="#fcfafc" d="M507.937 729.13c3.297-2.796 6.39-6.815 9.213-10.18 13.354 22.822 26.696 32.364 49.048 45.644-5.752 3.175-9.282 8.187-12.844 13.536-1.946 1.81-3.573 2.381-4.922 3.517-22.063 18.567-41.262 38.456-66.226 53.524-3.092 30.434 2.731 58.85 7.717 88.963 2.932 17.121 20.766 116.356 13.208 126.776-2.543 3.51-6.637 5.91-10.92 6.57-2.772.42-5.418-.11-7.639-1.87-5.428-4.3-6.816-13.53-7.242-20.05-.411-6.28-.405-12.62-.416-18.92 4.344 2.57 8.773 4.78 12.079 8.55l.339 1.65-3.699 1.06c-2.088 5.96-.845 18.48 5.886 21.83 12.051-1.58 4.392-30.91 3.307-39.94a1396 1396 0 0 0-11.175-79.715 1256 1256 0 0 1-10.031-71.555c-11.883 13.738-31.412 34.023-44.321 47.237l-1.788-4.797c-.789-4.744-3.243-9.68-5.206-14.101l-2.98-4.323q18.118-19.501 35.758-39.436c-24.912-20.076-22.795-27.142-37.905-48.048l-.447-.606c.721-1.911 1.76-3.866 2.664-5.718.387-.202 8.423-7.584 9.425-8.488l3.486-3.117c1.713-.97 12.72-8.73 13.891-9.823 10.375-9.69 52.11-25.395 58.272-33.171l.086-1.994z"/><path d="M504.469 734.129c11.154 22.516 16.618 28.453 36.484 43.769-19.446 18.041-40.839 38.065-63.072 52.501-19.856-19.512-30.982-29.451-45.575-53.276 1.713-.97 12.72-8.73 13.891-9.823 10.375-9.69 52.11-25.395 58.272-33.171"/><path fill="#af1e1b" d="M507.937 729.13c3.297-2.796 6.39-6.815 9.213-10.18 13.354 22.822 26.696 32.364 49.048 45.644-5.752 3.175-9.282 8.187-12.844 13.536-24.881-17.765-31.67-17.593-45.417-49M422.305 886.859c13.914-15.51 28.401-33.357 44.214-46.802 1.772-1.506 7.549-2.929 9.987-3.66-.692 5.787-.96 10.614-4.513 15.404-12.934 17.441-29.972 32.909-44.482 49.159-.789-4.744-3.243-9.68-5.206-14.101M419.395 788.728c.387-.202 8.423-7.584 9.425-8.488 13.867 23.809 25.421 32.24 43.739 52.019-6.693 2.468-8.764 3.332-14.794 7.03-22.324-18.587-24.382-28.955-38.37-50.561"/><path d="M473.62 858.52a1256 1256 0 0 0 10.031 71.555c-15.787 8.902-53.037 36.006-58.553 53.705-3.016 9.68-1.512 37.48-.949 48.39 19.336 16.73 17.462 28.46 28.465 47.09-.772 3.16-.039 1.81-2.315 4.17-13.05 3.98-28.978-2.42-40.837-7.65-3.333-7.43-.899-18.92.201-27.21-8.989-2.24-18.756-1.71-16.298-15.18 4.92-26.74 2.103-51.767 1.344-78.694-.282-10.008 24.705-20.638 28.114-32.997 1.334-4.836 5.564-8.99 6.476-15.942 12.909-13.214 32.438-33.499 44.321-47.237M526.817 690.667c56.84-18.993 87.557-34.159 122.591-83.725 1.27 1.119 3.304 2.73 4.234 4.014-14.413 18.841-20.543 26.579-37.948 42.508-6.258 42.866-21.212 67.257-48.028 100.13-3.461 4.243 3.753 4.12-1.468 11-22.352-13.28-35.694-22.822-49.048-45.644l4.298-4.838.785.433c3.885-6.209 7.463-12.139 6.425-19.523z"/><path fill="#fcfafc" d="M526.817 690.667c56.84-18.993 87.557-34.159 122.591-83.725 1.27 1.119 3.304 2.73 4.234 4.014-14.413 18.841-20.543 26.579-37.948 42.508-6.258 42.866-21.212 67.257-48.028 100.13-3.461 4.243 3.753 4.12-1.468 11-22.352-13.28-35.694-22.822-49.048-45.644l4.298-4.838.785.433c8.474 18.589 20.718 27.622 37.157 38.826 26.24-35.118 40.156-50.075 48.457-94.623-26.155 18.535-49.098 26.758-79.189 36.274z"/><path fill="#af1e1b" d="M1509.1 1040.41c14.38 1.24 37.06 16.68 44.22 28.69-17.06-.79-29.68 8.7-42 19.93-3.43 3.07-6.68 6.33-9.73 9.78 5.64 6.77 22.66 22.91 32.23 18.37l.7-.84c3.18 3.1 10.16 1.5 18.25 5.79 7.99 6.85 11.25 16.08 16.73 25.46 7.01 4.09 8.03 4.16 15.87 4.29 2.57.04 2.71.2 3.83 1.62-1.84 3.29-6.72 6.44-9.88 7.92-17.95 8.76-26.47-12.09-40.16-18.11-5.77-3.36-10.93 11.43-15.73 12.8-24.25 6.94-37.43 3.06-60.32 17.53 3.84-19.79 8.87-27.53 27.3-36.98-1.69-10.92-1.2-15.23-.05-26.08a455 455 0 0 1-17.37 18.33c-37.34 37.21-74.36 59.01-128.3 57.73-58.83-1.4-98.93-17.89-139.73-59.12-44.94 59.03-100.78 105.87-179.42 100.42-79.601-5.51-123.992-54.01-173.257-109.98-7.783-8.21-16.795-19.8-28.217-21.33 6.462-8.81 21.327-10.42 31.137-11.4 6.926.82 14.069 1.56 20.916 2.8 36.741-4.14 84.759-1.75 118.935 13.22 17.156 8.45 28.886 21.67 31.566 41.03l2.05.23c2.8-15.78 11.94-24.87 23.78-34.75l6.65-3.95c19.34-8.66 34.41-8.76 55.07-8.82 14.76 1.3 40.54 3.92 54.86 8.1 21.41-10.22 46.53-11.74 65.9 4.09l-11.26 1.03c-7.55 5.41-11.53 10.35-17.49 17.43 17.31 2.58 62.3 5.79 79.65 4.59l-1.1 1.11c.45.49 1.02 1.22 1.66 1.42 27.4 8.55 60.1 11.36 87.73 4.13 35.53-9.3 62.05-31.94 86.29-58.21 5.16-5.59 14.41-13.89 18.02-19.98l1.04.77c9.8-8.88 17.49-13.77 29.63-19.06"/><path fill="#dfab16" d="M1114.17 1094.99c14.76 1.3 40.54 3.92 54.86 8.1-4.96 4.41-10.05 9.17-15.04 13.48-9.7 10.6-23.15 25.94-35.57 32.94l-1.77-.25c-4.45 5.46-6.34 6.74-13.27 9.28a165.7 165.7 0 0 1-54.33 17.61l.84-2.13c-21.12 2.6-22.62-15.96-21.22-31.51 2.8-15.78 11.94-24.87 23.78-34.75l6.65-3.95c19.34-8.66 34.41-8.76 55.07-8.82"/><path fill="#00205b" d="M1049.89 1174.02c15.76-13.24-1.13-17.75 1.74-30.42 2.73-12.08 21.04-16.84 32.03-12.11 22.49 9.7-5.49 19.21 19.72 27.05a165.7 165.7 0 0 1-54.33 17.61zM1096.87 1109c25.34-1 33.23.33 57.12 7.57-9.7 10.6-23.15 25.94-35.57 32.94l-1.77-.25c1.81-6.39-.65-10.57 1.08-13.2 8.16 2.19 17.94-3.95 16.09-12.09-3.21-3.12-15.04-3.36-21.06-6.18-6.05-2.84-10.21-5.38-15.89-8.79"/><path fill="#dfab16" d="M876.119 1088.03c36.741-4.14 84.759-1.75 118.935 13.22 17.156 8.45 28.886 21.67 31.566 41.03-.87 16.24-3.35 35.51-25.76 29.7l-1.024 1.45c-11.321-2.27-40.78-16.02-48.259-24.79-6.74-4.29-9.738-3.44-14.292-11.48l-1.777.03c-5.74-4.61-39.117-33.26-40.194-36.91-2.835-.5-15.108-9.66-19.195-12.25"/><path fill="#00205b" d="m951.577 1148.64 1.111-.3c16.599-4.64 2.06-17.47 16.691-21.73 12.576-3.66 31.271 3.58 33.651 17.91-2.49 3.5-7.84 4.02-9.232 10.02-1.827 7.86 1.014 12.83 7.062 17.44l-1.024 1.45c-11.321-2.27-40.78-16.02-48.259-24.79M895.314 1100.28c14.518-.9 23.479-1.61 38.035.03-5.396 2.56-10.386 4.47-13.254 9.91.293 9.04 16.581 7.82 23.114 7.77-5.521 8.07-6.941 9.27-5.924 19.17l-1.777.03c-5.74-4.61-39.117-33.26-40.194-36.91"/><path fill="#00205b" d="m1026.62 1142.28 2.05.23c-1.4 15.55.1 34.11 21.22 31.51l-.84 2.13c-17.78 2.43-32.03.47-49.214-2.72l1.024-1.45c22.41 5.81 24.89-13.46 25.76-29.7"/><path fill="#aa2002" d="m1362.12 1152.2 6.11.47c2.51 4.33 3.58 5.14 1.22 9.95-3.52 2.14-5.13 3.41-9.3 3.97-.82 3.14-.4 4.61.14 7.81l-.92 1.47c-2.06.06-3.53.27-5.5-.36l-4.41.96-13.3-.11c-3.34-.17-3.56.38-5.81-1.23-1.01-7.24 1.62-11.19-.04-22.22 5.21-.02 12.84-.46 17.53 1.11l1.21-.21c4.13-1.55 8.6-1.4 13.07-1.61"/><path fill="#f49c30" d="m1362.12 1152.2 6.11.47c2.51 4.33 3.58 5.14 1.22 9.95-3.52 2.14-5.13 3.41-9.3 3.97-.82 3.14-.4 4.61.14 7.81l-.92 1.47c-2.06.06-3.53.27-5.5-.36-.05-5.92-.16-18.38-4.82-21.7 4.13-1.55 8.6-1.4 13.07-1.61"/><path fill="#f49c30" d="m1362.12 1152.2 6.11.47c2.51 4.33 3.58 5.14 1.22 9.95-3.52 2.14-5.13 3.41-9.3 3.97l-.21-1.86c-1.74-3.64-2.23-5.44-1.26-8.92l2.48-1.01z"/><path fill="#aa2002" d="M1361.16 1154.8c3.29 1.41 2.38.5 4.14 3.27-.92 3.58-1.84 4.48-5.36 6.66-1.74-3.64-2.23-5.44-1.26-8.92z"/><path fill="#f49c30" d="M1330.31 1152.91c5.21-.02 12.84-.46 17.53 1.11l-.98 3.05c-5.8 1.53-4.01-5.65-11.49 1.13l-.17 1.49c4.56 4.66 8.65.6 8.9 5.5-3.99 3.35-3.88-.88-7.79 2.97-.06 2.58-.16 3.49.33 6.1l-.48 2.1c-3.34-.17-3.56.38-5.81-1.23-1.01-7.24 1.62-11.19-.04-22.22"/><path fill="#f59036" d="m1336.64 1174.26 1.02-.07c4.11-.31 4.75-.41 8.47-2.1l1.86.25 1.47 4.13-13.3-.11z"/><path fill="#f49c30" d="M1170.53 1118.95c23.15-.32 15.71 22.85 2.94 33.18l-1.37-.79c-5.84-8.28-10.97-11.31-19.15-17.13 6.5-7.92 8.59-10.64 17.58-15.26"/><path fill="#aa2002" d="M1166.96 1124.84c12.35.74 18.47 9.66 9.15 19.97-4.99-5.46-12-9.02-14.07-14.78 1.03-3.3 1.39-2.64 4.92-5.19"/><path fill="#f59036" d="M1293.13 1160.25c2.24-4.49 1.73-10.93 5.27-13.07l3.05 1.05 2.7.41c3.13.6 10.25 1.73 12.95 2.96 8.62 3.94 15.71 13.55 3.98 19.27-7.91 3.86-12 2.38-20 1-3.28-.9-3.77-1.21-6.79-2.88l2.17-6.96z"/><path fill="#aa2002" d="M1293.13 1160.25c2.24-4.49 1.73-10.93 5.27-13.07l3.05 1.05 2.7.41c3.27 5.64-.48 17.56-3.07 23.23-3.28-.9-3.77-1.21-6.79-2.88l2.17-6.96z"/><path fill="#f59036" d="M1293.13 1160.25c2.24-4.49 1.73-10.93 5.27-13.07l3.05 1.05-4.99 13.8z"/><path fill="#aa2002" d="M1311.91 1152.28c10.01 4.11 9.57 9.62 4.32 17.96-3.65.74-4.81 1.32-7.13-1.66-.74-4.73 1.52-11.4 2.81-16.3"/><path fill="#f59036" d="M929.67 1181.71c-2.53-1.69-3.125-2.11-5.279-4.24 1.622-4.95 7.428-7.1 9.9-12.62 1.114-2.48 3.472-6.64 4.833-9.24l1.086-.26 5.276 3.44c3.74 2.51 7.987 4.86 10.266 8.67l.067 2.25c-3.768 3.9-5.328 3.51-6.658 7.82 1.31 5.66 1.575 3.7.056 8.47-5.985 5.33-13.916-.41-19.547-4.29"/><path fill="#f49c30" d="M929.67 1181.71c-2.53-1.69-3.125-2.11-5.279-4.24 1.622-4.95 7.428-7.1 9.9-12.62 1.114-2.48 3.472-6.64 4.833-9.24l1.086-.26 5.276 3.44-1.449 2.94c-2.493 3.09-3.244 3.7-4.571 7.34l-.506 2.3c-3.458 2.96-4.198 3.88-6.947 7.54z"/><path fill="#aa2002" d="M938.96 1171.37c3.243 2.47 4.055 2.68 5.157 6.35-.524 3.58.273 2.15-2.374 4.49-4.346.95-6.414-.54-9.73-3.3 2.749-3.66 3.489-4.58 6.947-7.54M944.037 1161.73c4.142 2.74 3.829 1.67 5.702 5.52-.971 3.01-.063 1.81-3.124 3.47-3.629.09-3.778-.07-7.149-1.65 1.327-3.64 2.078-4.25 4.571-7.34"/><path fill="#f49c30" d="M993.015 1183.23c7.185 1.35 16.605 2.14 21.765 7.03 2.03 5.76-1.33 8.23-5.94 11.17 1.44 4.26 4.21 9.72 2.67 13.18-3.32.62-4.31.09-7.7-.77-2.45.03-3.875-.39-6.279-.84-3.055-.85-6.022-1.66-9.033-2.67.157-2.76.385-2.39 1.393-4.68 2.65-6.01 3.026-15.82 3.124-22.42"/><path fill="#aa2002" d="M997.531 1213c-.411-4.14-1.108-6.77.476-10.55l1.748-1.35c4.815 2.24 4.655 7.95 4.055 12.74-2.45.03-3.875-.39-6.279-.84M1000.76 1188.32c3.34.63 5.42.58 7.57 2.99.39 3.67.34 2.44-1.5 6.23-2.97.33-4.22.79-6.81-.65-1.212-2.59.02-5.63.74-8.57"/><path fill="#f49c30" d="M1427.12 1125.86c6.16-.41 14.78 3.02 13.31 10.7-1.72 8.99-6.29 11.48-13.29 16.5-2.8-3.15-9.77-15.37-12.3-19.6 4.11-3.18 7.76-5.08 12.28-7.6"/><path fill="#aa2002" d="M1422.28 1130.06c11.51-.72 16.49 6.3 10.69 16.56-1.54.12-2-.03-3.54-.21-3.54-3.65-8.99-11.23-7.15-16.35"/><path fill="url(#a)" d="M966.85 1172.45c5.072 1.85 16.187 4.71 18.165 9.51l-1.178 2.19c-2.354 1.53-4 2.58-6.165 4.35.259 2.44.462 1.29-.763 3.54-5.875-.64-3.395-2.66-9.194-1.71-2.388 2.36-2.287 2.82-3.061 6.26 3.387 5.7 9.244 2.27 12.65 4.58l-1.989 3.56-1.827.32c-4.57-1.75-14.639-5.27-17.795-8.55 5.226-9.9 7.433-13.41 11.157-24.05"/><path fill="#aa2002" d="m977.672 1188.5-4.728-.97c-2.807-2.47-2.022-.99-2.677-4.45 1.52-2.57.819-1.72 3.976-3.12 3.903-.05 6.172 2.01 9.594 4.19-2.354 1.53-4 2.58-6.165 4.35"/><path fill="url(#b)" d="M1141.96 1145.11c1.8-1.72 3.28-3.22 5.3-4.71l.52 1.01c3.58 6.91 9.59 14.19 14.06 21.31l-.71.88c-5.41-.78-20.19-4.07-24.33-4.13l-2.45 2.89c-2.26-1.85-4.67-3.33-5.51-6.04 1.69-3.01 3.48-3.32 6.82-5.27z"/><path fill="#aa2002" d="M1141.96 1145.11c5.21 4.17 7.13 6.33 11.58 11.38-5.98-1.75-11.94-3.56-17.88-5.44zM1270.38 1137.44l6.56 2.24 4.97 3.23c-.46 2.51-.92 5.57-1.5 8.01l3.52.12c-2.22 4.63-2.65 11.23-4.58 13.99-2.04.19-2.63-.32-4.51-1.17l-6.04-3.46c-3.14.56-4.4.36-6.15-2.16 1.2-5.52 5.52-13.31 7.73-20.8"/><path fill="#f49c30" d="m1270.38 1137.44 6.56 2.24c-2.74 5.25-7.8 15.09-8.14 20.72-3.14.56-4.4.36-6.15-2.16 1.2-5.52 5.52-13.31 7.73-20.8"/><path fill="#f59036" d="m1280.41 1150.92 3.52.12c-2.22 4.63-2.65 11.23-4.58 13.99-2.04.19-2.63-.32-4.51-1.17 3.3-3.68 4.15-8.16 5.57-12.94"/><path fill="#f49c30" d="M1110.81 1166.85c6.5 2.2 19.13 13.46 25.25 18.24-3.61 2.2-4.65 3.74-8.23 3.54-.32-.5-.64-1-.97-1.49-2.59-3.89-2.67-3.6-6.51-4.37-7.29 5.19-6.28 4.67-4.17 13.03l-1.57 1.88-1.77.07c-3.9-5.51-6.14-25.06-2.03-30.9"/><path fill="url(#c)" d="M1486.16 1068.41c3.54-3.76 7.95-9.03 12.36-11.3l1.76.57.54 2.19 3 3.49 1.02 2.66c-1.34 2.83-1.89 2.96-4.57 4.84 1.12 3.01 2.62 4.86 5.63 5.57 2.56-1.41 3.99-5.24 5.41-8.03l1.55-.02 1.7 2.16c-.44 2.8-8.45 10.33-11.45 13.94-.14-.21-.28-.42-.42-.62l-.72-1.01c-4.63-6.57-9.14-10.04-15.81-14.44"/><path fill="#aa2002" d="m1500.82 1059.87 3 3.49 1.02 2.66c-1.34 2.83-1.89 2.96-4.57 4.84l-2.35-1.25c-2.79-1.32-3.53-1.65-4.32-4.37 1.72-3.01 4.06-3.73 7.22-5.37"/><path fill="#f59036" d="m1503.82 1063.36 1.02 2.66c-1.34 2.83-1.89 2.96-4.57 4.84l-2.35-1.25z"/><path fill="#f49c30" d="m1405.86 1139.2 3.31-2.33 1.85.37c2.41 4.35 2.63 7.68 4.51 12.4 1.81 4.05 2.62 4.1 2.05 8.07-4.91.95-12.96-7.85-18.02-8.34l-2.53 2.05c-1.3-2.44-2.12-3.82-3.65-6.12 1.38-2.32 1.97-1.76 5.51-2.81z"/><path fill="#aa2002" d="m1405.86 1139.2 3.31-2.33 1.85.37c2.41 4.35 2.63 7.68 4.51 12.4l-2.66.14c-3.29-.31-10.69-5.3-13.98-7.29z"/><path fill="#f59036" d="m1405.86 1139.2 3.31-2.33 1.85.37c2.41 4.35 2.63 7.68 4.51 12.4l-2.66.14c-2.23-5.07-3.22-6.62-7.01-10.58"/><path fill="#f49c30" d="M903.886 1121.7c1.93 1.3 4.753 4.55 6.485 6.37-6.945 4.65-12.688 9.8-18.807 15.41 3.553 3.92 4.766 4.45 9.709 6.38l1.013.38.337 2.09-2.918 1.41c-5.397-.6-11.795-9.79-15.473-14.25 8.831-5.84 13.184-9.48 19.654-17.79M1372.43 1150.37c4.3-1.04 12.49-3.88 16.06-2.96l.71 1.98-.62 1.22c-3.2-.43-4.66-1.06-7.49.55-1.47 3.11-1.19 1.49-.67 5.06l1.53 1.64c2.79-.35 3.1-.51 5.8-1.44l1.02 1.11-.75 1.47-5.44 1.59c-1.12 2.76.11 5.4.97 8.37l.5 2.54c-3.67.75-3.23 1.27-6.12.12-.54-2.64-.87-4.99-1.25-7.65-3.12-.84-4.05-1.11-7.23-1.35 2.36-4.81 1.29-5.62-1.22-9.95z"/><path fill="#aa2002" d="M1372.43 1150.37c1.66 4.78 3 8.7 4.25 13.6-3.12-.84-4.05-1.11-7.23-1.35 2.36-4.81 1.29-5.62-1.22-9.95z"/><path fill="#f49c30" d="M1039.57 1190.18c.05 7.06-.51 18.43 1.54 24.9l-1.13 1.2c-.78.07-8.6.9-8.52-.43.39-6.98 4.17-18.06-.12-23.99l-1.9-.11c-1.73 1.35-2.88 2.6-5 2.81-.54-3.25-.74-1.76.34-4.64 3.89-1.57 9.03-1.06 13.4-1.01zM1053.71 1188.42c4.74-1.48 6.65-2.7 10.58-.73 2.22 4.67 3.53 7.17 8.32 9.36l2.55.74-.15 1.06c-.92 6.34 2.62 9.59 1.68 12.58-13.64 3.84-5.39-2.39-9.35-8.99-2.16-3.6-10.24-10.74-13.63-14.02M924.341 1142.58c2.231 1.15 5.602 4.15 7.662 5.85-7.525 5.68-14.133 12.65-18.179 21.21l-6.98-7.34c8.028-6.18 12.054-11.2 17.497-19.72M1281.91 1142.91c3.11-.51 1.97-.47 5.18.8 3.37 3.95 4.74 11.35 6.04 16.54l3.33 1.78-2.17 6.96-.71.59-1.97-.19c-2.45-3.3-4.74-13.16-6.87-18.51l-.81.16-3.52-.12c.58-2.44 1.04-5.5 1.5-8.01M1472.47 1099.54c2.45 2.53 6.91 6.19 7.54 9.04-7.68 3.15-17.84-4.95-20.92-.55l-2.56.73c-2.23-1.81-2.65-2.13-4.42-4.36l.31-1.81c6.84-3.78 15.58 1.15 19.12-.83zM1474.57 1080.01l1.47 1.68c1.89 5.98 4.47 12.94 11.72 11.79 3.64-2.46 5.05-5.32 7.36-9.01l1.54-.3 1.19 1.37c-.29 3.11-5.88 10.9-8.72 12.12-12.95 5.53-17.31-7.49-14.56-17.65M1439.15 1114.96l1.59 1.97c2.87 3.25 1.81 3.08 5.21 3.7 1.7-1.16 3.43-2.3 5.17-3.41l1.41 1.54c-2.99 5.16-3.95 2.39-4.06 7.13 2.13 2.54 2.42 2.95 5.08 4.86l.67 2.34c-2.14 1.9-2.88 2.83-5.62 3.8-.79-2-2.26-5.88-3.51-7.52-3.04-3.98-8.82-5.74-9.23-10.77zM1136.8 1159.47c4.74 6.11 7.54 9.77 13.52 14.71l-4.28 3.23c-2.7-.65-8.53-11.33-11.69-15.05z"/><path fill="#f49c30" d="M1072.61 1197.05c2.51-5.17 2.27-6.84 2.11-12.45 3.23-1.45 2.15-1.5 5.22-1.04.52 3.66-3.08 10.31-4.78 14.23z"/><path fill="#f59036" d="M1399.56 1149.37c1.1 5.52 3.43 8.65 6.48 13.29-1.94 1.82-1.87 1.99-4.53 2.74-1.4-5.83-1.96-8.59-4.48-13.98zM1459.09 1108.03c4.02 4.49 5.96 5.91 10.79 9.47-.73 2.3-.07 1.28-2.56 2.75-2.26-.79-8.32-8.78-10.79-11.49z"/><path fill="#de6a2d" d="M1471.54 1101.76c-3.93-5.07-6.88-4.55-8.71-7.46.88-2.89.06-1.72 2.73-3.48 3.26 1.44 4.08 4.72 6.91 8.72z"/><path fill="#f59036" d="M1383.55 1168.96c5.05-2.01 6.86-3.78 11.66-3.3l-1.45 1.7.92-.32c-3.92 3.04-5.94 3.28-10.63 4.46zM1474.57 1080.01c2.97-3.84 7.26-7.78 12.21-4.32l-1.05 1.75c-5.38.46-6.14-.46-9.69 4.25zM1453.55 1130.75c2.7-3.64 3.39-5.92 7.04-7.31 1.17 4.12-3.49 7.16-6.37 9.65zM1038.18 1188.91c4.46-.32 5.24-1.1 8.86.73l1.32 2.13-1.1 1.58c-3.11.16-4.93-1.46-7.69-3.17zM1439.15 1114.96c2.66-2.38 4.84-5.04 8.17-5.4l2.03 1.42-.44 1.31c-3.71 1.44-5.39 1.76-8.17 4.64z"/><path fill="#dfab16" d="M696.806 951.333c14.352 13.724 30.629 17.776 49.884 14.756 16.881 12.441 25.29 22.16 30.229 44.701 8.362 38.16-33.695 76.49-68.613 53.47-2.808-1.85-5.734-6.03-7.633-9.11-3.198-2.49-2.388-2.7-5.568-2.68-2.347 2.34-2.882 7.09-3.541 10.55 5.338 18.12 22.164 34.95 41.634 35.66-.474-3.82-1.353-7.38-.114-10.89l1.706-.74c14.028 6.98 21.864 13.33 37.675 16.04-5.204-7.04-5.981-8.47-7.781-17.23 13.391 7.67 44.781 19 59.382 10.77 11.422 1.53 20.434 13.12 28.217 21.33a900 900 0 0 1-24.185 4.16c-35.909 39.19-69.195 74.29-127.675 64.08-52.527-9.16-85.198-38.89-123.362-73.23.309 9.56 1.217 17.78-4.413 25.62l-.746 1.02c1.287 4.69 15.033 12.81 15.749 23.51.234 3.52 1.499 10.74-1.199 14.76-2.74-2.52-10.327-9.48-13.394-10.47-20.502-6.64-28.827-.73-41.881-20.43-21.468 22.8-42.559 24.8-62.107-1.49 33.125 20.22 37.76-13.05 56.6-32.93 13.329-4.15 21.634-11.56 29.475-22.75-11.721-14.8-26.321-28.13-44.226-34.66 3.811-8 20.463-21.53 27.535-27.78 3.028-2.67 6.672-3.23 10.64-3.23 40.148-37.472 90.036-73.547 147.712-72.807"/><path fill="#af1e1b" d="M549.094 1024.14c17.396 9.45 19.692 12.83 32.77 26.02 40.983 41.05 83.056 85.38 145.842 86.71 14.962.31 28.617-4.71 40.598-13.65 21.791 1.29 38.255.74 59.794-1.1-35.909 39.19-69.195 74.29-127.675 64.08-52.527-9.16-85.198-38.89-123.362-73.23.309 9.56 1.217 17.78-4.413 25.62l-.746 1.02c1.287 4.69 15.033 12.81 15.749 23.51.234 3.52 1.499 10.74-1.199 14.76-2.74-2.52-10.327-9.48-13.394-10.47-20.502-6.64-28.827-.73-41.881-20.43-21.468 22.8-42.559 24.8-62.107-1.49 33.125 20.22 37.76-13.05 56.6-32.93 13.329-4.15 21.634-11.56 29.475-22.75-11.721-14.8-26.321-28.13-44.226-34.66 3.811-8 20.463-21.53 27.535-27.78 3.028-2.67 6.672-3.23 10.64-3.23"/><path fill="#f49c30" d="M620.783 1101.56c5.629 4.22 22.449 14.29 14.464 22.63-3.319 3.46-8.21-3.09-9.075 7.81-.355 2.52-.412 6.93-.502 9.58-2.09-1.49-7.825-5.4-9.389-6.96-2.383-2.04-2.477-2.21-4.359-4.76l-1.413.32c-2.778-1.98-4.426-3.18-6.916-5.5 8.461-7.7 11.549-13.4 17.19-23.12"/><path fill="#aa2002" d="M611.922 1129.86c1.236-3.79 1.405-5.32 4.233-8.19l2.172-.48c4.758 4.29.952 9.27-2.046 13.43-2.383-2.04-2.477-2.21-4.359-4.76M623.777 1110.54c3.346.11 4.331.95 6.248 3.45-.022 4.1.119 2.68-2.236 6.6-3.262-.58-4.921-.49-7.186-2.66-.077-3.85.739-3.75 3.174-7.39"/><path fill="#f49c30" d="M715.342 1146.95c6.399.1 15.027-1.15 20.668.94 1.437 2.81 1.08 1.7.27 5.49-.576 1.07-1.91 3.38-2.228 4.41l-.31 3.81-1.617.97-.642-.21c-2.878-.92-4.786-1.3-7.748-1.86-.821 4.55-2.116 7.39.953 11.2 3.251.79 6.53-1.73 11.829-2.05l1.196 1.24-.303 3.14c-3.307 2.34-18.127 1.1-23.39 1 3.063-7.85 3.36-19.81 1.322-28.08"/><path fill="#aa2002" d="M723.699 1159.14c-.049-2.07.075-4.23.145-6.3 1.912-3.04.625-2.04 3.911-3.22 4.214.55 4.981 1.31 8.525 3.76-.576 1.07-1.91 3.38-2.228 4.41l-.31 3.81-1.617.97-.642-.21c-2.878-.92-4.786-1.3-7.748-1.86z"/><path fill="#f49c30" d="m734.052 1157.79-.31 3.81-1.617.97-.642-.21c-2.878-.92-4.786-1.3-7.748-1.86l-.036-1.36c3.721-.05 6.707-.71 10.353-1.35M679.567 1138.56c3.406.79 6.173 1.13 9.073 3.03-3.746 6.78-10.122 19.92-2.644 25.95 13.942 1.92 10.682-13.7 12.502-23.1l3.91-.41 1.87 1.9c-2.913 14.22-10.717 35.75-27.511 19.14-3.481-3.45 1.993-21.07 2.8-26.51M575.199 1057.41c2.679 1.86 3.044 2.28 5.264 4.72.465 3.01-7.66 15.69-9.574 21.37 9.675-3.13 14.118-2.87 18.663-11.06 2.198.09 4.12 2.88 6.092 4.87-1.711 1.48-22.722 10.1-26.606 10.03-3.014-.06-2.386-.19-4.267-1.94-1.19-6.78 6.967-20.7 10.428-27.99M603.961 1086.75c1.49 1.09 5.317 4.98 6.842 6.45-8.954 7.08-12.275 10.72-18.872 20.31-2.162-1.81-4.58-4.53-6.579-6.61 7.339-6.53 13.15-11.99 18.609-20.15M656.266 1126.96l8.747 4.46-3.173 1.51c-4.549 5.62-8.643 16.56-11.379 23.53-2.127-.81-5.928-3.15-8.048-4.37 5.126-6.83 9.581-15.5 13.038-23.3z"/><path fill="#f59036" d="M655.451 1128.79c-3.293.29-5.358.87-8.166-.6l-.634-2.11 1.816-1.52c4.165-.46 3.668.14 7.799 2.4zM665.013 1131.42c3.901 2.46 3.215 1.22 4.492 4.82l-.361 2.06c-4.93.4-4.268-2.09-7.304-5.37z"/><path fill="#00205b" d="M644.337 1045.6c-7.822-2.72-13.127-5.21-16.662-13.25l.587-1.32c8.397.68 14.093 4.89 21.814 1.76 2.702-2.87 1.879-1.56 2.812-5.51-3.566-10.14-12.834-17.31-6.325-29.547 15.225-28.623 67.803-26.552 93.065-16.111 27.937 11.546 33.344 70.448-4.988 67.868l-1.359-.98.686-1.29c5.24-9.99 3.088-15.05.448-26.09-14.711-16.24-33.871-15.11-49.484-.67-21.693 20.05-17.217 56.24 3.196 75.43 21.708 21.38 51.549 24.97 80.177 27.33-11.981 8.94-25.636 13.96-40.598 13.65-62.786-1.33-104.859-45.66-145.842-86.71l2.378-5.03 1.479-.42c2.591 2.28 3.458 3.31 6.557 4.67 3.263-.91 4.314-1.62 6.204-4.94a94 94 0 0 0 2.118-4.02c2.477 8.21 4.683 15.36 13.118 18.96 14.982 6.39 24.243-2.13 30.619-13.78"/><path fill="#0d2c3b" d="M697.526 1035.31c.662 8.81.676 11.32 3.147 19.84-3.198-2.49-2.388-2.7-5.568-2.68-2.347 2.34-2.882 7.09-3.541 10.55-1.544-11.5 1.264-17.42 5.962-27.71"/><path fill="#0e6a34" d="M800.031 825.994c-1.365 20.001-2.376 44.896 2.742 64.452 3.373-12.274 5.131-19.862 11.519-31.102-3.363 21.823-4.691 46.327-1.13 68.187 1.389-10.033-.408-27.84 7.467-34.86 25.422-22.661 22.494 23.967 22.142 33.629-1.989-6.352-5.786-19.799-12.431-22.446l-1.535 1.82c-2.629 11.46 1.606 33.338 3.706 45.187 2.622-4.852 4.652-9.005 9.91-11.324 4.446-.057 7.248.947 9.262 5.304 14.631 31.658 17.342 52.548 47.461 75.179-11.204-18.98-13.571-27.293-14.841-48.821 9.657 17.009 16.045 25.55 29.133 39.811l4.021-3.72c16.4-10.629 94.183 55.88 109.403 68.12 24.31-26.39 39.37-46.2 75.84-54.67-12.11 22.29-27.03 35.27-47.9 48.75 3.55-.82 12.66-2.88 15.49-4.21 33.77-15.99 44.84-42 81.44-55.74-9.49 17.62-16.76 26.48-29.83 41.66 11.78-3.14 38.74-9.59 42.41-21.12 8.64-27.14 12.22-40.447 30.29-64.486 1.51 26.145.25 36.896-12.7 60.856 15.56-10.69 28.52-18.96 36.37-36.592-8.52-25.86-15.49-37.759-5.38-65.546 11.59 18.82 18.34 29.613 16.45 53.1 6.15-11.195 11.53-20.023 13.78-32.812-17.4-30.125-24.7-31.973-20.68-69.847 15.71 22.405 19.77 30.458 25.48 57.328 8.83-30.351-3.58-26.283-8.8-53.911-2.04-10.816-3.41-32.492-4.37-44.049 11.82 10.164 18.77 19.365 24.12 34.227 7.81 21.703-.13 41.32-2.6 63.381 3.59-5.053 7.12-10.156 10.89-15.08 9.6-12.537 21.4-23.19 30.96-35.754-2.68 40.951-14.28 50.089-44.78 69.807-3.68 2.382-18.34 32.132-22.57 39.167 18.76-17.402 29.67-22.897 52.98-32.327-12.06 31.649-33.52 43.988-65.59 48.978-7.99 7.8-14.43 13.36-23.06 20.5 19.54-6.28 36.55-7.69 55.33-12.66-40.32 57.7-65.95 18.76-93.89 34.1 22.87.85 36.05 4.34 56.81 14.67-19.97 6.91-53.88 12.41-73.33 5.41-27.14-9.76-26.91-7.49-55.82.54 19 5.44 33.3 10.74 51.82 17.68-8.41 3.17-12.94 4.44-21.82 6.06l-.03 2.17c-20.66.06-35.73.16-55.07 8.82l-6.65 3.95c-11.84 9.88-20.98 18.97-23.78 34.75l-2.05-.23c-2.68-19.36-14.41-32.58-31.566-41.03-34.176-14.97-82.194-17.36-118.935-13.22-6.847-1.24-13.99-1.98-20.916-2.8 4.128-1.97 6.167 1.4 11.006-2.25 10.802-8.94 38.259-17.72 52.216-21.53-22.572-1.34-33.413 1.07-57.545-3.41l31.99-8.98c-5.845-2.84-10.997-6.64-17.078-9.52-13.764-6.54-33.556-8.72-48.828-9.79-1.455 14.25-5.751 25.28-10.133 38.79-13.434-43.87-21.241-59.86 34.14-54.29-33.771-16.922-72.456-38.593-95.874-68.94 19.101 7.341 30.332 12.199 48.788 21.419-15.861-28.17-23.504-53.405-48.659-72.438 20.676 7.412 25.776 12.424 40.185 28.005a992 992 0 0 0-16.854-54.462c4.27 5.743 8.938 13.421 12.89 19.545.644-24.027 1.712-38.278 8.584-61.385"/><path fill="#00205b" d="M866.209 1082.98c14.269-.84 28.461-3.89 42.322-5.06 28.954-2.43 65.379-.76 93.379 7.67-4.055 2.42-9.476 5.16-12.267 8.72-.095 4.24 2.395 3.95 6.266 4.81l-.855 2.13c-34.176-14.97-82.194-17.36-118.935-13.22-6.847-1.24-13.99-1.98-20.916-2.8 4.128-1.97 6.167 1.4 11.006-2.25"/><path fill="#00205b" d="M995.909 1099.12c7.051-2.61 14.071-6.51 20.791-10 15.74 6.11 21.51 9.53 35.75 18.64-11.84 9.88-20.98 18.97-23.78 34.75l-2.05-.23c-2.68-19.36-14.41-32.58-31.566-41.03zM1059.1 1103.81c-3.56-11.81-17.37-15.33-22.18-22.24 12.24-6.03 42.11 6.5 55.51 8.89 9.1 1.63 12.14 2.35 21.77 2.36l-.03 2.17c-20.66.06-35.73.16-55.07 8.82"/><path fill="#0d2c3b" d="m913.436 1011.01 4.021-3.72c9.7 12.49 32.694 28.33 44.931 39.39-17.317-10.02-35.463-20.66-48.952-35.67M852.538 976.356c6.404 2.017 18.94 28.934 21.657 35.764-10.917-7.94-19.997-22.264-21.657-35.764"/><path fill="#dfab16" d="M1348.87 956.575c50.09 1.641 82.96 19.826 121.43 51.305 12.49 10.22 25.94 23.22 38.8 32.53-12.14 5.29-19.83 10.18-29.63 19.06l-1.04-.77c-3.61 6.09-12.86 14.39-18.02 19.98-24.24 26.27-50.76 48.91-86.29 58.21-27.63 7.23-60.33 4.42-87.73-4.13-.64-.2-1.21-.93-1.66-1.42l1.1-1.11c-17.35 1.2-62.34-2.01-79.65-4.59 5.96-7.08 9.94-12.02 17.49-17.43l11.26-1.03c16.66.19 32.93-1.27 48.38-8.13 4.54-2.02 8.19-4.62 13.34-6.88l1.41.69c.96 3.7-.12 6.74-.94 10.56 7.62-2.15 20.62-9.97 25.16-8.84 1.17 3.11.29 4.38-.42 8.05l.9.85c28.61-7.16 38.45-37.2 26.13-62.82.36 9.13-.04 20.5-6.4 26.73-28.14 27.53-69.96-2.24-69.56-36.72.31-26.49 9.43-38.62 25.2-55.894l7.78-5.466c20.87.52 24.82-3.773 42.96-12.735"/><path fill="#00205b" d="M1314.31 1053.22c-36.39-10.85-21.2-49 1.4-64.969 24.46-17.278 83.67-13.833 83.85 25.409.04 9.58-3.73 12.85-5.74 21.43 1.87 7.17 9.79 9.31 16.52 8.98 8.14-.41 12.66-6.05 17.48-11.88-1.68 17.18-7.13 21.62-22.91 26.1 17.98 21.35 28.87 11.56 46.1-2.81 3.78 3.98.8 4.05 5.44 6.58 3.56-1.19 3.94-3.15 6.93-6.61l6.15 3.53c5.63-.54 1.77-1.97 6.21-3.27l2.69 2.99c-3.61 6.09-12.86 14.39-18.02 19.98-24.24 26.27-50.76 48.91-86.29 58.21-27.63 7.23-60.33 4.42-87.73-4.13-.64-.2-1.21-.93-1.66-1.42l1.1-1.11c31.8-.67 67.11-13.34 84.53-41.33 14.06-22.61 11.32-51.73-12.6-66.11-18.86-11.34-41.74-5-45.54 17.95-.67 4.14.28 7.32 1.67 11.3z"/><path d="M522.834 440.846c-.507 5.687-3.558 30.247.609 32.875 6.038-5.76 6.586-27.671 17.089-32.072l2.427 1.155c4.409 5.393 5.703 12.976 7.238 19.706 18.711-1.799 21.336-6.471 33.765-19.817-1.988 7.651-3.147 12.781-6.468 20.044 1.794.397 1.807.544 3.606.5l1.978 1.465c.715 6.81-.706 12.695-1.111 19.346 4.096 1.223 10.593 2.198 13.007 4.267-1.936 5.57-17.306 2.311-24.08 5.057l-.157 1.363c9.682 7.14 38.961 19.216 51.097 22.261 2.767 6.902 5.901 14.223 8.006 21.31-5.366 17.152-5.202 20.977-23.927 15.364 2.238 2.977 4.307 4.905 4.476 8.474-3.658 9.206-15.894 3.959-21.716-.347l-2.212 12.935c15.734 5.346 33.943 11.262 47.52 21.324l4.474 3.361c4.579 2.324 9.259 6.682 10.953 7.525-35.034 49.566-65.751 64.732-122.591 83.725l1.841 4.355c1.038 7.384-2.54 13.314-6.425 19.523l-.785-.433c1.04-2.837.897-3.032.337-6.11-10.482-9.126-12.24-12.115-18.234-24.488.236 10.388 1.217 15.09 3.401 25.032-11.283-5.397-13.632-10.424-22.195-15.943-18.038-11.626-21.225-8.95-31.864-28.15-.616 5.197-1.012 11.013-1.487 16.277-4.752-8.717-7.884-17.368-11.487-26.603-5.658 5.183-9.213 6.84-16.01 10.285 14.791-32.858-7.959-32.244-.133-70.542l-9.7 5.601c-.05-5.676.673-12.145 1.172-17.874-5.361-10.21-7.693-18.255-7.069-29.832.859-15.946-.985-22.599 8.208-36.447-8.487-2.963-10.581-3.619-16.476-10.446 8.713-6.782 16.046-13.664 24.162-21.148-2.091-2.269-4.331-5.846-6.109-8.481 6.877.833 12.633 2.015 19.382 3.391-2.005-7.158-2.358-11.529-2.549-18.892 12.28 8.984 19.797 14.043 31.909.792 11.121-12.166 21.843-11.198 34.795-2.725 7.372-7.534 11.539-12.941 21.333-16.963"/><path fill="#af1e1b" d="M581.057 548.903c3.365 1.916 4.442 2.542 8.108 3.709-.135 2.893-.197 6.356-.492 9.185l-2.212 12.935c15.734 5.346 33.943 11.262 47.52 21.324l4.474 3.361c4.579 2.324 9.259 6.682 10.953 7.525-35.034 49.566-65.751 64.732-122.591 83.725-.35-5.665-3.82-13.593-6.183-18.683.788-2.528 6.204-5.738 8.978-7.579 26.282-17.451 43.053-60.086 47.974-90.915l2.446-14.394z"/><path d="M586.461 574.732c15.734 5.346 33.943 11.262 47.52 21.324-20.949 28.394-54.567 54.459-87.589 66.582 25.154-34.633 29.664-45.568 40.069-87.906"/><path fill="#fcfafc" d="m633.981 596.056 4.474 3.361c-29.75 35.972-60.036 57.192-104.662 72.106 4.73-4.178 7.129-5.593 12.599-8.885 33.022-12.123 66.64-38.188 87.589-66.582"/><path fill="#af1e1b" d="M580.704 547.973c-10.276-3.32-59.197-25.796-66.05-32.369-2.495-6.693 8.82-26.61 14.61-30.313 3.389-.454 5.422-.613 7.135 2.557-4.997 20.04-31.886 17.486 16.958 38.801 9.743 4.252 20.232 10.191 30.4 13.19-1.938 3.461-2.532 4.246-3.053 8.134"/><path fill="#00205b" d="M541.674 563.342c18.342-1.913 17.525-5.514 38.358-4.246l-2.446 14.394c-10.525 1.003-26.677-5.644-35.912-10.148M521.785 708.002c.767-9.776-3.474-24.698-1.151-36.018 2.363 5.09 5.833 13.018 6.183 18.683l1.841 4.355c1.038 7.384-2.54 13.314-6.425 19.523l-.785-.433c1.04-2.837.897-3.032.337-6.11"/><path fill="#fcfafc" d="M583.757 539.839c3.907.052 4.806-.126 7.858 2.199 2.499 4.918 1.024 6.808-2.45 10.574-3.666-1.167-4.743-1.793-8.108-3.709l-.353-.93c.521-3.888 1.115-4.673 3.053-8.134"/><path fill="#0d1b32" d="M567.153 475.234c3.485-4.575 6.536-8.174 10.341-12.497 1.794.397 1.807.544 3.606.5-4.234 4.715-8.965 8.132-13.947 11.997"/><path fill="#fcfafc" d="m552.457 507.83 1.788.516c.859 4.021 1.391 5.51-1.592 8.594l-4.794-.043c-3.436-1.771-3.475-1.099-5.083-3.887 1.653-2.632 6.515-3.943 9.681-5.18M561.79 507.278c2.629.734 3.497 1.491 5.733 2.966 1.428 2.952 1.27 1.596.159 5.187-3.833 1.143-3.5 1.79-6.091.476-.061-3.034.053-5.596.199-8.629"/><path d="M1497.27 465.777c1.51-6.887 2.49-14.323 7.06-19.688l2.64-1.225c9.03 3.426 13.54 26.365 18.85 35.985.35-14.023-.73-24.905-.91-38.335 8.83 5.357 13.66 10.325 21.11 17.362 11.15-7.456 22.48-10.538 32.29.255 13.32 14.656 19.35 12.006 34.67 1.174-.15 7.727-.46 11.412-1.72 19.032 6.21-1.221 12.81-2.397 18.94-3.769-2.45 3.501-4.24 6.305-7.29 9.354 8.49 5.534 16.02 14.395 25.32 21.132l-6.89 7.418c-3.44 1.006-6.8 2.022-10.28 2.876 10.78 15.114 9.32 30.171 8.27 48.153-.36 6.224-4.38 13.622-6.49 19.427-1.12 2.96 1.74 10.054-.14 16.529-3.7.637-4.85-4.166-7.53-2.491-.21 5.067 1.14 17.037.5 19.86-5.43 23.797-12.03 24.946-1.63 48.248-6.28-3.685-10.2-5.989-16-10.478-4.11 9.998-6.99 16.859-12.41 26.384-.58-4.67-1.13-10.283-1.94-14.832-2.88 4.952-8.35 13.778-13.43 16.383-12.93 6.633-26.81 20.293-39.4 25.623 1.31-5.977 4.15-17.276 2.5-22.841-7.18 11.722-4.12 12.498-17.56 23.345.03-6.404 1.75-28.351-.33-31.901-2.1 5.3-3.6 8.417-4.23 14.101-55.68-19.617-88.83-34.296-123.63-83.929.65-.309 10.03-7.023 11.25-7.886l4.4-2.682c20.63-12.452 25.07-14.817 48.17-20.924-.83-4.062-1.38-8.403-1.99-12.521a84 84 0 0 1-3.27 1.41c-5.81 2.379-15.95 5.783-18.87-1.809.43-3.908 3.08-6.099 5.79-9.206-18.1 5.207-19.46 3.891-24.79-13.96a131.6 131.6 0 0 1 7.44-21.767c10.12-2.381 45.85-15.185 50.66-24.399-5.22-3.525-20.75 3.693-24.08-5.384 3.98-1.368 9.42-2.593 13.61-3.648-1.21-7.245-1.66-14.847-1.92-22.179 1.95-.203 3.01-1.08 4.69-2.107-2.64-6.791-3.78-10.913-5.59-18.019 12.31 14.696 14.91 18.686 34.16 21.929"/><path fill="#af1e1b" d="M1457.84 554.993c3.54-.724 4.63-1.338 7.98-2.851.37 2.881.77 7.088 1.43 9.805l2.47 14.827c7.87 38.232 21.62 72.776 55.4 95.058q.825.542 1.65 1.07c.28 2.841-.13 3.301-1.3 5.855-2.1 5.3-3.6 8.417-4.23 14.101-55.68-19.617-88.83-34.296-123.63-83.929.65-.309 10.03-7.023 11.25-7.886l4.4-2.682c20.63-12.452 25.07-14.817 48.17-20.924-.83-4.062-1.38-8.403-1.99-12.521z"/><path d="M1461.43 577.437c4.95 23.718 14.16 52.621 28.64 71.917 1.88 2.51 9.41 12.3 8.64 14.379-37.38-16.801-60.28-33.681-85.45-65.372 20.63-12.452 25.07-14.817 48.17-20.924"/><path fill="#fcfafc" d="m1408.86 601.043 4.4-2.682c25.17 31.691 48.07 48.571 85.45 65.372 6 3.405 9.8 6.263 15.33 10.387-44.01-15.307-76.4-36.765-105.18-73.077"/><path fill="#af1e1b" d="M1524.43 512.98c-5.74-15.553-10.61-15.107-14.64-24.026 1.66-1.816 3.43-1.95 5.97-1.826 10.12.497 17.16 23.584 19.21 30.201-20.46 12.679-46.43 23.598-68.71 33.468-.08-4.084-.92-4.908-3.25-8.357 9.83-2.449 53.04-23.369 61.42-29.46"/><path fill="#00205b" d="M1467.25 561.947c8.69-3.538 29.53 1.433 39.02 3.276-10.12 6.303-24.43 12.296-36.55 11.551z"/><path fill="#fcfafc" d="M1457.84 554.993c-3.07-4.162-3.58-5.389-1.8-9.961 2.65-2.322 3.28-2.135 6.97-2.592 2.33 3.449 3.17 4.273 3.25 8.357l-.44 1.345c-3.35 1.513-4.44 2.127-7.98 2.851"/><path fill="#0d1b32" d="M1468.7 461.867c3.44 4.71 6.66 9.077 9.8 13.995-3.9-3.264-10.53-9.155-14.49-11.888 1.95-.203 3.01-1.08 4.69-2.107"/><path fill="#fcfafc" d="M1493.23 509.802c4 1.16 9.9 2.234 11.99 5.483l-1.27 2.206c-3.2.954-6.14 2.223-9.35 1.739-1.93-3.143-1.27-5.238-1.37-9.428M1483.55 509.447l1.93.944 2.1 8.948-1.48.993c-4.05-1.649-5.25-1.974-7.12-5.267 1.27-3.701 1.1-2.688 4.57-5.618"/><path d="M936.38 350.298c12.802-27.697 33.312-17.01 40.424-37.672 1.548-4.495-30.798-22.896-33.317-27.084 1.222-12.541 23.976-5.009 33.204-6.316 5.999-.85 21.537 9.662 24.869 15.124 9.61 15.787 1.07 32.713 1.68 49.442.09 2.075 2.21 2.474 3.82 2.93 16.3-6.628 8.92-58.577 45.02-41.692a45 45 0 0 1 12.32 8.391c6.99 6.578 15.07 17.022 21.22 24.535 21.49 26.211 43.18 50.637 69.44 72.291 10.74 8.856 24.26 18.675 31.06 30.817-17.45-5.102-21.38-6.519-37.21-16.054 12.15 15.723 26.39 23.329 38.95 37.654-42.48-5.954-75.69-47.845-114.31-65.425-3.52-1.606-8.1-1.266-11.35.607-10.44 18.329 96.69 65.259 98.13 89.6-3.45 1.213-9.06.459-13 .308a64.44 64.44 0 0 0-32.58 7.21c-13.9-11.043-30.26-24.218-44.64-34.519-.07 6.168-.86 15.049-4.54 20.155-9.55 5.933-11.91-6.462-10.5 16.653 2.47.986 9.94 4.174 12.1 4.752l.54 6.994c-3.95-1.859-10.54-4.03-14.84-5.582-4.37 2.006-7.41 3.609-11.33 6.43-3.75 2.701-6.89 9.003-9.76 9.516-1.99-4.369-.9-7.207 1.34-11.105-2.77-.678-4.97-.105-7.82.291-4.37-2.81-8.7-5.694-12.98-8.649-5.45 2.154-10.35 4.183-15.991 5.772l-2.069 2.338c.843 1.109.768 1.251 1.859 2.034-1.36.367-2.87-.082-4.389-.318l-.893-1.486c-.008-3.735 3.113-5.546 4.868-9.68-1.765-.712-7.518.243-10.327.132l-.744-.036c7.078-9.434 8.385-5.719 18.186-4.933 9.59.768 14.28-8.113 10.45-16.798-3.4 1.088-4.53 1.91-7.87.655-6.058-5.571-16.467-32.695-19.138-41.335-16.213-4.224-26.989-10.26-41.803-17.851-1.929-.988-3.25-.457-5.159.112-4.83 6.304-.717 70.231-11.357 80.406l-1.471-.253c-1.97-3.488-10.148-26.446-11.103-30.944-10.125-47.713-23.346-93.568-32.601-141.544-2.486-12.89-2.387-41.788 19.586-25.66 11.712 8.597 22.723 36.446 34.026 49.787"/><path fill="#00205b" d="m1024.33 477.603 2.2 2.249c8.85 9.13 11.72 5.104 18.31-3.494.52 7.716 1.94 14.155-2.36 20.541-3.65 2.961-13.78 6.674-18.07 2.743-3.53-8.633-.99-13.322-.08-22.039"/><path d="m1631.45 796.629 2.04 1.192c4.68-2.778 8.71-13.049 11.08-17.636 8.79-17.013 27.6-33.173 48.29-26.97 30.27 9.072 32.86 38.429 31.26 63.791 40.16 14.198 63.19 74.048 54.2 113.48 19.31-5.884 23.84-.867 39.72 9.021-16.04 1.379-26.15.608-35.36 16.142a443 443 0 0 0 5.35 19.265c-21.48-5.076-29.17-10.541-40.37-28.285-27.48-11.603-33.79-15.652-38.22-45.49-16.51-2.038-22.83-4.656-30.72-19.941-1.47 1.964-3.57 5.498-5.46 6.3-3.03-4.79-9.17-33.678-12.16-40.961-4.84-11.78 16.82-33.968 15.71-42.637-2.07-.748-2.61-.692-5.14.729-13.84 7.779-14.87 10.27-31.16 9.459 3.65 28.91 3.9 43.904-11.86 70.169-11.27-13.386-23.86-25.411-35.27-39.44 10.69-9.209 16.86-16.13 24.74-27.867 3.29-4.896 9.8-17.195 13.33-20.321M323.979 814.753c-.661-14.726-1.479-29.766 5.534-42.032 20.167-35.271 59.111-26.024 74.833 7.555 2.113 4.514 6.088 13.132 10.151 15.401l2.234-1.231.447.606c15.11 20.906 12.993 27.972 37.905 48.048a2198 2198 0 0 1-35.758 39.436c-16.174-25.729-14.929-41.89-11.894-70.492-2.892.071-8.735.277-11.418-.279-6.027-1.251-18.954-10.325-24.571-8.691-2.143 6.901 13.726 20.687 14.545 32.53 1.036 14.984-5.008 22.756-8.385 37.003-.78 3.29-.73 9.213-2.565 11.729-3.523-.642-3.03-1.134-6.195-4.031-8.855 14.096-13.81 17.271-30.624 18.81-2.509 27.589-11.274 36.688-37.378 44.585-10.86 18.658-18.314 22.625-39.665 29.626 2.043-7.963 2.814-11.656 3.63-19.806-9.348-15.674-17.547-13.796-34.146-14.782 13.825-11.134 20.216-15.198 37.976-10.229-.797-6.781-1.887-13.781-1.473-20.613.621-10.249 7.792-39.654 11.797-48.818 7.448-17.045 27.866-37.535 45.02-44.325"/><path fill="#dfab16" d="M396.404 1090.05c-11.203-2.97-31.408-12.03-26.43-26.54 6.125-17.85 39.84-17.74 27.017 7.51l-.544 1.06c4.207 1.54 8.671 2.59 13.015 3.7 11.859 5.23 27.787 11.63 40.837 7.65 2.276-2.36 1.543-1.01 2.315-4.17 1.761-.98 9.355-2.71 12.072-3.54 12.343-3.74 37.629-11.55 46.233-20.57 17.905 6.53 32.505 19.86 44.226 34.66-7.841 11.19-16.146 18.6-29.475 22.75-12.091 2.13-22.366 4.32-33.832 9.05l-1.239-.6c.567-3.16.78-3.88 2.042-6.83-2.604-3.32-3.171-3.98-6.503-6.54-19.916 14.02-27.87 16.18-51.365 15.33 3.573-9.48 5.922-13.44 12.127-21.43-33.868 13.78-35.906 12.6-71.751 5.89 6.716-8.8 11.65-12.25 21.255-17.38"/><path d="M510.351 1092.69c-8.622 8.29-11.974 10.86-17.71 21.49-2.604-3.32-3.171-3.98-6.503-6.54 8.129-5.6 15.685-9.98 24.213-14.95"/><path fill="#dfab16" d="M1654.07 1073.76c2.55-10.81 10.55-16.62 21.8-13.14 17.35 5.36 3.27 28.16-2.89 37 3.72 3.82 4.71 1.86 6.34 5.81-4.11 11-18.35 5.32-22.69 9.58l.55 1c1.5 2.79 2.4 3.74 2.07 6.79-7.6 8.66-35.83-.14-44.73-3.78 3.06 5.89 5.61 11.91 5.25 18.73l-1.25 1.88c-4.44-2.29-9.27-7.32-13.09-8.57-15.96-5.26-27.43-3.94-39.97-17.04-6.48 1.39-9.15 2.45-13.67 7.85l.98 2.26c-8.09-4.29-15.07-2.69-18.25-5.79l-.7.84c-9.57 4.54-26.59-11.6-32.23-18.37 3.05-3.45 6.3-6.71 9.73-9.78 12.32-11.23 24.94-20.72 42-19.93 14.17 12.29 38.4 23.21 56.51 27.09 19.62 4.13 34.26 4.72 49.09-9.72-1.28-3.86-3.36-8.82-4.85-12.71"/><path fill="url(#d)" d="M1530.98 1090.84c16.17 13.08 9.62 15.77 18.07 25.59 5.76 1.3 9.07-7.45 10.3-12.07l6.11 7.66c-6.48 1.39-9.15 2.45-13.67 7.85l.98 2.26c-8.09-4.29-15.07-2.69-18.25-5.79 1.17-11.96.42-13.87-3.54-25.5"/>
    </g>
  </g>
</svg>