<svg xmlns="http://www.w3.org/2000/svg" width="512" height="512" viewBox="0 0 512 512">
  <defs><clipPath id="clip"><rect width="512" height="512"/></clipPath></defs>
  <g clip-path="url(#clip)">
    <g transform="scale(0.58) translate(-582.6,-97.6)">
<defs><linearGradient id="c" x1="849.072" x2="844.388" y1="771.013" y2="776.933" gradientUnits="userSpaceOnUse"><stop offset="0" stop-color="#0c7345"/><stop offset="1" stop-color="#078e59"/></linearGradient><linearGradient id="b" x1="895.016" x2="894.984" y1="786.031" y2="783.938" gradientUnits="userSpaceOnUse"><stop offset="0" stop-color="#075834"/><stop offset="1" stop-color="#0b8e57"/></linearGradient><linearGradient id="a" x1="765.349" x2="759.855" y1="452.805" y2="448.361" gradientUnits="userSpaceOnUse"><stop offset="0" stop-color="#054628"/><stop offset="1" stop-color="#099a5f"/></linearGradient></defs><path fill="#003876" d="M0 0h2048v1078H0z"/><path fill="#fff" d="m120.871 116.497 1814.439-.006.01 579.601-.03 177.428.11 54.567c.03 9.565.48 22.89-.42 32.15-2.31 1.772-3.25 1.151-6.73 1.212l-1814.301.105-.002-561.686-.009-187.768-.072-59.512c-.013-10.626-.438-24.671.404-34.862 2.584-1.65 3.16-1.113 6.601-1.229"/><path fill="#6a150b" d="M809.237 280.353c27.61-9.499 52.119-17.529 80.712-23.738a644.45 644.45 0 0 1 348.971 23.89c1.85-6.857 3.24-18.495 6.92-24.335 8.7-13.795 107.36 26.535 124.39 29.562 9.39 1.668 18.33.392 27.51-1.647-5.1 4.556-9.9 9.095-15.55 12.935-5.05 6.435-19.4 14.167-20.56 20.754l1.99 4.208c2.96 1.949 18.69 25.289 21.63 29.506a542 542 0 0 1-102.01-25.246c-6.28 30.791-5.31 33.395-37.69 25.002-74.25-19.246-149.43-43.871-226.95-43.239-27.638.265-59.479 5.123-86.458 10.531a1372 1372 0 0 0-86.204 21.014c-20.83 5.583-43.726 12.84-64.967 16.126-12.22 1.891-14.348-20.611-16.084-29.427-36.368 11.923-64.14 19.81-101.955 25.146 1.989-2.895 12.34-18.427 14.217-19.544 1.171-2.415 2.914-4.682 4.472-6.894l6.003-8.635a2786 2786 0 0 1-37.333-32.181c27.49 5.6 34.423-.495 59.485-9.008a882 882 0 0 1 42.221-13.073c11.047-3.113 39.906-12.389 49.155-6.652 2.316 1.437 7.019 21.11 8.085 24.945"/><path fill="#fe3517" d="M1293.01 293.254c-8.85-16.248-20.26-19.839-36.23-27.075-3.46-1.567-6.94-2.839-9.64-5.509-.14-3.15-.52-1.943 1.5-4.511 16.86-6.398 98.7 25.008 119.49 30.509 7.52 1.99 14.73 1.487 22.68 1.121-3.82 3.406-5.86 4.981-8.62 9.231-5.05 6.435-19.4 14.167-20.56 20.754l1.99 4.208c-.2 2.712 14.36 21.11 17.13 27.056-30.31-3.351-67.41-14.924-96.34-23.943 2.74-10.646 5.61-21.261 8.6-31.841M656.528 287.355c8.188.811 15.424 1.429 23.44-.598 18.615-4.706 110.709-40.833 121.147-28.816-.125 1.944.143 2.933-1.898 4.247-13.013 8.377-39.894 12.71-43.033 31.815-.674 4.1 5.753 24.947 7.482 30.952-33.151 10.599-62.68 19.555-97.271 24.239 2.188-3.093 10.973-14.562 10.754-17.343 1.171-2.415 2.914-4.682 4.472-6.894 3.645-1.741 5.848-5.614 8.209-8.978-11.039-9.485-22.393-19.03-33.302-28.624"/><path fill="#fe3517" d="M1007.75 245.442c15.99-1.058 31.76.134 47.45.533 71.47 1.817 139.98 18.125 206.19 44.595 8.45 3.38 18.74 7.481 27.93 7.921-2.76 11.508-9.87 42.624-15.74 52.878-2.43 3.135-9.82 2.722-13.18 1.879-53.8-13.515-107.07-30.256-161.82-39.681-18.19-3.132-40.36-6.607-58.83-6.715-87.527-7.347-177.382 32.873-261.839 46.431-6.849 1.1-18.818-49.653-18.081-54.245 24.547-6.55 57.629-20.05 83.363-28.244 59.774-19.032 103.068-22.246 164.557-25.352"/><path fill="#040303" d="M1001.5 258.728c2.28 2.324.04 35.873-6.911 37.021-5.191-3.702-7.165-15.968-8.731-22.429-1.117 5.858-1.552 21.403-7.709 23.214-5.159-3.567-6.969-15.129-8.49-21.29-1.016-3.511-3.622-10.313-2.159-13.438 2.623-.746 2.947-.788 5.531.055 1.627 2.527 4.492 15.561 5.93 20.02.688-5.691.854-17.841 6.206-20.489 4.952 3.221 6.741 14.912 8.126 20.76 1.361-6.933.474-14.26 3.034-20.574.866-2.136 2.732-2.128 5.173-2.85M911.076 269.963c18.532.611 26.222 28.892 9.182 37.45-6.57-.209-10.246-2.601-13.799-7.975a25.36 25.36 0 0 1-3.488-19.364c1.291-5.752 3.467-7.215 8.105-10.111"/><path fill="#fe3517" d="m911.577 276.373 3.395.848c6.48 5.142 8.68 15.977 5.454 23.412l-3.817-.839c-6.294-5.262-8.327-16.07-5.032-23.421"/><path fill="#040303" d="M1205.57 288.487c10.3 2.795 8.39 13.646 9.25 23.262 2.31-6.379 2.72-15.368 7.58-18.756 3.12.968 2.39.263 4.2 2.477-1.44 9.892-5.62 23.956-8.28 33.933l-4.39-1.138c-4.11-3.073-4.25-15.175-5.44-21.814-1.25 4.987-3.11 14.712-5.71 18.382-2.45.399-2.15.038-4.86-.994-1.85-4.05 6.07-29.6 7.65-35.352M1137.66 270.723c14 3.47 27.25 11.817 9.54 23.704.62 4.716 1.88 11.228.95 15.707l-1.49.796c-3.87-1.133-3.49-.354-5.36-3.057-.32-4.194-.47-8.761-1.78-12.716-2.17 2.778-1.94 9.149-4.82 12.136-3.15.154-1.88.44-4.86-1.51q-.39-1.111-.93-2.683c3.19-9.72 6.41-22.725 8.75-32.377"/><path fill="#fe3517" d="M1143.28 278.21c2.12.743 2.32 1.098 4.02 2.656.79 3.89.15 3.674-1.25 7.988-1.5-.19-2.53-.605-3.94-1.084-1.2-3.635.03-5.278 1.17-9.56"/><path fill="#040303" d="M1169.23 279.85c5.77-.154 14.52 3.087 15.09 9.447-5.17 6.376-6.42-2.25-14.81-.668-4.49 3.625-6.19 16.196-2.9 21.024l2.43.288c3.37-1.934 2.27-.833 4.22-4.137-.9-2.019-1.71-2.662-3.23-4.31.37-3.195.02-1.979 2.22-4.963l10.66 3.254c-13.04 40.529-42.22-.569-13.68-19.935M1253.14 300.467c3.27.575 3.91.637 6.85 2.39q.33 1.181.54 2.387c.67 3.771.98 31.196-.6 33.407-10.31-.532-2.31-4.016-11.37-9.362-2.35 1.187-3.01 2.509-4.35 4.725l-.38.637c-3.15.81-2.34 1.117-4.75.076-1.52-6.628 10.33-27.001 14.06-34.26M833.265 290.297c4.934 2.163 20.055 30.352 18.639 33.856-5.706 2.069-5.082 2.125-8.789-2.231l-.636-.68c-8.11-1.827-4.497 7.032-10.614 9.094l-1.85-1.868c-2.2-7.529-1.194-24.991-.728-33.453.156-2.825 1.587-3.087 3.978-4.718M1090.04 262.641c7.74.63 8.52 1.739 9.02 10.232.24 4.228.51 8.291.96 12.502 3.95-6.357 3.99-14.163 9.79-19.218 3.5-.933 2.11-1.035 5.28.17.55 2.807-1.43 6.079-2.69 8.925-2.56 6.254-8.11 23.312-14.7 24.378-4.29-3.538-6.64-29.699-7.66-36.989M1009.27 259.182c4.26-.168 11.68-.993 14.92 1.539-.64 4.906-9.06 6.574-6.89 12.527 2.59.51 4.25.526 6.12 2.338-.17 3.479.27 2.234-1.44 4.978l-4.1.734c-1.39 2.907-.9 2.63-.69 6.213l1.68.31c3.07.546 5.51 1.309 6.45 4.419l-1.17 1.589c-5.15 2.582-8.44 2.123-14.13 2.013q-.465-18.329-.75-36.66M877.503 280.095c1.249-.398 2.07-.114 3.362.116 2.086 3.414 1.951 2.123 1.46 5.234-2.566.866-3.663 1.106-5.97 2.682l.206 3.79c2.706 3.242 2.349 1.712 7.859 2.92 1.057 2.904.982 1.642.084 4.814-2.25 1.796-3.327 2.338-4.462 4.991 3.331 8.697 3.747.21 10.862 5.755l-1.174 3.488c-3.38 2.296-9.214 3.189-13.368 4.11l-9.163-34.964zM789.621 300.904c5.603.222 5.035.053 9.048 3.021-.464 4.351-6.581 2.471-8.286 7.403 4.509 7.903 27.736 14.376 7.356 27.216l-4.727.068c-3.629-1.95-2.942-.938-4.376-3.86 1.832-2.591 7.409-2.631 9.087-7.025-4.065-8.087-27.109-12.662-8.102-26.823M1035.7 258.912c5.9-.131 7.43-.793 11.49 3.834-1 2.303-5.61 3.302-9.03 5.03-3.4 9.57 20.43 11.316 3.73 28.12-2.31.197-4.99.129-7.34.133-2.55-1.38-3.39-1.636-4.84-4.099 1.43-1.934 5.94-2.973 9.29-4.924 3.91-10.109-20.37-11.201-3.3-28.094M945.24 264.432l1.121.959c.676 4.02 1.073 2.896-.425 5.636l-4.471.861c-1.702 2.259-1.192 1.423-.955 5.03 2.117 2.498 1.695 1.74 5.896 2.239 1.979 1.917 1.38 1.085 1.689 4.517-1.884 1.495-2.588 2.211-4.242 3.967-1.729 3.847-.156 8.812.687 13.102-2.136 1.37-3.47 1.368-5.771.806-3.621-4.982-5.795-27.436-7.129-35.152zM861.709 284.233c1.68 1.708 2.101 3.903 1.575 6.169q-.657.284-1.305.589c-7.733 3.639 5.901 21.607 2.961 29.772-3.601 1.492-2.137 1.362-5.696.896l-.852-1.891c-2.323-8.088-3.43-16.877-6.875-24.56-2.917-.77-5.91-1.491-7.071-4.293 2.286-3.781 12.956-5.646 17.263-6.682M818.551 295.139c2.48.357 1.418-.173 3.179 1.843-.066 4.26-4.857 7.485-4.625 8.437 1.513 6.206 6.817 19 5.061 25.598-2.815 1.861-1.655 1.305-5.625 1.531-1.515-6.432-4.493-19.92-6.983-26.464-.217-.571-5.121-1.337-7.3-4.983l.773-1.446c3.402-2.03 11.349-3.534 15.52-4.516M1052.85 259.921c3.92.092 17.8.176 19.8 2.812-1.69 3.672-5.63 4.787-6.18 5.732-1.86 3.18-2.05 19.62-2.24 23.373.01 2.101-.22 2.565-.82 4.609-3.27.737-2 .883-4.86-.304-3.42-4.789-.49-19.962-.73-27.576-5.14-3.722-4.66-2.784-4.97-8.646M1191.78 285.284c2.89.553 4.26.606 6.61 2.503-.6 5.869-6.77 27.676-8.62 34.66-2.78-.777-3.5-1.066-6.06-2.411-.73-3.197 6.64-29.315 8.07-34.752M1122.67 267.53c4.02.805 4.18.145 6.52 2.599-.7 8.556-4.84 25.265-6.8 34.234-3.01-.276-3.4-.12-5.51-2.034-1.78-6.076 4.02-27.031 5.79-34.799M1233.61 295.695l5.84 1.861c1.39 3.59-6.08 30.148-7.44 35.511-2.89-.741-4.05-.864-6.39-2.853.52-5.911 6.27-27.587 7.99-34.519"/><path fill="#fe3517" d="M801.844 263.128c2.154 2.806 5.062 14.095 6.22 18.044-13.443 3.652-30.622 10.841-44.498 15.542-1.455-.199-3.124-.758-4.557-1.174-7.671-13.139 35.313-27.577 41.967-31.844zM1245.74 262.736c11.75 8.195 39.44 13.517 44.19 29.377-.54 3.541.13 2.217-2.9 4.884-9.19-1.675-36.93-12.578-46.75-16.218z"/><path fill="#040303" d="M938.485 433.225c4.548-10.787 10.097-4.168 15.156-13.378-.078-8.685-5.311-6.612-9.739-13.316l.456-1.877c3.615-1.739 3.095 1.513 7.624.741l4.408-6.32c5.858-3.823 11.034-.546 14.579 4.305l.563 3.438c3.517 1.969 5.571-.133 9.024 2.16-.264 1.099-.235 1.995-1.847 2.564-5.036 1.778-6.99 4.317-10.752 8.14 3.356 5.121 3.519 1.277 6.964 5.175l1.71.102c12.068 4.637 12.527 19.809 17.575 25.923 1.657-6.544.765-6.367 5.35-10.485 4.744-1.795 3.254-2.011 7.524-.759 2.34 2.211 3.79 3.331 5.25 6.272.27 7 3.16 3.418 3.51 9.498-2.01 1.916-4.75 3.537-4.83 5.465 15.46.397 30.04-4.664 43.07 2.067 3.3-11.712 12.72-24.916 22.79-31.099 3.19-.82 6.21-1.594 9.36-2.571 1.84-3.17 1.06-4.282.9-8.614l1.24-.095c.75 3.999 1.06 6.63 2.81 10.326l4.59.971-1.39 1.459.49 1.439 1.05.33c3 3.592 3.3 5.035 3.56 10.024.17-2.958.09-4.111 1.42-6.861l1.09.531.87 3.369c.58 1.67 2.17 4.157 2.35 5.314 2 4.223 3.71 9.282 7.94 11.249-1.17 4.701-3.25 16.809-5.44 19.69-.43.676-1.44 2.17-1.72 2.819 2.51 7.747-2.05 7.206 4.38 18.684 6.9 16.463-1.31 17.819-.55 26.283 6.47-6.31 19.26 3.226 21.5-4.473q4.755-.182 9.51-.292c5.67 4.314 1.5 6.6 5.47 9.967 5.55-5.063.65-7.062 10.97-8.061l6.66 1.526c1.91 5.529.88 7.418 1.48 12.446l3.12-1.32c2.84 1.377 4.64 1.571 5.04 5.234.5 2.754.86 5.501 1.89 8.084.16.614 1.01 4.152 1.2 4.495 2.67 6.663 3.15 9.066.2 16.156-4.11 9.871-21.86 24.119-30.35 30.46-1.95-.2-3.08-.322-4.99-.755-.73 3.877.02 8.338.47 12.317-10.27 12.359-13.77 10.718-28.86 13.956-1.11.237-6.05 1.097-6.58 1.538-6.59 5.436-7.22 8.291-16.19 10.59-10.12 2.591-19.25 2.018-29.42 4.863-4.22 1.182-19.6 9.624-21.12 9.742-8.89.685-7.74-4.251-19.65-.484l.2-1.412-1.09 1.022-2.64 2.829c-2.38-.487-1.47.09-2.97-1.517-2.69 3.29-2.97 3.66-7 3.132-2.8-2.082-3.25-3.274-4.88-6.245l.76-1.484-4.572.249-1.233-1.243.698-3.068c-2.714 3.275-1.625 3.014-4.965 3.365l-1.495-1.372c.934-1.136 1.377-1.39 1.494-2.828-5.759 1.147-13.65 3.277-17.815-2.163.513-1.985.544-2.172.639-4.218-6.549-.141-12.488-4.499-20.656-5.873-15.788-2.656-30.984-13.566-46.033-18.721.141.048-1.922-3.23-2.068-3.457l-1.974 2.008-1.965-.574c-2.892-2.68-3.321-5.513-4.423-9.321l-2.417 2.656c-1.956-2.342-2.248-1.761-5.775-2.48l-.818-1.506c1.931-4.912 4.32-1.048 7.345-5.293.085-3.588.114-8.653-2.166-11.349-1.774 1.364-1.214.876-2.093 3.281l1.889 2.946c-1.516 4.651-4.246 6.376-8.588 7.889l-1.459-1.349c-6.12-8.67-4.003-12.42-11.628-20.957 1.491-8.156 1.032-9.929.073-18.054 4.18-9.196 5.099-13.162 13.439-18.949 2.997-.709 8.823-3.352 12.33-4.52l-.059-1.329c-.683-3.205-2.638-10.769-2.202-13.595l.842.989c3.254 1.494 8.655 4.39 11.988 4.403l-.364-1.164-.227-.652c-1.559-4.562-1.947-4.945-5.42-8.429l3.65-1.165c-1.37-5.033-8.705-11.396-13.452-11.31-2.54 5.217-7.448 11.446-12.242 14.751l-1.265-.454c.433-1.952.657-3.262 1.42-5.107.256-3.462 2.482-10.288 3.53-13.898-5.365.264-12.682 1.439-16.696-1.951l.632-1.42c5.083-2.565 8.473-2.261 13.935-1.3 5.775-.254 4.097-.206 9.669-3.739l1.676.494c2.941.852 5.369.218 6.434.59l-.228-.741c-3.454-1.044-13.209-3.326-14.375-6.519 5.127-3.433 10.846-.661 16.366.99-5.324-6.175-6.301-7.326-10.093-14.357-6.558 5.987-11.003 11.968-16.83 17.286l-.758-.385c8.267-11.01 9.6-35.082 26.88-7.073-3.974-12.019-1.207-11.125-10.57-19.868l1.82-4.148c-.827-2.49-1.097-2.525-3.337-4.128-3.882.149-4.17 1.161-7.662 4.23l.168-3.065c1.666-2.594 4.241-3.015 7.312-4.094.278-.512-.592-18.205-.548-20.996 3.187-2.258 8.599-6.608 12.138-7.371 1.396 2.93-1.109 2.666-1.158 7.617 1.635.622 1.705.625 3.129 1.625-4.459 4.097-13.506 12.82-8.464 19.68 1.807-1.575 2.17-2.132 4.41-2.727l1.278 2.382c-5.592 3.62-6.102 9.258-1.788 14.121 1.846-1.928 3.391-3.295 5.374-5.03l1.703.253c.45 2.714.946 2.715-.082 4.579-1.504-1.419-1.518-1.363-3.281-2.205-2.684 2.791-2.621 8.681-.528 11.963 3.89-.645 4.552-3.856 9.407-6.771l1.604.705.801 3.216-2.634-.426c-2.499 1.244-2.108 3.526-2.911 6.364-1.233 4.365-3.123 8.06-5.182 12.057 7.077-8.458 17.306-19.933 22.896-29.171 5.627-9.299-1.378-7.967 9.168-19.396.767-2.381 2.26-3.127 4.297-4.687"/><path fill="#42ad4a" d="M1043.62 582.278c-.04.006 15.24-1.577 13.79-2.455 8.79 5.842 16.11-3.694 24.23-4.357 13.15-1.076 46.64-6.662 57.26-13.03 2.36.333 2.86.87 4.6 2.466 4.49.719 1.3-1.779 4.96-2.69.9 1.519 1.78 3.054 2.63 4.605l1.47-.203 2.38-3.881 1.48-.352c3.19 2.009 2.33.877 3.47 4.139-4.08 8.62-12.54 2.602-16.53 12.644-4.88 12.278-18.41 3.802-25.84 8.909 3.65 1.952 12.75 2.885 17.54 3.948 5.33 4.794-.74 11.428-3.98 16.294-22.85 9.696-26.5 7.765-51.35 7.703 5.7 1.602 18.63 3.849 22.51 5.917l.24 1.513c-.14.129-.27.257-.4.386-5.26 6.488-36.46 9.111-43.97 8.487-9.62-.799-27.71-7.001-39.87-7.783-15.04-.969-30.039.048-44.771-2.92-12.908-2.601-21.769-11.788-33.862-15.473-9.125-2.781-24.263-2.203-34.5-2.834-5.24-6.242-.458-20.886 6.356-23.373 2.375.758 3.167 1.247 5.535.832 1.624-2.143 2.217-3.184 3.486-5.561 6.514-3.741 4.518-3.822 10.808-3.201 8.882 4.049 11.883-3.256 20.536 2.689 1.77 2.557.757 1.863 3.799 2.587 2.008-.832 3.416-1.596 5.599-1.712 5.04 3.578 3.176 4.042 8.355 4.958l3.272-1.48.854 1.748c.876-.338 3.082-1.309 3.856-1.309l.786.005c2.194.001 15.083-2.144 17.773-2.63 3.988 5.529 1.257 4.332 9.018 5.291l.74 1.673c-2.98 2.641-4.23-.492-6.743 2.7.093 3.808.511 6.985-1.12 10.409-8.748 3.995-19.999-7.739-27.926-8.203-18.317-1.071-37.353-1.187-55.605-2.304-2.181 4.331-4.213 8.138-5.801 12.748 17.783-1.777 35.245-4.273 53.089-3.154 3.028.19 6.242.252 9.281.279a68 68 0 0 1-.393 2.367c5.396.558 20.426 2.223 24.571 4.986l.031.841c-5.444 3.011-24.801 2.51-34.586 6.539l.371.995c10.901 3.7 29.356-4.972 36.994.438.197-2.77 7.967-8.033 10.307-9.842 6.21.782 9.41 1.233 15.74.96-12.11-3.22-21.99-2.169-12.96-22.078 1.31-2.89 5.89-3.115 9.03-3.805l2.03.55 2.31-1.378.76-3.474c2.99-.713 4.26-.2 6.4 2.045 1.43-2.736.88-3.894.31-6.986l1.04-.873 2.98 1.186c1.55-1.224 2.46-3.689 3.36-5.547l2.28.878-1.43-.102.94 1.329 1.3-2.799 1.48.397c1.07 3.47 1.16 2.228.33 5.226-1.84.642-1.99.751-4.01.948-.15 5.53 5.69 5.951 1.21 14.529l1.49 1.408z"/><path fill="#040303" d="m1024.5 576.876.76-3.474c2.99-.713 4.26-.2 6.4 2.045 1.43-2.736.88-3.894.31-6.986l1.04-.873 2.98 1.186c1.55-1.224 2.46-3.689 3.36-5.547l2.28.878-1.43-.102.94 1.329 1.3-2.799 1.48.397c1.07 3.47 1.16 2.228.33 5.226-1.84.642-1.99.751-4.01.948-.15 5.53 5.69 5.951 1.21 14.529l1.49 1.408-1.57 1.59c-4.23-.679-11.78 3.173-14.01 6.58 2.6 5.026 8.43 6.346 13.59 6.94l-.57-.173c7.61.541 31.31-2.489 38.87-4.655-3.51-.011-4.45.622-6.82-1.119 4.3-.027 5.13-.418 8.66-2.877 17.27 2.194 34.17 2.586 51.56 4.201-1.61 3.545-3.45 7.932-5.22 11.318-5.79-1.269-23.4-5.424-28.51-5.814-18.61-1.419-43.57 1.314-61.95 4.191l-1.54 1.219c3.34 6.343 45.65 12.228 53.76 18.596-5.46 5.289-46.69-11.471-56.15-11.61-7.49-.111-28.55 5.875-33.549.907l-1.448-1.866c.197-2.77 7.967-8.033 10.307-9.842 6.21.782 9.41 1.233 15.74.96-12.11-3.22-21.99-2.169-12.96-22.078 1.31-2.89 5.89-3.115 9.03-3.805l2.03.55z"/><path fill="#fe3517" d="M1024.5 576.876c5.51 2.049 5.44 3.016 8.28 8.612l-.06 3.074-1.42 1.102c-3.28-1.194-4.17-2.125-6.77-4.294l-5.95 5.252c3.28 5.453 14.58 8.334 15.68 15.742-2.01 5.95-6.99 7.083-12.78 7.272l-1.59-.763c2.14-2.203 5.27-2.515 8.31-3.174-.67-1.748-1.25-3.534-1.85-5.309l-2.26-.803c-12.11-3.22-21.99-2.169-12.96-22.078 1.31-2.89 5.89-3.115 9.03-3.805l2.03.55z"/><path fill="#db4129" d="m1024.09 603.587 2.26.803c.6 1.775 1.18 3.561 1.85 5.309-5.44-1.978-13.68-2.947-19.56-3.405-3.52 1.741-5.8 2.489-7.89 5.793l.36 1.431-1.619.817-1.448-1.866c.197-2.77 7.967-8.033 10.307-9.842 6.21.782 9.41 1.233 15.74.96"/><path fill="#b37b4d" d="M1093.54 593.779c6.38.143 31.1.169 33.81 5.657l-1.64 3.703c-10.42-2.206-26.06-4.717-35.8-7.476.67-1.041 2.19-1.309 3.63-1.884M1087.13 420.656l1.24-.095c.75 3.999 1.06 6.63 2.81 10.326l4.59.971-1.39 1.459.49 1.439 1.05.33c3 3.592 3.3 5.035 3.56 10.024.17-2.958.09-4.111 1.42-6.861l1.09.531.87 3.369c.58 1.67 2.17 4.157 2.35 5.314 2 4.223 3.71 9.282 7.94 11.249-1.17 4.701-3.25 16.809-5.44 19.69-.43.676-1.44 2.17-1.72 2.819-6.72-2.225-12.05-3.938-15.57 3.532-3.31-.044-5-.406-8.18-1.005l-3.76-.599c-5.79 5.367 1.82 26.858 2.69 35.306.22 3.347.39 4.44-.37 7.829l-.8.115c-7.52 1.047-16.31-1.68-20.05 2.244-.95 3.626-.32 5.455.43 9.122-2.35.145-9.49-.005-10.67.307l-.83-.07c-1.09-.77-1.03-.939-1.87-2.053l.77-4.279c-4.33-3.326-5.8-2.406-10.53-.886-2.91.933-6.31-2.803-9.03-4.545-3-.058-5.74-.428-8.26 1.204-.74.219-2.51.355-3.36.45-9.32-4.686.49-14.178-2.12-20.508l-1.63-.525-3.01 2.566-.93-1.085c-.12-.952-.58-2.596-.82-3.592l-1.35-.033-2.59 3.724c-1-1.429-2.55-2.624-3.89-3.813-.646-4.305 3.52-3.197 4.57-9.264-2.41-3.711-9.853-3.772-13.67-1.722l-2.533.594-1.202-.989c.117-5.25-1.312-12.506 4.509-16.348l.199-2.735c.517-5.531 1.872-.754 2.236-7.658 5.561-.962 9.491-1.355 14.571-3.982l1.94-.238.13-1.412c15.46.397 30.04-4.664 43.07 2.067 3.3-11.712 12.72-24.916 22.79-31.099 3.19-.82 6.21-1.594 9.36-2.571 1.84-3.17 1.06-4.282.9-8.614"/><path fill="#040303" d="m1087.13 420.656 1.24-.095c.75 3.999 1.06 6.63 2.81 10.326l4.59.971-1.39 1.459.49 1.439 1.05.33c3 3.592 3.3 5.035 3.56 10.024.17-2.958.09-4.111 1.42-6.861l1.09.531.87 3.369c.58 1.67 2.17 4.157 2.35 5.314 2 4.223 3.71 9.282 7.94 11.249-1.17 4.701-3.25 16.809-5.44 19.69-.43.676-1.44 2.17-1.72 2.819-6.72-2.225-12.05-3.938-15.57 3.532-3.31-.044-5-.406-8.18-1.005 1.39-4.983.74-6.428-1.45-10.703l3.49-2.889c.33-.857.15-1.707.11-2.697-3.05-5.297-8.16-6.951-13.7-9.216-.11-.4 5.67-9.869 6.47-13.133l.11-7.016c.5-1.276.67-3.991.83-5.471l-1.23-.782c3.19-.82 6.21-1.594 9.36-2.571 1.84-3.17 1.06-4.282.9-8.614"/><path fill="#fe3517" d="m1087.13 420.656 1.24-.095c.75 3.999 1.06 6.63 2.81 10.326l4.59.971-1.39 1.459.49 1.439 1.05.33c3 3.592 3.3 5.035 3.56 10.024.33 4.2.54 4.867 2.08 8.804l-1.24 1.635c-2.76-.406-3.14-.866-5.38 1.278-1.49 5.568 6.14 15.912 1.93 20.796-4.22-1.417-6.79-18.464-11.58-21.328-3.41-2.047-3.47-4.942-3.73-8.234-.66 1.47-1.42 2.511-2.3 3.841l-1.69-1.556c-.08-1.749-.26-3.492-.41-5.236l.11-7.016c.5-1.276.67-3.991.83-5.471l-1.23-.782c3.19-.82 6.21-1.594 9.36-2.571 1.84-3.17 1.06-4.282.9-8.614"/><path fill="#fff" d="M1095.92 435.086c3 3.592 3.3 5.035 3.56 10.024.33 4.2.54 4.867 2.08 8.804l-1.24 1.635c-2.76-.406-3.14-.866-5.38 1.278-2.45-8.5-1.53-13.794.98-21.741"/><path fill="#3d3c3d" d="m1087.13 420.656 1.24-.095c.75 3.999 1.06 6.63 2.81 10.326-.64 1.555-.99 2.646-2.03 4.001-2.8-3.009-1.5-2.299-5-3.461l-6.05 1.196-1.23-.782c3.19-.82 6.21-1.594 9.36-2.571 1.84-3.17 1.06-4.282.9-8.614"/><path fill="#fe3517" d="M1099.48 445.11c.17-2.958.09-4.111 1.42-6.861l1.09.531.87 3.369c.58 1.67 2.17 4.157 2.35 5.314 2 4.223 3.71 9.282 7.94 11.249-1.17 4.701-3.25 16.809-5.44 19.69l-2.41-1.029c-2.5-3.49.94-1.646-.66-5.985l-3.03 5.227c-7.16-7.583 4.09-18.452-.05-22.701-1.54-3.937-1.75-4.604-2.08-8.804"/><path fill="#ebded9" d="m1080.79 473.045 3.49-2.889c4.88 6.557 6.03 6.319 6.14 14.597-3.31-.044-5-.406-8.18-1.005 1.39-4.983.74-6.428-1.45-10.703"/><path fill="#040303" d="M1054.08 462.94c3.3-11.712 12.72-24.916 22.79-31.099l1.23.782c-.16 1.48-.33 4.195-.83 5.471l-.11 7.016c-.8 3.264-6.58 12.733-6.47 13.133 5.54 2.265 10.65 3.919 13.7 9.216.04.99.22 1.84-.11 2.697l-3.49 2.889c2.19 4.275 2.84 5.72 1.45 10.703l-3.76-.599c-5.79 5.367 1.82 26.858 2.69 35.306-2.25-2.527-2.26-5.23-3.87-7.645-8.82-13.266-6.34-21.329-3.25-35.936-4.36-4.715-15.67-.19-19.97-11.934"/><path fill="#fff" d="M1080.79 473.045c-1.03-.157-.74.004-1.5-.418-6.64-3.689-22.48-2.72-20.4-14.424 1.21-6.786 11.77-18.402 18.38-20.109l-.11 7.016c-.8 3.264-6.58 12.733-6.47 13.133 5.54 2.265 10.65 3.919 13.7 9.216.04.99.22 1.84-.11 2.697z"/><path fill="#160b08" d="M1010.88 462.285c-3.78 3.836-4.04 3.045-7.19 5.616-2 1.634-7.287 7.627-9.294 9.812l-1.399-.386.655-3.42-1.519.256c.517-5.531 1.872-.754 2.236-7.658 5.561-.962 9.491-1.355 14.571-3.982zM1043.17 493.437a5.01 5.01 0 0 1 5.43 4.325 5.013 5.013 0 0 1-4.11 5.595 5 5 0 0 1-4.78-1.827 5.01 5.01 0 0 1-.68-5.078 5 5 0 0 1 4.14-3.015M1018.74 476.603c4.9 4.013 1.41 3.528 4.73 9.144 2.26-2.562 2.48-5.171 2.66-8.492l2.19-.059c.1 5.67.86 7.453-4.25 10.294-5.74-1.592-5.64-5.571-5.33-10.887M1028.41 493.455c7.23 1.04 8.63 6.908 4.6 12.132l-4.04.487c1.04-3.363 3.93-5.073 1.48-8.539l-2.88.425-.54-.974zM1051.48 473.851l4.55.323.99 1.941-1.92-.65 2.12 3.155-1.58 1.072-.05.274 1.48 1.205 1.86.948-.33 1.031c-3.34 1.442-1.97 1.429-5.14.2-2.28-2.367-1.88-6.087-1.98-9.499M1060.38 508.234l1.77-.316c2.22 3.12 4.89 5.787 2.41 9.265l-2.24.247-1.44-1.074 1.37-.791-3.3-6.87zM1005.88 478.379c1.47.204 1.92.463 3.3.967 1.54 3.442 2.86 6.417.67 9.959l-2.37-.009c-1.34-.774-.8-.265-1.63-1.621l1.38.134c1.07-5.602 1.02-3.572-1.35-9.43M1031.09 516.233c1.81-.563.91-.579 2.79.289 1.44 2.999 1.08 5.011.93 8.282-1.43-1.794-3.48-6.189-3.72-8.571"/><path fill="#0f8750" d="M991.16 493.641c3.817-2.05 11.26-1.989 13.67 1.722-1.05 6.067-5.216 4.959-4.57 9.264 1.34 1.189 2.89 2.384 3.89 3.813l2.59-3.724 1.35.033c.24.996.7 2.64.82 3.592l.93 1.085 3.01-2.566 1.63.525c2.61 6.33-7.2 15.822 2.12 20.508.85-.095 2.62-.231 3.36-.45 2.52-1.632 5.26-1.262 8.26-1.204 2.72 1.742 6.12 5.478 9.03 4.545 4.73-1.52 6.2-2.44 10.53.886l-.77 4.279c.84 1.114.78 1.283 1.87 2.053l.83.07c1.18-.312 8.32-.162 10.67-.307-.75-3.667-1.38-5.496-.43-9.122 3.74-3.924 12.53-1.197 20.05-2.244l.8-.115c-.66 4.243-2.38 9.137-6.34 11.321l-2.48-.454c.04-2.408 1.29-3.163 3.03-5.469-1.97-1.143-3.15-.679-5.56-.378-3.42 3.195-1.96 2.847-2.78 7.764-.07.378-5.92.843-6.19 1.671l3.36 3.221-.07 1.721 1.94-.414 1.8-3.921 1.4-.394c1.74 1.187 3.61 2.817 5.62 2.913l.97-3.179 2.02-.516 2.13 1.383c.44 4.589-3.23 12.579-7.58 14.577l-1.88-.722-.68-2.057c1.47-1.063 2.7-1.969 4.11-3.125-.95-2.72-.46-1.772-2.8-3.791-2.12 4.608-1.95 3.999-7.72 6.269 2.05 3.097 1.85 1.838 1.36 4.83l-1.91 1.111-2.25-.973-.79-2.76-1.04 1.123c.87 1.973 3.28 8.917 3.14 8.737 6.67-3.435-4.08-6.483 14.59-4.411 4.64 3.894-1.91 6.705-.3 12.469-2.43.69-4.48 1.92-6.41 3.524-3.35-2.64-.73-3.846-2.85-4.029l-.63.605c-1.87 1.779-2.57 2.656-5.2 3.033l-3.78-1.605c-.37-2.777 1.33-1.914.33-4.556-1.45 1.576-1.8 2.151-2.94 3.982-1.07-1.411-1.12-1.902-1.63-3.545l-2.33-.872-.69-3.787-1.23-.097c-2.09 2.054-3.23 2.829-3.71 5.783 1.38 2.354 2.31 2.801 4.52 4.421-1.11 3.43-2.2.252-5.73 6.591l-.68 2.763-1.49-1.408c4.48-8.578-1.36-8.999-1.21-14.529 2.02-.197 2.17-.306 4.01-.948.83-2.998.74-1.756-.33-5.226l-1.48-.397-1.3 2.799-.94-1.329 1.43.102-2.28-.878c-.9 1.858-1.81 4.323-3.36 5.547l-2.98-1.186-1.04.873c.57 3.092 1.12 4.25-.31 6.986-2.14-2.245-3.41-2.758-6.4-2.045l-.76 3.474-2.31 1.378-2.03-.55c-4-2.428-2.46-2.244-6.75-1.927 1.21-3.9 2.84-2.951 6.06-2.618l1.11-1.6-1.26 1.593.86-2.116-.65-.792c-.98-.126-4.75-.629-5.49-.524-5.84.823-1.54-.034-4.6 3.271-2.89.792-4.15 1.418-6.95.186-2.28-2.067-2.28-3.329-2.712-6.295l-.137-.987-1.285-.36-.991 4.6-1.405.452c-3.026-2.255-3.618-2.921-4.866-6.534l-2.727 1.706-1.743-1.357-1.876.927q-.39 1.698-.818 3.385l-2.304-.282-.135-1.192c1.582-2.551 2.007-3.012 1.844-5.963-3.704-1.633-2.408 1.948-7.933 1.629l-1.068-2.268c.391-6.179-.676-5.481 2.765-8.948l-.111-1.432c-1.986-4.05-4.765-9.017-3.946-13.325 4.519-4.807.644-1.656 3.795-6.289l.316-3.317-2.96-7.297c1.726-1.992 4.312-2.369 6.972-3.155 2.307-2.901 1.364-3.677 1.294-8.529l2.388-1.51 1.441-1.897c5.705.701.999-4.742 3.131-7.642l-1.11-2.557.318-.505z"/><path fill="#061a05" d="M1019.96 527.443c3.86 6.856 4.26 1.645 5.52 5.538l-1.84 2.395c1.68 1.076 3.19 2.452 4.74 3.693-.55 1.536-.48 1.557-1.52 2.792l-2.48-.147.09.069 1.4 1.267c-1.48-.374-1.65-3.07-5.88-1.253-1.15.493-4.06 3.577-5.09 4.621l-1.04-.35c-.31-3.52 1.8-3.627.37-5.448-4.14 1.474-3.53 2.038-6.72 6.129l-.68-.471c-2.56-1.752-3.13-2.094-6.37-2.066-1.662 1.174-1.935 2.183-2.824 4.01l-1.174-.294-.58-3.509-.481-1.334c3.497-1.339 3.893-.768 5.289-3.489-1.416-1.361-1.685-1.506-3.36-2.579l.676-1.65 2.874.973c3.02-4.665-1.277-4.228 1.94-6.957l1.07.236c-.86 3.193-1.3 2.668-.17 4.867 1.4-.111 2.71-.351 4.04.046a70 70 0 0 0-2.8 3.888l.89 1.899c2.3-.105 4.39-.247 6.62-.881l.29-3.523c3.6 2.245-1.48 3.118 4.95 3.692l1.07-1.252c-.83-2.394-1.1-3.163-2.32-5.36 2.62-.241 2.63.234 3.92-1.198zM988.627 494.235l2.533-.594c4.662 5.914 3.891 7.186 6.619 14.59l-.306 1.588c-2.581-1.304-2.947-1.676-5.021-3.71-4.498 2.081-2.598 5.1-7.056 6.352.039-1.754.434-2.493 1.034-4.107l-1.583-1.518 1.441-1.897c5.705.701.999-4.742 3.131-7.642l-1.11-2.557zM977.153 527.327c1.646.47 2.196.668 3.767 1.351l2.026-1.366.352-1.848a522 522 0 0 0-3.78-3.949q2.53.561 5.076 1.05.094-2.212.257-4.42l2.591-2.056-.608.229-.218.85c-.302 1.157-.571 1.833-1.008 2.941 2.334 1.093 2.153.634 5.175.329l-.692.753c-.949 1.043-1.293 1.578-2.063 2.745 1.111 5.14 3.471 3.718 3.122 8.318-5.189 2-5.882-4.404-10.137 2.426l-1.839.016-.11-3.343-2.227-.709zM1004.15 508.44l2.59-3.724 1.35.033c.24.996.7 2.64.82 3.592-3.49 2.23-4.19 1.474-5.06 4.679l1.32 1.677 3.48-.401-.04 1.77-2.06 1.24c-.47 3.651 1.7 4.11 2.59 9.221l-1.17.938-1.9-2.048c-2.37-.45-4.51.342-6.913.924-.237-2.233 1.093-3.57 2.403-5.912l-1.46-2.982c5.31-2.412 1.58-3.616 1.91-7.737zM1048.88 538.002l.83.07c-.02 3.121-.49 2.477 1.02 4.544l3.17-.267.16 1.117c-1.71 1.601-2.2 1.839-3 3.956l1.52 1.927c1.8-.14 2.2-.227 4.05.134l-.67 3.27-3.23 1.219 2.93-.035-1.07 1.941.62-.599-.52.631-2.95-2.654c-2.9-.474-5.95 1.33-8.84 2.575.9-1.865.64-1.238.06-3.764.38-.313.76-.634 1.12-.962 2.73-2.454 4.01-9.567 4.8-13.103"/><path fill="#040303" d="M976.988 550.258c2.715 1.382 1.477 1.131 5.001.455.612-2.706-.156-2.821-1.763-5.805 4.832 1.208 3.679-2.417 9.225-2.602-1.322 5.04-.75 8.261-.211 13.324l-1.004.611c-3.482-1.724-2.267-.708-4.556-3.969-1.971 1.626-3.394 2.534-4.638 4.773l-.132-.765c-.415-2.288-.319-2.989-1.811-4.59z"/><path fill="#061a05" d="m1031.8 549.074.94.249c-1.32 1.995-2.28 2.543-4.2 4.038 2.68 1.751 5.41 6.383 4.71 9.61-5.49-4.556-5.53-2.456-11.55.888l-.71-3.196.31.279c-3.01-1.515-2.55-1.001-6.32-.784l-.21 1.123 1.62.77c-.46 2.879.84 2.721 1.04 5.374-1.87-.91-3.17-3.527-5.06-4.756-3.97-2.577-5.35 2.259-9.15 2.87l.54-2.903-.96-1.353c-1.58.28-3.169.539-4.758.777l-1.768-7.348c-.563 2.452-1.07 4.418-1.807 6.822-1.927-4.347-.038-8.158 4.551-9.243 2.072 2.094 3.152 4.521 4.502 7.12l2.2-.212 1.15-1.85-1.23-4.608.71-.812c6.26 1.708 3.83 4.776 8.64 5.862 6.03-4.515 3.82.115 11.02-1.195-.45-2.517-.59-1.937-2.82-4.149l1-1.327c3.45-.088 4.85.149 7.61-2.046"/><path fill="#f8eb0a" d="M872.545 557.07c4.18-9.196 5.099-13.162 13.439-18.949 8.479 1.171 3.489 1.801 8.565 3.665 5.078-.909 17.049-3.882 21.156-1.484l-.361 1.321c-2.892.484-8.371 1.048-10.493 2.596 4.723 1.132 10.551-1.546 17.967-.532-1.73 1.036-3.963 2.468-5.739 3.303l.249 1.522c-3.252 4.989-8.217 4.91-11.2 9.09l.951.372c3.413-2.167 10.471-7.813 14.542-6.519-3.292 2.925-2.129 4.466-2.92 5.094-6.513 5.171-16.631 4.669-17.28 14.647a64 64 0 0 0-.105 2.44c-1.568 2.288-1.12 2.426-3.244 3.31l-2.876-2.55c-4.082 4.22-1.199 7.204-5.424 8.51l-.825-.958c.798-2.827 1.186-3.874 2.443-6.528-2.696-1.064-4.444-2-7.376-1.789 1.969 5.543 7.75 12.612 6.1 17.365-2.783 2.711-3.729 1.483-6.014 5.085-6.12-8.67-4.003-12.42-11.628-20.957 1.491-8.156 1.032-9.929.073-18.054"/><path fill="#7c781f" d="M917.328 548.512c-6.717-2.099-17.407 5.758-22.869 9.212l-.127-1.744c2.885-7.282 15.854-10.169 22.747-8.99z"/><path fill="#0171bb" d="M1090.42 484.753c3.52-7.47 8.85-5.757 15.57-3.532 2.51 7.747-2.05 7.206 4.38 18.684 6.9 16.463-1.31 17.819-.55 26.283-1.91 2.763-2.66 3.591-3.37 6.986-2.69-.747-4.85-1.949-7.35-3.179-6.09-8.664 14.67-13.369.11-22.919-1.07-.703-.1-7.971.19-10.489l-4.36-2.033c-3.96 1.243 2.71 26.562-2.89 31.283-.61.522.98 4.379 1.45 6.299l-1.19 1.312c-3.4 1.081-3.85 1.007-7.28.29-2.46-2.112-1.81-.999-2.45-4.198 2.39-6.389 3.25-6.578-1.51-11.085-.87-8.448-8.48-29.939-2.69-35.306l3.76.599c3.18.599 4.87.961 8.18 1.005"/><path fill="#9f8066" d="M1131.32 521.715q4.755-.182 9.51-.292c-1.86 2.194-3.67 4.296-5.41 6.598-4.31-.343-12.54-1.527-16.19-.069l-.01 1.521c2.66-.1 4.49-.48 6.78.773l3.02 1.546c1.3 6.518 2.73 17.922-2.03 23.312l-.79-.769c-8.16 5.416-23.54 1.564-27.57 4.665l-1.18-3.671-2.31-1.114c-.19-4.461-.03-8.683.1-13.131l-.64-5.142c4.67-3.941 5.29-2.422 10.44.545l.77-1.294.64-2.019c.71-3.395 1.46-4.223 3.37-6.986 6.47-6.31 19.26 3.226 21.5-4.473"/><path fill="#d4b69d" d="m1126 530.246 3.02 1.546c1.3 6.518 2.73 17.922-2.03 23.312l-.79-.769c-3.51-7.242-2.25-16.61-.2-24.089"/><path fill="#b37b4d" d="M1094.6 535.942c4.67-3.941 5.29-2.422 10.44.545l.85 1.696-3.94 4.062-.58-.321c-2.15 4.863-4.03 8.009-3.92 13.405l-2.31-1.114c-.19-4.461-.03-8.683.1-13.131z"/><path fill="#b37b4d" d="M1105.89 538.183c4.62-.389 5.48-.124 10.03.973.24 3.9.8 3.494-.83 6.496-3.23 1.729-9.8.939-13.76.786 1.11-2.623 1.09-1.594.62-4.193z"/><path fill="#d4b69d" d="M1105.81 535.193c4.19-.001 7.26-.703 10.44 1.218l-.33 2.745c-4.55-1.097-5.41-1.362-10.03-.973l-.85-1.696zM949.461 531.526c.178-3.641-.271-8.462.22-11.758 1.529-10.253 6.448-21.355 6.513-31.587.017-2.709-3.631-5.663 2.133-7.558l-1.28-.218c6.323 1.556 1.686 13.709 2.132 18.291.295 3.029 4.973 11.502 4.701 13.833-.856 7.33-1.132 46.316-6.838 50.303l-2.118-1.763c-1.938.165-3.203.461-5.023-.226-.309-6.768-1.504-23.439-.44-29.317"/><path fill="#d4b69d" d="M940.524 564.194c-2.401-3.373-8.596-48.331-2.272-53.605 4.838.923 6.904 8.395 6.716 12.79-.2 4.688.271 4.419 2.534 8.099l1.959.048c-1.064 5.878.131 22.549.44 29.317 1.82.687 3.085.391 5.023.226l2.118 1.763c-2.936.843-3.342 1.265-5.726 3.215-1.404 3.807-1.382 4.343.512 8.65-8.653-5.945-11.654 1.36-20.536-2.689.059-.568.461-1.361.701-1.945l3.351.193c2.191-.751 3.564-1.39 5.665-2.376l.373-1.515z"/><path fill="#160b08" d="m947.502 531.478 1.959.048c-1.064 5.878.131 22.549.44 29.317 1.82.687 3.085.391 5.023.226l2.118 1.763c-2.936.843-3.342 1.265-5.726 3.215-1.404 3.807-1.382 4.343.512 8.65-8.653-5.945-11.654 1.36-20.536-2.689.059-.568.461-1.361.701-1.945l3.351.193c2.191-.751 3.564-1.39 5.665-2.376l.373-1.515-.858-2.171c2.338.405 3.17.797 5.258-.068 2.968-5.22 1.319-24.331 1.72-32.648"/><path fill="#d4b69d" d="M953.151 467.37c-1.843-.692-2.349-1.382-3.746-2.727-2.02-4.585-1.821-10.431 2.024-13.946l2.199 1.117c2.798-5.393-4.299-10.661 3.788-17.582l.843 3.098c1.762-2.106 2.095-2.684 4.348-4.17 4.531 5.682-2.329 10.816-1.228 14.852l3.641-3.978 1.38.123c2.451 4.264.699 10.706 2.539 16.128-.371 3.552-.521 6.479-1.696 9.866-3.516-.184-8.745 2.255-12.224 3.594 1.552-2.478 4.386-6.261 4.43-8.944-2.901.408-3.342.28-5.451 2.105z"/><path fill="#160b08" d="m961.165 453.601 1.508.705c-.456 3.819-.727 4.644 1.191 8.02-3.831-.284-2.71.314-5.094-1.736.358-2.777 1.278-4.443 2.395-6.989"/><path fill="#d4b69d" d="M976.631 424.959c12.068 4.637 12.527 19.809 17.575 25.923-4.481 3.267-7.853 3.65-13.149 4.851-.568-5.701-2.112-14.527-5.994-18.859-.203 4.943-.06 6.149.818 11.035-5.157-3.21-4.889-3.853-6.719-9.815-.984-.915-1.04-2.15-1.488-3.685 1.402-3.526 5.119-4.386 8.505-8.845zM970.512 477.166l3.01-.912c4.184 2.779 4.363 6.083 5.377 11.093l1.709 8.528.547 1.49c-.886 4.087-1.102 7.841-5.418 9.252-5.416-2.578-3.816-1.531-9.281-1.435-2.211-4.191-1.685-17.869-1.65-23.102l2.518-1.05.945-2.708.191 1.105z"/><path fill="#564237" d="M970.512 477.166c-1.124 2.692.625 15.218.302 20.708-.93-6.913-1.304-10.173-3.49-16.844l.945-2.708.191 1.105z"/><path fill="#d4b69d" d="M938.485 433.225c4.719-2.329 5.792-6.509 13.131-5.978l.719 1.484c-1.188 3.102-1.798 4.368-3.361 7.253l.634.115 2.155-1.736c5.62 7.783-9.74 26.355-17.271 16.882-2.36-2.968-1.936-7.839-.851-11.549q.262-.895.547-1.784c.767-2.381 2.26-3.127 4.297-4.687"/><path fill="#9f8066" d="M947.415 437.794c.979 3.076-3.49 9.399-5.166 12.184l-.441-1.053c1.943-4.995 2.728-6.619 5.607-11.131"/><path fill="#8b5134" d="M882.384 491.97c5.775-.254 4.097-.206 9.669-3.739l1.676.494-.074 2.884 2.308.569c-.574 2.072-.186 1.342-2.452 2.785l1.494 1.328c4.587-1.013 3.453-1.468 7.196.128 4.997 6.024 5.992 10.636 13.802 14.092 1.014-.815 1.053-.625 1.638-1.674l1.362 1.236c2.474-.898 3.404-1.513 5.654-2.898.039 2.382-.02 4.31.436 6.664l-.534.462c5.344 2.758 6.455 5.806 8.976 11.286-.437 2.786.072 2.036-1.601 3.899-1.932-.743-18.496-17.531-23.922-21.729-8.043-6.222-20.642-11.304-25.628-15.787"/><path fill="#ebded9" d="M924.559 514.301c5.344 2.758 6.455 5.806 8.976 11.286-4.191-.727-8.804-6.86-8.976-11.286"/><path fill="#d4b69d" d="M944.74 476.537c1.721-.246 5.198-1.049 6.507-.516-.714 1.418-6.881 33.587-6.836 35.383l.033.994c-1.409-2.64.093-5.266-3.062-5.759-3.84-.599-3.274.148-5.684-2.668-1.608-6.729 3.802-23.245 9.042-27.434"/><path fill="#b37b4d" d="M1091.29 562.492c-3.73-.395-2.65.2-5.11-1.766-2.09-6.391-6.57-16.99.13-21.589 3.3-.278 4.24.591 6.99 2.287l1.94-.34c-.13 4.448-.29 8.67-.1 13.131 0 3.518.4 7.811-1.2 10.733-3.43.76-3.59 1.391-6.49.252l-.47-1.239c2.2-1.686 1.28-1.196 4.31-1.469"/><path fill="#160b08" d="M1095.24 541.084c-.13 4.448-.29 8.67-.1 13.131 0 3.518.4 7.811-1.2 10.733-3.43.76-3.59 1.391-6.49.252l-.47-1.239c2.2-1.686 1.28-1.196 4.31-1.469 2.63-2.986 1.96-16.309 2.01-21.068z"/><path fill="#fff" d="M917.581 486.708c2.652-4.08 19.345-20.554 23.583-23.14l1.394.775c.625 3.295-.129 4.548-1.323 7.599-3.808 1.094-6.254 1.528-9.372 3.988l-.984 2.073c1.031 2.007.537 1.724 2.206 2.827l1.436 1.793c-1.105 6.623-2.578 11.137-4.561 17.53-2.961-2.702-5.62-4.554-6.597-8.403-.129-3.451 1.224-4.922 3.086-7.772l-.39-1.556c-4.437.326-3.829 5.64-8.964 6.349z"/><path fill="#ebded9" d="M974.921 424.857c-2.253 2.049-3.721 3.856-6.623 4.456-6.098-2.019-10.521.989-13.007-10.532-.812-3.765-.466-6.92 2.04-10.051 3.382-1.578 3.618-1.802 6.976.339 6.551 4.177-.029 4.62 3.65 10.613 3.356 5.121 3.519 1.277 6.964 5.175"/><path fill="#d4b69d" d="m911.961 480.623.865-1.242-.81-1.345c1.496-1.507 1.176-1.017 3.948-1.242l-.766-1.699c5.927-3.053 11.405-18.986 19.238-20.719 2.896 1.582 2.032.598 3.224 3.704-3.046 5.376-11.965 18.187-17.444 20.638l-1.555.035.329 2.698c-1.885 1.107-.864.889-3.203.413zM976.467 459.923c4.466 1.698 9.188-2.406 14.995.336 1.284 2.717.939 3.437.259 6.426-3.388 3.421-13.705 3.747-17.75 2.059l-.512-1.695c-1.496 1.265-1.781 1.916-2.793 3.537-1.679.184-1.965.402-3.423-.435 1.175-3.387 1.325-6.314 1.696-9.866l5.455 1.349z"/><path fill="#b37b4d" d="m1164.46 540.758-1.67-.337-.42 2.534c-2.83 2.756-1.55 2.183-4.93 2.881-3.13-1.521-2.3-.645-3.91-3.182l1.08-4.129-1.61-1.896.72-.94c4.92-.14 6.77.255 11.69 1.612l3.12-1.32c2.84 1.377 4.64 1.571 5.04 5.234-.36.085-1.2.899-1.54 1.192l-.43 5.65-1.39-.667 1.39.288c-.3-2.815-1.04.317-2.1-.944-1.24-1.473-3.88-4.598-5.04-5.976"/><path fill="#564237" d="M1129.02 531.792c2.51-1.517 4.19-.92 7.05-.453l1.11 1.145c-3.06 2.683-2.84 1.723-3.88 5.194.73 2.883 2.61 7.189 1.65 9.058-.29-.168-1.37-.772-1.61-.946l-1.16 1.53c1.44 4.799 3.44 4.619 3.72 8.655-3.14 1.683-3.1 1.052-7.22.871l-1.69-1.742c4.76-5.39 3.33-16.794 2.03-23.312"/><path fill="#8c8c97" d="M1012.33 445.91c.27 7 3.16 3.418 3.51 9.498-2.01 1.916-4.75 3.537-4.83 5.465l-.13 1.412-1.94.238-5.83.16c1.78-3.242-.52-7.135-.56-12.24 3.88.461 7.15-2.021 9.78-4.533"/><path fill="#42ad4a" d="M898.255 532.272c-.683-3.205-2.638-10.769-2.202-13.595l.842.989c3.254 1.494 8.655 4.39 11.988 4.403.713 3.176 3.957 6.721 5.529 10.392l-.69.346-1.858-2.541-1.542 1.106c-1.706-1.134-3.577-2.486-5.42-3.323z"/><path fill="#061a05" d="M898.255 532.272c-.683-3.205-2.638-10.769-2.202-13.595l.842.989c2.026 5.123 3.401 7.053 8.007 10.383z"/><path fill="#8b5134" d="m953.151 467.37.847-.464 1.671 1.749c-1.37 4.741-4.181 2.921-4.422 7.366-1.309-.533-4.786.27-6.507.516-3.629.187-8.21 2.692-11.655 4.293-1.669-1.103-1.175-.82-2.206-2.827l.984-2.073c3.118-2.46 5.564-2.894 9.372-3.988 3.843-.007 8.951-2.085 11.916-4.572"/><path fill="#89888d" d="M999.556 440.397c4.744-1.795 3.254-2.011 7.524-.759 2.34 2.211 3.79 3.331 5.25 6.272-2.63 2.512-5.9 4.994-9.78 4.533-3.042-4.343-4.288-4.814-2.994-10.046"/><path fill="#f8eb0a" d="M880.983 510.539c1.422-.241 1.804-8.453 5.103-12.092l1.588-.068-.259 4.243c1.143-1.793 1.177-1.681 3.018-2.538l2.637 1.265c-2.54 5.217-7.448 11.446-12.242 14.751l-1.265-.454c.433-1.952.657-3.262 1.42-5.107"/><path fill="#ebded9" d="M917.095 488.771c-4.619 2.941-8.741 1.937-12.127-2.057l.277-2.187c1.88-2.604 3.716-2.896 6.716-3.904l3.826 1.241 1.794 4.844z"/><path fill="#b37b4d" d="M1175.46 549.299c.16.614 1.01 4.152 1.2 4.495-5.82 7.693-16.13 7.12-18.92-2.198l1.05-1.735c3.38.158 7.61 4.2 13.3 4.17 3.14-1.906 2.18-.723 3.37-4.732M922.818 543.687l1.194-1.626c2.857.106 2.225.295 5.028 2.137 2.444-3.822 1.149-3.55 4.469-4.952 1.211 3.058 1.318 7.041.162 9.988.211 3.143.886 4.786-.417 7.171-4.068-7.086-4.03-7.98-10.436-12.718"/><path fill="#d4b69d" d="M971.532 406.818c-4.316 1.615-9.659 2.472-13.424-.503l-.127-2.492c4.601-5.441 7.85-3.98 12.988-.443z"/><path fill="#b37b4d" d="m1095.14 554.215 2.31 1.114 1.18 3.671 1.07 2.575-2.17 2.308.28.814c3.4.365 6.71.445 9.72 2.009l1.08 1.698c-4.49 3.833-11.79.929-14.67-3.456 1.6-2.922 1.2-7.215 1.2-10.733"/><path fill="#fff" d="M994.369 466.505c-.559-4.032-1.714-9.934 3.26-10.905 3.951 2.46 3.021 2.373 5.481 7.083l5.83-.16c-5.08 2.627-9.01 3.02-14.571 3.982"/><path fill="#ebded9" d="M917.641 508.837c.814-3.492 2.133-5.753 5.48-6.892 5.151 1.717 8.138 9.514 8.639 14.459-3.733-2.833-.962-5.764-7.103-9.229-2.25 1.385-3.18 2-5.654 2.898z"/><path fill="#564237" d="M972.853 579.05c-3.713-2.59-4.529-2.423-5.246-5.977l1.893-2.582 1.396.118 2.828 6.181 1.794.621 1.222-1.209-.454-.807c-2.251-4.095-2.429-6.121-3.146-10.742l.695.06c1.831 4.22 4.504 10.116 3.728 14.776-.774 0-2.98.971-3.856 1.309z"/><path fill="#160b08" d="M1013.67 653.099c-2.1-1.458-2.8-1.694-3.94-3.881.8-3.311.07-2.248 2.63-4.118 3.08-.083 3.54.301 6.22 1.891.33 1.588.5 3.187.7 4.796l-2.64 2.829c-2.38-.487-1.47.09-2.97-1.517"/><path fill="#d4b69d" d="M976.467 459.923c-.909-.995-3.011-2.724-4.11-3.689-2.716-6.403-3.225-11.203-3.195-18.14 1.83 5.962 1.562 6.605 6.719 9.815-.137 4.113-.264 7.95.586 12.014"/><path fill="#0f8750" d="M980.608 495.875c2.078-.834 5.368-.929 7.701-1.135l1.11 2.557c-2.132 2.9 2.574 8.343-3.131 7.642-1.512-2.711-3.311-5.066-5.133-7.574z"/><path fill="#b37b4d" d="m1157.27 523.329 6.66 1.526c-.45 2.434-.86 4.616-1.46 7.034-2.68-1.16-5.34-2.339-7.99-3.536l-.48-1.549z"/><path fill="#d4b69d" d="m935.344 570.256-3.429-1.332-.542-1.434c2.476-2.288 7.045-2.659 10.009-1.125l-.373 1.515c-2.101.986-3.474 1.625-5.665 2.376M964.806 482.08c-.734-3.164-1.591-5.274-.594-8.292 2.493.946 2.397 1.862 4.057 4.534l-.945 2.708z"/><path fill="#0f8750" d="M913.15 515.322c6.65 4.039 3.365 3.936 6.399 8.092 2.908 3.984 9.044.766 8.806 9.995 1.459-.889 2.514-1.217 4.089-1.802l1.63.985.29 2.366c-1.483 3.61-6.086 6.497-9.97 6.72-4.052-.57-4.117-3.354-5.185-6.659-.03 3.384.452 2.851-.999 5.445l-1.496-.896c-1.127-3.746.594-8.926.902-13.479l-3.042 1.572-1.256-1.028c-.942-5.26-.95-6.024-.168-11.311"/><path fill="#b37b4d" d="M917.592 589.066c7.587-.174 29.552-1.002 35.57.88l-.373 1.05-6.544.818c-7.675.712-25.75 5.209-30.85 3.154l-.416-1.716zM996.301 625.237c6.139 1.067 5.889 2.166 7.909 7.149 1.37.337 2.26-.202 3.65-.706l.64-.238.98 1.232c-1.25 2.495-1.8 4.697-3.84 5.968l-1.32-1.392c-1.31-1.647-3.15-3.488-4.628-5.047l-1.354.095c-.486 2.298-.635 3.656-.832 5.999l-1.809.297-1.399-1.498c-.434-5.416-.63-7.296 2.003-11.859"/><path fill="#d4b69d" d="M1142.11 532.817c6.16 4.72 4 15.54 1.44 21.647-6.69-2.893-3.49-16.605-1.44-21.647"/><path fill="#fff" d="M912.224 492.456c1.326 1.123 1.51 1.69 2.469 3.154l.929.36.925 2.146-1.597 1.272-1.765-.448c-1.107 2.799-.577 2.827-2.611 4.11l-1.685-1.72c-.611-3.26-.82-3.919.158-7.188z"/><path fill="#9f8066" d="M971.483 622.159c1.918.612 4.093 1.668 5.958 2.503 2.432 2.563 2.363 3.862 2.832 7.273-2.962-3.907-4.513-4.553-8.84-7.011z"/><path fill="#04341d" d="M1246.32 357.379c8.49 6.485 24.43 18.519 29.93 27.34l1.36.738c2.61-1.244 3.29-3.545 5.06-6.437 1.46-2.565 3.11-5.624 4.69-8.051 2.21 5.092 10.71 23.778 11.15 28.295 3.66.978 5.27-.155 9.17-1.823l2.4-1.267c5.65 3.766 2.63 31.924.55 38.402l3.08-.831c1.61-3.122 5.45-5.624 8.32-7.838-1.8 18.499.45 46.695-13.85 58.619a105 105 0 0 1-4.04 3.175l-1.78 2.008.52 1.317c2.84.86 3.28 1.116 6.18 1.027 11.95-6.702 39.74-.584 56.67-.877-6.97 5.306-13.74 15.995-16.44 17.954-1.11 1.904-2.47 3.625-2.34 5.751 6.43 3.498 13.6 9.105 19.61 13.546-6.28 2.766-15.1 6.925-21.93 7.152l-8.7 1.152 1.33 4.275c1.94 6.32 3.74 12.508 6.21 18.647-8.05-1.452-16.56-2.846-24.48-4.765.54 3.357 1.73 7.86.24 10.735-3.79 1.349-7.31-.851-11.36-2.57 1.5 6.326 2.96 11.851 3.54 18.354 1.78-.862 6.99-3.505 8.57-3.927 6.2-4.453 13.74-9.201 20.67-12.41-1.82 10.051-1.33 30.881-6.39 37.218-1.42 4.119-2.14 6.123-4.17 9.951 6.79 1.647 14.01 3.504 20.94 4.311 4.04.47 7.18.002 11.41.643.34 2.202-.7 3.695-1.69 5.798-4.97 6.088-11.51 14.233-19.47 16.387-2.85.85-4.53 1.329-7.29 2.615-.16.495-.58 1.597-.57 2.043 6.06 7.14 6.34 20.554 10.12 30.382-8.74-1.764-21.98-4.053-28.82-10.002l-2.62-.319c-2.6 4.292-2.62 6.578-4.65 10.044-1.61 3.088-4.3 6.902-7.09 8.978l-2.66 9.053-8.21-8.772c-.99 4.143-1.83 10.467-4.84 13.062-7.85 1.871-6.83 5.194-8.8 12.861 5.8-.558 13.01-1.452 18.73-1.528 6.28-1.568 14.48-2.18 21.16-3.376-2.08 6.131-7.6 23.013-14.49 24.424l-2.66 3.285c1.12 3.85 2.67 3.305 6.14 6.607 7.46 6.121 9.61 8.02 18.93 11.357-2.94 2.587-8.97 7.941-12.48 9.113-4.07 2.037-14.24 4.95-15.64 6.228 3.33 4.638 5.37 8.832 7.97 13.855-6.8-.432-21.14-1.275-27.66-3.145.6 6.261 1.06 13.138 2.32 19.256-5.91-2.464-16.17-7.285-19.28-13.043l-2.91-1.01c-2.09 1.419-2.18 1.588-3.73 3.625-1.12 4.871-6.85 14.639-9.26 19.984-3.69-3.775-7.54-7.333-10.15-11.906-2.39-3.907-4.75-7.678-6.87-11.743-3.99 1.463-13.9 4.065-15.78 6.397.3 3.202 1.55 3.287 4.54 6.047 4.79 3.807 8.87 7.359 13.43 11.408-17.12 3.001-37.28 8.721-54.51 6.807-11.26-1.251-22.37-18.949-34.95-13.898.28-.112-9.43 8.76-10.55 9.689-2.64 2.19-6.92 3.526-8.97 5.044-4.3-1.707-41.21 2.302-45.53.777a43.5 43.5 0 0 0 8.02-6.451c1.47-1.513 26.46-31.612 25.96-30.608 8.33-8.55 30.1-7.056 41.58-7.132 7.23-3.999 16.15-11.429 22.65-14.553 6.89-3.829 13.82-4.134 21.51-4.908l6.87-5.645c-3.38-4.453-9.15-9.553-11.57-13.617l2.04-1.883c10.5-3.972 17.4-5.729 28.71-5.007-1.7-9.523-3.44-22.646 2.06-30.97 1.72-2.836 2.09-3.288 4.51-5.553 5.25-.423 2.74 1.252 8.06 2.138l2.43-2.554c2.97-4.276 6.8-9.18 9.95-13.418l-2.62-2.413c-6.03-9.961 5.82-34.586 18.28-39.038-.08-1.393-.37-1.67-.96-2.979-12.83-4.953-14.88-17-16.96-28.959 3.92-.496 6.69-1.095 10.56-.229 4.68-.023 9.16 1.511 12.64-.188-8.48-10.889-9.55-23.784-9.35-36.827 6.18 2.74 21.43 9.243 26.44 13.067l2.18-2.463c.36-4.244-.29-4.552 1.85-7.526 3.54.336 3.62 1.201 6.96 3.598 1.99-3.201-.14-8.122-3.12-10.066-2.61 2.488-4.21 4.374-7.61 5.579-3.44 2.51-2.75 2.771-6.5 3.144-3.01-3.432-2.93-9.69-3.51-14.734l-12.59.054c-3.01 1.448-6.22 3.998-8.98 6.017 1.54-10.396 1.8-18.812 5.12-28.853-4.93-1.68-7.71-2.451-12.13-5.364-3.62-1.835-8.01-4.492-11.62-6.531 5.03-3.883 14.52-11.916 19.65-14.241 2.9-2.103 2.62-1.288 3.94-4.148-.82-6.93-3.88-13.277-7.18-19.361 8.88-.174 21.99-1.163 30.1 2.03l1.31-.254c.29-1.946-5.21-4.954-7.6-7.248-9.75-9.327-18.45-28.022-24.24-40.42l.9-.925c2.81.899 4.11 1.486 7.11 1.525-2.49-4.463-7.2-8.87-9.97-13.134-6-9.248-8.95-22.776-11.3-33.18 5.37 1.843 8.91 3.029 14.55 4.245-4.27-9.896-3.64-24.193-5.46-36.215"/><path fill="#0f8750" d="M1246.32 357.379c8.49 6.485 24.43 18.519 29.93 27.34l1.36.738c2.61-1.244 3.29-3.545 5.06-6.437 1.46-2.565 3.11-5.624 4.69-8.051 2.21 5.092 10.71 23.778 11.15 28.295 3.66.978 5.27-.155 9.17-1.823l2.4-1.267c5.65 3.766 2.63 31.924.55 38.402l3.08-.831c1.61-3.122 5.45-5.624 8.32-7.838-1.8 18.499.45 46.695-13.85 58.619a105 105 0 0 1-4.04 3.175l-1.29-1.602c.3-4.097 3.11-7.601 4.35-12.063 2.39-8.506 5.12-17.37 6.71-26.046l-.91-1.177c-2.74 3.24-1.25 6.794-2.7 9.412-6.2 11.262-6.6 22.848-12.15 34.305-8.15.053-11.01 1.703-17.89 6.136-2.43-1.816-12.17-8.518-14.99-8.351l2.58 2.62-1.9 1.842c4.22 3.601 9.14-.065 12.4 5.023-2.77 6.553.6 6.221-3.05 11.612-10.16 2.726-18.95-19.721-21.16-27.224l26.88.797 1.31-.254c.29-1.946-5.21-4.954-7.6-7.248-9.75-9.327-18.45-28.022-24.24-40.42l.9-.925c2.81.899 4.11 1.486 7.11 1.525-2.49-4.463-7.2-8.87-9.97-13.134-6-9.248-8.95-22.776-11.3-33.18 5.37 1.843 8.91 3.029 14.55 4.245-4.27-9.896-3.64-24.193-5.46-36.215"/><path fill="#04341d" d="M1264.13 401.671c2.14-.168 3.19.885 5.08 2.469l.81.695.38-1.792c-1.6-4.567-8.16-10.455-11.75-14.056l1.75-.602.77-1.709c-1.42-6.549-1.9-8.032-4.67-14.119l.85-.758c2.41 3.203 5.45 12.397 7 16.557.48-2.216.56-3.553 1.81-5.394.82 6.05.84 13.921 5.31 17.529 6.85-1.264 3.35-11.996 4.78-15.772l1.36.738c2.61-1.244 3.29-3.545 5.06-6.437 1.46-2.565 3.11-5.624 4.69-8.051 2.21 5.092 10.71 23.778 11.15 28.295 3.66.978 5.27-.155 9.17-1.823l2.4-1.267c5.65 3.766 2.63 31.924.55 38.402l3.08-.831c-1.14 2.3-7.57 8.12-10.02 11.446-6.47 8.763-9.2 17.844-8.54 28.787.25 4.196 1.55 7.648 1.38 12.033-3.87-8.37-4.1-15.951-7.28-23.914-3.47-8.7-18.14-20.05-26.86-23.171l-.47-.163.68-1.261-.68-1.802c4.06 2.419 6.05 3.316 10.45 5.104-.77-4.808-1.24-9.453-1.75-14.286l-9.37-8.895c-3.24-.596-4.76-1.114-7.85-2.164l1.99-1.756c-.01-5.033-5.34-5.095-5.93-12.111 2.92 1.197 5.34 8.922 9.99 9.779l-.89.573.76.369c-.23-1.948-.64-3.15.36-4.783 2.73 1.152.73 6.587 4.11 10.12 1.74 1.821 4.45 4.85 6.25 6.791-.14-5.831.17-10.185.6-15.961-2.32-2.307-4.33-4.379-6.51-6.809"/><path fill="#0f8750" d="M1282.67 379.02c1.46-2.565 3.11-5.624 4.69-8.051 2.21 5.092 10.71 23.778 11.15 28.295-.46 1.168-1.86 19.989-2.58 24.165-6.74-6.628-5.08-7.622-5.94-17.723l-1.2-.427-.37 2.091-1.81-.222.26 6.545-.87.312c-3.16-4.012-6.12-7.234-9.56-10.967.84-13.864 6.2-19.229 6.23-24.018M1307.68 397.441l2.4-1.267c5.65 3.766 2.63 31.924.55 38.402a93 93 0 0 0-.97-1.056c-2.38 3.003-5.24 8.05-8.06 8.636-1.99-2.453-1.84-5.51-2.06-8.686 3.63-7.11 8.41-15.95 7.65-24.344-1.66 4.523-5.74 17.317-8.4 20.149-2.74-1.988 1.34-25.523 2.66-27.414 2.74-1.331 4.47-1.811 6.23-4.42"/><path fill="#0f8750" d="M1273.54 403.516c2.08 1.467 4.56 4.426 6.52 6.201 17.86 16.206 22.95 28.029 14.25 51.129-3.27-13.083-4.87-31.046-13.42-42.257l-1 .886c2.41 6.419 5.25 13.563 7.21 20.058l-1.73 2.222c4.89 10.193 5.7 13.09 8.45 23.875-5.62-10.212-10.58-12.995-16.84-22.161-6.47-9.479-5.92-28.947-3.44-39.953"/><path fill="#04341d" d="M1272.39 453.248c9.98 5.808 16.68 22.121 21.63 32.277-2.62-1.293-20.12-28.547-21.63-32.277"/><path fill="#0f8750" d="M1171.86 754.833c7.63-.817 13.55-3.178 21.36-3.558-2.27 2.898-10.52 14.614-12.21 15.863l.3.084c-4.9 1.825-14.32 5.051-18.39 7.569 6.71-1.255 13.26-3.272 19.91-4.566 3.72-.724 6.92 2.021 10.1-.148l.51-1.993-1.53-1.76c2.68-.253 5.56-.824 8 .026l.82 1.77c-2.44 6.153-9.56 10.167-15.01 13.709-6.39.17-35.67-1.423-38.06.834 21.4 2.396 33.45-.256 51.46.449 4.06 2.916 11.86 9.969 15.61 10.638 4.79 3.807 8.87 7.359 13.43 11.408-17.12 3.001-37.28 8.721-54.51 6.807-11.26-1.251-22.37-18.949-34.95-13.898.28-.112-9.43 8.76-10.55 9.689-2.64 2.19-6.92 3.526-8.97 5.044-4.3-1.707-41.21 2.302-45.53.777a43.5 43.5 0 0 0 8.02-6.451c1.47-1.513 26.46-31.612 25.96-30.608 8.33-8.55 30.1-7.056 41.58-7.132 7.23-3.999 16.15-11.429 22.65-14.553"/><path fill="#04341d" d="m1159.85 785.851.11-.008c4.05 7.371 15.71 2.822 18.54 3.811-1.21 1.196-1.58 1.384-2.26 2.96 6.09 1.947 12.08 1.166 18.24.329l-.79.04c3.87 2.715 8.76 4.759 11.66 8.407-3.18-.331-7.7-3.317-10.65-5.026-2.92-1.088-12.56-.482-15.9-.135-6.66.694-9.95-6.833-17.33-5.798.94 2.139 1.47 3.338 2.13 5.571-2.77-1.111-5.35-5.189-7.48-7.84l-6.72.03.28-.67c-1.9.161-3.39-.076-5.28-.274 5.55-1.181 11.37-.139 15.45-1.397M1134.74 780.215c1.83-.422 3-.164 4.84.032-1.5 1.531-12.18 3.626-16.1 5.291.73.775 1.55 1.408 2.39 2.054-6.47.625-13.73 1.529-16.6 8.631 1.99-.009 3.88-.292 5.44.848-1.84 2.25-7.49 2.262-10.37 3.37-3.18 1.224-7.03 4.405-9.75 6.521-1.77 1.087-2.45 1.162-4.48 1.707 1.28-3.317 11.72-7.787 13.36-12.536.79-2.276 1.65-5.11 3.61-5.967l.11 2.907c1.3.399 3.95-2.245 5.11-3.269 9.75-8.627 10.46-7.367 22.44-9.589"/><path fill="#0f8750" d="M1221.48 692.803c4.39-1.434 3.44-4.175 7.55-4.038 7.85 5.354 14.1 23.511 11.57 32.89-2 2.367-.88 1.753-4.36 2.085-3.45-1.945-6.94-17.631-7.75-22.042l-.02 11.177-2.08.677c1.44 6.875 12.05 6.932 2.05 17.016-1.69-.525-1.59-.548-2.97-1.669l-.67 1.085c1.77 3.31 2.43 3.094 1.59 5.954l-1.45.649c-6.27-4.454-3.94-4.409-12.48-4.298-3.16.041-6.08-.138-9.44.209l-.06 1.033c4.2.568 12.11.828 15.09 2.501-.49 1.509-.02.95-1.16 1.884l-1.2 2.139c-6.34.37-8.58 1.171-14.51 2.989-3.21-4.499-9.97-10.111-10.47-14.264 10.5-3.972 17.4-5.729 28.71-5.007-1.7-9.523-3.44-22.646 2.06-30.97"/><path fill="#0f8750" d="M1252.64 665.473c2.96 5.732 11.51 29.538 12.21 35.563-1.88 2.75 1.6 12.722-4.22 19.206-3.5 1.891-6.88.894-10.89.298-.78-8.88-1.41-13.35 1.58-21.989l-3.34.893-2.13-1.465-1.22-.913c1.09 4.006 3.02 19.873 2.03 23.463l-1.73-.153c-2.96-8.427-4.45-17.311-8.23-25.663-1.49-3.277-.75-4 .51-6.442l-.73-1.437c2.97-4.276 6.8-9.18 9.95-13.418l-2.62-2.413c2.43-1.637 3.99-3.299 6.05-5.331z"/><path fill="#04341d" d="m1245.85 697.979.33-.906c1.56-4.368 1.92-6.856 2.63-11.439 1.87 7.122-.86 10.432 2.51 12.917l-3.34.893z"/><path fill="#ebded9" d="m1249.86 665.672 2.78-.199c-2.05 2.614-4.22 5.293-6.21 7.943l-2.62-2.413c2.43-1.637 3.99-3.299 6.05-5.331"/><path fill="#0f8750" d="M1258.02 562.783c6.18 2.74 21.43 9.243 26.44 13.067.59 1.632.12 1.319 1.11 2.027 4.81 3.454 10.96 15.673 11.87 21.461-.95 3.758-4.17 5.128-7.58 4.436-6.46-1.31-3.24-13.527-7.09-17.598l-1.7 1.329c-2.21-2.485-7.01-9.136-9.48-10.039 2.02 12.265 23.76 22.421 6.83 30.768-3.67-2.907-7.15-5.474-10.26-8.991l-.79.367c-8.48-10.889-9.55-23.784-9.35-36.827M1340.65 565.07c-1.82 10.051-1.33 30.881-6.39 37.218-3.67 2.297-6.44 14.238-15.56 14.657-2.94-2.172-3.21-2.586-5.1-5.649-.19-7.741 6.76-5.112 8.05-9.836l-1.92-.48c-2.19-2.475 7.28-8.649 6.83-15.415-3.47 1.449-4.39 9.606-8.73 11.81l-1.1-1.789c-2.52 2.324-.97 7.46-4.39 11.57-3.38.13-2.47.021-5.77-2.101-.22-1.947 6.25-18.852 7.09-22.217.33-1.319 5.09-2.261 6.32-5.358 6.2-4.453 13.74-9.201 20.67-12.41M1314.72 664.416l.41-.539c-4.13-4.91-17.69-11.984-16.82-21.505 13.95-9.742 12.7 4.757 17.2 7.452l.62-1.857.87-.233c3.45 2.419 9.71 11.773 12.94 15.964h1.27c-.62-2.176-.68-2.533-.81-4.819l-.03-.57c-4.25-6.466-14.03-14.959-19.89-20.069l.41-2.298 2.1-1.262c11.98-.921 12.71 5.046 20.43 9.356 6.06 7.14 6.34 20.554 10.12 30.382-8.74-1.764-21.98-4.053-28.82-10.002M1294.58 707.795c6.28-1.568 14.48-2.18 21.16-3.376-2.08 6.131-7.6 23.013-14.49 24.424-.73.209-.9.191-1.45.523-7.71 4.669-16.61 6.49-25.38 8.58-1.51-3.312-3.52-6.211-2.5-9.209 5.31-1.006 10.31-4.143 15.2-3.36l-.52-.2c3.45-2.491 11.56-8.083 13.47-11.598-2.17.258-8.11 5.143-11.45 7.057.67-1.142.54-1.143.44-2.489-4.61.421-5.48 7.713-12.12 5.371l.68-3.285c-2.59 1.031-4.44 4.545-8.03 7.019-3.38-.714-2.48-.631-5.26-3.455.27-5.023 4.23-8.4 7.78-12.05 6.02-1.333 19.3-1.465 22.47-3.952M1309.06 492.053c11.95-6.702 39.74-.584 56.67-.877-6.97 5.306-13.74 15.995-16.44 17.954-7.25 3.634-27.09 16.24-32.22 6.658 1.78-4.253 4.17-12.37 7.82-14.319.37.126.75.252 1.12.378l.63.19c4.21 1.298 4.7 1.233 9.15.654l-.27-1.996c2.73-1.7 5.74-1.565 9.05-1.83-4.18-.329-7.67-2.778-10.48-2.684-3.29 3.252-5.23 3.176-9.63 3.966-6.47 1.161-10.05-3.693-15.4-8.094M1232.84 793.049c-.01-4.547-4.25-8.692-4.38-14.561-.16-7.568-.13-24.952 11.5-23.4 3.49 5.671-4.44 22.008.43 26.194.5 3.159.72 3.823 1.96 6.777 3.17-2.107-1.41-16.848 1.26-21.296l2.92 2.085c.95-3.836-4.06-2.564-3.43-11.767 2.72-2.201 9.21-1.172 10.87 2.65 4.32 10.019.02 16.525-1.72 25.24-1.12 4.871-6.85 14.639-9.26 19.984-3.69-3.775-7.54-7.333-10.15-11.906M1262.09 631.965c3.01.981 13.13-.917 16.97 3.816-3.64 3.181-12.05 3.43-16.43 5.729 1.73-.912-9.03 10.372-8.66 9.819l.09 1.718 1.78.265c3.18-2.661 4.75-8.654 10.05-9.318.81 1.731.51 2.348.18 4.224 7.67-3.626.41-6.402 16.4-10.166-2.58 9.794-.94 16.235-8.05 20.66-7.47 4.653-21.32 1.303-24.56 6.96-2.06 2.032-3.62 3.694-6.05 5.331-6.03-9.961 5.82-34.586 18.28-39.038M1266.19 751.671c2.41-2.305 4.91-5.608 7.05-8.254 4.8 3.195 22.33 22.024 22.3 22.016 3.33 4.638 5.37 8.832 7.97 13.855-6.8-.432-21.14-1.275-27.66-3.145-1.73-4.388-13.76-2.753-22.46-19.184l11.35-4.06c10.98 3.066 14.41 13.401 22.9 14.334-1.82-6.919-15.04-13.356-21.45-15.562M1340.88 557.702c-4.17-.728-10.88-1.81-14.85-2.899a38.25 38.25 0 0 1-23.11-17.697c-2.36-4.1-4.91-7.894-3.67-12.522 11.68-7.879 12.5 13.63 18.1 16.366l-.31-3.586c2.36.091 7.89 10.061 12.65 12.996-.78-5.001-8.45-8.525-9.59-17.423-3.3-5.212-10.22-5.4-11.42-10.18 1.78-2.229 2.02-2.54 4.76-3.241 7.34 1.346 17.04 11.66 21.49 17.479l1-.264 1.33 4.275c-.87 5.206 1.91 11.58 3.62 16.696"/><path fill="#0f8750" d="M1300.36 683.119c-2.94-.059-.39 2.024-4.23 3.931-10-4.357-19.21-37.071-11.45-45.431 3.87-1.708 2.28-1.556 6.13-.954 3.16 3.621 1.33 17.628 1.12 23.312l.3-1.072c.34 4.902 1.21 7.522 4.27 11.211 2.03-3.301-3.07-8.021 1.3-13.842 1.35-1.802-5.11-10.874-2.78-16.148 2.47.359 3.73 7.687 5.98 10.068 2.87 3.048 5.96 5.349 9.27 7.873-1.27 4.037-2.7 7.839-2.82 12.074-1.61 3.088-4.3 6.902-7.09 8.978M1341.28 639.378c-3.96-.21-4.79 1.142-9.19-.681-5.42-2.247-10.51-3.264-15.64-6.436-.71-2.543-.64-1.536.48-4.394 7.53-6.303 28.99 1.766 31.31-5.456-6.19-.437-5.45.822-11.68-1.292-3.24-1.101-12.2 4.986-17.79 1.941-.84-4.758 5.52-6.565 9.75-9.506 5.93 1.518 29.53 4.862 31.85 6.172l.38 3.265c-4.97 6.088-11.51 14.233-19.47 16.387M1254.16 504.464c6.24-.978 14.49.187 17.43 6.582-3.05 2.249-16.42 1.962-19.1 5.94 14.39 1.984 18.95-10.345 29.78 2.16-23.87 20.293-30.24 3.055-36.14 6.09-3.62-1.835-8.01-4.492-11.62-6.531 5.03-3.883 14.52-11.916 19.65-14.241M1275.76 739.29c8-1.642 12.69-2.659 20.37-5.314 2.65 2.016 5.37 4.63 8.6 4.759 7.46 6.121 9.61 8.02 18.93 11.357-2.94 2.587-8.97 7.941-12.48 9.113-3.75-.073-11.61 2.794-15.53 4.03-8.82-10.632-12.64-15.063-23.73-23.188 6.11 1.758 12.18 3.475 18.14 5.694 2.26.839 3.69 3.322 5.42 5.223.54-1.384.54-1.355 1.46-2.533 4.36.926 8.06 1.514 12.48 2.141-1.26-1.26-6.35-2.039-9.31-3.284l-.63-2.12c-1.19-.623-19.79-4.604-23.72-5.878M1244.17 600.027c3.92-.496 6.69-1.095 10.56-.229 12.01 3.935 11.65 1.627 22.38 9.48-1.64 2.537-2.61 4.729-5.5 5.631-2.11-1.328-2.17-2.01-3.25-4.391-2.98-.447-6.33-.334-9.37-.346 2.04 1.424 2.66 1.504 5.07 2.274.57 1.51.54 1.404.45 3.016 5.2 2.867 6.26-.976 7.12 6.135.5 4.117 1.2 4.114-.32 7.963-3.51 1.279-5.68.489-9.53-.867l-.65.293c-12.83-4.953-14.88-17-16.96-28.959M1344.63 535.579c-1.69-.436-6.8-.915-7.99-1.585-3.96-2.224-11.34-9.512-14.07-12.904l.83-.61-.16 1.415.9-1.361c4.23.695 9.63 3.385 13.34 5.398 4.95-1.241 9.5.346 10.94-.602-3.24-1.209-6.45-2.319-9.54-3.884l.98-2.36c-2.16.008-3.8.847-5.83 1.634l-.81-1.107c2.09-2.575 6.46-3.491 10-4.777 1.44.267 2.28.429 3.73.045 6.43 3.498 13.6 9.105 19.61 13.546-6.28 2.766-15.1 6.925-21.93 7.152"/><path fill="#0f8750" d="M1268.35 695.877c4.15-2.548 6.7-29.12 10.27-33.926l1.24.221c2.04 3.327 3.04 7.704 4.13 11.514-2.62 9.756-7.39 25.67-9.25 35.089-3.47 2.185-6.32 3.798-9.3 6.651.88-3.659 2.84-10.007 2.22-13.44l-.5-.682zM1258.89 782.356l.17-.372c-.77-1.334-1.41-2.562-2.11-3.926.43-3.038.65-7.638 2.45-9.831 2.69 1.653 5.28 8.362 7.13 11.852l.84-.636c-.49-2.005-.82-3.319-1.06-5.363 2.41-.667 6.72 1.193 9.54 2.063.6 6.261 1.06 13.138 2.32 19.256-5.91-2.464-16.17-7.285-19.28-13.043"/><path fill="#fff" d="M1252.64 665.473c2.24-1.677 2.63-1.663 5.45-1.647 3.01 2.082 6.88 14.615 12.46 21.837-.51 2.253-2.01 8.225-2.2 10.214l-1.19 5.427-1.18 1.351-1.13-1.619c-.7-6.025-9.25-29.831-12.21-35.563"/><path fill="#0f8750" d="M1284.72 564.972c-1.89.453-3.1.694-5.02.965-9.43-10.65 1.14-14.853 9.04-20.612-2.47 5.52-3.24 7.498-7.27 12.222 1.13.543 2.38.026 3.92-.226l.52 1.339c2.04-.385 1.21-7.855 4.04-10.83 3.45 3.601 1.82 9.643 2.38 11.563-2.61 2.488-4.21 4.374-7.61 5.579M1286.64 573.387c.36-4.244-.29-4.552 1.85-7.526 3.54.336 3.62 1.201 6.96 3.598l-.31 1.269c4.47 5.578 3.66 11.99 2.82 19.393-.14 1.149-.28 2.296-.44 3.441-3.91-11.152-8.76-14.494-10.88-20.175"/><path fill="#107a4b" d="M1216.89 737.916c2.46.672 3.19.513 5.54-.416 3.46 1.801 2.3.727 4.36 4.16l-.8 1.038c-4.08-.491-6.39-1.358-10.3-2.643z"/><path fill="#fe3517" d="M1288.44 605.178c26.31-4.093 41.47 22.195 13.39 34.269-26.98 4.349-42.15-22.729-13.39-34.269"/><path fill="#ebded9" d="m1294.24 618.323.89.082c.27 1.7.34 2.018.9 3.641l1.33-.006 2.48-5.145 1.14.069c1.44 1.746 1.17 3.516 1.25 5.895-2.46 2.521-3.6 4.151-7.02 3.856-2.23-3.113-1.58-2.216-1.86-6.468l-.6-.696z"/><path fill="#fe3517" d="M1245.76 722.19c9.83.09 22.78 2.685 25.4 14.036.72 3.211.14 6.576-1.62 9.356-3.76 5.842-9.88 7.733-16.2 9.179-24.05 1.523-38.67-21.378-7.58-32.571M1294.51 492.217c24.56-1.579 35.32 22.752 5.85 29.577-21.3 2.526-35.3-21.254-5.85-29.577"/><path fill="#ebded9" d="m1291.26 502.295 2.96 1.016c.54 2.071.54 2.231 1.75 3.966 1.47-1.372 2.43-2.413 3.78-3.915l.88 1.325-.42 1.92c-.73 2.181-.98 2.545-2.2 4.522l-2.28.43c-3.98-2.129-4.42-5.206-4.47-9.264"/><path fill="#0f8750" d="M1287.21 521.867c1.11.261 3.43 1.204 4.6 1.646 4.94 7.24-4.9 20.721-10.58 25.152-5.63 4.39-12.08 2.598-18.72 3.564-2.69.392-2.99 2.028-5.92 1.57-1.78-4.794-.12-19.766 5.67-22.08 7.68-.775 9.41-3.69 13.81-2.796l-.13.988c-4.04 1.662-14.51 10.784-12.52 15.342 4.46-4.734 9.08-8.958 13.83-13.387l-.12.47c3.49-1.846 7.47-7.313 10.08-10.469M1295.2 530.455c5.77 3.444 16.05 50.513 14.82 58.497-.44 2.844-4.99 12.931-6.5 16.247l-3.48-2.247c-4.07-6.639 1.58-14.112.63-22.268-1.53-13.038-6.18-26.274-10.01-38.943zM1212.19 742.272c8.62.223 11.19 1.674 18.65 5.64-12.75 6.064-13.56 9.34-23.96 16.894-5.49 1.05-14.06-.975-19.84-1.974 9.21-11.533 8.5-17.853 25.15-20.56"/><path fill="#0f8750" d="M1231.14 750.191c1.63.651 1.93 1.1 3.14 2.31-1.92 8.572-17.37 13.14-20.16 23.45l4.78-2.902c.84.737 1.24 1.565 1.7 2.571 1.47-4.081 3.13-10.317 6.9-12.263.72 1.985-1.2 6.116-2.04 8.617.18 2.84.43 4.112-.64 6.831-4.33 3.982-15.13 9.376-20.32 4.9-.76-2.353-.9-4.46.19-6.694 7.58-15.535 11.78-20.436 26.45-26.82M1275.85 660.147l.73 1.322c-1.04 4.554-3.59 16.547-6.06 19.931l-1.96-.766c-3.6-5.881-4.77-9.898-6.85-16.318 5.89-1.077 8.71-1.374 14.14-4.169M1302.63 541.727c10.13 8.038 15.57 9.973 15.79 23.618l-10.14-3.687a321 321 0 0 1-5.65-19.931"/><path fill="#107a4b" d="M1206.21 765.636c.76.838.73 1.104 1.22 2.191-1.15 4.588-2.09 9.86-6.01 12.885-2.07 1.594-4.36.373-7.48-.282l-1 .09c-.11-.769 11.09-11.187 13.27-14.884"/><path fill="#0f8750" d="M1285.34 676.764c4.72 4.899.78 13.628-.95 19.429-1.35-1.431-1.63-1.945-2.66-3.635-.28-4.953 2.07-10.928 3.61-15.794"/><path fill="#04341d" d="M802.319 357.52c-2.492 12.7-1.361 25.483-5.492 36.6l13.934-4.354c-2.105 12.165-6.225 29.459-15.317 38.28-.407.684-.961 1.818-1.532 2.242l-5.184 5.94 8.582-2.084c.905 6.777-13.901 28.582-18.276 34.966-4.086 5.962-9.343 9.77-15.087 13.994 12.269-3.004 21.326-2.431 34.018-2.276-4.51 6.612-4.137 11.159-6.539 15.282-.643 1.545-1.932 4.094-1.945 5.589 7.212 2.396 18.481 12.163 24.575 17.06-6.218 3.644-16.299 10.481-22.992 10.884l-.986 2.977c4.334 5.854 3.958 18.763 5.301 26.498l-7.985-5.536c-4.605-.074-9.54-.25-14.116-.17-.193 3.901-.014 11.273-2.031 14.196-3.065 1.183-4.489-.143-7.145-2.104-2.801-1.348-4.217-2.972-6.414-5.104l-2.216-.545c-2.59 2.134-4.176 6.677-2.08 9.524 3.178-2.371 3.623-3.648 6.821-3.475 1.357 2.53 1.292 3.23 1.476 6.125 1.062 1.733 1.466 2.886 3.336 3.593 5.593-4.431 18.472-9.688 25.316-12.64.724 15.328-.857 24.584-9.693 37.644 10.047-.877 14.057-1.536 23.897-.512-1.464 6.872-2.198 11.773-5.356 18.107-1.654 3.773-4.693 6.927-8.275 8.922-2.364 1.703-3.509 1.833-3.998 4.118 1.681 1.289 3.228 2.468 4.971 3.672 8.919 6.134 15.452 22.411 13.408 32.846l-1.483 1.864c-2.78-.754-3.302-1.765-5.218-3.938l-1.603.458c4.116 6.064 13.554 17.446 15.826 22.771l3.604 1.676c1.908-3.474.989-3.042 4.063-4.395 2.771.559 5.629 4.201 6.721 6.672 5.148 10.528 3.385 19.311 2.368 30.826 9.844-.137 21.448 1.269 29.989 6.41l.563 1.446-1.426 1.171c-1.83 1.892-7.368 7.766-9.408 9.132l-.336 3.847c2.762 1.327 3.417 1.39 5.049 3.819 8.319 1.056 17.657 1.355 24.286 6.588 7.15 3.953 13.784 8.785 20.678 13.17 29.347.376 41.944-.339 60.641 26.219 4.269 8.829 3.139 12.376 13.506 15.969a69 69 0 0 0 2.777.889l-.882 1.388c-7.409 1.184-40.192-2.29-45.842-1.084-.83-.754-6.899-3.21-10.465-5.921-7.788-6.662-5.394-10.178-16.421-9.981-7.035 3.675-15.794 9.762-21.947 12.737-15.224 7.359-41.939-1.479-60.09-4.333a410 410 0 0 1 9.045-7.485c3.656-3.411 7.75-6.827 11.552-10.115-5.136-1.524-13.55-5.972-18.455-4.835-1.364.317-2.386 2.835-3.291 4.394-1.638 4.392-8.908 15.597-13.694 16.373-.719-1.061-1.141-1.408-1.394-2.61l-10.93-20.404-7.77 6.258c-3.973 3.222-5.38 4.249-9.856 6.659-1.601.608-2.005.549-3.685.69-1.349-3.347.468-13.314.991-17.583-5.22.709-22.952 4.446-26.297.632l1.333-3.534c1.022-1.68 2.547-3.374 3.82-4.921l.221-3.481c-3.666-3.171-10.935-2.846-17.757-8.144-2.717-1.154-7.128-5.113-9.618-7.168 9.957-2.829 13.803-6.449 21.671-13.175 2.016-1.399 2.182-1.547 3.748-3.425l-.907-2.375c-3.395-2.685-4.236-3.443-6.887-6.908l-.623-.821c-1.918-1.812-2.575-3.561-3.767-5.913-1.655-3.369-3.387-9.269-4.608-12.999 11.872 2.883 27.455 3.878 39.842 5.048-1.235-4.418-2.287-10.376-5.871-13.035l-3.083 1.753-1.135-1.178-1.333-4.611c-.602-2.883-.651-5.093-2.806-6.88-3.506.672-3.794 2.068-6.835 5.158l-1.61-.296-.619-3.105c-4.428-8.878-11.469-12.502-11.909-23.584a233 233 0 0 0-11.576 4.965c-4.529 2.911-15.483 4.758-20.934 5.803 3.132-8.873 3.934-22.938 9.393-29.035l.197-1.879c-1.689-2.708-6.451-3.747-10.012-5.125-8.429-3.38-13.714-10.97-18.626-18.095l-.143-1.66c1.851-2.019 26.848-4.819 32.413-6.308l-4.004-9.003c-4.961-7.358-4.764-27.6-6.409-38.202 6.159 3.147 20.648 11.381 25.885 15.623l2.039.029c2.371-2.28 3.757-13.614 4.432-17.595l-12.43 4.878 1.326-13.075c-6.205 1.477-17.127 5.629-22.255 2.83-.801-3.238.285-4.074 1.711-7.744.109-.632.959-3.042 1.209-3.804.805-2.911 1.582-5.149 1.515-8.206-2.746-2.584-3.284-1.82-7.934-2.341-7.962-.909-14.328-3.968-21.428-7.335 5.081-3.66 15.361-11.721 20.546-13.887l-4.434-6.143c-4.893-8.18-8.044-11.141-15.077-16.999 15.248-.12 45.628-5.539 55.857.755 2.929-.061 4.464.228 6.834-1.422-.771-2.742-3.118-4.126-5.529-6.375-13.217-8.082-12.579-40.984-13.431-55.203l.382-1.016c2.836.026 8.232 5.346 10.883 7.552-2.659-9.291-4.522-30.104-.888-38.754 2.784-.623 3.705.516 6.84 1.955l2.595 1.627c3.798-1.396 5.478-7.744 7.033-11.471.493-1.93 6.411-15.188 7.55-17.834 2.934 4.791 6.698 10.411 8.557 15.608l6.948-7.396c1.904-2.643 9.068-8.644 11.576-10.559 4.799-4.091 8.809-7.532 13.98-11.198"/><path fill="#04341d" d="M802.319 357.52c-2.492 12.7-1.361 25.483-5.492 36.6l13.934-4.354c-2.105 12.165-6.225 29.459-15.317 38.28-.407.684-.961 1.818-1.532 2.242l-5.184 5.94 1.149 1.519c-13.396 6.781-8.51.701-22.415 14.188-1.156 1.2-6.093 6.507-7.109 7.07-3.175 6.327-5.584 18.315-7.246 25.452l-.914-.606.128 1.06c1.94-25.514-1.811-42.021-25.458-55.905l.382-1.016c2.836.026 8.232 5.346 10.883 7.552-2.659-9.291-4.522-30.104-.888-38.754 2.784-.623 3.705.516 6.84 1.955l2.595 1.627c3.798-1.396 5.478-7.744 7.033-11.471.493-1.93 6.411-15.188 7.55-17.834 2.934 4.791 6.698 10.411 8.557 15.608l6.948-7.396c1.904-2.643 9.068-8.644 11.576-10.559 4.799-4.091 8.809-7.532 13.98-11.198"/><path fill="#0f8750" d="M754.085 459.541c-13.547-29.097 5.86-37.965 21.088-57.206 1.749 16.112 1.831 25.798-2.159 41.532l-6.606 6.702 1.054 1.366c-1.156 1.2-6.093 6.507-7.109 7.07l-1.445-.099c-1.51 2.676-2.375 3.946-4.16 6.361.901-4.349 1.52-6.741 2.948-10.935 1.18-7.035 2.344-6.295 5.954-12.494-3.816-3.575 3.274-16.51 4.546-22.322l-.73-1.075c-2.384 3.257-5.573 15.246-7.935 20.661l-1.908-1.391c-1.77 3.818-.878 13.268-3.538 21.83"/><path fill="url(#a)" d="M757.696 454.332a1170 1170 0 0 0 7.407-11.324l1.435.13 1.833 2.282c-1.317 1.904-2.398 3.269-3.875 5.052l1.912.097 1.054 1.366c-1.156 1.2-6.093 6.507-7.109 7.07l-1.445-.099c-1.51 2.676-2.375 3.946-4.16 6.361.901-4.349 1.52-6.741 2.948-10.935"/><path fill="#0f8750" d="M778.377 408.023c9.518-9.834 18.498-12.324 31.106-16.333-5.467 21.473-7.146 19.364-14.039 36.356-.407.684-.961 1.818-1.532 2.242-.139.016-13.841 9.077-17.889 10.827l2.583-15.37c2.824-2.259 6.299-5.742 9.004-8.306 2.844-.436 4.314-.948 6.985-1.82l-1.332-2.415c.438-3.588 3.674-7.135 5.945-10.132-1.551.276-6.647 6.769-9.682 8.661l-.328-3.823-.837-.577c-1.778 4.615-4.356 12.804-8.64 15.051l-1.523-1.022zM761.258 371.065c2.934 4.791 6.698 10.411 8.557 15.608-.161 3.508 2.035 11.728 2.484 16.345-2.302 2.6-7.948 9.558-10.607 10.842-2.002-4.089 2.594-3.328-1.506-9.413l-1.257.357c-4.358 8.756 4.067 6.911-5.96 18.244-1.936-8.779-3.477-14.786-1.466-23.95.821-3.742 2.517-6.623 2.205-10.199.493-1.93 6.411-15.188 7.55-17.834M799.081 361.931c.168 11.845.261 21.484-4.597 32.529-7.828 4.037-12.133 6.667-18.921 12.582 2.666-4.194 5.187-8.237 8.246-12.209 1.904-2.473 6.527-4.821 6.638-6.691l-3.083.393c-.095-6.368 4.592-11.893 3.948-17.002-2.321 3.215-5.778 13.037-6.985 17.114l-.786-.871.306-4.667-1.236-.889c-2.784 8.267 1.042 12.338-5.669 17.7l-1.463.286c-2.32-2.815-2.789-8.922-3.578-13.05 2.326-2.648 4.73-4.585 4.862-7.879 1.904-2.643 9.068-8.644 11.576-10.559 3.593-.265 7.637-4.353 10.742-6.787M747.561 444.606c-9.473-9.822-10.54-19.246-11.265-32.572-.155-2.85.793-10.682 2.954-12.943.857-.897 3.203-.427 4.83-.348l2.595 1.627-.16.647c1.586 1.972 4.411 21.566 5.372 26.127l-1.415 1.351c-5.841-3.626-7.164-14.301-8.56-20.6l-.724-.31c-.913 10.095 3.006 16.957 8.114 25.324z"/><path fill="#0f8750" d="M726.863 429.006c23.647 13.884 27.398 30.391 25.458 55.905l-.128-1.06.914.606c1.662-7.137 4.071-19.125 7.246-25.452 1.016-.563 5.953-5.87 7.109-7.07 13.905-13.487 9.019-7.407 22.415-14.188l-1.149-1.519 8.582-2.084c.905 6.777-13.901 28.582-18.276 34.966-4.086 5.962-9.343 9.77-15.087 13.994 12.269-3.004 21.326-2.431 34.018-2.276-4.51 6.612-4.137 11.159-6.539 15.282-.643 1.545-1.932 4.094-1.945 5.589 7.212 2.396 18.481 12.163 24.575 17.06-6.218 3.644-16.299 10.481-22.992 10.884-14.351-2.082-12.983-.245-24.612-10.408 12.194-15.669 14.487 3.362 28.856-2.859-.441-3.029-15.307-3.584-18.497-5.152-5.802-2.852-1.989-5.943-7.474-12.805 2.12-2.878 5.864-3.516 9.156-3.743l1.055-.065 2.134-2.592-.272-2.766c-2.614-.079-10.41 4.982-14.007 6.849-6.305-4.269-9.309-4.931-16.876-5.709-6.961-14.553-3.774-10.293-5.914-23.966q-1.55.033-3.1.024c-1.414-4.687-3.936-16.214-5.93-19.526l-.526 1.599c2.196 7.981 3.09 21.246 5.96 26.277 3.019 5.29 3.294 3.199 5.006 11.029l-.852.59c-1.97-1.725-2.28-1.809-4.877-2.211-13.217-8.082-12.579-40.984-13.431-55.203"/><path fill="#04341d" d="M789.481 501.699c-3.341 2.169-3.619 3.002-7.628 4.608l-.26-.915c2.687-3.033 6.344-7.347 9.833-9.282-.643 1.545-1.932 4.094-1.945 5.589M774.935 454.644l.789.363c-1.216 6.024-4.814 5.46-8.462 11.481-4.377 7.227-8.486 14.594-12.632 21.937l-.649-1.729c3.773-11.669 9.734-19.598 16.478-29.702z"/><path fill="#0f8750" d="M855.499 751.277c5.578.435 21.064 5.003 22.791 4.849 7.15 3.953 13.784 8.785 20.678 13.17 29.347.376 41.944-.339 60.641 26.219 4.269 8.829 3.139 12.376 13.506 15.969a69 69 0 0 0 2.777.889l-.882 1.388c-7.409 1.184-40.192-2.29-45.842-1.084-.83-.754-6.899-3.21-10.465-5.921-.566-4.25-17.881-30.269-23.874-30.748l-.169 1.036 2.73 2.934-.75.829c-7.87 1.753-25.028 1.243-33.383 1.03-5.432-3.047-15.869-8.104-13.727-15.224l2.648-1.271c2.681.068 3.206-.018 5.26 1.64-1.225 1.774-1.343 2-2.202 3.981 5.23-.398 10.402-1.098 15.517.013l-.687 1.529.575.902c6.009.354 9.351.652 15.374 1.719l.712-.772c-1.576-1.741-6.282-1.87-7.783-2.504-.696-.777-4.684-4.431-5.637-4.162-3.625 1.024-11.269 3.028-13.168-1.651 2.276-.236 4.383-.147 6.124-1.469-4.114-3.766-7.454-8.756-10.764-13.291"/><path fill="#04341d" d="M907.54 779.314c5.087.572 12.342 1.599 17.233 2.755 4.68 1.106 11.916 9.682 16.815 11.362.109-1.494-.026-2.571.948-3.64 1.691 2.095 1.3 6.067 1.764 6.72 2.874 4.042 10.273 7.936 14.275 11.138l-.928 1.55c-2.561-1.219-11.795-8.115-14.568-10.119-3.13-.038-4.696.09-7.734-.935.993-1.131 1.568-1.939 2.421-3.145-2.137-8.999-12.646-5.989-14.678-7.588l2.447-1.977c-5.69-2.496-13.883-2.012-17.995-6.121"/><path fill="#0f8750" d="M683.132 491.251c15.248-.12 45.628-5.539 55.857.755l-3.966 4.886c-3.361 4.817-4.814 7.48-5.619 13.232l4.711 5.968-.376 2.42-.451.436c-5.752 5.458-12.632 9.219-17.72 15.61-3.256 4.088-2.208 8.387-5.624 11.604.805-2.911 1.582-5.149 1.515-8.206-2.746-2.584-3.284-1.82-7.934-2.341-7.962-.909-14.328-3.968-21.428-7.335 5.081-3.66 15.361-11.721 20.546-13.887l-4.434-6.143c-4.893-8.18-8.044-11.141-15.077-16.999"/><path fill="#0f8750" d="m698.209 508.25.462.199c8.685 3.827 24.362 16.548 32.048 7.405.04-2.279-.576-3.568-1.315-5.73l4.711 5.968-.376 2.42-.451.436c-5.752 5.458-12.632 9.219-17.72 15.61-3.256 4.088-2.208 8.387-5.624 11.604.805-2.911 1.582-5.149 1.515-8.206-2.746-2.584-3.284-1.82-7.934-2.341-7.962-.909-14.328-3.968-21.428-7.335 5.081-3.66 15.361-11.721 20.546-13.887z"/><path fill="#04341d" d="m698.209 508.25.462.199c8.685 3.827 24.362 16.548 32.048 7.405.04-2.279-.576-3.568-1.315-5.73l4.711 5.968-.376 2.42-.451.436c-5.752 5.458-12.632 9.219-17.72 15.61-3.256 4.088-2.208 8.387-5.624 11.604.805-2.911 1.582-5.149 1.515-8.206-2.746-2.584-3.284-1.82-7.934-2.341 4.16-1.156 6.483-.244 10.236-3.404 3.868-3.257 9.581-6.125 12.464-10.377l-.803-.838c-4.806-.364-8.641 1.135-12.345 4.12l1.698-1.509c-3.311.615-12.275 2.713-15.017 1.904 5.347-2.226 8.005-3.948 12.933-6.506l-1.171-2.575c-3.214-1.032-5.486-1.945-8.877-2.037z"/><path fill="#0f8750" d="M849.12 783.105c6.296-.187 15.931.683 22.654.785 8.308.127 23.204-1.496 30.564-.062-2.643.233-11.458.687-13.389 1.614-6.441 8.584-15.662 2.175-17.986 4.77l.34 2.286c-4.518 2.953-12.714 1.44-18.056.362q-.672-.135-1.339-.294l3.318.013c-3.541 2.324-10.006 5.764-12.182 8.89 3.303-.462 8.932-3.856 11.762-5.847 3.682.087 15.31.365 18.539.458 1.398.04 8.644-7.297 13.99-5.469-.871 2.177-1.191 2.828-2.468 4.793l1.011.443c2.832-2.978 3.821-4.327 6.145-7.736 5.937-.151 15.767-1.763 16.973 5.521l-.68 1.307c-3.282.386-4.053-.123-6.034 1.836-7.035 3.675-15.794 9.762-21.947 12.737-15.224 7.359-41.939-1.479-60.09-4.333a410 410 0 0 1 9.045-7.485c3.965-.304 15.486-11.108 19.83-14.589M769.021 659.002c2.139 7.528 14.168 48.622 12.561 54.624l-3.964-2.426-.822.742c3.055 6.883 13.14 8.352 3.732 15.138-6.129-.542-5.033-6.152-10.237-7.002l.984 3.12c-4.999 1.647-17.235-7.013-21.512-10.029l-.593.731c2.644 9.844 19.361 13.08 28.195 14.671.069 3.117-1.455 6.144-2.643 9.069-10.201-1.702-20.067-3.608-28.108-10.755-1.441-1.281-3.37-3.395-5.152-3.684-1.918-1.812-2.575-3.561-3.767-5.913l-.024-.71c-.098-2.5-1.158-7.878-.625-9.151 6.466.343 33.101 2.662 38.393 4.338-4.245-12.816-7.474-24.742-10.985-37.777 1.448-4.661 3.392-10.344 4.567-14.986M790.341 562.982c.724 15.328-.857 24.584-9.693 37.644l-.15-1.385c-4.062 4.275-5.543 5.365-10.459 8.673-4.664-2.175-5.1-2.068-6.899-6.006.407-3.659 5.133-7.681 7.872-10.558l-2.142-1.126c.316-3.808 5.654-8.808 8.411-11.911-4.905 2.913-8.685 7.636-12.426 11.949l-.002-.323c-1.765 4.416-1.259 6.952-4.182 12.842-2.232 1.018-7.106.027-9.801-.309 2.796-11.226 4.482-18.592 13.691-26.135l.464-.715c5.593-4.431 18.472-9.688 25.316-12.64"/><path fill="#fe3517" d="M735.023 496.892c12.187-6.135 22.146-7.184 33.181 2.072 11.591 22.609-21.55 28.317-34.089 17.128l-4.711-5.968c.805-5.752 2.258-8.415 5.619-13.232"/><path fill="#0f8750" d="M708.027 565.02c6.159 3.147 20.648 11.381 25.885 15.623 2.256 3.504 7.97 21.891 6.074 25.835l-2.828 1.347c-4.168-3.585-1.839-9.532-5.223-12.173l-1.569 2.021c-3.296-3.895-4.818-6.881-7.266-11.28l-.738.475c.583 5.979 4.548 7.871 7.334 13.669l-2.964.889c3.216 7.769 14.379.379 3.103 16.55-11.376-6.388-12.499-13.332-15.399-14.754-4.961-7.358-4.764-27.6-6.409-38.202M714.611 645.292c5.152-4.748 7.876-8.429 15.153-10.349 5.285-1.395 4.41-1.253 8.356 1.839.909 5.707-8.338 6.902-11.031 9.946-2.154 2.436-9.503 13.412-9.911 16.236 5.618.286 9.328-13.778 14.906-15.682l1.103 2.368c9.525-6.589-1.941-12.976 17.966-7.86-7.815 21.177-21.711 20.143-25.001 26.734-4.529 2.911-15.483 4.758-20.934 5.803 3.132-8.873 3.934-22.938 9.393-29.035M796.712 664.803l.279 1.36c4.116 6.064 13.554 17.446 15.826 22.771.02 1.144.17 2.213.4 3.333-2.591 5.556-5.507 11.28-7.168 17.153l-1.482-.089c-7.298-2.461-.091-6.815-.787-13.332l-2.358.615c-.617-1.875-.487-7.034-1.603-11.239l-.784 1.202c.929 9.464-2.513 9.653-1.078 14.957 2.044 7.553 1.402 11.308.823 18.958-3.226.501-6.839 1.444-9.799.283-2.948-1.994-3.819-5.361-5.183-8.746.247-7.728 3.313-16.15 2.758-22.345 1.003-3.498 8.532-22.442 10.156-24.881M792.446 766.077c1.672-3.54 2.417-5.247 4.743-8.435 3.043-1.952 5.847-2.077 8.52.296.293 4.223-3.295 6.06-3.339 10.804l2.841-2.123.93.875c.655 4.267-1.123 8.448-2.511 12.565 1.598 2.692 1.726 3.345 2.194 6.306l.121.79 1.142.193 1.257-5.462 1.114-.5c.784-8.764-1.965-17.575-1.18-26.13l1.736-.696c11.774 3.13 10.898 22.985 9.082 32.578-1.638 4.392-8.908 15.597-13.694 16.373-.719-1.061-1.141-1.408-1.394-2.61.34-5.846-8.773-18.279-10.544-24.434-.672-2.335-.905-7.848-1.018-10.39"/><path fill="#0f8750" d="m782.073 640.015 2.594.024c-5.193-.599-9.154-.909-14.201-2.471l-.379-1.329c8.233-7.929 12.074-3.441 21.8-1.306 8.919 6.134 15.452 22.411 13.408 32.846l-1.483 1.864c-2.78-.754-3.302-1.765-5.218-3.938-5.246-7.597-16.338.96-28.726-10.662l-3.544-17.008c3.255 1.051 7.954 2.008 11.397 2.812 1.172 2.667 1.671 4.228 3.586 6.469l2.721-1.913c6.534 1.545 7.079 6.76 8.325 12.08l1.11.399c.373-2.398.518-2.902 1.496-5.146l.241-.54c-2.734-3.95-9.013-8.083-13.127-12.181M733.739 518.512c2.519 1.357 5.353 2.276 6.514 4.396-4.122 4.747-12.577 8.753-13.903 11.84l2.691.693c-2.597 5.627-10.74 12.209-10.513 14.832 5.118-2.535 11.254-13.703 14.001-14.544.134 1.841-.228 1.267.615 2.574 3.672-6.045 5.688-13.289 11.947-16.178 3.179.449 1.956-.062 4.632 2.557 3.542 13.813-25.102 34.319-39.212 32.493l-1.921-1.22c.056-1.649.243-4.449.145-5.989.109-.632.959-3.042 1.209-3.804 3.416-3.217 2.368-7.516 5.624-11.604 5.088-6.391 11.968-10.152 17.72-15.61z"/><path fill="#0f8750" d="M737.728 663.559c2.224-2.311 16.082-19.195 15.869-19.072 1.762 5.587-3.715 10.734-2.851 15.824l1.96-.698c1.041 5.763-1.73 8.764-.483 14.14l1.083-.541c1.054-4.294 1.053-8.266 1.224-12.655 2.585 1.361.317 3.624 3.151 4.271 1.293-6.727-6.571-16.468.236-24.139 2.982-1.018 3.631-.65 6.689.32 6.96 8.848-2.169 41.537-12.637 46.533l-2.332-.399c-4.428-8.878-11.469-12.502-11.909-23.584M774.989 742.98c2.078 2.59 4.95 6.401 7.11 8.755-5.916 1.975-18.583 7.937-19.759 14.653 9.951-3.758 12.049-9.824 21.332-13.826 3.771 1.476 7.551 3.032 11.437 4.161-3.361 6.597-5.203 8.945-11.707 12.929-6.906 4.23-27.417 10.486-34.75 6.703l-.858-2.736c1.022-1.68 2.547-3.374 3.82-4.921 1.285-.834 1.229-.857 1.99-2.011 6.115-9.264 13.307-16.303 21.385-23.707M787.394 553.582c.03-.303-.367-.741-.606-1.109q-2.52-.075-5.037-.212c-5.319-.3-14.932-2.133-18.239-6.403-3.427-4.426-11.817-19.903-5.975-24.409 8.172-.729 9.005 10.254 13.059 12.274l1.007-2.445c2.924 1.055 3.536 2.387 5.439 4.885l.311 2.79c.8.347 1.205.62 2.033.738 1.939 2.104 2.839 3.448 5.487 4.539l-.486-.078.4-3.258c-.512-.556-3.467-3.833-3.821-4.086-2.354-3.246-5.262-4.255-6.977-8.119l.123-.026 1.04 1.698 1.083-1.469c5.729 2.119 8.38 2.046 13.843 3.728 4.334 5.854 3.958 18.763 5.301 26.498zM686.17 620.193c4.273-2.937 26.326-4.755 33.712-6.536 3.703 2.299 6.547 4.164 10.053 6.745l-.05 1.439c-7.264 2.329-23.877-.636-29.082.538l.324 1.137c1.823.158 7.176.669 8.417 1.463 7.134 4.562 14.258-3.237 21.436 1.757 1.391 2.26 1.632 2.584 1.469 5.207-3.674 2.235-12.055 3.752-16.186 7.524-.778.71-9.047-1.429-11.467-1.179-8.429-3.38-13.714-10.97-18.626-18.095M746.131 736.73l.566-.101c1.478-.274 5.233-1.574 5.548-1.556 6.556.368 14.104 2.964 20.525 4.137-3.509 1.179-23.948 5.828-24.202 5.976l.946 1.739-10.076 2.829-.315 1.024c4.664 1.464 10.44-4.035 13.5-1.737l.465 1.767c1.96-.928 2.995-4.091 3.425-4.291 5.432-2.526 15.141-4.796 20.427-6.082-11.245 7.147-15.718 11.912-23.806 22.605-3.377-.891-17.386-5.892-19.056-5.967-2.717-1.154-7.128-5.113-9.618-7.168 9.957-2.829 13.803-6.449 21.671-13.175M816.421 690.61c1.908-3.474.989-3.042 4.063-4.395 2.771.559 5.629 4.201 6.721 6.672.078 2.489.756 4.95 1.139 7.413 1.237 7.958.296 15.838-.469 23.811-2.366 2.291-4.94 5.345-7.933 6.124-8.779-7.462-1.56-8.791 1.379-15.58-.178.41-.794-12.892-.842-13.552l-1.252.327c-1.207 6.151-2.496 20.647-8.056 22.892l-1.959-1.349c-7.528-14.734 5.343-21.99 7.209-32.363M771.456 609.264c12.186-8.907 16.211-8.232 31.45-8.492-1.356 5.32-3.349 12.099-3.717 17.449-1.654 3.773-4.693 6.927-8.275 8.922-4.391.07-8.426 4.546-13.295 2.195-6.058-12.308 5.124-13.417 11.962-18.709l-.231-1.578c-7.458-3.496-8.097 12.849-17.894.213M821.91 749.474c-1.794.008-.989.291-2.398-1.098.622-1.125 1.138-1.895 2.326-2.408 15.011-6.479 14.316-3.894 27.117-.249 2.762 1.327 3.417 1.39 5.049 3.819 1.366 5.778 3.826 8.838 7.685 13.358-11.346 1.756-18.32 5.657-26.204-4.361-3.081-2.509-10.006-6.735-13.575-9.061"/><path fill="#107a4b" d="M821.91 749.474c4.12-1.004 10.05-2.037 13.897.066 2.823 3.754 1.996 5.101-.322 8.995-3.081-2.509-10.006-6.735-13.575-9.061"/><path fill="#0f8750" d="m826.219 734.139 1.153-1.069c-2.319 2.094-2.388 2.889-5.07 3.181-4.8-14.94 28.682-12.94 36.397-3.511-1.83 1.892-7.368 7.766-9.408 9.132-.281-.07-2.106.653-2.203.629-4.341-1.095-9.229-1.831-13.568-2.4l-1.493-.626c-.72-1.201-.813-1.661-1.286-2.953 2.693-2.091 10.475-3.231 14.191-3.994-6.203-.932-12.483.559-18.713 1.611"/><path fill="#fff" d="M784.224 676.201c2.765-5.03 1.6-7.9 4.643-11.662 2.763-1.363 4.721-.473 7.845.264-1.624 2.439-9.153 21.383-10.156 24.881-1.622 5.091-2.916 9.945-4.282 15.094l-4.302-19.597c1.933-2.15 3.371-4.479 4.976-6.883z"/><path fill="#0f8750" d="M775.452 793.414c-3.554-2.924-2.681-13.456-.769-17.081 3.31-1.624 4.025-1.788 7.537-2.555-.884 3.008-1.304 4.003-1.11 7.241 2.894-1.11 3.14-10.581 9.175-12.881l.775 1.264c.927 15.555-3.463 8.735-5.752 17.353-3.973 3.222-5.38 4.249-9.856 6.659M757.688 560.4c.193-1.323-3.263-8.112.249-12.415l1.591.352c1.22 3.62 1.537 5.785 2.161 9.528 3.758.096-.444-1.783 4.737.117-.021-.323-4.112-7.392-4.989-10.438l.521-.81c3.91 3.007 5.748 4.429 10.076 6.706-.564 4.67-.119 9.542-2.396 12.474-3.162.407-3.459-.413-5.536-.41-2.801-1.348-4.217-2.972-6.414-5.104M771.336 659.194c5.022 2.962 9.891 3.323 12.797 5.672 1.68 4.045.464 6.286.091 11.335l-1.276 2.097c-1.273.941-2.631 1.873-3.93 2.788-4.143-2-6.486-17.089-7.682-21.892M753.392 569.379c3.178-2.371 3.623-3.648 6.821-3.475 1.357 2.53 1.292 3.23 1.476 6.125-1.168 3.973-8.544 15.53-11.484 22.118-.163-6.28-.561-13.692.653-19.769.605-3.026 2.637-1.471 2.534-4.999"/><path fill="#107a4b" d="M761.507 692.266c.518-4.509-1.189-9.157-.091-12.365l1.291-.422c4.97 4.084 6.022 12.979.133 17.398zM804.567 709.331l1.482.089c-.422 3.799-.051 10.09-4.439 10.452l-.749-2.512c.407-3.675 1.611-4.984 3.706-8.029M833.52 740.101c-3.619.865-9.757 4.08-11.526.006 4.065-3.512 5.706-2.147 10.033-.632z"/><path fill="url(#b)" d="m902.338 783.828.248 1.667c-4.77 1.383-9.259 2.219-13.637-.053 1.931-.927 10.746-1.381 13.389-1.614"/><path fill="#fe3517" d="M747.232 605.225c25.772-4.193 41.656 21.498 13.453 34.242-11.002 1.22-22.858-.503-27.825-11.983a14.15 14.15 0 0 1 .04-11.258c2.722-6.166 8.501-8.794 14.332-11.001M795.879 722.17c25.606-.941 36.143 24.466 6.701 32.669-27.067.567-37.828-23.568-6.701-32.669"/><path fill="#ebded9" d="M797.723 732.309c2.965.028 5.256 2.363 6.914 4.548.749 3.992 1.129 2.904-.251 5.72l-1.941.013-1.843-2.397c.247-1.389.294-.719-.368-1.997-1.944 2.548-1.068 2.16-3.676 2.997-.926-2.81.365-5.537 1.165-8.884"/><path fill="#0f8750" d="M751.523 530.461c3.204 1.497 4.717 6.892 6.199 10.453-2.551 11.961-7.287 23.176-9.488 35.643-1.986 11.25 5.134 20.604-.681 28.426-7.308-2.496-9.439-16.879-8.72-23.495 1.858-17.092 7.81-34.664 12.69-51.027M815.86 749.891c8.281 2.128 18.405 8.045 22.138 16.099 1.69 3.647 7.057 14.828 6.133 18.094-5.938 3.763-14.494-1.188-19.545-4.489-2.125-1.389-1.709-5.04-1.856-7.392-.903-3.227-1.201-4.372-1.552-7.77l1.734.286c2.622 2.45 3.288 6.325 4.321 9.886l1.242.601.96-2.785c2.052 1.945 3.083 3.638 5.457 4.072-.329-2.071-1.228-2.643-2.745-4.193l-.594-.602 1.413-1.407c-1.863-3.968-17.572-10.192-19.187-17.581zM745.825 540.827c-.107 4.099-4.143 16.212-5.539 20.794-2.526 1.19-7.27 2.633-10.086 3.579-.777-2.828.651-8.677 1.227-11.884 6.657-4.331 9.159-6.876 14.398-12.489"/><path fill="url(#c)" d="M840.608 765.654c2.398.839 12.143 11.753 15.883 14.876-13.701 1.688-12.221-2.403-15.883-14.876"/><path fill="#feb30f" d="M955.76 334.367c22.874-.491 46.8 4.849 52.61 29.945 8.05 34.776-40.408 24.288-19.959-1.074-38.114-20.507-42.098 11.175-52.457 12.425-3.33-.952-4.887-3.99-6.97-6.911l-1.235.792c6.714 10.106 11.827 21.615-6.559 25.698-6.018 1.336-9.432-6.897-13.539-10.449-11.535 18.41-29.667 22.854-50.108 21.735-.162 3.048 2.147 5.325 1.153 9.486-2.668 11.16-10.418 8.487-18.506 10.302-1.603 1.593-3.446 7.832-3.539 9.596-.729 13.799 19.993 8.416 16.818 25.107-.991 5.207-4.568 6.945-8.602 9.817 3.09 6.619 13.783 8.833 15.418 21.522 2.098 16.287 2.136 36.007-7.39 50.222-3.249 4.848-7.58 7-10.394 10.963 6.417 6.704 11.806 10.479 7.276 20.574-4.673 10.414-16.397 1.914-19.281 13.536-4.323 17.417 2.326 36.344 9.719 51.942-.278-5.078-1.85-14.755 4.397-16.053 3.248 2.53 5.492 7.875 7.63 11.745 1.509-.042 5.91-.703 6.958-.466 6.5 1.464 13.6 8.394 12.581 15.137-4.866 3.943-4.444-1.475-12.385.969-.866.714-1.879 1.768-2.285 2.805-12.892 32.906 25.699 58.457 50.52 70.773 9.293 4.611 15.324 4.644 24.07 1.198l9.385-12.137c5.045 10.088 8.36 14.545 20.137 13.084 22.397-4.956 47.547-.819 50.487 26.426.39 3.913-.83 7.817-3.4 10.8-5.16 6.093-14.55 6.278-20.495 1.309-5.504-4.599-3.841-10.922-4.22-17.396-2.46-2.374-7.046-3.059-10.511-3.904-15.6 3.364-20.661 10.144-32.207 20.878l-2.076-.285c-3.315-3.236-3.247-9.792-4.391-10.761-5.714-4.839-31.032-4.04-35.288-10.36l.973-3.282c-1.532-2.379-38.004-18.83-46.574-26.065-37.046-31.278-58.875-119.047-25.782-158.222.083-2.819-7.418-6.633-8.176-9.904-6.752-29.143 25.303-6.083 21.073-38.334.468-12.902-9.44-8.117-14.171-12.859-9.942-9.968-3.555-19.439 4.51-25.025.538-2.155-9.941-7.049-11.48-12.798-6.813-25.433.641-47.186 25.584-56.241a61 61 0 0 1-3.078-2.974c-4.933-5.181-6.2-15.519-1.028-19.842 12.481-10.431 19.677-3.253 25.94 8.459 2.667 4.988 14.404-2.645 14.396-3.758-.058-7.689 1.034-23.774 12.105-23.401 5.099.435 10.891 4.228 14.141 8.453 7.942-26.418 22.188-31.546 48.205-33.197"/><path fill="#483409" d="M1060.29 363.071c.35.437.7.88 1.03 1.331 5.61 7.446 4.87 18.053-4.13 22.013-15.58 6.847-20.95-18.775-14.6-29.709 4.73-8.136 8.82-14.208 18.88-17.647 17.97-5.959 39.79-6.6 57.46.358 15.51 6.939 16.26 13.847 21.47 26.942l1.04.181c3.8-3.605 9.1-7.954 14.72-6.247 23.75 7.222-3.08 23.374 24.1 27.989 3.96-1.932 8.67-17.951 15.33-16.228 18.44 4.772 19.86 17.121 7.68 28.582 24.66 8.318 34.4 33.476 24.43 58.036-1.95 4.796-7.15 8.09-11.46 10.728 18.79 9.826 11.84 25.665-6.67 30.824-3.51.978-3.8 30.122 10.19 27.557 6.32-1.158 11.09 9.603 10.69 15.039-.58 7.846-11.97 7.891-8.31 14.551 22.73 30.672 15.48 75.279 4.01 108.859-3.17 9.249-12.67 29.799-20.22 35.925-10.25 16.543-31.25 23.747-47.82 32.194-2.81 1.43-7.66 3.3-9.65 5.452.4 1.466.75 2.664 1.23 4.103-3.73 3.326-28.98 7.41-35.31 8.601-.76 3.764-1.11 7.166-3.44 10.196-1.35.706-2.68 1.725-4.16.679-14.67-10.351-12.52-15.684-31.98-19.56-3.51.868-6.81 1.163-8.84 4.015-2.11 5.744-2.15 17.868-7.95 19.991-19.8 7.246-26.55-18.019-15.89-30.087 6.36-11.908 22.12-12.904 34.04-11.994 16.56 1.265 23.05 3.946 31.32-11.962 4.45 5.751 10.51 15.387 18.72 14.611 18.65-1.763 39.21-17.8 52.59-30.006 10.1-9.222 15.8-19.983 15.15-33.491-.63-19.672-12.47-12.019-17.17-16.591.21-4.253 4.92-13.311 9.58-12.58 15.69 2.458 9.86-6.815 17.78-11.375 2.97-.191 2.8-.712 4.42.682-.28 3.75-.45 6.469-.36 10.228l1.2.644c.75-.561 1.54-1.144 1.9-2.032 8.12-19.717 10.6-32.616 4.62-52.466-23.28-1.078-23.11-13.38-9.31-28.138-11.23-9.068-14-11.083-17.31-26.405-2.62-12.153-4.57-34.681 3.55-44.709 3.17-3.923 7.58-5.91 11.09-11.372-3.49-3.913-8.74-3.111-9.02-11.785-.54-16.266 19.03-8.497 16.45-24.982-2.27-14.493-7.52-4.931-16.97-10.337-5.82-3.428-3.14-10.701-3.86-15.971-3.25-1.745-12.06-1.308-16.22-2.046-12.39-2.198-27.01-7.031-31.9-19.9-.52-1.386-.38-.925-1.55-1.727-11.25 23.749-34.84 2.891-22.82-10.634l3.04-3.416-.63-.895c-6.4 5.23-11.08 10.865-16.35.85-10.22-19.433-27.35-15.253-43.81-6.869"/><path fill="#feb30f" d="M1107.85 716.318c5.15 7.234 11.83 16.075 22.42 13.419 19.51-4.894 40.61-20.363 54.13-35.157 7.37-8.059 12.65-21.202 11.51-32.247-2.88-18.418-12.52-11.016-16.98-14.548-1.28-11.872 11.9-10.786 18.29-10.162 2.45.239 1.14-9.038 7.57-11.352 3.79 1.827.38 9.456 4.21 13.15l1.2-.692c7.26-11.211 18.22-49.597 3.57-59.198-3.51-2.296-17.29-1.793-15.49-11.278 3.26-17.292 18.75-17.444 27.33-3.955 20.34 42.561 6.29 99.764-19.56 136.974l-.12.883c-10.25 16.543-31.25 23.747-47.82 32.194-2.81 1.43-7.66 3.3-9.65 5.452.4 1.466.75 2.664 1.23 4.103-3.73 3.326-28.98 7.41-35.31 8.601-.76 3.764-1.11 7.166-3.44 10.196-1.35.706-2.68 1.725-4.16.679-14.67-10.351-12.52-15.684-31.98-19.56-3.51.868-6.81 1.163-8.84 4.015-2.11 5.744-2.15 17.868-7.95 19.991-19.8 7.246-26.55-18.019-15.89-30.087 17.04-13.354 29.97-12.67 50.34-8.51 9.05-2.841 10.82-4.708 15.39-12.911M1081.69 336.405c4.22-1.29 18.05-.427 22.68.212 22.87 3.157 38.3 21.954 35.26 45.16-1.5 11.481-18 15.417-23.2 5.787-.57-7.85 2.98-10.72 6.76-17.331l-2.64-3.972c-4.62.323-4.37 6.373-10.23 8.304-3.32-2.324-2.49-2.057-4.51-6.112-1.08-2.812-5.6-7.624-8.15-9.221-13.69-8.569-27.72-2.955-40.12 3.903 7.73 7.56 8.84 20.303-3.8 22.197-16.34 2.45-14.36-25.39-5.45-34.537 10.6-10.891 18.15-12.797 33.4-14.39"/><path fill="#feb30f" d="M1209.34 471.146c8.57-.487 14.28 2.843 17.39 11.493 3.69 10.282-16.93 12.357-18.65 15.463-2.32 4.17-1.27 22.15.88 27.296 1.85 6.402 17.86 1.684 19.67 10.912.96 4.901-1.35 9.834-3.8 13.713-29.95 18.68-43.28-42.677-33.19-61.556 5.51-10.314 6.85-12.744 17.7-17.321M1149.87 361.92c20.94-.896 12.46 8.913 15.87 20.11 1.71 5.61 12.01 7.879 17.61 9.471 3.59-26.532 31.58-18.487 24.39 2.842-32.1 30.907-88.78-12.388-57.87-32.423"/><path fill="#feb30f" d="M1198.98 402.958c34.23-.391 46.05 64.376 6.5 66.136-8.24-2.892-12.23-9.921-6.7-17.788 2.07-2.943 8.31-3.347 11.81-3.861 2.57-5.503 1.89-17.461-.58-23.013-3.94-3.162-11.25 3.125-16.25-4.158-5.43-7.92-1.51-12.798 5.22-17.316"/><path fill="#6a150b" d="M909.878 654.273c21.278-1.461 41.586 9.416 59.484 19.5 2.666-4.685 5.118-11.011 8.886-14.004 9.946-2.973 56.592 22.734 68.692 28.862-.62-22.172 9.95-16.609 28.77-18.651 11.48-1.245 21.26-.645 32.82-3.256 10.39-2.348 26.79-14.53 36.13-9.366 2.65 2.635 2.96 6.268 3.77 10.007 5.32-1.776 18.17-5.94 22.4-1.268-1.2 3.461-2.47 3.535-5.85 6.248l9.74 11.527c-17.83.308-23.24 8.451-39.14 14.071-2.95 1.041-5.78 1.465-8.64-.038-2.34-2.376-2.58-5.787-3.3-9.229l-1.83-.577c-14.9 4.974-23.46 7.973-39.2 9.894-11.14 16.669-4.58 28.361-31.15 20.245-15.14-4.626-25.16-8.637-38.98-16.576-2.85 6.262-3.29 14.282-8.1 18.845-7.091-.267-54.7-29.023-64.856-34.518 1.579 39.273-19.826 22.621-45.243 20.28-5.525-.509-8.796-.66-14.303-.225l7.686-12.605-7.474-12.452c9.861.794 17.127 1.818 26.713 3.992-7.356-8.061-6.251-15.997-3.411-26.221.769-2.769 3.879-3.4 6.386-4.485"/><path fill="#fe3517" d="M963.678 697.634c-14.145-7.426-27.85-16.976-43.717-20.676-4.147-.967-14.779-.306-16.528-2.34.547-10.132-1.527-20.751 12.179-19.205 35.218 3.973 65.895 28.411 95.418 46.078-2.79 6.544-4.46 12.124-6.56 18.907l-12.268-6.76c-9.886-5.301-18.881-10.212-28.524-16.004"/><path fill="#160b08" d="M934.28 665.64a6.654 6.654 0 1 1 5.376 12.173 6.654 6.654 0 0 1-5.376-12.173"/><path fill="#fe3517" d="M936.221 667.681a3.979 3.979 0 1 1 1.44 7.826 3.979 3.979 0 0 1-1.44-7.826"/><path fill="#160b08" d="M979 702.667c2.954-6.507 4.796-9.362 8.711-15.322.106 3.785.224 7.501.19 11.288l.976.8c1.48-1.531 2.7-2.931 4.456-4.156-.58 4.628-1.787 6.513-3.905 10.709l-2.139.628c-2.56-2.523-.299-3.733-2.16-8.341-1.437-.717-.743 3.689-6.129 4.394M965.076 694.842c4.83-4.723 8.435-7.777 13.702-12.017l-2.191 16.894-1.717-.46c-2.747-5.284-4.929-4.544-9.794-4.417M960.814 678.002c2.714.586 6.244 1.742 8.436 3.431l-.344 1.417c-3.491 1.823-3.942 2.394-5.906 5.824l-.491.873-1.31 1.62-1.164-.664a422 422 0 0 1 2.852-9.002zM992.298 707.993c1.621-2.937 3.387-7.014 6.206-8.475 1.178 3.562-2.569 8.383-4.491 11.378z"/><path fill="#fe3517" d="M979.498 659.781c33.062 7.849 71.972 40.599 99.102 41.346-3.1 6.298-5.03 13.697-9.66 18.721-34.29-2.705-69.199-27.953-98.053-45.093 3.131-5.294 4.262-10.198 8.611-14.974"/><path fill="#160b08" d="M1055.82 700.507c3.41.908 4.33 1.204 7.58 2.722 1.36 3.29-.57 8.753-1.89 12.115l-1.53-.219c-.51-3.793.13-2.81-1.88-5.228-2.3.721-3.01 1.04-5.38 1.179-.12-3.386 1.8-7.316 3.1-10.569M1029.47 688.706c.44.186.87.376 1.3.571 3.86 1.749 7.59 3.912 5.3 8.552-2.55 1.704-3.97 1.344-6.97 1.157-1.49.018-.3 1.171-3.9 1.103-1.01-3.394 2.19-7.451 4.27-11.383M986.294 667.491c5.593.316 5.982.913 8.895 4.968l-.343 1.469c-2.332-1.169-4.132-2.182-6.65-2.931 3.609 4.464 5.115 4.693 3.845 10.406-5.695.57-6.079-.078-9.471-3.869l.588-1.679-1.091.93.668-1.085 6.313 2.955.304-1.252c-4.187-4.777-4.697-3.889-3.058-9.912"/><path fill="#040303" d="M1042.71 695.013c2.45.794 6.69 2.1 8 4.284l-6.02-.405-.31 1.142c1.48 1.55 2.47 2.499 3.67 4.265l-5.85-1.053c-.42 1.376-.23 1.008.08 2.633 2.11 1.052 3.17 1.363 4.68 3.103l-.97.839c-3.84-.859-4.32-1.104-7.6-3.213-.19-3.071 2.85-8.497 4.32-11.595"/><path fill="#fe3517" d="M1074.99 680.969c.02 2.504-.21 4.045.97 6.233l-1.03 2.064c-7.51.456-25.01-2.609-24.96-12.144 2.36-2.976 6.48-4.047 10.16-4.266 24.2-1.438 46.69-1.313 69-12.294 18.78-9.243 15.24 3.364 20.89 15.035-11.66 5.797-52.17 19.034-64.79 20.244-3.24-3.446-3.9-4.235-8.09-6.29-1.26-1.829-1.73-6.189-2.15-8.582"/><path fill="#160b08" d="m1074.99 680.969-.32-2.184 1.46-1.177v-1.219c5.43 8.63-1.65 8.209 8.12 11.614-2.32 1.374-4.39 1.291-7.11 1.548-1.26-1.829-1.73-6.189-2.15-8.582M1097.35 673.932c2.21.097 3.07.324 5.24.817 4.77 4.769 4.37 8.663.05 13.129-2.58.153-3.52.458-5.74-.644-3.23-4.807-4.52-9.336.45-13.302M1127.8 665.896c1.08.207 2.16.78 3.19 1.233 1.33 5.192 3.68 5.995 3.91 9.313-3.48 1.255-.79-1.923-7.54-2.018l.47 4.474-.86.838-2.73-1.72c-2.03-3.16-2.05-3.671-2.23-7.373 1.43-3.461 1.51-2.592 5.79-4.747M1116.98 671.274c.62.589.37.582.57 1.821-2.38.902-3.7 1.158-5.43 3.046q3.18.59 6.36 1.12c-.9 1.665-3.27 3.032-4.9 4.182l1.09 1.094-.6-.802.89-.244 1.65 1.577c.93-.211 1.92-.37 2.86-.54l.9.256-1.3 1.286c-9.01 2.73-10.97.145-9.15-9.461 2.46-3.002 2.44-2.189 7.06-3.335"/><path fill="#040303" d="M1136.01 661.807c3.4 2.02 4.62 8.713 5.75 12.689l-2.18-.134c-2.91-3.594-3.48-8.081-3.57-12.555M1087.69 675.303l1.99 1.54c1.56 3.642 1.26 7.854 1.27 11.851l-2.11-.994c-1.54-3.282-1.15-8.589-1.15-12.397"/><path fill="#fe3517" d="M882.994 682.761c13.753 1.399 24.915 4.529 38.342 7.058 3.917.737 13.656-2.189 16.391-.971.594 4.846-1.377 14.613-2.239 19.883-19.982 2.398-34.769-5.229-52.311-4.912l6.458-10.629zM1156.34 666.155c4.11-.142 7.55-.429 11.61.309l.15.951-4.48 4.222c-.13 2.488 5.3 7.986 7.4 10.506-13.48 1.84-17.59 4.738-29.03 11.631-4.5 2.011-6.11 2.962-10.95 3.205l-.26-.512c2.03-4.765 19.18-13.737 24.41-16.787-1.93-2.938-4.17-5.77-4.78-9.176 1.67-3.229 1.82-2.463 5.93-4.349M1048.93 683.466c11.49 6.351 20.91 5.883 32.11 10.966.99.451.47 2.171.35 3.242-10.05 2.752-24.15-.541-31.83-7.779-1.62-1.529-.81-4.265-.63-6.429"/><path fill="#fe3517" d="M903.416 678.125c10.536-.923 22.042 1.036 31.276 6.263l.437 1.695c-8.79 3.091-14.105 1.612-23.306.39-3.634-2.879-5.308-4.855-8.407-8.348M1144.55 679.113c3.12-.284 3.6-.928 5.49.635-2.6 2.814-15.23 9.495-20.45 13.306-.52.707-1.38 1.173-2.14 1.699l-1.18-1.205c-.47-3.044-.67-3.629.41-6.478 3.74-2.837 13.02-6.073 17.87-7.957"/><path fill="#6a150b" d="M959.918 783.596c27.884-31.027 34.348-7.439 57.102 5.352l14.52.869c9.8-7.349 21.56-23.236 35.46-20.452 7.46 1.494 23.57 10.056 20.8 20.436-.57 2.137-.91 5.094-1.37 7.399 5.95-6.047 14.76-15.847 21.2-20.682.5-1.004-24.49 29.095-25.96 30.608a43.5 43.5 0 0 1-8.02 6.451c4.32 1.525 41.23-2.484 45.53-.777 6.21 1.122 9.49 1.273 15.7 1.511l-9.58 7.014 10.95 13.567c-23.59-6.506-52.06.947-75.93-1.112-26.03-2.246-19.19-28.332-50.41-12.506l-.42.179c-19.432 24.006-65.445 5.795-96.958 13.186 3.601-4.355 7.197-8.962 10.742-13.387l-9.29-6.855c6.06-.306 9.113-.493 15.184-1.72 5.65-1.206 38.433 2.268 45.842 1.084l.882-1.388a69 69 0 0 1-2.777-.889c-10.367-3.593-9.237-7.14-13.506-15.969l1.143-.501c.785-3.253-.288-7.97-.834-11.418"/><path fill="#fe3517" d="M917.699 815.191c11.117-.05 22.453-1.214 33.773-.881 12.931.38 23.72 2.394 36.619 1.368 9.771-.777 19.209-9.77 26.229-9.205 5.62 6.455-.43 9.303-4.41 14.801l-.42.179c-4.11 1.539-9.9 8.486-13.159 8.959-23.29 3.381-54.186.288-78.603.621l8.171-9.962z"/><path fill="#fe3517" d="M961.389 784.638c20.768-22.804 31.716-14.1 50.981 3.609l2.67 2.475-.23 12.245c-6.84 3.074-22.663 10.523-29.041 12.217-1.86-.593-8.378-2.838-9.877-2.811-6.716-4.266-14.36-8.752-7.43-17.964 3.253-.219 7.292 6.867 15.808 8.486 10.768 2.046 17.87-.374 28.67-1.406-2.76-1.443-12.55-6.751-14.226-8.61-9.859-10.941-36.287-8.452-34.309 9.493l-.283.385-.257-.57c-.652-5.828-1.166-11.848-2.476-17.549M1033.74 805.324c14.13 4.019 20.45 12.561 36.43 10.734 19.78-2.26 39.9-1.936 59.73-.851-2.35 1.949-3.46 2.778-5.37 5.27.19 3.984 1.35 4.173 4.2 8.029l.95 1.154-.25 1.249c-11.61.055-22.61.065-34.49.456-21.25.699-47.33 5.3-60.83-15.89-2.59-4.077-1.29-5.588-.37-10.151"/><path fill="#fe3517" d="M1061.43 770.11c11.76 1.614 16.69 5.355 24.87 13.342l-.71 15.668c-15.79-24.511-31.03-9.112-49.29 2.352 15.66 1.025 19.21 6.015 34.92-1.422 2.64-2.025 4.04-3.279 7.19-4.563 3.6.571 2.4-.103 4.7 2.331 1.7 10.449-12.64 14.766-19.85 17.285-8.85-2.252-20.72-8.194-29.32-12.156.11-3.825-.3-8.064-.58-11.916 8.42-8.431 17.08-16.215 28.07-20.921"/><path fill="#fe3517" d="M1018.22 791.299c18.49-2.568 15.48 10.543 11.04 23.148-3.35 1.027-4.31 1.541-7.72.364-6.26-4.557-6.43-17.578-3.32-23.512"/><path fill="#fff" d="M1060.87 788.096c5.57-.254 11.47-1.264 14.94 3.603l-.64 2.609c-4.64 5.463-8.86 6.179-15.67 8.364-4.92-.08-12.72-1.605-17.8-2.439 6.32-4.109 12.43-8.839 19.17-12.137M975.335 788.198c12.149-.637 19.816 2.56 29.305 10.823l.07 1.304-2.91.775c-8.396 1.812-25.786 1.134-29.7-7.762.559-3.491.219-2.354 3.235-5.14"/><path fill="#040303" d="M1126.97 502.134c-.04-7.883-1.08-18.19 4.24-23.821 3.95-1.652 3.1-1.065 7.95-.264 6.49 4.651 5.4 7.756 4.4 15.269 1.71 5.736 5.05 6.099 10.41 8.627l-.06 1.408c-2.41-1.046-8.74-4.211-10.86-3.781l-1.42 1.469c.94 5.922 8.1 3.035 3.74 9.598-6.34 4.352-16.31-1.519-14.05 11.076-2.24 7.699-15.03-1.837-21.5 4.473-.76-8.464 7.45-9.82.55-26.283l3.3-.134c3.66.456 10.18.957 13.3 2.363"/><path fill="#8c8c97" d="M1126.97 502.134c-.04-7.883-1.08-18.19 4.24-23.821 3.95-1.652 3.1-1.065 7.95-.264l-1 1.874c.02 7.574 1.25 16.791-3.36 22.531-1.87.673-2.95 1.046-4.88 1.493z"/><path fill="#3d3c3d" d="M1126.97 502.134c-.04-7.883-1.08-18.19 4.24-23.821 3.95-1.652 3.1-1.065 7.95-.264l-1 1.874c-4.1-1.206-2.86-1.518-6.03.084-3.96 6.311-3.62 16.871-2.21 23.94z"/><path fill="#8c8c97" d="M1113.67 499.771c3.66.456 10.18.957 13.3 2.363l2.95 1.813 1.6 1.623-1.35 1.026c-5.38.489-14.32 1.748-17.49-3.568z"/><path fill="#feb30f" d="M1023.68 340.541c1.8 1.085 8.78 14.385 11.08 17.986-.84 2.9-1.52 5.842-2.04 8.814-1.49 8.757-.85 13.138 4.2 20.237-7.47 7.253-8.72 9.215-12.22 18.777-1.13-.845-5.01-11.358-12.91-18.622 6.75-10.359 5.16-17.735 1.87-29.052 4.42-6.537 6.55-11.008 10.02-18.14M1021.27 730.915c30.49-.849-.46 19.658 17.46 36.204-6.47 3.587-9.28 5.225-13.49 11.281-.24.83-.21.535-.99 1.287-4.32-6.152-7.9-8.877-14.15-12.56 10.52-10.14 6.05-18.73.32-30.036 4.3-3.167 5.94-3.932 10.85-6.176"/><path fill="#040303" d="M1066.72 415.192c9.52-13.61 20.57-24.508 38.75-19.31l-.33 1.151-2.98.976c-3.81.894-7.55 1.304-10.28 3.998l-.28 1.665c8.23 6.499 13.18 1.751 15.53 13.014 3.54 1.073 3.3.422 5.39 2.867-1.78 3.367-5.08 3.457-8.09 5.644l-.75 4.236c-2.03.69-5.94 2.078-7.91 2.425l-4.59-.971c-1.75-3.696-2.06-6.327-2.81-10.326l-1.24.095c-2.66-1.534-3.09-1.748-4.93-4.185l.63-1.596 5.6-2.384.72-2.759c-1.28-2.208-1.63-2.509-3.53-4.225-6.13-1.236-12.1 5.646-18.9 9.685"/><path fill="#ebded9" d="M1088.37 420.561c4.29-5.99 9.22-3.849 14.86-.518 1.14 2.14 1.02 2.664 1.2 5.154l-.75 4.236c-2.03.69-5.94 2.078-7.91 2.425l-4.59-.971c-1.75-3.696-2.06-6.327-2.81-10.326"/><path fill="#040303" d="M1091.6 419.284c2.59 1.262 5.76 7.168 6.81 9.844-7.14-1.05-5.77-3.121-6.81-9.844"/><path fill="#040303" d="m1089.63 407.778 5.07.245c4.87 7.073-2.1 8.156 12.43 8.663 3.54 1.073 3.3.422 5.39 2.867-1.78 3.367-5.08 3.457-8.09 5.644-.18-2.49-.06-3.014-1.2-5.154-5.64-3.331-10.57-5.472-14.86.518l-1.24.095c-2.66-1.534-3.09-1.748-4.93-4.185l.63-1.596 5.6-2.384.72-2.759z"/><path fill="#b37b4d" d="M1089.63 407.778c.24-5.96-3.49-6.695.62-10.872 4.11-.569 7.83.358 11.91 1.103-3.81.894-7.55 1.304-10.28 3.998l-.28 1.665c8.23 6.499 13.18 1.751 15.53 13.014-14.53-.507-7.56-1.59-12.43-8.663z"/><path fill="#160b08" d="M1095.77 431.858c1.97-.347 5.88-1.735 7.91-2.425 3.82 1.468 5.1 1.781 9.13 2.521 3.9 1.56 8.91 4.018 10.62 7.923l-.47 2.61c-2.87-.182-4 .316-6.72 1.08l-2 2.068c-4.81-.102-5.52-1.63-9.03 1.828-.18-1.157-1.77-3.644-2.35-5.314l-.87-3.369-1.09-.531c-1.33 2.75-1.25 3.903-1.42 6.861-.26-4.989-.56-6.432-3.56-10.024l-1.05-.33-.49-1.439z"/><path fill="#ebded9" d="M1112.81 431.954c3.9 1.56 8.91 4.018 10.62 7.923l-.47 2.61c-2.87-.182-4 .316-6.72 1.08l-2 2.068c-4.81-.102-5.52-1.63-9.03 1.828-.18-1.157-1.77-3.644-2.35-5.314 7.5-5.489 7.8-.648 11.63-3.352l-3.16-5.251z"/><path fill="#040303" d="M1105.21 447.463c3.51-3.458 4.22-1.93 9.03-1.828l2-2.068c1.15.872 2.96 2.23 4.23 2.759 5.32 2.209 6.25 9.81 9.76 10.819 3.45-2.314 2.37-2.368 5.73-1.936l1.05 1.668c-.69 2.823-1.39 3.247-3.54 5.272-11.14 2.612-12.91-9.901-20.32-3.437-4.23-1.967-5.94-7.026-7.94-11.249M895.493 507.324c6.281-.861 6.496.853 11.029 5.335l-3.65 1.165c-5.08 1.223-6.805 1.435-10.383 5.445-.172 10.508-11.567 18.682-19.233 23.963 4.458-8.298 9.426-16.203 14.088-24.366 3.175-5.56 1.859-8.044 8.149-11.542"/><path fill="#42ad4a" d="M895.493 507.324c6.281-.861 6.496.853 11.029 5.335l-3.65 1.165c-5.08 1.223-6.805 1.435-10.383 5.445-.361-5.274.759-7.41 3.004-11.945"/><path fill="#564237" d="M1143.56 493.318c6.7 1.741 30.26 12.966 36.34 16.536l.38.275c.85 2.518.82 1.43-.55 4.369l-2.15.688c-5.23-1.119-12.12-5.707-16.94-8.547-2.1-.396-4.78-2.168-6.73-3.286l.06-1.408c-5.36-2.528-8.7-2.891-10.41-8.627"/><path fill="#160b08" d="M1160.64 506.639c6.74-.474 12.06 5.33 17.97 5.104l1.29-1.889.38.275c.85 2.518.82 1.43-.55 4.369l-2.15.688c-5.23-1.119-12.12-5.707-16.94-8.547"/><path fill="#040303" d="m1123.43 439.877 1.66 1.604c3.62-.713 9.03.935 9.54 5.222-3.28.224-8.46-2.692-11.67-4.216z"/>
    </g>
  </g>
</svg>