<svg xmlns="http://www.w3.org/2000/svg" width="660" height="440"><path fill="#002a86" d="M0 440h660V0H0z"/><g fill="#efae0e"><path d="m336.355 74.882 10.127-7.361-12.85.086-3.863-11.419-3.541 11.311H313.71l10.128 7.383-4.058 12.15 10.321-7.554 10.3 7.555-4.047-12.15m-91.865 29.272 9.933-7.727-12.7.538-4.24-11.408-3.486 11.602-12.345.549 9.977 7.081-3.347 12.065 10.127-7.921 10.493 7.189zm-55.393 85.323 12.86-1.011-10.87-6.62 2.766-11.794-9.201 7.931-10.87-6.457 4.972 11.44-9.75 8.255 12.699-1.087 4.638 11.87zm11.784 93.18 9.363-8.76-12.527 1.657-5.155-10.87-2.39 11.989-12.333 1.464 10.86 6.059-2.573 12.527 9.385-8.825 10.708 6.339zm64.778 65.434 2.206-12.527-9.352 8.932-10.676-5.693 5.489 10.956-9.03 8.653 12.344-1.657 5.338 11.58 2.379-12.689L276.872 354l-11.225-5.886"/><path d="m302.293 78.552-1.475-.732-1.463-.732-3.132-.355-2.95.183-2.388.55-2.95.73-2.4.173 3.692-2.023 4.779-2.745 4.789-3.325 1.657-1.657 1.292-1.475.925.183 1.087-.377.743-.538.549-.742.183-1.087-.183-1.12-.55-.925-.925-.549-1.108-.355-.915.194-.915.548-.732.915-.183 1.098.183.926.366.925.732.732-.183.172-2.938 2.583-3.498 2.4-3.691 2.013-3.864 2.023-7.91 3.315-7.92 2.4 1.474-.926 1.506-1.012 5.521-2.755 4.208-2.475 1.83-1.657 1.668-1.852 1.657-1.85 1.087-2.207 1.109-2.378.549-2.583-2.39.355-2.023.57-2.217.904-1.84 1.109-3.67 2.572-3.132 3.132-2.755 3.315-2.217 3.304-1.657 2.96-1.098 2.184-.355.387-.926-.387-.366-.71.172-1.109.366-1.291 1.109-3.132.915-3.293h.925l.915-.377.743-.743.366-.925v-.904l-.366-.926-.743-.732-.915-.376h-1.108l-.926.376-.538.732-.366.926-.183.904.366.742.366.538.743.55-.926 2.97-1.291 3.293-1.658 3.508-1.657 2.756-7.91 4.778-.183-.721v-1.109l.731-2.4.743-1.28 1.28-1.098 2.584-2.034.925-1.28.732-2.024.366-2.583v-3.68l-.549.925-1.108.742-2.756 1.82-2.948 2.206-1.281 1.313-1.109 1.635-.366 1.109.183 1.474.55 1.475.914 1.83.366 1.108v1.098l-.183 2.4-2.378 1.84-.743.549-.183.549.183.355.194.193 1.087.183 1.108-.538 2.938-1.85 2.4-.367h2.755l1.292.366 1.291.538 1.098.743.732 1.108-.549.926-.172.904.172 1.12.366.903.926.732 1.097.377 1.109-.183 1.098-.549.742-.926.355-1.097-.172-1.109-.549-.925-.742-.71-.915-.388h-1.109l-.914.387-1.658-1.668-1.84-1.28-2.023-.55-2.024-.182 3.67-2.207 2.023-.376 1.852.183 2.023.376 2.023.904 2.766 1.669 3.498 1.463 1.84.55 1.84.193h2.024l1.84-.55 3.132-1.301 1.098-.355h1.28l-.914-1.292-1.658-1.485-3.304-2.927-2.206-.926-2.4-.377-2.39.194-2.023.732-2.583 1.098-2.582.753-2.39.355-2.206-.549 3.315-1.657 2.572-1.28 8.653-2.939 2.217.162 2.39.925 2.195 1.098 2.034 1.463 3.12 1.669 3.132.925 3.315.377 3.315-.377 2.949-.925 2.744-1.281 2.4-1.851 1.658-2.206-2.217.183-2.39-.356-2.389-.731-2.206-1.292m-79.522 45.47-1.658.194-1.657.377-2.583 1.657-2.195 1.83-1.658 2.023-1.84 2.39-1.84 1.474 1.657-3.68 2.206-5.339 1.647-5.338.366-2.4v-1.83l.925-.538.55-.925.376-.926v-.925l-.56-1.098-.732-.732-1.097-.355-1.098.161-.926.377-.732.926-.376.904v1.119l.376.925.732.71.926.377 1.098.173v.193l-.915 3.864-1.292 4.057-1.657 4.036-1.84 3.885-4.24 7.523-4.596 6.651 1.28-3.68 2.583-5.532 1.658-4.22.366-2.4.366-2.582v-2.4l-.366-2.561-.732-2.4-1.109-2.4-1.474 1.668-1.474 1.85-1.087 1.82-.926 2.023-1.291 4.413-.55 4.434v4.23l.184 3.863.56 3.325.537 2.562-.172.549-.925.183-.732-.377-.56-.904-.549-1.302-.914-3.132-1.292-3.132.732-.549.366-.925.194-.904-.194-.915-.732-.743-.732-.549-1.098-.161-.925.355-.732.549-.549.925-.183.904.366.926.549.732.549.549.742.183h.915l1.098 2.755.926 3.508.914 3.681.183 3.304-3.132 8.653-.731-.538-.538-.926-.926-2.206-.183-1.668.366-1.636.743-3.132v-1.474l-.743-2.034-1.292-2.379-2.206-2.96v1.109l-.366 1.28-.925 3.133-1.098 3.68-.172 1.851.172 1.83.366 1.098.925 1.108 1.464.926 1.84.732.926.548.732.926 1.291 2.023-.914 2.938v.926l.182.549.183.183h.366l.915-.56.732-1.098 1.108-3.304 1.475-1.657 2.39-1.657 1.29-.55 1.281-.376h1.292L204 159v.925l.538.926.743.71.915.549h1.291l.915-.355.926-.904.365-.926.183-1.302-.548-.904-.732-.926-1.109-.548h-.925l-1.087.355-.743.549-.549.925-2.206-.355-2.206.172-2.034.732-1.658 1.109 1.475-4.058 1.291-1.28 1.658-1.109 1.84-.904 2.206-.57 3.132-.356 3.67-.925 1.84-.732 1.658-1.098 1.474-1.119 1.108-1.636 1.658-2.777.732-.904.915-.925-1.475-.377-2.195-.355-4.424-.194-2.206.55-2.217 1.301-1.84 1.647-1.098 1.657-1.28 2.562-1.658 2.228-1.658 1.453-2.023 1.119 1.475-3.326 1.28-2.561 4.972-7.738 2.024-1.12 2.066-.817 2.895-.463 2.217-.162 3.498-.57 3.132-1.098 2.755-1.83 2.4-2.227 2.023-2.561 1.292-2.756.72-2.755v-2.96l-1.646 1.658-2.023 1.098-2.4.925-2.572.377m-35.73 85.043-1.291 1.098-.915 1.302-1.292 2.938-.549 2.755v5.532l-.549 2.4-.914-4.057-1.475-5.338-2.023-5.328-1.109-2.227-1.097-1.658.366-.904v-.925l-.366-.926-.56-.732-1.087-.549h-1.108l-.926.194-.915.732-.549.925v1.098l.366 1.087.732.754.743.548 1.097.173.915-.173.915-.731v.355l1.657 3.68 1.475 3.864 1.108 4.057.915 4.23 1.109 8.653.366 8.093-.883-1.55-.549-2.045-.958-5.962-1.291-4.412-1.098-2.228-1.28-2.196-1.475-2.034-1.84-1.636-2.024-1.668-2.217-1.108-.366 2.228v2.184l.732 4.413 1.658 4.25 2.217 3.865 2.561 3.486 2.583 2.95 2.39 2.389 2.023 1.668v.538l-.55.742-.72.183-1.109-.376-1.108-.732-2.573-2.023-1.474-.926-1.474-.732.183-.925-.183-1.087-.539-.743-.742-.549-.915-.377-.925.194-.915.55-.56.73-.366.926.183 1.087.56.743.732.732.731.194h.915l.732-.377.56-.549 2.572 1.657 2.949 2.207 2.949 2.4 2.206 2.4 2.561 8.825h-.732l-1.097-.356-2.024-1.302-1.097-1.097-.743-1.475-1.291-2.938-1.098-1.302-1.647-1.098-2.4-1.302-3.498-.71.55.71.548 1.302 1.109 3.132 1.28 3.487.926 1.668 1.291 1.28 1.087.732 1.292.194h1.657l2.024-.742h1.108l1.109.366 2.206.731 1.087 2.96.56.721.365.377h.366l.366-.377.377-.926-.194-1.28-1.098-3.11.366-2.4.732-2.756.56-1.302.915-.925 1.108-.904 1.098-.377.732.732.925.355 1.098.194.926-.194.914-.71.743-.926.183-1.087-.366-1.12-.56-1.108-1.097-.549-1.109-.172-1.108.355-.915.55-.538.731-.194 1.098v.925l-2.023 1.12-1.658 1.463-1.097 1.851-.743 1.83-1.087-4.057.172-2.013.732-1.851.926-1.647 1.28-1.85 2.4-2.207 2.206-2.938 1.109-1.657.732-1.83.366-1.851v-2.023l-.366-3.315-.183-1.098.366-1.302-1.475.753-2.023 1.098-3.498 2.4-1.474 1.83-.915 2.206-.56 2.389.194 2.206.55 2.777v2.561l-.367 2.4-1.108 2.024-1.292-6.436-.732-9.019.915-2.228 1.475-2.012 1.657-1.83 1.84-1.668 2.4-2.39 1.84-2.948 1.088-3.132.56-3.132v-3.11l-.743-3.132-1.087-2.583-1.658-2.378-.376 2.184-.915 2.207-1.292 2.228zm23.752 89.293-.366 1.668.183 1.464.55 3.132 1.28 2.583 1.474 2.023 1.84 2.583.915 2.023-3.12-2.593-4.413-3.487-4.79-3.132-2.023-.926-2.023-.538-.183-1.098-.56-.753-.914-.549-.926-.172-1.098.172-.914.55-.732.925-.183 1.108.183 1.12.538.71.925.732 1.098.193.926-.193.914-.356.56-.731.366-1.12.366.194 3.498 1.851 3.497 2.368 3.304 2.594 3.315 2.938 6.07 6.08 5.166 6.264-1.808-.829-1.507-1.377-4.412-4.058-3.864-2.755-2.023-1.12-2.4-.925-2.39-.549-2.4-.355h-2.572l-2.583.355 1.109 2.045 2.949 3.304 1.657 1.464 3.864 2.4 4.046 1.851 4.058 1.087 3.853.926 3.314.376 2.573.172.56.377v.926l-.56.549-1.098.355h-1.292l-3.314.193-3.487.356-.366-.926-.56-.71-.915-.388h-.925l-1.098.388-.56.71-.366.926-.172.925.538 1.109.56.549.915.355 1.108.193.732-.376.56-.55.538-.548.183-.926 2.949-.161h3.68l3.864.161 3.132.57 7.35 5.339-.538.549-1.108.355-2.39.355-1.657-.355-1.474-.732-2.755-1.474-1.475-.355h-2.217l-2.561.548-3.315 1.281.915.355 1.108.55 2.755 2.033 3.315 1.851 1.658.721 1.84.377h1.291l1.098-.743 1.292-1.108 1.28-1.647.915-.538.926-.57 2.389-.55 2.583 1.475.732.377h.56l.365-.194.183-.355-.377-1.108-.914-.904-2.766-1.851-1.28-2.045-.926-2.562-.183-1.474v-1.28l.366-1.303.742-1.087.915.183 1.108-.183.915-.549.55-.925.365-1.098v-1.109l-.549-.925-.915-.721-1.108-.377h-1.098l-1.108.549-.732.925-.366 1.098.172.926.377.914.732.743-1.109 2.013-.366 2.206v2.217l.743 1.84-3.498-2.583-.926-1.636-.538-1.85-.366-2.024.183-2.034.355-3.326v-3.67l-.172-2.023-.366-1.83-.925-1.85-1.109-1.464-2.389-2.4-.732-.926-.376-1.097-.915 1.302-.926 2.023-1.28 4.23-.183 2.206.742 2.39.904 2.205 1.475 1.669 2.023 2.012 1.657 2.023 1.109 2.228.366 2.013-2.755-2.228-2.034-2.013-6.07-6.812-.743-2.206v-2.562l.194-2.593.549-2.368.549-3.326-.366-3.487-.926-3.131-1.464-2.777-2.034-2.562-2.389-2.023-2.39-1.474-2.765-.754 1.109 2.045.548 2.206.183 2.562-.366 2.583m127.231 83.009h3.864l2.217-.549 2.023-1.087v-.377l-.365-.549-2.583-.925-3.864-1.475-2.217-1.087-2.39-1.291-3.497-1.84-2.39-.721-1.657-.57-.925-.539-1.087-1.12-2.023-2.937-1.475-3.68-.194-1.658v-1.475l.926-.355.743-.742.538-.926.183-.904-.377-1.109-.538-.925-.915-.732-1.291-.172-1.098.355-.926.732-.56.925-.172 1.098.173 1.12.56.731.925.732.915.172.183 2.938.731 3.681 1.098 3.132.743 1.302.732.721-4.24-.366-1.647-.925-1.464-1.281-1.474-1.464-.926-2.023-1.291-2.938-2.024-3.326-1.098-1.474-1.474-1.302-1.474-1.087-1.84-.721-3.315-.754-.926-.549-1.087-.731v1.657l.355 2.206.926 4.23 1.097 2.034 1.84 1.83 2.024 1.28 2.034.549 2.755.57 2.4 1.087 2.024 1.12 1.657 1.636-3.68-.55-2.767-.537-8.835-2.756-1.658-1.474-1.28-2.228-1.109-2.185-.915-2.206-1.291-3.325-2.024-2.583-2.583-2.206-2.755-1.83-2.948-1.098-2.939-.56-2.948.184-2.766.742 1.84 1.087 1.84 1.668 1.475 2.013.925 2.4.732 1.657.743 1.28 2.206 2.207 2.561 1.668 2.217.915 2.756 1.098 2.034 1.474-4.391-.635-5.37-.646-5.522-.193-2.4.193-2.012.539-.732-.732-.926-.355h-.925l-.915.355-.915.732-.376.925-.183 1.12.366.903.742.926.915.549h1.108l1.098-.366.732-.538.549-.926.194-1.119-.377-.904h.377l4.046-.183 4.047.183 4.24.355 4.413.743 8.276 2.206 7.738 2.561-3.875-.172-6.07-1.087-4.606-.376-2.378.161-2.4.377-2.39.742-2.4.926-2.206 1.28-1.84 1.658 2.023 1.098 2.024.925 2.217.538 2.206.388h4.423l4.413-.55 4.23-1.118 3.68-1.281 2.949-1.475 2.389-1.108h.549l.549.926-.172.731-.743.743-1.109.925-2.938 1.658-1.291.904-1.292 1.108-.731-.56-.915-.171-1.098.172-.743.56-.548.742-.366.926.183 1.087.549.742.731.732.926.194 1.098-.194.731-.549.55-.549.376-.753v-.904l-.194-.732 2.4-1.851 3.132-1.83 3.304-1.85 2.949-1.099h2.583l2.39.55 2.195.548 2.217.355 1.291.194 1.464.57 2.949 1.82 2.766 2.023 2.389 2.206m77.52-276.891-9.761-7.716 12.527.355 4.219-11.225 3.497 11.58 12.528.549-10.3 6.812 3.487 12.334-10.116-7.9-10.493 6.996zm55.048 85.248-12.516-1.109 10.86-6.435-2.756-11.785 9.385 7.92 10.687-6.456-4.79 11.418 9.751 8.276-12.882-1.086-4.79 11.601zm-11.601 93.168-9.203-8.663 12.334 1.657 5.155-11.053 2.583 11.957 12.516 1.668-11.042 6.07 2.562 12.528-9.374-8.847-11.053 6.07zm-64.616 65.349-2.207-12.345 9.02 8.858 10.858-5.726-5.155 11.064 8.6 8.642-12.334-1.668-5.102 11.44-2.389-12.527-12.527-1.668z"/><path d="m357.718 78.94 1.475-.926 1.463-.549 3.132-.377 2.949.183 2.39.55 2.937.731h2.39l-3.67-1.819-4.79-2.776-4.595-3.304-1.84-1.658-1.292-1.474h-.926l-.914-.194-.926-.538-.538-.926-.183-1.097.183-.926.538-.925.926-.732 1.108-.172 1.098.172.925.57.55.904.182 1.109v.904l-.549.925-.742.55.194.182 3.12 2.594 3.305 2.367 3.68 2.207 3.875 2.045 8.093 3.325 7.738 2.368-1.475-1.087-1.84-1.098-5.338-2.583-4.057-2.583-1.84-1.474-1.636-1.83-1.475-2.034-1.291-2.023-.926-2.4-.549-2.583 2.206.377 2.207.548 2.034.732 2.023 1.12 3.67 2.755 3.132 3.11 2.572 3.315 2.217 3.132 1.647 2.948 1.097 2.4.55.162.925-.355.183-.732v-.926l-.366-1.28-1.292-3.11-.914-3.326h-.926l-.915-.355-.549-.765-.366-.904v-.925l.366-.915.55-.743 1.097-.355h.926l.914.355.743.743.366.915v.742l-.183.926-.56.549-.549.538.743 2.949 1.464 3.293 1.474 3.52 1.84 2.744 7.738 4.8.183-.926v-.904l-.742-2.421-.732-1.26-1.292-1.108-2.389-2.023-.915-1.303-.914-2.023-.366-2.744v-3.52l.72.743.926.926 2.756 1.83 3.131 2.205 1.292 1.303.925 1.636.366 1.119v1.463l-.56 1.475-1.097 1.851-.366.904v1.302l.366 2.206 2.39 1.83.548.732.194.549v.376l-.377.173-1.098.193-1.108-.549-2.766-1.85-2.39-.356h-2.754l-1.464.355-1.292.55-1.108.753-.732 1.097.549.915.183.904v1.12l-.549.925-.926.732-1.097.172h-1.109l-1.098-.549-.731-.925-.183-1.087v-1.098l.549-1.109.925-.549.915-.355h.925l1.087.355 1.475-1.668 1.84-1.28 2.034-.732h2.024l-3.681-2.4-1.84-.183-2.024.183-2.023.377-1.84.904-2.95 1.668-3.314 1.463-2.023.55-1.84.193h-2.024l-1.84-.549-2.95-1.302-1.097-.355h-1.291l.914-1.281 1.658-1.668 3.315-2.755 2.023-.915 2.4-.366 2.572.172 1.84.732 2.583 1.12 2.562.731 2.4.172 2.206-.355-3.315-1.83-2.561-1.119-8.47-2.938-2.4.162-2.39.925-2.206 1.098-2.023 1.302-2.949 1.83-3.314.925-3.315.183-3.121-.183-3.132-.925-2.766-1.453-2.206-1.679-1.84-2.185 2.389.162 2.217-.355 2.389-.732 2.217-1.281m79.522 45.482 1.84.193 1.475.355 2.755 1.496 2.206 2.013 1.475 2.023 1.84 2.389 1.84 1.474-1.657-3.863-2.023-5.155-1.84-5.338-.367-2.4v-2.013l-.915-.549-.56-.732-.365-.925.183-.926.377-1.097.914-.732.915-.377h1.098l1.108.549.732.732.366 1.108-.172 1.098-.377.926-.732.731-.925.366h-.915v.377l.915 3.864 1.108 4.035 1.658 3.886 1.84 4.035 4.23 7.362 4.789 6.812-1.292-3.68-2.755-5.51-1.474-4.435-.549-2.378-.366-2.39v-2.4l.366-2.582.732-2.4 1.108-2.368 1.647 1.657 1.28 1.83 1.11 1.851.925 2.013 1.291 4.412.55 4.413.182 4.25-.366 3.843-.366 3.325-.742 2.562.366.57.925.172.732-.365.538-.926.377-1.28.914-3.133 1.292-3.131-.732-.732-.377-.732-.172-.926.355-.904.56-.925.915-.355.925-.194.915.194.926.71.366.753.183 1.098-.183.926-.55.71-.742.377-.732.376-.72-.183-1.11 2.938-1.108 3.498-.732 3.692-.376 3.304 3.132 8.47.742-.377.549-.904.926-2.4.172-1.464-.172-1.668-.743-3.132v-1.636l.549-2.044 1.28-2.39 2.218-2.755v1.087l.365 1.313 1.109 3.132.915 3.487.183 2.012v1.852l-.55 1.097-.925 1.109-1.28.742-2.034.904-.732.56-.926.904-1.087 2.045.721 2.938v1.28l-.366.388h-.355l-.925-.549-.55-1.119-1.108-3.315-1.657-1.646-2.206-1.658-1.281-.732-1.292-.193-1.474-.194-1.28.57v.904l-.367.926-.742.732-1.098.387-1.108.183-1.098-.57-.732-.732-.549-1.087v-1.098l.366-1.119.732-.732 1.108-.549h1.098l.915.366.732.56.56.904 2.389-.355 2.217.172 2.023.753 1.636 1.098-1.636-4.057-1.292-1.292-1.657-1.302-1.84-.71-2.024-.55-3.314-.376-3.498-1.098-1.84-.753-1.658-.904-1.464-1.109-1.291-1.646-1.657-2.96-.55-.904-1.108-.732 1.475-.387 2.389-.355 4.24-.183 2.39.538 2.023 1.313 1.85 1.636 1.282 1.657 1.291 2.583 1.474 2.023 1.83 1.658 1.84 1.097-1.474-3.486-1.28-2.4-4.962-7.738-2.034-1.281-2.39-.732-2.389-.387-2.4-.162-3.497-.549-3.132-1.108-2.766-1.83-2.39-2.228-1.84-2.572-1.28-2.755-.732-2.938v-2.777l1.657 1.475 2.024 1.302 2.389.904 2.389.377m35.903 84.859 1.108 1.282.915 1.28 1.28 2.777.55 2.938.183 2.572v2.96l.548 2.184.926-3.842 1.474-5.531 1.84-5.338 1.088-2.035 1.108-1.646-.366-.926v-.925l.366-.904.743-.926.915-.377 1.108-.16 1.098.354.732.732.549.926v1.097l-.183 1.109-.721.742-.926.539-.915.172-1.108-.355-.732-.55-.194.194-1.657 3.67-1.464 4.036-1.098 4.058-.914 4.23-1.109 8.663-.377 8.093.743-1.647.549-2.034 1.28-5.887 1.292-4.606.915-2.206 1.291-2.013 1.658-2.023 1.657-1.851 2.023-1.464 2.4-1.291.173 2.4v2.206l-.173 2.185-.56 2.227-1.657 4.23-2.206 3.864-2.39 3.487-2.582 2.948-2.39 2.4-2.033 1.464-.173.743.55.732h.914l.926-.356 1.097-.742 2.766-1.84 1.475-1.098 1.474-.732-.366-.926.183-.925.55-.743.72-.538.926-.387 1.108.215.732.355.743.904.183.926-.183.925-.377.926-.915.549-.742.355h-.732l-.743-.355-.72-.55-2.573 1.658-2.949 2.206-2.766 2.379-2.39 2.4-2.582 8.846h.926l.914-.376 2.217-1.281.915-1.12.926-1.452 1.087-2.96 1.108-1.28 1.658-1.281 2.583-1.12 3.497-.731-.742.731-.55 1.303-.925 3.11-1.463 3.52-.915 1.463-1.292 1.474-.925.55-1.464.376-1.657-.194-2.034-.538h-.915l-1.292.161-2.206.926-1.098 2.949-.366.538-.548.377h-.366l-.377-.183-.366-.904.183-1.303 1.109-3.304-.183-2.227-.743-2.755-.732-1.281-.925-1.087-.915-.743-1.292-.549-.731.904-.926.388-.904.183-1.109-.377-.925-.549-.549-.925-.183-1.281.183-1.109.743-.925.914-.549 1.109-.172 1.087.172.925.732.55.742.376 1.109-.194.904 2.034 1.12 1.658 1.463 1.097 1.851.743 1.83 1.28-4.22-.365-1.85-.549-1.851-.926-1.83-1.474-1.657-2.206-2.207-2.39-2.948-.925-1.83-.732-1.657-.549-1.851v-2.013l.55-3.326v-1.097l-.378-1.281 1.475.549 2.023 1.12 3.509 2.56 1.474 1.83 1.098 2.206.366 2.39-.183 2.044-.366 2.939-.183 2.572.549 2.389.742 2.023.915-3.68.55-2.756.742-9.018-.926-2.207-1.474-2.034-1.647-2.023-1.84-1.474-2.4-2.562-1.84-2.776-1.11-3.132-.537-3.11.172-3.315.56-2.95 1.097-2.754 1.658-2.207.549 2.207.731 2.217 1.475 2.012 1.84 1.851m-23.73 89.273.182 1.657v1.658l-.731 3.11-1.292 2.594-1.474 2.012-1.84 2.4-.926 2.207 3.132-2.562 4.423-3.52 4.79-3.13 2.195-1.088 1.84-.549.366-.925.549-.732.742-.55 1.109-.193 1.087.194.925.549.55.732.182 1.097-.183 1.109-.549.925-.925.743-.904.161-1.109-.16-.925-.571-.55-.721-.365-.926-.183.172-3.498 1.851-3.497 2.4-3.498 2.562-3.304 2.776-5.898 6.242-5.338 6.264 3.315-2.206 4.606-4.058 3.67-2.755 2.206-1.119 2.217-.904 2.39-.732 2.572-.376h2.4l2.583.548-1.109 1.852-1.291 1.84-1.658 1.646-1.657 1.475-3.853 2.39-4.047 1.656-4.057 1.292-3.864.926-3.314.355h-2.583l-.366.56v.903l.549.55.925.376h4.779l3.314.366.366-.743.732-.732.926-.355h.925l.915.355.743.732.365.926v.925l-.365.926-.743.71-.915.388h-.925l-.926-.194-.549-.549-.366-.732-.172-.732-3.132-.366h-3.68l-3.681.366-3.315.56-7.361 5.338.732.549.925.355 2.572.194 1.475-.194 1.474-.732 2.755-1.657 1.658-.366h2.023l2.755.743 3.315 1.28-1.098.377-1.098.549-2.765 1.85-3.132 2.013-1.84.743-1.658.355-1.27-.194-1.291-.538-1.292-1.097-1.291-1.658-.732-.549-1.109-.549-2.206-.57-2.755 1.496-.732.355h-.56l-.365-.183v-.366l.183-1.108.925-.904 2.755-1.851 1.292-2.013.914-2.755.366-1.302v-1.453l-.366-1.302-.731-1.098-1.098.172-.926-.172-.925-.377-.732-.925-.366-1.087.183-1.12.549-.904.742-.925 1.087-.183h1.292l.925.538.732.926.377.925v1.098l-.377.925-.732.732.915 2.024.55 2.206-.173 2.206-.743 1.851 3.498-2.594.926-1.635.731-1.852.183-2.012v-2.206l-.366-3.132-.182-3.875.182-1.85.55-1.83.742-1.851 1.087-1.442 2.4-2.4.732-.926.549-1.28.742 1.474.926 2.012 1.463 4.23v2.228l-.548 2.378-1.109 2.206-1.28 1.658-2.218 1.83-1.71 2.227-1.099 2.206-.301 2.013 2.938-2.39 2.023-1.829 6.081-6.812.549-2.4v-2.39l-.183-2.593-.549-2.39-.366-3.486.183-3.326 1.098-3.11 1.474-2.96 1.83-2.378 2.4-2.045 2.572-1.464 2.583-.925-.926 2.034-.731 2.4v2.378zm-127.404 83.031-1.657.183h-2.217l-2.206-.55-1.83-1.302-.183-.355.538-.355 2.4-.925 3.864-1.475 2.4-1.108 2.206-1.475 3.68-1.636 2.207-.925 1.647-.377 1.108-.549.915-1.097 2.034-3.132 1.464-3.509.366-1.636-.173-1.474-.925-.377-.732-.732-.549-.925-.183-1.098.366-1.098.743-.925.914-.538 1.098-.194 1.098.377.925.549.55 1.097.193 1.109-.194 1.098-.549.731-.925.732-.915.194-.183 2.938-.549 3.498-1.28 3.315-.55 1.28-.925.743 4.413-.377 1.668-.904 1.463-1.302 1.292-1.647 1.098-1.85 1.28-2.939 1.84-3.325 1.11-1.464 1.474-1.453 1.657-.926 1.647-.742 3.314-.915 1.098-.387 1.109-.732-.183 1.657-.183 2.206-1.109 4.23-1.087 2.034-1.657 1.647-2.217 1.485-1.84.549-2.756.549-2.582.925-2.024 1.28-1.474 1.658 3.68-.538 2.766-.549 8.653-2.776 1.658-1.658 1.474-2.023 1.087-2.206.743-2.39 1.474-3.142 2.023-2.745 2.39-2.206 2.765-1.668 2.95-1.087 3.131-.549 2.938.183 2.583.721-1.84 1.109-1.658 1.646-1.474 2.034-1.109 2.4-.548 1.475-.926 1.464-2.195 2.206-2.39 1.474-2.4 1.12-2.755 1.086-1.85 1.281 4.056-.538 5.521-.549 5.715-.194 2.39.194 1.84.549.72-.743.926-.376h.926l1.098.193.732.732.56 1.098v1.109l-.367.925-.742.926-.915.355-1.109.194-1.108-.377-.721-.743-.366-.732-.183-1.097.183-.926h-.183l-4.057-.183h-4.23l-4.24.55-4.23.752-8.459 2.013-7.738 2.755 4.047-.183 5.886-1.098 4.607-.355 2.389.162 2.583.387 2.39.538 2.205 1.098 2.217 1.302 2.024 1.636-2.024 1.12-2.217.925-2.023.549-2.206.355H365.8l-4.413-.549-4.057-1.108-3.67-1.292-3.132-1.464-2.206-1.28-.55.183-.559.72.194.916.732.742 1.108.732 2.755 1.851 1.475.904 1.291 1.12.721-.55.926-.193.915.193.925.55.55.731-.152 1.012.151.818-.366.925-.915.57-.925.356-.926-.194-.914-.549-.539-.538-.193-.925v-.743l.193-.71-2.4-1.851-3.131-2.034-3.315-1.647-3.132-1.109h-2.572l-2.379.539-2.217.548-2.023.194-1.474.355-1.292.57-2.938 1.658-2.949 2.206-2.389 2.024"/></g><g fill="#efae0e"><path d="m286.778 317.083-4.657-1.994 2.55 4.41-3.429 3.927 5.065-1.13 2.666 4.608.506-5.338 5.152-1.138-4.872-2.09.494-5.227zm86.502.09 4.657-1.99-2.548 4.401 3.43 3.931-5.067-1.134-2.67 4.617-.503-5.345-5.147-1.138 4.863-2.088-.486-5.23zM329.699 109.99a1.935 1.935 0 0 0-1.933 1.935c0 1.072.863 1.938 1.933 1.938a1.936 1.936 0 0 0 0-3.873m-81.323 37.515a1.94 1.94 0 0 0-1.937 1.938 1.934 1.934 0 1 0 3.87 0 1.936 1.936 0 0 0-1.933-1.938m-24.837 52.303a1.938 1.938 0 0 0 0 3.875 1.937 1.937 0 0 0 0-3.875m3.002 49.295a1.933 1.933 0 0 0-1.926 1.937c0 1.07.86 1.94 1.926 1.94a1.94 1.94 0 0 0 1.937-1.94 1.937 1.937 0 0 0-1.937-1.937m153.096-127.318a1.94 1.94 0 0 1 1.933 1.938 1.935 1.935 0 1 1-1.933-1.938m-76.684 200.342-2.455-.659.375-1.402q.98.219 1.396.236c.431.018.827-.076 1.155-.283.229-.14.427-.356.604-.644.107-.17.166-.307.194-.399l1.708.46-2.79 10.49-2.1-.564zm21.454-.11-.064 1.672c-.335.302-.799.843-1.402 1.624a15 15 0 0 0-1.52 2.438c-.334.658-.646 1.47-.921 2.433-.292.964-.444 1.754-.466 2.378l-2.208-.09c.138-1.944.86-3.943 2.157-5.988.837-1.269 1.525-2.151 2.079-2.643l-5.391-.224.107-1.917zm16.832.228v1.671q-.479.475-1.328 1.681a15.5 15.5 0 0 0-1.424 2.494c-.306.677-.572 1.503-.82 2.472-.248.976-.376 1.775-.376 2.397h-2.208c.069-1.945.703-3.968 1.914-6.074.784-1.3 1.438-2.21 1.957-2.72h-5.391l.032-1.922h7.644m15.359-2.134c-.647-.45-1.47-.63-2.47-.53-.7.071-1.272.292-1.739.662a3.7 3.7 0 0 0-1.081 1.38c-.292.651-.452 1.438-.487 2.369-.016.525.02 1.197.098 2.027q.216 2.104 1.108 3.362c.746 1.07 1.805 1.54 3.174 1.397 1.259-.128 2.144-.61 2.669-1.441.527-.828.725-1.746.632-2.755-.1-1.012-.494-1.813-1.167-2.405-.687-.585-1.497-.834-2.45-.734a3 3 0 0 0-1.162.338c-.335.179-.61.439-.85.776q-.033-1.26.139-1.923.316-1.207 1.347-1.313c.458-.047.825.085 1.084.399.152.2.24.386.253.559l2.107-.218q-.236-1.274-1.205-1.95m-95.932-19.06-1.47-1.628q.488-.584.549-1.066c.079-.581-.177-1.21-.792-1.88q-.547-.6-1.015-.86c-.602-.317-1.136-.268-1.594.155a.96.96 0 0 0-.306.92c.076.367.283.853.632 1.463l.59 1.04c.587 1.023.907 1.8.99 2.33q.173 1.336-1.009 2.434c-.733.665-1.576.951-2.542.862q-1.456-.133-2.852-1.68c-.787-.853-1.222-1.796-1.32-2.82q-.142-1.534 1.111-2.762l1.491 1.637c-.458.477-.618 1.008-.458 1.597.098.387.335.781.697 1.167q.591.663 1.214.812a1.14 1.14 0 0 0 1.098-.285q.436-.398.297-.98c-.05-.256-.26-.71-.632-1.372l-.938-1.712q-.618-1.124-.687-1.936-.087-1.253 1-2.246c.74-.681 1.62-.96 2.63-.841 1.004.12 1.984.703 2.928 1.74.967 1.063 1.48 2.118 1.556 3.171q.102 1.576-1.168 2.74M243.123 285.978l1.471-1.23 3.415 4.122 2.172-1.806-3.887-4.705 1.52-1.268 5.33 6.436-8.467 7.052-5.152-6.227 1.501-1.252 3.72 4.495 1.793-1.5zm-3.513-17.327-7.22 9.193 1.381 2.206 11.396-2.562-1.282-2.039-2.318.563-2.165-3.437 1.54-1.812zm-6.665-10.555 1.817-.78 3.041 7.15-10.111 4.334-.904-2.117 8.294-3.561zm-1.096-67.744-.549 2.254-8.792-2.139-.778 3.224-1.897-.463 2.097-8.685 1.897.46-.778 3.205zm-2.652-12.477 1.692-3.966-3.858-1.649.898-2.106 10.111 4.332-.893 2.113-4.514-1.938-1.694 3.968 4.514 1.934-.891 2.102-10.118-4.338.902-2.102zm10.057-18.664 1.612 1.027-2.866 4.525 2.38 1.522 3.27-5.155 1.671 1.07-4.477 7.053-9.279-5.927 4.332-6.829 1.645 1.049-3.124 4.928 1.965 1.258zm18.431-16.194 1.599-1.509c.39.317.755.496 1.068.541.58.071 1.205-.201 1.868-.825.393-.372.678-.72.838-1.039.312-.606.251-1.14-.178-1.592q-.365-.403-.918-.289c-.375.077-.847.295-1.45.655l-1.03.612c-1.005.596-1.777.937-2.303 1.016-.885.137-1.692-.184-2.433-.976-.682-.717-.98-1.565-.901-2.532q.114-1.454 1.63-2.879 1.265-1.2 2.793-1.368 1.52-.172 2.767 1.067l-1.609 1.519c-.488-.455-1.006-.6-1.598-.435-.393.116-.778.35-1.163.72-.425.406-.699.817-.786 1.236q-.136.629.298 1.093.404.43.984.287.376-.09 1.355-.657l1.694-.97q1.099-.637 1.922-.71c.83-.072 1.585.248 2.25.965.692.73.98 1.606.87 2.618-.093 1.014-.67 2.006-1.685 2.97-1.04.984-2.089 1.523-3.132 1.608q-1.568.128-2.75-1.126m18.45-10.494-1.937 1.27-4.964-7.594-2.765 1.817-1.067-1.634 7.447-4.904 1.07 1.636-2.748 1.81zm15.615-8.163-8.182-8.346-2.354 1.101 1.095 11.667 2.175-1.02-.266-2.378 3.673-1.72 1.594 1.754zm10.322-3.21-2.228.625-2.43-8.75-3.186.895-.52-1.887 8.577-2.403.525 1.889-3.17.88zm14.791-9.782.286 1.89-5.276.814.422 2.804 6.016-.924.302 1.96-8.24 1.259-1.66-10.909 7.982-1.222.288 1.931-5.756.88.353 2.32zm29.487-4.088c-1.57-.05-2.776.342-3.644 1.17-1.15.977-1.75 2.477-1.814 4.498-.068 1.98.444 3.516 1.526 4.606.8.884 1.981 1.349 3.557 1.401q2.362.077 3.644-1.173 1.71-1.522 1.81-4.494.092-3.03-1.52-4.603c-.797-.884-1.983-1.356-3.559-1.405m-.063 1.95q1.367.045 2.138 1.085c.518.696.747 1.659.705 2.898-.037 1.238-.336 2.193-.895 2.845q-.829.987-2.202.94c-.901-.028-1.62-.389-2.137-1.08-.523-.689-.761-1.657-.724-2.899.046-1.244.344-2.191.907-2.848.56-.655 1.305-.967 2.208-.941m20.678 3.37-.618 1.834-5.229-1.755-.8 2.405 4.573 1.541-.608 1.818-4.575-1.545-1.47 4.39-2.166-.73 3.499-10.446zm28.81 14.45-1.449 8.75 4.842-5.977 1.662 1.356-6.937 8.563-1.783-1.456 1.438-8.926-4.922 6.086-1.666-1.36 6.941-8.565zm14.842 18.86-1.348 1.355-3.782-3.789-1.998 2.003 4.301 4.323-1.395 1.401-5.893-5.913 7.775-7.803 5.705 5.723-1.374 1.382-4.116-4.129-1.654 1.657zm9.363 13.108 1.534-1.535-1.977.892-6.042 2.576-1.213-1.762 7.265-8.852 1.39 2.013-4.35 4.796-1.264 1.264 1.594-.717 5.916-2.597 1.38 2.003-4.437 4.673-1.246 1.277 1.574-.683 6.067-2.423 1.333 1.927-10.808 3.724-1.25-1.809zm14.127 28.257 1.128 4.158 4.048-1.108.595 2.212-10.605 2.907-.602-2.212 4.741-1.293-1.141-4.164-4.734 1.296-.596-2.202 10.605-2.905.604 2.203zM430.6 200.18l.353 2.385 2.346.427.59 4.025-2.137 1.031.368 2.474 10.313-5.473-.38-2.58zm4.666 3.148 4.482.776-4.075 1.994zm-.6 17.155 8.65 1.986v3.316l-11.002.01v-2.149l7.441-.008q.333.001.902.008c.385.005.686.007.893.007l-9.236-2.08v-2.24l9.23-2.084q-.315.001-.893.008c-.387.008-.691.012-.902.012l-7.441.008v-2.15l11-.012v3.352zM431.996 232l-.298 2.275 3.927.522-.312 2.322q-.24 1.819.435 2.905c.44.724 1.309 1.17 2.591 1.343 1.181.157 2.097-.05 2.743-.632.655-.577 1.046-1.417 1.192-2.514l.632-4.764zm5.5 3.047 3.21.43-.283 2.132c-.075.54-.248.94-.533 1.21-.28.264-.701.36-1.272.286-.555-.075-.952-.279-1.181-.616-.217-.332-.288-.77-.225-1.31zm-4.684 11.222-.664 2.104c-.503-.088-.897-.07-1.196.05-.545.22-.956.765-1.22 1.631-.161.52-.232.96-.23 1.32.03.683.335 1.118.924 1.307a.95.95 0 0 0 .952-.203c.284-.25.596-.675.944-1.283l.596-1.037c.59-1.014 1.097-1.69 1.52-2.015.704-.556 1.569-.675 2.6-.347q1.409.443 2.02 1.767c.4.88.4 1.986-.013 3.313-.349 1.11-.944 1.966-1.777 2.566-.829.594-1.805.74-2.936.422l.665-2.112c.64.16 1.173.025 1.607-.404q.426-.43.668-1.196c.174-.565.206-1.057.079-1.463a1.15 1.15 0 0 0-.798-.81c-.375-.12-.705-.04-1.001.236-.188.175-.478.586-.861 1.236l-1.005 1.676q-.656 1.102-1.32 1.559-1.04.707-2.434.266c-.966-.3-1.643-.92-2.048-1.858q-.6-1.4.029-3.417c.43-1.37 1.075-2.35 1.955-2.941.87-.587 1.855-.71 2.945-.367M429.982 264.012l-1.791 3.922 3.805 1.758-.953 2.08-9.995-4.607.96-2.08 4.461 2.053 1.791-3.917-4.46-2.055.947-2.078 9.994 4.605-.948 2.08zm-4.108 15.983-9.382-5.768 1.191-1.955 9.386 5.767zm-3.536 6.253-8.64-6.835-1.388 1.769 3.385 2.68-1.47 1.871c-.414.531-.803.822-1.137.875q-.5.066-1.333-.572l-.818-.622a5 5 0 0 0-.798-.512 10 10 0 0 0-.557-.25l-1.562 1.995.219.17q.357-.135.747.06c.168.082.443.276.843.585l.573.46q.917.722 1.547.82.644.101 1.353-.309-.332.912.037 1.694c.225.52.54.945.958 1.27.342.269.695.456 1.04.553.348.1.7.142 1.075.126q.665-.02 1.256-.35c.393-.222.843-.628 1.32-1.23zm-18.664 14.749-1.333-1.377 3.841-3.732-1.967-2.037-4.37 4.253-1.377-1.43 5.984-5.813 7.656 7.93-5.796 5.63-1.36-1.405 4.186-4.062-1.623-1.683zm-185.609-72.213c-.829.857-1.23 2.073-1.175 3.649q.064 2.365 1.381 3.58c1.027 1.092 2.561 1.606 4.575 1.553 1.969-.055 3.476-.657 4.489-1.804q1.255-1.281 1.177-3.647c-.038-1.58-.505-2.768-1.38-3.58q-1.612-1.63-4.578-1.547c-2.012.057-3.504.655-4.49 1.796m-1.367-15.914 1.931.004-.008 5.534 2.524.002.016-4.84 1.907.004-.006 4.84 4.609.008-.006 2.297-10.98-.022z"/></g><path fill="#002a86" d="M353.663 325.614c.247-.247.56-.387.922-.425q.664-.072 1.179.388c.34.303.54.769.61 1.4.058.566-.041 1.042-.27 1.422q-.348.578-1.054.646a1.48 1.48 0 0 1-1.242-.43q-.523-.504-.612-1.373c-.074-.722.086-1.263.467-1.628m-114.024-49.112-4.423 1.116 2.93-3.482zM283.97 123.4l-.54-4.538 3.081 3.352zm132.976 166.3c-.458.206-.944.1-1.467-.315q-.73-.576-.545-1.31c.07-.278.253-.62.582-1.026l1.604-2.055 2.326 1.837-1.654 2.107c-.311.392-.587.644-.846.762m-191.325-55.318c-.654.563-1.606.864-2.842.893-1.234.038-2.2-.21-2.883-.736-.69-.527-1.04-1.242-1.07-2.157-.02-.915.292-1.647.953-2.202.664-.559 1.61-.847 2.844-.882 1.244-.034 2.202.206 2.883.724.693.518 1.037 1.236 1.068 2.147.022.914-.292 1.646-.953 2.213"/><path fill="#fff" stroke="#000" stroke-width=".34334" d="M234.025 220.303h191.559c-.004-24.198-10.154-49.506-26.938-67.314-17.917-19.01-43.309-29.698-69.242-28.667-22.675.901-45.126 8.622-61.956 23.101-20.449 17.594-33.423 45.436-33.423 72.88z"/><path fill="#946922" fill-rule="evenodd" d="m407.024 238.94 17.93-.252-6.398 18.687-6.06 10.27-60.105 6.146-88.725-.169-11.337 3.263-9.794-17.054-6.648-18.028-1.178-7.913 60.946 2.693z"/><path fill="#4f9eff" d="M348.738 265.553c-1.966.786-30.404 4.078-34.563 6.016-1.353-.775-6.266 5.14-9.069 1.965-6.994 1.215-17.52 4.203-25.368 3.153-6.943-.931-18.499 2.918-25.05 2.206 17.103 21.434 45.764 36.4 75.312 37.032 34.423.736 71.806-20.372 85.047-51.74.095-.157-15.124-1.465-19.69-1.287 0 0-44.663 1.87-46.62 2.655"/><path fill="#efae0e" fill-rule="evenodd" d="M318.517 220.431a11.483 11.483 0 0 1 11.614-11.35 11.483 11.483 0 0 1 11.351 11.613L330 220.562z"/><path fill="none" stroke="#000" stroke-linecap="round" stroke-linejoin="round" stroke-miterlimit="6.3" stroke-width=".576205" d="m379.744 224.953-1.042-24.107-.153 4.59-.15 4.506-.5 14.981z"/><path fill="#2a1510" fill-rule="evenodd" stroke="#000" stroke-linecap="round" stroke-linejoin="round" stroke-miterlimit="6.3" stroke-width=".65852" d="m376.193 200.428-26.832 14.269"/><path fill="#efae0e" fill-rule="evenodd" d="m344.117 216.98 22.879-6.762c.682.753 1.33 1.746.893 3.444l-23.517 4.678zm-1.397-2.832 3.75-2.619c.456.52.395 1.247.059 2.083l-3.214 2.024zm-2.5-2.976 18.273-16.667c1.27.457 2.26 1.192 2.738 2.44l-19.94 15.596zm5.059-12.44-7.798 10.654 1.548.953 8.393-9.762c-.388-.941-.966-1.693-2.143-1.845m-1.071-16.965-9.822 26.37 1.845.833 11.488-26.19c-1.063-.713-2.137-1.388-3.511-1.013m-11.727 11.905-2.023 13.631 1.845.238 2.916-13.571c-1.126-.742-1.917-.477-2.738-.298m-7.976-15.417 1.488 29.881 2.381-.536.536-29.642c-1.393-.052-2.576-.524-4.405.297m-5.893 15.834 3.988 15.297 1.905-1.071-3.69-14.702c-.984-.341-1.695-.135-2.203.476m-9.166-12.262 11.726 28.273-.893.893-14.048-27.202c.763-1.169 1.987-1.57 3.215-1.964m-.834 15.833 10.417 14.524-.952 1.071-11.488-14.226c.572-1.07 1.296-1.23 2.023-1.369m-13.809-2.619 22.857 19.107-.655 1.012-25.893-18.214c.963-.992 2.254-1.546 3.691-1.905m3.214 11.726c-.76.618-1.164 1.307-1.13 2.083l18.809 8.81.536-1.19zm-11.666 3.75c-.519 1.127-.865 2.288-.596 3.572l29.286 6.071.417-1.13z"/><path fill="#4f9eff" stroke="#000" stroke-width=".32926" d="M235.524 237.147c25.772 4.208 145.08 10.77 150.652 9.753 2.002-.363 4.892.347 6.355.548 3.365.455 6.18.092 9.72-1 3.17-.983 15.921-2.876 20.557-3.016 2.08-7.745 3.288-15.037 3.288-23.433 0 0-194.808 0-191.861.083"/><path fill="none" stroke="#000" stroke-linecap="round" stroke-linejoin="round" stroke-miterlimit="6.3" stroke-width=".576205" d="m351.172 230.16.196-3.154 2.975.09-.11-2.731-2.762.111.105-2.899 2.548.093-.077-1.902-2.402-.087.105-2.795 2.177-.09-.093-2.31-2.009.215.074-2.044 1.713.063-.119-2.917-1.488-.06.12-2.797 1.368.06-.119-3.215-1.13-.06.059-2.232.982-.03-.135-2.342-.703-.005"/><path fill="#2a1510" fill-rule="evenodd" stroke="#000" stroke-linecap="round" stroke-linejoin="round" stroke-miterlimit="6.3" stroke-width=".65852" d="m301.799 189.273-38.05 24.16"/><path fill="none" stroke="#000" stroke-linecap="round" stroke-linejoin="round" stroke-miterlimit="6.3" stroke-width=".576205" d="m351.29 229.446 1.49-41.072 1.666 41.25zm6.25 1.13-4.701-42.023 7.976 41.488z"/><path fill="none" stroke="#000" stroke-linecap="round" stroke-linejoin="round" stroke-miterlimit="6.3" stroke-width=".576205" d="m353.064 187.61 13.637 43.606-4.883-.085-1.346-2.02z"/><path fill="none" stroke="#000" stroke-linecap="round" stroke-linejoin="round" stroke-miterlimit="6.3" stroke-width=".65852" d="m367.838 230.398.12-5.833m2.976-.12-.179 6.132m-11.071-6.25 14.762.178M376.053 224.922l3.512-.179v-1.547l-3.453.06.179-2.084h3.214l-.06-1.875-2.916-.09.178-2.202 2.62-1.012.178-2.44-1.786-.357"/><path fill="none" stroke="#000" stroke-linecap="round" stroke-linejoin="round" stroke-miterlimit="6.3" stroke-width=".576205" d="m305.437 190.324 4.604 35.55-2.113.12-.149-1.906-2.69-31.1-.524-1.816 1.31 35.06 4.404.714-.506-2.917-3.899-.298-.119-1.845 3.631.12-.268-2.53-3.452-.03-.09-2.381 3.215.06-.298-2.441-2.976.119-.119-2.351 2.679-.387-.238-2.024-2.53.119-.09-2.56 2.322-.059-.298-3.214h-2.172l-.09-2.976 1.816-.179-.327-2.173-1.607.179-.09-2.351 1.399.06-.298-2.68-1.22.18-.595-3.304z"/><path fill="none" stroke="#000" stroke-linecap="round" stroke-linejoin="round" stroke-miterlimit="6.3" stroke-width=".65852" d="M256.89 210.17c6.469 10.07 15.094 18.412 23.99 26.938"/><path fill="#2a1510" fill-rule="evenodd" stroke="#000" stroke-linecap="round" stroke-linejoin="round" stroke-miterlimit="6.3" stroke-width=".65852" d="m348.77 187.967-57.673 33.573"/><path fill="none" stroke="#000" stroke-linecap="round" stroke-linejoin="round" stroke-miterlimit="6.3" stroke-width=".576205" d="m305.166 179.003 1.178-17.425m53.875 65.427-2.916-.06-.417-2.618 2.798.06-.476-2.68h-2.5l-.298-2.023h2.321l-.506-3.333-2.113.059-.357-3.571h1.786l-.582-3.036-1.74-.149-.297-2.649 1.547.06-.357-2.143-1.399-.03-.267-2.768 1.13-.06-.504-2.797-1.043-.06-.238-1.964.932-.128"/><path fill="#2a1510" stroke="#000" stroke-linecap="round" stroke-linejoin="round" stroke-width=".33485741999999996" d="M273.74 219.726c-.063.915.032 5.534-.18 6.296-.305-.11-9.526-10.563-10.223-11.495zm-6.882-4.717c-.638-.251-1.269-.52-1.887-.818-.812-.392-1.568-.894-2.336-1.367-1.835-1.131-5.43-3.515-5.43-3.515l-.925.716s1.94 1.344 2.84 2.104c1.73 1.458 3.31 3.089 4.904 4.693a164 164 0 0 1 5.514 5.83c1.529 1.696 3.054 3.4 4.462 5.198.923 1.18 1.74 2.44 2.61 3.661 3.654 5.128 11.216 15.847 11.216 15.847s4.178.607 6.398.82c8.358.807 16.532 1.183 24.896 1.937 16.237 1.463 32.616 3.05 48.844 4.609 3.654.35 7.312.624 10.965.989 1.593.159 4.735.59 4.735.59s.363-1.511.463-2.126c.038-.237-.008-.494.084-.716a1.2 1.2 0 0 1 .379-.484c.35-.262.89-.197 1.22-.484.257-.222.607-.56.505-.884-.048-.156-.291-.147-.442-.21-.358-.15-.9-.064-1.094-.4-.242-.42-.127-1.13.253-1.431.203-.162.519.054.778.042.284-.013.643.076.842-.126.293-.298.327-.855.169-1.242-.06-.148-.323-.08-.469-.146-.318-.146-.72-.087-.942-.359-.164-.201-.18-.592 0-.779.137-.141.393-.026.59-.02.373.01.755.205 1.115.105.353-.099.6-.376.616-.742.014-.318-.388-.57-.686-.632-.486-.101-.687-.44-.877-.9-.089-.214-.009-.468.042-.694.062-.273.24-.509.316-.778.095-.343.19-.698.168-1.053-.014-.226-.218-.428-.19-.652.032-.244.208-.456.38-.631.249-.255.586-.409.904-.569.505-.252 1.08-.348 1.579-.61.42-.22.86-.447 1.178-.8.198-.218.258-.533.421-.778.18-.27.412-.502.61-.758.274-.353.633-.66.8-1.073.122-.302.061-.65.127-.968.072-.357.204-.7.294-1.053.085-.334.114-.685.232-1.01.216-.599.533-1.16.863-1.704.406-.671.95-1.251 1.368-1.915.247-.394.55-.773.673-1.221.068-.25-.006-.52.021-.779.024-.234.087-.462.126-.694.063-.373-1.307-.208-1.604-.44-.453-.351.534-1.062.536-1.636.001-.49-.352-.919-.447-1.399-.096-.488-.29-1.02-.119-1.488 2.267-6.166 6.249-18.436 6.249-18.436l-1.13-.493-7.53 20.685s-.24.312-.416.327c-5.187.456-15.506.714-15.506.714l.03-2.202 2.916-21.875 2.65.03.297-3.333-3.096-.06.655-7.53-1.488-.267-.803-.298-.477.179.03.803 1.072.298.059.655-.387 5.892-1.786-.119-.148 3.334h.595l-2.649 24.047-.059 4.285-.762 1.19s-4.545-.125-6.818-.19c-5.96-.17-11.93-.18-17.896-.276l.68-6.36 4.499-35.009 3.064.038-.015-2.693-2.654.047.286-5.174 1.126.153-.014-1.737-2.257-.289 1.679-18.189-1.122.094-1.472 17.986-1.41-.066-.109 1.562 1.196.163-.35 5.593-1.996-.11-.28 2.512 2.364.086-5.15 34.923-1.042 6.413c-4.813-.107-9.622-.296-14.419-.698-6.853-.575-13.688-1.507-20.434-2.842-2.641-.522-5.975-1.32-9.429-2.192l4.799-33.1 1.768.084v-3.114l-1.6-.084s.146-4.007.505-6.314c.046-.295.55-.317.674-.589.104-.23.139-.547 0-.758-.353-.535-1.18-.503-1.768-.757-.646-.28-1.261-.642-1.936-.842-.123-.036-.265-.118-.39-.117a.2.2 0 0 0-.115.033c-.29.19-.306.667-.253 1.01.066.423.717.668.674 1.094-.275 2.684-.421 6.987-.421 6.987l-1.094.168-.17 3.283 1.096.085-4.69 32.17c-8.141-2.115-16.04-4.37-16.04-4.37l.126 2.673s-6.555-2.879-9.87-4.23a47 47 0 0 0-1.635-.628z"/><path fill="none" stroke="#000" stroke-width=".33485741999999996" d="M316.057 272.808c4.158-1.937 9.674-3.545 15.043-2.888 5.356.656 8.234-.392 9.535-1.309 1.316-.92 3.015-1.973 6.014-1.575 3.014.386 5.36-.132 7.33-.921 1.955-.786 4.42-1.116 6.01-.786 5.756 1.178 31.472-.336 36.232-2.496-5.582.704-35.408.69-38.187-.36-2.777-1.049-5.936-.555-9.597 1.018-3.656 1.576-6.195 1.79-7.972.95-1.002-.46-2.488-.394-3.348.49-.863.89-.526 1.84-4.447 1.84-3.917 0-17.25.208-24.838 1.52 2.8 3.172 6.866 3.742 8.225 4.517z"/><path fill="none" stroke="#000" stroke-width=".33485741999999996" d="M256.322 282.098c3.484 2.786 38.493-.384 40.33-1.3 1.823-.922 3.401-1.675 7.45-1.92 4.482-.264 8.03-.788 11.512-4.248 4.083-2.85-3.928-7.634-9.285-7.091-1.61.163-3.14.136-4.84-.39-.88-.272-10.374-1.887-21.124-1.608-10.084.261-21.425 2.352-23.339 4.025-.316.286-3.346 1.335-3.686 1.634-2.47 2.171-1.777 3.647.756 7.64.737 1.153 1.174 2.418 2.226 3.258z"/><path fill-rule="evenodd" stroke="#000" stroke-linecap="round" stroke-linejoin="round" stroke-miterlimit="6.3" stroke-width=".32926" d="m324.476 293.554.328 2.976.238 2.5-2.768 1.369.268-6.22zm11.072-.03-.328 2.976-.238 2.5 2.768 1.37-.268-6.221z"/><path fill="#efae0e" fill-rule="evenodd" stroke="#000" stroke-linecap="round" stroke-linejoin="round" stroke-miterlimit="6.3" stroke-width=".32926" d="m267.918 245.38.631 3.83 117.556 8.46 31.564 2.371.042-1.178-27.012-2.654z"/><path fill="none" stroke="#000" stroke-width=".49389" d="M280.652 160.658c-.047-1.004 1.044-2.17 2.049-2.212 1.06-.044 2.251 1.094 2.35 2.151.093.992-.8 2.293-1.792 2.392-1.16.115-2.552-1.167-2.607-2.33zm-8.371-10.232c-.048-1.005 1.044-2.172 2.049-2.215 1.062-.045 2.258 1.089 2.358 2.148.094.994-.806 2.298-1.8 2.396-1.16.115-2.552-1.165-2.607-2.33zm-10.473 34.114c-.456-.897.06-2.412.959-2.864.947-.476 2.499.067 3.022.988.494.87.206 2.43-.662 2.927-1.006.578-2.793-.017-3.319-1.051zm-10.994-4.748c-.457-.897.059-2.412.959-2.864.946-.476 2.498.067 3.021.988.494.87.206 2.43-.661 2.927-1.007.578-2.793-.017-3.32-1.051zm-10.357 31.964c-.457-.897.059-2.412.958-2.864.947-.476 2.499.067 3.022.988.494.87.206 2.43-.661 2.927-1.007.578-2.793-.016-3.32-1.05zm13.57 32.38c-.456-.896.06-2.41.96-2.863.946-.476 2.498.067 3.021.988.494.87.207 2.43-.66 2.927-1.007.577-2.794-.017-3.32-1.051zm-10.773 3.513c-.456-.898.06-2.412.959-2.864.947-.476 2.498.066 3.022.988.493.87.206 2.429-.662 2.927-1.006.577-2.793-.017-3.319-1.051zm23.452 22.678c-.456-.897.06-2.412.96-2.864.946-.476 2.498.067 3.02.989.495.87.207 2.428-.66 2.926-1.007.578-2.794-.016-3.32-1.05zm-8.81 6.964c-.456-.897.06-2.411.96-2.863.947-.476 2.498.066 3.021.988.494.87.207 2.429-.66 2.926-1.007.578-2.794-.016-3.32-1.05zm28.274 11.19c-.456-.896.06-2.41.96-2.863.946-.476 2.498.067 3.021.988.494.87.206 2.43-.661 2.927-1.007.578-2.793-.017-3.32-1.051zm-4.82 10.06c-.457-.897.059-2.411.958-2.863.947-.476 2.499.066 3.022.988.493.87.206 2.429-.661 2.926-1.007.578-2.794-.016-3.32-1.05zm21.62-161.585c-.048-1.003 1.036-2.171 2.039-2.215 1.062-.046 2.257 1.091 2.356 2.15.093.993-.805 2.295-1.798 2.392-1.157.114-2.541-1.166-2.597-2.327z"/><g fill="#efae0e" stroke="#000" stroke-width="2"><path stroke-width=".32926" d="M315.886 306.825c.946-2.616 2.542-10.623 1.925-14.104-.008.02-.022.043-.022.059 0-.026.008-.059.014-.09v-.002.003c.196-.966.225-2.349.067-2.781-1.466-.081-3.669-.195-6.052-.164 1.98 9.468-1.828 14.78-.434 18.456 1.658 1.77 3.551 1.245 4.502-1.377m8.549-2.899c-.451 1.912-1.88 3.404-3.635 4.362.97 1.333 1.674 1.993 2.48 1.532.748-.426 2.787-2.591 3.798-4.651-1.064-.033-2.034-.407-2.643-1.243"/><path fill="none" stroke-width=".33485741999999996" d="M323.869 302.725c-2.245-3.975.823-5.695.645-8.546-.04-.642-.243-1.528-.384-1.892-1.08-2.863-6.873-1.447-6.319.435.617 3.48-.979 11.487-1.919 14.103-.957 2.618-3.147 2.077-4.816.303-.404 4.828 5.639 6.509 9.662 4.305 1.756-.964 3.173-2.45 3.634-4.362.138-.57.24-1.216.32-1.897.046-.331.079-.666.11-1.015-.36-.484-.658-.96-.933-1.434z"/><path stroke-width=".32926" d="M335.555 303.926c.451 1.912 1.88 3.404 3.635 4.362-.97 1.333-1.674 1.993-2.48 1.532-.748-.426-2.787-2.591-3.798-4.651 1.064-.033 2.034-.407 2.643-1.243"/><path stroke-width=".32926" d="M329.99 294.197c-1.711.049-4.462 1.517-5.22 2.4.088 1.177-1.569 2.2-1.6 3.475-.038 1.466 2.167 5.595 4.212 7.68.703.716 2.455 1.5 2.612 1.5s1.908-.785 2.613-1.5c1.99-2.021 4.126-6.06 4.124-7.443-.003-1.336-1.6-2.544-1.511-3.712-.76-.883-3.51-2.351-5.22-2.4zM344.104 306.825c-.946-2.616-2.542-10.623-1.925-14.104.008.02.022.043.022.059 0-.026-.008-.059-.014-.09v-.002.003c-.196-.966-.225-2.349-.067-2.781 1.466-.081 3.669-.195 6.052-.164-1.98 9.468 1.828 14.78.434 18.456-1.658 1.77-3.551 1.245-4.502-1.377"/><path fill="none" stroke-width=".33485741999999996" d="M336.121 302.725c2.245-3.975-.823-5.695-.645-8.546.04-.642.243-1.528.384-1.892 1.08-2.863 6.873-1.447 6.319.435-.617 3.48.979 11.487 1.919 14.103.957 2.618 3.147 2.077 4.816.303.404 4.828-5.639 6.509-9.662 4.305-1.756-.964-3.173-2.45-3.634-4.362a17 17 0 0 1-.32-1.897c-.046-.331-.079-.666-.11-1.015.36-.484.658-.96.933-1.434z"/></g><path fill="#3f863f" stroke="#000" stroke-width=".32893074" d="M318.409 145.15c2.24-1.826 4.869-3.52 6.572-4.435-2.759-1.698-5.646-1.829-8.536-1.829 1.964-1.045 3.942-4.042 4.072-6.393-3.416-.523-8.272 1.695-9.846 4.307-.995 1.628-4.525 5.29-6.838 7.327.627-1.51 1.657-3.408 1.657-5.05 0-.683-.684-.882-.885-.067-.833 3.293-4.526 6.18-7.864 7.32-4.62 1.575-9.38 3.837-14.053 6.743-.684-.55-.856-1.19-.838-1.725.08-1.31 1.858-1.859 3.941-1.953 3.433-.15 15.137-7.098 13.242-13.348-1.346 2.73-4.637 3.544-9.138 3.948-5.664.523-10.437 5.616-9.247 11.29.292 1.387.424 2.174.394 2.85a72 72 0 0 0-5.222 3.774c.223-1.91.241-4.325-.203-5.679-.291-.912-1.312-2.006-.969-.097.276 1.538-.473 5.517-1.864 8.334-5.052 4.485-9.673 9.858-13.452 16.078-.647-.248-1.005-.682-1.17-1.114-.472-1.217.894-2.458 2.744-3.416 2.798-3.487 10.74-12.748 6.394-17.632-.074 3.031-2.717 5.146-6.623 7.388-4.924 2.835-7.109 9.448-3.639 14.098.715.953 1.147 1.568 1.417 2.113-.94 1.634-1.798 3.347-2.623 5.09-.589-1.61-1.405-3.326-2.231-4.212-.648-.71-2.025-1.294-.924.309.764 1.107 1.59 4.173 1.744 7.002-2.761 5.86-4.896 13.076-6.053 21.154-.715.018-1.216-.256-1.551-.595-.896-.958-.087-2.617 1.275-4.193 1.067-3.998 4.618-14.958-.65-18.725 1.06 2.844-.603 5.786-3.4 9.307-3.503 4.45-3.067 11.394 1.908 14.43 1.086.663 1.726 1.093 2.193 1.523a86 86 0 0 0-.49 4.859c-1.272-1.423-3.024-3.013-4.316-3.576-.871-.394-2.382-.372-.71.648 1.28.788 3.618 3.79 4.842 6.606-.234 7.05.284 14.528 1.725 22.17-.56.182-1.064.08-1.463-.119-1.125-.585-1.133-2.256-.658-3.997.804-2.864-2.138-15.184-8.15-16.122 2.032 2.184 1.857 5.202.996 9.043-1.078 4.83 2.106 10.757 7.43 12.033.954.226 1.606.4 2.103.591.39 1.924.948 4.093 1.674 6.432-1.749-.763-3.96-1.477-5.355-1.468-.968.005-2.323.638-.39.888 1.428.188 4.53 1.795 6.792 3.722 1.96 5.444 4.837 11.58 8.733 17.707-.518.497-1.074.63-1.551.604-1.312-.101-2.516-1.953-2.593-4.02-.098-3.413-6.252-15.046-12.57-13.256 2.72 1.372 3.496 4.661 3.845 9.133.45 5.637 5.504 10.448 11.23 9.335 1.194-.23 1.943-.343 2.563-.353a85 85 0 0 0 3.867 5.372c-1.88-.134-4.148-.071-5.441.395-.91.32-1.97 1.365-.072.965 1.405-.297 4.865.188 7.647 1.257 3.59 4.242 7.763 8.282 12.548 11.874-.335.422-.75.63-1.137.71-1.3.248-4.106-1.495-4.725-3.479-1.009-3.26-9.571-7.775-15.19-4.395 2.992.612 5.136-.33 6.65 3.893 1.934 5.32 9.12 7.253 13.495 5.148.962-.458 1.61-.755 2.156-.936a69 69 0 0 0 5.665 3.66c-1.641.66-3.416 1.577-4.3 2.446-.689.672-1.217 2.069.35.908 1.02-.763 3.801-1.643 6.504-1.957 6.124 3.233 13.036 5.705 20.806 7.093-.087.68-.45 1.104-.8 1.416-.995.868-3.115.604-4.652-.792-3.004-1.72-15.868-5.394-18.979.35 2.886-.983 6.399-.066 9.863 2.81 4.37 3.613 11.368 3.378 14.558-1.478.74-1.122 1.267-1.645 1.795-1.98a76 76 0 0 0 4.18.53c.269-1.221.612-2.38.75-3.312a70 70 0 0 1-4.45-.648c.444-1.253 1.162-2.678.561-4.333-1.05-3.055-5.892-7.37-10.656-7.412-3.736-.056-6.95-4.08-9.9-4.391 1.078 1.814 1.754 3.224 2.144 5.154 1.013 5.081 6.664 8.19 13.517 7.632 1.744-.141 3.013 1.632 3.28 3.158-7.037-1.344-14.174-3.786-20.93-7.235-1.74-2.032-2.33-3.925-2.57-5.075-.39-1.757-1.23-2.034-.918.15.153 1.095.451 2.37.859 3.505a79 79 0 0 1-4.77-2.894c.924-1.104 2.545-2.13 2.713-4.141.321-3.213-2.288-9.132-6.605-11.136-3.372-1.588-4.625-6.578-7.181-8.074.225 2.097.253 3.657-.197 5.574-1.202 5.039 2.652 10.2 9.114 12.513 1.873.67 2.14 3.336 1.46 4.793-4.667-3.126-9.009-6.76-12.846-10.87-1.464-3.435-1.152-6.05-.837-7.454.388-1.755-.255-2.356-.889-.247-.45 1.491-.78 3.402-.743 4.921a65 65 0 0 1-4.063-5.44c.954-1.271 3.54-1.578 4.406-3.917 1.162-3.021.214-9.41-3.423-12.479-2.848-2.42-2.72-7.551-4.788-9.668-.347 2.082-.729 3.596-1.669 5.326-2.491 4.55-.146 10.536 5.484 14.46 1.941 1.35.955 4.833-.509 5.525-3.525-5.41-6.282-11.294-8.33-17.383-.228-3.713.938-6.086 1.703-7.3.954-1.528.546-2.307-.766-.531-.814 1.108-1.649 2.563-2.17 3.879a100 100 0 0 1-1.462-5.818c1.245-.317 3.208.149 4.463-1.23 1.872-1.993 2.887-7.62.633-11.625-1.758-3.154-.178-7.308-1.354-9.896-.895 1.566-.9 2.731-2.218 3.76-2.963 3.12-2.656 7.564-.187 14.018 1.139 1.675-.155 3.778-1.49 4.24-2.191-10.624-2.484-21.368-1.209-30.827 1.53-.069 3.511 1.177 5.592.113 2.908-1.443 6.571-6.778 5.984-11.482-.436-3.695 3.148-7.394 3.062-10.34-1.662 1.301-2.984 2.157-4.857 2.794-4.93 1.671-7.283 7.658-5.819 14.332.473 2.153-2.24 3.957-3.845 3.78a88 88 0 0 1 5.149-19.438c2.827-3.138 5.637-3.933 7.16-4.191 1.786-.319 2.092-1.138-.11-.92-1.832.182-4.155.746-5.546 1.55a79 79 0 0 1 3.176-6.355c1.55.329 2.948 2.49 5.425 2.252 3.24-.263 8.638-3.868 9.854-8.451.972-3.59 5.68-5.701 6.71-8.47-2.038.593-3.569.904-5.549.807-5.204-.27-9.628 4.42-10.765 11.156-.388 2.312-3.968 2.936-5.235 1.926 3.48-6.07 7.763-11.573 12.833-15.996 3.757-1.592 6.574-1.17 8.036-.795 1.76.441 2.384-.182.277-.882-1.574-.523-3.643-.936-5.205-.898a83 83 0 0 1 5.651-4.066c1.283.946 1.636 3.493 3.984 4.31 3.047 1.11 9.464.083 12.505-3.571 2.406-2.854 7.568-2.806 9.671-4.892-2.101-.307-3.634-.67-5.379-1.582-4.609-2.411-10.606 0-14.477 5.644-1.322 1.92-4.786 1.023-5.543-.39 6.15-3.922 13.025-7.006 20.142-8.75 4.85-1.187 12.782.717 14.953-1.059"/><path fill="#d4212f" d="M280.652 160.658c-.047-1.004 1.044-2.17 2.049-2.212 1.06-.044 2.251 1.094 2.35 2.151.093.992-.8 2.293-1.792 2.392-1.16.115-2.552-1.167-2.607-2.33m-8.371-10.233c-.048-1.005 1.044-2.172 2.049-2.215 1.062-.045 2.258 1.089 2.358 2.148.094.994-.806 2.298-1.8 2.396-1.16.115-2.552-1.165-2.607-2.33m-10.473 34.115c-.456-.897.06-2.412.959-2.864.947-.476 2.499.067 3.022.988.494.87.206 2.43-.662 2.927-1.006.578-2.793-.017-3.319-1.051m-10.994-4.748c-.457-.897.059-2.412.959-2.864.946-.476 2.498.067 3.021.988.494.87.206 2.43-.661 2.927-1.007.578-2.793-.017-3.32-1.051m-10.356 31.964c-.457-.897.059-2.412.958-2.864.947-.476 2.499.067 3.022.988.494.87.206 2.43-.661 2.927-1.007.578-2.793-.016-3.32-1.05m13.572 32.38c-.457-.897.06-2.412.959-2.864.946-.476 2.498.067 3.021.988.494.87.207 2.43-.66 2.927-1.007.577-2.794-.017-3.32-1.051m-10.774 3.512c-.456-.898.06-2.412.959-2.864.947-.476 2.498.066 3.022.988.493.87.206 2.429-.662 2.927-1.006.577-2.793-.017-3.319-1.051zm23.452 22.678c-.456-.897.06-2.412.96-2.864.946-.476 2.498.067 3.02.989.495.87.207 2.428-.66 2.926-1.007.578-2.794-.016-3.32-1.05zm-8.81 6.964c-.456-.897.06-2.411.96-2.863.947-.476 2.498.066 3.021.988.494.87.207 2.429-.66 2.926-1.007.578-2.794-.016-3.32-1.05m28.273 11.19c-.456-.897.06-2.412.96-2.864.946-.476 2.498.067 3.021.988.494.87.206 2.43-.661 2.927-1.007.578-2.793-.017-3.32-1.051m-4.82 10.06c-.457-.898.059-2.412.958-2.864.947-.476 2.499.066 3.022.988.493.87.206 2.429-.661 2.926-1.007.578-2.794-.016-3.32-1.05zm21.62-161.586c-.048-1.003 1.036-2.171 2.039-2.215 1.062-.046 2.257 1.091 2.356 2.15.093.993-.805 2.295-1.798 2.392-1.157.114-2.541-1.166-2.597-2.327z"/><path fill="none" stroke="#000" stroke-width=".49389" d="M379.338 160.658c.047-1.004-1.044-2.17-2.049-2.212-1.06-.044-2.251 1.094-2.35 2.151-.093.992.8 2.293 1.792 2.392 1.16.115 2.552-1.167 2.607-2.33zm8.371-10.232c.048-1.005-1.044-2.172-2.049-2.215-1.062-.045-2.258 1.089-2.358 2.148-.094.994.806 2.298 1.8 2.396 1.16.115 2.552-1.165 2.607-2.33zm10.473 34.114c.456-.897-.06-2.412-.959-2.864-.947-.476-2.499.067-3.022.988-.494.87-.206 2.43.662 2.927 1.006.578 2.793-.017 3.319-1.051zm10.994-4.748c.457-.897-.059-2.412-.959-2.864-.946-.476-2.498.067-3.021.988-.494.87-.206 2.43.661 2.927 1.007.578 2.793-.017 3.32-1.051zm10.357 31.964c.457-.897-.059-2.412-.958-2.864-.947-.476-2.499.067-3.022.988-.494.87-.206 2.43.661 2.927 1.007.578 2.793-.016 3.32-1.05zm-13.57 32.38c.456-.896-.06-2.41-.96-2.863-.946-.476-2.498.067-3.021.988-.494.87-.207 2.43.66 2.927 1.007.577 2.794-.017 3.32-1.051zm10.773 3.513c.456-.898-.06-2.412-.959-2.864-.947-.476-2.498.066-3.022.988-.493.87-.206 2.429.662 2.927 1.006.577 2.793-.017 3.319-1.051zm-23.452 22.678c.456-.897-.06-2.412-.96-2.864-.946-.476-2.498.067-3.02.989-.495.87-.207 2.428.66 2.926 1.007.578 2.794-.016 3.32-1.05zm8.81 6.964c.456-.897-.06-2.411-.96-2.863-.947-.476-2.498.066-3.021.988-.494.87-.207 2.429.66 2.926 1.007.578 2.794-.016 3.32-1.05zm-28.274 11.19c.456-.896-.06-2.41-.96-2.863-.946-.476-2.498.067-3.021.988-.494.87-.206 2.43.661 2.927 1.007.578 2.793-.017 3.32-1.051zm4.82 10.06c.457-.897-.059-2.411-.958-2.863-.947-.476-2.499.066-3.022.988-.493.87-.206 2.429.661 2.926 1.007.578 2.794-.016 3.32-1.05zm-21.62-161.585c.048-1.003-1.036-2.171-2.039-2.215-1.062-.046-2.257 1.091-2.356 2.15-.093.993.805 2.295 1.798 2.392 1.157.114 2.541-1.166 2.597-2.327z"/><path fill="#3f863f" stroke="#000" stroke-width=".32893074" d="M341.579 145.15c-2.24-1.826-4.869-3.52-6.573-4.435 2.76-1.698 5.647-1.829 8.536-1.829-1.963-1.045-3.941-4.042-4.07-6.393 3.414-.523 8.271 1.695 9.844 4.307.995 1.628 4.526 5.29 6.839 7.327-.627-1.51-1.657-3.408-1.657-5.05 0-.683.684-.882.885-.067.833 3.293 4.526 6.18 7.864 7.32 4.62 1.575 9.38 3.837 14.052 6.743.684-.55.857-1.19.839-1.725-.081-1.31-1.858-1.859-3.941-1.953-3.433-.15-15.137-7.098-13.243-13.348 1.346 2.73 4.638 3.544 9.14 3.948 5.662.523 10.435 5.616 9.246 11.29-.293 1.387-.425 2.174-.394 2.85a72 72 0 0 1 5.222 3.774c-.223-1.91-.242-4.325.203-5.679.29-.912 1.312-2.006.969-.097-.276 1.538.473 5.517 1.864 8.334 5.051 4.485 9.672 9.858 13.451 16.078.648-.248 1.006-.682 1.17-1.114.473-1.217-.894-2.458-2.743-3.416-2.798-3.487-10.741-12.748-6.394-17.632.073 3.031 2.717 5.146 6.623 7.388 4.924 2.835 7.109 9.448 3.639 14.098-.715.953-1.148 1.568-1.418 2.113.94 1.634 1.8 3.347 2.624 5.09.588-1.61 1.404-3.326 2.231-4.212.648-.71 2.025-1.294.924.309-.764 1.107-1.59 4.173-1.744 7.002 2.76 5.86 4.895 13.076 6.053 21.154.714.018 1.216-.256 1.55-.595.896-.958.088-2.617-1.274-4.193-1.067-3.998-4.619-14.958.65-18.725-1.06 2.844.602 5.786 3.4 9.307 3.503 4.45 3.066 11.394-1.908 14.43-1.087.663-1.726 1.093-2.193 1.523a86 86 0 0 1 .489 4.859c1.273-1.423 3.025-3.013 4.317-3.576.871-.394 2.381-.372.71.648-1.281.788-3.618 3.79-4.842 6.606.233 7.05-.284 14.528-1.726 22.17.56.182 1.064.08 1.464-.119 1.125-.585 1.133-2.256.658-3.997-.804-2.864 2.138-15.184 8.15-16.122-2.032 2.184-1.857 5.202-.997 9.043 1.078 4.83-2.105 10.757-7.429 12.033-.954.226-1.606.4-2.104.591-.39 1.924-.948 4.093-1.673 6.432 1.748-.763 3.96-1.477 5.355-1.468.968.005 2.322.638.39.888-1.428.188-4.53 1.795-6.792 3.722-1.96 5.444-4.837 11.58-8.733 17.707.518.497 1.074.63 1.55.604 1.312-.101 2.516-1.953 2.594-4.02.098-3.413 6.252-15.046 12.57-13.256-2.72 1.372-3.496 4.661-3.845 9.133-.45 5.637-5.505 10.448-11.23 9.335-1.194-.23-1.943-.343-2.563-.353a85 85 0 0 1-3.868 5.372c1.88-.134 4.148-.071 5.442.395.91.32 1.97 1.365.071.965-1.405-.297-4.864.188-7.646 1.257-3.59 4.242-7.763 8.282-12.548 11.874.335.422.75.63 1.137.71 1.3.248 4.105-1.495 4.724-3.479 1.01-3.26 9.572-7.775 15.19-4.395-2.99.612-5.135-.33-6.65 3.893-1.933 5.32-9.119 7.253-13.494 5.148-.963-.458-1.61-.755-2.156-.936a69 69 0 0 1-5.665 3.66c1.64.66 3.415 1.577 4.3 2.446.688.672 1.217 2.069-.351.908-1.02-.763-3.8-1.643-6.504-1.957-6.123 3.233-13.035 5.705-20.805 7.093.087.68.45 1.104.8 1.416.994.868 3.115.604 4.652-.792 3.004-1.72 15.868-5.394 18.978.35-2.885-.983-6.398-.066-9.862 2.81-4.37 3.613-11.369 3.378-14.558-1.478-.74-1.122-1.268-1.645-1.795-1.98a76 76 0 0 1-4.181.53c-.268-1.221-.611-2.38-.75-3.312 1.48-.16 2.965-.39 4.45-.648-.443-1.253-1.161-2.678-.56-4.333 1.05-3.055 5.892-7.37 10.655-7.412 3.737-.056 6.95-4.08 9.9-4.391-1.077 1.814-1.754 3.224-2.143 5.154-1.013 5.081-6.664 8.19-13.517 7.632-1.744-.141-3.013 1.632-3.281 3.158 7.037-1.344 14.175-3.786 20.93-7.235 1.74-2.032 2.33-3.925 2.57-5.075.39-1.757 1.23-2.034.918.15a18 18 0 0 1-.858 3.505 79 79 0 0 0 4.77-2.894c-.924-1.104-2.545-2.13-2.714-4.141-.32-3.213 2.288-9.132 6.605-11.136 3.373-1.588 4.626-6.578 7.182-8.074-.226 2.097-.254 3.657.197 5.574 1.202 5.039-2.652 10.2-9.115 12.513-1.872.67-2.14 3.336-1.46 4.793 4.668-3.126 9.01-6.76 12.847-10.87 1.464-3.435 1.151-6.05.836-7.454-.388-1.755.256-2.356.89-.247.45 1.491.78 3.402.743 4.921a65 65 0 0 0 4.063-5.44c-.955-1.271-3.54-1.578-4.407-3.917-1.16-3.021-.213-9.41 3.424-12.479 2.848-2.42 2.72-7.551 4.787-9.668.348 2.082.73 3.596 1.67 5.326 2.49 4.55.146 10.536-5.485 14.46-1.94 1.35-.954 4.833.51 5.525 3.524-5.41 6.282-11.294 8.33-17.383.228-3.713-.938-6.086-1.703-7.3-.954-1.528-.546-2.307.765-.531.815 1.108 1.65 2.563 2.171 3.879a100 100 0 0 0 1.462-5.818c-1.245-.317-3.208.149-4.463-1.23-1.872-1.993-2.888-7.62-.634-11.625 1.759-3.154.18-7.308 1.354-9.896.896 1.566.9 2.731 2.218 3.76 2.963 3.12 2.656 7.564.188 14.018-1.139 1.675.154 3.778 1.49 4.24 2.191-10.624 2.483-21.368 1.208-30.827-1.529-.069-3.51 1.177-5.592.113-2.907-1.443-6.57-6.778-5.984-11.482.437-3.695-3.147-7.394-3.062-10.34 1.663 1.301 2.985 2.157 4.857 2.794 4.93 1.671 7.284 7.658 5.82 14.332-.474 2.153 2.24 3.957 3.845 3.78a88 88 0 0 0-5.15-19.438c-2.826-3.138-5.636-3.933-7.158-4.191-1.787-.319-2.094-1.138.11-.92 1.83.182 4.153.746 5.544 1.55a79 79 0 0 0-3.175-6.355c-1.551.329-2.948 2.49-5.426 2.252-3.24-.263-8.637-3.868-9.853-8.451-.973-3.59-5.68-5.701-6.71-8.47 2.038.593 3.569.904 5.549.807 5.204-.27 9.628 4.42 10.765 11.156.388 2.312 3.967 2.936 5.234 1.926-3.48-6.07-7.762-11.573-12.832-15.996-3.757-1.592-6.575-1.17-8.037-.795-1.758.441-2.384-.182-.276-.882 1.574-.523 3.643-.936 5.204-.898a83 83 0 0 0-5.65-4.066c-1.284.946-1.637 3.493-3.984 4.31-3.048 1.11-9.464.083-12.506-3.571-2.406-2.854-7.567-2.806-9.67-4.892 2.101-.307 3.634-.67 5.378-1.582 4.61-2.411 10.607 0 14.478 5.644 1.322 1.92 4.785 1.023 5.543-.39-6.15-3.922-13.025-7.006-20.142-8.75-4.851-1.187-12.783.717-14.953-1.059"/><path fill="#d4212f" d="M379.338 160.658c.047-1.004-1.044-2.17-2.049-2.212-1.06-.044-2.251 1.094-2.35 2.151-.093.992.8 2.293 1.792 2.392 1.16.115 2.552-1.167 2.607-2.33m8.371-10.233c.048-1.005-1.044-2.172-2.049-2.215-1.062-.045-2.258 1.089-2.358 2.148-.094.994.806 2.298 1.8 2.396 1.16.115 2.552-1.165 2.607-2.33m10.473 34.115c.456-.897-.06-2.412-.959-2.864-.947-.476-2.499.067-3.022.988-.494.87-.206 2.43.662 2.927 1.006.578 2.793-.017 3.319-1.051m10.994-4.748c.457-.897-.059-2.412-.959-2.864-.946-.476-2.498.067-3.021.988-.494.87-.206 2.43.661 2.927 1.007.578 2.793-.017 3.32-1.051m10.356 31.964c.457-.897-.059-2.412-.958-2.864-.947-.476-2.499.067-3.022.988-.494.87-.206 2.43.661 2.927 1.007.578 2.793-.016 3.32-1.05m-13.572 32.38c.457-.897-.06-2.412-.959-2.864-.946-.476-2.498.067-3.021.988-.494.87-.207 2.43.66 2.927 1.007.577 2.794-.017 3.32-1.051m10.774 3.512c.456-.898-.06-2.412-.959-2.864-.947-.476-2.498.066-3.022.988-.493.87-.206 2.429.662 2.927 1.006.577 2.793-.017 3.319-1.051zm-23.452 22.678c.456-.897-.06-2.412-.96-2.864-.946-.476-2.498.067-3.02.989-.495.87-.207 2.428.66 2.926 1.007.578 2.794-.016 3.32-1.05zm8.81 6.964c.456-.897-.06-2.411-.96-2.863-.947-.476-2.498.066-3.021.988-.494.87-.207 2.429.66 2.926 1.007.578 2.794-.016 3.32-1.05m-28.273 11.19c.456-.897-.06-2.412-.96-2.864-.946-.476-2.498.067-3.021.988-.494.87-.206 2.43.661 2.927 1.007.578 2.793-.017 3.32-1.051m4.82 10.06c.457-.898-.059-2.412-.958-2.864-.947-.476-2.499.066-3.022.988-.493.87-.206 2.429.661 2.926 1.007.578 2.794-.016 3.32-1.05zm-21.62-161.586c.048-1.003-1.036-2.171-2.039-2.215-1.062-.046-2.257 1.091-2.356 2.15-.093.993.805 2.295 1.798 2.392 1.157.114 2.541-1.166 2.597-2.327z"/><g transform="translate(202.72 92.72)scale(.16463)"><path fill="#d4212f" fill-rule="evenodd" stroke="#000" stroke-miterlimit="6.3" stroke-width="2" d="M915.012 411.87s-5.884 1.993-8.948 2.301c-6.623.666-13.45.444-19.942-1.022-7.379-1.667-13.929-5.911-20.964-8.693-15.75-6.227-31.504-12.484-47.553-17.896-16.351-5.514-32.5-12.498-49.598-14.828-8.615-1.174-17.472-.727-26.078.511-5.77.83-11.532 2.265-16.873 4.602-4.42 1.933-9.513 3.713-12.272 7.67-2.39 3.427-2.922 8.109-2.557 12.271.301 3.43 1.778 6.828 3.835 9.588 1.722 2.31 4.275 3.937 6.775 5.369 1.944 1.112 4.999.58 6.264 2.428.554.809.527 2.114 0 2.94-.708 1.11-2.333 1.24-3.58 1.662-2.976 1.009-6.157 1.273-9.203 2.046-10.825 2.746-22.077 4.516-32.213 9.203-4.463 2.064-9.128 4.402-12.272 8.182-1.66 1.995-2.472 4.631-3.068 7.158-.667 2.825.135 5.863-.511 8.693-.699 3.054-1.608 6.257-3.58 8.692-2.47 3.05-6.311 4.694-9.715 6.647-3.025 1.736-6.111 3.497-9.46 4.474-2.597.759-5.765-.274-8.053 1.023-2.122 1.204 4.155.91 6.264 1.15 3.73.426 7.505.24 11.25.512 3.416.248 6.833 1.502 10.226 1.022 3.635-.513 7.404-1.742 10.226-4.09 2.944-2.45 4.87-6.1 6.136-9.715 1.02-2.913-.248-6.39 1.023-9.204 1.043-2.31 2.957-4.293 5.113-5.625 8.585-5.302 19.475-5.298 29.145-8.18 6.51-1.941 13.71-2.475 19.43-6.137 2.134-1.366 3.854-3.426 5.114-5.624 1.42-2.48 2.388-5.33 2.556-8.181.163-2.77-.334-5.68-1.534-8.182-1.358-2.834-4.457-4.501-6.136-7.158-.896-1.42-2.683-3.05-2.045-4.602 1.827-4.442 8.686-4.446 13.422-5.241 7.402-1.242 15.057-.08 22.499.895 9.655 1.264 19.21 3.493 28.506 6.391 9.125 2.845 17.967 6.611 26.589 10.738 7.57 3.624 15.101 7.472 21.986 12.272 5.157 3.595 9.192 8.633 14.318 12.272 4.982 3.536 10.102 7.134 15.85 9.203 6.829 2.459 14.244 2.981 21.476 3.58 4.756.393 14.317 0 14.317 0h.64z"/><path fill="#fff" fill-rule="evenodd" d="m842.276 395.636-11.504 21.987 8.309 4.474 10.098-23.52zm9.716 4.218-10.61 23.905 9.076 5.88 9.331-27.228zM863.752 404.456l-9.843 27.484 8.181 7.286 9.076-31.702zm-71.074-3.962s1.166-1.066 1.278-1.79c.193-1.238-.36-2.607-1.15-3.58-2.226-2.74-5.936-3.904-9.204-5.24-5.548-2.27-11.45-3.753-17.385-4.602a64.8 64.8 0 0 0-15.084-.384c-3.47.32-6.895 1.151-10.226 2.173-2.814.864-5.825 1.56-8.181 3.324-1.481 1.109-2.817 2.609-3.452 4.346-.497 1.362-.414 2.926-.128 4.346.305 1.515 1.196 2.853 1.918 4.219 1.42 2.688 3.74 4.923 4.73 7.797.824 2.394 1.54 5.095.894 7.543-.716 2.71-2.967 4.829-4.985 6.775-1.744 1.681-3.82 3.05-6.008 4.09-5.943 2.822-12.606 3.774-18.92 5.625-5.447 1.597-11.065 2.684-16.361 4.73-4.427 1.709-9.35 2.988-12.784 6.263-1.407 1.343-2.042 3.327-2.812 5.113-.992 2.302-2.3 7.159-2.3 7.159s-.618 5.521-2.046 7.798c-1.22 1.945-3.165 3.492-5.241 4.474-2.191 1.036-4.78.814-7.159 1.278-4.445.867-8.985 1.416-13.294 2.812-.798.259-3.068 1.023-2.301 1.023s9.448 1.006 14.19 1.278c3.404.196 6.88.91 10.226.256 2.51-.491 5.075-1.42 7.03-3.068 2.965-2.498 5.028-6.087 6.392-9.715 1.316-3.503-.105-7.757 1.534-11.122.831-1.706 2.347-3.094 3.963-4.09 7.526-4.639 16.898-5.207 25.31-7.926 7.95-2.569 16.467-3.88 23.777-7.925 1.642-.909 3.255-2.052 4.346-3.58 1.905-2.666 3.02-5.955 3.451-9.203.237-1.782.078-3.67-.511-5.37-.747-2.154-2.26-3.989-3.707-5.751-1.09-1.328-2.715-2.178-3.707-3.58-.947-1.338-2.221-2.843-2.045-4.474.182-1.694 1.609-3.208 3.067-4.09 3.879-2.346 8.894-1.996 13.423-2.174 7.775-.304 15.564.8 23.265 1.918 6.591.957 19.558 4.09 19.558 4.09z"/><path fill="#002a86" fill-rule="evenodd" d="m876.024 411.487-4.602 33.62s6.903 4.346 7.925 4.474c1.023.127 17.002 1.022 17.002 1.022l16.49.128 1.662-38.733-8.82 2.301s-13.295 0-14.062-.128c-.767-.127-11.377-2.556-11.377-2.556l-3.963-1.662z"/><path fill="#fff" fill-rule="evenodd" d="m831.027 392.44-10.226 19.686 7.414 3.835 9.715-21.603zm-22.37-8.18-9.715 19.43 8.181 3.45 8.692-20.197zm10.61 3.706-9.715 19.686 8.18 3.58 8.821-20.837-7.286-2.812z"/><circle cx="906.575" cy="420.819" r="1.152" fill="#fff" fill-rule="evenodd"/><circle cx="897.499" cy="420.307" r="1.152" fill="#fff" fill-rule="evenodd"/><circle cx="890.085" cy="419.668" r="1.152" fill="#fff" fill-rule="evenodd"/><circle cx="881.564" cy="417.09" r="1.152" fill="#fff" fill-rule="evenodd"/><circle cx="880.648" cy="423.104" r="1.152" fill="#fff" fill-rule="evenodd"/><circle cx="888.935" cy="425.932" r="1.152" fill="#fff" fill-rule="evenodd"/><circle cx="896.364" cy="426.608" r="1.152" fill="#fff" fill-rule="evenodd"/><circle cx="905.169" cy="427.338" r="1.152" fill="#fff" fill-rule="evenodd"/><circle cx="904.146" cy="433.218" r="1.152" fill="#fff" fill-rule="evenodd"/><circle cx="895.597" cy="433.511" r="1.152" fill="#fff" fill-rule="evenodd"/><circle cx="888.04" cy="432.579" r="1.152" fill="#fff" fill-rule="evenodd"/><circle cx="879.603" cy="429.511" r="1.152" fill="#fff" fill-rule="evenodd"/><circle cx="878.421" cy="436.03" r="1.152" fill="#fff" fill-rule="evenodd"/><circle cx="886.927" cy="438.625" r="1.152" fill="#fff" fill-rule="evenodd"/><circle cx="894.703" cy="439.279" r="1.152" fill="#fff" fill-rule="evenodd"/><circle cx="902.996" cy="439.738" r="1.152" fill="#fff" fill-rule="evenodd"/><circle cx="902.229" cy="446.64" r="1.152" fill="#fff" fill-rule="evenodd"/><circle cx="892.897" cy="445.873" r="1.152" fill="#fff" fill-rule="evenodd"/><circle cx="885.452" cy="444.76" r="1.152" fill="#fff" fill-rule="evenodd"/><circle cx="876.919" cy="442.422" r="1.152" fill="#fff" fill-rule="evenodd"/><path fill="none" stroke="#000" stroke-miterlimit="6.3" stroke-width="2" d="M914.884 411.487s-5.77 2.31-8.82 2.684c-6.606.811-13.45.444-19.942-1.022-7.379-1.667-13.929-5.911-20.964-8.693-15.75-6.227-31.504-12.484-47.553-17.896-16.351-5.514-32.5-12.498-49.598-14.828-8.615-1.174-17.472-.727-26.078.511-5.77.83-11.532 2.265-16.873 4.602-4.42 1.933-9.513 3.713-12.272 7.67-2.39 3.427-3.065 8.124-2.557 12.271.49 3.992 2.582 7.85 5.241 10.866 1.814 2.057 4.486 3.18 6.903 4.474 1.514.811 3.787.61 4.73 2.045.538.82.527 2.114 0 2.94-.708 1.11-2.333 1.24-3.58 1.662-2.976 1.009-6.157 1.273-9.203 2.046-10.825 2.746-22.077 4.516-32.213 9.203-4.463 2.064-9.128 4.402-12.272 8.182-1.66 1.995-2.472 4.631-3.068 7.158-.667 2.825.135 5.863-.511 8.693-.699 3.054-1.608 6.257-3.58 8.692-2.47 3.05-6.311 4.694-9.715 6.647-3.025 1.736-6.111 3.497-9.46 4.474-2.597.759-5.765-.274-8.053 1.023-2.122 1.204 4.155.91 6.264 1.15 3.73.426 7.505.24 11.25.512 3.416.248 6.833 1.502 10.226 1.022 3.635-.513 7.404-1.742 10.226-4.09 2.944-2.45 4.87-6.1 6.136-9.715 1.02-2.913-.248-6.39 1.023-9.204 1.043-2.31 2.957-4.293 5.113-5.625 8.585-5.302 19.475-5.298 29.145-8.18 6.51-1.941 13.71-2.475 19.43-6.137 2.134-1.366 3.854-3.426 5.114-5.624 1.42-2.48 2.388-5.33 2.556-8.181.163-2.77-.334-5.68-1.534-8.182-1.358-2.834-4.457-4.501-6.136-7.158-.896-1.42-2.683-3.05-2.045-4.602 1.827-4.442 8.686-4.446 13.422-5.241 7.402-1.242 15.057-.08 22.499.895 9.655 1.264 19.21 3.493 28.506 6.391 9.125 2.845 17.967 6.611 26.589 10.738 7.57 3.624 15.101 7.472 21.986 12.272 5.157 3.595 9.192 8.633 14.318 12.272 4.982 3.536 10.102 7.134 15.85 9.203 6.829 2.459 14.244 2.981 21.476 3.58 4.756.393 14.317 0 14.317 0l1.023.255z"/></g><path fill="#fefdfe" fill-rule="evenodd" d="M398.672 205.725s-3.005-.524-4.524-.565c-1.84-.05-3.71-.015-5.506.387-.748.168-1.466.473-2.143.833-.384.204-.674.569-1.071.744-.41.18-.876.186-1.31.298-.55.142-1.127.226-1.637.476-.363.178-.619.535-.982.714-.622.308-1.328.401-1.994.596-.624.182-1.233.432-1.875.535-.245.04-.744.03-.744.03s-1.468 1.28-1.548 3.274c-.066 1.65-1.026 3.09-.833 4.762 1.169.35 2.307-.223 3.393-.595.722-.248 1.314-.79 2.024-1.072.908-.36 1.93-.384 2.827-.774.78-.339 1.37-1.06 2.173-1.339 1.047-.364 2.195-.372 3.303-.387 1.673-.023 3.347.19 5 .447.723.112 2.143.476 2.143.476z"/><path fill="#d4212f" fill-rule="evenodd" d="M392.514 204.89c-1.247-.013-2.527.041-3.77.337a7.7 7.7 0 0 0-1.959.776c-.554.31-.882.769-1.257.941-.788.363-1.84.27-2.863.645-.853.313-1.536.852-2.252 1.169-.437.193-.841.427-1.282.566-.7.22-1.386.383-1.93.448l-.315.001c-.204.185-.333.348-.472.514l.637-.007c.656-.031 1.496-.202 2.213-.398.494-.134.963-.322 1.416-.522.818-.362 1.49-.888 2.212-1.153.83-.304 1.907-.203 2.911-.665.592-.272.928-.755 1.303-.963a7 7 0 0 1 1.79-.712c1.161-.275 2.389-.33 3.612-.318.974.01 2.282.123 3.415.259.566.068 1.089.141 1.505.21s.535-.58.107-.65a38 38 0 0 0-1.534-.214c-1.148-.138-2.468-.253-3.487-.264z" color="#000"/><path fill="#d4212f" fill-rule="evenodd" d="M392.027 206.24c-1.247-.013-2.528.04-3.77.336a7.7 7.7 0 0 0-1.96.777c-.553.309-.882.768-1.256.94-.789.363-1.84.27-2.863.645-.853.313-1.536.852-2.252 1.17-.44.194-.877.375-1.316.487-.78.197-2.64.345-2.64.345-.134.22-.218.436-.318.654 0 0 2.266-.145 3.12-.361.503-.127.972-.325 1.42-.524.819-.362 1.491-.888 2.213-1.153.83-.304 1.907-.202 2.911-.665.592-.272.928-.755 1.302-.963a7 7 0 0 1 1.791-.712c1.16-.275 2.388-.33 3.611-.318.975.01 2.283.123 3.416.26.566.067 1.089.14 1.505.209s1.047-.457 1.047-.457c-.2-.064-.512-.124-.94-.194a38 38 0 0 0-1.534-.213c-1.149-.137-2.468-.253-3.487-.264" color="#000"/><path fill="#d4212f" fill-rule="evenodd" d="M391.521 207.638c-1.247-.013-2.527.041-3.77.336a7.7 7.7 0 0 0-1.96.777c-.554.31-.882.769-1.256.941-.789.363-1.84.27-2.863.645-.853.312-1.536.852-2.252 1.169a9 9 0 0 1-1.32.488c-.757.199-2.683.392-2.683.392-.044.18-.065.418-.079.66 0 0 2.114-.2 2.93-.415a9.4 9.4 0 0 0 1.419-.523c.817-.362 1.49-.888 2.212-1.153.83-.304 1.907-.203 2.911-.665.592-.272.928-.755 1.303-.963a7 7 0 0 1 1.79-.712c1.161-.275 2.388-.33 3.611-.318.975.01 2.283.123 3.415.259.567.068 1.09.141 1.506.21s.535-.58.106-.65a38 38 0 0 0-1.533-.214c-1.149-.138-2.468-.253-3.487-.264z" color="#000"/><path fill="#d4212f" fill-rule="evenodd" d="M390.926 209.156c-1.247-.012-2.527.041-3.77.337a7.7 7.7 0 0 0-1.96.776c-.554.31-.882.769-1.256.941-.789.363-1.841.27-2.863.645-.853.313-1.536.852-2.252 1.169-.444.196-.877.384-1.311.486-.68.16-2.256.268-2.256.268l-.147.65s1.777-.095 2.553-.277c.513-.12.982-.328 1.427-.525.818-.362 1.49-.888 2.213-1.153.83-.304 1.907-.202 2.91-.665.592-.272.929-.755 1.304-.964a7 7 0 0 1 1.79-.71c1.16-.277 2.388-.332 3.611-.32.975.01 2.258.093 3.39.229.567.068 1.115.172 1.531.24s.845.095.95.129l.096-.585c-.2-.065-.511-.124-.94-.194a38 38 0 0 0-1.533-.213c-1.149-.138-2.468-.253-3.487-.264" color="#000"/><path fill="#d4212f" fill-rule="evenodd" d="M390.36 210.406c-1.247-.013-2.527.041-3.77.336a7.7 7.7 0 0 0-1.959.777c-.554.31-.882.768-1.257.941-.788.363-1.84.27-2.862.645-.853.312-1.537.852-2.253 1.169-.443.196-.876.381-1.313.486-.612.148-2.023.268-2.023.268l-.169.62h.292c.616-.03 1.365-.081 2.055-.247.51-.123.978-.327 1.425-.525.818-.362 1.49-.888 2.212-1.153.83-.305 1.907-.202 2.911-.665.592-.272.928-.755 1.303-.963a7 7 0 0 1 1.79-.712c1.161-.275 2.389-.33 3.612-.318.974.01 2.282.123 3.415.259.566.068 1.089.141 1.505.21.417.067.74.136.845.17l.28.104.235-.63-.313-.101c-.2-.064-.512-.124-.94-.194a38 38 0 0 0-1.534-.213c-1.148-.138-2.468-.254-3.487-.264z" color="#000"/><path fill="#d4212f" fill-rule="evenodd" d="M389.914 211.716c-1.247-.013-2.528.04-3.77.336a7.7 7.7 0 0 0-1.96.777c-.554.309-.882.768-1.256.94-.789.364-1.84.27-2.863.645-.853.313-1.536.852-2.252 1.17-.443.196-.877.382-1.312.486-.556.132-1.89.17-1.89.17a6 6 0 0 0-.107.66s1.52-.04 2.15-.19c.51-.121.98-.327 1.426-.525.817-.362 1.49-.888 2.212-1.152.83-.305 1.907-.203 2.911-.665.591-.272.928-.755 1.303-.964a7 7 0 0 1 1.79-.711c1.16-.276 2.388-.331 3.611-.319.975.01 2.283.124 3.415.26.567.067 1.09.14 1.506.209s1.098.228 1.098.228l.227-.607s-.79-.202-1.219-.272a38 38 0 0 0-1.533-.212c-1.149-.138-2.468-.254-3.487-.264z" color="#000"/><path fill="#d4212f" fill-rule="evenodd" d="M389.319 213.144c-1.247-.012-2.528.042-3.77.337a7.7 7.7 0 0 0-1.96.777c-.554.309-.882.768-1.257.94-.788.363-1.84.27-2.862.645-.872.32-1.52.92-2.224 1.158-.774.26-1.918.401-2.5.43l-.266.004-.031.669.329-.016c.64-.031 1.792-.165 2.678-.463s1.538-.906 2.24-1.164c.831-.304 1.908-.202 2.912-.665.591-.272.928-.755 1.302-.964a7 7 0 0 1 1.79-.71c1.161-.276 2.39-.332 3.612-.32.975.01 2.283.124 3.415.26.566.068 1.105.165 1.52.233s1.121.27 1.121.27l.252-.675s-.852-.199-1.28-.269a38 38 0 0 0-1.535-.213c-1.148-.138-2.467-.253-3.486-.264" color="#000"/><path fill="#002868" d="M398.672 205.725s-.616-.287-.943-.37c-.947-.244-1.934-.3-2.909-.375-1.06-.082-3.188-.085-3.188-.085s-.64 1.488-.855 2.265c-.241.87-.483 2.664-.483 2.664s2.46.045 3.682.182c.977.11 2.905.51 2.905.51z"/><path fill="#fff" fill-opacity=".994" d="m394.1 205.308-.051.248-.267.03.235.123-.051.247.196-.172.236.123-.114-.229.197-.172-.267.03zm1.049.118-.168.197-.252-.09.147.212-.168.197.26-.067.148.211.013-.252.259-.067-.252-.089zm-2.036.234.078.242-.222.144.27.006.077.242.089-.239.269.006-.214-.153.089-.238-.222.144zm2.48.24.027.251-.247.101.263.055.026.25.136-.217.263.054-.178-.189.136-.217-.247.101zm-2.789.321-.125.224-.265-.042.188.18-.124.224.24-.112.189.18-.04-.25.242-.111-.266-.043zm3.374.38-.102.235-.268-.019.206.163-.101.234.228-.133.206.162-.065-.245.229-.134-.269-.018zm-3.76.433v.253l-.256.079.256.077v.253l.158-.205.256.078-.158-.204.157-.205-.256.079zm3.93.443-.206.163-.229-.133.102.234-.206.163.27-.018.1.233.065-.245.268-.019-.229-.133zm-3.44.377-.188.18-.24-.111.125.223-.188.181.265-.043.125.224.039-.25.265-.043-.241-.111zm2.757.31-.026.252-.263.054.247.1-.025.252.178-.19.247.101-.137-.217.178-.19-.263.055zm-2.346.27-.077.242-.269.007.222.143-.077.242.214-.153.221.143-.09-.238.214-.154-.269.007zm1.8.203-.147.212-.26-.066.17.196-.148.212.251-.09.17.196-.014-.252.251-.09-.26-.065zm-1.15.133.053.248-.235.123.267.03.052.247.113-.229.267.03-.197-.171.113-.23-.235.123z"/><path fill="none" stroke="#000" stroke-linecap="round" stroke-linejoin="round" stroke-miterlimit="6.3" stroke-width=".28546842" d="M392.514 204.89a28 28 0 0 0-.802.005h-.08 0c-.963.022-1.936.106-2.887.332a7.7 7.7 0 0 0-1.96.776c-.554.31-.882.769-1.257.941-.788.363-1.84.27-2.862.645-.853.313-1.536.852-2.252 1.169-.438.193-.842.427-1.282.566-.698.22-1.382.382-1.925.448h-.321a3 3 0 0 0-.215.217l-.026.027c-.081.091-.153.179-.227.267l-.004.004h0a5.4 5.4 0 0 0-.443.653h-.001q-.059.098-.107.195-.039.075-.074.151-.055.116-.106.24l-.031.069h.002a4.5 4.5 0 0 0-.235.79h-.002a4 4 0 0 0-.079.662c-.015.37-.078.73-.16 1.083l-.04.176q-.092.362-.199.72l-.017.002-.168.62h.008a11 11 0 0 0-.145.592h-.006a5 5 0 0 0-.064.34 5 5 0 0 0-.043.314v.005a5 5 0 0 0-.022.537h-.002l-.031.668.329-.016c.64-.031 1.792-.165 2.678-.463s1.538-.906 2.24-1.164c.831-.304 1.908-.202 2.912-.665.591-.272.928-.755 1.302-.964a7 7 0 0 1 1.79-.71c1.161-.276 2.39-.332 3.612-.32.975.01 2.283.124 3.415.26.555.067 1.08.16 1.492.228.591.134 1.149.275 1.149.275l.252-.674.306-.82h0l.227-.607.245-.656h0l.235-.63h0l.248-.662 1.79-4.79s-.616-.288-.943-.372c-.946-.243-1.934-.298-2.908-.374-.388-.03-.913-.047-1.43-.06a21 21 0 0 0-.876-.03z"/><path fill="#fefdfe" fill-rule="evenodd" d="M393.977 227.449a1 1 0 0 0-.149 0s-2.55.429-3.83.611c-1.722.246-3.447.471-5.177.652a92 92 0 0 1-4.798.4c-1.689.088-3.38.105-5.072.105-.35 0-1.052-.02-1.052-.02-.695.094-.458.737.042.8 0 0 2.609.147 3.914.126 1.828-.03 3.65-.216 5.472-.358 1.622-.127 3.247-.244 4.862-.442a78 78 0 0 0 4.608-.716c.43-.079 1.284-.273 1.284-.273.486-.088.583-.841-.104-.885m-108.635 5.586a.8.8 0 0 0-.21.013c-.13.027-.268.097-.337.21-.101.17-.128.413-.042.59.134.272.48.381.758.504 4.47 1.99 9.426 2.673 14.226 3.62 6.492 1.28 13.092 1.938 19.656 2.778 2.69.344 5.381.678 8.081.926 5.462.502 10.941.797 16.415 1.136 3.085.191 6.17.406 9.26.505 5.75.185 11.506.3 17.257.169 3.287-.075 6.568-.32 9.848-.547 1.012-.07 3.03-.253 3.03-.253l-.125-.757s-7.492.208-11.238.21c-5.501.002-11.002-.115-16.5-.295a319 319 0 0 1-8.838-.42c-5.743-.348-11.49-.688-17.215-1.263-6.614-.664-13.21-1.526-19.782-2.526-3.746-.57-7.469-1.289-11.196-1.978-3.639-.672-7.287-1.304-10.9-2.104-.51-.113-1.006-.277-1.516-.379-.209-.042-.422-.124-.632-.139zm105.256 2.801c.282-.023.576-.926-.158-.758-2.547.411-5.14.155-7.713.24-.766-.005-.354.668-.115.645 2.51.027 5.138.103 7.986-.127"/><path fill="#efae0e" fill-rule="evenodd" d="m274.811 223.526-.106.805 1.676.475.152-.934zm2.652.63-.106.807 1.675.474.152-.934zm3.027.886-.106.806 1.675.474.152-.934zm-6.52.63-.106 1.07 1.675.631.152-1.241zm3.206 3.081s.92 1.08 1.473 1.516c1.128.886 2.455 1.485 3.704 2.188.389.219.733.633 1.179.632a.61.61 0 0 0 .463-.253.9.9 0 0 0 .126-.716c-.067-.26-.275-.49-.505-.63-.232-.143-.54-.088-.8-.17-.552-.172-1.07-.438-1.599-.672-1.36-.605-4.04-1.895-4.04-1.895zm112.615 3.036c-.195.003-.412.204-.466.39-.205.7-.522 1.262-.716 1.894-.072.238-.022.63.21.716.267.099.637-.19.717-.463.213-.731.421-1.07.63-1.725.087-.271-.023-.714-.294-.8a.3.3 0 0 0-.081-.012zm-4.61.025c-.195.003-.411.205-.466.39-.205.7-.522 1.262-.715 1.895-.073.237-.023.629.21.715.266.1.636-.19.716-.463.213-.73.421-1.07.631-1.725.087-.27-.024-.714-.295-.8a.3.3 0 0 0-.081-.012m2.252.06c-.195.002-.41.204-.465.39-.205.7-.522 1.261-.716 1.894-.073.237-.022.629.21.715.267.099.637-.19.716-.462.214-.732.422-1.072.632-1.726.086-.27-.024-.714-.295-.8a.3.3 0 0 0-.082-.012"/><path fill="none" stroke="#efae0e" stroke-linecap="round" stroke-linejoin="round" stroke-miterlimit="6.3" stroke-width=".7572979999999999" d="m274.062 220.799-.042 4.461.42.295 9.555 2.483.168-1.136-.168-.674-.673-.59v-2.23l-1.263-.295-.295.884-2.146-.547-.337-1.347-1.095-.126-.168.926-2.23-.674-.253-1.22zm117.303 10.27-7.408.041z"/><path fill="#d4212f" fill-rule="evenodd" stroke="#000" stroke-linecap="round" stroke-linejoin="round" stroke-miterlimit="6.3" stroke-width=".32926" d="m286.605 238.814-4.587.042 5.05 7.197 3.578-.084zm2.904.253c-.248.92.926 1.959 1.979 2.988 0 0 23.967 1.69 35.944 2.61 15.579 1.196 46.72 3.788 46.72 3.788l-.506-1.642s-31.498-3.28-47.266-4.714c-12.281-1.117-36.87-3.03-36.87-3.03m89.3 7.406c-.282.018-.58.353-.576.633.005.426.51.79.926.884 1.792.403 4.925.547 4.925.547l.168-1.431s-3.637-.467-5.387-.632a.3.3 0 0 0-.056 0m.687 2.736c-.377-.017-.786.384-.842.758-.036.242.139.58.379.631 1.713.368 4.293.547 4.293.547l.379-1.515s-2.785-.355-4.21-.421m.296 2.568c-.278-.009-.573.311-.59.589-.015.249.216.553.463.589.973.143 2.736.252 2.736.252l.42-1.178s-2.036-.222-3.03-.252"/><path fill="#efae0e" fill-rule="evenodd" d="m297.906 243.444.022 3.367 4.564.496v-3.366zm11.578 1.244.005 3.365 4.798.497.05-3.36zm12.661 1.265.043 3.37 4.51.37-.057-3.37zm10.818.873-.11 3.356 5.594.542-.087-3.374zm11.737 1.175.088 3.374 4.966.514-.076-3.373zm11.592 1.145-.058 3.36 5.311.353v-3.366zm11.933.706.107 3.371 4.978.238-.021-3.367z"/><path fill="#efae0e" fill-rule="evenodd" stroke="#000" stroke-linecap="round" stroke-linejoin="round" stroke-miterlimit="6.3" stroke-width=".32926" d="M295.05 239.008a.97.97 0 0 0-.536.177c-.24.161-.49.393-.581.664-1.439 4.266-4.769 14.75-4.633 14.835.51.32 1.35.477 1.924.044.151-.115 2.891-9.95 4.23-14.702.08-.282.158-.622.026-.841-.08-.134-.267-.175-.43-.177m11.281 1.216a.9.9 0 0 0-.514.168c-.219.154-.44.374-.497.632-.895 4.055-2.89 14.02-2.743 14.1.553.304 1.415.454 1.934.042.137-.109 1.624-9.457 2.357-13.974.044-.268.078-.591-.083-.8-.097-.126-.29-.166-.454-.168m12.515 1.2a.86.86 0 0 0-.505.168c-.21.153-.42.374-.463.631-.676 4.055-2.13 14.02-1.978 14.1.569.305 1.439.454 1.936.042.131-.109 1.11-9.457 1.6-13.973.028-.269.044-.592-.127-.8-.105-.127-.299-.166-.463-.168zm11.336 1.115a.78.78 0 0 0-.486.168c-.193.154-.377.374-.391.632-.214 4.055-.533 14.019-.373 14.1.604.304 1.491.454 1.941.042.12-.11.034-9.457.008-13.974-.001-.268-.022-.591-.217-.8-.119-.126-.318-.166-.482-.168zm11.5.8a.74.74 0 0 0-.476.168c-.184.154-.355.374-.353.631.028 4.055.303 14.02.468 14.1.622.305 1.518.454 1.944.042.112-.109-.53-9.456-.826-13.973-.017-.269-.057-.592-.265-.8-.126-.127-.327-.166-.492-.168m10.553.843a.62.62 0 0 0-.445.173c-.157.158-.288.383-.24.647.753 4.155 2.81 14.365 2.989 14.448.676.312 1.598.465 1.95.043.092-.112-2.221-9.69-3.324-14.319-.066-.275-.163-.605-.408-.819-.149-.13-.357-.17-.522-.173m21.741.423a.54.54 0 0 0-.423.175c-.137.16-.24.39-.158.657 1.28 4.222 4.632 14.596 4.822 14.68.715.317 1.656.473 1.954.044.08-.114-3.45-9.846-5.14-14.549-.1-.279-.24-.615-.511-.832a.9.9 0 0 0-.544-.175m-10.572.251a.57.57 0 0 0-.431.173c-.144.158-.256.384-.186.649 1.105 4.166 4.026 14.403 4.212 14.486.703.313 1.638.467 1.954.043.083-.112-3.041-9.716-4.536-14.356-.088-.276-.214-.608-.477-.822a.88.88 0 0 0-.536-.173z"/><path fill="#d4212f" fill-rule="evenodd" stroke="#000" stroke-miterlimit="6.3" stroke-width=".32926" d="M306.113 162.72s-3.83.14-5.655.654c-1.769.5-3.502 1.259-5 2.322-1.602 1.137-2.878 2.694-4.107 4.226-.475.593-1.127 1.156-1.25 1.905-.09.546.102 1.151.416 1.607.428.621 1.537.621 1.846 1.31.147.327.025.742-.12 1.07-.51 1.16-1.435 2.174-2.5 2.858-.992.638-2.356.447-3.392 1.012-.964.525-1.866 1.247-2.5 2.143-.381.538-.824 1.195-.715 1.845.056.333.32.738.655.774.324.034.552-.358.774-.595.39-.419.548-1.024.952-1.429.557-.556 1.226-1.037 1.965-1.31.787-.29 1.702-.037 2.5-.297a8.3 8.3 0 0 0 2.857-1.607c.917-.802 1.799-1.767 2.202-2.917.23-.655.368-1.46.06-2.083-.271-.548-1.137-.572-1.489-1.072-.166-.236-.296-.55-.238-.833.179-.855 1.006-1.452 1.667-2.024.58-.5 1.264-.881 1.964-1.19 1.287-.568 2.662-.95 4.048-1.19 1.351-.235 4.107-.239 4.107-.239l.595.06z"/><path fill="#fff" fill-rule="evenodd" d="m299.576 163.646.347 4.45 1.13-.198-.312-4.597zm-4.7 2.492 1.275 3.374-.766.492-1.23-3.238zm-1.589 1.498-.735.824 1.57 2.627.629-.561zM291.037 170.29l2.452 2.64-.115-.627-1.77-2.696z"/><path fill="#002a86" fill-rule="evenodd" d="m301.886 163.122-.096 4.68c1.312-.077 2.615-.2 3.965-.082l.358-5c-1.437.105-2.949.134-4.227.402"/><path fill="#fff" fill-rule="evenodd" d="m298.815 163.92-1.039.44.627 4.16.975-.256zm-2.912 1.473 1.102 3.696.677-.279-.98-3.9zm-2.591 7.194s.137.418.314.69c.23.348.553.744.597 1.184.06.599-.244 1.186-.477 1.74-.21.503-.481.987-.818 1.415-.445.564-.963 1.09-1.562 1.488-.375.247-.805.409-1.236.535-.496.147-1.025.15-1.532.253-.585.118-1.196.174-1.741.417-.424.189-.793.488-1.146.788-.382.326-.722.7-1.042 1.087-.267.323-.486.685-.73 1.027-.148.208-.276.433-.445.625-.216.244.044.431.044.431l.61.075s.601-.864.923-1.28c.319-.413.594-.875.997-1.205a4.5 4.5 0 0 1 1.414-.76c.428-.143.894-.13 1.339-.208.572-.099 1.17-.118 1.711-.327.91-.35 1.748-.898 2.5-1.518.399-.328 1.042-1.146 1.042-1.146s.423-.791.595-1.205c.2-.48.448-.957.506-1.473.042-.372-.119-1.116-.119-1.116l-.923-.551c-.333-.262-.56-.63-.821-.966zM305.197 163.315a.127.127 0 0 0-.126.126.127.127 0 0 0 .126.127.127.127 0 0 0 .127-.127.127.127 0 0 0-.127-.126zm-.87.096a.127.127 0 0 0-.127.127.127.127 0 0 0 .127.127.127.127 0 0 0 .126-.127.127.127 0 0 0-.126-.127m-.878.075a.127.127 0 0 0-.127.126.127.127 0 0 0 .127.127.127.127 0 0 0 .126-.127.127.127 0 0 0-.126-.126m-.819.06a.127.127 0 0 0-.126.126.127.127 0 0 0 .126.127.127.127 0 0 0 .127-.127.127.127 0 0 0-.127-.126zm2.56.535a.127.127 0 0 0-.127.127.127.127 0 0 0 .127.126.127.127 0 0 0 .126-.126.127.127 0 0 0-.126-.127m-.893.194a.127.127 0 0 0-.126.126.127.127 0 0 0 .126.127.127.127 0 0 0 .126-.127.127.127 0 0 0-.126-.126m-.893.015a.127.127 0 0 0-.126.126.127.127 0 0 0 .126.127.127.127 0 0 0 .127-.127.127.127 0 0 0-.127-.126m-.818.044a.127.127 0 0 0-.127.127.127.127 0 0 0 .127.127.127.127 0 0 0 .126-.127.127.127 0 0 0-.126-.127zm2.604.596a.127.127 0 0 0-.127.126.127.127 0 0 0 .127.127.127.127 0 0 0 .126-.127.127.127 0 0 0-.126-.126m-.923.119a.127.127 0 0 0-.126.126.127.127 0 0 0 .126.127.127.127 0 0 0 .127-.127.127.127 0 0 0-.127-.127zm-.863.074a.127.127 0 0 0-.126.127.127.127 0 0 0 .126.126.127.127 0 0 0 .127-.126.127.127 0 0 0-.127-.127m-.863.104a.127.127 0 0 0-.126.127.127.127 0 0 0 .126.126.127.127 0 0 0 .127-.126.127.127 0 0 0-.127-.127m2.604.58a.127.127 0 0 0-.127.127.127.127 0 0 0 .127.126.127.127 0 0 0 .127-.126.127.127 0 0 0-.127-.126m-.848.074a.127.127 0 0 0-.126.126.127.127 0 0 0 .126.127.127.127 0 0 0 .126-.127.127.127 0 0 0-.126-.126m-.908.104a.127.127 0 0 0-.126.127.127.127 0 0 0 .126.126.127.127 0 0 0 .127-.126.127.127 0 0 0-.127-.127m-.878.045a.127.127 0 0 0-.126.126.127.127 0 0 0 .126.127.127.127 0 0 0 .127-.127.127.127 0 0 0-.127-.126m2.604.595a.127.127 0 0 0-.126.126.127.127 0 0 0 .126.127.127.127 0 0 0 .127-.127.127.127 0 0 0-.127-.126m-.848.03a.127.127 0 0 0-.126.126.127.127 0 0 0 .126.127.127.127 0 0 0 .127-.127.127.127 0 0 0-.127-.127zm-.878.074a.127.127 0 0 0-.126.127.127.127 0 0 0 .126.126.127.127 0 0 0 .127-.126.127.127 0 0 0-.127-.127m-.848.074a.127.127 0 0 0-.126.127.127.127 0 0 0 .126.127.127.127 0 0 0 .127-.127.127.127 0 0 0-.127-.127"/><path fill="none" stroke="#000" stroke-miterlimit="6.3" stroke-width=".32926" d="M306.113 162.72s-3.83.14-5.655.654c-1.769.5-3.502 1.259-5 2.322-1.602 1.137-2.878 2.694-4.107 4.226-.475.593-1.127 1.156-1.25 1.905-.09.546.102 1.151.416 1.607.428.621 1.537.621 1.846 1.31.147.327.025.742-.12 1.07-.51 1.16-1.435 2.174-2.5 2.858-.992.638-2.356.447-3.392 1.012-.964.525-1.866 1.247-2.5 2.143-.381.538-.824 1.195-.715 1.845.056.333.32.738.655.774.324.034.552-.358.774-.595.39-.419.548-1.024.952-1.429.557-.556 1.226-1.037 1.965-1.31.787-.29 1.702-.037 2.5-.297a8.3 8.3 0 0 0 2.857-1.607c.917-.802 1.799-1.767 2.202-2.917.23-.655.368-1.46.06-2.083-.271-.548-1.137-.572-1.489-1.072-.166-.236-.296-.55-.238-.833.179-.855 1.006-1.452 1.667-2.024.58-.5 1.264-.881 1.964-1.19 1.287-.568 2.662-.95 4.048-1.19 1.351-.235 4.107-.239 4.107-.239l.595.06z"/><path fill="#efae0e" fill-rule="evenodd" d="M330 122.956A97.044 97.044 0 0 0 232.954 220 97.044 97.044 0 0 0 330 317.044 97.044 97.044 0 0 0 427.044 220a97.044 97.044 0 0 0-97.045-97.045zm0 2.357A94.687 94.687 0 0 1 424.686 220a94.687 94.687 0 0 1-94.688 94.687A94.687 94.687 0 0 1 235.312 220 94.687 94.687 0 0 1 330 125.313z"/><path fill="#efae0e" fill-rule="evenodd" d="M330 99.385A120.615 120.615 0 0 0 209.384 220 120.615 120.615 0 0 0 330 340.614 120.615 120.615 0 0 0 450.614 220 120.615 120.615 0 0 0 330 99.385zm0 2.358A118.257 118.257 0 0 1 448.256 220a118.257 118.257 0 0 1-118.258 118.257A118.257 118.257 0 0 1 211.742 220 118.257 118.257 0 0 1 330 101.743z"/><path fill="#efae0e" fill-rule="evenodd" d="M330 92.721A127.28 127.28 0 0 0 202.72 220 127.28 127.28 0 0 0 330 347.279a127.28 127.28 0 0 0 127.278-127.28A127.28 127.28 0 0 0 330 92.722zm0 4.308a122.97 122.97 0 0 1 122.97 122.97A122.97 122.97 0 0 1 330 342.972 122.97 122.97 0 0 1 207.027 220 122.97 122.97 0 0 1 330 97.029"/><path fill="#fff" d="M373.352 232.3h4.756v3.31h-4.756z"/><path fill="#fff" d="M378.481 235.609q-2.387.06-4.776.093l-.043-3.31q2.368-.031 4.735-.091zm-8.12.122q-2.389.011-4.778-.008l.026-3.31q2.369.02 4.737.008zm-8.123-.049q-2.389-.04-4.777-.11l.097-3.309q2.367.07 4.736.11zm-8.12-.223q-2.388-.091-4.774-.213l.169-3.306a369 369 0 0 0 4.731.212zm-8.114-.399a367 367 0 0 1-4.769-.318l.242-3.301q2.362.173 4.726.315zm-8.104-.578q-2.38-.197-4.759-.425l.316-3.294q2.356.226 4.716.42zm-8.087-.76a355 355 0 0 1-4.749-.533l.391-3.285q2.35.28 4.704.527zm-8.068-.944a349 349 0 0 1-4.734-.642l.467-3.275a346 346 0 0 0 4.69.636zm-8.043-1.13a344 344 0 0 1-4.718-.752l.544-3.263a340 340 0 0 0 4.673.745zm-8.014-1.318a338 338 0 0 1-4.699-.866l.622-3.249a334 334 0 0 0 4.653.857zm-7.98-1.51a332 332 0 0 1-4.678-.98l.702-3.233q2.31.501 4.63.97zm-7.943-1.705a327 327 0 0 1-4.653-1.094l.781-3.215a323 323 0 0 0 4.606 1.083z"/></svg>