<svg xmlns="http://www.w3.org/2000/svg" width="512" height="512" viewBox="0 0 512 512"><defs><clipPath id="r"><rect width="512" height="512"/></clipPath></defs><g clip-path="url(#r)"><g transform="scale(9.142857) translate(-38.1458 -11.6875)"><path fill="#003884" d="M0 0h44.1v79.4H0z"/><path fill="#fff" d="M44.1 0h44.1v79.4H44.1z"/><path fill="#f60" d="M88.2 0h44.1v79.4H88.2z"/><svg width="44.3" height="79.4" x="44" viewBox="0 0 1340 2400"><path fill="#003884" d="M0 0h4v2400H0zm739.3 616.3 2.3.4Q749 618 756 621l-1 4a47 47 0 0 1-19.4 2.2c-19-.3-19-.3-26.6-7.2v-2c9.9-4.7 19.8-3.4 30.3-1.7M713 619c1 2 1 2 2.7 2.6A102 102 0 0 0 750 623a61 61 0 0 0-37-4m-39 61.2c6.2 4.6 7.9 12.6 10 19.8l.7 2.3c5.6 18.6 7.5 36.3 7.3 55.7h-3l1 20a70 70 0 0 0 30.2-3.9c2.8-1.1 2.8-1.1 4.8-1.1l-.3-2.3-.8-10.2-.4-3.6c-.6-8.6-.6-8.6 2.6-12.3q2.6-2.1 5.4-3.9c3.4-2.3 4.9-4.5 7-8l1-1.7c5-8.1 9.2-16.6 13.5-25h9v14h19v-16c6.6-.6 10.2 0 15.5 4q7.5 6.2 14.5 13 14.2 13.4 31.6 22.3c4.3 2.3 4.3 2.3 5 4.8l.4 1.9 4 2 3.8 2.4 2.2 1.5 2.3 1.6q1.3.7 2.5 1.7l7.9 5.2c33.4 22.4 33.4 22.4 47.2 30.7l2.6 1.5 7.5 4.4 2.2 1.3a386 386 0 0 0 35.8 18.1l2.8 1.3c2.2 1.3 2.2 1.3 4.2 4.3.2 4.2-.3 8-2.6 11.4-3 2-6 2.8-9.4 3.6l3 2c2.7 2.3 3 2.8 3.6 6.5a12 12 0 0 1-4.6 8.5l-1.5 1.4c-5.2 4.2-10.5 4-16.9 3.3-2-.1-2-.1-5.6.3-2.3 2.9-2.3 2.9-4 6-4.5 4.3-8.9 6-15 6.2-4-.2-4-.2-6.2-.7q-6-.9-12.4-.8h-7.3c-2.1.3-2.1.3-3.8 1.8-3.7 2.4-7.6 2-12 2h-8.9l-9.2.2h-8.6c-6.2 0-9.7-1.5-14.6-5.4-3.1-2-5.9-1.9-9.5-1.8-7-.2-11.4-1.6-16.5-6.5l-1.8-2.8c-2.8-2.8-4-2.5-7.9-2.6A23 23 0 0 1 785 851l-11.3-.3c-4.6 0-7.3 0-10.7 3.3-4 1.3-7.8 1.2-12 1.3-4 1-5.5 2.3-8 5.7a30 30 0 0 0 1.5 20q3.4 3.8 7.5 7l3.2 2.8c11.7 10 24.8 19 38.4 26.2l2.6 1.5 5.1 2.5a21 21 0 0 1 5.7 4c1 4 .5 7.5-.8 11.4q-4.4 6.3-10.2 11c-2 1.6-2 1.6-3.8 3.6a27 27 0 0 1-9.4 5l-2 .8-5.8 2.2-2.8 1c-3.6 1.3-6.4 2-10.2 2a77 77 0 0 0 4 27.3c1.5 4.2 1.8 8.3 2 12.7h2.8c12.6.6 12.6.6 17.2 5l2 1.8c1.6 3.3.9 5.7 0 9.2-1.6 2-2.4 2.9-5 3.3h-4.5l-7.4-.3H771c-1.9 0-1.9 0-4.9 1-5 .3-10 .5-15-1-3.3-1-3.8-.8-7 0l-6 .1H735c-2.9-.1-2.9-.1-5-.7-1.9-.4-1.9-.4-4.9.6l-5.2.1h-17.7l-11.4.1h-10.6c-4.7 0-9 0-13.6-1.3-3.5-.9-4.3-.8-7.5.1q-8.6.5-17-1l-4 1q-7.4.8-14.4-1c-3.6-1-3.6-1-6.6 0a67 67 0 0 1-15.4-.6c-2.6-.4-2.6-.4-4.8.5-6 2.3-13.6 2.4-19.5 0-2.7-1.7-4.8-3-6.3-5.9-.4-3.8-.3-5.5 1.8-8.8 2.2-2.2 2.2-2.2 5.2-3.2l10.3.7 2.7.3v-1.8c1-23.3 16.6-43 33-58.2l2-1 .2-3.2c1-5.1 3.5-7 7.8-9.8 3.5-1.8 5-2 9-2v-17l-7-2v-2.9l-.1-10.5v-11.1l-.1-4c-1-4.8-2.7-5.8-6.8-8.5-3.2-1.2-3.2-1.2-6.5-2-7-2-7-2-9.6-4.6a16 16 0 0 0-8.5-3.9c-5-1.2-6.9-2.8-10.4-6.5-6.1-3-12.4-3.5-19-3.7l-9-.3-.4 3.2q-1.9 11.7-11 19.4a35 35 0 0 1-12.9 3.2c-5.2.7-7.2 2.3-10.7 6.2-5.4 4.7-10.3 4.6-17.2 4.7l-5.9.1h-2.6c-2.3.2-2.3.2-5.3 1.2l-8 .1h-2.3c-5.4 0-5.4 0-7.7-1.1l-5.5-.2H473l-7-.1c-6.7-.2-11.6-1-17.6-3.8-4.7-1.7-9.6-1.5-14.6-1.5-17 0-17 0-22.6-4.9-3.3-3.8-3.3-3.8-3.3-6.5l-1.8.5c-9 2-17 2-25.2-2.5-4.8-5.2-5.1-8.1-5-15h-2.2c-6.3-.5-10.7-1-15.8-5a22 22 0 0 1-4.6-12.3c.6-3.7.6-3.7 2.5-5.5q6.6-4.5 13.7-8.5l3-1.6 2.7-1.6 2.5-1.5c2.2-1 2.2-1 5.2-1v3q-3.7 2.6-7.6 4.9c-14.8 8.8-14.8 8.8-16.4 12.1-.4 3.8-.3 5.5 1.8 8.8 3.4 3.4 6.5 3.4 11.1 3.5 9.9 0 18-3.3 26.4-8.3 1.7-1 1.7-1 3.7-1v-17l-16-1c-.4-3.4-.7-5.7 0-9 2.2-2.5 4.9-3.7 7.8-5.2l5-2.8 2.6-1.5q6.4-3.9 12.3-8.5l2.5-1.8 6.8-5.2 2-1.5q13.7-10.6 27.1-22l7.6-6.2 13.5-11.2 10.2-8.5q6.5-5.2 12.6-10.6l18-15 2.6-2.1c5.7-4.4 9.2-5.7 16.4-4.9v15h16v4l19 1v-11c5.5-1.2 5.5-1.2 9 0 3.2 3.7 5.5 7.8 7.9 12a77 77 0 0 0 17.1 22l3 2.4c9.2 7 17.5 8 29 7.6l1-2.4c1-2.6 1-2.6 2.4-4.5 1.7-2.2 2.6-4.5 3.6-7q2.5-4.9 5.7-9c2.9-4.5 2.5-9 2.5-14v-7c-.2-2.4-1-4-2.2-6.1h-3.4l-12.4-.4H626l-7.7-.3h-2.4c-5.7-.2-5.7-.2-6.8-1.3l-.3-8.8V689a10 10 0 0 1 3.3-6.1c2.1-.9 2.1-.9 4.5-1.4l5.5-1.2 8.5-1.8 8.6-2.4a49 49 0 0 1 34.8 4M963 825l-7 12c4.6 1.2 6.6.6 11-1 2-1.2 2-1.2 3-3 .2-3.7.2-3.7 0-7zm-26 17v20l4-2c2 .1 2 .1 4.2.6A21 21 0 0 0 959 858c3-2.4 4.8-4.7 5.3-8.6a14 14 0 0 0-9.3-7.4c-6-.6-12-.2-18 0m-546 5.4-3.3 1.9c-2.7 1.7-4.3 2.8-5.6 5.8-.2 4.2 1.6 7.4 3.9 10.9 5.2 2.6 13.5 1.8 19 .1l6-3.1c-1-3.5-2.8-6.3-4.8-9.3l-1.5-2.1c-1.7-1.6-1.7-1.6-4.4-1.8l-2.3.2 2-2c-.4-2.1-.4-2.1-1-4-3.2 0-5.3 1.8-8 3.4m22 17.6c-.7 3.3-.7 3.3-1 7 1.8 2.6 3 3 6 4h8l-3.5-3.5-3.1-3.2-4.4-4.3zm512 5 3 1 5-5c-3.3 0-5.4 2.2-8 4m-123 65 1 2Zm-2 3 1 2Zm-186 25-1 4 4-2-1-2zm-4 9c-1.2 3-1.2 3-1.9 6.6l-.7 3.6-.4 2.8c5.3 0 5.3 0 8-1a30 30 0 0 0 4-14c-3.6 0-5.8.4-9 2m-5 1-3 5.9-1.7 3.3C599 985 599 985 599 987l4-1 3-13zm16 4v5h3l-2-5zm33 7v17q25.5 1.1 51 1v-11.5l.1-2.5v-2.2c-.1-1.8-.1-1.8-1.1-2.8l-4.6-.1H657c-2 .1-2 .1-3 1.1m-34 3v13l10 2 .2-5.8.1-3.2c-.3-3.3-.8-4.7-3.3-7-4 0-4 0-7 1m-13 2-.2 5.9v3.3l.2 2.8c3 2 3 2 5.7 1.6l2.3-.6.6-5.9.3-3.3c.1-2.8.1-2.8-.9-4.8a26 26 0 0 0-8 1m-10 3c-.6 2-.6 2-1.1 4.6l-.5 2.5-.4 1.9 7-1v-9c-3 0-3 0-5 1m161.4 5.3c-2.4 2.7-2.4 2.7-2.4 5.7h8l-1-8c-2 0-2 0-4.6 2.3M634 997v6l4-2zm-39 9c8.1 8.6 8.1 8.6 13.3 9.3q3.3 0 6.7-.3l2-2-5.1-4-3-2.2c-5-3-8.6-3.4-13.9-.8m43 0v3l6.8 4.7c3.3 2 5 2.4 8.8 2.4h2.5l1.9-.1q-4.6-3.6-9.4-6.7l-2.8-1.9a12 12 0 0 0-7.8-1.4m126 2v2c1.6 1.5 1.6 1.5 3.8 3l2.2 1.7c3.4 2.2 6.2 2.4 10.2 2.4h2.7l2.1-.1 2-4c-1-3-1-3-3.3-4.7a32 32 0 0 0-19.7-.3m-33 7c3.2 2.1 4 2.2 7.7 2.1h2.4l1.9-.1v-3c-4.9-3.3-7.1-1.6-12 1M298 854c1.8 1.7 1.8 1.7 3 4-.2 2.1-.2 2.1-1 4.5l-.9 2.6q-3 7.8-6.4 15.5l-2.9 6.9-5.1 11.8-2 4.5-.9 2c-1.6 3.9-2.4 6.3-.8 10.2q2.5 3.9 5.4 7.4l3.3 4.3 1.7 2.2 8.6 11.8c3.2 4.5 4.1 6.7 4 12.3-2.5 1-2.5 1-6 1-8.6-4.9-15.3-15.2-21.4-22.7-3.4-4.2-3.4-4.2-5.6-5.3l-.4 2.2a40 40 0 0 1-2.6 7.6l-1.2 2.8-1.2 2.8L261 953l-1 2c-.6 1.7-.6 1.7-1 5q2.3 4.4 5.7 8c9.5 11.7 9.5 11.7 9 17.4l-.7 2.6c-2 .8-2 .8-5 1-6.6-3.6-10.6-9-15-15-2.8 3.4-4.6 7-6.4 11l-1 2.2-3.2 7-2.2 5a3265 3265 0 0 0-28.5 64.3l-1.5 3.4-2.7 6-6.4 15.4c-6 15.3-6 15.3-12.8 19.3-2.3.4-2.3.4-5.3-1.6.5-7.2 2.2-12.9 5-19.5l1.3-3.2q10.4-24.8 21.5-49.5l5-11.3 2.4-5.6 6.1-13.9q5.1-11.6 10.5-23l1.6-3.6 3-6.2a31 31 0 0 0 2.6-7.2c-1.4-3.2-1.4-3.2-4-6l-2.6-3.2-2.8-3.2-7.4-8.7A19 19 0 0 1 221 929c2-2 2-2 4.6-2.6 8.4 1.4 13.4 9.9 18 16.3l3.4 4.3h2l12-25.9c1-3 1.3-4.2 0-7.1l-5.6-7.5-4.4-5.5-1.6-2-6.5-8c-6.2-7.8-6.2-7.8-6-12.7V876l.1-1.9c3.6-.6 5.5-.9 9 0a63 63 0 0 1 11.4 12.8l5.3 7c2 2.6 3.5 4.3 6.3 6.2a444 444 0 0 0 15-32.3l1-2.4 1.8-4.4c2.3-5.9 4.8-7.7 11.2-6.9"/><path fill="#003884" d="M704 594c17.9-.6 37 .4 52.3 10.8 4 2.7 7 2.6 11.7 2.2l-.6-3-.4-3c1-1 1-1 3.5-1 15.4.8 35 3.7 46.6 14.8 4 3.1 8 3 12.9 3.2v-5c8.5-3.2 21.6 3.8 29.4 7.3A57 57 0 0 1 876 631c2 .6 2 .6 4.3 1q5 1 9.7 3l1-3c6.2.5 11.1 2 16.8 4.6l2.3 1A68 68 0 0 1 936 656v2l3.2-.1c3.5 0 5.6.6 8.8 2.1l1-2c14.7 1.8 29.6 14.2 39 25 3 4.3 3 4.3 3 7l6-.1c2 .1 2 .1 5 1.1l1.9-.6c4-.7 6.9 2.3 10 4.4q7.4 5.3 14.1 11.2l2 1.7a57 57 0 0 1 12 17.3v2l2.8-.1c3.2.1 3.2.1 6.2 2.1l4-2a76 76 0 0 1 32 41v2l2.9-.1c3.1.1 3.1.1 5.1 2.1l2-2c5.8.5 9.5 6 13 10 8.5 10.5 15.7 21.1 16 35l2.8-.1c3.2.1 3.2.1 6.2 2.1l4-2c5.3 4.6 9.4 9.7 13.3 15.5l1.2 1.9c6.5 10 10 18.6 9.5 30.6l1.9.8c2.1 1.2 2.1 1.2 4.1 4.2l1.8-2c2.2-2 2.2-2 4-2 3.3 1.5 4.8 4.3 6.6 7.3l1.2 1.8c6.7 11 11.8 22 11.7 35 .1 4.1.6 5.7 3.2 8.9l2.5 2 1.3-1.6c1.7-1.4 1.7-1.4 3.6-1.4 5 2.3 7 10 9.1 15l.8 1.9a60 60 0 0 1 4.1 28c-.3 5.7.3 8.6 4.1 13.1l5-3c3.4 2.6 4.3 6.1 5.6 10l.6 2.1a79 79 0 0 1 4 24.5v2.2q.1 5.4-1.3 10.5c-.9 3.7-.9 3.7.5 6.7l1.6 2 5-3c3.6 4.8 5.2 9.2 6.7 15l.6 2.3a59 59 0 0 1-.3 35.7l2 3 1 5 1.2-1.6 1.8-1.4c2.6.4 2.6.4 5 1l1.4 5.6.8 3a67 67 0 0 1-.5 37.4c-1.8 5-1.7 8 .3 13l6-2c3.2 5.3 2.3 11.5 2.3 17.6v3.7c0 11.1-2 20-7.3 29.7-1.2 3.7-.6 6.2 0 10l7-1c.5 17.7-.8 32.5-10 48l-2 2c-.2 2-.2 2-.1 4.1l.1 3.9 3-2h5c.7 16.7 0 33.8-10 48l-1.7 1.5c-1.8 2-1.6 3.5-1.5 6.2v2.4l.2 1.9 7-1a67 67 0 0 1-14.2 46.3l-2.8 2.7h-2v3.9c.1 3.8.1 3.8-1 6.1l3.4-.6 3.6-.4 1 1a53 53 0 0 1-3.7 15.8l-.8 2.1c-3.9 9.8-9 22.7-19.2 27.3l-2.3.8v2.8c0 3.2 0 3.2-1 6.2h6c2 6-3 12.9-5.6 18.3a61 61 0 0 1-18.2 23.3c-4.6 3.3-6.5 7-8.2 12.4l5 1a32 32 0 0 1-5 14.8l-1.3 2.1c-5.3 9-12 19.3-21.7 24.1-.6 1.7-.6 1.7-1 3.9-.6 3-1.2 4.4-3 7.1h3c-1.4 13-14.4 25.2-23.9 33.6-7 5.4-7 5.4-11.1 5.4q0 1.4.3 2.8c.5 11.1.5 11.1-3 15.8l-4.3 4.4-3 3.2a72 72 0 0 1-28 19.8h-3q0 1.1.3 2.3c.5 9.6.5 9.6-3 13.8l-4.3 3.9-2.7 2.4c-10 8.8-22.3 19-36.3 18.6l.3 2.4c.5 8.2.5 8.2-1.5 11.6l-10.2 7.5a85 85 0 0 1-38.6 15.5l.1 2.2c0 4.2 0 7.5-2.8 10.8q-4 2.9-8.3 5l-1.9 1c-12.3 6.7-24.1 11-38.1 12.6-3 .4-3 .4-4 1.4l.3 1.8c.2 3 0 4.5-1.3 7.2-14 10-32.4 14-49.3 14.5l-2.5.1-2.3.1c-1.9.3-1.9.3-3.9 2.3h-4v2l4 2v3a91 91 0 0 1-53.7 9.4c-3.2-.4-4.5-.4-7.2 1l-3.1 1.6 3 1.8 3 2.2v4a96 96 0 0 1-36.9 7.2H790q-5.7.1-11.1-1.3c-4-1-6-.9-9.9.1l-2.9.6-2.1.4 1.5 1.3c1.5 1.7 1.5 1.7 1.5 4.7a80 80 0 0 1-50.6 1.8 32 32 0 0 0-12.5-1.5c-3.9-.3-3.9-.3-6.4-2.8l-1.5-2.5-2.4 2c-3.8 3-5.8 3.2-10.6 3l-1-1c-7-.9-12.7.6-19.2 3.2-4 1.1-6.6.2-10.4-1-4.5-.3-7.6 1.1-11.7 2.8a79 79 0 0 1-45.7 0c-1.3-2-1.3-2-2-4l2-3c-4.7-2-8-2-13-1a92 92 0 0 1-51-4l-1-3c1.4-2.3 3.2-4 5-6-4-2.2-6.7-1.9-11-1.3a95 95 0 0 1-52-8.7c.3-1.9.3-1.9 1-4l3-2c-5.4-2.8-8.9-4.6-15-3-13 1-26-3.5-38-8l-3.1-1.1c-2.7-1.1-4.7-2-6.9-3.9-1-3-1-5.8-1-9-1.5-1.5-3-1.3-5-1.5-16.6-1.7-38.8-6.8-50-20.5-.4-2.6-.4-2.6-.2-5.2v-2.7l.2-2.1-3-.3a82 82 0 0 1-47.5-21.5c-2.8-4.1-2.2-8.5-1.5-13.2l-3.3-.2c-16.6-2.3-29.8-13.8-41.7-24.8-2.4-3.5-2.2-5-2.1-9.2v-3.3l.1-2.5-3.1-.3c-12.4-2.2-21.3-11.2-29.9-19.7l-2.3-2.2-4.7-4.8-1.7-1.8c-1.8-3-1.4-5-1.2-8.5-.2-3.5-.2-3.5-1.1-6.7-2.7-2.3-5.4-3.6-8.6-5.2a70 70 0 0 1-21-21.2l-1.4-1.7a20 20 0 0 1-4-10.9l3-1-1.5-2.2c-1.6-3-1.8-4.5-1.5-7.8l-2.2-.8c-13-5.7-21.8-21.5-28-33.7-.9-2.7-1-3.9.2-6.5l3-1-.9-1.7-2.2-4.3c-.9-2-.9-2-.9-4l-2.2-.8c-12.7-5.6-20.3-22.5-25.8-34.5-1-2.7-1-2.7-1-6.7l7-1-2-3-.1-2.3c-1-3.2-1.8-3.5-4.5-5.3-11.7-8.3-19-24.7-22.4-38.4v-5c4.8-1 4.8-1 7-1l-1-2v-7l-1.8-.8c-9.2-5.1-13.3-18.7-16-28.2a52 52 0 0 1-2.2-19h7c0-6.5-1.4-10-5.5-15-8-10.1-9.7-24.5-9.6-37v-2l.1-5c6.8.9 6.8.9 9 2a28 28 0 0 0-4.9-13.4c-9.1-13-10.7-29.1-10.1-44.6 5.8-.1 5.8-.1 8 1a36 36 0 0 0-5.6-19.1A36 36 0 0 1 68 1189l-.3-2.4c-1-8.8-1.3-17.8.3-26.6 2.6-1 3.6-1.2 6.1 0l1.9 1c.3-6.5.1-11.9-2.2-18-4.6-12.5-2.2-29.7 2.2-42h6q1.1-5.8 1-11.6c-.4-16.7 1-30.8 7-46.4h7v-2.4c-1.2-40.2-1.2-40.2 8-53.6l1.8.6c2.7.5 3.8-.3 6.2-1.6v-1.9a114 114 0 0 1 10-48.1l1-2.3c1-1.7 1-1.7 4-2.7h3l6-1-.1-2.7c-.4-18 6.7-32.2 16.1-47.3 1.6-1.6 3.7-1.3 6-1.5 4.8-.4 4.8-.4 7-1.5q.6-3 .8-6.3c1.8-13 7.8-23 15.2-33.7l1.6-2.7a16 16 0 0 1 5.4-5.3 59 59 0 0 1 14 0l-.2-1.8c-.7-12.4 6-22.5 13.2-32.2l1.2-1.7c7.2-9.6 7.2-9.6 13.4-11.3a58 58 0 0 1 9.4 0l.4-2.3c3.7-16.8 15.3-29.9 28.4-40.5 2.2-1.2 2.2-1.2 4.4-.8l1.8.6 1-1h8l.3-2.2c3.2-13.2 16.7-23.9 27.1-31.6l1.8-1.3c2.8-2 4.2-3 7.7-2.6l2.1.7 1-1h9l.8-2.2c5.2-12 17.2-20.2 28-26.9l1.8-1.1c6-3.6 11.5-3.8 18.4-3.8 3.1-.3 4.6-.6 7-2.7l3.7-4.8A84 84 0 0 1 427 639h4.1c13.3 0 13.3 0 17.6-2.6l3.9-4.1c7.4-7 19-10.4 28.6-13.4l2-.7c4.8-1.4 7.3-.9 11.8.8 7.9 0 13.8-2.1 20.2-6.4 11.4-6.5 25.9-9 38.8-8.6 1 3 1 3 1 6 6.4.7 9.4-.4 14.4-4.3a56 56 0 0 1 23.7-8.5c8.3-1.5 16.5-1.6 24.9-1.2a17 17 0 0 1-4.5 10.8c-3.5 4.1-3.5 4.1-4.5 6.2l2 .2c4 1 6.8 3.3 10 5.8-.5 3.9-2.3 5.6-5 8.3l-2.3 2-1.7 1.7 2.4 1.8 3 2.5 3.1 2.3c2.4 2.3 3.2 3.2 3.5 6.4a42 42 0 0 1-18.8 4.1h-10.5q-15 0-29.7-1.1v5l-5.3 1.9-3 1a104 104 0 0 1-31.9 3.2h-4.6L509 658v6c-17.5 9.6-35.4 11.4-55 11l.2 3.8c0 4 0 4-1.6 6A90 90 0 0 1 402 698l.4 2c.4 4 .5 6.8-2 10.2-12 10-30.6 19-46.4 17.8l.1 2 .1 2.7.2 2.6c-1 6.4-7 10.1-11.8 13.8-9 6.7-21.1 13.9-32.6 13.9l.4 1.7c.7 5.5-.3 8.8-3.7 13.1A81 81 0 0 1 273 802h-2l.2 1.9c.5 9.5-3 14.6-9 21.6A84 84 0 0 1 237 846h-3v33l-16 1c-6.2 4.4-6.2 4.4-8.8 6.9-2.2 2.1-2.2 2.1-4.5 3L203 891c-.3 2.5-.3 2.5-.2 5.6A54 54 0 0 1 186 930l-5 3.8c-2.9 2.4-3.9 3.6-4.6 7.4l-.3 7.2c-.5 14-9.4 28.9-19.1 38.6l-.1 4.1c-.3 15.1-2 32.7-12.4 44.7-1.8 2.7-1.9 4.3-1.8 7.5v6.4c-.4 13.8-2.2 31.8-12.7 42.3a138 138 0 0 0-.3 12c-.4 25.5-.4 25.5-5.8 36.1-1.3 4-1 7.9-1 12.1l.2 14.1c.3 14.5 0 26.4-7 39.3-1.7 4-1.4 7.2-1.1 11.4l1.2-1.6 1.8-1.4c2.7.3 2.7.3 5 1 3.6 16.6 5.3 33.6-2.7 49.3-1.3 2.7-1.3 2.7-.5 5.6l1.2 2.1 3-2h4c6.3 13.8 4.5 29.8 1 44l-1 2.7c-1 2.4-1.2 4-1.1 6.6l.1 3.7 1.8-1.6c2.2-1.4 2.2-1.4 4.2-1.3 2 .9 2 .9 3.2 2.9l1 2.5.9 2.5c3 9.6 3.1 18.6 3 28.6v4.5l-.1 10.9h6a92 92 0 0 1 11 51l1.8-.2c6.6-.3 6.6-.3 9.4 2l1.5 2.4 1.7 2.8 1.6 3 1.7 3a76 76 0 0 1 7.3 39l2.5-.5c3.9-.4 6.7-.5 10.5.5a50 50 0 0 1 9 14l1.6 3q7.2 14.1 6.4 30l2-.2c6.7-.5 6.7-.5 9.9 1.2q2.8 2.8 5.1 6l1.2 1.6A65 65 0 0 1 246 1570l1.7-.2c5.9-.4 9 .6 13.4 4.5l1.9 1.7 1.7 1.5c3 2.7 5 5 6.9 8.7 4.7 8.9 4.7 8.9 9.5 10.5 6.1 1.1 12.3.8 18.5.6h5.6l13.8-.3-.1-3.2v-4.1l-.2-2.1c0-2.9 0-5 1.5-7.6 2.5-1.4 4.4-1.3 7.3-1.3h3.3l3.4.1 11.8.2-.1-3.7q-.1-9.7 6.5-16.8 4-2.3 8.6-3.5v-3h26l-1-29h2v-22.2c.2-19.7 0-38.5-6.4-57.4q-1.1-4.6-1.6-9.4l-8 3-2.3.8a31 31 0 0 1-18.8 2.3c-3.4-.9-6.4-1.1-9.9-1.1q-.3 12.2 1.7 24l.5 3.3a235 235 0 0 0 15.3 51.9l2.3 5.5a42 42 0 0 1 2.2 9.3l-3 1c-13-30.8-25-64-25-98l-2-.5a37 37 0 0 1-22-15.5c-12.8-22-12.4-52.2-13.6-76.7l-.4-7-1.1-21.7q-1-19.8-1-39.6l-.1-4.2c-.2-18.2 2.6-33.7 8-51l2.9-9.1q4-13.8 9.4-27.2c1.8-4.8 2-9.2 2-14.3V1157l-.1-10.1-1 2.1-4.6 9.7-1.5 3.4c-7.3 15.3-15 28.7-31.5 35.2-10.5 1.8-10.5 1.8-14.6-.8a74 74 0 0 1-9.8-10.6q0 22.8.8 45.7l.2 7.3.7 21.5.3 8c2.1 61.6 2.1 61.6 3.6 91.6l.2 3.5a704 704 0 0 0 2.2 31.5l.2 2.4a34 34 0 0 0 4.7 16.4 34 34 0 0 1 5.1 24.1 13 13 0 0 1-6.7 6.4c-4.3.8-8 .8-12.3-.4-3.6-2.7-5.2-4.7-6-9a52 52 0 0 1 4.8-24.8c3-7.3 2.3-14.5 2-22.3l-.2-4.7-.5-10.1-1.1-28.3-.1-3.1a3639 3639 0 0 1-1.8-58.4l-1-41.8q0-9-.4-17.9l-.2-10.8-.4-16-.2-5.5a51 51 0 0 0-6.8-28.5l-4.3-8.2q-3-5.4-5.7-10.9l-1.4-2.6c-9.3-17.8-9.3-17.8-8.7-25.1l4-4c-.4-3.5-1.5-6.2-3-9.3a46 46 0 0 1 2.2-34.8c5-11.5 10.7-22.8 22.7-28.2q5.5-1.7 11.1-2.7l2.8-.8c3.1-.3 4.7 1 7.2 2.8 3.2 6.3.2 15.5-1.1 22l-.7 3.3c-1.6 7.9-3.9 15-7 22.4-3.5 10 1.6 19.8 6 28.8q2.8 5.8 5.8 11.5 7.4-26.7 13.8-53.7l1.3-5.7 1.7-7.1.7-3.3.6-2.8c1.8-4.7 5.6-6.3 9.9-8.4l1.8-.9q13.5-6.7 27.6-12.2a81 81 0 0 0 14.6-7.9 99 99 0 0 0-5.1-12.9c-3.2-7.7-1.8-15.6-.4-23.6l.4-2.5 1.1-6-1.9-.2-2.4-.2-2.5-.3c-3-.4-4.4-1-6.2-3.3-.7-3.2-.7-3.2 0-7 5.6-8.5 16-12.9 24.8-17.4a14 14 0 0 0 5-6.4c4.3-7.6 11.2-11.3 19.2-14.2a38 38 0 0 1 28.3 3.4c6.1 4.3 8.4 8.5 10.7 15.6l3 .5c12.3 2.1 22 6.4 31 15.5 2.3 4.1 2 5 1 10l-23-1 .5 9.8c1.5 32.8 1.5 32.8-2.5 43.2l3 3.3 1.6 1.8c7.1 5.7 16 7.1 24.7 8.8a33 33 0 0 1 15.7 8.1l3.4 2.5c16.2 12.2 16.2 12.2 17.6 19.5q17.4-8 34-17l4.2-2c1.8-1 1.8-1 3.2-4.4 2-4.3 3.4-5.5 7.6-7.6l4.3-.5 3.7-.5 2-4a45 45 0 0 1 30.2 3.5c1.8 1.5 1.8 1.5 2.3 3.5l.5 2 4 2a109 109 0 0 1 27 24v2h18l1.1-4a46 46 0 0 1 22.5-24.3c14-6.6 26.8-6.7 41.2-2a50 50 0 0 1 28.2 27l1 2.3c15 1.4 15 1.4 19.4-1.8q2.6-3.5 4.6-7.2a58 58 0 0 1 37-20c14.8-.7 30-.8 44.2 4 2.6 1 4.5 1.2 7.2 1.2 5.8.5 8.6 3.9 12.6 7.8l6.2 5c1.8 2 1.8 2 3 5.5 2 3.8 3.2 4.7 7.1 6.2l2 .6 2 .7 5.7 2 5 2 .7-1.6A54 54 0 0 1 902 1055q5-1.5 10.3-2.3c6.8-1.3 13.3-3.5 19.7-5.7q4.1-1.4 8.4-2.1l2.6-.5 2-.4c2.8-9 3.7-19.2 0-28l-1.9-2.3A36 36 0 0 1 936 989c1.4-2 1.4-2 3-3h2l.7-3.7c3.2-16.1 3.2-16.1 8.3-22.3 3.2-4 4.3-7 5-12 .7-4.8 1.3-7.7 5-11l2-1.2c2-1.8 2-1.8 2.6-4.6v-3.5l.3-3.8v-2c1.2-32.2 1.2-32.2 11.1-42.9 5.8-5.2 10.4-6.3 18-6l1 1q-1 10.9-3.2 21.6l-.6 3.6A406 406 0 0 1 983 933l1.5-2.3c20-30.5 20-30.5 35.5-35.7 4.3-.4 7.8-.7 11.6 1.5l1.4 1.5c-.2 1.8-.2 1.8-1 4l-2.3 1.3c-3.4 2.2-4.3 4.3-6 8l-.9 1.8-2.7 5.9c-12.5 27.5-12.5 27.5-25.1 36 1.1 3.4 2 4 4.8 6.2 7.3 6.3 9.4 11.6 10.6 21.1.6 2.7.6 2.7 3.3 5.2 2.3 2.5 2.3 2.5 2.6 5a58 58 0 0 1-7.3 23.5c-.7 10.4-.8 22.6 4.6 31.8 3 2.8 6 3.5 10 4.3l6.5 1.4a37 37 0 0 1 23.2 15 60 60 0 0 1 6 27.3c.5 6.9 2.2 11.3 5.7 17.2 6.5 12 10.3 23.7 13 37l3-1c1.8-4.9 2.3-9.3 2.3-14.5v-63.2a19 19 0 0 0-2.3-8.3l-2-1c-2-1-2-1-2.9-3.7-.1-4.2 1-5.3 3.7-8.5 3.7-4.7 5.4-8.7 6.6-14.6.6-2.2.6-2.2 2.6-4.2 2.2-.2 2.2-.2 4.6-.1h2.5l1.9.1.1 1.8.7 8.4.2 2.9c.8 9 .8 9 4 12.9l6 4c5.3 4.3 6 12.4 6.7 18.8l.4 5.3.2 3q1 13.3 1.4 26.5c1.4 32 1.4 32 4.3 47.4l3.2 16.7q3 17.6 4.8 35.3l.3 2.7c1.1 12 1 23.9 1 35.8v3.6c0 17.8-.5 35.3-3.3 52.9l-.5 3.1c-8.3 51-30.2 101.8-52.2 148.2l-4 8.5a349 349 0 0 1-33.7 58.5 120 120 0 0 0-13.6 24.7l-1.1 2.8c-1.3 4.6-1.4 9.3-1.5 14l-.4 10.2 2-.1 2.8-.2h2.7c2.5.3 2.5.3 5.5 4.3v14l36-1 5-13c4.6-7.4 10-13.7 16-20l1.6-1.7c4-3.9 8-4.2 13.4-4.3l.5-2.7c1.5-7.3 3-13.8 6.5-20.3l1.6-3c8.4-15 8.4-15 14.4-18h9l-.1-1.8a72 72 0 0 1 11.1-39.2l1.1-2.4c1-2 1-2 3.9-4.6q6-.7 12 0l-.1-2.5a84 84 0 0 1 7.3-38.1c2-4.4 4.2-8 7.8-11.4 2.8-.5 5-.3 8 0v-1.8c-.5-17.4 0-35.2 10-50.2 3.1-.2 3.1-.2 6 0l-.2-3.3c-1.1-16.9-2-33 5.2-48.7h5c1-6 1.1-10-1.2-15.8a62 62 0 0 1 .2-37.2l3-2 5 3c1-4.6 1.6-7.5-.7-11.7-7.2-12.9-6.5-29.2-4.1-43.3.8-2 .8-2 2.9-3.3l1.9-.7 4 3c.6-5.6-.2-8.8-2.8-13.7a66 66 0 0 1-6.2-42.3l3-1q-3.3-13-7.7-25.8a82 82 0 0 1-4.4-25.4c-.4-17-.4-17-5.3-22.7a53 53 0 0 1-8.8-31.5c0-15.7 0-15.7-5.9-22.2a35 35 0 0 1-5.2-10l-1.4-3.7a53 53 0 0 1-3.4-18.4c0-11.5 0-11.5-4.5-16l-2.1-2a51 51 0 0 1-14.3-30.7V932c-.2-5.3-1.2-7.9-5-11.5l-8-6.5c-6.6-6.3-11-15-15-23v-2.8a32 32 0 0 0-1-10.2 32 32 0 0 0-8-5.4 63 63 0 0 1-24-26.6v-12l-2.2-.3c-13.7-3.3-26.1-16.5-34.2-27.6-2.6-5-2.4-9.6-1.6-15.1l-2.5-.3c-4-.8-7.2-2.3-10.7-4.2l-2-1A86 86 0 0 1 1026 773l-2.7-2.4c-6-6-6-6-6.8-10.5q-.1-3.5.5-7.1l-3.2-.2A72 72 0 0 1 972 730c-1-3.6-.8-6.4 0-10l-2.9-.3a80 80 0 0 1-45.9-18.9c-2.2-3.3-1.7-6-1.2-9.8h-2c-11.6.3-22-1.3-32.9-5.3l-2.4-.9q-3.4-1.2-6.7-2.8l-2.4-1a20 20 0 0 1-5.6-4c-.7-3-.4-5 0-8h-2c-19.2.5-35.2-1.4-53-9-1-1-1-1-1-3.6V654h-3l-11.1.2H795c-12 .2-25.1.3-36.1-5.2-.8-2.6-.8-2.6-1-5l-8.2.4-2.3.2-4.4.2c-2.1.2-2.1.2-4.5.7-5 1-10.2.7-15.4.7h-3.4c-7 0-14.3 0-20.8-3.2.5-4.3 2.9-6 6-8.6l5-4.4v-2q-3-2.7-6.2-5.1C702 621 702 621 702 617c1.9-1.7 1.9-1.7 4.4-3.2l2.4-1.6c2.2-1.2 2.2-1.2 4.2-1.2l-1.5-1.9-1.9-2.4-1.9-2.4c-2.8-3.7-4-5.6-3.7-10.3m4 3 2 5 2-1q8.9-.6 17.6 1.6l2.3.5A113 113 0 0 1 757 613c-1-3.8-2.5-6-6-8a91 91 0 0 0-24.7-6.7l-2.4-.4q-8-1.1-15.9-.9m-114.4 3.7-2.7.5A49 49 0 0 0 566 612l-1 4 3.2-1.6A124 124 0 0 1 610 602l1 3 3-6c-7-.2-13.5.3-20.4 1.7M716 603c1.6 2.7 2.9 4.7 6 5.6q3.6.6 7.4.9c7.9 1 14.7 2.6 22 5.6l2.6.9 2-1a74 74 0 0 0-40-12m56 0-1 2 3 5 1-3a96 96 0 0 1 30.1 9.1c3 1.4 5.8 1 8.9.9-5.8-6.6-16.5-8.6-24.7-10.7l-2.4-.7q-7.4-1.8-14.9-2.6m-178.6 3.7-2 .5q-13.6 3.6-25.4 10.8l2 1 7-2.7c7-2.8 13.6-4.3 21-5.1 4-.5 5.7-1 8.5-3.8l1.5-2.4c-4.4-.2-8.3.6-12.6 1.7m-53.4 1.5-3 .8-2.9.8-3 .8A97 97 0 0 0 516 616c3.6 1.2 5.9.7 9.5-.2l3.2-.9 6.6-1.8 3.1-.9 3-.7c2.8-.5 4.8-.2 7.6.5l1-5c-3.6-.1-6.6.3-10 1.2m220 2.8c.6 2.9.9 3.9 3 6 2.6-.4 2.6-.4 5-1l1-3c-1.2-2.2-1.2-2.2-3-4-3 0-3 0-6 2m19-1c1.1 2.5 2 4 4 6a35 35 0 0 0 18 1c-3.5-2.3-7-3.4-11-4.6l-2.2-.7c-3-1-5.6-1.7-8.8-1.7m-8 1-1.4 3.4-2.6 5.6 7-2c0-4 0-4-1.5-5.7zm-224 1 1 2Zm7 2c-.2 2.6-.2 2.6 0 5 1 1 1 1 3.4 1.3l2.6-.3c2-3 2-3 1.6-5.2l-.6-1.8c-3.5-1.2-3.7-1.2-7 1m152 4c2 5.1 5.6 7.3 10.4 9.7 14.1 5.2 31.7 2.3 45.6-2.7-1-2.7-1.7-3.8-4.3-5.3-15-6.1-37.8-14.4-51.7-1.7m-172-2v1h8l1-3c-3.8 0-5.6.5-9 2m32 6c4.4 1.4 8 .3 12.3-.9 12-3 23.7-4.7 35.7-1.1v2l-2.1.8c-2.9 1.2-2.9 1.2-5.4 2.7-4.9 2-9.6 2.3-14.9 2.7l-3 .2-7.6.6c5.3 4.3 10.4 3.5 17 3a29 29 0 0 0 18-10l1-2-4.2-2.4-2.4-1.4c-13.3-6.7-31.9.1-44.4 5.8m-16-7v4l2-1zm284 1v4l2 .3q8.6 1.4 16.8 4.2c2.5.6 3.9.3 6.2-.5l-7.1-2.9-2-.8C839 616 839 616 834 616m-244.7 5.3-2.7.4A64 64 0 0 0 573 625v1c11.9.3 23.6.6 35-3l1-2a62 62 0 0 0-19.7.3m158.3 9.7c-7 1.5-14 1-21.1.8h-3.1l-2.8-.1c-3.2.4-5 1.4-7.6 3.3v2c10 .4 19.6.3 29.4-1.8l2.5-.5c4-1 7-1.8 10.1-4.7a30 30 0 0 0-7.4 1m-150.3 3.5-2.4.3-1.9.2v2c3.6 2.4 5.4 2.2 9.7 2.1h3.6l2.7-.1 1-2c-4.6-3-7.3-3.1-12.7-2.5m108 2.9C704 639 704 639 704 641a72 72 0 0 0 39 0c1.9-2 1.9-2 3-4l-2.7.4A218 218 0 0 1 708 639l1-3c-2 0-2 0-3.6 1.4M894 636c1.6 3.3 5.1 3.9 8.4 5.2l2 .8c5.2 2.1 5.2 2.1 8.6 1l-7.2-3.5-2.1-1a20 20 0 0 0-9.7-2.5m-279 2-1 2c-2.5.6-2.5.6-5.6 1.1l-3 .5-2.4.4 1 2q7.6.3 15-1c-1.7-3.9-1.7-3.9-4-5m337 24c2.5 3 5.2 4 9 5-2.5-3-5.2-4-9-5m9 5 1 2 2-1zm47 29 1 2 2-1zm3 2 1 2 2-1zm43 34 2 2 12 12 2-1-6.3-6.5-1.8-1.9-1.8-1.8-1.6-1.6c-1.5-1.2-1.5-1.2-4.5-1.2m-785 11-3 4c3.9-1.7 3.9-1.7 5-4zm829 32c3.8 5.5 7.8 9.9 13 14a44 44 0 0 0-6-9.2l-2-2.7-2-2.1zm13 14 1 3v-3zm27 31c0 4.7 1.2 5.5 4.2 8.9q4 4.9 7.1 10.4 3.2 5 6.7 9.7c1-3 1-3-.3-6l-2-3.4-1.2-1.9q-5.4-9.5-12.5-17.7zm19 29 1 2Zm16 20-1 5 1.8.6c7 4.4 10.2 17.9 12.3 25.5q1.5 4.6 3.9 8.9h1a59 59 0 0 0-9.6-30.8l-1.1-2.1c-2-3.4-3.4-5.9-7.3-7.1m-199 21-2.2 7.7c-1.7 7.3-2 14.5-2 22v2.5q0 6.4 1.2 12.8c4.3-5 4.5-10.5 4-17q-.8-5-2-10h2l2 7h1q.4-11.6-2-23zm14 6q-5.5 12.3-8.8 25.4l-1 3.5c-2.4 9.2-2.4 9.2-2.2 14.1 3.5-3.1 4.5-6.7 6-11l.7-2.5q2.7-8.6 4.7-17.4l.6-2.3c.8-3.6 1-6.2 0-9.8m16 15c-18.8 23.5-18.8 23.5-18 33 3-.3 4.6-.6 6.7-2.7A37 37 0 0 0 999 924h2v3h2l1-5.2.6-3q.6-3.7.4-7.8zm13 4c-7.6 7.9-14 15.9-20 25l-5.7 7.9a16 16 0 0 0-2.3 6.1c11.9-3.7 17-13.3 22.5-23.6l3.7-7.4 1.2-2.2 1-2.1.6-1.7zm178 3 1 2Zm8 3-2 5 3-1 .9 2.7q.9 3 2.1 5.8a77 77 0 0 1 4.3 22.7l.2 2.5.2 2.3c.3 2 .3 2 2.3 5 4.5-8 1.6-17.5-.7-25.9q-2.7-9.4-7.3-18.1zm-1 9c-1.1 3.3-.9 5 .4 8.3l1 2.5 1 2.5 1 2.5 2.6 6.2c1.3-3.9.3-6.6-.7-10.4l-.6-2c-1-3.8-2.1-6.7-4.7-9.6m-843 14c-2 3-2 3-2 6q5.9-.5 11.6-2a53 53 0 0 1 38.4 3l2 1c.5-5.3-.7-7.9-4-12a27 27 0 0 0-21.4-7.5A45 45 0 0 0 359 944m-232-8c-8.7 18.3-8.7 18.3-7 25l9-24zm840 9 1 5c4.3-.5 6.2-1.7 9-5l-1.8 3.8-1 2.2c-1.2 2-2.5 3.3-4.2 5v2c4.6-1.5 6.4-5.1 9-9l-2 13c4-1 4-1 5.5-2.9 2.4-4.5 4.2-7.8 3.5-13.1h-2l-2 9-.1-2.1-.3-2.8-.2-2.7c-.4-2.4-.4-2.4-2.4-4.4-2-.3-2-.3-4.4-.2h-2.4c-2.2.2-2.2.2-5.2 2.2m-593 5.5-2.4.4-5.6 1.1v3l6.3 3.4 1.7 1c6 3.3 11.2 4.8 18 3.1 4.9-1.6 7.7-3.7 11-7.5-.7-2-.7-2-2-4-2.1-.8-2.1-.8-4.6-1.2l-2.5-.5c-7-.7-13.1-.1-19.9 1.2m594 1.5c-1 1-1 1-1 3.6v2.4c1.5-1.3 1.5-1.3 3-3v-3zm-7 2a30 30 0 0 0-15 19c-4 16.1 0 38.3 8.4 52.4q2.1 3 4.6 5.6l1.5 1.8c4.1 4 7.7 5 13.5 5.3 15.2-.5 15.2-.5 21-6.1 11.6-15.2 14.2-38.4 12-57a25 25 0 0 0-6-10l-1.7-1.9c-2.6-2.4-5-4-8.2-5.5-5.1.6-7.9 4.6-11.1 8.4l-6-2-2 2h-3l-.7-2.1-1-2.8-1-2.7c-1.5-2.7-2.5-3.4-5.3-4.4m-565.8 8.8a21 21 0 0 1-17.5.4l-9.1-4.4a22 22 0 0 0-17-2A62 62 0 0 0 330 968c-.8 2.7-.8 2.7-1 5 3.2 1.6 6.6 1.2 10 1.2l5.1.1 7.9.1a95 95 0 0 1 26.5 3c3.8 1 6.6.6 10.5 0l3.8-.6q3.3-.6 6.7-1.5c9.6-2.8 18.9-2.9 28.8-3h5.1l12.6-.3a29 29 0 0 0-19-16c-10.7-3.3-22.3 2.1-31.8 6.8M974 958v3h2v-3zm-4 3v4h2l-1-4zm245 9 2 7 2-1-1-5zm6 5 1 2Zm3.4 2.5-1.4 1.5 1 2 2-1 1.4 5.6.8 3a92 92 0 0 1 1.9 21.8v3.1l-.1 7.5 2 1c5.9-10.4 2.4-24.1-.5-35q-1.6-5.6-3.5-11c-2 0-2 0-3.6 1.5m-861.2 1.8c-4.2 6.1-2.8 16.6-2.2 23.7a37 37 0 0 0 4 10l1.4 2.9c2.8 5.5 5.2 9.9 10.6 13.1 4 1 7.9 1 12 1-6.6 1-11 1.6-17-2h-4c.3 3.4.7 4.7 3.3 7.1 14.2 10 14.2 10 22.3 8.7a26 26 0 0 0 11.4-7.8c0-4 0-4-1.4-5.7l-1.9-1.6-1.8-1.6c-1.9-1.1-1.9-1.1-4.1-.8l-1.8.7 1.8-1.8a43 43 0 0 0 12.4-33.7c-.2-4.3-.7-8.8-3.2-12.5-3.2-1.1-5.7-1-9-.4l-2.8.4-3 .4-3 .5-7.2 1.1v9.1q.2 6.1-1 11.9l5 2h-7c-1.7-3.4-.9-7.4-.7-11.1-.3-2.9-.3-2.9-1.8-4.8L373 987l-2 1h-6l1-4 9-2c-2.3-2.8-3.4-4-7-4.4-3 .4-3 .4-4.8 1.6m854.8-.3 1 2 1-2zm5 6a9 9 0 0 0-1.6 7.3l2.5 8 .9 2.8 2.2 6.9h1c.5-8.3-.4-16-3-24zm-284 5c-.5 7.3.9 14.9 5 21h2c-1-7.3-2.5-14-5-21zm71 0c-2.5 6.6-2.2 13-2 20 2.5-2.5 2.8-4.3 3.6-7.7l.8-3.2q.8-4.5.6-9.1zm-904 2c-6.1 16.5-6.1 16.5-4 24l3-9.7.9-2.8.8-2.7.8-2.5c.5-2.3.5-2.3.5-6.3zm846 34-.3 3.3-.5 4.4-.2 2.2c-.5 4.3-1.2 7.5-4 11.1-2.2 1.7-4.5 2.7-7 4 3 2 3 2 5 2l-1 9 2.8 1.3c3.2 1.7 3.2 1.7 4.5 3.8 2.5 2.7 4.8 2.4 8.3 2.7 9.1.8 9.1.8 11.9 3.9 1.5 1.3 1.5 1.3 3.4 1.2l6.1-.9 2 1c3 .4 3 .4 6 0 1.8-2.4 1.8-2.4 3-5l1-1 .3-5v-3.2l.2-3.4q.2-10.2 1.5-20.4l-1.6.4c-9 2.2-21.3 3.9-30 .2-3.9-2.4-6.4-6.1-9-9.8l-1.4-1.8zm280 0 1 7h2l1-3zm-893.7 5.5-2.5 2-1.8 1.5c5.1 14.6 20.2 27.5 31 38q8.3-7 16-14.9l2.3-2.3 5.7-5.8c-2.4-3.6-5-4.7-8.7-6.4q-5.5-2.5-10.5-5.8c-4.5-2.9-7.3-3-12.6-2.4l-3 .3-2.2.3-1-1.9a25 25 0 0 0-4-6.1c-4.6 0-5.3.7-8.7 3.5m77.4 2.2c-2 1.6-4.3 2.4-6.8 3.3q-4.8 2.7-8.8 6.4-2.8 2.2-6.1 3.6c1 5.1 4.3 8 7.7 11.8l1.8 2.2c4.6 5 4.6 5 8.6 5.2A52 52 0 0 0 436 1044l-6.9-7-2-2-1.8-2-1.8-1.7c-3.4-2.9-5 0-7.8 2.4m824.7-1.2-1.4 1.5c1 2 1 2 3 3a70 70 0 0 1 3.2 27.3l-.2 13.7h2c7.1-14.8 2-32.2-3-47-2 0-2 0-3.6 1.5M553 1037c-1.8 1.8-1.2 4.4-1.2 6.8.1 15 .1 15 3.2 21.2 3-1 3-1 4.2-3.2 2-7 .6-16.1-2.2-22.8-2.1-1.4-2.1-1.4-4-2m-292 2-1 3 4 4h2v-5zm301 1-.2 7.3v2c0 4 .4 7 2.2 10.7l-2 1 1 4h4a54 54 0 0 0 2-18v-8c-5.9-.1-5.9-.1-7 1m677 0c-4 6.1-.2 16.6 1 23.6l.6 3 1.4 7.4h1l.1-11.4v-3.3c.1-6.4-.3-12.1-2.1-18.3zm-1001.6 11.2c-9 10.8-14 27.6-13.7 41.5a48 48 0 0 0 5.3 16.3c7.1-.8 11.4-5.1 15.8-10.3 2-3 2.3-5.5 2.3-8.9l-.1-3.8-11 5 4.6-5.2c1.4-1.8 1.4-1.8 2.4-4.8l8 1 1 6c3-2 3-2 4-5.8.3-3.5 0-4-2-7.1-3.9-2.7-6.3-2.9-11-3.1v-2l9 1.4c3 .6 3 .6 6 2.6 1.6-1.2 1.6-1.2 3-3 0-2 0-2-1-4-5.1-3.7-10.9-3.7-17-4v-1l6.8-.1 3.8-.1c3.1.2 4.8.5 7.4 2.2.8-2.2.8-2.2 1-5-1.2-2.2-1.2-2.2-4-4a81 81 0 0 0-11-1c4-1.7 6.7-2.5 11-2 2.3 2 2.3 2 4 4h2c.8-2.2.8-2.2 1-5-2.7-4.7-6.3-6.7-11-9-6.7 0-11.9 4.6-16.6 9.2M574 1042a34 34 0 0 0-2 24h2c2.3-7.9 3-15.9 4-24zm-251.7-2.3-2.7 1q-1.3.7-2.8 1.2l-2.8 1.2-7 2.9a37 37 0 0 0 4.8 9 51 51 0 0 1 9.4 30.5v2.4q0 6.7-1.2 13.2a108 108 0 0 0-1.2 18.8v3q0 7.8.7 15.5c.8 9.7.6 19.3.6 29v5.7l-.1 13.9 11.8 3.2 2.6.7 2.3.6q3.6.7 7.3.5l-2.4-3c-5.2-6.7-8.7-14.5-12.6-22l1-1 1.2 2a98 98 0 0 0 14.8 19l1.8 1.8c3.4 1.8 6.7 1.3 10.4.9l7.8-.7c3.2-8.8 6-17.5 6-27h2v9l14-2 2-11.4.5-3.2.5-3.2.5-2.9c1.4-9.5 1.7-18.9 1.8-28.5v-4.3l.2-11.3.2-11.6.3-22.6v2.1c2.6 60.6 2.6 60.6 5 86.7l.3 2.6q1.3 13.5 3.7 26.6h17l3.8-7.5 8.2-16.5-1 2.8-1.5 3.6-1.4 3.6c-1.1 3-1.1 3-1.1 5a95 95 0 0 0 9.2 5.4q2.4 1.5 4.8 2.6c3-12.8 4.6-25.8 6.3-38.9l1.4-11.1 1-7.1.4-3.4a39 39 0 0 0-4-24.2q-1.2-3.4-2.7-6.7l-1.8-4.5-4.6-11.1 7-1c3.8-9.6 7.8-20.5 6-31-2.6-3.3-4.4-3.8-8.4-4.8-3.6.8-3.6.8-5 2.5l-2.8 4.7A54 54 0 0 1 412 1069c-4.6-1-7.4-4-10.6-7.4l-1.5-1.4a67 67 0 0 1-6.9-8.2c-2.5 1.2-4 2-6 4 .4 2.6.4 2.6 1 5l-3.2.7c-4.8 1.4-7.2 4.4-10.3 8.1l-1.6 2-1.5 1.8c-1.4 1.4-1.4 1.4-4.4 2.4-13.6-7.6-24-19.7-33-32-3.7-5-5.6-6.8-11.7-4.3M538 1044v3l4 1-2 1v3c2.4-.7 2.4-.7 5-2 .9-2 .9-2 1-4l-1-2zm267 2v2l1.9 1.8a10 10 0 0 1 3.2 4.9l.9 2.3 3 1 2-1c-.3-3.5-1-5-3.2-7.7-2.8-2.3-4.3-3-7.8-3.3m-713 1-2 7.1-.6 2A36 36 0 0 0 88 1068h1l2.7-11.3.5-2.5.5-2.2c.3-2 .3-2-.7-5m363.5 2a46 46 0 0 0-3.5 11.2l-1 4.5-.5 2.2q-1.5 6.1-3.5 12.1h8l3.4-6.6 1-1.8a38 38 0 0 0 4.6-20.6c-2-3-2-3-4.4-3.5-2.6.5-2.6.5-4.1 2.5m125.5-1a20 20 0 0 0-1 7.7v4.3a17 17 0 0 0 4-5v-7zm346.3 3q-1.5.7-3 1.7l-2.3 1.3v3a32 32 0 0 0 15-8c-4-1.7-6.1-.2-9.7 2m-108.3-2c-1 1-1 1-1 3 .5 6 1.6 10 5 15l4-1v-5h-4l1-1.7a12 12 0 0 0 1-7.3c-1.3-1.8-1.3-1.8-3-3zm190 1-1 3 2 3v-6zm-715 3c-1.2 3.4-1.2 3.4-1 7a27 27 0 0 0 8.8 6.7c4.8 2.8 8 6 11.4 10.3 1.8 2 3.3 3 5.8 4a44 44 0 0 0-12-29c-5-2.9-8.2-2-13 1m535-1-1 1c.6 7.6.6 7.6 3 10h7l-1.7-5-1-2.7c-1.3-2.3-1.3-2.3-3.9-3.2zm11 1-1 1a28 28 0 0 0 1 7c2 1.4 2 1.4 4 2l2-2c0-2.4 0-2.4-1-5-2.6-1.8-2.6-1.8-5-3m244-1c-2 1.3-2 1.3-4 3v4h6c.7-1.8.7-1.8 1-4-1.4-1.7-1.4-1.7-3-3m-154.7 4.4c-2.3 2.6-2.3 2.6-3.3 4.6a23 23 0 0 0 10-5v-2c-4 0-4 0-6.7 2.4M467 1055l-1.2 3.3q-3.8 10.6-8.8 20.7a63 63 0 0 0 28-4l2-2c-4.5-8.1-11-15-20-18m470.6 2a43 43 0 0 0-6.6 10l1 2 12-11-1-3c-3 0-3 0-5.4 2m-42.6 8c-2.1 2.8-3 4-2.8 7.6a34 34 0 0 0 2.8 6.4h24l-4.7 10a19 19 0 0 0-2.3 8.9c1 2.1 1 2.1 3 3.4l2 .7-1.2 13.4c-2.8 27.2.2 49.5 11.9 74.1l1.3 2.8 1.1 2.5c.9 2.2.9 2.2.9 5.2l-1.4-2-1.6-2h-2l-1 9.6-.3 2.7-.3 2.6-.2 2.5-.2 9.6q24-.6 48-3.5l17.6-2 3.5-.4a1097 1097 0 0 1 43.9-4.1l-1.8-3a48 48 0 0 1-5-12.7l-.8-2.2a36 36 0 0 1 .6-19.1l.6-3 1.4-6.1c3.8-17.8 3.6-32.3-1-49.9h2l1.4 3.7q7.3 18.4 15.6 36.3l-1 1-8-11-1 2c4 9 10.4 16.7 16.7 24.3l3.7 4.7c4.8 6 9.8 12 15.6 17h2q4.6-20.3 4-41a28 28 0 0 0-6.2 8.7l-2.8 5.3c0-3 0-3 1-5.6 4.6-15.6-4.5-32.6-11-46.4-3.8-8.4-6.5-16-7.6-25.2-2.6-20.1-2.6-20.1-10.5-26.9-7-4.6-14.5-7.7-22.9-6.9v2.3c0 2.7 0 2.7-.6 4.6-.6 3 .5 5.3 1.6 8.1l-2-.8-2.8-1.1-2.7-1.1-5.5-2 .6 1.7c5.8 16.7 5.8 16.7 3.4 25.3-4.7 2.3-10.6 1.4-15.4-.2-3.6-1.8-3.6-1.8-5.1-4.5l-.5-2.3 1.4-1.3q2.6-2.5 4.6-5.7c-.4-3.3-.4-3.3-2-6-2.1-1.4-2.1-1.4-4-2a30 30 0 0 0-1 10l-1.4-1.5c-1.6-1.5-1.6-1.5-3.6-1.5l1 13c-5-2-5.8-2.5-8.7-6.5a53 53 0 0 0-5.3-6.5l-5 14h-2l-5-9h-3c-1.4 1.7-1.4 1.7-2.7 3.9l-1.3 2.1c-1 2-1 2-1 4l-2-1-1.9-10.3-1.1-5.7-2-1-1.6 1.5-2.2 1.9-2.2 1.9c-2 1.7-2 1.7-5 3.7-1.6-5-.2-9 1-14l1-5-9 6c1-4 1-4 2.6-7.1l1.4-2.9-1-2-2.7 1.5c-3.3 1.5-3.3 1.5-7.3 1.5l1-4c-10.7-4.3-20-1.8-28 6m117-8v2l2-1zm-259 22-1.8 2.6c-2.2 2.4-2.2 2.4-5.2 3h-3.6l-3.9-.1-4-.1h-4l-11.5-.4h-3.3l-3-.2-2.6-.1c-2.1-.7-2.1-.7-3.7-2.9l-2.2-5a29 29 0 0 0-14.9-14c-9.5-3.1-18-3.5-27.3.2-7.7 4-13.6 9.3-16.7 17.4-1 1.9-1 1.9-2.3 3.6-2 .6-2 .6-4.6.7l-3 .2q-9.7.3-19.6.2h-4.3l-10.5-.1-.9-1.8A52 52 0 0 0 580 1064l-9 6 1.8 1a77 77 0 0 1 19.4 16.6c3.5 3.8 6 6.3 11.4 6.4h5.4l10.6.1h3.8c23.3-.1 23.3-.1 26.4-2.4 1.7-2.4 2-4.9 2.6-7.7 1.7-5.8 5.9-9.5 10.6-13a33 33 0 0 1 22.6-1.3A26 26 0 0 1 699 1084l1 3.8c1 3.2 1 3.2 3 5.2 9.1 1.7 19 1.1 28.3 1.2h3.6c18.3 0 18.3 0 23.2-4.8q1.4-1.5 2.6-3.2l2.8-3.2 2.5-3c6.9-7 16-12 26-13 12.1-.1 21.2 5.5 31.6 11.3 34.8 19 34.8 19 53.4 22.7l-1.2 3.4-5.8 16.6-1.1 3.2a334 334 0 0 0-19 86 76 76 0 0 0 17.9 53.2c4 4.6 7.8 8.7 13.2 11.6l4-6c-1.3-3-2.7-4.9-5.2-7a71 71 0 0 1-20.2-46.3c1.1-42.6 16.2-84.8 32.4-123.7l-3.9-.3a131 131 0 0 1-52.4-16.8 99 99 0 0 1-13.3-7.7c-25.2-17-49.3-8.4-69.4 11.8m335-16c-1.3 2.1-1.3 2.1-2 4l1.9-.2q8.5-1 17.1-.8l1 2-3.4.4-4.4.5-2.2.2c-3.7.4-5.9.8-9 2.9v3l2.3-.5c5.2-.7 10.4-.6 15.7-.5-11.5 4.2-11.5 4.2-17 6l1 4 3-.4 12-1.6c-2.5 3-5.5 4.3-9 6l-1 2 14-3-.1 3.6c-.3 13.7 1.2 26.3 5.1 39.4h1c.4-37 .4-37-.8-48.2l-.2-2.1c-.8-6-2.3-12.2-5.7-17.2-6-4-13.2-2.6-19.3.5m-76 0 4 4h2v-2c-3-2-3-2-6-2m-173.4 2.5-3.8.8-2.8.7c1 3 1 3 3 4.2l2 .8-1 2h15l1 1h5l-.9-4.4-.5-2.4c-.6-2.2-.6-2.2-2.6-4.2-5-.3-9.5.4-14.4 1.5m-546.6.5q-4.4 11.4-7.2 23.2l-.9 3.5-1.8 7-2.7 10.8-1.7 7-.8 3.2c-3 12.1-3 12.1-.8 16.4l1.5 1.8 1.6 2q4.3 4.8 8.8 9.1l4 4q-6.3-4-11.8-9.2c-5.1-4.8-5.1-4.8-6.2-4.8v19l-.4-4.2a106 106 0 0 0-10.9-39.2c-6.3-15-6.3-15-9.7-21.6h-1v49.6l-.1 4.4c-.1 32.5-.1 32.5 9.3 42.3 3.8 3.6 6.4 4.9 11.6 5.1 9-.3 14.5-4.9 20.6-11.3 8.6-10 14.4-21.8 18.9-34l1.5-4c2.9-7.3 2.7-14.7 2.7-22.4 0-8.7.4-16.8 2.9-25.2 1-4.3.5-7.5-1.4-11.5-5-8-12.2-18.5-22-21zm-205 2v5h1v-5zm854 0a19 19 0 0 0-3 12c3.7-1.5 5.4-3.5 7.8-6.6l1.8-2.5 1.4-1.9c-3-1-5-1-8-1m14 4c-2 2-2 2-2.3 4.5v6c.3 2.5.3 2.5 2.3 4.5a20 20 0 0 0 4-15zm11 1c-2.2 3.4-2.2 4.1-1.8 8l.2 2.6a9 9 0 0 0 3.6 5.4c2-3.2 2.2-5.5 2.1-9.2v-2.7l-.1-2.1zm13 3c-1 3-1 3 .1 6 2 3.2 3.5 4.4 6.9 6-.5-5-2-8-5-12zm266 5c-.8 3.3-1.1 4.7 0 8l5-1c.7-1.8.7-1.8 1-4-1.2-1.7-1.2-1.7-3-3zm-248 4c-1 1-1 1-1 3.6v2.4h3v-6zm261 3-3 2 .7 1.5a70 70 0 0 1-.7 42.5l-1 2c3.8-1.5 5.2-3.4 7-7 1.5-4.9 1.2-10 1.2-15v-3.1c-.2-18.9-.2-18.9-4.2-22.9m-8 2-5 1 1 5 5-4zm-726.8-20.4a327 327 0 0 1-26.2 13.8 79 79 0 0 1-28.6 7.8l-2.8.2-6.6.6.7 1.7c17 40.4 29.4 81.4 32.3 125.3l9-1q.3-11.6-1.1-23l-.4-3.1c-2-15.2-5.7-30-9.5-44.9l20.2 16.7 11 9.1q8.7 7.2 17.6 14 4.7 3.7 9 7.6c7.3 6.5 13 10.6 22.8 12.3a62 62 0 0 1 19.2 7.6c3.2 1.7 3.2 1.7 6.2 2.7l1.6-2.2q5.3-7.6 11.4-14.8a92 92 0 0 1 18 13q-4.7 7.8-11 14.5l-1 1.5 1 3 4 1 13-14c5.6 2.3 5.6 2.3 8.1 4.6l3.2 3 1.7 1.6 4 3.8q-3.4 5.7-7 11c4.3 2 4.3 2 6.9 1.9 3-1.3 4.6-3.3 6.8-5.8l1.3-1.5q6.7-7.6 13-15.6l5-6.2 2.4-2.8 1.6-2q-6-7.4-13.5-13.2l-2.1-1.7-8.2-6.6-7-5.3-13-10.6q-8.2-6.7-16.6-13-10-7.6-19.5-15.6-7.7-6.4-15.8-12.4l-11.3-9.1q-8.7-7.2-17.8-14l-10.7-8.4-1.7-1.3q-3.8-3-7.5-6.2c-2.3-1.6-2.3-1.6-4.3-1.7-3.1 1.7-5.3 4.3-7.7 7l-1.6 1.8q-6 6.7-11.5 13.6-4.6 5.6-9.7 11-5 5.6-9.8 11.6l-2.7 3.1-6-16.2-2-5.5-3-7.9-.9-2.5c-2.1-5.8-2.1-5.8-2.1-6.9l2.9-.6a187 187 0 0 0 49-21q8.2-4.5 16.6-8.8l2.9-1.4q3.6-1.7 7.6-2.2l-4-8c-9.4 0-18 6-25.8 10.6m285.4 24.8-1.5 1.9-1.6 2.1-1.8 2.4a1374 1374 0 0 0-29.2 39.2q-14.8 19.5-29 39.6-8.1 11.7-16.7 23l-8.8 11.9-10.8 14.7-2 2.5-8.2 11.3-1.5 2c-3.5 4.9-3.5 4.9-3.5 6l24 1-5-5c0-4.3 2.4-6.7 4.8-10l1.4-2c2.2-3 3.6-4.9 6.8-7l16 12c-.6 3.2-1.8 5.5-3.6 8.3l-1.3 2-1.1 1.7c7.1.7 7.1.7 9.6-1.3 1.4-1.7 1.4-1.7 3.4-4.7 6.8 3.9 6.8 3.9 9.2 5.5 3.6 2 7.1 2.5 11.1 3.2l2.3.4 5.4.9q8.3-10.1 15.8-20.8 6-8.4 12.2-16.7l13.5-18.5a3103 3103 0 0 1 34.5-47l1.8-2.4 5-7 1.7-2.2 1.4-2 1.2-1.7c.9-1.7.9-1.7.9-5.7-1.3-1.4-1.3-1.4-3-2.7l-2.1-1.6-2.3-1.6-4.7-3.5-2.4-1.8q-6-4.4-11.7-9c-26.7-20.8-26.7-20.8-30.2-17.5m445.4 2.6c-1.5 1.1-1.5 1.1-3 3 0 2.7 0 2.7.3 5.9q1.6 15-.3 30.1c6-6 5.3-17.7 5.3-25.6v-2.6c0-4.2-.2-7-2.3-10.8m-616 8c-3.7 1.8-6.5 3-10.7 3H624l-1.5 2-1.5 2c-3.7.3-3.7.3-7 0 .3-1.9.3-1.9 1-4l4-2c-7.8-.4-15.9.5-23 4l-2 6 10 5v2l-3 2a27 27 0 0 0 12.2 4.5c4.3.6 5.7 1.6 8.8 4.5a26 26 0 0 0 8 3l-2-2.4c-2.8-4.1-2.8-8.7-3-13.6l.6 2.1c2 6.3 4.3 10.6 9 15.2 1.4 1.7 1.4 1.7 1.4 5.7-2.5 2.3-2.5 2.3-5 4l1 3c6.9-1.2 6.9-1.2 10-3 1-2.6 1.6-4.8 2.1-7.5 1.5-7.2 1.5-7.2 4.9-9.5l-1.5 3.3c-1.5 3.7-1.5 3.7-1.5 6.7l7-1v2l12 3-3.2-6.2a23 23 0 0 1 1.5-15.2c1.7-2.6 3-4 5.7-5.6h2l-2.9 1.8c-3 2.2-3.8 2.9-5.1 6.2-1 5.8.2 10.3 2.8 15.5 1.2 1.5 1.2 1.5 4.2 2.5l2-1c-1 2.7-1.6 3.8-4.2 5-4 1.4-8 1.9-12 2.4-2.8.6-2.8.6-5.8 2.6v2l4-1v2h2l1 2 2.8-1.4c4.3-2 8.6-2 13.3-2.2 3.4-.5 5.3-1.3 7.9-3.4.7-2 .7-2 .8-4.2l.2-3.8.6 3.3c1.4 3.7 1.4 3.7 4.8 5.6 5.4 1.7 5.4 1.7 7.6 2.1l1-2 2 4 7-1 1-2-5-1 4-2c.4-3.6.2-4.8-2-7.7-2.4-4-2-5.6-1.2-10 .9-8.7-4.8-18-10-24.6a33 33 0 0 0-21-9.9q-17.4-.5-32.8 7.2m-393-1-7.2 4.8-2 1.3-5.8 3.9-3 2c-2 2-2 2-2.3 4.7.4 4 1.8 7.3 3.6 11l1 2.2 5.5 11.4c7.8 16.4 7.8 16.4 12.2 22.7h1q0-19.2-.3-38.4l-.1-5.3-.2-7.9v-2.4c-.1-3.8-.3-6.8-2.4-10m664 0c-3.3 6.9-6 13.6-8 21 3-2.7 5-6 7.2-9.4l1.1-1.7c2.2-3.4 3.2-5.8 2.7-9.9zm-831 1q-2.3 11.7-2.2 23.5v2.6q-.1 6 1.2 11.9h1l.1-2.4.8-11 .2-3.9q.6-10 2.9-19.7zm1015 3v12l2-2c0-2.4 0-2.4-.4-5.1q0-1.5-.3-2.8l-.3-2.1zm155 3 1 4Zm-796 9-4 30.1a314 314 0 0 0-3 51.9l.1 4.7.5 14.6.4 8.7-9.5-.6c-5.3-.3-5.3-.3-7.5-1.4l-4.4-.1h-13.3q-3.2.2-6.3 1.1v2l-19 .2h-15.8l-2.9.1h-5.1c-2.7-.4-4.1-1.5-6.2-3.3l-4 4-.6-2.8c-1.4-3.2-1.4-3.2-4.3-4.7l-3.8-1-8.4-2.2-4.2-1.2q-10.2-3-20.7-5.1c-6.3 12.4-6.3 12.4-6 20q7.5 3 15.1 5a240 240 0 0 1 46.9 18l2-1q1-4 1.6-8l.4-2.4 1-5.6c1 1 1 1 1 3.2l-.1 3-.2 3-.1 3.4-.2 3.3-.4 8.1-1.6-.8-7.2-3.7-2.5-1.3-2.5-1.2-2.2-1.2c-2-.8-2-.8-5-.8l.9 12.7.2 3.6.3 3.5.2 3.3c.4 2.9 1.2 5.2 2.4 7.9 2.8-.4 4.6-.7 6.8-2.4 1.2-1.6 1.2-1.6 1.2-3.6h2l-3 8c-3.4.3-5.4.4-8.2-1.4-4.6-6.6-4.3-16-5-23.7l-.2-3.2-.6-7.7-12.7-4.3-3.7-1.2c-21-7-21-7-29.6-6.5-3.5 7-2.1 17.6-2.1 25.3v3.5q.1 20.9 1 41.6v2c2 61.6 2 61.6 8.1 87.6l.5 2a43 43 0 0 0 14.4 24.8c13.3 7.7 32.6 6.4 46.9 3q4.3-1 8.7-1.2a15 15 0 0 0 10.5-4.6c4.2-7 5.5-15.1 7-23.1l.4-2q2.8-14.8 4.8-29.7l.9-5.8c.8-6.7.9-12.4-.6-19a51 51 0 0 1 2.5-28.4l1-1-.5 3.4c-1.8 17.1-.3 31 9.5 45.6l1.3 2 2.7 4-2-.6-2-.4c-2.4 2.4-1.2 8.7-1.2 12l-.1 3c0 6.7.6 12.8 3.3 19a20 20 0 0 0 5 4l3 3a22 22 0 0 1-12-11 65 65 0 0 1-2.2-32.5c.3-2.4.3-2.4.2-4.5-2.4-2.6-2.4-2.6-5-4-.8 3-1.2 4.5 0 7.3 1 3 1.3 5.1 1.3 8.2l.1 3.2.1 3.3c.2 8 .6 15.5 2.1 23.3q.5 4.3.3 8.6c-.1 5.3 1 7.8 4.1 12.1l2 3c5 3.3 10.1 2.7 16 2q6.6-1.6 13-4l-1 3c4.3-.5 8-1.2 12-3v-6l-2 .3c-7.8 1-14.7.7-21.3-4l-1.7-1.3 2.3.9c7.3 2.6 13 4.3 20.6 2.3 2.1-1.2 2.1-1.2 3-2.9q.2-4.6.1-9.3l-3.2.1c-16.2.4-16.2.4-21.8-3.1a24 24 0 0 1-4-6l1.6 1.5c6.9 5.7 12.3 6.3 20.9 6 3.2-.5 4.9-.7 7.5-2.5.9-2 .9-2 1.4-4.3l.6-2.6.6-2.8 1.3-5.3.5-2.6q.7-3 1.7-6c2.4-9.2 2.3-19 2.5-28.5v-2c.6-11.1.6-11.1-2.3-15.4q-3-3-6.3-5.5a199 199 0 0 1-29-45 139 139 0 0 0-13.5 15.3l-1.7 2-1.6 2c-1.2 1.7-1.2 1.7-2.2 4.7h-2l3.1-4.4 2.7-3.8q3.3-4.7 6.9-9.1l2.5-3 2.3-2.8c2.1-4 1.4-6.4.5-10.9l3-1.4 10-4.7 5.2-2.3 2.7-1.3 2.3-1c1.8-1.3 1.8-1.3 2.7-3.2.2-3.2-1.3-5.4-2.9-8.1a52 52 0 0 0-28 18l-1.7 2.2-3.4 4.5A252 252 0 0 1 394 1297c1.5-3.5 3.5-5.6 6.2-8.2 7.5-7.4 13.7-15.2 19.8-23.8-3-1-3-1-6.4-1.2-3.6-.8-3.6-.8-5.9-3q-2.8-4.6-4.7-9.8h4l.8 2.7a39 39 0 0 0 4.2 8.3c7.6-.8 13.2-3.8 19.9-7.2l3.5-1.8 3.3-1.7 3-1.5c2.3-1.8 2.3-1.8 3.3-6.8h23c14.2-23.6 4.8-56.8-1-82-3.5-14-8.7-27.5-14-41zm644 1-2 3.8-1 2a29 29 0 0 0-2.4 10.3l-.1 2.5-.2 2.6-.2 2.7-.6 8.7-.8 11.3-.2 2.7-1 13.8a103 103 0 0 0-.5 16.6c7.3-2.3 10.2-8.7 13.7-15.1a41 41 0 0 0 3.5-32.6l-.5-2.3-2.7-12.5-1-4.7-.6-2.3c-1.2-5.3-1.2-5.3-3.4-7.5m-196 4 1 2Zm4 4-4.2 7.4-1.2 2-5 9c-3 5.7-4.8 11.2-6.2 17.5l-.6 2.8c-11.6 55.3-11.6 55.3-1 73.3q2.9 4.2 6.2 8l2 2.5c3.4 3.8 6.2 5.6 11.4 6q6.3 0 12.6-.5c3.5-7.4 3.5-14.4 3.5-22.5v-33l.1-6.1a63 63 0 0 0-4.3-23q-3-8.6-5-17.6l-.8-3.5-1.7-7-3.8-15.3zm348 12c.4 2.6.4 2.6 1 5 1.8.6 1.8.6 4 1l3-2c.3-2.6.3-2.6 0-5-1-1-1-1-3.4-1.2-2.6.2-2.6.2-4.6 2.2m-547 5 1 4h2l-2-4zm546 1 2 5h4l2-3zm13.4 1.5-1.4 1.5h2c.5 13.8-1 25.9-6.2 38.8-.8 2.2-.8 2.2-.8 5.2 5.6-3.4 7.3-8 9-14 2-9.8 4.3-23.3 1-33-2 0-2 0-3.6 1.5m-545.4.5 1 2 1-2zm501 0a93 93 0 0 0 5 35c1.2-3.6.8-6.4.3-10.2l-.5-3.5-.6-3.8-.5-3.7c-1.6-10-1.6-10-3.7-13.8m-505 1 1 2 1-2zm-4 1v2h2v-2zm13 0v2h2v-2zm-330 1-2 17h5c.2-11.5.2-11.5-1-17zm313 0 2 2v-2zm13 0v2h2v-2zm13 0 1 2 1-2zm-17 1v2h2v-2zm-4 1v2h2v-2zm13 0v2h2v-2zm-16 1 1 2Zm12 0v2h2v-2zm13 0v2h2v-2zm525.4 1.4c-2 3.8-1.8 7.4-1.9 11.7a61 61 0 0 1-3 18.9c-.5 2-.5 2 .5 5a78 78 0 0 0 8-37c-2 0-2 0-3.6 1.4M717 1156v2h2v-2zm13 0v2h2v-2zm-28 2h5v-2c-2 0-2 0-5 2m12-1-1 2h2zm12 0v2h2v-2zm526 0v27c4.2-8.5 3.5-18 1-27zm-542 1 1 2Zm13 0-1 2 3-1zm13 0-1 2h2zm-17 1-1 2h2zm13 0-1 2h2zm-4 1-1 2 3-1zm-4 1-1 2 3-1zm-653 3c-.4 13.6-.5 27.3 5 40h1l-.4-7.1-.2-2q-.2-4.5-1-9-.6-5.2-.5-10.6v-4l.1-3.3v-3zm667 0-1 2h2zm-4 1v2l2-1zm-616 10-1.6 9.8-.4 2.7-.4 2.7-.4 2.5c-.2 2.4.1 4 .8 6.3a78 78 0 0 0 3-24zm989 0-1.6 3.5-2 4.6-1.1 2.3a50 50 0 0 1-8.3 12.6v2l-2.2.9-2.8 1.1-2.1.8c-1.9 1.2-1.9 1.2-2.7 3.4l-.3 2.7-.5 3.1-.4 3.5-.6 3.6-1.3 9.7-2.4 16.6-.9 6.4a2257 2257 0 0 1-42.6 211.4l-7.5 30.8-1 4.2-1.5 5.8-.8 3.2a12 12 0 0 0 .6 6.8 794 794 0 0 0 67-143 436 436 0 0 0 21-95l.3-2.6q1.2-12.6 1-25.2v-2.4q0-19.1-1.7-38.3l-.2-2.4c-2.2-26.9-2.2-26.9-5.4-30.1m-792 17c.5 1.8.5 1.8 2 4a65 65 0 0 0 17.8 4.7l2.6.4q4.7.8 9.6.9l-1-5-14.1-3.2c-5.8-1.3-11-2-16.9-1.8m939 6c-.2 2.6-.2 2.6 0 5 1 1 1 1 3.4 1.2 2.6-.2 2.6-.2 4.6-2.2-.4-2.6-.4-2.6-1-5-3.5-1.2-3.7-1.2-7 1m-941 3v3c11.4 3.3 23 6.3 35 6l-1-5-12-2-15.3-2.4c-4.5-.7-4.5-.7-6.7.4m908 2c-2.4 14.2-3.2 31.6 5 44h1a45 45 0 0 0-1.5-13.4q-1.9-8.3-1.8-16.7v-2.2c0-3.7.3-6.5 2.3-9.7l-2-2zm30 1c1.9 4.8 1.9 4.8 3 7 2.9-1.3 4.9-2.7 7-5l-3.3-.4c-3.7-.6-3.7-.6-6.7-1.6m13.3 3.5-1.3 1.5 2 1c.2 5.5-.3 10.4-1.7 15.8l-.5 2.1q-2.8 10.5-8.5 19.8l-1.3 2.3 1 2c10.5-7.7 12.6-20.4 14.6-32.7a66 66 0 0 0 .4-13.3c-3 0-3 0-4.7 1.5m-952.3.5c2.4 2.9 4.7 3.8 8.3 5l6.4 2 3.2 1.1c16 5.3 16 5.3 22.1 4.9l-1-3c-1.7-.8-1.7-.8-4-1.5l-2.5-.7-2.6-.8q-8.7-2.4-16.9-6c-4.3-1.2-8.5-1-13-1m914 3v9.2q-.2 5.6 1 10.8h1v-20zm-882 2c3 2 3 2 5 2v-2zm907 0q-1.1 12.5-1 25c2.7-5.1 3.2-9.2 3.2-15v-3.8c-.2-3.2-.2-3.2-2.2-6.2m11 0c-3.2 2.7-4.8 4.3-5.8 8.3q0 1.9-.3 3.8c-.6 7-2.4 13.3-4.9 19.9l-2 6c3.7-3.2 5.7-6.8 7.6-11.3l.9-2.1c2.9-7 7-17.1 4.5-24.6m-1144 5-3 4h2a73 73 0 0 1-1 29.3q-1.2 6.3-1 12.7c5.3-4.6 6.4-12.3 7-19q.4-13.7-2-27zm-46 5a91 91 0 0 0 9 38h1c-.2-6.2-1-11.7-3-17.5s-2.7-11.3-3-17.5l2-1c-3-2-3-2-6-2m42 4v21h1c2.1-14.7 2.1-14.7-1-21m338 19 2 9c3 0 3 0 5.3-2l2.4-2.4 2.4-2.5c1.9-2.1 1.9-2.1 1.9-3.1-4.8 0-9.2 0-14 1m222 1-1 2h6l-1-2zm-193 3-1.5 2a90 90 0 0 1-27.5 24l-5 3c.4 7 1.9 11.7 5.4 17.8l1.3 2.3c10.6 18 25.7 29.4 43.3 39.9q-2.2 7-5.7 13.4-8.3 16.3-13.6 33.7l-.7 2.4a117 117 0 0 0-4.3 38.6c0 18 3 33.5 14.3 47.9l1.4 1.9c13.7 17.5 37.1 23.7 58.1 26.7q10.3 1 20.5 1.4l.7 2.4a126 126 0 0 0 7.6 16.5l1.3 2.6 1.2 2.4c1.6 2.8 3 4.7 6 5.7l2.2.4 10.8 1.8 3 .5c24.3 4.1 46.8 9.7 69.8 18.9 4.6 1.6 7.4 2.2 12 .2l2.7-1.2 3-1.2c21.3-8.7 43-13.3 65.7-17l9.6-1.6 3.6-.6c3.8-1 5.2-2.7 7.1-6.1l1.3-2.7 1.5-3 1.5-3 2.9-6 1.3-2.7c1.2-2.3 1.2-2.3 3.2-5.3 3-.6 3-.6 7-1l4.4-.5 2.3-.2c25.4-3 48.7-9.5 66.1-29.5 15.7-20.3 15.2-47.4 12.8-71.8q-.8-6-2.6-12l-.7-2.6c-4.9-17-12.3-32.7-20.3-48.4q4.1-3.4 8.5-6.4l2-1.2 1.9-1.3q7.8-5 14.6-11.1c-.6-3.9-2.5-6-5-9l-2 2a108 108 0 0 1-33 21q4.3 10.7 9.4 21c15 30.3 25 65.2 14.4 98.7A54 54 0 0 1 835 1486c-12.6 5.3-26 7.4-39.5 8.5l-2.7.2-5.2.3c-3.9.3-6 .6-9.3 2.9a108 108 0 0 0-10.2 17.3c-3.6 6.7-3.6 6.7-5.1 9.8-2.4.7-2.4.7-5.9 1.3l-2 .4-13.3 2.4A338 338 0 0 0 678 1547c-3.4 1.1-3.7 1-6.8-.4l-2.3-1-2.5-1.1c-16.1-6.7-32.8-11-50-14.2l-3.3-.7q-6.8-1.5-13.9-1.8a21 21 0 0 1-11.2-2.8 84 84 0 0 1-9.5-17.6c-4.2-9.5-4.2-9.5-9.6-11.7q-7.3-1.2-14.7-1.6c-19.3-1.5-36.4-5.3-52.2-17.1l-2.5-1.8c-12.8-11-16.2-29.2-17.5-45.2-2-29.2 9.6-56.6 22.2-82.2l1-1.8 2.5-5.1a35 35 0 0 0 2.3-6.9l-3.1-1.5a101 101 0 0 1-44.8-39.3l-1.3-2q-1.5-2.5-2.8-5.2c1.3-3.8 2.4-4 5.8-6a76 76 0 0 0 24.2-23c-1.4-3.8-3.4-5.1-7-7m768 6c-.2 2.6-.2 2.6 0 5 2.3.6 2.3.6 5 1l3-2-1-5c-3.5-1.2-3.7-1.2-7 1m-24-1 1 2Zm-8 4q-1.4 8.3-1.2 16.8v2.7q-.1 8.8 2.2 17.5c2.1-3.5 2.2-6.1 2.1-10.2v-3.5l-.1-3.8-.1-7.3-.1-3.3a13 13 0 0 1 2.2-6.9l-2-2zm44.4 4.5-1.4 1.5 1 1c.6 14.8-5 27.3-12 40l-1 2a16 16 0 0 0 10-8 80 80 0 0 0 7-38c-2 0-2 0-3.6 1.5M795 1263c1.8 2.3 2.6 3 5.5 3.4h6.3l3.5-.2h3.3q8.4.2 16.4-1.2v-1c-4-1-7.9-1.1-12-1.1h-12.6zm454 1 1 3 5-2v-1zm-420 3v1h5v-1zm393 0v10h1l1-10zm-405 1v1h8v-1zm-701 2 1 4 1-2zm716 0 2 12h5c1-3.1 1-5.1 0-8.2l-1-3.8zm425 0a11 11 0 0 0-4.9 8.1l-.5 4.9c-1 7.3-2.5 13.2-5.7 19.8l-.9 2.2 1 2a84 84 0 0 0 13-36zm-435 1 .4 4.4.3 2.4c.3 2.2.3 2.2 1.3 4.2h8l-2-11zm-12 1a18 18 0 0 0 5.5 7.3l1.8 1.5c1.7 1.2 1.7 1.2 3.7 1.2l-1-10zm438 0q-1.3 5.8-1 11.8v6.2h1q1.3-5.8 1-11.8v-6.2zm-743 1v7l5-1c-1.4-3.2-2-4-5-6m-381 1-3 4h2q1.4 13.7.2 27.4c-.3 3.8-.4 6.4 1.8 9.6 4.2-13 3.8-26.7 1-40zm842 3v23h11.7l2.2.1h2.2c1.9-.1 1.9-.1 3.9-1.1v-22zm-888 2c.5 13.2 2.2 28.8 10 40l3 2c-.3-5.1-1.3-9-3.4-13.6A59 59 0 0 1 82 1282l2-1c-3-2-3-2-6-2m428 3v4h13c-3-4-3-4-5.5-4.4l-2.7.2h-2.7zm-387 1c-1.2 3.5-.8 6.1 0 9.8l.5 3 .5 2.2c2.1-3.4 2.1-5.8 1.6-9.7l-.3-3-.3-2.3zm704 2 3 4c2.7.3 5 .4 7.7.3l2.1-.1 5.2-.2v-4zm-738 1c-.2 4.6-.1 6.8 2 11l-1-11zm422 3c.4 6 1.4 10.6 4 16h3l-2-16zm8 0a37 37 0 0 0 3 17h6l-.4-6.2-.3-3.6q-.3-3.7-1.3-7.2zm10 1 .7 9.9a19 19 0 0 0 1.3 6.1h9c1-5.7 1-5.7 0-9-3.4-3-7-5-11-7m311 2v25h5q1.1-5 1.1-10v-8.8l-.1-7.2c-4 0-4 0-6 1m410-1 1 3Zm-417 1 3 4v-4zm3 4 1 2Zm-745 2 1 3Zm452 1v7h9l-1-4c-1.9-1-1.9-1-4-1.7l-2.3-.8zm12 5v2h6c-3.7-2-3.7-2-6-2m60 0 3 4h2a45 45 0 0 1-10.1 15.6c-1.9 2.4-1.9 2.4-1.9 4.4-6.5-3.3-11.6-7-17-12l5-10c-8.7 0-8.7 0-12 2.6a79 79 0 0 0-4.8 6.8l-1.8 2.6-3.6 5.4q-4 6-8.3 11.6l-3.2 4.5-19 25.9a2641 2641 0 0 0-30.5 41.7q-8.3 11-16.2 22.3l-1.8 2.5-1.6 2.2-1.3 2c-.9 1.9-.9 1.9-.7 4 1 2.2 1.8 3.1 3.7 4.6l2 1.6 2 1.6 2.1 1.7q21.1 16.3 43 31.4 5.7-5.5 10.4-11.6l1.6-2 13.5-18 13.6-18q8.8-11.5 17-23.2 7-10 14.3-20l4.8-6.7q16.8-23.3 34.2-46.2 6.2-8 12.1-16.3 2-2.7 4.5-5l2.8 4.9 1.6 2.7c1.6 2.4 1.6 2.4 4.6 4.4l-2-5-1-2.8a32 32 0 0 0-5-8.2c-4.2-1.6-7.5-1.7-12-2l-9 12a143 143 0 0 1-17-12c-5.3-4.1-9-4.9-15.8-4.3zm-100 4 1 3a157 157 0 0 0 22.3 1.1h6.2q11.3.1 22.5-1.1l1-3zm733 5c.9 3.9.9 3.9 2 5h5l2-4-4-4c-2 0-3.5 1.8-5 3m-571-1 1 2Zm4 1 1 3 1-3zm535 0c-3.4 11.5-3.4 11.5-3 17 2.2-3.3 2.8-5.8 3.6-9.7l.8-3.6.6-2.7zm-538 1 1 2Zm9 0c-1.5 2.1-1.5 2.1-3 4.9l-4 7.1c4-1.5 5-3.4 6.8-7.1l1.3-2.8.9-2.1zm561 5c-.6 1.9-.6 1.9-1 4l2 2 5-4zm-413 1-2 4h11v-4zm421 4h3a91 91 0 0 1-18 41c5.2-.7 7-2.6 10.3-6.5a74 74 0 0 0 11.7-37.5c-3.5 0-4.4.8-7 3m-547.2-1.3-2.1 2.5-2.3 2.8-2.4 3-4.5 5.5-2.2 2.8-6.9 7.8q-6.4 7.2-12.4 14.9c1.5 4 4.5 6.4 7.8 9l1.7 1.5 14 11.2q6.8 5.2 13.3 10.7 8.2 6.6 16.6 13 9.9 7.5 19.2 15.4 7.4 6 14.9 11.7 9.9 7.5 19.4 15.5 7.8 6.4 15.9 12.6l10.5 8.2L820 1482c9.1-7.3 16.5-16.2 23.8-25.3q3.3-4 6.7-7.7l9.5-10.9 2.3-2.6a13 13 0 0 0 2.7-6.5l-2-1.6-15.6-13a548 548 0 0 0-21.5-17.6l-2.8-2.3-4.9-4a931 931 0 0 0-38.3-30q-.7-.7-1.7-1.3l-9-7.5c-8.2-7-16.2-12.3-26-16.7l-7.6-3.5-5.4-2.6-2.6-1.2-2.5-1.1-2.2-1c-1.9-.6-1.9-.6-4.9.4l14 11c-2.2 5.6-2.2 5.6-4.6 8.3l-1.5 1.8-1.5 1.7-1.6 1.8-3.8 4.4a57 57 0 0 1-12.4-8.7l-2.7-2.5-1.9-1.8c1.5-4.9 4.3-8 7.6-11.8l1.6-1.8 3.8-4.4c-3.2-3.2-6.5-4.1-10.2-1.3M827 1326c-3.7 3.9-4.5 6.5-4.7 11.8l-.2 3.5-.1 2.7c2.9.2 2.9.2 6 0 2.4-3.5 2.6-6 3.1-10.2l.5-3.8.4-3zm7 1-2 16h3v-3h2c2.3-8.4 2.3-8.4 2-13zm414 2c-3 3-3.6 6.6-4.6 10.8-2.2 9-2.2 9-4.1 13-1.3 3.2-1.3 3.2-.3 6.2a85 85 0 0 0 13-31c-2 0-2 0-4 1m-1156 0 1 3Zm39 0-2 3 2.1 5q2.1 5.1 3 10.4l.6 2.3 1.3 5.3h1c.8-9.1-1.6-17.3-4-26zm1077 2 1 2Zm-393.6 6.3-2.5 1.9-1.9 1.8v3h9c1.2-3.5 1-6.4 1-10-2 0-4 2.1-5.6 3.3m74.6-1.3-1.5 1.5-1.9 2-1.9 1.9c-1.7 1.6-1.7 1.6-3.7 2.6a45 45 0 0 0 5 15h1l2.7-12.6.5-2.7.5-2.5c.3-2.2.3-2.2-.7-5.2m-803 1c.5 6.3 1.6 11.9 3.7 17.9l.8 2.3c6 17.2 6 17.2 13.5 21.8-.9-4.9-2.1-8.4-4.8-12.6-5-7.9-7.9-17.2-9.2-26.4l2-1zm383 2v21a49 49 0 0 0 6-12.5l1-2.5zm-376 5 2.4 8.8c1.4 5 1.4 5 3.6 7.2l-.9-5.7-.5-3.3c-.5-2.7-1.2-4.6-2.6-7zm945-187-2.4 8.7-.7 2.5a58 58 0 0 0 0 35.3q3.3 11.9 5.3 24c1.5 7.9 1.5 7.9 3.4 11.7s1.8 7 1.7 11v2c0 5.3 0 5.3-1.3 7.5-1.5 3.4-1.4 7-1.5 10.6l-.2 5-.1 2.7a395 395 0 0 1-15.2 93.3l-.6 2.2q-2.8 11-7.5 21.5c-6 14-7.8 28.5-9.8 43.4a333 333 0 0 1-23.2 92.2 33 33 0 0 0-1.9 10.4l-2-1 2.7-11.2c1.2-5 2.9-9.2 5.3-13.7 3-6 5-11.8 6.6-18.2l.9-3.4c5-19.7 8.1-39.5 10.6-59.5a222 222 0 0 1 11-45.5c11.9-34.2 11.9-34.2 11.9-42.5-18.8-1.3-18.8-1.3-23.7 1.6q-2.4 3-4.3 6.4c-4.9 4.3-9.1 6-15.5 6.3l-3.3.1-3.4.2-11.8.4v-2h-17l-2.3 4.1c-9.5 16.7-9.5 16.7-14 23.7q-6.5 10.8-11.7 22.2l-1.3 2.8c-4.5 10.8-4.7 22.6-5 34l-.2 12.7a61 61 0 0 1-7.9 31.8c-8.2 14.7-10.9 30.2-13.6 46.7l-2-1c2.6-16.8 5.2-31.8 13-47 6.3-12.2 8-24 8.3-37.5.7-30.8 9-53.8 26-79.3 2.7-4 2.7-4 2.7-6.2l-13-6-9 17c.8-4 1.7-6.9 3.3-10.6 6.5-16.8 11.6-42.7 5.7-60.4a42 42 0 0 0-17 0 37 37 0 0 0-8 11.3q-2.4 3.6-5.7 6.4c-7.4 8.6-8.3 21.4-10.3 32.3l-.5 2.6a35 35 0 0 0 2.3 19.5c4.7 14 7.4 27.7 7.4 42.4v2.9q-.1 12.4-2.2 24.6a48 48 0 0 0 6.7-8.2l1.9-2.7 1.4-2.1-3.6 7c-12 23.3-14 48.1-15.4 74q-.5-15.6 1.3-31.2.8-6.8.7-13.8-4.8 6-9 12.3c-2 2.7-2 2.7-3.5 4.3-4.4 4.6-5.4 7.8-5.6 14a161 161 0 0 1-3 21.4l-.5 2.6q-1 4.8-2.4 9.4c-2 .7-2 .7-4 1l.8-2q3.6-11 5-22.6l.4-2.9c1-7.6 1-7.6-.2-11.5l-2.7 2a106 106 0 0 1-49.7 19.6l-2.9.4-5.6.4c-6.2.7-6.2.7-8.6 3.1a53 53 0 0 0-3.5 6.5l-2.6 5-2.6 5.3-1.4 2.7c-3.3 6.6-3.3 6.6-4.4 10l-2.8.4c-87.3 13.7-87.3 13.7-104.2 30.6l-2-2.2c-3.4-3.4-7.2-5-11.6-6.7l-2.6-1a273 273 0 0 0-62.9-16.5l-4.6-.7-9-1.3c-10-1.4-10-1.4-13.5-4.5a38 38 0 0 1-3.8-7.1l-1.1-2.2-3-6.5c-4.6-10.5-4.6-10.5-7.9-13.3q-5.8-1.4-11.7-2c-27.3-3.8-53-14.7-70.3-37-4-6-7-12.5-10-19l-2-4a43 43 0 0 0-4.3 11.5l-.8 3a254 254 0 0 1-18.1 45c-2.8 5.3-2.8 5.3-2.8 7.5l-2-1q1.8-7.2 5.7-13.4a172 172 0 0 0 19-50 51 51 0 0 0-.7-23.6q-5.3-1.2-10.6-1.4l-2.9-.1c-2.5.5-2.5.5-4 2.5a40 40 0 0 0-3.2 11.7l-.5 2.5-1.3 8c-3.5 21.1-3.5 21.1-6.5 29.8a273 273 0 0 1 3.6-22.6l2.9-16.2.5-2.5q1.2-6.8 1-13.7c-5-2.5-11.8-.8-17 0a390 390 0 0 0-12.2 74.6l-.3 2.7q-1.9 19.4-1.5 38.7h2.4c24.2-.7 24.2-.7 29.6 3.3q3.8 4.1 7 8.7c4.3 3.4 9.2 5.7 14.2 7.8 1.8 1.2 1.8 1.2 2.9 3.8 1.9 2.4 1.9 2.4 4 2.9q4.4.3 8.6.2c11 0 11 0 15.4 1.3a46 46 0 0 0 15 1.3c5.6 0 5.6 0 7.9-2.3 8.3-2.6 18 1.2 25.4 4.8q7.3 4 13.6 9.2l-.7-1.8-.8-2.3-.8-2.4q-1-4.2-.7-8.5a60 60 0 0 1 41 17l1-2c-.8-2-.8-2-2-4.3a16 16 0 0 1-2-9.7c6-3 12.8-.1 18.7 1.8 9.5 3.5 16 8.2 23.3 15.2l1-2q-1.7-4.2-3.9-8.2a15 15 0 0 1-1.1-7.8c14.8-.7 26.2 4.9 38.4 12.8a26 26 0 0 0 17.6 4.2c6-1.5 11-3.8 15.9-7.4a48 48 0 0 1 30.1-9.6l2 1 1 3 8-.4h2.3c4.9-.3 9-1.3 13.7-2.6 3.5-.2 3.5-.2 7-.1h3.4l2.6.1 1 2 8.6.1h2.5l2.4.1h2.2c2.3-.2 2.3-.2 5.2-1.2 3.4-1.1 6.3-1.2 10-1.2h3.8l11.9-.2h3.5c2.9-.6 2.9-.6 4.7-3l1.2-2.6c2.2-1.1 2.2-1.1 4.6-1.9 8.3-3 14.3-8.9 20.7-14.7l1.5-1.4q4.5-4.1 8.2-9v-2h9v5c4.2 2.3 6 3 11 3v21h21v5l3.4.1 4.4.2h2.3c5.6.4 5.6.4 7.4 2.2 2.2 2.2 4.4 1.9 7.3 2l2.3-.1h2.3c5.9-.2 11-1.2 16.6-3.4l2-9.2.6-2.7.5-2.5.5-2.4c.4-2.2.4-2.2.4-6.2l3.6.5a90 90 0 0 0 16.3.3l7.9-.3q5.1-.1 10.2.5c3 3 3.7 5 5 9h17v-5a193 193 0 0 1 7.6-51l2.8-10.5 1-4.2.6-2.2 1.7-6.5q5.5-21 10.5-42.3l.8-3.6a2592 2592 0 0 0 40-206.7l.4-2.7 2.2-15 .5-3.5.4-3 .4-2.6c.1-2.3-.1-4-.9-6.2-1.6-1.5-1.6-1.5-3.6-2.8-12.7-9-21.2-22.5-29.5-35.5l-1.4-2.2-1.3-2-1.2-1.5zm-224 189.4-4.3.1-6.5.2h-3.8q-4.4.3-8.4 1.3v1c5 1.3 9.8 1.2 14.8 1.1h2.8c22.5-.1 22.5-.1 26.4-2.1v-2q-10.5 0-21 .4m-677 8.6 1 2Zm1099 13-2 7h5l2-2c-.4-2.1-.4-2.1-1-4zm-2 9-1 3 4-2zm5 4h3a79 79 0 0 1-16.3 30.7 24 24 0 0 0-3.7 7.3c5.7-1.4 8.8-5.4 12-10 12-20.5 12-20.5 12-30-4 0-4 0-7 2m-838 4-.4 2.2-1.9 10q-.2 1.8-.6 3.5c-2.3 12.3-4.9 23.7-14.5 32.4-1.6 2.9-1.6 2.9-1.4 5q1 3.8 2.4 7.4l1.8 5.4.9 2.7c4.9 16 3.8 34.3 3.8 50.9v5.1l-.1 12.4 12-2 .4-4.1c5.2-55.6 5.2-55.6 10.8-74 1.8-5.9 1.8-5.9 1.8-8.9a20 20 0 0 0-5-6c-6.3-6.7-5.9-16.7-6.6-25.4l-.6-8.1-.4-3.7c-.4-2.8-.4-2.8-2.4-4.8m830 4a46 46 0 0 0-3.5 10.3c-1.7 5.4-1.7 5.4-.5 7.7 11-15.3 11-15.3 11-22-3.3 0-4.7 1.7-7 4m-1130 6a42 42 0 0 0 5.6 17.5c3.6 7.2 7.6 15 14.4 19.5-1.6-6-4-10.7-7.4-15.8-4.2-6-6.7-12-8.6-19.2l2-1zm8 6 3 9c1.3-3.8.4-5.4-1-9zm149 8a36 36 0 0 0-7.8 24.2c1.3 4.4 3.9 6.5 7.8 8.8 3.6.7 3.6.7 7 0 3.7-2.6 4.8-4.3 6-8.7.5-8.1-3-15-7.4-21.6-1.8-2-3-2.3-5.6-2.7m-145 1 1 2Zm531 21.8c-4 1.6-6.8 1.4-11 1.2l-1 4h-9l5-6c-8-.5-15.4 1.5-23 4-1.2 2.6-1.2 2.6-2 5q5.4 3.7 11 7l-3 3c3.8 2.4 6.5 4.2 11 4.4 5 .8 6.4 2.3 10 5.6h2l5 2-1.9-2.8a40 40 0 0 1-4.1-15.2h2l.3 3.6a26 26 0 0 0 8.5 15.7c1.2 1.7 1.2 1.7 1.2 5.7-2.5 2.3-2.5 2.3-5 4l1 3c4.1-.6 7.4-1.9 11-4 1-3 1-3 1.3-6.8.5-4.4 2-6.8 4.7-10.2l-2 5.5c-1 2.5-1 2.5-1 5.5l7-1v2l13 3-2-2.2c-3.2-4.8-2.6-10.3-2-15.8 1.5-4.2 3-6.7 7-9h2l-1.5 1.2-2 1.6-1.9 1.6c-2.6 2.5-2.6 4.7-3 8.3q.2 6.8 4.4 12.3l3 1 2-1c-1 2.7-1.5 3.8-4.1 5q-6.9 2-14 3.1l-2.9.9-1 3 4-1v2c5.5 1.3 5.5 1.3 7.8 0 3.6-1.7 7.3-1.4 11.2-1.6 3.4-.5 5.3-1.4 8-3.4 1-2.8 1-5 1-8l.9 3.8c1 3 1.6 4 4.5 5.4q3.7 1 7.6 1.8v-3h2l.3 1.9c.7 2.1.7 2.1 3.7 4.1 2.7-.9 2.7-.9 5-2v-2l-5 1v-2l4-1c.4-3.9.4-5.5-2-8.7-2.2-3.7-2-4.4-1.5-8.5 1.3-10-3.4-17.7-9.4-25.4-3-3.4-6-5.5-10.1-7.4l-2.1-1c-14.6-5.7-31.9-.7-45 6.8m576-7.8-1 5 2-1zm0 11-.1 2.8c-1.3 8.6-7.1 15.6-12.4 22.1-2.1 3-2.8 5.6-3.5 9.1 9.5-6.4 17.3-20.3 21-31v-3zm-5 5-2 4 1 3 3-7zm-3 7 1 2Zm-1089 3a46 46 0 0 0 8 17q4.5 7 10 13l1-2a80 80 0 0 0-9.4-15.7c-2.7-4-3.9-6.5-3.6-11.3zm767 19 1 2Zm-175 3v3h2l-1-3zm13 2 1 2 2-2zm-4 1v2h2v-2zm-4 1v2h2v-2zm13 0 2 2v-2zm-16 1 1 2Zm12 0v2l3-1zm-4 1v2h2v-2zm13 0 2 2v-2zm-17 1v2h2v-2zm14 0 1 2Zm-17 1 1 2Zm12 0v2h2v-2zm13 0v2h2v-2zm-16 1-1 2h2zm13 0 1 2Zm-29 2h5v-2c-2 0-2 0-5 2m12-1-1 2h2zm13 0v2h2v-2zm-4 1-1 2 3-1zm13 0-1 2h2zm-17 1-1 2h2zm13 0v2l2-1zm-3 1-1 2h2zm457 3-1.6 3.3-4.4 8.6-1 2.1-2.8 5.4-1.2 2.6 1 2c13-17.7 13-17.7 13-24zm-1043 15c3 10 9.5 18 16 26l1-2-2.2-4.2-1.5-2.5-1.6-2.6-1.5-2.6-5.9-10.2-1.3-1.9zm1031 9 1 2Zm-16 30 1 2Zm-1 2v3Zm-2 3 1 2Zm-981 8 3.6 6.8c1.4 2.2 1.4 2.2 4.4 4.2a40 40 0 0 0-6-11zm337 27a85 85 0 0 0 11.6 6.3l5.4 2.7 3.3 1.8 2.7 1.2 2-1c-7.8-6.2-14.7-11-25-11m31 0c1.3 4.6 3.2 8 6 12l1.4 2.8c1.6 2.2 1.6 2.2 4.8 3l2.8.2-2.2-2.1a32 32 0 0 1-9.8-14.9c11 2 19.3 6.8 27 15v2a20 20 0 0 1-8.9-5.4c-3.5-3.3-6.6-5-11.1-6.6a25 25 0 0 0 4.6 7c2.4 3 2.4 3 2.4 6l15 4c-4.8 11.3-14 15.6-25 20 4.5 1.5 7.5.3 11.8-1.3 5.1-2.7 9.2-6.4 13.5-10.2 3.4-3.1 5.3-4.8 9.9-4.6l3.8.1 2 4 8-5a69 69 0 0 1-8 12c3.3-.6 5.3-1.7 8-3.8l2-1.6 4.8-4c2.1-1.5 3.5-2.2 6.2-2.6-4.7 8.8-14.3 13-23 17 5 1.7 9.4-.8 14-3q5.2-3.7 10-8c5.8-4.8 9.4-6.3 17-6l-1 4 1.8-.9 6.2-3.1a30 30 0 0 1-8 11l1 2q7.8-5.1 15.3-10.8c1.7-1.2 1.7-1.2 4.7-2.2-4.3 9.1-14.4 13-23 17 4.8 1.8 8-.3 12.4-2.3q7.3-3.5 14.3-7.7c7.2-4.2 13-5 21.3-4 5 1.8 9.5 4.4 14 7l7 3.9 3 1.7c3.3 1.6 6.3 2 10 2.4a57 57 0 0 0-9.4-5.9c-11.4-6.1-11.4-6.1-13.6-12.1l5 1 .2-3.2c1.7-7.9 9.5-11.5 15.8-15.8l-1-2c-5 2.8-9.7 5.6-14 9.4-3 2.6-3 2.6-5 2.6 3.5-7.8 10.8-11.8 18.4-15q4.2-1.7 8.6-2l1 3 2-1v-3c-12.6-1-21.9 4.2-32.5 10.5a31 31 0 0 1-20.9 5.2c-5.2-1.4-10-4.2-14.7-6.7l-9.6-4.9-3.4-1.7c-4-2-6.8-2.5-11-2.5H630l-2.1.1c.5 5 1.8 7.5 5 11.3 4 4.6 4 4.6 5 6.7-6.9.4-11-.5-16.5-5.1l-2.4-2.3c-9-8.3-18-11-30.1-10.6a29 29 0 0 0 6.8 12.2c1.2 1.8 1.2 1.8 1.2 4.8-5.3 1.3-5.3 1.3-8.4-.2q-4.4-3-8.4-6.7a35 35 0 0 0-24.5-10.2H553zm15 31-5 6 2 1a65 65 0 0 0 14-11c-4.5 0-7.6.7-11 4m-7-1a31 31 0 0 0-8 14c1 1 1 1 3.6 1h2.4l-3-1c1.3-5.8 3.4-9.3 7-14zm75 2-2 4 3-2zm-40 2v3Zm37 2c-3.1 4.3-3.1 4.3-2.7 7.3l.7 1.7 4-1-2-1 1-7zm-39 1-3 7c1 1 1 1 3.6 1h2.4l-3-1 1-7zm130 6-3 2h5zm-94-13-2.6 3a52 52 0 0 1-34.5 15.3c-3.9-.3-3.9-.3-4.9-1.3.4-5 1.8-8.5 4-13l-1-3-1.5 1.5a53 53 0 0 1-34.4 15.7c-3.1-.2-3.1-.2-5.1-1.2.5-5 1.2-9.3 3-14l-1.3 1a56 56 0 0 1-32 13.6l-3.8.2-2.9.2v-2h-13.2l-2.8-.1h-2.6q-3.3.2-6.4 1.1l-6.1.2h-3.2c-2.7-.2-2.7-.2-4.7-2.2q-4-.3-8-.2h-2.4q-6.9 0-13.5 1.8c-4 .8-8 .6-12.1.4l-1-2c-20.4-.4-20.4-.4-27.8 1.5-4 1-8.1 1.2-12.2 1.5v-3l-11.5-.2a54 54 0 0 0-15.5 2.2c-2.7.3-2.7.3-4.9.3h-2c-1.9-.3-1.9-.3-3.9-2.3l-9-.3h-2.5c-6.6 0-12.2 1.1-18.5 3.3v17h5.6c13.5 1 25.3 12 33.8 21.7 5.2 6.5 5.2 6.5 6.6 9.3l5.3.3c14.6 1 28.1 10 38.7 19.7l2.8 4c2 2.5 2.9 3 6.1 3.5l7.3.2a62 62 0 0 1 36.4 16.7c5.4 4.5 10.4 4.3 17 4.4 14 .2 28.3 4.6 39.5 13 5.6 3.7 10.3 3.8 16.8 4 13.8.2 26.8 4 39.1 10.2l7.5.2 4.7.1 7.4.1c13.9.2 27.4 1 40 7.1l2 .9q4.1 1.7 7.6 4.3c2.2 1.6 3.6 1.8 6.2 2q3.7 0 7 .9c3 .5 5 0 7.8-.5q8-1.3 16-1.2h6.8c7.5.1 11.5-.9 17.6-5.3a76 76 0 0 1 41.1-10.7H765c8-.2 13.4-1.6 20.4-5.5 3.4-1.9 6.7-2.8 10.5-3.7l3.8-1c.5 0 .5 0 3.3-.7l2.4-.6q3.3-.5 6.6-.4c9.4 0 15.1-.7 22.5-7a66 66 0 0 1 39.4-12.2c7.3-.2 11-2.3 16.3-7.3a57 57 0 0 1 35.7-14.4c4.4-.2 7-.7 10.2-3.7l4.4-5.2A61 61 0 0 1 959 1676l2.6-1.6c5-2.8 8.2-3.5 13.9-3.3 5.5-.2 5.5-.2 8-2.4q4-5.2 7.4-11 4.5-6.5 11.1-10.7.3-4.4.2-8.6v-2.5l-.2-5.9-3.7-.2-4.8-.2h-2.4a48 48 0 0 1-11-1.6 48 48 0 0 0-14.1-1.1h-2.6l-6.4.1v3l-9.9-1.4-2.8-.4-2.7-.5q-1.3 0-2.5-.3c-2.1-.4-2.1-.4-4.1-1.4q-4.2-.3-8.5-.2l-2.4-.1c-2.3 0-2.3 0-6.1.3l-2 3c-2.1.4-2.1.4-4.6.3h-2.5c-2.9-.3-2.9-.3-6.6-1.3a50 50 0 0 0-13.7-1.2h-2.4c-6 0-6 0-8.2 2.2-2.6.3-2.6.3-5.7.3h-3c-3.3-.3-3.3-.3-6.6-1.3a42 42 0 0 0-12.6-1.1h-2.4l-5.7.1-1 2h-6.8l-3.8.1c-3.4-.1-3.4-.1-6.4-1.1l-4.4-.1h-12.8c-1.8.1-1.8.1-2.8 1.1l-6.7.2h-3.7c-3.6-.2-3.6-.2-6.5-1.2-4-1.3-7.7-1.2-12-1.1h-2.4l-5.7.1v3c-5.5.3-10.4.4-15.6-1.5a44 44 0 0 0-14.4-1.9h-2.3c-2.1 0-2.1 0-5.7.4l-2 3c-13.7 1.6-26.1-5.5-37.2-12.7-5.6-3.6-11-5-17.7-3.8a40 40 0 0 0-16 7.4 43 43 0 0 1-26.4 9.2H627l-2-.1c-1.4-4.4-.6-6.6 1.5-10.7l2.5-5.3zm-210 136v2c13 5.6 26.6 11.2 41 10-3-2-5.3-2.7-8.8-3.6l-3.5-1-10.8-2.7c-.6 0-.6 0-3.5-.8zm459 14-1.1 1.4c-2.9 2.4-6.1 2.9-9.7 3.7l-2.3.5q-9 1.9-18 3a50 50 0 0 0-6.9 1.4v2c14.4 1.2 29.6-2.9 43-8l-1-3c-1.9-.9-1.9-.9-4-1m-241 1-1 3 2.5 1 3.2 1.3 3.2 1.3q4.3 1.9 8.1 4.4c-1.3-4.4-3-6-6.9-8.3l-2.6-1.6c-2.5-1.1-2.5-1.1-6.5-1.1m-148 4-1 2a55 55 0 0 0 21 3c-3.4-2-6.8-2.8-10.6-3.6l-3.4-.8c-3-.6-3-.6-6-.6m222 0-.9 2c-1.1 2-1.1 2-3.1 3l1 2c2.2-1 3.3-2.3 5-4l2-2zm-233 3v2c35.6 11.1 35.6 11.1 51 4v-1h-2.4c-31.4-.5-31.4-.5-42.6-5l-1-2c-2 0-2 0-5 2m155-2-2 2 3 1 18 6c-3-3.4-5.8-5-10-6.7q-1.6-.8-3.2-1.3c-2.8-1-2.8-1-5.8-1m47 1 1 1.8a17 17 0 0 1 1 10.2 53 53 0 0 1-4 8q.6-3.9 2-7.5c1.1-2.8 1.5-4.5 1-7.5-2.2-2.3-2.2-2.3-5-4h-4l.3 3.3c0 7.3-3.3 14-6.6 20.3l-1.7 3.4 1 2a52 52 0 0 0 28-20c.4-3.6.4-5.3-1.4-8.4-3.8-2.4-7.3-2-11.6-1.6m-24 2v5l2 2c2.6-.4 2.6-.4 5-1 .6-2.4.6-2.4 1-5l-2-2c-4 0-4 0-6 1m40-1v3.9c-.7 6.4-4.5 10.6-9 15.1a51 51 0 0 1-6.5 4l-1.5 1v2c3 1.5 5.7 2.6 9 3 3.2-1.4 5.5-3.6 8-6l2.4-2c2.3-2.9 2.3-5.4 2.6-9l1-3.6c0-3.4 0-3.4-1.3-5-1.6-1.3-1.6-1.3-4.7-3.4m6 0c1 3 1.8 4.8 4 7v-5zm9 3-1 2 9-3v-2c-3.1 0-5.3 1.5-8 3m-202-1v1h5v-1zm158 0-1.4 2.8-2.8 5.3c-1 2.4-1 4.3-.8 6.9v4l2 2 2.4-4.8 1.4-2.7c2.1-4.4 2.3-7.7 2.2-12.5zm-46 3 2.1.4 9.5 2 3.3.6a45 45 0 0 1 15.1 5v3l-11.8.1h-6c-9.9.1-18.4-.3-27.2-5.1h-2v-2h-2c1.4 3.2 2.6 4.8 5.6 6.6l2 1.3a42 42 0 0 0 18.9 3.4h2.3c20.6-.4 20.6-.4 27.2-6.3a64 64 0 0 0-17-8.3l-2.2-.8c-5.4-1.8-13.3-4.4-17.8.1m95 .8-2 .7c-3.6 1.6-6 3-8 6.5v2a82 82 0 0 0 24.3 3.3h2.7c7.3 0 14.8-.7 20.6-5.5l1.4-1.8-2-1-5.7 2.2c-3.8 1.3-7.8 1.6-11.8 2l-2.4.2a94 94 0 0 1-23.1-.4c1-3 1-3 3-4.1l2.6-1 2.7-1 9.7-2.9-2-2c-3.8 0-6.6 1.3-10 2.8m-184 .2 2 4h5l1-3zm185 5v1c20.5.4 20.5.4 30-2-10-5.4-19.9-2-30 1m-174-3-1 2 3-1zm66 1c1 2 1 2 4 3a87 87 0 0 0 23 2h9c-5.6-5.6-16.6-5.2-24.1-5.2q-6 0-11.9.2m191.8 1c-8.4 1.8-17.2 1.7-25.8 2v1c6.5 1.2 12.8 1.2 19.4 1.2h3.6c6.4 0 12-.3 18-2.2-1-1.5-1-1.5-3-3-4.4-.4-8 0-12.2 1m-241.8 0v1h6v-1zm6 1v1h21v-1zm138 0-1 3h2l1-3zm57 0-5 6 6 4v-3.3c0-3.7 0-3.7 1-6.7zm60 0v2a102 102 0 0 1-46 2c2.4 3.5 4.9 4.5 8.8 5.3 14 2 27.7-1.3 41.2-4.3v-4zm-273 3.5-1 1.5c6.3 1.8 12 2.3 18.4 2.2h2.7c15.8-.1 15.8-.1 18.9-3.2h-2.1l-13-.6h-3.2l-3-.2a55 55 0 0 1-7.7-1.2c-7.1-.7-7.1-.7-10 1.5m217-1.5-2 5a21 21 0 0 0 4 3c2.3-.3 2.3-.3 4-1l1-5c-3-2-3-2-7-2m-164 1 1 9 4-2v-4c-2.5-1.7-2.5-1.7-5-3m-60 1-4 3v2c35.5 8 35.5 8 50 1l2-3-2.6.4c-15 2.3-29.4 2.3-44.4-.4zm51 3c.4 2.6.4 2.6 1 5h6c1-1 1-1 1.1-3.5-.1-2.5-.1-2.5-1.1-3.5-4.6-.4-4.6-.4-7 2m110.2 3.2c-1.2 1.8-1.2 1.8-.9 4l.7 1.8c2.3.7 2.3.7 5 1 1.8-1.4 1.8-1.4 3-3-1-2.5-1.5-3.7-4-5-2 0-2 0-3.8 1.2m11.8-1.2c2.9 2.9 6.2 3 10 3.6l2.5.4q8.4 1.3 16.9 1.3h2.1c3.7 0 6.4-.3 9.5-2.3-4.9-4-9.5-3.1-15.4-2.6q-12.9 1-25.6-.4m-56 1-4 3c.9 3.9.9 3.9 2 5h5l2-5zm-13.3.5q-4.4.8-8.9.5h-3.5l-7.4-.2h-3.6l-3.2-.1a20 20 0 0 0-9.1 3.3l1 2a121 121 0 0 0 39-4l1-2c-3 0-3 0-5.3.5m68.3 1.5c1 3 1 3 3 4.1l2.5 1 2.5 1c7.8 2.3 15.5 2 23.6 1.6l3-.1c5.7-.3 10.9-1 16.4-2.6l-1-3-3-1v2a122 122 0 0 1-47-3m-63 1-3 .8-4 1.1-2 .6q-11.2 2.9-22.7 2.6H609c-3.6-.2-5.5-.5-8.1-3.1l-3 3v2c12.4 4.1 33.7 4.5 45.6-1.2 2.2-1.4 2.2-1.4 5.4-3.8z"/><path fill="#003884" d="M356 959c1.9 1.5 1.9 1.5 3 3-1.5 1.5-3.2 1.4-5.4 1.7a40 40 0 0 0-14.2 6.2c-2.4 1.1-2.4 1.1-5.4.1 13.7-12.6 13.7-12.6 22-11m71 0a42 42 0 0 1 15 9v2c-2.9-.4-4.4-1.3-6.9-3a24 24 0 0 0-17.1-4 49 49 0 0 0-7 3c3-7.5 8.7-8.1 16-7m-59 9 2.5.7A74 74 0 0 0 399 970c-2 2.5-3.5 3.9-6.6 4.8-15.6 1.1-15.6 1.1-22.4-2.8-1.2-2.1-1.2-2.1-2-4m600.8 16.2c3.2 2.6 4 4.8 4.4 8.8.3 5.7-1 9.8-3.2 15l3 .4 3 .6 1 2c-6.4.4-6.4.4-9.4-1.5l-1.6-1.5q.6-3.2 2-5.9c1.2-2.5 1.1-4 .8-6.7l-.2-2.3a8 8 0 0 0-3.6-5.1c-2.3-.3-2.3-.3-4.8-.3l-2.7.1q-4.3.3-8.5 1.2c5.1-6 12.4-8 19.8-4.8m-570.9-.6c3.1.4 3.1.4 5.5 2.9l1.6 2.5c-2.5 1.3-4.3 1.1-7.1 1H393c0-4.7.2-5.7 4.9-6.4m601.1.4v2l-13 2c4.5-4.5 7-6 13-4"/><path fill="#003884" d="M967 990v4c-8.4 2.4-8.4 2.4-13 1 .2-1.9.2-1.9 1-4 4.1-2.5 7.4-1.9 12-1m27.4-.2h2.4c2.2.2 2.2.2 5.2 2.2-1 2-1 2-2.6 2.6-3.9.6-7.9 1.2-11.4-.6v-3c2.3-1.2 3.8-1.2 6.4-1.2M984 1003l4 1 1 5h-4zm-603.4 7.8h3l3 .1 2.4.1 1 2h-14c2-2 2-2 4.6-2.2M970 1020l7.4-.1h2l5.6.1 2 2c-2.9 1.4-5.3 1.1-8.5 1.1H975c-3-.1-3-.1-5-1.1zm-586 47h3l-.7 2.2c-.4 3.6.7 5 2.7 7.8h-5c-2-2-2-2-2.2-5 .2-3 .2-3 2.2-5m0 16h3l-.7 2.2c-.4 3.6.7 5 2.7 7.8h-5c-2-2-2-2-2.2-5 .2-3 .2-3 2.2-5m2 14c1 2 1 2 .4 4l-.4 2 2 2v3c-4.9-.9-4.9-.9-6-2-.3-2.9-.3-2.9 0-6 2-1.9 2-1.9 4-3m145 5c4.3 1.4 7.1 3.5 10.6 6.4q4.5 4 9.4 7.6a32 32 0 0 1-7.1 11.3l-1.4 1.7-3.5 4a32 32 0 0 1-11.7-7.4l-1.7-1.4a19 19 0 0 1-6.6-8.2l3.8-4.7 2-2.7q3-3.5 6.2-6.6m283 3c5.5 1.4 8.8 4 12.9 7.6l6.1 5.4a37 37 0 0 1-6.5 11.1q-3.4 4.4-6.5 8.9c-4.9-.5-8-2.9-11.7-5.8l-1.8-1.3c-4.3-3.3-4.3-3.3-5.3-5.9-.4-3.6 2.4-6.2 4.5-9l1.4-1.9 3.9-5.1 1.8-2.4zm-211 4 9 3 1 5-2-1v-2h-7zm-219 5 3 1-.7 1.7c-.4 3.2.9 4.7 2.7 7.3h-5c-2-2-2-2-2.2-5 .2-3 .2-3 2.2-5m216 1c3.3-.3 3.3-.3 7 0a15 15 0 0 1 4 5v3h-2l-1.8-2.4a12 12 0 0 0-7.2-4.6zm438 5a29 29 0 0 1 7.6 11.4l1 2.2 2 4.5 3.2 7 2 4.3.9 2.1c1.5 3.5 2.8 6.7 3.3 10.5a28 28 0 0 1-6.9-9.5l-1.5-3.2-1.6-3.4-1.6-3.2c-8.4-17.8-8.4-17.8-8.4-22.7m-483 2c4.6.4 7 2.3 10.6 5.3l2.8 2.3q3.7 3.4 6.6 7.4l-12 15c-4-1.4-6.8-3.2-10-6l-9-7c.5-4.7 2.5-7.2 5.5-10.7l2.5-3zm416 0c3.2 1 5.4 2.3 8.1 4.4a51 51 0 0 0 23 8.1l1.9.5 1 2a40 40 0 0 1-31.2-9.2c-2.8-2.8-2.8-2.8-2.8-5.8m-456.2 1c3 1.4 5.2 3.2 7.6 5.3l2.8 2.4 2.8 2.3 5 4c-.9 4.5-3.4 7.3-6.4 10.6l-1.5 1.8a34 34 0 0 1-7.1 6.6l-18-15c.6-4.1 2.8-6.5 5.4-9.6l2.4-2.8 2.2-2.6 1.5-2c1.5-1 1.5-1 3.3-1m323.2 0c4 1.4 7.3 3.4 10.8 5.9l2.9 2c2.4 2.2 3 2.9 3.3 6.1-1 1.9-1 1.9-2.4 3.8l-1.6 2.1-3.4 4.4a30 30 0 0 1-7.6 7.7l-7-4.7-2-1.4-1.8-1.3-1.8-1.2c-1.8-1.8-2.1-3-2.4-5.4 1.5-2.8 1.5-2.8 3.6-5.9l2.3-3.2q3.3-4.5 7.1-8.9m84 3q3.5.5 6.8 1.7c9 3.7 19 3.5 28.2.3 2.4.4 2.4.4 4 1-8.5 5.7-18.1 6-28 5a19 19 0 0 1-11-8m-535 2-.7 2.8c-.3 3.2-.3 3.2 1.1 5.6l1.6 1.6h-6c-1-1-1-1-1.2-4.4l.2-3.6c3-2 3-2 5-2m408 3c4.1.4 7.3 3 10.6 5.3l1.7 1.2a26 26 0 0 1 7.7 7.5l-7.4 10.1-1.6 2.2-1.4 2a14 14 0 0 1-5.6 3.7l-5.2-3.7-3-2.2-7.8-6.1c.5-5.1 3-8.3 6-12.2l1.4-2c3.4-4.5 3.4-4.5 4.6-5.8m-216 10c4.7.5 7 2.4 10.6 5.4l2.9 2.4 5.5 5.2a32 32 0 0 1-7.1 11.3l-1.4 1.7-3.5 4a40 40 0 0 1-9-5.9l-2.6-2-2.4-2.1-2.4-2c-1.6-2-1.6-2-1.7-3.9q2.6-4.5 6.2-8.3l1.4-1.7zm-196 2 3 1-.6 2.3c-.4 3 0 4.1 1.6 6.7-2.4.2-2.4.2-5 0-2-3-2-3-1.7-6.1 0-.5 0-.5.7-2.9zm155 0c5 1.6 8.4 4.4 12.3 7.6l2 1.6 4.7 3.8a19 19 0 0 1-4.7 9l-2.1 2.5a125 125 0 0 1-7.2 7.5l-6.7-4.7-2-1.4c-7-5-7-5-9.3-7.9 0-4 3-6.7 5.4-9.6l2.4-2.8zm281 5c4.4 1.5 8 4 11.8 6.6l1.8 1.3 4.4 3.1c-.6 3-1.6 5-3.4 7.6l-1.5 2-1.5 2-1.5 2a25 25 0 0 1-7.1 7.4l-7.4-5.4-2.2-1.5-2-1.5-2-1.4c-1.4-1.2-1.4-1.2-2.4-3.2q6.3-9.7 13-19m141 1c7.5-.5 13.8-.6 20 4 4 4.2 4 4.2 4 7a27 27 0 0 1-6.4-4c-4.7-3.7-9-4.3-14.7-4.7l-1.9-.3zm-182 6c6.9 3.6 12.9 8.3 19 13a50 50 0 0 1-15 19l-8-5.2-2.2-1.5-2.2-1.5-2-1.3c-2-1.8-2.4-2.9-2.6-5.5a74 74 0 0 1 6.1-9q3.1-4.2 6.9-8m-395 2c1 2 1 2 .4 4l-.4 2 2 2v3c-4.9-.9-4.9-.9-6-2-.3-2.9-.3-2.9 0-6 2-1.9 2-1.9 4-3m221 2a117 117 0 0 1 18 14 27 27 0 0 1-7.6 11.3l-1.6 1.7-3.8 4a117 117 0 0 1-18-14c1.4-4.3 3.6-7.3 6.5-10.7l2.4-3c2.1-2.3 2.1-2.3 4.1-3.3m-42 3c5 1.6 8.4 4.4 12.3 7.6l2 1.6 4.7 3.8a76 76 0 0 1-8.7 13l-2.5 2.8-1.8 2.2c-4-.6-6.4-2.5-9.5-4.9l-2.8-2-2.7-2.1-2.3-1.8-1.7-1.2c.4-5.2 3.2-8 6.5-11.7l1.5-1.8c3.5-4 3.5-4 5-5.5m239 11a39 39 0 0 1 10.7 6l2.9 2c2.4 2 2.4 2 4.4 5l-4.7 6.8-1.4 1.9a58 58 0 0 1-7.9 9.3l-6.9-4.7-2-1.4c-5.9-4.1-5.9-4.1-7.1-7.9l3.8-5.7 2-3.2q3-4.2 6.2-8.1m-174 5c4.9 1.5 8 4.3 11.8 7.6l1.8 1.6 4.4 3.8c-.6 4-2.7 6.5-5.3 9.6l-2.4 3c-2 2.2-3.5 3.3-6.3 4.4l-6.9-5.4-2-1.5-1.8-1.5-1.8-1.4c-1.5-1.2-1.5-1.2-3.5-3.2 0-5 3.2-7.9 6.6-11.3l1.5-1.7zm133 1q9.2 5.6 18 12c-.4 5.9-2.8 9-6.4 13.3l-1.6 2c-3.7 4.5-3.7 4.5-6 5.7l-6.2-4.7-1.8-1.4a74 74 0 0 1-9-7.9c1.5-4.6 4-8 7-11.7l1.5-1.8c3.3-4.3 3.3-4.3 4.5-5.5m-175 2c4.1.4 6.8 2.9 10 5.3l3.1 2.4q3.7 3 6.9 6.3l-5.2 6.8-1.4 1.9a45 45 0 0 1-9.4 9.3l-2.7-2.3-3.5-3-1.8-1.5q-4.4-3.8-9-7.2c.6-3 1.4-4.9 3.5-7.2l1.5-1.7 1.5-1.8 1.5-1.8c3.6-4.2 3.6-4.2 5-5.5m65 15c5.1 2.7 9.2 5.7 13.4 9.8l1.7 1.5 3.9 3.7a59 59 0 0 1-9.7 13c-2.3 2-2.3 2-6.3 2a82 82 0 0 1-8.4-6.7c-3-2.5-5.2-4.6-6.6-8.3zm134 1c4 1.4 6.9 3.2 10.2 5.9l2.6 2c2.1 2 3 3.5 4.2 6.1l-5.8 8-1.7 2.2-1.6 2.2-1.5 2c-1.4 1.6-1.4 1.6-4.4 2.6q-3.4-2.2-6.6-4.7l-1.7-1.3c-3-2.4-5.4-4.3-6.7-8l4.8-6.8 1.4-2 1.3-1.8 1.2-1.8q2-2.5 4.3-4.6m-42 6q6.9 3.6 12.9 8.6l2.8 2.4c2.3 2 2.3 2 3.3 4l-4.8 6.8-1.4 2-1.3 1.8-1.2 1.8a42 42 0 0 1-4.3 4.6c-4.7-1.5-8-4.1-11.8-7.1l-1.8-1.4-4.4-3.5c.4-5.3 3.4-8.7 6.6-12.8zm24 18c4.7 1.5 8 4.1 11.8 7.1l6.2 4.9a106 106 0 0 1-10 15l-3 4c-4.4-.9-7.3-3.3-10.7-6l-1.9-1.5-4.4-3.5c.5-4.7 2.7-8 5.4-11.7l1.3-1.7q2.4-3.6 5.3-6.6m-435 31c2.4 2.4 2.5 3.5 3 6.8l.6 3 .6 3.1A163 163 0 0 0 360 1325a188 188 0 0 1 21 40.5 31 31 0 0 1 2 13.5h-3q-2.1-6.2-4-12.6a132 132 0 0 0-21-41.4c-15-21.5-25-46.4-24-73m-17 53h1q1 5.6 1.4 11.1.9 16.6 4.2 33c1.9 8.8 3 17.2 3 26.2v3c0 4.5-.2 7-2.6 10.9l-2 1.8-5-1a27 27 0 0 1-2-12h2l2 8h2c.6-17 0-32.7-3.2-49.5-4-21.8-4-21.8-.8-31.5m308 9c6.4 3.4 12.2 7.7 18 12-.5 4.9-2.9 8-5.8 11.7l-1.3 1.8c-2.4 3-4.3 5.2-7.9 6.5l-2.7-2.1-3.6-2.8-1.8-1.4q-3.9-3-7.9-5.7c.5-4.7 2.5-7.4 5.4-11.1l2.4-3.2q2.4-3 5.2-5.7m-214 2c2.7 1.3 2.7 2.5 3.7 5.3l.9 2.7.9 2.8 1.8 5.4.9 2.4c.8 2.4.8 2.4 2 5 .8 2.4.8 2.4-.2 5.4-10-22.2-10-22.2-10-29m173 5a69 69 0 0 1 17 12c-.5 4.9-3 8-5.9 11.8l-1.3 1.7c-3.4 4.4-3.4 4.4-6.8 5.5l-6.5-4.3-1.8-1.3-4.7-3.4-3-2c1.6-5 4.5-8.7 7.6-12.8l1.6-2.1zm23 17a58 58 0 0 1 18 13c-.6 4.5-3.3 7.6-5.9 11.2l-1.3 2c-3.4 4.7-3.4 4.7-6.8 5.8-2.7-1.7-2.7-1.7-5.9-4.2l-3-2.4-8.1-6.4c1.5-4.6 4-8 7-11.7l1.5-1.8c3.3-4.3 3.3-4.3 4.5-5.5m133 5c4 .6 6.4 2.5 9.5 4.9l2.8 2 2.7 2.1 2.3 1.8 1.7 1.2c-.3 5.4-3.6 8.5-7 12.3l-1.8 2-4.2 4.7c-4-1.4-6.8-3.2-10-5.8l-2.6-2a50 50 0 0 1-6.4-7.2l1.8-2.2 2.5-3 2.3-3q3.3-3.8 6.4-7.8m-173 2a97 97 0 0 1 17 12c-1.4 4-3.4 7.2-6 10.6l-6 8.4c-4.4-.5-7.1-2.2-10.7-4.8l-2.9-2c-2.3-2-3.3-3.4-4.4-6.2l5.5-8q3.4-5 7.5-10m131 2c4.6.7 7.7 3.5 11.3 6.3l2 1.5 1.8 1.4q.8.8 1.7 1.3c1.2 1.5 1.2 1.5 1.2 5.5-1.4 2.2-1.4 2.2-3.2 4.4l-2 2.4-1.8 2.2-2.4 3-1.6 2c-4.5-.9-7.2-3.4-10.6-6.3l-1.8-1.5a19 19 0 0 1-6.6-8.2l4.3-5.3 2.4-3 2.3-2.7 1.5-2zm67 14c15.2 9.5 15.2 9.5 18 15q-6.1 8.8-13 17c-4.5-1.5-8-4-11.7-7l-1.7-1.3a27 27 0 0 1-6.6-6.7 166 166 0 0 1 15-17m-175 1c4.1 1.8 7.6 4.5 11.3 7.1l2 1.4 4.7 3.5c-1 4.5-3.2 7.5-5.8 11.1l-1.3 2c-4 5.6-4 5.6-7.9 6.9l-6.8-4.7-2-1.4c-3.3-2.3-6-4.4-8.2-7.9l4.2-6.2 1.2-1.7q3.7-5.6 8.6-10.1m131 4c4.7.5 7 2.4 10.6 5.4l2.9 2.4 5.5 5.2a27 27 0 0 1-7.1 10.8l-1.4 1.5-3.5 3.7c-3-.6-5-1.5-7.4-3.4l-1.9-1.5-1.9-1.5-2-1.6c-4.7-3.7-4.7-3.7-5.8-6zm-172 4a38 38 0 0 1 13 7.9l4 3.1c-.6 3-1.5 5-3.2 7.4l-1.3 1.8-1.4 2-1.3 1.8c-2.1 3-3.8 5-6.8 7l-16-12a61 61 0 0 1 8.8-14l2.4-2.9zm423 3 4 1-.4 2.8a223 223 0 0 0-1.5 36.5 99 99 0 0 1-5.7 39.3 58 58 0 0 0-3.6 21.5l-.1 6.1v3.3c-.8 45.9-.8 45.9-3.7 58.5h-4l.2-1.8q1.6-18.1 2-36.5l.1-3 .2-14.7c.1-13.8 1.3-27 6.1-40 3-8.2 3.5-15.7 3.6-24.3l.1-6 .2-9.5c.3-22.4.3-22.4 2.5-33.2m-553 2c3 1 3 1 4.6 3.7l1.6 3.4 1.6 3.3 1.2 2.6a12 12 0 0 1-6.7-6l-1.4-2c-.9-2-.9-2-.9-5m368 5c4.5 1.5 8 4 11.8 6.9l1.7 1.3c2.3 1.7 4.2 3.3 5.6 5.8-.2 3.3-2.1 5-4.3 7.5l-2.4 2.8-2.4 2.7-2 2.4c-2 1.6-2 1.6-3.9 1.6q-4.3-2.3-8.2-5.4-4.4-3.4-8.9-6.6c1.4-4.3 3.6-7.2 6.5-10.6q3.5-4 6.5-8.4m-42 4a31 31 0 0 1 10.6 6.4l2.9 2.4 5.5 5.2a27 27 0 0 1-7.1 10.8l-1.4 1.5-3.5 3.7c-4.7-1-7.5-3.5-11.2-6.4l-2-1.5-3.5-2.8c-1.3-1.3-1.3-1.3-2.3-4.3q2.2-3.4 4.8-6.6l1.4-1.7a76 76 0 0 1 5.8-6.7m-172.2 3q4.7 2.3 8.8 5.3l1.8 1.2c3.1 2.2 5.3 3.9 6.6 7.5l-4.2 6.2-1.2 1.7-1.1 1.8-1.1 1.5q-3 3.6-6.4 6.8l-17-13c1-4 2.2-6.1 4.3-9.5l1.8-2.8c4.7-6.7 4.7-6.7 7.7-6.7m-236.8 1c1.1 3.3.9 4.4 0 7.7l-.5 2.4-.5 1.9h-1l.4-4.9.3-2.7c.3-2.4.3-2.4 1.3-4.4m195 6c4 1.4 7.3 3.4 10.8 5.9l2.9 2c2.3 2.1 2.3 2.1 3.4 4-.1 3.4-2.2 5.8-4.2 8.5l-1.2 1.7a68 68 0 0 1-8.7 9.9l-16-12c1.6-4.7 4.2-8.3 7-12.2l1.5-2c3.3-4.6 3.3-4.6 4.5-5.8m461 2 3 1-1.3 1.3c-2.9 3-4.6 4.9-5.3 9 .7 4.4 1.5 8.8 3.6 12.7 2.1 1.3 2.1 1.3 4 2l5-4c-.4 4.8-2.5 6.8-6 10a16 16 0 0 1-9-9c-2-5.5-2.8-10.4-1-16a17 17 0 0 1 7-7m-182 3c4.7.5 7 2.3 10.6 5.4q4.5 4 9.4 7.6c-.6 3.5-2 5.6-4.2 8.4l-2 2.3-6.8 8.3c-5.1-1.6-8.7-4.8-12.8-8.1l-2.1-1.7-5.1-4.2q3.7-6.9 8.8-13l2.4-2.8zm-41 4c4.9 1.5 8 4.3 11.8 7.6l1.8 1.6 4.4 3.8a34 34 0 0 1-6.4 10.8l-2.3 3c-2.3 2.2-2.3 2.2-6.3 2.2a86 86 0 0 1-8.4-6.3 75 75 0 0 1-6.6-5.7c.3-3.8 2.5-6.2 4.9-9l2-2.7zm-438 5 3.4 1.3c24 8.7 24 8.7 34.9 3.7l2-1.2c1.7-.8 1.7-.8 4.7.2a28 28 0 0 1-21 8.5 57 57 0 0 1-24-10.5zm223 2q9.2 5.6 18 12c-.5 5-3 8.2-5.9 12.2l-1.3 1.9c-2.1 2.9-3.8 5-6.8 6.9q-9.1-5.7-17-13c.6-4.2 3-7.2 5.4-10.6a80 80 0 0 1 7.6-9.4m422 1a28 28 0 0 1 5 9.4l1 2.8 1 2.8 1.1 3c4.9 16.4-2 37.3-7.1 53a14 14 0 0 1-.3-8.4l.6-2.5.6-2.7q2.4-10.5 3.1-21.4l.1-2.4q.5-14.4-4.5-27.7c-.6-1.9-.6-1.9-.6-5.9m-646 7c5 .4 8.4 2.2 12.6 4.8 5.6 2.7 12.2 2.4 18.3 2.8l8.1.4v2c-7.8 3.9-18.7.5-26.6-1.9a52 52 0 0 1-11.4-5.1zm506 0c5.1 2.7 9.2 5.7 13.4 9.8l1.7 1.5 3.9 3.7c-1.5 5-4.6 8.1-8.1 11.8l-1.7 1.8-4.2 4.4a74 74 0 0 1-10.6-7.5l-2.9-2.3-4.4-3.7c-1.1-1.5-1.1-1.5-1.1-3.3 1.5-3.3 4-5.7 6.4-8.3zm-323 1c4 1.4 7.3 3.4 10.8 6l2.9 2c2.3 2 2.3 2 3.3 5a79 79 0 0 1-14 19c-11.7-7.1-11.7-7.1-16-12 1.5-4.4 3.9-8 6.5-11.7l1.2-1.7q2.4-3.6 5.3-6.6m278 3a16 16 0 0 1 9.4 4.3l2.4 1.8 2.2 1.9 2 1.6 4 3.4c-.6 3.9-2.5 6-5 9a95 95 0 0 0-6 8 29 29 0 0 1-13.4-8.1l-2-1.7-4.6-4.2a50 50 0 0 1 7.2-11.4l2.2-2.6zm-176 12q4.6 1 9 3c1.6 2.7 1.6 2.7 2 5l-3-1v-2h-7zm-80 1q10 4.4 18 12l1 3a84 84 0 0 1-6 8.7q-4 5.5-9 10.3c-6.1-4.3-12-8.5-17-14a37 37 0 0 1 6.5-11.1q3.5-4.4 6.5-8.9m77 5c3.3-.3 3.3-.3 7 0 2.5 2.3 2.5 2.3 4 5l-1 3-2.2-2.4a18 18 0 0 0-7.8-4.6zm205 0q9.7 7.2 19 15a27 27 0 0 1-6.4 10.3l-2.3 2.6c-2.3 2.1-3.2 2.8-6.3 3.1-1.7-.8-1.7-.8-3.4-2.2l-1.8-1.5-1.9-1.5-1.9-1.6a93 93 0 0 1-8-7.2 42 42 0 0 1 7.1-10.8 80 80 0 0 1 5.9-6.2m-440 7h1a667 667 0 0 1 3.6 42.4l.5 9.6.4 5.9q.6 9.6 1.5 19.1h-2q-3.3-13.1-4.6-26.5l-.4-3.7c-3.1-31.3-3.1-31.3-1-45.8zm218 136c10.1.3 18.3 4.8 25.8 11.5 1.7 2 2.1 3.9 2.2 6.5q-3.2-.6-6-2v-2l-1.7-.8a72 72 0 0 1-7-4.3l-2.5-1.7-1.8-1.2c1.2 2.5 2 4 4.1 6 1.9 2 1.9 2 1.9 5-6-1-10.5-6-14-10.7-1-2.3-1-2.3-1-6.3m38 0c8.3-1.1 15.3 3.3 21.8 8a31 31 0 0 1 6.2 6v4c-3.9-.6-6-2.4-8.9-4.9a42 42 0 0 0-11.1-7.1l1.5 1.6 2 2.2 2 2.2c1.5 2 1.5 2 1.5 5-6.3-1.2-9.4-5-13-10a11 11 0 0 1-2-7m29 71 1 2a62 62 0 0 1-11.7 9.6c-6 4-6 4-8.3 7.4v3l3 .5c13.8 2.3 13.8 2.3 18 7.5 3.7 6.4 4 13.5 2.4 20.6a27 27 0 0 1-14.3 15.9c-8.9 1.4-17.4-1-25-5.7-3.8-2.8-5-5.3-6.1-9.8a41 41 0 0 1 12-36l1.7-2c7-7.5 16.6-13.7 27.3-13m-23.9 38.3c-3.2 4.1-3.6 6.4-3.1 11.7 2.3 3 4 4.6 7.5 6 3.3 0 4.9-1 7.5-3 2.5-3.7 2.5-5.5 2-10-1.6-3.4-1.6-3.4-4-6-4.5-1.6-6-1.7-9.9 1.3M593 1657c2 1 2 1 2.6 2.8q.6 3.4.5 6.7v30.1l-.1 2.9c0 4 .1 6.5 2.9 9.6 2.2 2 2.2 2 4.4 3.5l1.7 1.4v2c-2.3 1.2-3.4 1-6 .8l-2.4-.1-5-.4-2.4-.1-2.2-.2c-2 0-2 0-5 1h-8c.7-4.5 3.3-6.8 6.4-10 3.7-4.6 2.9-10.8 3-16.4v-2.9c0-7 0-7-2.4-10.7l-2-2c-.3-4.5 1.4-6.8 4.2-10.1q4.3-4.8 9.8-7.9m119.3 1.2c4.3 3.4 6.4 7 7 12.5a25 25 0 0 1-6.6 18.7q-4.5 4.1-9.5 7.6a14 14 0 0 0-4.2 7 24 24 0 0 0 17-2l2.5-1.2 1.5-.8c1.1 3.3 1 4.1-.1 7.3l-.7 2.3a20 20 0 0 1-6.2 8.4c-3.7.9-7.3.8-11 .8l-6.3.1h-3q-6.3.3-12.6 1.1c-2.1 0-2.1 0-5.1-2 .4-5.2 2.3-8.4 5.6-12.3l1.3-1.7q4-5 8.4-9.7c5.4-6 10.9-12.9 10.7-21.3-1-2-1-2-3-3-5.5.1-10 2-14.9 4.3l-2.1.7-2-1c.8-5.9 3.6-9.1 8-13 7-4.4 17.6-6.7 25.3-2.8m66.7-1.2c-.5 5-1.2 8.9-4 13-5.6 3-10.4 3.5-16.7 3.6h-5.1l-2.2.1c-2 .3-2 .3-5 2.3-.7 2.1-.7 2.1-1 4h1.8l8.3-.2h3c6.7-.1 11.2.6 16.2 5.5 2.6 4.2 3.2 7.4 2.1 12.3a36 36 0 0 1-19 21.9 79 79 0 0 1-19.4 5.5l-2-1c1.5-4 3.6-5.2 7.2-7.3 6.1-3.7 12-7.9 14.8-14.7.5-3.4.8-6.8-1.3-9.7-2.8-2-5-1.4-8.2-1q-5.2 1.6-9.5 4.6c-2 1.1-2 1.1-5 1.1-.1-9.8 3.4-18 7.1-27l1.6-4c1.8-4.7 1.8-4.7 4-6.2 2.8-1 5.1-1.1 8-1.2h3.4l3.5-.2 6.8-.2h3c2.7-.2 5-1.2 7.6-1.2m-230 21c2.8 1.3 4.5 2.3 6.4 4.8 1 3.4.5 5.8-.4 9.2a18 18 0 0 1-7.4 5c-3.6 0-5.6-1.1-8.6-3-2.5-3.7-2.5-5.6-2-10 3.4-5.3 5.8-6.5 12-6m259 4c3 2.3 4.6 4 6 7.5 0 3-.6 4.8-2 7.5-2.9 2.9-5.6 2.8-9.6 3-2.4 0-2.4 0-5-1.5a17 17 0 0 1-2.4-9.5c2.8-6.2 6.3-7.8 13-7"/></svg></g></g></svg>