<svg width="512" height="512" viewBox="0 0 512 512" fill="none" xmlns="http://www.w3.org/2000/svg">
<g clip-path="url(#clip0_9_27)">
<mask id="mask0_9_27" style="mask-type:luminance" maskUnits="userSpaceOnUse" x="0" y="0" width="512" height="512">
<path d="M0 0H512V512H0V0Z" fill="white"/>
</mask>
<g mask="url(#mask0_9_27)">
<path d="M0 0H512V256H0V0Z" fill="#003884"/>
<path d="M0 256H512V512H0V256Z" fill="#FF6600"/>
<path d="M255.5 58.3H257.5L258.1 63.9L258.6 67.6001L259.6 76L262.3 96.7L269.1 153.2L269.5 157.2L269.9 160.7C270.9 164.7 272.6 166.5 275.5 169.5C279.767 171.633 284.2 171.967 288.8 170.5C291.2 168.5 291.2 168.5 293.5 165.7L295.1 163.8C300.7 156.733 306.233 149.567 311.7 142.3L317.2 135.2L337.1 108.7C343.033 100.7 349.1 92.7667 355.3 84.9L356.3 86.9L353.1 94.7L350.5 100.7L348.8 104.7L345.4 112.7L340 125.7L335.5 136.2L327.3 155.5L325.7 159.4L322.6 166.9L319.6 173.8L318.3 176.8L317.2 179.5C316.453 181.197 316.051 183.026 316.016 184.88C315.982 186.734 316.316 188.576 317 190.3C318.6 193.6 320 195 323.2 197C329.8 198.8 335.2 197 341.2 194.4L343.2 193.5L349.2 190.9L353.4 189.1L365.7 183.7L368.7 182.4L379 177.9L405.7 166.6L408.1 165.6L414.6 162.9L416.6 162.1L421.8 160L424.4 158.8C426.5 158.1 426.5 158.1 429.4 159L427.4 160.5L412.4 171.9C405.933 176.9 399.433 181.767 392.9 186.5C386.233 191.433 379.633 196.433 373.1 201.5C369.367 204.5 365.6 207.367 361.8 210.1L359.3 211.9L354.6 215.3C349.748 218.289 345.724 222.45 342.9 227.4C342.5 232.4 342.9 235.6 345.8 239.8C350.5 243.7 354.7 244.4 360.6 245.1L363.3 245.4L372.2 246.4L378.4 247.2L394.6 249.2C400.133 249.8 405.633 250.467 411.1 251.2L443.6 255V256H325L323 240.7C317.983 222.91 306.404 207.686 290.6 198.1C282.267 193.556 273.118 190.704 263.679 189.709C254.24 188.713 244.697 189.594 235.6 192.3C218.525 198.186 204.237 210.193 195.5 226C193.733 229.711 192.261 233.557 191.1 237.5L190.6 239.4C189 245 188.7 249.9 188.2 255.9H69.3V254.9C70.5 254.9 71.6667 254.8 72.8 254.6L121.7 248.7L137.7 246.8L143.8 246.1L152.4 245.1L154.9 244.8C159.9 244.1 163.2 243.1 167.2 239.8C169.9 235.6 170.6 232.4 170 227.4C168.6 224.8 168.6 224.8 167.2 222.7V220.7L165.5 220C155.5 214.8 146.7 206.5 137.8 199.7C127.024 191.414 116.156 183.247 105.2 175.2L97.2 169.1C90.3 163.8 90.3 163.8 86.8 161.5L84.5 160V158C91.1709 160.18 97.7437 162.649 104.2 165.4L107.6 166.9C127.4 175.167 147.167 183.533 166.9 192L169.5 193.1L174 195.1C178.8 197.1 183 198.9 188.2 197.4C191.7 195.9 193.5 194.6 195.7 191.5C197.6 185.5 196.7 181 194.2 175.3L193.4 173.5L189.2 163.7L185.8 155.9L179.5 140.8L176.7 134.4C175.767 132.533 174.933 130.667 174.2 128.8L173.2 126.8L171.4 122.1L169.3 117.2L166.2 109.8L161.3 98.3L159.2 93.1001L158.1 90.5L157.1 88.5C156.7 86.8 156.7 86.8 157.7 84.9L164.7 93.6001C172.9 103.8 172.9 103.8 172.9 106.8H174.8C178.638 112.253 182.64 117.589 186.8 122.8L199 139.1L217.2 163.3C220.2 167.7 222.6 170 228 171.3C233.1 171.7 236 170.5 240 167.1C242.2 164.7 242.4 162.3 242.9 159.1L243.2 157.1L244.2 150.5L244.5 148.1L246.9 128.8L247.6 122.7L249.6 106.7L251.6 90.3L255.5 58.3ZM154.8 304.4C161.4 309.7 161.4 309.7 162.4 312.9C165.6 313.7 166.9 313.9 170 312.9L171 310.1H172.9L173.5 308.2C174.8 306.2 174.8 306.2 177 305.4C179.5 305.4 179.5 305.4 181.7 306.9L185.7 311.2L187.1 312.9C186.023 315.527 184.424 317.908 182.4 319.9L180.9 321.3C179.5 322.4 179.5 322.4 177.6 322.4C178.9 327.8 181.3 330.1 185.2 333.8V335.8H187.2C185.99 338.451 184.215 340.806 182 342.7L180.3 344.2C178.6 345.2 178.6 345.2 176.6 345.1C174.8 344.3 174.8 344.3 172.6 341.4C170 338.6 170 338.6 167.4 337.3C163 337.8 161.4 340.3 158.6 343.6C156.7 345.2 156.7 345.2 154.8 345.2C152.757 344.188 150.924 342.796 149.4 341.1L147.6 339.3C146.3 337.6 146.3 337.6 146.3 334.8H148.2V332.8H150.1V331H152L153.9 327.2H155.8C154.8 323.7 153.8 322.4 151 320.1C148.2 317.7 148.2 317.7 146.3 312.9L154.8 304.4ZM63.6 305.3C67.9 306.4 69.3 307.7 72.2 311V313L77.9 314.8V313H80.7L81.4 310.8C82.8 308 83.7 306.8 86.4 305.4C89.9 305.8 91.4 307.3 93.8 309.8L95.6 311.6L96.9 313C94.3667 317 91.5 320.8 88.3 324.4C89.7 329.4 93.2 332.4 96.9 335.8C95.7587 338.392 94.1675 340.762 92.2 342.8L90.8 344.3C89.3 345.3 89.3 345.3 87.4 345.2C84.4 344 82.8 341.9 80.7 339.6V337.7C77.7 337.4 77.7 337.4 74.1 337.7C71.4772 339.862 69.2156 342.427 67.4 345.3C62.8 344.9 60.9 343.1 57.9 339.6V337.7H56V334.9C57.6 333.3 57.6 333.3 59.7 331.7C63.1 328.9 64.7 326.9 65.5 322.5L61.7 320.6V318.7L60 318C58 316.8 58 316.8 56.1 314L63.6 305.3ZM267.9 304.4C271.6 307.3 274.6 310.1 277.4 313.9L274.2 317.5L272.5 319.5C270.7 321.5 270.7 321.5 269.1 323C267.9 324.3 267.9 324.3 267.9 326.8C269.1 329.7 269.9 329.7 272.6 331C274.267 332.8 275.867 334.7 277.4 336.7L267.9 346.2L261.9 341.2L260.3 339.5V337.6C257.1 336.9 255.8 336.6 252.7 337.6L250.7 341.4C249 343.6 249 343.6 247 345.2C243.2 345.2 243.2 345.2 241.3 343.7L239.6 341.7L237.8 339.7C236.5 337.7 236.5 337.7 236.7 335.7C237.9 332.8 239.9 331.1 242.2 329.1H244.2C244.8 326.9 244.8 326.9 245.1 324.3C243.5 322.3 243.5 322.3 241.4 320.5C239.242 318.933 237.577 316.782 236.6 314.3C236.6 312 236.6 312 237.7 310L239.5 308.3L241.2 306.5C243.2 305.3 243.2 305.3 245.5 305.4C249.2 306.8 251.1 309.4 253.5 312.4C255.5 313.9 255.5 313.9 258.1 313.7C260.9 312.7 260.9 311.8 262.1 309.1C263.967 307.433 265.9 305.867 267.9 304.4ZM357.2 304.4L360.3 307L362.1 308.5C365.4 311.5 365.4 311.5 366.7 312.9C366.4 315 366.4 315 365.7 316.7H363.8L362.8 319.6C361 321.6 361 321.6 359.1 323.4H357.1C359.7 328.4 362.1 331.4 366.7 334.8C366.254 337.647 364.799 340.238 362.6 342.1L360.9 343.9C359.1 345.2 359.1 345.2 355.3 345.2C350.5 340.2 350.5 340.2 350.5 337.6H343L342.4 339.3C340.976 341.804 338.904 343.876 336.4 345.3C333.3 345.3 332.4 344 330 342C327.8 339.5 327.8 339.5 327.8 337.6H325.9C327.2 334.6 328.8 332.8 331.2 330.6C333.9 328 335.3 326.3 335.4 322.4L333.9 321.8C330.7 320 328.5 317.5 325.9 314.8C327.5 310.933 330.033 307.767 333.5 305.3C336.3 305.4 336.3 305.4 338.3 306.3V308.2L339.9 308.9C342.4 310.2 343.9 311.9 345.9 313.9C348.883 312.544 351.543 310.567 353.7 308.1L355.7 306L357.2 304.4ZM423.7 305.3C428.3 306 430.2 309 433.2 312.3C435.1 313.9 435.1 313.9 437 313.8C439.2 312.8 440.2 311.6 441.7 309.6C443.7 307.2 444.3 306.4 447.3 305.4H449.3L450 307.1C451.4 309.5 452.6 309.8 455 311.1C456 313.9 456 313.9 454.4 317.2C452.966 319.748 450.9 321.884 448.4 323.4C448.9 326.5 449.4 329.2 451.2 331.9C453.2 333.1 453.2 333.1 455 333.9L454 336.7L456 337.7L449.3 345.2C445.3 344.2 444.8 343.8 442.3 340.8C439.3 337.6 439.3 337.6 435.8 337.5C433.619 338.275 431.709 339.664 430.3 341.5H428.4L427.4 344.3C425.7 345.1 425.7 345.1 423.7 345.3C421.9 344 421.9 344 420.2 342.1L418.4 340.3C417 338.6 417 338.6 416.1 335.7L417.7 334.2L419.8 332.2L421.9 330.2C423.9 327.8 424.6 326.5 424.6 323.4C423 321.4 423 321.4 420.8 319.6C418.6 317.7 418.6 317.7 417 315.8C417.2 312.5 417.7 311.3 419.8 308.8C421.8 307.2 421.8 307.2 423.7 307.2V305.3Z" fill="white"/>
</g>
</g>
<defs>
<clipPath id="clip0_9_27">
<rect width="512" height="512" fill="white"/>
</clipPath>
</defs>
</svg>
