<svg xmlns="http://www.w3.org/2000/svg" width="512" height="512" viewBox="0 0 512 512">
  <defs>
    <clipPath id="c">
      <circle cx="256" cy="256" r="256"/>
    </clipPath>
  </defs>
  <g clip-path="url(#c)">
    <path fill="#FECB00" d="M0 0h445.3l33.9 255-33.9 257-323.7-134.3L0 66.8z"/>
    <path fill="#002395" d="M0 66.8V512h445.4z"/>
    <path fill="#002395" d="M445.3 0H512v512h-66.7z"/>
    <path fill="#FFFFFF" d="M32 96l10.8 33.2h34.9l-28.3 20.5 10.8 33.1-28.2-20.5-28.2 20.5 10.8-33.1-28.3-20.5h35zM96 160l10.8 33.2h34.9l-28.3 20.5 10.8 33.1-28.2-20.5-28.2 20.5 10.8-33.1-28.3-20.5h35zM160 224l10.8 33.2h34.9l-28.3 20.5 10.8 33.1-28.2-20.5-28.2 20.5 10.8-33.1-28.3-20.5h35zM224 288l10.8 33.2h34.9l-28.3 20.5 10.8 33.1-28.2-20.5-28.2 20.5 10.8-33.1-28.3-20.5h35zM288 352l10.8 33.2h34.9l-28.3 20.5 10.8 33.1-28.2-20.5-28.2 20.5 10.8-33.1-28.3-20.5h35zM352 416l10.8 33.2h34.9l-28.3 20.5 10.8 33.1-28.2-20.5-28.2 20.5 10.8-33.1-28.3-20.5h35z"/>
  </g>
</svg>
