<svg xmlns="http://www.w3.org/2000/svg" width="512" height="512" viewBox="0 0 512 512"><defs><clipPath id="c"><circle cx="256" cy="256" r="256"/></clipPath></defs><g clip-path="url(#c)"><path fill="#CE1126" d="M35.5 256h444l32.5-66.8V0H322.8L256 31.8v444.6L189.2 512H0V322.8z"/><path fill="#002D62" d="M479.5 256h-444L0 189.2V0h189.2L256 31.8v444.6l66.8 35.6H512V322.8z"/><path fill="#FFFFFF" d="M189.2 0h133.6v189.2H512v133.6H322.8V512H189.2V322.8H0V189.2h189.2z"/><path fill="#496E2D" d="M322.8 256a66.8 66.8 0 1 1-133.6 0c0-36.9 66.8-66.8 66.8-66.8s66.8 30 66.8 66.8z"/><path fill="#002D62" fill-rule="evenodd" d="M208 256h48v-50.6h-48zM304 256h-48v50.6h.1a48 48 0 0 0 47.9-48z"/><path fill="#CE1126" d="M208 205.4v53.3a48 48 0 1 0 96 0v-53.3z"/><path fill="#496E2D" fill-rule="evenodd" d="M240.9 245.8l-1.5 4.8a17.5 17.5 0 1 0 33.2 0l-1.5-4.8 9.5-3 1.6 4.7a27.5 27.5 0 1 1-52.4 0l1.6-4.8z"/></g></svg>