<svg xmlns="http://www.w3.org/2000/svg" width="512" height="512" viewBox="0 0 512 512">
  <defs>
    <clipPath id="c">
      <circle cx="256" cy="256" r="256"/>
    </clipPath>
  </defs>
  <g clip-path="url(#c)">
    <path fill="#DA2031" d="M0 0h167l89 32 89-32h167v512H345l-89-32-89 32H0Z"/>
    <path fill="#0066B2" d="M167 0h178v512H167z"/>
    <path fill="#FFD300" d="M84 133.6l7.9 24.2h25.5l-20.6 15 7.8 24.3L84 182l-20.6 15 7.8-24.3-20.6-15h25.5zM84 222.6a11.1 11.1 0 1 0 0-22.3 11.1 11.1 0 0 0 0 22.3zM61.7 233.7h44.6V256H61.7zM28.3 256h22.3v89H28.3zM117.4 256h22.3v89h-22.3zM84 311.7a22.3 22.3 0 1 0 0-44.6 22.3 22.3 0 0 0 0 44.6zM61.7 322.8h44.6V345H61.7z"/>
  </g>
</svg>
