<svg xmlns="http://www.w3.org/2000/svg" width="512" height="512" viewBox="0 0 512 512">
  <defs><clipPath id="c"><circle cx="256" cy="256" r="256"/></clipPath></defs>
  <g clip-path="url(#c)">
    <path fill="#FFFFFF" d="M256 0h256v64l-32 32 32 32v64l-32 32 32 32v64l-32 32 32 32v64l-256 32L0 448v-64l32-32-32-32v-64z"/>
    <path fill="#CC0001" d="M224 64h288v64H224Zm0 128h288v64H256ZM0 320h512v64H0Zm0 128h512v64H0Z"/>
    <path fill="#010066" d="M0 0h256v256H0Z"/>
    <path fill="#FCC200" d="M100 144a63.3 63.3 0 0 0 93.5 55.7 78 78 0 1 1 0-111.4A63.3 63.3 0 0 0 100 144"/>
    <path fill="#FCC200" d="m192.5 123-11.3-23.5L170 123l-25.4-5.9 11.4 23.5-20.4 16.1 25.4 5.8-.1 26 20.3-16.3 20.3 16.3v-26l25.4-5.8-20.4-16.1 11.3-23.5z"/>
  </g>
</svg>
