<svg xmlns="http://www.w3.org/2000/svg" width="512" height="512" viewBox="0 0 512 512"><defs><clipPath id="c"><circle cx="256" cy="256" r="256"/></clipPath></defs><g clip-path="url(#c)"><path fill="#FFFFFF" d="m0 167 253.8-19.3L512 167v178l-254.9 32.3L0 345z"/><path fill="#007A3D" d="M0 0h512v167H0z"/><path fill="#000000" d="M0 345h512v167H0z"/><path fill="#CE1126" d="m90 182 16.5 51.2h53.7l-43.4 31.5 16.6 51.1-43.5-31.6-43.4 31.6 16.5-51-43.5-31.6h53.7zm166 0 16.6 51.2h53.7l-43.4 31.5 16.5 51.1-43.4-31.6-43.4 31.6 16.5-51-43.4-31.6h53.7zm166 0 16.7 51.2h53.7l-43.5 31.5 16.6 51.1-43.4-31.6-43.5 31.6 16.6-51-43.4-31.6h53.7z"/></g></svg>