<svg xmlns="http://www.w3.org/2000/svg" width="512" height="512" viewBox="0 0 512 512">
  <defs>
    <clipPath id="c">
      <circle cx="256" cy="256" r="256"/>
    </clipPath>
  </defs>
  <g clip-path="url(#c)">
    <path fill="#00843D" d="M0 0h66l67 32 67-32h312v512H200l-67-32-67 32H0Z"/>
    <path fill="#D22630" d="M66 0h134v512H66Z"/>
    <path fill="#FFFFFF" d="M309.6 105.3l11-14.1-.6 17.8 16.9 6-17.2 5-.6 18-10-14.8-17.2 5 11-14.1-10.1-14.8zM358.5 100.8a78 78 0 0 1-51.4 143.3 78 78 0 0 0 114.7-39.7 78 78 0 0 0-63.3-103.6zM350.1 137.3l-11 14-16.8-6 10.1 14.8-11 14.2 17.2-5 10.1 14.7.5-17.8 17.2-5-16.8-6zM257.5 122l11-14.1-.6 17.8 16.8 6-17.1 5-.6 18-10-14.8-17.2 5 11-14.2-10.1-14.7zM267.3 160.6l-11 14.2-16.8-6 10 14.7-10.9 14.2 17.2-5 10 14.7.6-17.8 17.1-5-16.8-6zM306.5 192.8l11-14.1-.6 17.8 16.9 6-17.2 5-.5 18-10.1-14.8-17.2 5 11-14.2-10-14.7zM97 52l24-24h24l24 24v24l-24 24h-24L97 76zM97 436l24-24h24l24 24v24l-24 24h-24l-24-24z"/>
    <path fill="#FFC72C" d="M66 0v47l31-31L81 0zm119 0-16 16 31 31V0zm-64 28L97 52v12h36V28zm12 36v36h12l24-24V64zM66 81v62l31-31zm134 0-31 31 31 31zm-84 31-31 31v34l31 31-31 31v34l31 31-31 31v34l31 31h34l31-31v-34l-31-31 31-31v-34l-31-31 31-31v-34l-31-31zm-50 65v62l31-31zm134 0-31 31 31 31zM66 273v62l31-31zm134 0-31 31 31 31zM66 369v62l31-31zm134 0-31 31 31 31zm-79 43-24 24v12h36v-36zm12 36v36h12l24-24v-12zm-67 17v47h15l16-16zm134 0-31 31 16 16h15z"/>
    <path fill="#00843D" d="m121 124-24 24v24l24 24h24l24-24v-24l-24-24zm0 96-24 24v24l24 24h24l24-24v-24l-24-24zm0 96-24 24v24l24 24h24l24-24v-24l-24-24z"/>
    <path fill="#D22630" d="M133 148a12 12 0 0 0-12 12 12 12 0 0 0 12 12 12 12 0 0 0 12-12 12 12 0 0 0-12-12m0 96a12 12 0 0 0-12 12 12 12 0 0 0 12 12 12 12 0 0 0 12-12 12 12 0 0 0-12-12m0 96a12 12 0 0 0-12 12 12 12 0 0 0 12 12 12 12 0 0 0 12-12 12 12 0 0 0-12-12"/>
  </g>
</svg>
