<svg xmlns="http://www.w3.org/2000/svg" width="512" height="512" viewBox="0 0 512 512"><defs><clipPath id="c"><circle cx="256" cy="256" r="256"/></clipPath></defs><g clip-path="url(#c)"><path fill="#002868" d="M0 0h512v512H0z"/><path fill="#FFFFFF" d="M409.6 460.8A256 256 0 0 0 512 256c0-83.7-40.2-158.1-102.4-204.8L0 256z"/><path fill="#BF0A30" d="M409.6 460.8 0 256 409.6 51.2q11.2 8.4 21.4 18L57.2 256 431 442.9q-10.2 9.5-21.4 18"/><path fill="#a2001d" d="M445.2 246.5h-30.5c8-9.6 7.5-23.7-1.5-32.7a24 24 0 0 0 0-34.2l-.5.5a25 25 0 0 0 .5-34.8l-137 137a24 24 0 0 0 34 0l2.6-2.5 65.6-6v28.3h22.3v-30.2l33.4-3z"/><path fill="#FFCD00" d="M278.3 311.7 256 300.5l22.3-11.1H423v22.3z"/><!-- border --><circle cx="256" cy="256" r="256" fill="none" stroke="#cdcfd3" stroke-width="16"/></g></svg>