<svg xmlns="http://www.w3.org/2000/svg" width="512" height="512" viewBox="0 0 512 512"><defs><clipPath id="a"><circle cx="256" cy="256" r="256"/></clipPath></defs><g clip-path="url(#a)"><path fill="#0c2d83" d="M-133.114-34.504h778.24v581.02h-778.24z"/><path fill="#fefefe" d="M259.384 22.031c5.78 5.088 8.721 8.705 11.32 16.118.726 2.072-1.269 5.489-3.473 6.126-4.001-.266-5.445-6.927-7.988-9.056l-.65.116-.217.833c.939 3.697 2.5 7.293 5.787 9.496.141 3.443 6.753-3.324 10.743-3.962.809-.287 6.171 1.799 8.577 1.268l-.004-.868c-2.082-2.8-7.995-3.966-11.362-4.756.075-2.39 3.2-2.946 6.183-4.028.958-2.161 9.287-3.52 14.037 1.522.604.169 1.68-.14 2.782-1.106.993.573 7.273 2.961 11.373 5.572.679 1.705 9.211 3.21 9.606 6.79-2.01 6.79-20.991 6.15-23.864 13.966-1.41 3.838 5.677 9.544 7.646 12.97-1.246.656-3.762 1.885-4.853 2.597.024 7.46 20.577 9.715 33.71 9.614.049-.124 24.514-2.511 33.049-14.463-2.793-3.044-3.944-4.4-5.312-8.576-3.055-9.323.787-24.052 13.152-22.055.128.344 4.48 1.849 6.38 2.99.253 1.523 5.328 3.555 7.106 5.557l.323.276c7.353 6.396 14.748 17.576 23.047 23.879.098 5.392 11.989 6.667 19.882 10.021.2 3.485 14.801 9.847 20.379 16.63.238 2.904 4.416 6.887 5.438 11.008.771 3.012.11 7.978-1.444 10.735-2.155 3.885-9.139 3.836-12.441 1.833-4.799-2.912-4.009-11.355-11.351-9.66-22.994 5.312-32.232 31.839-28.261 52.935.025 10.765 7.342 21.59 13.942 29.838.071-.187 3.177-.535 5.172-1.091.122-10.197 26.053 7.11 17.366 17.095.919 2.79 12.76 8.856 18.096 16.49-9.185 3.455-15.55 7.515-24.89 5.267.31 1.857 4.845 3.263 5.255 6.072-.209 1.415-.711 1.68-1.79 2.71.365 1.345 1.129 3.87 1.364 5.145.007 39.526-.616 76.23-37.658 93.198-3.614 1.656-10.283 5.258-14.106 5.217.255 2.877.239 4.678-.41 7.543l-6.221-3.709c-5.16.882-5.35.988-10.146-.251.953 2.462 4.78 5.894 5.069 9.093.38 4.27-.676 14.322-3.933 17.336-.923.129-1.474.09-2.177-.661-4.366-4.682-9.492-9.261-13.954-13.737-2.067 10.955-4.419 9.154-10.86 17.822-1.015-1.015-2.39-2.238-3.089-3.435-12.126 7.315-24.723 13.156-37.673 18.81-9.546 4.165-19.509 7.17-28.078 13.349-5.366 3.868-9.732 9.052-14.102 13.984-4.381-4.495-10.633-11.742-15.194-15.375-8.647-6.882-21.434-10.997-31.719-15.28a155 155 0 0 1-17.12-8.516c-7.63-3.245-9.198-4.343-14.549-10.891-.778 5.14-2.353 8.907-4.94 13.342-10.857-4.34-14.128-13.688-14.547-24.582-1.866 1.619-6 6.753-8.308 5.71-1.067-1.85-1.997-9.214-2.4-11.676-3.856.813-5.752 1.079-9.683.893-.544-2.671-.686-4.347-.896-7.087-1.307-.114-1.955-.194-3.231-.49-1.156-1.24-.914-1.486-1.31-3.295-2.772-1.092-5.505-2.284-8.268-3.37-25.87-10.17-48.032-34.462-49.484-63.085-.305-6.018 1.849-24.744 8.341-28.047.79-.402 2.298.604 2.993 1.026.601-7.306 2.386-7.998 6.434-15.749.172-2.244 6.127-3.526 6.981-5.679-4.956-3.54-7.668 4.451-12.824 5.238-5.186.791-11.62-1.489-15.874-4.254l-.367-.242c4.674-9.097 11.134-18.87 22.666-14.34.322.52 3.627 1.19 5.048 1.206a3.3 3.3 0 0 0 2.372-.95c.187-1.363.324-.758-.359-1.893-1.851-.84-6.733-.146-7.777-.705-6.074-3.25-7.406-4.427-14.313-5.555.027-2.416 3.235-3.54 5.999-5.03-.54-6.44-2.225-11.376 4.152-15.558.373-5.49 11.492 1.498 16.802 7.603l.205.025c10.152-15.572 18.319-35.364 10.644-53.791-3.658-8.781-8.784-18.703-15.55-25.417-2.18-2.164-6.082-4.065-8.86-5.304-3.681 3.415-9.149 9.057-14.235 9.15-15.898.296-19.117-11.763-9.863-22.814.611-3.002 5.508-4.537 9.073-6.096.576-5.963 32.755-15.1 41.325-25.638.626-6.917 7.565-12.341 14.94-19.342.719-2.803 5.309-4.267 8.812-5.838.762-6.232 27.34 12.139 12.564 25.997.214 21.396 44.819 22.614 67.84 8.949l-5.125-2.578c.496-.81 1.569-2.548 2.262-3.06.583-10.744.355-16.334-10.086-18.88-2.602-.634-5.287-2.25-7.319-4.46l-.338-.371c2.895-3.492 15.962-11.218 20.01-8.658-.172 3.333-7.353 6.245-6.926 10.044.442 1.294 10.488-8.433 12.12-11.368.741-1.332 2.869-4.01 4.42-4.13.19-.705-1.125 10.686 2.766 12.973l1.089-.071c1.733-3.362 1.826-9.058 5.157-11.274.665-2.437 5.349.903 8.949 1.559.378-.75 5.419-8.86 10.621-13.052z"/><path fill="#fccd05" d="M259.384 22.031c5.78 5.088 8.721 8.705 11.32 16.118.726 2.072-1.269 5.489-3.473 6.126-4.001-.266-5.445-6.927-7.988-9.056l-.65.116-.217.833c.939 3.697 2.5 7.293 5.787 9.496.141 3.443 6.753-3.324 10.743-3.962.809-.287 6.171 1.799 8.577 1.268l-.004-.868c-2.082-2.8-7.995-3.966-11.362-4.756.075-2.39 3.2-2.946 6.183-4.028.958-2.161 9.287-3.52 14.037 1.522.604.169 1.68-.14 2.782-1.106.993.573 7.273 2.961 11.373 5.572.679 1.705 9.211 3.21 9.606 6.79-2.01 6.79-20.991 6.15-23.864 13.966-1.41 3.838 5.677 9.544 7.646 12.97-1.246.656-3.762 1.885-4.853 2.597.024 7.46 20.577 9.715 33.71 9.614.049-.124 24.514-2.511 33.049-14.463-2.793-3.044-3.944-4.4-5.312-8.576-3.055-9.323.787-24.052 13.152-22.055.128.344 4.48 1.849 6.38 2.99.253 1.523 5.328 3.555 7.106 5.557.285 5.674.441 11.443-.923 17.04-5.643 23.196-27.333 37.742-50.453 38.953-23.777 1.246-48.442-9.891-60.435-31.094-.798-1.41-2.022-3.96-2.189-5.573-2.056.38-2.656.514-4.769.449-5.054 3.442-6.129 3.999-10.743-.1-2.139-.328-3.401-.366-5.164-1.605-3.787 8.293-6.693 14.279-13.545 20.81-12.51 12.066-30.544 17.124-47.472 16.35-23.983-1.096-46.558-14.641-53.37-38.55-2.226-7.812-2.312-10.847-1.884-18.796.719-2.803 5.309-4.267 8.812-5.839.762-6.232 27.34 12.14 12.564 25.998.214 21.396 44.819 22.614 67.84 8.949l-5.125-2.578c.496-.81 1.569-2.548 2.262-3.06.583-10.745.355-16.335-10.086-18.88-2.602-.635-5.287-2.25-7.319-4.46l-.338-.372c2.895-3.492 15.962-11.218 20.01-8.658-.172 3.333-7.353 6.245-6.926 10.044.442 1.294 10.488-8.433 12.12-11.368.741-1.332 2.869-4.01 4.42-4.13.19-.704-1.125 10.687 2.766 12.974l1.089-.071c1.733-3.362 1.826-9.058 5.157-11.274.665-2.437 5.349.903 8.949 1.559.378-.75 5.419-8.86 10.621-13.052z"/><path fill="#177f24" d="M259.384 22.031c5.78 5.088 8.721 8.705 11.32 16.118.726 2.072-1.269 5.489-3.473 6.126-4.001-.266-5.445-6.927-7.988-9.056l-.65.116-.217.833c.939 3.697 2.5 7.293 5.787 9.496.141 3.443 6.753-3.324 10.743-3.962.809-.287 6.171 1.799 8.577 1.268l-.004-.868c-2.082-2.8-7.995-3.966-11.362-4.756.075-2.39 3.2-2.946 6.183-4.028.958-2.161 9.287-3.52 14.037 1.522.604.169 1.68-.14 2.782-1.106.993.573 7.273 2.961 11.373 5.572.679 1.705 9.211 3.21 9.606 6.79-2.01 6.79-20.991 6.15-23.864 13.966-1.41 3.838 5.677 9.544 7.646 12.97-1.246.656-3.762 1.885-4.853 2.597-5.198-3.337-9.261-7.652-11.335-13.524.362-12.42-8.755-20.299-15.614-3.82-4.127-11.096-11.769-12.598-17.879-1.637-2.747-12.292-14.436-16.158-18.772-3.376.604 3.547 2.224 4.617 4.984 7.427-3.458 6.166-9.017 11.316-15.032 14.975l-5.125-2.578c.496-.809 1.569-2.548 2.262-3.059.583-10.745.355-16.335-10.086-18.881-2.602-.634-5.287-2.249-7.319-4.46l-.338-.371c2.895-3.492 15.962-11.218 20.01-8.658-.172 3.333-7.353 6.245-6.926 10.044.442 1.294 10.488-8.433 12.12-11.368.741-1.332 2.869-4.01 4.42-4.13.19-.705-1.125 10.686 2.766 12.973l1.089-.07c1.733-3.363 1.826-9.059 5.157-11.274.665-2.437 5.349.903 8.949 1.558.378-.75 5.419-8.859 10.621-13.052z"/><path fill="#0c2d83" d="M292.338 34.843c1.604.169 1.68-.139 2.782-1.105.692 8.805 5.977 9.76 7.79 14.846l-.395.353c-9.12-2.574-7.566-7.587-10.176-14.094"/><path fill="#fefefe" d="M361.787 70.769c-2.793-3.044-3.944-4.4-5.312-8.576-3.055-9.323.787-24.052 13.152-22.055.128.344 4.48 1.849 6.38 2.99.122 5.78.217 9.783-.98 15.495-4.568 21.796-25.357 35.603-46.827 35.962-18.183.304-36.765-8.427-47.158-23.525-1.212-1.764-2.466-3.232-2.926-5.377.418-1.672 3.637-2.116 5.578-3.574.075 5.87 6.137 10.186 11.335 13.523.024 7.46 20.577 9.715 33.71 9.614.049-.124 24.514-2.511 33.049-14.463"/><path fill="#fccd05" d="M365.438 47.432c8.463 2.73 2.964 15.278-.391 20.156-5.107-3.79-5.647-16.045.391-20.156"/><path fill="#fefefe" d="M140.977 40.731c16.762-6.232 27.34 12.139 12.564 25.997.214 21.396 44.819 22.614 67.84 8.95.014-3.66 11.573-8.81 15.032-14.975l3.566 1.237c-3.531 7.79-8.868 13.883-15.482 19.299-23.413 19.174-57.826 14.539-76.359-9.03-7.718-9.813-8.672-19.288-7.16-31.476"/><path fill="#fccd05" d="M149.567 45.578c3.093.097 3.878 1.148 5.607 3.471.977 6.135-.286 9.582-2.708 15.111l-.41.071c-4.325-2.728-7.254-14.505-2.489-18.653"/><path fill="#177f24" d="m397.457 102.964.22-.296c1.398-1.88 2.987-5.493 3.8-6.358.711.865.821 4.943.749 6.206-2.056.381-2.656.514-4.769.449M249.481 61.33c1.448 2.725 2.424 4.426 4.119 7.03-2.139-.328-3.401-.366-5.164-1.605.437-1.914.817-3.468 1.045-5.425"/><path fill="#fccd05" d="M347.286 330.369c5.005-11.869 14.144-14.955 21.812-2.605.758 2.427 5.461 2.64 8.565 4.396.014 2.923 3.048 5.09 4.613 8.25.562 1.644 1.292 3.002.783 4.556-.669.686-.851.78-1.623 1.313.255 2.877.239 4.678-.41 7.543l-6.221-3.71c-5.16.883-5.35.989-10.146-.25.953 2.462 4.78 5.894 5.069 9.093.38 4.27-.676 14.322-3.933 17.336-.923.129-1.474.09-2.177-.661-4.366-4.682-9.492-9.261-13.954-13.737-2.067 10.955-4.419 9.154-10.86 17.822-1.015-1.015-2.39-2.238-3.089-3.435-12.126 7.315-24.723 13.156-37.673 18.81-9.546 4.165-19.509 7.17-28.078 13.349-5.366 3.868-9.732 9.052-14.102 13.984-4.381-4.495-10.633-11.742-15.194-15.375-8.647-6.882-21.434-10.997-31.719-15.28a155 155 0 0 1-17.12-8.516c-7.63-3.245-9.198-4.343-14.549-10.891-.778 5.14-2.353 8.907-4.94 13.342-10.857-4.34-14.128-13.688-14.547-24.582-1.866 1.619-6 6.753-8.308 5.71-1.067-1.85-1.997-9.214-2.4-11.676-3.856.813-5.752 1.079-9.683.893-.544-2.671-.686-4.347-.896-7.087-1.307-.114-1.955-.194-3.231-.49-1.156-1.24-.914-1.486-1.31-3.295l.119-5.567c2.586-3.251 4.943-4.364 8.509-6.342.253-1.086 2.363-1.39 3.92-3.229.419-.82 5.895-.48 9.411-.209.233-2.851 7-3.303 11.937.69l1.372 1.985c9.362-9.166 17.72-1.043 20.202 8.936.754-.695 3.296-1.088 5.203-.963a12.3 12.3 0 0 1 8.652 4.315c4.874 5.837 2.719 13.026-2.923 17.438.305 14.155 25.769 14.972 41.254 23.108a58.8 58.8 0 0 1 16.697 13.08c14.109-14.957 33.546-17.704 51.346-26.725.289-3.184 10.389-6.468 15.743-10.963-4.811-11.366-.961-15.968 10.188-18.823.535-9.689 4.552-9.296 13.691-11.543"/><path fill="#177f24" d="M153.923 329.832c5.233-2.851 7-3.303 11.937.69l1.372 1.985c-2.145 3.137-3.369 5.575-2.659 9.537a10.9 10.9 0 0 0 4.72 7.255c4.695 3.101 9.107 1.949 13.764-.308.92 8.706 6.768 8.732 10.105 15.348-.682 6.703.573 5.86 1.023 10.895.011 2.189.291 4.944-.543 6.863-.834.703-.825.71-1.814 1.155-7.63-3.245-9.198-4.343-14.549-10.891-.778 5.14-2.353 8.907-4.94 13.342-10.857-4.34-14.128-13.688-14.547-24.582-1.866 1.619-6 6.753-8.308 5.71-1.067-1.85-1.997-9.214-2.4-11.676-3.856.813-5.752 1.079-9.683.893-.544-2.671-.686-4.347-.896-7.087-1.307-.114-1.955-.194-3.231-.49-1.156-1.24-.914-1.486-1.31-3.295l.119-5.567c2.586-3.251 4.943-4.364 8.509-6.342.253-1.086 2.363-1.39 3.92-3.229.419-.82 5.895-.48 9.411-.209M369.098 327.764c3.758 2.427 5.461 2.641 8.565 4.396.014 2.923 3.048 5.09 4.613 8.25.562 1.644 1.292 3.002.783 4.556-.669.686-.851.781-1.623 1.313.255 2.877.239 4.678-.41 7.543l-6.221-3.709c-5.16.882-5.35.988-10.146-.25.953 2.461 4.78 5.893 5.069 9.092.38 4.271-.676 14.322-3.933 17.336-.923.13-1.474.091-2.177-.66-4.366-4.683-9.492-9.262-13.954-13.738-2.067 10.955-4.419 9.154-10.86 17.822-1.015-1.015-2.39-2.238-3.089-3.435-2.725-1.182-6.05-1.976-9.519-3.51-2.177-2.156-1.535-5.05-1.349-7.878.163-1.695 4.267-4.526 5.852-6.065.554-6.07 1.664-7.174 6.574-11.392.161 1.486 9.435 3.055 13.216.008.647-4.547 1.634-10.117-1.49-14.131.166-1.91 3.416-2.817 5.932-4.171.55 1.192 4.45 2.668 6.718 4.299.656-2.685 3.792-4.734 7.448-5.675"/><path fill="#fefefe" d="M326.196 372.769c3.469 1.535 6.794 2.329 9.519 3.511-12.126 7.315-24.723 13.156-37.673 18.81-9.546 4.165-19.509 7.171-28.078 13.349-5.366 3.868-9.732 9.052-14.102 13.984-4.381-4.495-10.633-11.742-15.194-15.375-8.647-6.882-21.434-10.997-31.719-15.28a155 155 0 0 1-17.12-8.516c.989-.445.98-.452 1.814-1.155.834-1.919.555-4.674.543-6.863.118.2 11.78 9.253 15.897 10.002.417.258 11.959 4.621 13.923 5.381.717 4.917 22.864 12.016 32.221 21.821.87-14.592 33.588-21.998 51.9-29.376.289-2.535 12.855-5.966 18.069-10.298"/><path fill="#fccd05" d="M396.823 213.525c-2.903-3.855-5.886-7.782-8.303-11.965a74.35 74.35 0 0 1-7.425-57.294c4.203-15.676 15.154-30.968 29.344-39.072.344-5.907 24.73-8.864 36.305-5.705.238 2.904 4.416 6.887 5.438 11.008.771 3.012.11 7.978-1.444 10.735-2.155 3.885-9.139 3.836-12.441 1.833-4.799-2.912-4.009-11.355-11.351-9.66-22.994 5.312-32.232 31.839-28.261 52.935.025 10.765 7.342 21.59 13.942 29.838.071-.187 3.177-.535 5.172-1.091.122-10.197 26.053 7.11 17.366 17.095.919 2.79 12.76 8.856 18.096 16.49-9.185 3.455-15.55 7.515-24.89 5.267.31 1.857 4.845 3.263 5.255 6.072-.209 1.415-.711 1.68-1.79 2.71.365 1.345 1.129 3.87 1.364 5.145.007 39.526-.616 76.23-37.658 93.198-3.614 1.656-10.283 5.258-14.106 5.217.771-.532.954-.627 1.623-1.313.509-1.554-.22-2.913-.783-4.556-1.566-3.159-2.599-5.327-4.613-8.251.569-3.907 34.177-19.96 40.421-34.737.798-16.077 3.534-29.027-2.645-44.217-10.579 11.29-28.466 2.24-16.64-16.902-8.995-6.042-8.656-15.094-1.976-22.786"/><path fill="#177f24" d="M417.799 195.087c12.122-10.197 26.053 7.111 17.366 17.095.919 2.79 12.76 8.856 18.096 16.49-9.185 3.455-15.55 7.515-24.89 5.267.31 1.857 4.845 3.263 5.255 6.072-.209 1.415-.711 1.681-1.79 2.71.365 1.345 1.129 3.871 1.364 5.145.532 4.239 1.235 8.938 1.63 13.144a192 192 0 0 1-5.913-3.083c-1.201-.875-1.718-1.26-3.048-1.902-1.55.22-1.022.093-2.367 1.339-3.2-1.338-11.78-6.509-15.173-8.431-1.402-.793-4.324-7.282-5.654-8.506-.391-.363-1.227.179-2.481-1.188.186-2.294 5.183-5.438 7.171-6.21.229-2.03 6.327-2.838 8.083-8.052-2.436-8.937-6.601-11.269-15.439-11.223-2.664-6.349-4.465-10.38 1.486-15.419.556-2.677 6.046-2.485 11.134-2.158.071-.187 3.177-.535 5.172-1.09"/><path fill="#fccd05" d="M417.799 195.087c12.122-10.197 26.053 7.111 17.366 17.094-6.365 2.746-18.316 6.195-19.885-4.189-.851-5.619 2.132-8.1 2.519-12.905"/><path fill="#fefefe" d="M401.493 198.335a161 161 0 0 1-1.615-2.459c-10.29-15.996-12.202-29-8.333-47.471.842-13.577 10.583-28.305 22.515-35.835.753-8.046 24.658-5.095 38.122-2.074.771 3.012.11 7.978-1.444 10.735-2.155 3.885-9.139 3.836-12.441 1.833-4.799-2.912-4.009-11.355-11.351-9.66-22.994 5.312-32.232 31.839-28.261 52.935.025 10.765 7.342 21.59 13.942 29.838-5.088-.327-6.578-.52-11.134 2.158"/><path fill="#fccd05" d="M443.536 113.04c6.973-.333 8.432 6.062.524 7.382-2.888-.231-6.05-.765-6.62-4.07.79-3.095 3.363-2.986 6.095-3.312"/><path fill="#fefefe" d="M433.2 247.865c20.007 39.526-.616 76.23-37.658 93.198-3.614 1.656-10.283 5.258-14.106 5.217.771-.532.954-.627 1.623-1.313.509-1.554-.22-2.913-.783-4.556.538-.863 7.539-3.145 10.724-4.884.373-6.213 23.944-15.966 30.689-27.166.692-11.305 10.72-24.338 8.417-37.547-.802-4.606-2.094-8.432-3.188-12.893a192 192 0 0 0 5.913 3.083c-.395-4.206-1.098-8.905-1.63-13.144"/><path fill="#fccd05" d="m209.014 126.052.277.073c3.821.958 7.781.997 11.636 2.163.593 4.714 31.483 14.935 39.84 29.284.404 26.448 11.325 55.543-3.493 80.954-1.003-4.174-6.002-5.654-9.538-7.026-2.134-.536-1.973-.454-3.256 1.106-.575.013-5.331-1.882-6.677-2.283.152-15.572 18.319-35.364 10.644-53.79-3.658-8.782-8.784-18.704-15.55-25.418-2.18-2.164-6.082-4.065-8.86-5.304-3.681 3.415-9.149 9.057-14.235 9.151-15.898.295-19.117-11.764-9.863-22.814.611-3.002 5.508-4.537 9.073-6.096"/><path fill="#fefefe" d="M90.924 111.307c-3.681 3.415-9.149 9.057-14.235 9.151-15.898.295-19.117-11.764-9.863-22.814.944.466 8.258.83 10.743 1.633.829 4.46 26.769 11.715 35.385 23.585.068 13.87 14.494 30.885 12.02 47.795-.923 6.312-6.271 21.665-10.352 26.339-2.134-.536-1.973-.454-3.256 1.106-.575.013-5.331-1.882-6.677-2.283.152-15.572 18.319-35.364 10.644-53.791-3.658-8.781-8.784-18.703-15.55-25.417-2.18-2.164-6.082-4.065-8.86-5.304"/><path fill="#fccd05" d="M70.935 106.165a25 25 0 0 1 1.909-.055c2.698.015 11.631.714 13.761 2.744.651.62.461.971.448 1.792-.988 2.111-3.175 3.376-5.096 4.607-11.008 4.772-21.528-5.293-11.022-9.087"/><path fill="#177f24" d="M83.53 203.748c-.54-6.44-2.225-11.376 4.152-15.559.373-5.49 11.492 1.498 16.802 7.603l.205.025c1.346.401 6.102 2.296 6.677 2.283.282-1.56 1.122-1.642 3.256-1.106.537 1.373 8.535 2.853 9.538 7.026.112 1.789 1.387 3.655.402 5.287-.822 1.363-2.284 2.927-3.348 4.159.307 5.268 5.81 13.379.765 19.363q-.271.32-.548.639c-1.183 2.23-1.984 3.82-2.947 6.145-7.393 9.147-12.148 3.173-16.093 10.865l-.933 1.792-2.623 2.564c-1.417.722-2.069 1.22-3.652 1.193-1.083-.793-.764-1.196-1.078-2.955-1.408-.755-3.684.402-6.536-.141l-2.025-1.233c6.601-7.306 2.386-7.998 6.434-15.748.172-2.244 6.127-3.526 6.981-5.68-4.956-3.54-7.668 4.452-12.824 5.239-5.186.79-11.62-1.49-15.874-4.254l-.367-.242c4.674-9.097 11.134-18.871 22.666-14.341.322.52 3.627 1.19 5.048 1.206a3.3 3.3 0 0 0 2.372-.95c.187-1.363.324-.758-.359-1.893-1.851-.84-6.733-.146-7.777-.705-6.074-3.25-7.406-4.427-14.313-5.555.027-2.416 3.235-3.54 5.999-5.03"/><path fill="#fccd05" d="M111.516 213.036c3.197.323 7.397 1.694 9.699.432.307 5.268 5.81 13.379.765 19.363q-.271.32-.548.639c-2.873.05-4.954 1.337-7.942.415-11.436-3.528-12.71-15.027-1.975-20.848M83.53 203.748c-.54-6.44-2.225-11.376 4.152-15.559.373-5.49 11.492 1.498 16.802 7.603-.853 13.235-6.094 6.987-14.074 4.728zM131.964 345.176c-2.772-1.092-5.505-2.284-8.268-3.37-25.87-10.17-48.032-34.462-49.484-63.085-.305-6.018 1.849-24.744 8.341-28.047.79-.402 2.298.604 2.993 1.025l2.025 1.233c2.853.543 5.128-.614 6.536.141.314 1.759-.005 2.161 1.078 2.955.583.027 2.234-.47 3.652-1.193-14.833 34.778 7.154 62.933 38.112 76.705.13.503 2.55 1.166 3.642 1.73-3.566 1.975-5.923 3.088-8.509 6.34z"/><path fill="#fefefe" d="M131.964 345.176c-2.772-1.092-5.505-2.284-8.268-3.37-25.87-10.17-48.032-34.462-49.484-63.085-.305-6.018 1.849-24.744 8.341-28.047.79-.402 2.298.604 2.993 1.025l2.025 1.233c-1.429 3.434-2.366 6.796-3.349 10.371-8.764 31.861 17.201 63.441 45.726 75.46q1.059.445 2.134.846z"/><path fill="#fccd05" d="M118.487 239.614c15.48 17.668-13.677 27.123-17.026 12.657l.933-1.792c3.946-7.692 8.701-1.718 16.093-10.865M144.512 330.041c.638-3.478 1.331-7.403 4.575-9.319.285-5.48 15.903.667 16.774 9.8-4.937-3.994-6.704-3.542-11.937-.69-3.516-.272-5.992-.613-9.411.208"/><path fill="#663627" d="M181.103 130.043c.071-2.047-.235-9.117 3.114-7.897.732 2.138 1.431 4.675 1.531 7.477.376.08 3.684.005 5.925.85.606 1.37.899.936 1.988 1.995.035-.092 2.267-.159 3.269-.347.521 3.862 3.883 7.24 5.85 10.4-1.254.565-1.989.229-3.363-.073-1.076-1.828-2.35-3.696-3.522-5.478-3.942-2.285-5.664-2.61-10.156-2.696a454 454 0 0 0 .38 36.873c4.074 5.443 8.591 10.545 12.655 15.998.885 1.188 2.001 3.719 2.845 4.52-.695 1.823-.347 3.888.285 5.69-.285 2.874-.819 4.543-2.07 7.18-1.228 1.498-1.336 1.899-1.974 3.642-3.037 3.127-8.736 7.871-10.574 11.13-.276 8.818.847 19.378 2.346 28.101-3.124.043-4.981-.521-7.513-2.228-2.039.092-2.711.071-4.679.663-1.902 1.836-9.213 2.047-11.824 1.991.251-3.346 3.629-7.022 4.204-10.644.017-2.237 1.905-5.766 2.456-8.168.526-.727 1.68-3.638 2.168-4.668.046-4.32 3.934-6.431 7.075-9.871.003-12.934-.059-27.781-.468-40.678-4.77-7.231-7.389-9.448-12.283-18.064a54 54 0 0 0-1.029-3.501c-.843-3.968-.624-7.057-.082-11.011l.756-.15c1.219-1.16 2.812-3.642 2.055-5.297.509-2.835 5.431-3.972 10.635-5.738"/><path fill="#fefefe" d="M177.439 245.843c-.722-7.313.798-15.782 4.38-22.253-.163 7.379.042 14.234.299 21.589-2.039.092-2.711.071-4.679.663"/><path fill="#45612f" d="M193.661 132.468c1.035-.092 2.267-.159 3.269-.347.521 3.862 3.883 7.24 5.85 10.4-1.254.565-1.989.229-3.363-.073-1.076-1.828-2.35-3.696-3.522-5.478.582.026.727.127 1.191.47.899.07.443.1 1.424-.58l-.072-.592c-1.089-1.48-3.203-2.76-4.778-3.8"/><path fill="#fefefe" d="M186.191 178.913c2.947 1.601 8.656 11.191 9.138 14.83.663 5.008-.625 8.053-3.401 12.002-1.665 1.746-3.012 2.757-4.92 4.251zM313.333 170.178l.401.218c.461.678.425 26.085.477 29.59l-2.979-4.145c-6.839-8.971-8.989-19.204 2.101-25.664"/><path fill="#663627" d="M254.163 206.8c2.812 4.034 2.519 4.566 3.07 9.45.986 1.51 6.677 2.74 10.75 6.017-.049 1.78 1.398 4.118 2.797 5.12.551 3.086.714 7.74-.338 10.68-.657 1.343-1.417 2.953-1.566 4.456-3.762 8.29-7.889 10.718-11.332 16.722q.013 13.83-.118 27.656c-.046 4.238-.372 10.021-.171 14.109.475 6.897 5.316 7.263 9.162 14.451.676 2.73 1.349 5.743 2.231 8.392.36 4.64 2.873 6.26 4.511 10.106-3.538.248-9.918.763-12.236-2.398-1.474.073-2.835.091-4.286.378-2.842 1.626-4.438 1.828-7.649 2.053.444-5.283 2.523-23.238 2.527-28.714-3.192-4.225-7.068-6.783-10.563-10.82-.595-1.517-.96-2.334-2.171-3.446-1.4-2.827-1.861-5.157-2.294-8.254.529-1.034.687-3.265.66-4.419.278-6.181 10.895-16.015 15.363-21.494.19-3.48.809-34.781-.057-35.983-1.813-.469-2.778-.062-4.495.19-5.312.779-6.953 3.56-8.644 8.232l-.475.484c-1.119-.002-2.969-.063-4.019.073.89-5.382 3.223-7.119 7.484-11.575.849-.122 2.983-.513 4.658-1.184.158-.618 3.306-.773 5.552-1.062.414-3.376.669-5.95 1.649-9.22"/><path fill="#fefefe" d="M256.637 331.939c.19-7.385.277-14.773.27-22.162.759 5.797 5.312 15.434 4.017 21.782-1.474.073-2.835.091-4.286.378M384.864 299.719l.274.272c.73 2.381-.099 26.442-.129 31.11-1.364-1.479-3.287-3.233-4.765-4.659-9.183-9.463-2.254-18.644 4.621-26.723M257.397 221.763c11.073 5.223 9.986 14.878 4.1 23.826-1.254 1.78-2.645 3.566-3.963 5.307.072-8.894.456-20.412-.137-29.133"/><path fill="#663627" d="M330.334 129.517c.194-2.793-.038-5.543 1.911-7.488l.817-.092c2.06 1.765 1.79 3.956 1.995 6.689l.076 1.087c4.203 1.957 6.623 3.023 10.423 5.734.019 1.51 1.699 4.827 2.877 5.63.551 5.217.733 5.915-.106 11.393-.825 1.657-.942 1.909-1.269 3.758-2.06 3.383-3.716 6.043-6.053 9.218-1.725 2.348-4.537 5.719-5.966 8.091a2177 2177 0 0 0-.3 41.128c.54 7.064 5.096 7.277 9.207 14.09.581 2.438.98 5.872 2.31 7.74.714 5.207 2.052 6.572 4.161 11.205-2.953-.064-9.975.444-11.529-2.262-2.143-.396-2.569-.474-4.746-.314-2.489 1.639-4.761 2.683-7.828 2.569.577-6.33 2.652-21.74 2.478-28.331-2.603-4.288-7.19-6.935-10.667-11.627-.532-1.332-1.003-1.821-1.866-2.927-.79-1.811-2.132-6.454-2.592-8.326.064-1.197.866-2.625.859-4.192.476-9.63 10.442-13.539 15.569-21.955q.235-11.282.224-22.568c.004-3.688.167-9.19-.266-12.727-2.348-2.82-8.698 1.316-10.815 3.026-.593-1.396-.372-2.004.395-3.21l1.292-2.084.713-1.627c2.375-1.039 4.058-1.507 6.696-1.629"/><path fill="#fefefe" d="m467.256 279.627.236-21.64c2.911 6.07 5.461 15.279 4.511 21.953-2.143-.396-2.569-.474-4.746-.314M462.513 213.838l.224.122c.498.881-.274 27.359-.27 30.741-1.478-1.224-3.029-2.654-4.48-3.937-8.288-9.82-3.72-18.853 4.526-26.926M335.069 135.585c11.776 4.771 9.656 15.726 3.834 24.422-1.372 1.974-2.671 3.548-4.207 5.407q.385-14.912.372-29.829"/><path fill="#177f24" d="M160.87 129.255c.887-3.545 1.522-12.608 5.259-14.37l.821.333c1.076 1.574 1.417 4.634 1.963 5.282.664 6.702 2.096 8.1 1.555 15.282.757 1.654-.835 4.137-2.055 5.297l-.756.15c-3.913 1.083-7.364 6.945-12.202 5.243-2.083-.733-4.798-2.455-5.809-4.455.51-2.684 4.865-1.539 7.074-3.623-.022-1.186.062-.754-.917-1.86-1.7-.537-5.701.277-7.683.557-2.768-2.987-4.688-2.994-8.708-4.159l-.244-.786c1.564-4.564 12.499-7.137 16.739-8.005.328-.272 4.14 4 4.963 5.116M204.63 179.547c1.088-1.993 3.175-6.607 5.171-7.255.717 1.623 1.488 10.23 1.182 12.994.09.419.511.358 1.802-.061.802-2.465 1.801-5.852 5.496-6.224.543-.657 9.612 9.251 10.505 13.603-1.071 1.366-2.058 2.876-3.896 2.856-4.843-.05-7.023-2.669-12.408-3.784.099 2.262 9.996 5.375 7.344 10.475-3.331 1.813-13.148-3.133-15.576-5.691-.18-.19-2.02.729-2.345.893-.632-1.802-.98-3.867-.285-5.691.156-2.871-4.592-8.561-.792-12.363.862-.532 1.626-.398 3.803.246M267.984 222.267c-.407-6.635-5.681-7.614 1.395-15.61.026-1.161.076-4.938 2.565-5.124.272 2.272 3.789 9.46 5.749 13.864.961-1.517 2.588-4.527 4.032-5.325.815.062 16.066 4.231 16.724 8.89l-.327.788c-4.191 1.198-6.053.343-8.212 3.465-2.58-.273-6.502-1.19-8.379.248-1.072 3.487 4.704 1.754 6.661 3.043.939 2.362-3.302 4.918-5.217 5.602-4.628 1.653-8.413-2.988-12.194-4.723-1.398-1-2.846-3.339-2.797-5.119M343.847 124.358c5.529-4.702 2.219-5.412 5.058-9.35.442.867 3.306 9.53 5.993 12.628.965.055 3.07-2.439 4.465-3.796.979 1.126 17.203 4.039 17.016 8.966-1.334 1.697-4.872 1.016-6.779 1.864-1.562.694-.243 2.194-2.436 2.46-2.398.293-5.947-1.712-7.767-.287-.483 1.265-.437.632-.11 1.972.607 2.234 6.608.32 6.855 3.002-1.06 1.902-3.34 3.809-5.419 4.424-5.039 1.49-8.508-3.268-12.289-5.212-1.178-.803-2.858-4.12-2.877-5.63-1.345-5.467-1.889-5.106-1.71-11.09M313.667 196.481c-1.094-.133-1.421-.139-2.527-.089-3.39 3.045-20.14 12.51-14.235.363.593-1.226 4.089-3.009 4.701-4.441-3.777-.017-14.512 8.972-13.372-2.41.752-7.479 10.537-16.394 14.953-5.354.266.666.847.789 1.44.861.612-2.29-1.497-11.156 1.562-13.304.208.752 3.511 5.802 5.476 7.062.52.973 1.889-.705 3.8.093.98 1.326 1.182 2.855 1.573 4.495-1.011 3.942-3.359 5.184-2.512 8.535.008 1.565.205 2.993-.859 4.19M218.82 280.218c-2.77.71-5.201 1.134-7.736-.62-1.618-2.966 2.221-10.758 4.849-12.776.009-3.847 8.598 1.707 11.259 5.172l.383-.283c-.681-2.467-1.581-12.087 1.325-13.31.179.868 3.886 4.753 5.083 6.918.958-1.51 2.21 8.775 3.163 13.021.027 1.153-.131 3.385-.66 4.42-1.013-.307-1.454-.548-2.485-.304-2.828 2.916-13.712 8.296-15.839 3.711.084-1.898 1.162-3.338 2.352-4.729-.539-.494-1.084-.812-1.694-1.219"/><path fill="#e1fde2" d="M218.82 280.218c1.614-.759 2.748-1.477 4.509-1.488l.48.363c-.65 1.097-2.106 1.688-3.295 2.343-.539-.494-1.084-.812-1.694-1.219"/><path fill="#177f24" d="M164.25 222.552c.847-2.973 1.656-16.128 7.309-13.308.877 1.579.559 4.573.543 6.538l2.487 3.938c-.343 2.6-1.588 6.66-2.314 9.301-.551 2.402-1.438 5.931-2.456 8.168-.504-.55-.931-.944-1.469-1.452-1.456-.279-5.238 1.791-7.166 2.257-3.749.905-9.415-2.614-10.057-6.5l.432-.583c2.206-.549 4.308.168 6.982-.103.93-.815.65-.314.824-1.579-1.457-2.847-5.62-.775-7.546-2.458-1.621-3.904-3.423-3.83-7.448-6.297.751-6.112 6.52-4.432 14.181-5.112.917-.08.45-.292 1.838-.072.208 1.575 2.931 4.652 3.86 7.26M260.923 331.561c2.318 3.161 8.698 2.646 12.236 2.398.442.103 22.633 3.483 24.312 7.264l-.289.325c-2.424-.078-15.067.253-16.063.087-8.349-1.395-57.118 1.54-61.482-1.88l.061-.692c2.551-2.242 9.193-1.889 12.48-2.706.869-1.458 10.773-2.221 16.808-2.365.211-.225 4.807-.427 7.649-2.054.452-.286 2.812-.304 4.286-.377M341.582 219.862c.616-1.016 1.79-2.902 2.079-3.983.741-2.812-.346-4.94 1.835-7.046.155-.246 1.208-.19 2.352.263.725 2.476 2.44 8.232 3.819 12.554.707-1.41 2.751-6.027 4.264-6.165.545-.417 13.813-.597 15.109 5.16-.817 1.688-4.302 2.493-5.746 3.77-.904.804-1.174 2.568-2.109 2.904-2.295.825-5.217-.565-6.696 1.533.106 1.442-.163.849.779 1.872.588.929 5.692-.521 7.452.307.456 2.502-5.506 6.783-7.885 7.335-4.074.945-7.418-3.982-10.579-1.87-1.33-1.868-1.729-5.302-2.31-7.74-.661-3.004-1.801-6.042-2.364-8.892M182.119 245.179c2.532 1.707 4.39 2.271 7.513 2.229.985.39 11.012 1.14 16.816 2.605.304.834 9.636.465 12.086 2.82-1.463 3.65-30.129 1.657-34.661 1.66-11.696.01-23.382 1.489-35.06.58-2.38-.175-5.193-.064-7.432-.697l-.482-.55c2.327-3.228 20.119-5.703 24.716-5.993.611.057 9.923-.154 11.824-1.991.969-.592 2.641-.572 4.679-.663M263.69 305.919c.623-.79 1.733-2.16 2.067-3.074.851-2.331.095-6.227 2.075-7.846.027-.318 4.822 9.326 5.685 12.733.783-1.27 3.747-6.566 4.712-6.43.935.98 11.419-.56 15.428 5.669-4.416 2.39-5.4 2.95-9.192 6.415-1.79.145-3.929.142-5.445.94-.711 1.114-.73.773-.657 1.852.147 1.582 6.673-.819 8.531 1.504-.103 3.498-5.502 6.731-8.755 6.607-2.291-.087-6.213-2.34-7.931-1.88l-1.558 1.443c-.882-2.649-1.554-5.662-2.231-8.392-.783-3.409-1.881-6.295-2.728-9.54M334.142 245.123c2.177-.16 2.603-.082 4.746.314.554 2.706 8.577 2.198 11.529 2.262.172.982 22.382 3.033 25 6.123l-.209.508c-12.532 2.905-30.879-.453-43.932.167-5.799.275-30.662 1.868-33.679-1.523l.384-.553c3.758-2.024 7.931-1.537 11.594-2.365.658-1.502 9.918-2.145 16.739-2.364.067.114 5.339-.93 7.828-2.57"/><path fill="#822083" d="M316.259 204.807c.863 1.107 1.334 1.595 1.866 2.927l-2.512 2.706c11.134 10.17 5.164 12.562-.969 22.117.471 2.882.163 5.878-3.264 6.433-5.255-1.395-11.727-15.282-10.644-20.645.099-.497 5.78-6.242 6.612-6.433.532-.095 2.124-.287 2.592-.628.158-3.301 3.124-4.077 6.319-6.477"/><path fill="#177f24" d="M316.259 204.807c.863 1.107 1.334 1.595 1.866 2.927l-2.512 2.706c-1.999.52-3.424 1.029-5.48.858l-.194-.015c2.158-3.301 3.124-4.077 6.319-6.477"/><path fill="#822083" d="M202.78 142.521c1.389 1.253 2.445 1.538 4.27 1.731.707.391 4.813 5.474 6.121 8.71-2.228 4.347-4.364 6.965-6.851 11.015-1.088 1.771.298 6.166-3.212 7.725-3.435.012-4.946-3.202-5.751-6-.892-.888-1.161-1.09-2.201-1.81l-.13-.497c-1.129-4.256-5.097-9.944-2.985-14.749.983-2.234 4.043-.728 4.942-3.226.405-1.125 1.477-2.228 2.432-2.97.374.301 2.109.637 3.363.072M159.964 160.4c.872.427 3.162 1.468 4.14 1.501.875 2.977 4.241 2.74 4.672 7.317.657 6.981-4.514 7.616-6.404 13.495.588 2.454 1.044 5.031-2.324 6.05-4.213 1.275-4.463-2.742-5.968-5.272l-2.085-1.24c-1.764-4.517-4.112-8.395-3.958-13.983-.389-1.943 3.874-2.964 3.996-3.279.772-4.589 5.41-2.462 7.931-4.59M313.473 142.587c1.414.469 1.657.433 3.154.32l.646-.394.846 4.507c2.295.465 4.062.847 4.575 3.319.293 1.414-1.015 2.866-1.729 4.025.794 5.128-2.337 8.278-5.02 12.322-.999 1.51-.859 2.846-2.402 4.418-2.269.897-3.8-.066-5.445-1.848-1.022-1.112.619-3.485.023-4.708-1.577-3.248-4.29-5.562-6.179-8.704a54 54 0 0 1-.114-2.612c-.076-6.35 2.284-9.331 8.504-9.47M356.049 160.343c1.946 1.997 2.633 1.244 5.548 1.532.698 4.886 8.28 4.304 5.016 10.161.665 3.901.581 4.225-1.668 7.708-1.186 1.831-2.668 2.814-3.884 4.531-.551.777-.828 2.981-1.357 3.741a2.35 2.35 0 0 1-1.676 1.01c-1.444.169-2.842-.445-4.013-1.352-1.372-1.067-.16-4.059-.346-4.471-3.002-6.639-11.886-12.764-3.914-19.914a23 23 0 0 1 2.212-1.766c1.851-.137 2.485-.219 4.081-1.178M200.94 210.558c1.685.346 3.621.895 5.278.7.669.554 1.332.403 1.612.56.55 2.53 9.452 4.771 7.168 10.925-1.505 4.056-1.563 8.192-5.279 10.727-1.894 1.292-1.251 5.335-5.245 5.648-3.146-1.228-3.954-3.123-2.873-6.114-5.532-9.805-12.827-12.018-.661-22.446M237.685 296.932c2.314 1.669 4.128 3.491 5.896 5.737q.022 3.806-.003 7.612c-1.721 1.726-2.475 2.342-4.448 3.786-1.049 3.145-2.02 5.369-2.294 8.762-.112 1.396-2.109 2.954-3.84 2.798-2.567-1.349-2.355-3.089-3.79-5.162-2.088-3.016-7.194-7.406-5.272-11.473-.538-1.518-1.55-3.702-.545-5.044.842-2.46 5.341-6.012 8.512-5.887l.603-.534c1.732.017 3.513-.126 5.181-.595"/><path fill="#177f24" d="m324.787 164.976.051-1.017c-.708-2.536-4.331-2.25-4.174-5.816.086-1.967 1.2-2.697 1.208-3.72.015-2.175-.704-3.872-.18-6.18l.503-.523c3.219-.018 5.526 5.448 6.82 7.92.202-1.65.479-6.058 1.965-6.774.807-2.317 12.081.733 14.766 5.145.787 1.292.349 2.065-.442 3.14-1.388 1.616-.051 4.406-2.723 4.989-1.328.268-5.398-1.505-6.781-2.04.177 2.265 7.716 6.96 5.568 10.267-4.807 1.97-9.015-4.466-12.325-3.74-1.002.187-2.234.255-3.269.346-1.089-1.059-1.381-.626-1.988-1.996"/><path fill="#822083" d="M239.314 229.284c.833.929 1.973 2.324 3.137 3.221.009 2.32 3.661 1.755 4.134 5.45.541 4.226-7.137 25.098-13.416 17.82-1.056-1.225.007-3.475-.506-4.817-1.675-3.255-4.139-6.259-6.429-9.05.175-2.593.289-7.953 2.09-9.912.021-1.11 6.097-1.878 6.496-2.155.05-.136 2.901-.075 4.019-.073zM274.273 247.34c2.12.586 2.744.517 4.929.385.941.19 5.286.902 8.349 3.506.526 2.998 1.429 5.874 1.862 9.579.179 1.492-1.395 2.472-2.356 3.437-.122 4.253-.68 2.68-3.534 5.29-.684 1.22-.049 3.085-1.269 4.04-1.923 1.505-4.15 1.62-5.974-.11-1.345-1.276-.198-4.728-.365-4.983-5.548-8.554-11.738-12.608-1.642-21.144"/><path fill="#177f24" d="M318.721 121.857c1.877-2.997 3.295-8.282 7.136-8.27l.471.657c.095 3.436.452 6.897.338 10.332-.087 2.51-2.067 2.575-3.595 4.426l.566 2.144-2.713 1.627-1.444-.228-.783-.688c-3.07-.347-4.883 3.713-7.858 4.517-2.276.616-4.587-.598-5.05-2.929.825-2.882 3.846-5.216 6.076-7.309-1.889.706-4.195 1.793-6.103 1.341-1.657-1.294-2.136-4.189-4.659-6.73.25-2.384 4.758-5.058 7.364-7.014.409 1.525 9.793-2.495 10.252 8.125M241.148 207.368c2.779-2.818 4.61-7.543 7.383-8.217.653 1.898 1.881 12.98-1.243 14.66-1.651.89-.89 1.787-.327 3.27-1.676.672-2.809 1.062-4.658 1.185-7.165.527-6.31 7.13-14.413 2.291.783-2.924 4.405-5.971 6.581-8.667-1.797.743-4.188 2.036-5.957 1.64-1.496-1.151-2.056-3.928-4.63-6.308.892-2.607 5.035-5.278 7.468-7.465.786 2.236 8.434-2.723 9.796 7.611M270.442 238.066c3.116 3.042 6.175 6.138 8.759 9.66-2.185.132-2.808.201-4.929-.385-1.854-1.761-3.428-3.189-5.396-4.817.148-1.504.908-3.113 1.566-4.457M347.058 156.227c.327-1.849.445-2.101 1.269-3.758.477 2.288 5.723 4.16 7.722 7.874-1.596.959-2.231 1.04-4.081 1.178-1.566-1.787-3.279-3.56-4.91-5.294M167.739 152.238a54 54 0 0 1 1.029 3.501c-1.639 2.424-3.067 3.969-4.664 6.161-.979-.033-3.268-1.075-4.14-1.501.855-3.975 3.87-5.264 7.775-8.161"/><path fill="#45612f" d="m452.595 167.048.444.228-1.292 2.084c-.768 1.206-.988 1.815-.395 3.21-1.144 1.924-1.353 2.304-1.965 4.446l-.646.394c-1.497.114-1.74.15-3.154-.32.661-4.315 2.466-7.118 6.008-10.044"/><path fill="#177f24" d="M199.834 204.534c2.944 2.485 4.225 3.485 6.384 6.724-1.657.195-3.593-.354-5.278-.7l-3.08-2.382c.638-1.743.746-2.144 1.974-3.642M238.781 291.012c1.211 1.113 1.575 1.929 2.171 3.445-.814.578-2.662 1.812-3.266 2.475-1.668.469-3.449.612-5.181.595.036-2.836 3.532-4.395 6.276-6.516"/><path fill="#fefefe" d="M-44.968 333.535c11.227 3.445 26.313 7.074 38.062 8.23.672 1.916 38.911-.775 58.638.438.465.766 23.549 4.471 36.494 5.717.257.992 30.46-3.575 37.091 6.67.616 4.043-2.626 12.194-3.928 16.386-1.851 5.51-5.321 14.774-6.763 20.11a470 470 0 0 0 19.483 1.098c8.304.217 55.017-2.147 55.744 14.12.088 1.969-4.392 9.68-5.737 12.108-2.259 5.198-5.184 12.44-7.695 17.332.373 2.645 55.911 2.964 82.587 8.835.108 2.223 20.71 6.817 30.514 10.207.735 1.292 9.99 3.906 13.634 4.667.213 2.265 12.624 3.952 19.148 5.039.349-9.078 19.806-13.802 36.837-21.172.168-10.454 51.201-14.36 72.561-29.626.032-2.17 6.601-6.224 9.139-9.017.779 2.044 1.737 4.332 2.162 6.45-8.326 16.217-35.218 23.64-51.3 29.115-7.345 2.497-27.584 8.592-33.455 12.175-1.577 3.025-2.747 6.654-4.324 9.344-5.772 13.08-10.602 28.447-16.667 40.991-3.238 9.03-8.846 9.584-17.742 10.408-21.664 1.976-40.079-9.32-59.371-17.089-19.83-7.984-37.677-10.009-58.83-9.724-12.662.167-26.146-.85-38.8-2.462-20.655-2.633-31.051-14.166-42.54-30.096.24-2.23 2.685-4.54 4.009-6.737.794-1.338 1.809-2.842 2.662-4.169-23.05-1.334-54.542-6.635-68.505-27.535.786-2.918 2.103-6.612 3.072-9.557.124-4.252 3.431-10.397 4.869-14.828-5.093-1.478-9.93-2.006-15.202-2.136-22.698-.55-45.909 2.295-68.41-1.615-12.168-2.117-25.069-5.343-36.787-9.466.58-1.24 6.864-2.747 10.322-4.284.862-4.188 16.808-8.223 25.516-12.707-8.882-4.579-13.243-8.436-19.143-16.371-3.128-3.606-4.958-6.781-7.346-10.851"/><path fill="#fccd05" d="M-44.968 333.535c11.227 3.445 26.313 7.074 38.062 8.23.672 1.916 38.911-.775 58.638.438.465.766 23.549 4.471 36.494 5.717.257.992 30.46-3.575 37.091 6.67.616 4.043-2.626 12.194-3.928 16.386-1.851 5.51-5.321 14.774-6.763 20.11a470 470 0 0 0 19.483 1.098c8.304.217 55.017-2.147 55.744 14.12.088 1.969-4.392 9.68-5.737 12.108-2.259 5.198-5.184 12.44-7.695 17.332.373 2.645 55.911 2.964 82.587 8.835.108 2.223 20.71 6.817 30.514 10.207.735 1.292 9.99 3.906 13.634 4.667.213 2.265 12.624 3.952 19.148 5.039.349-9.078 19.806-13.802 36.837-21.172.168-10.454 51.201-14.36 72.561-29.626.032-2.17 6.601-6.224 9.139-9.017.779 2.044 1.737 4.332 2.162 6.45-8.326 16.217-35.218 23.64-51.3 29.115-7.345 2.497-27.584 8.592-33.455 12.175-1.577 3.025-2.747 6.654-4.324 9.344-1.706.293-5.727 4.746-7.775 6.278a24.5 24.5 0 0 1-5.86 3.162c-18.647 6.965-46.497-6.369-63.893-12.62-10.701-3.846-22.165-7.17-33.468-9.063-11.858-1.984-23.08-2.713-35.188-3.67-17.912-1.418-38.724-.24-55.601-6.909-6.271-2.478-9.847-7.414-12.124-13.486.365-4.906 2.674-6.479 4.652-10.602.988-12.48 35.524 2.66 40.06-4.484.068-.62.113-1.292-.264-1.851-7.273-10.758-33.531-8.618-45.175-9.097-7.747-.13-15.659-.217-23.383-.562-14.357-.65-38.965-5.081-45.754-19.499.511-15.569 9-18.373 24.905-15.356.621.878 26.693 4.815 26.469-2.854-4.052-6.046-30.18-3.431-38.187-4.53-12.703-1.74-24.752-4.91-37.58-5.369-16.525-.593-32.819 1.835-49.296.426-11.691-.984-22.948-3.808-34.084-7.289-3.128-3.606-4.958-6.781-7.346-10.851"/><path fill="#fefefe" d="M74.948 372.928c3.806-.068 7.689-.072 11.5-.21.094-.327 17.872 3.067 26.975 1.585.78-.452 5.342-2.402 7.965-3.329-1.851 5.51-5.321 14.774-6.763 20.11-13.745-2.136-32.791-4.378-39.678-18.156M176.421 435.742c-9.553-.798-22.927-2.432-28.949-10.568-1.165-1.573-2.081-2.592-1.85-4.655.18-6.502 22.869-.114 28.655-.149.991-.027 6.155-.574 9.84-1.96-2.259 5.197-5.184 12.44-7.695 17.331"/><path fill="#0e0f0f" d="m481.817 491.351.285.327c-4.989 5.164-9.082 7.319-15.686 9.519l-.255-.137c.851-1.341 13.665-8.588 15.656-9.709"/><path fill="#fccd05" d="M119.974 453.788c1.24-2.231 2.685-4.541 4.009-6.737.735 2.504 4.077 5.966 6.318 8.865.838 21.732 43.266 21.968 68.269 22.257.7.16 29.102.433 42.441 3.14.933 7.295 57.494 31.73 96.247 21.44-3.238 9.028-8.846 9.583-17.742 10.407-21.664 1.976-40.079-9.32-59.371-17.089-19.83-7.984-37.677-10.009-58.83-9.724-12.662.167-26.146-.85-38.8-2.462-20.655-2.633-31.051-14.166-42.54-30.096M-43.995 373.464c15.057 3.618 28.793 7.003 44.346 8.045.238.684 19.857.22 29.936.186.214-.03 28.815-1.03 38.051 2.162-.719 2.326-1.44 4.826-2.257 7.106-5.093-1.478-9.93-2.006-15.202-2.136-22.698-.55-45.909 2.295-68.41-1.615-12.168-2.117-25.069-5.343-36.787-9.466.58-1.24 6.864-2.747 10.322-4.283M61.212 405.791c22.547 25.73 38.629 24.742 69.937 28.99-1.12 2.348-2.912 6.129-4.505 8.102-23.05-1.334-54.542-6.635-68.505-27.535.786-2.918 2.103-6.612 3.072-9.557"/><path fill="#0c2d83" d="M84.023 399.521c11.945-.714 14.918 11.366 4.245 18.027.373 1.345.896 2.166.39 3.143-1.205-.122-1.545-.106-2.65-.547-1.159-2.892-2.48-1.915-4.733-3.287-8.567-5.206-5.57-14.28 2.748-17.336"/><path fill="#fefefe" d="M84.565 403.248c8.74-.152 5.933 9.196 3.046 9.85-.475-1.216-.722-1.885-1.49-2.93l-1.378.3c-.738.726-.615 1.509-.793 2.736-5.604.205-3.975-7.258.615-9.956"/><path fill="#0c2d83" d="M200.247 453.811c.567-.015 2.539-.068 2.866.103.947 1.54 5.608 8.375 7.345 11.61.493-3.09.854-8.992 3.069-10.759.207-.274 1.27-.228 2.503.076.546 1.706-2.297 13.988-2.793 17.218-2.614.038-3.759.046-5.252-2.474-1.772-2.99-3.199-6.099-4.935-9.15-.588 2.816-1.001 8.774-2.551 10.773-1.442.114-1.522.144-2.877-.28-.832-1.468 2.131-13.852 2.624-17.116M160.056 448.218c1.23.338 4.066 1.17 5.181 1.779.102 3.887 5.32 8.413-1.057 10.803.326 2.687.804 5.48 1.221 8.166-1.529-.426-3.772-.711-4.268-2.253l-1.39-7.627c-.97 1.797-2.114 4.72-2.944 6.665l-3.785-1.531c2.367-5.248 4.912-10.678 7.041-16.002"/><path fill="#fefefe" d="M162.596 452.462c1.313.642 2.068.809 2.708 2.044-.188 1.68-.192 1.22-1.36 2.782-1.589-.011-1.704.258-2.823-.559-.196-1.429.782-2.877 1.475-4.267"/><path fill="#0c2d83" d="M183.379 452.994c1.281-.004 2.04-.114 3.199.395.641 1.459 3.234 16.082 3.085 17.408-1.248.551-1.387.711-2.649.448-1.007-.665-1.282-2.212-1.917-3.557-1.54-.733-3.804-.65-5.565-.718-1.32.084-1.818 1.927-2.691 3.051-1.205.296-2.41 0-3.668-.175-.163-1.471 8.736-14.664 10.206-16.853"/><path fill="#fefefe" d="M183.545 458.991c1.051 1.208 1.446 3.572.295 4.925l-1.829.053c-.627-.179-.419-.114-.967-.54.376-1.63 1.527-3.017 2.501-4.438"/><path fill="#0c2d83" d="m237.016 440.253.784.86c-.738 2.993-3.425 10.388-2.815 12.687.841 1.113.96 1.311 2.199 1.934.933-.148 5.017-11.818 7.002-13.437.509 0 1.764-.01 3.179.483.275.832-.162 2.037-.391 2.96-.869 3.355-2.031 10.47-5.045 12.354-4.501 2.82-12.204.931-11.179-5.7.655-4.237 1.996-8.026 3.267-12.137M260.653 461.582c1.03.365 1.93.76 2.934 1.193.364 2.417-4.75 9.743-3.633 13.004.619 1.81 2.637 2.071 4.21 1.497.048-1.748 4.602-9.029 5.92-12.095.448.68 2.421.832 3.165 2.037l-.429 1.486c-1.064 2.88-3.184 10.902-6.939 12.323-5.058 1.911-11.598-2.318-9.945-8.178.958-3.4 3.086-7.695 4.716-11.267M360.955 489.835l.462-.034c2.316-.148 6.998.148 6.866 3.196-2.079 2.276-4.501-.323-6.816.874-.645 3.671 9.807 6.81 4.123 11.582-1.552 1.303-2.676 1.828-4.584 2.451-2.631-.209-5.377-.479-6.369-3.23.444-1.653.854-1.626 2.223-2.972q.236.239.471.471l.231.217c1.286 1.167 3.601 2.185 4.883.608-.204-3.58-3.737-3.542-5.447-6.536-1.613-2.827 1.919-5.457 3.957-6.627"/><path fill="#0c2d83" d="m375.71 491.367.746 2.246c-.285 1.27-.391 2.46-1.208 3.405-1.205.543-2.516.011-3.899-.312-.847 3.177-1.809 6.243-2.779 9.378-.294 1.292-.404 2.542-1.259 3.473-1.242.524-2.481.015-3.877-.315.378-4.48 2.726-8.976 4.044-13.475-1.289-.209-2.123-.243-3.278-.885-.358-1.254.128-2.071.511-3.515M303.799 478.538c4.001.901 7.741 1.569 11.78 2.272-.19 1.281-.198 2.212-.908 3.276-1.516.543-2.109.118-3.903-.224l-2.383 10.127-.904 3.606-3.929-1.037c1.049-4.412 2.291-8.949 3.431-13.353-1.345-.251-2.326-.304-3.447-1.064-.509-1.064-.008-2.383.262-3.602M143.707 439.12c2.689 1.129 10.043 4.982 9.086 8.36-2.061.851-2.97-.068-4.638-1.227-1.601 2.584-3.323 5.202-4.968 7.767-.83 1.315-1.741 2.633-2.608 3.925l-3.173-2.341c2.527-4.043 4.691-7.429 7.487-11.278-1.092-.654-1.781-.95-2.547-1.957.028-1.573.468-1.771 1.363-3.249M280.698 469.931c.84.247 2.747 1.098 3.64 1.467-1.63 4.294-3.431 8.679-5.13 12.962.467.581 3.519 1.16 4.416 2.307.361 1.265-.232 2.143-.775 3.428-2.991-1.132-5.905-2.508-8.816-3.827.139-5.476 4.362-10.925 6.665-16.336M126.198 408.052c1.352.182 2.407.19 3.553.893.107 2.364-2.776 14.185-3.463 17.203-1.283-.255-2.704-.426-4.009-.612.213-5.848 2.519-11.677 3.919-17.484M428.188 510.386l.716 1.041a535 535 0 0 1-5.62 16.99l-3.944-1.383c2.006-5.502 3.842-11.107 5.848-16.648"/><path fill="#fefefe" d="M401.044 374.722c-1.592-2.485-3.906-7.095-4.689-9.956-.494-1.794.053-3.918 1.113-5.443.985-8.607 19.266-14.467 29.313-16.761.886-1.344 16.754-2.447 21.994.996.679 1.76 3.048 5.653 3.648 8.66.885 3.351 1.756 6.923 2.842 10.203.428-2.12 20.44-7.847 29.777-10.902.178-4.636 30.867-7.807 45.798-5.45.511 1.505 16.462 3.15 26.361 4.104-2.835 2.242-5.419 4.446-8.155 6.802-5.495 5.1-10.648 9.755-17.104 13.654.369 2.728 18.373 9.147 22.716 12.384.659 2.953 7.133 4.929 11.123 8.748a294 294 0 0 0-45.323 2.858c-10.693 1.44-21.143 3.754-31.665 6.05-10.271 2.242-22.154 6.331-32.566 3.526-2.611-3.021-3.633-5.35-5.293-9.002a893 893 0 0 0-4.609-9.682c-3.937.988-6.965 2.405-10.655 4.074.858 4.917 3.507 10.093 5.172 15.094-2.538 2.793-6.107 6.848-9.139 9.017-21.36 15.265-48.393 19.171-72.561 29.625-17.032 7.368-22.488 12.092-36.837 21.17a107.5 107.5 0 0 1-19.148-5.039c-1.854-4.317-3.637-9.067-5.381-13.46-.847-2.037-1.661-4.172-2.478-6.232.157-14.326 37.096-27.03 57.992-34.732.951-4.404 44.658-13.463 53.2-19.775-1.695-2.865-3.868-7.456-5.445-10.53"/><path fill="#fccd05" d="M401.044 374.722c-1.592-2.485-3.906-7.095-4.689-9.956-.494-1.794.053-3.918 1.113-5.443.985-8.607 19.266-14.467 29.313-16.761.886-1.344 16.754-2.447 21.994.996.679 1.76 3.048 5.653 3.648 8.66.885 3.351 1.756 6.923 2.842 10.203.428-2.12 20.44-7.847 29.777-10.902.178-4.636 30.867-7.807 45.798-5.45.511 1.505 16.462 3.15 26.361 4.104-2.835 2.242-5.419 4.446-8.155 6.802-13.232-1.425-23.028-4.222-37.031-2.052-7.813 1.056-15.337 3.196-22.88 5.42-14.052 4.126-27.763 12.155-42.37 13.698-4.879.513-11.02-12.563-10.344-16.728.502-3.112 4.951-5.506 7.475-6.992-.163-2.535-3.572-2.025-5.502-2.117-12.563-.58-24.803 4.568-33.535 13.501-.828.847-1.82 2.5-2.067 3.678l.414.532c6.186.551 26.391-14.09 25.684 10.032-.258 8.751-16.268 15.971-23.07 19-20.699 9.283-43.054 13.764-63.68 23.34-10.541 4.902-20.577 11.191-30.043 17.913-3.238 2.27-11.24 8.166-14.322 9.79-.847-2.038-1.661-4.173-2.478-6.233.157-14.326 37.096-27.03 57.992-34.732.951-4.404 44.658-13.463 53.2-19.775-1.695-2.865-3.868-7.456-5.445-10.53"/><path fill="#fefefe" d="m534.158 409.226.429.072c7.414 1.22 15.884-4.917 22.45-4.925.228.707.308.498-.076 1.227-3.903 7.429-11.487 10.002-17.358 14.155-1.695-2.865-3.868-7.456-5.445-10.53M452.424 352.218c.885 3.352 1.756 6.924 2.842 10.203-2.516.418-11.886 2.827-12.734-.381.06-3.241 6.794-6.031 9.58-9.435z"/><path fill="#fccd05" d="M450.935 395.192c4.214.065 9.055 1.63 13.737 1.046.47-1.182 19.152-4.161 28.584-6.32.684-4.506 41.2-7.367 61.404-6.905.659 2.953 7.133 4.93 11.123 8.748a294 294 0 0 0-45.323 2.858c-10.693 1.44-21.143 3.754-31.665 6.05-10.271 2.242-22.154 6.331-32.566 3.526-2.611-3.02-3.633-5.35-5.293-9.002M443.342 378.26c1.262 2.25 2.101 4.818 2.983 7.25-3.937.988-6.965 2.405-10.655 4.074-1.372-2.436-1.98-4.199-2.702-6.863.139-1.923 6.912-3.215 10.374-4.461"/><path fill="#0c2d83" d="m530.624 438.554.654.346c1.281 2.504 5.768 13.334 5.947 15.994l-.885.703c-3.675.908-10.009-4.457-13.992-6.764.927 2.569 4.055 8.341 3.112 10.663l-1.858.775-.821-.114c-.866-.988-5.905-13.425-5.692-15.439.141-1.353.205-1.197 1.068-1.938.162-.483 10.458 5.423 13.494 7.558-1.178-3.371-3.713-7.467-3.485-10.5.802-1.025.942-.786 2.459-1.283M338.082 427.91c1.379.84 4.313 7.828 5.449 9.663.5 5.658-2.979 12.008-8.748 10.313-3.58-1.049-6.205-7.843-7.782-11.012-.524-.95-.589-.961-.775-2.075.524-1.098 2.003-1.6 3.169-2.174.93 3.192 4.207 10.21 7.03 11.534.398.65.03-11.465-1.638-14.413zM412.536 397.586c.749.741 1.25 2.288 1.676 3.321-1.896.741-3.971 1.683-5.86 2.497l1.512 3.25.81-2.653.144 3.481c-1.801.707-4.659 1.3-5.282 3.017.198 1.307.224 1.341 1.03 2.364.927.11 4.153-1.638 5.286-2.158l.646.27c.422.977.821 2.048 1.216 3.04-3.112 1.368-6.274 2.823-9.466 3.971a703 703 0 0 1-6.806-16.332zM452.002 473.142l.265.084.407.494c-.232 1.368-.171 1.896-1.064 2.865-1.854.27-2.633.353-3.694 1.938l.342.722c3.234 1.695 9.192-.068 10.518 3.98.55 4.738-2.272 7.344-6.171 8.568-1.528-.072-1.775-.122-3.222-.619-.46-1.588-.585-1.17-.186-2.535.847-.802 1.083-.752 2.291-.969l2.177-.403c1.015-1.224.851-.695 1.03-2.136-2.276-3.146-9.048 1.163-10.344-3.792-1.254-4.78 1.528-7.057 5.651-8.197M350.261 421.572c1.459-.118 1.824-.167 3.257.015.045.813.771.308.999 1.474-1.368 3.105-5.271 1.653-5.301 4.172.896 1.805 9.09.714 10.473 4.803.448 4.29-1.896 6.844-5.358 8.06-1.991 0-4.746.068-4.967-2.557.235-2.823 3.42-.806 5.502-1.946.893-1.208.916-.84.851-2.014-2.09-1.756-8.216-.346-9.705-3.925-1.695-4.074.916-6.449 4.248-8.083M369.124 414.31c.889.711 1.262 2.193 1.676 3.325l-3.849 1.49c1.33 3.549 5.081 10.161 4.013 13.3-1.25.988-.684.688-2.47.958-.798-.574-.908-1.414-1.322-2.478l-3.975-10.336c-1.182.521-2.162 1.11-3.409 1.049-1.163-.98-1.075-1.562-1.653-3.165.629-1.474 7.292-2.854 10.99-4.142M427.28 389.147c1.117.692 1.619 2.079 2.253 3.321l-3.462 1.801a635 635 0 0 1 6.015 12.684l-3.549 1.908-1.284-2.66-4.674-9.884-3.865 1.797-1.372-3.386a430 430 0 0 0 9.937-5.582M510.401 445.755l.258.122c1.079 1.425 5.575 13.878 6.148 16.12-.574.809-1.881 1.155-2.858 1.547l-.631-.232c-1.349-2.158-5.259-13.315-5.719-16.051.589-.752 1.797-1.075 2.801-1.505"/><path fill="#177f24" d="M302.18 55.998c5.172-.73 12.179 1 15.23 5.823.524.827.137 1.476-.198 2.237-2.151 1.778-4.184 1.236-7.03 1.074-4.347.499-11.48 2.892-14.923-.702-1.687-4.158 3.868-7.114 6.92-8.432M208.215 56.052c3.823-.499 9.839.176 11.946 3.391.929 7.52-4.181 6.858-7.831 6.362-3.835-.507-10.858.294-13.24-2.135-.865-3.727 6.238-6.804 9.125-7.618"/></g></svg>