<svg xmlns="http://www.w3.org/2000/svg" width="512" height="512" viewBox="0 0 512 512">
  <defs><clipPath id="clip"><circle cx="256" cy="256" r="256"/></clipPath></defs>
  <g clip-path="url(#clip)">
    <g transform="scale(0.35) translate(-292.6,-33.1)">
<path fill="#0c2d83" d="M0 0h2048v1529H0z"/><path fill="#FEFEFE" d="M1032.89 148.775c15.21 13.39 22.95 22.907 29.79 42.416 1.91 5.453-3.34 14.446-9.14 16.122-10.53-.701-14.33-18.228-21.02-23.831l-1.71.306-.57 2.193c2.47 9.728 6.58 19.193 15.23 24.987 13.53 9.064 17.77-8.744 28.27-10.42 4.76-.759 16.24 4.732 22.57 3.334l-.01-2.284c-5.48-7.368-21.04-10.437-29.9-12.513 5.46-6.29 8.42-7.753 16.27-10.6 15.68-5.686 24.44-9.264 36.94 4.006 4.22.444 4.42-.367 7.32-2.907 13.14 1.508 19.14 7.792 29.93 14.661 7.05 4.488 24.24 8.448 25.28 17.871-5.29 17.869-55.24 16.185-62.8 36.751-3.71 10.099 14.94 25.117 20.12 34.134-3.28 1.724-9.9 4.957-12.77 6.831 29.01 19.635 54.15 25.567 88.71 25.263 36.97-.325 64.51-6.607 86.97-38.061-7.35-8.011-10.38-11.579-13.98-22.569-8.04-24.535 2.07-63.296 34.61-58.04 5.6.904 11.79 4.865 16.79 7.872 5.93 4.006 14.02 9.353 18.7 14.621l.85.726c19.35 16.832 38.81 46.252 60.65 62.836 18.68 14.19 31.55 17.545 52.32 26.371 21.58 9.172 38.95 25.913 53.63 43.761 8.52 7.643 11.62 18.123 14.31 28.969 2.03 7.927.29 20.995-3.8 28.249-5.67 10.225-24.05 10.095-32.74 4.823-12.63-7.662-10.55-29.882-29.87-25.418-60.51 13.977-84.82 83.783-74.37 139.3 5.33 28.33 19.32 56.819 36.69 78.52 5.45-.492 8.36-1.409 13.61-2.869 31.9-26.835 68.56 18.714 45.7 44.983 23.47 7.344 33.58 23.305 47.62 43.397-24.17 9.089-40.92 19.773-65.5 13.858 6.08 4.887 12.75 8.587 13.83 15.98-.55 3.724-1.87 4.423-4.71 7.132.96 3.539 2.97 10.186 3.59 13.539 52.65 104.017-1.62 200.606-99.1 245.257-9.51 4.357-27.06 13.838-37.12 13.728.67 7.57.63 12.31-1.08 19.85l-16.37-9.76c-13.58 2.32-14.08 2.6-26.7-.66 5.14 6.48 12.58 15.51 13.34 23.93 1 11.24-1.78 37.69-10.35 45.62-2.43.34-3.88.24-5.73-1.74-11.49-12.32-24.98-24.37-36.72-36.15-5.44 28.83-11.63 24.09-28.58 46.9-2.67-2.67-6.29-5.89-8.13-9.04-31.91 19.25-65.06 34.62-99.14 49.5-25.12 10.96-51.34 18.87-73.89 35.13-14.12 10.18-25.61 23.82-37.11 36.8-11.53-11.83-27.981-30.9-39.985-40.46-22.754-18.11-56.405-28.94-83.47-40.21a409 409 0 0 1-45.053-22.41c-20.08-8.54-24.206-11.43-38.288-28.66-2.047 13.53-6.191 23.44-13 35.11-28.57-11.42-37.18-36.02-38.281-64.69-4.91 4.26-15.789 17.77-21.864 15.03-2.808-4.87-5.256-24.25-6.315-30.73-10.147 2.14-15.136 2.84-25.481 2.35-1.431-7.03-1.806-11.44-2.359-18.65-3.44-.3-5.144-.51-8.503-1.29-3.042-3.26-2.406-3.91-3.448-8.671-7.295-2.873-14.486-6.01-21.757-8.869-68.078-26.763-126.399-90.69-130.22-166.013-.803-15.836 4.865-65.116 21.951-73.808 2.08-1.058 6.047 1.589 7.875 2.698 17.372-19.227 6.278-21.048 16.932-41.443 3.085-5.905 16.124-9.278 18.37-14.944-13.042-9.319-20.18 11.714-33.748 13.783-13.648 2.081-30.58-3.918-41.775-11.195l-.966-.638c12.299-23.939 29.299-49.661 59.647-37.738 3.48 1.368 9.544 3.131 13.284 3.175 3.578.042 3.847-.135 6.241-2.499.493-3.588.853-1.994-.945-4.982-4.87-2.21-17.719-.385-20.466-1.855-15.983-8.551-19.49-11.65-37.666-14.615 5.334-6.358 8.512-9.318 15.786-13.238-1.42-16.947-5.855-29.938 10.927-40.941 22.035-14.447 30.241 3.941 44.216 20.007l.539.066c26.715-40.978 48.207-93.064 28.011-141.554-9.625-23.108-23.117-49.218-40.92-66.886-5.738-5.694-16.006-10.698-23.315-13.957-9.687 8.987-24.075 23.833-37.46 24.081-41.837.776-50.307-30.957-25.954-60.038 6.87-7.901 14.495-11.939 23.877-16.041 33.095-15.692 86.197-39.74 108.749-67.469 14.805-18.202 19.907-32.477 39.316-50.894 7.155-7.375 13.97-11.229 23.19-15.364 44.111-16.399 71.947 31.945 33.062 68.412 47.931 56.305 117.945 59.511 178.525 23.551l-13.488-6.783c1.306-2.13 4.128-6.706 5.953-8.051 38.377-28.276.935-42.987-26.541-49.687-6.847-1.669-13.914-5.918-19.26-11.738l-.889-.977c7.619-9.189 42.004-29.521 52.657-22.783-.452 8.771-19.349 16.435-18.226 26.422 11.69 3.405 27.601-22.191 31.896-29.915 1.949-3.506 7.55-10.552 11.632-10.865 24.185-1.854-2.96 28.12 7.279 34.14l2.866-.186c4.56-8.847 4.805-23.838 13.571-29.665 9.646-6.413 14.076 2.377 23.551 4.1 8.89-1.973 14.26-23.312 27.95-34.348z"/><path fill="#FCCD05" d="M1032.89 148.775c15.21 13.39 22.95 22.907 29.79 42.416 1.91 5.453-3.34 14.446-9.14 16.122-10.53-.701-14.33-18.228-21.02-23.831l-1.71.306-.57 2.193c2.47 9.728 6.58 19.193 15.23 24.987 13.53 9.064 17.77-8.744 28.27-10.42 4.76-.759 16.24 4.732 22.57 3.334l-.01-2.284c-5.48-7.368-21.04-10.437-29.9-12.513 5.46-6.29 8.42-7.753 16.27-10.6 15.68-5.686 24.44-9.264 36.94 4.006 4.22.444 4.42-.367 7.32-2.907 13.14 1.508 19.14 7.792 29.93 14.661 7.05 4.488 24.24 8.448 25.28 17.871-5.29 17.869-55.24 16.185-62.8 36.751-3.71 10.099 14.94 25.117 20.12 34.134-3.28 1.724-9.9 4.957-12.77 6.831 29.01 19.635 54.15 25.567 88.71 25.263 36.97-.325 64.51-6.607 86.97-38.061-7.35-8.011-10.38-11.579-13.98-22.569-8.04-24.535 2.07-63.296 34.61-58.04 5.6.904 11.79 4.865 16.79 7.872 5.93 4.006 14.02 9.353 18.7 14.621.75 14.932 1.16 30.112-2.43 44.844-14.85 61.04-71.93 99.318-132.77 102.505-62.57 3.278-127.48-26.028-159.04-81.826-2.1-3.708-5.32-10.42-5.76-14.665-5.41 1.002-6.99 1.352-12.55 1.181-13.3 9.058-16.13 10.524-28.27-.262-5.63-.862-8.95-.964-13.59-4.224-9.967 21.825-17.614 37.577-35.646 54.767-32.92 31.749-80.38 45.06-124.927 43.024-63.114-2.885-122.52-38.53-140.447-101.448-5.857-20.558-6.084-28.544-4.958-49.462 7.155-7.375 13.97-11.229 23.19-15.364 44.111-16.399 71.947 31.945 33.062 68.412 47.931 56.305 117.945 59.511 178.525 23.551l-13.488-6.783c1.306-2.13 4.128-6.706 5.953-8.051 38.377-28.276.935-42.987-26.541-49.687-6.847-1.669-13.914-5.918-19.26-11.738l-.889-.977c7.619-9.189 42.004-29.521 52.657-22.783-.452 8.771-19.349 16.435-18.226 26.422 11.69 3.405 27.601-22.191 31.896-29.915 1.949-3.506 7.55-10.552 11.632-10.865 24.185-1.854-2.96 28.12 7.279 34.14l2.866-.186c4.56-8.847 4.805-23.838 13.571-29.665 9.646-6.413 14.076 2.377 23.551 4.1 8.89-1.973 14.26-23.312 27.95-34.348z"/><path fill="#177F24" d="M1032.89 148.775c15.21 13.39 22.95 22.907 29.79 42.416 1.91 5.453-3.34 14.446-9.14 16.122-10.53-.701-14.33-18.228-21.02-23.831l-1.71.306-.57 2.193c2.47 9.728 6.58 19.193 15.23 24.987 13.53 9.064 17.77-8.744 28.27-10.42 4.76-.759 16.24 4.732 22.57 3.334l-.01-2.284c-5.48-7.368-21.04-10.437-29.9-12.513 5.46-6.29 8.42-7.753 16.27-10.6 15.68-5.686 24.44-9.264 36.94 4.006 4.22.444 4.42-.367 7.32-2.907 13.14 1.508 19.14 7.792 29.93 14.661 7.05 4.488 24.24 8.448 25.28 17.871-5.29 17.869-55.24 16.185-62.8 36.751-3.71 10.099 14.94 25.117 20.12 34.134-3.28 1.724-9.9 4.957-12.77 6.831-13.68-8.782-24.37-20.138-29.83-35.587 14.11-32.683-23.04-53.418-41.09-10.056-10.86-29.198-30.97-33.151-47.05-4.305-7.23-32.347-37.99-42.521-49.4-8.885 4.222 9.333 5.853 12.149 13.116 19.544-9.101 16.225-23.73 29.78-39.557 39.408l-13.488-6.783c1.306-2.13 4.128-6.706 5.953-8.051 38.377-28.276.935-42.987-26.541-49.687-6.847-1.669-13.914-5.918-19.26-11.738l-.889-.977c7.619-9.189 42.004-29.521 52.657-22.783-.452 8.771-19.349 16.435-18.226 26.422 11.69 3.405 27.601-22.191 31.896-29.915 1.949-3.506 7.55-10.552 11.632-10.865 24.185-1.854-2.96 28.12 7.279 34.14l2.866-.186c4.56-8.847 4.805-23.838 13.571-29.665 9.646-6.413 14.076 2.377 23.551 4.1 8.89-1.973 14.26-23.312 27.95-34.348z"/><path fill="#0c2d83" d="M1119.61 182.491c4.22.444 4.42-.367 7.32-2.907 1.82 23.17 15.73 25.685 20.5 39.068l-1.04.929c-24-6.773-19.91-19.966-26.78-37.09"/><path fill="#FEFEFE" d="M1302.37 277.034c-7.35-8.011-10.38-11.579-13.98-22.569-8.04-24.535 2.07-63.296 34.61-58.04 5.6.904 11.79 4.865 16.79 7.872.32 15.208.57 25.743-2.58 40.774-12.02 57.357-66.73 93.691-123.23 94.637-47.85.801-96.75-22.175-124.1-61.908-3.19-4.641-6.49-8.506-7.7-14.149 1.1-4.399 9.57-5.568 14.68-9.406 5.46 15.449 16.15 26.805 29.83 35.587 29.01 19.635 54.15 25.567 88.71 25.263 36.97-.325 64.51-6.607 86.97-38.061"/><path fill="#FCCD05" d="M1311.98 215.622c22.27 7.184 7.8 40.206-1.03 53.041-13.44-9.973-14.86-42.223 1.03-53.041"/><path fill="#FEFEFE" d="M721.292 197.988c44.111-16.399 71.947 31.945 33.062 68.412 47.931 56.305 117.945 59.511 178.525 23.551 15.827-9.628 30.456-23.183 39.557-39.408l9.383 3.254c-9.293 20.501-23.338 36.533-40.742 50.786-61.612 50.459-152.174 38.26-200.944-23.76-20.31-25.826-22.821-50.76-18.841-82.835"/><path fill="#FCCD05" d="M743.898 210.741c8.139.254 10.204 3.021 14.755 9.133 2.57 16.144-.752 25.215-7.126 39.767l-1.08.188c-11.382-7.18-19.09-38.172-6.549-49.088"/><path fill="#177F24" d="m1045.94 270.957.58-.78c3.68-4.948 7.86-14.454 10-16.732 1.87 2.276 2.16 13.009 1.97 16.331-5.41 1.002-6.99 1.352-12.55 1.181"/><path fill="#177F24" d="M1006.83 252.196c3.81 7.17 6.38 11.647 10.84 18.499-5.63-.862-8.95-.964-13.59-4.224 1.15-5.038 2.15-9.126 2.75-14.275"/><path fill="#FCCD05" d="M1264.21 960.193c13.17-31.235 37.22-39.355 57.4-6.856 9.89 6.387 14.37 6.949 22.54 11.568 5.3 7.692 8.02 13.396 12.14 21.71 1.48 4.325 3.4 7.901 2.06 11.99-1.76 1.805-2.24 2.055-4.27 3.455.67 7.57.63 12.31-1.08 19.85l-16.37-9.76c-13.58 2.32-14.08 2.6-26.7-.66 5.14 6.48 12.58 15.51 13.34 23.93 1 11.24-1.78 37.69-10.35 45.62-2.43.34-3.88.24-5.73-1.74-11.49-12.32-24.98-24.37-36.72-36.15-5.44 28.83-11.63 24.09-28.58 46.9-2.67-2.67-6.29-5.89-8.13-9.04-31.91 19.25-65.06 34.62-99.14 49.5-25.12 10.96-51.34 18.87-73.89 35.13-14.12 10.18-25.61 23.82-37.11 36.8-11.53-11.83-27.981-30.9-39.985-40.46-22.754-18.11-56.405-28.94-83.47-40.21a409 409 0 0 1-45.053-22.41c-20.08-8.54-24.206-11.43-38.288-28.66-2.047 13.53-6.191 23.44-13 35.11-28.57-11.42-37.18-36.02-38.281-64.69-4.91 4.26-15.789 17.77-21.864 15.03-2.808-4.87-5.256-24.25-6.315-30.73-10.147 2.14-15.136 2.84-25.481 2.35-1.431-7.03-1.806-11.44-2.359-18.65-3.44-.3-5.144-.51-8.503-1.29-3.042-3.26-2.406-3.91-3.448-8.671l.313-14.65c6.804-8.556 13.007-11.484 22.391-16.685 5.93-2.857 6.219-3.656 10.317-8.495 8.998-2.159 15.514-1.262 24.767-.549 13.771-7.503 18.422-8.692 31.414 1.816l3.611 5.224c24.637-24.12 46.632-2.746 53.162 23.517 4.617-1.83 8.674-2.862 13.691-2.533a32.35 32.35 0 0 1 22.768 11.356c12.826 15.36 7.155 34.28-7.691 45.89 29.751 37.25 67.813 39.4 108.564 60.81a154.7 154.7 0 0 1 43.94 34.42c37.13-39.36 88.28-46.59 135.12-70.33 16.55-8.38 27.34-17.02 41.43-28.85-12.66-29.91-2.53-42.02 26.81-49.532 6.67-25.498 11.98-24.463 36.03-30.375"/><path fill="#177F24" d="M755.361 958.78c13.771-7.503 18.422-8.692 31.414 1.816l3.611 5.224c-5.644 8.256-8.867 14.671-6.998 25.098a28.67 28.67 0 0 0 12.42 19.092c12.356 8.16 23.967 5.13 36.222-.81 7.685 22.91 17.811 22.98 26.593 40.39-1.795 17.64 1.509 15.42 2.693 28.67.03 5.76.766 13.01-1.43 18.06-2.194 1.85-2.172 1.87-4.774 3.04-20.08-8.54-24.206-11.43-38.288-28.66-2.047 13.53-6.191 23.44-13 35.11-28.57-11.42-37.18-36.02-38.281-64.69-4.91 4.26-15.789 17.77-21.864 15.03-2.808-4.87-5.256-24.25-6.315-30.73-10.147 2.14-15.136 2.84-25.481 2.35-1.431-7.03-1.806-11.44-2.359-18.65-3.44-.3-5.144-.51-8.503-1.29-3.042-3.26-2.406-3.91-3.448-8.671l.313-14.65c6.804-8.556 13.007-11.484 22.391-16.685 5.93-2.857 6.219-3.656 10.317-8.495 8.998-2.159 15.514-1.262 24.767-.549"/><path fill="#177F24" d="M1321.61 953.337c9.89 6.387 14.37 6.949 22.54 11.568 5.3 7.692 8.02 13.396 12.14 21.71 1.48 4.325 3.4 7.901 2.06 11.99-1.76 1.805-2.24 2.055-4.27 3.455.67 7.57.63 12.31-1.08 19.85l-16.37-9.76c-13.58 2.32-14.08 2.6-26.7-.66 5.14 6.48 12.58 15.51 13.34 23.93 1 11.24-1.78 37.69-10.35 45.62-2.43.34-3.88.24-5.73-1.74-11.49-12.32-24.98-24.37-36.72-36.15-5.44 28.83-11.63 24.09-28.58 46.9-2.67-2.67-6.29-5.89-8.13-9.04-7.17-3.11-15.92-5.2-25.05-9.24-5.73-5.67-4.04-13.29-3.55-20.73 3.06-4.46 11.23-11.91 15.4-15.96 4.09-15.97 4.38-18.88 17.3-29.98 10.95 3.91 24.83 8.04 34.78.02 14.86-11.966 4.3-26.624-3.92-37.186 5.7-5.025 8.99-7.414 15.61-10.977 6.71 3.136 11.71 7.021 17.68 11.313 6.99-7.065 9.98-12.457 19.6-14.933"/><path fill="#FEFEFE" d="M1208.71 1071.77c9.13 4.04 17.88 6.13 25.05 9.24-31.91 19.25-65.06 34.62-99.14 49.5-25.12 10.96-51.34 18.87-73.89 35.13-14.12 10.18-25.61 23.82-37.11 36.8-11.53-11.83-27.981-30.9-39.985-40.46-22.754-18.11-56.405-28.94-83.47-40.21a409 409 0 0 1-45.053-22.41c2.602-1.17 2.58-1.19 4.774-3.04 2.196-5.05 1.46-12.3 1.43-18.06 2.943.53 31.001 24.35 41.833 26.32 3.729.68 31.471 12.16 36.639 14.16 33.465 12.94 60.168 31.62 84.792 57.42 36.5-38.4 88.39-57.89 136.58-77.29 16.55-6.67 33.83-15.7 47.55-27.1"/><path fill="#FCCD05" d="M1394.57 652.707c-7.64-10.145-15.49-20.479-21.85-31.487a195.66 195.66 0 0 1-19.54-150.774c11.06-41.252 39.88-81.495 77.22-102.82 27.22-15.546 65.08-23.325 95.54-15.014 8.52 7.643 11.62 18.123 14.31 28.969 2.03 7.927.29 20.995-3.8 28.249-5.67 10.225-24.05 10.095-32.74 4.823-12.63-7.662-10.55-29.882-29.87-25.418-60.51 13.977-84.82 83.783-74.37 139.3 5.33 28.33 19.32 56.819 36.69 78.52 5.45-.492 8.36-1.409 13.61-2.869 31.9-26.835 68.56 18.714 45.7 44.983 23.47 7.344 33.58 23.305 47.62 43.397-24.17 9.089-40.92 19.773-65.5 13.858 6.08 4.887 12.75 8.587 13.83 15.98-.55 3.724-1.87 4.423-4.71 7.132.96 3.539 2.97 10.186 3.59 13.539 52.65 104.017-1.62 200.606-99.1 245.257-9.51 4.357-27.06 13.838-37.12 13.728 2.03-1.4 2.51-1.65 4.27-3.455 1.34-4.089-.58-7.665-2.06-11.99-4.12-8.314-6.84-14.018-12.14-21.71 40.97-10.28 89.94-52.527 106.37-91.394 17.89-42.308 9.3-76.386-6.96-116.36-27.84 29.708-74.91 5.891-43.79-44.48-23.67-15.9-22.78-39.72-5.2-59.964"/><path fill="#177F24" d="M1449.77 604.186c31.9-26.835 68.56 18.714 45.7 44.983 23.47 7.344 33.58 23.305 47.62 43.397-24.17 9.089-40.92 19.773-65.5 13.858 6.08 4.887 12.75 8.587 13.83 15.98-.55 3.724-1.87 4.423-4.71 7.132.96 3.539 2.97 10.186 3.59 13.539 1.4 11.155 3.25 23.52 4.29 34.589a506 506 0 0 1-15.56-8.112c-3.16-2.303-4.52-3.316-8.02-5.004-4.08.58-2.69.245-6.23 3.523-8.42-3.521-31-17.128-39.93-22.187-3.69-2.088-11.38-19.162-14.88-22.383-1.03-.955-3.23.47-6.53-3.126.49-6.036 13.64-14.31 18.87-16.34 13.76-5.341 16.65-7.468 21.27-21.189-6.41-23.519-17.37-29.654-40.63-29.534-7.01-16.707-11.75-27.315 3.91-40.577 11.99-7.045 15.91-6.54 29.3-5.68 5.45-.492 8.36-1.409 13.61-2.869"/><path fill="#FCCD05" d="M1449.77 604.186c31.9-26.835 68.56 18.714 45.7 44.983-16.75 7.227-48.2 16.302-52.33-11.023-2.24-14.786 5.61-21.316 6.63-33.96"/><path fill="#FEFEFE" d="M1406.86 612.735a424 424 0 0 1-4.25-6.47c-27.08-42.096-32.11-76.316-21.93-124.923 7.48-35.728 27.85-74.487 59.25-94.302 33.56-21.175 64.89-13.409 100.32-5.459 2.03 7.927.29 20.995-3.8 28.249-5.67 10.225-24.05 10.095-32.74 4.823-12.63-7.662-10.55-29.882-29.87-25.418-60.51 13.977-84.82 83.783-74.37 139.3 5.33 28.33 19.32 56.819 36.69 78.52-13.39-.86-17.31-1.365-29.3 5.68"/><path fill="#FCCD05" d="M1517.5 388.273c18.35-.876 22.19 15.953 1.38 19.427-7.6-.608-15.92-2.012-17.42-10.71 2.08-8.146 8.85-7.858 16.04-8.717"/><path fill="#FEFEFE" d="M1490.3 743.075c52.65 104.017-1.62 200.606-99.1 245.257-9.51 4.357-27.06 13.838-37.12 13.728 2.03-1.4 2.51-1.65 4.27-3.455 1.34-4.089-.58-7.665-2.06-11.99 9.31-2.27 19.84-8.277 28.22-12.853 29.93-16.349 63.01-42.016 80.76-71.474 17.61-29.751 28.21-64.048 22.15-98.807-2.11-12.121-5.51-22.189-8.39-33.929a506 506 0 0 0 15.56 8.112c-1.04-11.069-2.89-23.434-4.29-34.589"/><path fill="#FCCD05" d="m550.037 331.715.73.191c10.055 2.521 20.477 2.624 30.622 5.691 41.033 12.405 82.849 39.302 104.842 77.064 40.536 69.6 29.803 146.167-9.192 213.037-2.64-10.983-15.794-14.878-25.101-18.49-5.616-1.41-5.193-1.196-8.568 2.91-1.513.033-14.03-4.952-17.572-6.008 26.715-40.978 48.207-93.064 28.011-141.554-9.625-23.108-23.117-49.218-40.92-66.886-5.738-5.694-16.006-10.698-23.315-13.957-9.687 8.987-24.075 23.833-37.46 24.081-41.837.776-50.307-30.957-25.954-60.038 6.87-7.901 14.495-11.939 23.877-16.041"/><path fill="#FEFEFE" d="M589.574 383.713c-9.687 8.987-24.075 23.833-37.46 24.081-41.837.776-50.307-30.957-25.954-60.038 7.748 1.227 21.732 2.188 28.271 4.298 36.393 11.738 70.444 30.829 93.118 62.065 26.495 36.499 38.143 81.275 31.631 125.777-2.43 16.61-16.503 57.013-27.242 69.312-5.616-1.41-5.193-1.196-8.568 2.91-1.513.033-14.03-4.952-17.572-6.008 26.715-40.978 48.207-93.064 28.011-141.554-9.625-23.108-23.117-49.218-40.92-66.886-5.738-5.694-16.006-10.698-23.315-13.957"/><path fill="#FCCD05" d="M536.972 370.182a66 66 0 0 1 5.023-.146c7.101.039 30.609 1.88 36.214 7.22 1.712 1.631 1.214 2.556 1.178 4.716-2.6 5.554-8.354 8.884-13.41 12.123-28.969 12.558-56.653-13.93-29.005-23.913"/><path fill="#177F24" d="M570.116 626.978c-1.42-16.947-5.855-29.938 10.927-40.941 22.035-14.447 30.241 3.941 44.216 20.007l.539.066c3.542 1.056 16.059 6.041 17.572 6.008 3.375-4.106 2.952-4.32 8.568-2.91 9.307 3.612 22.461 7.507 25.101 18.49.294 4.709 3.649 9.619 1.059 13.912-2.163 3.586-6.011 7.703-8.81 10.943 16.597 13.862 15.289 35.209 2.014 50.956q-.714.846-1.441 1.681c-3.113 5.869-5.221 10.056-7.754 16.172-19.454 24.071-31.968 8.351-42.351 28.593l-2.454 4.716-6.903 6.748c-3.73 1.9-5.444 3.212-9.61 3.14-2.851-2.088-2.011-3.148-2.838-7.776-3.706-1.987-9.694 1.058-17.201-.37l-5.328-3.246c17.372-19.227 6.278-21.048 16.932-41.443 3.085-5.905 16.124-9.278 18.37-14.944-13.042-9.319-20.18 11.714-33.748 13.783-13.648 2.081-30.58-3.918-41.775-11.195l-.966-.638c12.299-23.939 29.299-49.661 59.647-37.738 3.48 1.368 9.544 3.131 13.284 3.175 3.578.042 3.847-.135 6.241-2.499.493-3.588.853-1.994-.945-4.982-4.87-2.21-17.719-.385-20.466-1.855-15.983-8.551-19.49-11.65-37.666-14.615 5.334-6.358 8.512-9.318 15.786-13.238"/><path fill="#FCCD05" d="M643.764 651.42c8.412.851 19.466 4.458 25.524 1.133 16.597 13.862 15.289 35.209 2.014 50.956q-.714.846-1.441 1.681c-7.56.135-13.038 3.519-20.9 1.093-30.094-9.285-33.448-39.544-5.197-54.863"/><path fill="#FCCD05" d="M570.116 626.978c-1.42-16.947-5.855-29.938 10.927-40.941 22.035-14.447 30.241 3.941 44.216 20.007-2.244 34.828-16.037 18.388-37.036 12.443z"/><path fill="#FCCD05" d="M697.573 999.159c-7.295-2.873-14.486-6.01-21.757-8.869-68.078-26.763-126.399-90.69-130.22-166.013-.803-15.836 4.865-65.116 21.951-73.808 2.08-1.058 6.047 1.589 7.875 2.698l5.328 3.246c7.507 1.428 13.495-1.617 17.201.37.827 4.628-.013 5.688 2.838 7.776 4.166.072 5.88-1.24 9.61-3.14-39.033 91.52 18.826 165.614 100.294 201.854 2.974 1.323 6.711 3.068 9.584 4.551-9.384 5.201-15.587 8.129-22.391 16.685z"/><path fill="#FEFEFE" d="M697.573 999.159c-7.295-2.873-14.486-6.01-21.757-8.869-68.078-26.763-126.399-90.69-130.22-166.013-.803-15.836 4.865-65.116 21.951-73.808 2.08-1.058 6.047 1.589 7.875 2.698l5.328 3.246c-3.761 9.038-6.226 17.884-8.813 27.292-23.062 83.846 45.266 166.95 120.332 198.578q2.786 1.172 5.617 2.226z"/><path fill="#FCCD05" d="M662.107 721.362c40.737 46.495-35.992 71.376-44.805 33.309l2.454-4.716c10.383-20.242 22.897-4.522 42.351-28.593"/><path fill="#FCCD05" d="M730.594 959.329c1.68-9.153 3.502-19.481 12.039-24.52 24.433-14.42 41.851 1.755 44.142 25.787-12.992-10.508-17.643-9.319-31.414-1.816-9.253-.713-15.769-1.61-24.767.549"/><path fill="#663627" d="M826.886 433.018c.186-5.387-.618-23.993 8.195-20.781 4.558 5.627 3.767 12.303 4.03 19.676 6.253.207 9.696.012 15.592 2.235 1.596 3.606 2.366 2.466 5.231 5.253 2.723-.241 5.967-.419 8.603-.914 6.635 10.163 10.219 19.052 15.395 27.369-3.3 1.487-5.235.603-8.85-.193-2.831-4.81-6.185-9.725-9.268-14.417-10.373-6.013-14.906-6.869-26.727-7.096a1194 1194 0 0 0 1 97.033c10.72 14.324 22.607 27.749 33.302 42.1 2.328 3.125 5.266 9.787 7.488 11.896-1.828 4.798-.912 10.231.751 14.973-.75 7.564-2.155 11.954-5.448 18.895-3.232 3.942-3.517 4.998-5.195 9.585-7.992 8.229-22.99 20.713-27.827 29.29-.726 23.206 2.229 50.994 6.174 73.95-8.22.113-13.108-1.371-19.772-5.864-5.365.242-7.133.188-12.314 1.746-5.004 4.831-24.245 5.386-31.116 5.237 3.292-8.805 9.55-18.479 11.064-28.01 2.677-5.887 5.012-15.173 6.462-21.495 1.384-1.913 4.422-9.573 5.706-12.285 5.383-11.366 10.352-16.924 18.618-25.976.008-34.038-.155-73.109-1.231-107.048-12.552-19.03-19.445-24.862-32.324-47.536a142 142 0 0 0-2.707-9.214c-2.218-10.442-1.643-18.57-.217-28.976l1.99-.393c3.209-3.053 7.399-9.586 5.407-13.939 11.867-7.46 14.293-10.452 27.988-15.101"/><path fill="#FEFEFE" d="M817.246 737.754c-1.901-19.246 2.1-41.531 11.526-58.56-.43 19.418.111 37.458.788 56.814-5.365.242-7.133.188-12.314 1.746"/><path fill="#45612F" d="M859.934 439.401c2.723-.241 5.967-.419 8.603-.914 6.635 10.163 10.219 19.052 15.395 27.369-3.3 1.487-5.235.603-8.85-.193-2.831-4.81-6.185-9.725-9.268-14.417 1.532.068 1.914.333 3.135 1.239 2.366.181 1.167.263 3.748-1.526l-.189-1.561c-2.867-3.896-8.43-7.263-12.574-9.997"/><path fill="#FEFEFE" d="M840.277 561.624c7.755 4.212 22.778 29.451 24.047 39.027 1.746 13.179-1.644 21.192-8.949 31.583-4.382 4.595-7.927 7.256-12.947 11.187z"/><path fill="#FEFEFE" d="m824.56 447.836 1.055.575c1.213 1.785 1.118 68.644 1.254 77.869l-7.839-10.908c-17.998-23.608-23.656-50.537 5.53-67.536"/><path fill="#663627" d="M1019.15 635.011c7.4 10.615 6.63 12.016 8.08 24.866 13.12 3.977 17.57 7.21 28.29 15.836-.13 4.684 3.68 10.836 7.36 13.471 1.45 8.125 1.88 20.371-.89 28.105-1.73 3.537-3.73 7.773-4.12 11.73-9.9 21.813-20.76 28.206-29.82 44.006.02 24.26-.08 48.521-.31 72.78-.12 11.153-.98 26.372-.45 37.126 17.04 18.149 13.99 19.113 24.11 38.028 1.78 7.185 3.55 15.114 5.87 22.085 3.58 12.211 7.56 16.474 11.87 26.596-9.31.652-26.1 2.009-32.2-6.31-3.88.192-7.46.239-11.28.994-7.48 4.28-11.68 4.811-20.13 5.403 3.8-13.902 6.64-61.152 6.65-75.564-8.4-11.119-18.599-17.85-27.798-28.476-1.566-3.99-2.525-6.139-5.712-9.067-3.684-7.44-4.898-13.57-6.038-21.721 1.392-2.721 1.808-8.593 1.738-11.628 5.994-16.266 28.67-42.146 40.43-56.563.5-9.158 2.13-91.528-.15-94.692-4.77-1.233-7.31-.163-11.83.5-13.98 2.051-18.298 9.369-22.747 21.663l-1.251 1.273c-2.944-.006-7.813-.166-10.577.191 7.606-14.162 8.481-18.735 19.696-30.461 4.866-.322 7.849-1.35 12.259-3.115 5.68-1.627 8.7-2.035 14.61-2.795 1.09-8.885 1.76-15.659 4.34-24.261"/><path fill="#FEFEFE" d="M1025.66 964.324c.5-19.435.73-38.875.71-58.316 7.26 15.256 13.98 40.616 10.57 57.322-3.88.192-7.46.239-11.28.994"/><path fill="#FEFEFE" d="m1012.8 788.735.72.715c1.92 6.266-.26 69.585-.34 81.869-3.59-3.891-8.65-8.507-12.54-12.26-24.165-24.902-5.931-49.064 12.16-70.324"/><path fill="#FEFEFE" d="M1027.66 674.387c29.14 13.746 26.28 39.153 10.79 62.7-3.3 4.683-6.96 9.383-10.43 13.965.19-23.406 1.2-53.715-.36-76.665"/><path fill="#663627" d="M1219.6 431.633c.51-7.35-.1-14.586 5.03-19.705l2.15-.242c5.42 4.646 4.71 10.41 5.25 17.603l.2 2.86c11.06 5.151 17.43 7.954 27.43 15.09.05 3.974 4.47 12.702 7.57 14.815 1.45 13.729 1.93 15.567-.28 29.981-2.17 4.36-2.48 5.023-3.34 9.889-5.42 8.902-9.78 15.903-15.93 24.259-4.54 6.178-11.94 15.049-15.7 21.292-.6 36.073-.87 72.151-.79 108.23 17.21 18.589 13.41 19.15 24.23 37.081 1.53 6.413 2.58 15.45 6.08 20.366 1.88 13.702 5.4 17.296 10.95 29.486-7.77-.168-26.25 1.169-30.34-5.952-5.64-1.042-6.76-1.247-12.49-.825-6.55 4.314-12.53 7.06-20.6 6.76 4.15-16.654 6.98-57.209 6.52-74.554-6.85-11.284-18.92-18.251-28.07-30.597-1.4-3.506-2.64-4.791-4.91-7.703-2.08-4.765-5.61-16.985-6.82-21.911 2.8-3.151 2.28-6.909 2.26-11.028 11.78-25.346 27.48-35.629 40.97-57.777.41-19.793.61-39.591.59-59.389.01-9.704.44-24.185-.7-33.493-6.18-7.425-22.89 3.462-28.46 7.964-1.56-3.673-.98-5.274 1.04-8.448l3.4-5.485 7.14-4.281c6.25-2.733 10.68-3.965 17.62-4.286"/><path fill="#FEFEFE" d="m1229.62 735.861.62-56.947c7.66 15.974 14.37 40.208 11.87 57.772-5.64-1.042-6.76-1.247-12.49-.825"/><path fill="#FEFEFE" d="m1217.14 562.731.59.32c1.31 2.318-.72 71.997-.71 80.898-3.89-3.221-7.97-6.984-11.79-10.36-21.81-25.841-9.79-49.612 11.91-70.858"/><path fill="#FEFEFE" d="M1232.06 447.602c30.99 12.555 25.41 41.384 10.09 64.269-3.61 5.196-7.03 9.337-11.07 14.228.68-26.16 1-52.328.98-78.497"/><path fill="#177F24" d="M773.641 430.944c2.335-9.329 4.005-33.18 13.839-37.816l2.161.876c2.831 4.141 3.728 12.196 5.166 13.899 14.905 17.637 5.515 21.315 4.091 40.216 1.992 4.353-2.198 10.886-5.407 13.939l-1.99.393c-10.298 2.852-19.38 18.279-32.11 13.799-5.481-1.929-12.627-6.46-15.288-11.723 1.343-7.062 12.803-4.049 18.617-9.534-.058-3.122.163-1.983-2.412-4.896-4.474-1.413-15.003.728-20.219 1.465-7.284-7.861-12.336-7.879-22.915-10.945l-.642-2.069c4.115-12.011 32.891-18.781 44.049-21.067 3.494-.716 10.895 10.524 13.06 13.463"/><path fill="#177F24" d="M888.799 563.293c2.863-5.244 8.356-17.386 13.608-19.091 7.15 4.271 3.915 26.924 3.111 34.194 2.868 1.103 1.345.941 4.743-.161 4.741-6.487 4.74-15.4 14.462-16.377 17.219-1.729 25.295 24.344 27.644 35.798-2.819 3.594-5.415 7.568-10.253 7.517-12.746-.134-18.481-7.023-32.653-9.959 8.154 5.953 26.305 14.145 19.326 27.565-8.765 4.77-34.599-8.246-40.989-14.976-.474-.498-5.317 1.919-6.17 2.349-1.663-4.742-2.579-10.175-.751-14.973 3.042-7.554-12.085-22.529-2.085-32.534 4.9-1.399 4.28-1.048 10.007.648"/><path fill="#177F24" d="M1055.52 675.713c-1.07-17.46-14.95-20.037 3.67-41.077 2.7-3.058.2-12.997 6.75-13.486 8.61 5.98 9.97 24.894 15.13 36.483 2.53-3.992 6.81-11.912 10.61-14.01 10.04.163 42.28 11.135 44.01 23.394l-.86 2.073c-11.03 3.153-15.93.903-21.61 9.119-6.79-.719-17.11-3.133-22.05.652-2.82 9.177 12.38 4.616 17.53 8.009 2.47 6.216-8.69 12.942-13.73 14.743-12.18 4.349-22.14-7.863-32.09-12.429-3.68-2.635-7.49-8.787-7.36-13.471"/><path fill="#177F24" d="M1255.16 418.058c14.55-12.375 5.84-14.242 13.31-24.474 14.32 2.282 8.7 25.078 15.77 33.231 5.17.145 8.08-6.419 11.75-9.99 10.47 2.962 45.27 10.63 44.78 23.596-3.51 4.465-12.82 2.674-17.84 4.905-4.11 1.825-.64 5.773-6.41 6.476-6.31.768-15.65-4.507-20.44-.757-1.27 3.329-1.15 1.662-.29 5.184 6.86 5.878 17.39.841 18.04 7.899-2.79 5.004-8.79 10.024-14.26 11.641-13.26 3.92-22.39-8.601-32.34-13.715-3.1-2.113-7.52-10.841-7.57-14.815-3.54-14.388-4.97-13.437-4.5-29.181"/><path fill="#177F24" d="M1175.74 607.856c-2.88-.351-3.74-.365-6.65-.234-8.92 8.012-53 32.92-37.46.954 1.56-3.225 10.76-7.919 12.37-11.688-9.94-.046-38.19 23.61-35.19-6.342 1.98-19.682 27.73-43.143 39.35-14.09.7 1.752 2.23 2.075 3.79 2.266 1.61-6.025-3.94-29.359 4.11-35.011 5.81 1.98 9.24 15.269 14.41 18.583 4 2.561 4.97-1.855 10 .244 2.58 3.489 3.11 7.514 4.14 11.829-2.66 10.374-8.84 13.641-6.61 22.461.02 4.119.54 7.877-2.26 11.028"/><path fill="#177F24" d="M926.141 828.215c-7.29 1.869-13.687 2.985-20.359-1.632-4.259-7.806 5.844-28.311 12.761-33.622 13.182-10.123 22.627 4.491 29.629 13.61l1.009-.745c-1.792-6.492-4.16-31.808 3.488-35.024 5.734 2.284 10.226 12.508 13.377 18.203 26.204-3.973 5.817 23.093 8.324 34.266.07 3.035-.346 8.907-1.738 11.628-2.667-.806-3.827-1.44-6.54-.798-7.441 7.674-36.083 21.831-41.681 9.767.222-4.994 3.058-8.784 6.189-12.445-1.419-1.301-2.853-2.137-4.459-3.208"/><path fill="#E1FDE2" d="M926.141 828.215c4.248-1.997 7.231-3.888 11.866-3.915l1.264.956c-1.711 2.887-5.542 4.443-8.671 6.167-1.419-1.301-2.853-2.137-4.459-3.208"/><path fill="#177F24" d="M782.536 676.462c2.229-7.823 4.358-42.442 19.233-35.021 2.309 4.156 1.472 12.033 1.43 17.204l6.546 10.364c-.902 6.842-4.18 17.526-6.089 24.477-1.45 6.322-3.785 15.608-6.462 21.495-1.326-1.448-2.451-2.484-3.867-3.82-3.831-.733-13.783 4.713-18.859 5.939-9.866 2.381-24.775-6.879-26.467-17.104l1.137-1.534c5.805-1.446 11.338.442 18.375-.27 2.448-2.146 1.71-.827 2.168-4.155-3.835-7.491-14.789-2.04-19.858-6.469-4.265-10.274-9.008-10.079-19.6-16.57 15.135-16.082 17.159-11.66 37.319-13.449 2.412-.214 1.184-.768 4.836-.19 5.811 4.144 7.714 12.242 10.158 19.103"/><path fill="#177F24" d="M1036.94 963.33c6.1 8.319 22.89 6.962 32.2 6.31 11.69.27 59.56 9.167 63.98 19.117l-.76.854c-6.38-.204-39.65.666-42.27.228-21.97-3.67-150.31 4.053-161.795-4.95l.16-1.819c6.712-5.899 24.192-4.971 32.843-7.12 15.446-3.836 28.351-5.845 44.232-6.223 8.45-.592 12.65-1.123 20.13-5.403 3.82-.755 7.4-.802 11.28-.994"/><path fill="#177F24" d="M1249.2 669.383c1.62-2.675 4.71-7.636 5.47-10.481 1.95-7.401-.91-13.001 4.83-18.542 3.04-.647 3.18-.501 6.19.691 7.17 6.517 6.42 21.663 10.05 33.038 1.86-3.713 7.24-15.86 11.22-16.224 11.96-1.097 36.35-1.572 39.76 13.581-2.15 4.44-11.32 6.558-15.12 9.922-2.38 2.112-3.09 6.756-5.55 7.64-6.04 2.171-13.73-1.486-17.62 4.034.28 3.794-.43 2.234 2.05 4.921 6.81 2.445 14.98-1.37 19.61.809 1.2 6.585-14.49 17.85-20.75 19.302-10.72 2.488-19.52-10.48-27.84-4.922-3.5-4.916-4.55-13.953-6.08-20.366-1.74-7.908-4.74-15.902-6.22-23.403"/><path fill="#177F24" d="M829.56 736.008c6.664 4.493 11.552 5.977 19.772 5.864 15.75 1.028 28.98 3.001 44.252 6.856 8.696 2.195 25.358 1.224 31.804 7.424-3.849 9.604-79.288 4.359-91.213 4.369-30.78.027-61.531 3.916-92.262 1.526-6.263-.462-13.665-.17-19.557-1.838l-1.268-1.448c6.123-8.494 52.946-15.008 65.042-15.77 6.871.149 26.112-.406 31.116-5.237 5.181-1.558 6.949-1.504 12.314-1.746"/><path fill="#177F24" d="M1044.22 895.85c1.64-2.079 4.56-5.683 5.44-8.089 2.24-6.133.25-16.386 5.46-20.645 13.23-.836 12.69 24.543 14.96 33.509 2.06-3.343 9.86-17.278 12.4-16.918 18.25 2.579 30.05-1.473 40.6 14.915-11.62 6.292-14.21 7.766-24.19 16.881-4.71.381-10.34.374-14.33 2.475-1.87 2.93-1.92 2.032-1.73 4.871 5.65 4.164 17.56-2.156 22.45 3.959-.27 9.206-14.48 17.713-23.04 17.387-6.03-.229-16.35-6.159-20.87-4.95l-4.1 3.799c-2.32-6.971-4.09-14.9-5.87-22.085-2.06-8.97-4.95-16.566-7.18-25.109"/><path fill="#177F24" d="M1229.62 735.861c5.73-.422 6.85-.217 12.49.825 4.09 7.121 22.57 5.784 30.34 5.952 10.98 2.585 58.9 7.981 65.79 16.114l-.55 1.337c-32.98 7.646-81.26-1.191-115.61.439-15.26.723-80.69 4.915-88.63-4.008l1.01-1.459c9.89-5.326 20.87-4.045 30.51-6.22 17.52-3.952 26.1-5.644 44.05-6.22 8.07.3 14.05-2.446 20.6-6.76"/><path fill="#822083" d="M1182.56 629.767c2.27 2.912 3.51 4.197 4.91 7.703l-6.61 7.122c29.3 26.763 13.59 33.059-2.55 58.202 1.24 7.585.43 15.469-8.59 16.928-13.83-3.671-30.86-40.215-28.01-54.329.26-1.309 15.21-16.426 17.4-16.93 1.4-.249 5.59-.756 6.82-1.652 5.68-8.687 8.22-10.73 16.63-17.044"/><path fill="#177F24" d="M1182.56 629.767c2.27 2.912 3.51 4.197 4.91 7.703l-6.61 7.122c-5.26 1.369-9.01 2.707-14.42 2.258l-.51-.039c5.68-8.687 8.22-10.73 16.63-17.044"/><path fill="#822083" d="M883.932 465.856c3.654 3.298 6.435 4.047 11.237 4.555 9.754 1.03 12.666 14.406 16.108 22.921-5.864 11.439-11.483 18.328-18.028 28.986-2.862 4.66.785 16.227-8.452 20.328-9.039.032-13.016-8.427-15.134-15.793-2.347-2.333-3.056-2.866-5.792-4.761l-.341-1.309c-2.972-11.199-13.414-26.169-7.854-38.812 2.586-5.879 10.639-1.915 13.006-8.489 1.065-2.96 3.886-5.863 6.4-7.819 3.615.796 5.55 1.68 8.85.193"/><path fill="#822083" d="M771.257 512.904c2.294 1.123 8.32 3.863 10.895 3.951 10.197 7.834 11.16 7.207 12.295 19.256 1.729 18.371-11.879 20.041-16.852 35.514 1.548 6.457 2.747 13.239-6.116 15.922-11.086 3.355-11.745-7.217-15.706-13.873l-5.487-3.262c-4.642-11.888-10.822-22.092-10.417-36.797-1.024-5.112 10.195-7.8 10.516-8.629 4.663-12.077 14.237-6.479 20.872-12.082"/><path fill="#822083" d="M1175.23 466.03c3.72 1.235 4.36 1.14 8.3.841l1.7-1.038 7.49 11.861c6.04 1.224 10.69 2.228 12.04 8.733.77 3.721-2.67 7.542-4.55 10.593 4.72 13.496-6.15 21.785-13.21 32.427-2.63 3.977-2.26 7.489-6.32 11.627-5.97 2.361-10-.173-14.33-4.862-2.69-2.927 1.63-9.171.06-12.39-4.15-8.548-11.29-14.637-16.26-22.904-.15-2.288-.26-4.58-.3-6.873-.2-16.71 6.01-24.554 22.38-24.918 0 0 2.7-2.785 3-3.097"/><path fill="#822083" d="M1287.27 512.755c5.12 5.256 6.93 3.273 14.6 4.025 7.1 12.857 21.79 11.327 13.2 26.739 1.75 10.265 1.53 11.119-4.39 20.285-3.12 4.818-7.02 7.405-10.22 11.924-1.45 2.045-2.18 7.846-3.57 9.846a6.19 6.19 0 0 1-4.41 2.657c-3.8.445-7.48-1.172-10.56-3.557-3.61-2.807-.42-10.682-.91-11.766-7.9-17.471-31.28-33.59-10.3-52.406a60 60 0 0 1 5.82-4.647c4.87-.361 6.54-.576 10.74-3.1"/><path fill="#822083" d="M879.09 644.901c4.435.911 9.529 2.355 13.89 1.842 1.76 1.457 3.505 1.06 4.243 1.47 11.973 6.659 24.873 12.558 18.863 28.752-3.96 10.673-4.112 21.559-13.892 28.23-4.983 3.4-3.293 14.04-13.803 14.864-8.279-3.232-10.405-8.219-7.561-16.09-14.558-25.803-33.754-31.627-1.74-59.068"/><path fill="#822083" d="M975.788 872.201c6.09 4.391 10.864 9.186 15.517 15.097q.058 10.016-.008 20.032c-4.528 4.542-6.514 6.162-11.705 9.963-2.76 8.277-5.317 14.128-6.036 23.059-.295 3.673-5.551 7.774-10.105 7.362-6.754-3.549-6.197-8.128-9.974-13.584-5.495-7.937-18.932-19.489-13.874-30.193-1.416-3.996-4.08-9.742-1.435-13.273 4.847-6.471 14.055-15.822 22.4-15.491l1.587-1.406c4.557.045 9.244-.332 13.633-1.566"/><path fill="#177F24" d="m854.703 434.148 2.767-2.677c-1.862-6.675-11.398-5.92-10.985-15.306.227-5.177 3.159-7.097 3.178-9.792.039-5.72-1.853-10.188-.473-16.264l1.324-1.375c8.47-.047 14.543 14.337 17.948 20.839.531-4.339 1.26-15.939 5.172-17.825 12.651-6.097 31.791 1.928 38.859 13.539 2.071 3.401.919 5.435-1.164 8.263-3.652 4.253-.134 11.596-7.166 13.129-3.495.704-14.206-3.961-17.844-5.365 5.729 5.957 20.305 18.317 14.652 27.015-12.651 5.188-23.723-11.752-32.434-9.842-2.636.495-5.88.673-8.603.914-2.865-2.787-3.635-1.647-5.231-5.253"/><path fill="#822083" d="M980.073 694.179c2.193 2.445 5.192 6.116 8.255 8.477 7.919 6.102 9.633 4.618 10.878 14.34 1.424 11.123-18.782 66.05-35.305 46.894-2.778-3.221.018-9.141-1.331-12.673-4.407-8.566-10.893-16.47-16.919-23.817.461-6.823.761-20.93 5.5-26.085 2.686-2.922 16.046-4.942 17.094-5.672 2.764-.357 7.633-.197 10.577-.191z"/><path fill="#822083" d="M1072.07 741.696c5.58 1.541 7.22 1.36 12.97 1.013 10.37.497 13.91 2.373 21.97 9.223 9.28 7.89 3.76 15.459 4.9 25.208.47 3.926-3.67 6.504-6.2 9.046-.32 11.193-1.79 7.056-9.3 13.92-1.8 3.211-.13 8.118-3.34 10.634-5.06 3.959-10.92 4.264-15.72-.291-3.54-3.359-.52-12.441-.96-13.112-14.6-22.511-30.89-33.178-4.32-55.641"/><path fill="#177F24" d="M1189.04 411.476c4.94-7.887 8.67-21.794 18.78-21.764l1.24 1.728c.25 9.042 1.19 18.15.89 27.189-.23 6.605-5.44 6.775-9.46 11.648l1.49 5.642-7.14 4.281-3.8-.6-2.06-1.81c-8.08-.913-12.85 9.771-20.68 11.887-5.99 1.622-12.07-1.573-13.29-7.709 2.17-7.583 10.12-13.726 15.99-19.235-4.97 1.858-11.04 4.719-16.06 3.529-4.36-3.405-5.62-11.025-12.26-17.708 5.92-6.277 12.52-13.312 19.38-18.459 22.13 4.014 25.77-6.565 26.98 21.381"/><path fill="#177F24" d="M984.901 636.505c7.314-7.417 12.132-19.849 19.429-21.624 4.35 4.995 4.95 34.159-3.27 38.581-4.345 2.34-2.341 4.699-.86 8.605-4.41 1.765-7.393 2.793-12.259 3.115-18.854 1.386-16.606 18.763-37.93 6.028 4.691-7.694 11.592-15.714 17.318-22.808-4.728 1.956-11.022 5.358-15.677 4.317-3.937-3.03-5.41-10.338-12.183-16.6 4.98-6.861 13.251-13.889 19.652-19.643 20.49 5.883 22.195-7.167 25.78 20.029"/><path fill="#177F24" d="M1061.99 717.289c8.2 8.005 16.25 16.153 23.05 25.42-5.75.347-7.39.528-12.97-1.013-4.88-4.633-9.02-8.392-14.2-12.677.39-3.957 2.39-8.193 4.12-11.73"/><path fill="#177F24" d="M1263.61 501.924c.86-4.866 1.17-5.529 3.34-9.889 9.15 6.021 15.06 10.947 20.32 20.72-4.2 2.524-5.87 2.739-10.74 3.1-4.12-4.702-8.63-9.365-12.92-13.931"/><path fill="#177F24" d="M791.718 491.427a142 142 0 0 1 2.707 9.214c-4.313 6.38-8.071 10.445-12.273 16.214-2.575-.088-8.601-2.828-10.895-3.951 7.512-10.46 10.185-13.852 20.461-21.477"/><path fill="#45612F" d="m1191.04 439.6 3.8.6-3.4 5.485c-2.02 3.174-2.6 4.775-1.04 8.448-3.01 5.063-3.56 6.064-5.17 11.7l-1.7 1.038c-3.94.299-4.58.394-8.3-.841 4.37-11.353 6.49-18.728 15.81-26.43"/><path fill="#177F24" d="M876.18 629.047c7.748 6.54 11.119 9.17 16.8 17.696-4.361.513-9.455-.931-13.89-1.842l-8.105-6.269c1.678-4.587 1.963-5.643 5.195-9.585"/><path fill="#177F24" d="M978.67 856.62c3.187 2.928 4.146 5.077 5.712 9.067-2.141 1.522-7.004 4.769-8.594 6.514-4.389 1.234-9.076 1.611-13.633 1.566 5.358-7.462 9.295-11.565 16.515-17.147"/><path fill="#FEFEFE" d="M231.963 968.524c29.544 9.066 69.244 18.615 100.162 21.656 51.769 5.045 102.398-2.036 154.31 1.155 32.802 2.015 61.972 11.765 96.037 15.045 26.991 2.61 80.159-9.407 97.607 17.55 6.884 10.64-6.91 32.09-10.336 43.12-4.872 14.5-14.003 38.88-17.797 52.92a1236 1236 0 0 0 51.271 2.89c21.852.57 144.782-5.65 146.696 37.16.232 5.18-11.558 25.47-15.097 31.86-5.946 13.68-13.641 32.74-20.251 45.61 72.035 6.96 147.134 7.8 217.335 23.25 26.6 5.85 54.5 17.94 80.3 26.86 9.83 3.4 26.29 10.28 35.88 12.28 16.35 5.96 33.22 10.4 50.39 13.26 37.76-23.89 52.12-36.32 96.94-55.71 63.6-27.51 134.74-37.79 190.95-77.96 7.98-5.71 17.37-16.38 24.05-23.73 2.05 5.38 4.57 11.4 5.69 16.97-21.91 42.68-92.68 62.21-135 76.62-19.33 6.57-72.59 22.61-88.04 32.04-4.15 7.96-7.23 17.51-11.38 24.59-15.19 34.42-27.9 74.86-43.86 107.87-8.52 23.76-23.28 25.22-46.69 27.39-57.01 5.2-105.47-24.53-156.24-44.97-52.184-21.01-99.15-26.34-154.815-25.59-33.321.44-68.806-2.24-102.106-6.48-54.355-6.93-81.713-37.28-111.948-79.2 3.262-5.87 7.066-11.95 10.549-17.73 2.089-3.52 4.761-7.48 7.004-10.97-60.659-3.51-143.531-17.46-180.275-72.46 2.069-7.68 5.533-17.4 8.084-25.15 2.957-11.19 9.029-27.36 12.814-39.02-13.402-3.89-26.131-5.28-40.004-5.62-59.732-1.45-120.814 6.04-180.026-4.25-32.02-5.57-65.971-14.06-96.808-24.91 9.422-3.26 18.063-7.23 27.164-11.27 23.32-11.02 44.232-21.64 67.148-33.44-23.373-12.05-34.85-22.2-50.376-43.081-8.232-9.49-13.047-17.846-19.332-28.555"/><path fill="#FCCD05" d="M231.963 968.524c29.544 9.066 69.244 18.615 100.162 21.656 51.769 5.045 102.398-2.036 154.31 1.155 32.802 2.015 61.972 11.765 96.037 15.045 26.991 2.61 80.159-9.407 97.607 17.55 6.884 10.64-6.91 32.09-10.336 43.12-4.872 14.5-14.003 38.88-17.797 52.92a1236 1236 0 0 0 51.271 2.89c21.852.57 144.782-5.65 146.696 37.16.232 5.18-11.558 25.47-15.097 31.86-5.946 13.68-13.641 32.74-20.251 45.61 72.035 6.96 147.134 7.8 217.335 23.25 26.6 5.85 54.5 17.94 80.3 26.86 9.83 3.4 26.29 10.28 35.88 12.28 16.35 5.96 33.22 10.4 50.39 13.26 37.76-23.89 52.12-36.32 96.94-55.71 63.6-27.51 134.74-37.79 190.95-77.96 7.98-5.71 17.37-16.38 24.05-23.73 2.05 5.38 4.57 11.4 5.69 16.97-21.91 42.68-92.68 62.21-135 76.62-19.33 6.57-72.59 22.61-88.04 32.04-4.15 7.96-7.23 17.51-11.38 24.59-4.49.77-15.07 12.49-20.46 16.52a64.5 64.5 0 0 1-15.42 8.32c-49.07 18.33-122.36-16.76-168.14-33.21-28.16-10.12-58.33-18.87-88.075-23.85-31.204-5.22-60.737-7.14-92.6-9.66-47.137-3.73-101.905-.63-146.318-18.18-16.502-6.52-25.912-19.51-31.904-35.49 3.593-12.91 7.038-17.05 12.243-27.9 15.757-32.84 93.485 7 105.422-11.8.179-1.63.298-3.4-.696-4.87-19.14-28.31-88.239-22.68-118.882-23.94-20.387-.34-41.208-.57-61.534-1.48-37.782-1.71-102.539-13.37-120.406-51.31 9.24-40.97 23.683-48.35 65.539-40.41 12.161 2.31 70.246 12.67 69.656-7.51-10.663-15.91-79.421-9.03-100.493-11.92-33.429-4.58-65.136-12.92-98.895-14.13-43.487-1.56-86.366 4.83-129.726 1.12-30.765-2.59-60.389-10.02-89.696-19.181-8.232-9.49-13.047-17.846-19.332-28.555"/><path fill="#FEFEFE" d="M547.531 1072.19c10.016-.18 20.233-.19 30.264-.55 23.932-.86 47.032 8.07 70.987 4.17 7.316-1.19 14.059-6.32 20.961-8.76-4.872 14.5-14.003 38.88-17.797 52.92-36.17-5.62-86.292-11.52-104.415-47.78"/><path fill="#FEFEFE" d="M814.565 1237.49c-25.139-2.1-60.335-6.4-76.181-27.81-3.066-4.14-5.477-6.82-4.869-12.25 8.369-17.11 60.181-.3 75.407-.39 10.502-.07 16.198-1.51 25.894-5.16-5.946 13.68-13.641 32.74-20.251 45.61"/><path fill="#0E0F0F" d="m1267.94 1293.03.75.86c-13.13 13.59-23.9 19.26-41.28 25.05l-.67-.36c2.24-3.53 35.96-22.6 41.2-25.55"/><path fill="#FCCD05" d="M666.021 1284.98c3.262-5.87 7.066-11.95 10.549-17.73 7.198 6.59 10.73 15.7 16.627 23.33 44.31 57.19 113.857 57.81 179.655 58.57 36.052.42 76.585 1.14 111.687 8.26 94.561 19.2 151.301 83.5 253.281 56.42-8.52 23.76-23.28 25.22-46.69 27.39-57.01 5.2-105.47-24.53-156.24-44.97-52.184-21.01-99.15-26.34-154.815-25.59-33.321.44-68.806-2.24-102.106-6.48-54.355-6.93-81.713-37.28-111.948-79.2"/><path fill="#FCCD05" d="M234.523 1073.6c39.624 9.52 75.77 18.43 116.7 21.17 26.943 1.8 52.255.58 78.78.49 26.88-.08 75.829-2.71 100.133 5.69-1.891 6.12-3.789 12.7-5.939 18.7-13.402-3.89-26.131-5.28-40.004-5.62-59.732-1.45-120.814 6.04-180.026-4.25-32.02-5.57-65.971-14.06-96.808-24.91 9.422-3.26 18.063-7.23 27.164-11.27"/><path fill="#FCCD05" d="M511.383 1158.67c59.335 67.71 101.654 65.11 184.046 76.29-2.948 6.18-7.663 16.13-11.855 21.32-60.659-3.51-143.531-17.46-180.275-72.46 2.069-7.68 5.533-17.4 8.084-25.15"/><path fill="#0c2d83" d="M571.414 1142.17c31.435-1.88 39.257 29.91 11.17 47.44.982 3.54 2.358 5.7 1.027 8.27-3.17-.32-4.067-.28-6.973-1.44-3.051-7.61-6.526-5.04-12.455-8.65-22.544-13.7-14.659-37.58 7.231-45.62"/><path fill="#FEFEFE" d="M572.839 1151.98c23-.4 15.613 24.2 8.016 25.92-1.249-3.2-1.899-4.96-3.921-7.71l-3.626.79c-1.941 1.91-1.619 3.97-2.087 7.2-14.748.54-10.461-19.1 1.618-26.2"/><path fill="#0c2d83" d="M877.267 1285.04c1.491-.04 6.681-.18 7.541.27 7.756 4.05 14.757 22.04 19.33 30.55 1.298-8.13 2.247-23.66 8.077-28.31 3.177-.72 3.341-.6 6.588.2 1.438 4.49-6.046 36.81-7.35 45.31-6.879.1-9.892.12-13.82-6.51-4.664-7.87-8.418-16.05-12.987-24.08-1.548 7.41-2.635 23.09-6.714 28.35-3.796.3-4.006.38-7.571-.74-2.189-3.86 5.607-36.45 6.906-45.04"/><path fill="#0c2d83" d="M771.5 1270.32c3.238.89 10.7 3.08 13.634 4.68 18.689 10.23 13.999 22.14-2.782 28.43.857 7.07 2.115 14.42 3.214 21.49-4.023-1.12-9.926-1.87-11.231-5.93l-3.657-20.07c-2.552 4.73-5.564 12.42-7.748 17.54l-9.96-4.03c6.229-13.81 12.927-28.1 18.53-42.11"/><path fill="#FEFEFE" d="M778.183 1281.49c3.455 1.69 5.442 2.13 7.127 5.38-.496 4.42-.504 3.21-3.579 7.32-4.182-.03-4.484.68-7.429-1.47-.517-3.76 2.058-7.57 3.881-11.23"/><path fill="#0c2d83" d="M832.876 1282.89c3.372-.01 5.368-.3 8.418 1.04 1.688 3.84 8.511 42.32 8.119 45.81-3.283 1.45-3.651 1.87-6.971 1.18-2.649-1.75-3.375-5.82-5.045-9.36-4.052-1.93-10.011-1.71-14.646-1.89-3.473.22-4.783 5.07-7.081 8.03-3.17.78-6.343 0-9.652-.46-.43-3.87 22.989-38.59 26.858-44.35"/><path fill="#FEFEFE" d="M833.314 1298.67c2.767 3.18 3.805 9.4.776 12.96l-4.814.14c-1.651-.47-1.102-.3-2.544-1.42.989-4.29 4.019-7.94 6.582-11.68"/><path fill="#0c2d83" d="m623.727 1158.56 9.957 2.26c-1.942 7.88-9.013 27.34-7.409 33.39 2.213 2.93 2.527 3.45 5.787 5.08 12.982-.39 13.203-31.1 18.427-35.36 3.971 0 4.643-.03 8.365 1.27.724 2.19-.425 5.36-1.029 7.79-2.286 8.83-5.346 27.55-13.277 32.51-11.846 7.42-32.116 2.45-29.419-15 1.724-11.15 5.252-21.12 8.598-31.94"/><path fill="#0c2d83" d="M1036.23 1305.49c2.71.96 5.08 2 7.72 3.14 3.59 6.36-12.5 25.64-9.56 34.22 1.63 4.76 6.94 5.45 11.08 3.94 5.39-4.6 12.11-23.76 15.58-31.83 3.81 1.79 6.37 2.19 8.33 5.36l-1.13 3.91c-2.8 7.58-8.38 28.69-18.26 32.43-13.31 5.03-30.52-6.1-26.17-21.52 2.52-8.95 8.12-20.25 12.41-29.65"/><path fill="#0c2d83" d="m949.881 1289.04 1.217-.09c6.095-.39 18.416.39 18.068 8.41-5.471 5.99-11.844-.85-17.938 2.3-1.698 9.66 25.807 17.92 10.851 30.48-4.084 3.43-7.043 4.81-12.064 6.45-6.924-.55-14.151-1.26-16.76-8.5 1.169-4.35 2.247-4.28 5.85-7.82.413.42.826.83 1.239 1.24l.609.57c3.384 3.07 9.476 5.75 12.849 1.6-.536-9.42-9.835-9.32-14.334-17.2-4.244-7.44 5.05-14.36 10.413-17.44"/><path fill="#0c2d83" d="m988.71 1293.07 30.91 5.91c-.75 3.34-1.03 6.47-3.18 8.96-3.17 1.43-6.62.03-10.26-.82-2.23 8.36-4.76 16.43-7.314 24.68-.774 3.4-1.063 6.69-3.313 9.14-3.268 1.38-6.528.04-10.203-.83 3.626-11.79 7.174-23.62 10.642-35.46-3.392-.55-5.586-.64-8.626-2.33-.942-3.3.337-5.45 1.344-9.25"/><path fill="#0c2d83" d="M1149.77 1350.11c10.53 2.37 20.37 4.13 31 5.98-.5 3.37-.52 5.82-2.39 8.62-3.99 1.43-5.55.31-10.27-.59l-6.27 26.65-2.38 9.49-10.34-2.73c2.76-11.61 6.03-23.55 9.03-35.14-3.54-.66-6.12-.8-9.07-2.8-1.34-2.8-.02-6.27.69-9.48"/><path fill="#0c2d83" d="M728.475 1246.38c7.076 2.97 26.428 13.11 23.91 22-5.424 2.24-7.817-.18-12.206-3.23-4.212 6.8-8.746 13.69-13.075 20.44-2.183 3.46-4.581 6.93-6.864 10.33l-8.351-6.16c6.65-10.64 12.344-19.55 19.703-29.68-2.873-1.72-4.686-2.5-6.703-5.15.074-4.14 1.232-4.66 3.586-8.55"/><path fill="#0c2d83" d="M1088.98 1327.46c2.21.65 7.23 2.89 9.58 3.86-4.29 11.3-9.03 22.84-13.5 34.11 3.86 1.53 9.26 3.05 11.62 6.07.95 3.33-.61 5.64-2.04 9.02-7.87-2.98-15.54-6.6-23.2-10.07 5.63-14.41 11.48-28.75 17.54-42.99"/><path fill="#0c2d83" d="M682.401 1164.62c3.557.48 6.333.5 9.35 2.35.282 6.22-7.304 37.33-9.113 45.27-3.377-.67-7.115-1.12-10.55-1.61 3.191-15.39 6.629-30.73 10.313-46.01"/><path fill="#0c2d83" d="m1126.81 1343.12 9.78 2.74a1408 1408 0 0 1-14.79 44.71l-10.38-3.64c5.28-14.48 10.11-29.23 15.39-43.81"/><path fill="#FEFEFE" d="M1405.68 1076.91c-4.19-6.54-10.28-18.67-12.34-26.2-1.3-4.72.14-10.31 2.93-14.32 15.75-22.65 50.7-38.07 77.14-44.107 15.49-3.538 44.09-6.44 57.88 2.621 7.05 4.63 8.02 14.876 9.6 22.786 2.33 8.82 4.62 18.22 7.48 26.85 24.81-5.58 53.79-20.65 78.36-28.69 37.31-12.2 81.23-20.545 120.52-14.34 25.03 3.96 43.32 8.29 69.37 10.8-7.46 5.9-14.26 11.7-21.46 17.9-14.46 13.42-28.02 25.67-45.01 35.93 14.13 7.18 48.35 24.07 59.78 32.59 12.26 7.77 18.77 12.97 29.27 23.02a774 774 0 0 0-119.27 7.52c-28.14 3.79-55.64 9.88-83.33 15.92-27.03 5.9-58.3 16.66-85.7 9.28-6.87-7.95-9.56-14.08-13.93-23.69-3.99-8.52-8.04-17.01-12.13-25.48-10.36 2.6-18.33 6.33-28.04 10.72 4.89 12.94 9.23 26.56 13.61 39.72-6.68 7.35-16.07 18.02-24.05 23.73-56.21 40.17-127.35 50.45-190.95 77.96-44.82 19.39-59.18 31.82-96.94 55.71-17.17-2.86-34.04-7.3-50.39-13.26-4.88-11.36-9.57-23.86-14.16-35.42-2.23-5.36-4.37-10.98-6.52-16.4 45.15-37.7 97.62-71.13 152.61-91.4 31.45-11.59 117.52-35.43 140-52.04-4.46-7.54-10.18-19.62-14.33-27.71"/><path fill="#FCCD05" d="M1405.68 1076.91c-4.19-6.54-10.28-18.67-12.34-26.2-1.3-4.72.14-10.31 2.93-14.32 15.75-22.65 50.7-38.07 77.14-44.107 15.49-3.538 44.09-6.44 57.88 2.621 7.05 4.63 8.02 14.876 9.6 22.786 2.33 8.82 4.62 18.22 7.48 26.85 24.81-5.58 53.79-20.65 78.36-28.69 37.31-12.2 81.23-20.545 120.52-14.34 25.03 3.96 43.32 8.29 69.37 10.8-7.46 5.9-14.26 11.7-21.46 17.9-34.82-3.75-60.6-11.11-97.45-5.4-20.56 2.78-40.36 8.41-60.21 14.26-36.98 10.86-73.06 31.99-111.5 36.05-12.84 1.35-29-33.06-27.22-44.02 1.32-8.19 13.03-14.49 19.67-18.4-.43-6.67-9.4-5.33-14.48-5.57-33.06-1.53-65.27 12.02-88.25 35.53-2.18 2.23-4.79 6.58-5.44 9.68l1.09 1.4c16.28 1.45 69.45-37.08 67.59 26.4-.68 23.03-42.81 42.03-60.71 50-54.47 24.43-113.3 36.22-167.58 61.42-27.74 12.9-54.15 29.45-79.06 47.14-8.52 5.97-29.58 21.49-37.69 25.76-2.23-5.36-4.37-10.98-6.52-16.4 45.15-37.7 97.62-71.13 152.61-91.4 31.45-11.59 117.52-35.43 140-52.04-4.46-7.54-10.18-19.62-14.33-27.71"/><path fill="#FEFEFE" d="m1405.68 1076.91 1.13.19c19.51 3.21 41.8-12.94 59.08-12.96.6 1.86.81 1.31-.2 3.23-10.27 19.55-30.23 26.32-45.68 37.25-4.46-7.54-10.18-19.62-14.33-27.71"/><path fill="#FEFEFE" d="M1540.89 1017.69c2.33 8.82 4.62 18.22 7.48 26.85-6.62 1.1-31.28 7.44-33.51-1 2.79-8.53 17.88-15.87 25.21-24.83z"/><path fill="#FCCD05" d="M1536.97 1130.78c11.09.17 23.83 4.29 36.15 2.75 24.92-3.11 50.4-10.95 75.22-16.63 51.8-11.86 108.42-19.39 161.59-18.17 12.26 7.77 18.77 12.97 29.27 23.02a774 774 0 0 0-119.27 7.52c-28.14 3.79-55.64 9.88-83.33 15.92-27.03 5.9-58.3 16.66-85.7 9.28-6.87-7.95-9.56-14.08-13.93-23.69"/><path fill="#FCCD05" d="M1516.99 1086.22c3.32 5.92 5.53 12.68 7.85 19.08-10.36 2.6-18.33 6.33-28.04 10.72-3.61-6.41-5.21-11.05-7.11-18.06 8.26-5.06 18.19-8.46 27.3-11.74"/><path fill="#0c2d83" d="m1396.38 1154.09 1.72.91c3.37 6.59 15.18 35.09 15.65 42.09l-2.33 1.85c-9.67 2.39-26.34-11.73-36.82-17.8 2.44 6.76 10.67 21.95 8.19 28.06l-4.89 2.04-2.16-.3c-2.28-2.6-15.54-35.33-14.98-40.63.37-3.56.54-3.15 2.81-5.1 8.32-1.27 27.52 14.27 35.51 19.89-3.1-8.87-9.77-19.65-9.17-27.63 2.11-2.7 2.48-2.07 6.47-3.38"/><path fill="#0c2d83" d="M1239.99 1216.88c3.63 2.21 11.35 20.6 14.34 25.42 9.21 14.89-7.84 31.6-23.02 27.14-9.42-2.76-16.33-20.64-20.48-28.98-1.38-2.5-1.55-2.53-2.04-5.46 1.38-2.89 5.27-4.21 8.34-5.72 5.08 8.4 11.07 26.87 18.5 30.35 22.1 1.71.08-30.17-4.31-37.93z"/><path fill="#0c2d83" d="M1435.92 1137.08c1.97 1.95 3.29 6.02 4.41 8.74-4.99 1.95-10.45 4.43-15.42 6.57l3.98 8.55 15.29-6.98 3.01 9.16c-4.74 1.86-12.26 3.42-13.9 7.94.52 3.44.59 3.53 2.71 6.22 2.44.29 10.93-4.31 13.91-5.68l1.7.71c1.11 2.57 2.16 5.39 3.2 8-8.19 3.6-16.51 7.43-24.91 10.45-6.15-14.25-12.12-28.58-17.91-42.98z"/><path fill="#0c2d83" d="m1189.48 1245.11 5.96.22 1.07 1.3c-.61 3.6-.45 4.99-2.8 7.54-4.88.71-6.93.93-9.72 5.1l.9 1.9c8.51 4.46 24.19-.18 27.68 10.47 4.08 12.47-5.98 19.33-16.24 22.55-4.02-.19-4.67-.32-8.48-1.63-1.21-4.18-1.54-3.08-.49-6.67 2.23-2.11 2.85-1.98 6.03-2.55l5.73-1.06c2.67-3.22 2.24-1.83 2.71-5.62-5.99-8.28-23.81 3.06-27.22-9.98-3.3-12.58 4.02-18.57 14.87-21.57"/><path fill="#0c2d83" d="M1272.04 1200.2c3.84-.31 4.8-.44 8.57.04 2.75 2.14 2.03.81 2.63 3.88-3.6 8.17-13.87 4.35-13.95 10.98 7.62 4.75 23.92 1.88 27.56 12.64 3.81 11.29-4.99 18.01-14.1 21.21-5.24 0-12.49.18-13.07-6.73 3.25-7.43 9-2.12 14.48-5.12 2.35-3.18 2.41-2.21 2.24-5.3-5.5-4.62-21.62-.91-25.54-10.33-4.46-10.72 2.41-16.97 11.18-21.27"/><path fill="#0c2d83" d="M1321.68 1181.09c2.34 1.87 3.32 5.77 4.41 8.75l-10.13 3.92c3.5 9.34 13.37 26.74 10.56 35-3.29 2.6-1.8 1.81-6.5 2.52-2.1-1.51-2.39-3.72-3.48-6.52l-10.46-27.2c-3.11 1.37-5.69 2.92-8.97 2.76-3.06-2.58-2.83-4.11-4.35-8.33 9.55-3.88 19.19-7.51 28.92-10.9"/><path fill="#0c2d83" d="M1474.72 1114.87c2.94 1.82 4.26 5.47 5.93 8.74l-9.11 4.74c5.4 11.07 10.68 22.2 15.83 33.38l-9.34 5.02-3.38-7-12.3-26.01-10.17 4.73-3.61-8.91c8.78-4.78 17.5-9.68 26.15-14.69"/><path fill="#0c2d83" d="m1343.16 1173.04.68.32c2.84 3.75 14.67 36.52 16.18 42.42-1.51 2.13-4.95 3.04-7.52 4.07l-1.66-.61c-3.55-5.68-13.84-35.04-15.05-42.24 1.55-1.98 4.73-2.83 7.37-3.96"/><path fill="#177F24" d="M1145.51 238.164c13.61-1.921 32.05 2.631 40.08 15.323 1.38 2.177.36 3.885-.52 5.888-5.66 4.68-11.01 3.252-18.5 2.826-11.44 1.312-30.21 7.611-39.27-1.847-4.44-10.942 10.18-18.72 18.21-22.19"/><path fill="#177F24" d="M898.235 238.304c10.06-1.313 25.893.462 31.438 8.923 12.972 19.789-11.002 18.047-20.608 16.743-10.093-1.333-28.573.773-34.842-5.619-2.277-9.807 16.417-17.906 24.012-20.047"/>
    </g>
  </g>
</svg>