<svg xmlns="http://www.w3.org/2000/svg" width="512" height="512" viewBox="0 0 512 512"><defs><clipPath id="b"><circle cx="256" cy="256" r="256"/></clipPath></defs><g clip-path="url(#b)"><path fill="#669ca4" d="M-128 0h768v512h-768z"/><path fill="#fff" d="M80.64 460.608c0-2.829-.525-3.354-2.266-3.354h-.781v-1.382c1.357 0 2.995.09 6.221.091.69 0 3.61-.09 5.504-.097.475 0 12.122 4.774 12.122 10.637 5.632-3.955 10.534-11.11 10.534-1.702 0-3.84-.077-6.515-.077-3.226"/><path fill="#c7a97f" d="M529.92 256256 83.904-17.92"/><path fill="#c7a97f" stroke="#000" stroke-linecap="round" stroke-linejoin="round" stroke-width=".934" d="M361.562 322.207s-4.07-2.22-6.835-3.999-3.034-6.029-2.483-8.422.973-10.317 1.28-13.478c.038-1.742.34-3.469.896-5.12a6.08 6.08 0 0 0-.614-5.056l-13.581-.87s-.525 1.267-1.203 2.778 4.8.346 7.45-.105"/><path fill="#e6c737" d="M140.108 302.131c-10.785.337-6.308 15.854-.945 18.637 0-7.236 4.736-7.795 7.462-.174 1.487-.402 2.918-.045 4.26.498 1.874 1.865 3.579 3.754 5.037.099 1.368 4.239 1.39 6.533.381.664-.243 1.678-1.772 2.747-2.883.512-1.882-.195-3.808-1.505-5.252.032-.23.064-1.587.385-1.437.762"/><path fill="#5a4143" d="M342.579 317.248s3.238-9.715 4.826-12.877.973-1.485 2.496-1.357.486-1.165.486-1.165a13.7 13.7 0 0 0-2.56-2.253s-1.523-1.843-3.328.333a17.4 17.4 0 0 1-3.84 3.571c-1.382 1.088-1.382.678-1.382.678l-7.872 14.362-1.523 3.149-.884 1.772.765.065.51-4.024c1.915-1.012 2.898-1.996 5.064-1.965"/><path d="M337.66 159.776h13.17l.003 11.066-1.037 1.422-3.327 2.51-7.853-.617z"/><path fill="#ffe2d1" stroke="#000" stroke-linecap="round" stroke-linejoin="round" stroke-width=".934" d="m460.723 179.725.307-3.354a5.1 5.1 0 0 1-2.906-.41c-.62-.398-.41-.819-.128-1.779l.008-1.961.83-.173-1.83.173c-.236-.8-.486-2.404-.532-3.237"/><path fill="#344b51" stroke="#000" stroke-width=".934" d="M348.314 154.739c2.893-.806 4.966-3.072 8.96-2.048s8.717 6.784 3.725 6.784-10.355-.205-10.355-.205l-10.931-.973z"/><path fill="#ffe2d1" d="M375.334 242.125s1.856 2.253 1.178 4.454-.973 3.2-2.138 4.429c0 0-.219 1.16-1.32 1.505s-1.413-.119-2.701-.634c-2.655-1.059-3.148-3.675-3.148-3.675l-.136-1.254-1.754-1.608-2.117-3.167s1.459-3.686 3.251-3.84a9.06 9.06 0 0 1 6.912 1.28l-.832 1.78.6 2.661.165-1.907"/><path fill="#344b51" d="m500.57 241.575.016-10.241.28 1.28-5.811 11.699a6 6 0 0 0-1.446-2.662"/><path fill="#586538" stroke="#000" stroke-linecap="round" stroke-linejoin="round" stroke-width=".934" d="M363.351 245.683s-1.981-3.098-4.273-7.821a54 54 0 0 0-4.352-7.59l-1.024 8.179c2.278 6.976 8.09 18.074 6.016 19.302a17.4 17.4 0 0 1-5.402 1.651s.755 1.485 1.869 10.522c.09.678 0 2.803 0 2.803s-1.485 11.597-2.419 13.35-10.816 4.902-13.542-.819c0 0 1.037-1.434.205-6.17a86 86 0 0 0-3.942-12.506.72 30.72 0 0 1-1.869 815.923"/><path stroke="#000" stroke-linecap="round" stroke-linejoin="round" stroke-width=".64" d="M316.16 234.44s2.226-5.382 2.563-6.294c.654-1.773 1.578-4.488 1.348-5.117-.579-1.582-.082-2.326-.724-3.114-.431.323-1.884.376-2.655.905-.724.497-1.446 1.581-1.691 2.021-.699 1.257-.927 2.807-.8 4.239.099 1.123.899 2.074 1.199 3.16.384 1.384.76 4.241.76 4.241"/><path fill="#ffe2d1" d="M315.09 226.766c.026-2.083.931-5.898 2.975-5.496.159.623 1.032 9.605 1.032 9.605-.298 1.71-1.103.764-1.636.545-1.612-.66-2.394-2.913-2.371-4.654"/><path d="M332.736 163.24c-.649.065-1.066.605-.941.873.147.316 1.394.333 1.792-.288.269-.419-.471-.622-.85-.585zm1.124-.845c-.333.017-2.258.169-2.458.317-.2.15-.256.287-.022.47.333.078 2.596-.143 2.806-.279.014-.333.297-.538-.326-.508"/><path fill="none" stroke="#000" stroke-linecap="round" stroke-linejoin="round" stroke-width=".934" d="M347.827 299.597a13.7 13.7 0 0 1 2.56 2.253s1.024 1.28-.486 1.165-.909-1.779-2.496 1.357-4.97 13.201-4.97 13.201m5.393-17.975s-1.523-1.843-3.328.333a17.4 17.4 0 0 1-3.84 3.571c-1.382 1.088-1.382.678-1.382.678l-10.648 19.328"/><path fill="#344b51" stroke="#000" stroke-linecap="round" stroke-linejoin="round" stroke-width=".934" d="M368.198 250.829c-2.684 3.441-19.821 37.325-19.821 37.325a41 41 0 0 1-1.933 3.981c-.973 1.638-1.075.742-1.946 2.458s.282 2.47-1.792 2.739-2.074 2.33-1.101 2.88c.536.246.938.713 1.101 1.28a9.2 9.2 0 0 0 2.765-2.458c1.382-1.779 2.074.128 2.074.128l6.4-13.542.745-33.162-1.371-.82z"/><path fill="#c2c9cd" stroke="#000" stroke-linecap="round" stroke-linejoin="round" stroke-width=".64" d="M349.32 296.92a6 6 0 0 0-.797.051c-.179.303-.17.308-.005.422.302 1.638 2.895-.397 2.895-.397s-1.165-.09-2.093-.077"/><path fill="#334b4e" d="m502.129 244.255.699-11.712-1.28-1.28-6.016 10.24" color="#000"/><path d="M378.508 230.94a.32.32 0 0 0-.236.155l-6.016 10.24a.32.32 0 0 0 .549.325l5.807-9.882.828.824-5.6 11.507a.32.32 0 0 0 .147.428c.159.077-.046.662.031.503l6.097-12.364a.32.32 0 0 0-.06-.367l-1.28-1.28a.32.32 0 0 0-.269-.09z" color="#000"/><g fill="none" stroke="#000" stroke-linecap="round" stroke-linejoin="round" stroke-width=".3"><path d="M375.334 242.125s1.856 2.253 1.178 4.454-.973 3.2-2.138 4.429c0 0-.361.909-1.311 1.605-1.35.581-4.855-1.894-5.024-2.318 0-.689-1.354-.833-2.09-.072"/><path d="M375.237 241.894c-.02.118-1.281 2.474-1.297 2.601-.11.919-.109 2.052-.129 2.916M373.554 248.328s-1.828.115-2.326-.243c-.714-.512-2.115-2.811-2.24-2.985"/><path d="M375.073 249.59s-3.222.256-4.548-.499c-1.073-.611-2.071-2.561-2.227-2.957"/></g><path fill="#c7a97f" stroke="#000" stroke-linecap="round" stroke-linejoin="round" stroke-width=".934" d="M311.616 255.232a33.3 33.3 0 0 0 8.282 2.65c3.533.422 7.987.934 8.512.832q.303-.072.614-.102s.525-3.187.934-6.41.664-10.24 2.483-13.658.803-9.843 2.803-9.843l2.381.294a57 57 0 0 1 1.766 10.163c.819 7.398 1.344 13.952 1.754 16.832s.102 4.314 1.664 4.02.77-1.28 10.778-1.96.541-1.74 6.541-1.74.243-.18-.077 1.114-5.734 2.074-5.734 2.074-7.77 1.523-9.843 1.83-4.25 1.434-4.762-3.482-2.189-21.03-2.394-23.296a24 24 0 0 0-.934-4.519.52 91.52 0 0 0-3.52 15.194c-1.344 9.024-2.483 14.464-2.483 14.464s-.832 1.126-3.725.512-14.886.102-15.04-4.979m50.176-65.587c-.525.643-5.71 6.351-7.475 8.819a6.3 6.3 0 0 1-5.389 2.368l-1.344-.307-9.229-11.302h-1.715c-.922.102-1.28.41-3.098 2.765s-7.987 5.44-7.987 5.44l-3.418.934s-2.803-5.12-4.979-9.242-3.533-4.403-3.533-4.403l-.22-.12s-3.443-2.54-.1-3.22c.147.97.504 1.789 1.28 2.304.28 1.024 2.291 2.458 4.25 5.85l3.942 6.771.176-.627s4.774-1.83 6.643-4.096.213-3.584 4.966-3.904l1.766-.705.638 11.994.562.102s.512 1.434 4.25-2.752.672-5.658 5.798-6.9.074-2.444 2.074-2.445.902.842.141 2.675"/><path fill="#c7a97f" stroke="#000" stroke-linecap="round" stroke-linejoin="round" stroke-width=".934" d="M337.83 218.227c.102-.41 1.037-10.931.934-15.859s-.563-17.815-.563-17.815l-.735.509-.776-.481v1.825c0 1.28.102 5.632.422 11.072s-.934 20.685-.934 20.685m2.624 1.549c7.155-7.283 13.594-18.368 14.72-36.749l-1.357-.717c-1.664 21.043-6.835 28.224-13.773 36.25m-.934 2.445-.102 3.379s-.41 1.28-1.28.627-1.92-1.434-1.28-2.061.803-2.33 2.803-2.33l-.691-1.178-3.917 2.483-2.701 5.338a92 92 0 0 0 10.79 1.856l-.832-3.29-1.664-1.216.307-1.958"/><path fill="#c7a97f" stroke="#000" stroke-linecap="round" stroke-linejoin="round" stroke-width=".934" d="M324.39 181.197a131 131 0 0 0 2.278 14.81c1.357 5.222 6.95 18.47 8.717 20.838a34.3 34.3 0 0 1 4.045 6.963c.512 1.434 1.446 4.314 1.856 5.85s2.381 7.501 3.11 9.652.4-.09 9.843-.718.882-.819 1.971-2.88a11 11 0 0 0-.512-3.84c.614-.717.512-1.434-.205-3.84a27 27 0 0 0-1.971-6.067l-11.52 2.163s-6.938-10.367-8.704-14.17-5.798-15.193-6.643-21.657-.819-7.206-.819-7.206z"/><path fill="none" stroke="#000" stroke-linecap="round" stroke-linejoin="round" stroke-width=".934" d="M354.26 231.782s-5.798.691-7.322.96-2.765 1.779-3.597-.538-1.777-6.113-2.89-8.443m10.634-1.682c.973-1.51 3.046-5.21 3.174-8.064s0-8.499.691-10.688c.499-1.792.868-3.62 1.101-5.466m-39.949 7.795a25.3 25.3 0 0 1-1.382-8.755m21.709 70.323s.691-6.848.832-11.354m-7.79-86.886.364.026m2.138 7.362.79-.218m10.483-1.293s3.919-2.373 4.518-3.908"/><path fill="#5a4143" stroke="#000" stroke-linecap="round" stroke-linejoin="round" stroke-width=".934" d="M330.688 160.627c-4.979-.538-6.221-.678-8.166-2.458s-.832-4.915 2.214-5.197l7.194-.691s0-1.28 2.342-.96a66.6 66.6 0 0 1 10.509 1.792c1.85.591 3.25.854 5.174 1.114l-10.294 4.122a54 54 0 0 0 6.4.41c4.698.154 5.389-.806 8.96 1.28s9.254 7.68 4.288 9.574-6.643 2.048-7.744 2.048-.691-2.317-.55-4.365a6.4 6.4 0 0 0-6.221-6.848c-5.389-.55-7.322-1.088-9.395-.55a36 36 0 0 1-4.71.73"/><path fill="#5a4143" stroke="#000" stroke-width=".934" d="M184.883 161.715c12.988-3.145 13.422-8.826-.23-7.296a8.96 8.96 0 0 1-2.816-4.326c-.41-1.638-.55-2.176-4.147-1.779s-14.771 3.84-16.576 4.941-1.101 1.485-.973 2.56a31 31 0 0 1 .96 3.635c-.657.212-8.34 2.957-7.052 6.404.916 2.47 7.223 1.39 9.395.691"/><path fill="#863f3f" stroke="#000" stroke-linecap="round" stroke-linejoin="round" stroke-width=".934" d="M186.304 324.16s-2.56-1.28-1.971-3.418.832-3.29.832-3.29l11.597-.283.96 3.571m-53.594 1.484-2.906-1.765c-.182-1.056-1.244-1.005-.865-1.343.207-.186 1.07-.627 2.248-1.115.315-1.37 3.84-1.638 6.08-2.74a23.6 23.6 0 0 0 4.147-2.738l14.387 3.292.188 5.917"/><path fill="#f1dfd8" d="M170.829 178.06c2.202 2.739 3.469 4.646 5.76 4.646s3.767-8.297 3.767-8.297.535.69 5.359-1.175c-.064-1.664.109-5.533.049-6.618.416-.045 1.69-.051.602-1.587-.873-1.226-1.24-2.732-1.521-4.211-.205-1.216-1.664-4.403-4.25-4.096s-6.323 4.3-5.286 6.669.611 1.997.611 1.997l-1.507 2.509s-3.603-3.264-3.078.128.514 3.61 1.514 3.61c-1.155.442-1.635.746-2.685 1.395-1.811 1.99.653 5.03.653 5.03m28.454 58.176-6.144-8.691-.21 4.352c.357 1.114.867 2.467 1.907 2.843.439.847 2.145 1.645 3.332 2.82l.832-1.28"/><path d="M182.555 162.733a1 1 0 0 0-.115.008c-.705.084-1.135.669-.947 1.005a51 51 0 0 0 2.004-.275c.407-.371-.351-.751-.942-.737m1.288-1.501s-1.578.252-2.424.47c-.484.143-.428-.099-.388.774l2.985-.489z"/><path fill="#e6c737" stroke="#e6c737" stroke-width="1.283" d="m323.835 272.635-.32 1.455"/><path fill="#9b9379" stroke="#000" stroke-linecap="round" stroke-linejoin="round" stroke-width=".934" d="M159.418 245.96c.192-4.019.753-15.667 1.366-17.185.192-.148 6.953-.7 10.007-1.639.584-1.37 5.321-1.49 5.321-1.49s.477.402 5.725.671c3.434.137 9.613-.567 12.979-1.247l-1.357 3.436s-1.651 4.646.832 6.016a15.2 15.2 0 0 1 3.84 3.021s1.92 2.19 1.088 10.944a88 88 0 0 1-1.37 10.394c-.832 5.747-.282 5.747-1.382 10.138s-2.214 5.184-.55 13.403.034 9.306 3.034 16.96.832 13.146-.269 15.603-2.253 2.38-2.253 2.38c-3.84 1.652-11.29.09-11.29.09a4.06 4.06 0 0 1-2.214-4.108c.282-3.008 1.933-5.197 0-11.52s-2.214-7.936-1.933-12.8-.282-5.734-1.664-10.112-1.101-11.226-1.664-13.427c-.293-1.242-.521-7.066-1.137-8.184"/><path fill="#b12f39" stroke="#000" stroke-linecap="round" stroke-linejoin="round" stroke-width=".934" d="M195.661 224.813c-3.369.681-10.403 1.641-13.837 1.504-5.248-.269-5.811-.106-5.811-.106s-1.541.182-5.235.925a38.4 38.4 0 0 1-9.101 1.715c-2.802-.403-2.399-4.906-2.949-8.196"/><path fill="none" stroke="#000" stroke-width=".934" d="M176.038 182.797s1.933 1.37.832 10.394-.55 12.058-.55 18.906-.403 13.94-.403 13.94"/><path fill="none" stroke="#000" stroke-linecap="round" stroke-linejoin="round" stroke-width=".768" d="M140.819 193.869s-.998 1.464.087 3.1c1.194 1.801 1.916 3.089 3.264 3.323.574.274.387-.96 2.774-3.736"/><path stroke="#000" stroke-width=".64" d="M180.557 156.877c-1.498.306-9.508 1.971-12.557 3.507-3.379 1.702-5.696 4.659-4.352 6.566a57 57 0 0 1 4.877 7.386c.402.988.483 1.05 1.01 1.979.192-.041 0 0 .652-.733"/><path fill="none" stroke="#000" stroke-linecap="round" stroke-linejoin="round" stroke-width=".934" d="M180.544 174.505c1.766.179 5.005.424 5.082-1.348-.152-.605-.154-1.398.072-2.907-1.903.045-2.543.308-1.943.105.9-.064.868-.116 1.947-.159.055-.627-.225-1.949-.202-2.876.005-.189.006-.128.006-.287 0 1.018-.262 1.198-.813.088-.266-.136-.75-.401-1.126-.876-1.221-1.216-2.644-1.496-4.122-.205"/><path fill="none" stroke="#000" stroke-width=".64" d="M160.358 179.789a17.3 17.3 0 0 1 3.84 3.558c1.382 1.907 2.18 3.089 4.416 6.285.765 3.951 3.866 4.275 5.798.832a16.9 16.9 0 0 0 2.765-4.109c.563 2.112 2.591 3.66 3.84 5.478.893 1.3 2.957 2.41 4.416-.563.901-3.882 3.315-9.843 4.979-12.288"/><path fill="#c2c9cd" stroke="#000" stroke-linecap="round" stroke-linejoin="round" stroke-width=".64" d="M149.091 164.736a5.696 5.696 0 0 0-5.681 3.866l-.932.141c-4.063-4.6-11.52-.369-9.652 5.478l1.178 6.503.92-1.741.867-.5.96-1.587-1.28-7.091a5.696 5.696 0 0 0-5.38-5.07"/><path fill="#5a4143" stroke="#000" stroke-linecap="round" stroke-linejoin="round" stroke-width=".64" d="m271.411 168.602-.934.141.562 10.327.765 139.754.469 1.92-28.484-141.926z"/><path fill="#f1dfd8" stroke="#000" stroke-linecap="round" stroke-linejoin="round" stroke-width=".934" d="M147.072 195.498c-.678 1.403-2.412 3.558-2.963 4.613-.006.013-1.091-.57-2.214-2.739-.991-1.911-1.504-1.98-.672-3.631.457-1.343.507-1.379.728-3.145-.147-2.135.544-5.338 1.747-6.784s1.175-1.289 2.478-1.757c1.094-.394 1.585-.333 3.423.265.267 1.08 3.639 1.958 2.418 3.158.965 1.196.637 2.623-.545 2.936.627 1.15-.054 2.46-.934 2.765.164.586-.812 2.056-1.42 1.761-1.437-.689-1.755 1.958-2.045 2.56z"/><path fill="#fff" d="m466.39 333.756.5-1.368c5.144.477 10.487.16 15.918-.512-1.101.916 1.133 12.362 3.451 13.408.573 2.381.571 5.58-1.496 8.99-.73-.244.045.73-1.075-1.255s-6.065-5.91-10.113-7.894c-1.92 2.81-7.002 5.823-11.991 11.06-2.982-4.763.242-10.204 2.701-14.913.243-3.697.106-7.516.106-7.516m-306.139-2.158c.724 1.097.922 3.249.959 4.562-.274.826-.855 1.545-1.555 2.061-7.718.166-3.685 9.939-10.725 11.219l1.92 1.413c3.146.595 5.011.308 7.418-.844.84-2.452 8.87-6.346 9.453-6.57.922.935 1.83 2.717 3.11 2.874.072 1.485 2.572 4.695 3.647 7.255.242-2.163 3.16-1.993 4.658-4.131.41-2.47-1.143-7.914-2.292-10.953-.196-.838-.557-2.825-.42-3.676z"/><path fill="#b12f39" d="M157.574 331.592c.73 1.098 1.466 3.059 1.311 4.369-.101.854-.684 1.823-1.54 1.892-7.695.618-4.66 10.552-10.415 11.588.173 6.382 16.303-2.999 18.765-4.762.992 2.675 5.277 4.808 6.465 10.112.254-2.163 3.896-2.88 5.235-5.12.661-2.784-1.908-9.755-2.408-11.15a5.63 5.63 0 0 1 0-2.88l-1.002-.497c.23 1.024.096 2.605.294 3.827.47 2.895 2.413 5.623 2.531 8.428.11 2.646-4.073 5.398-4.073 5.398s.086-3.78-4.092-7.57c-2.034-1.444-2.399-4.25-2.898-4.173-.321.91-.98 1.706-1.664 2.395-1.501 1.513-3.425 2.542-5.222 3.686-1.585 1.006-3.136 2.368-4.89 2.79-1.755.426-3.697.605-5.194-.227.516-.225 3.333-6.551 5.793-9.221.489-1.615 4.116-.462 5.277-3.948.404-1.216-.225-3.588-1.037-4.691z"/><path d="M140.398 300.913c-1.638.097-3.452.412-4.689 1.49-1.948 1.7-3.42 4.422-3.332 7.008.154 4.506 2.156 8.818 6.625 11.794a.32.32 0 0 0 .352-.532c-4.224-2.812-5.988-8.251-5.581-12.928.152-1.729 1.377-3.455 2.863-4.355.305-1.395 5.555-1.83 8.045-.82.344.972 4.672 3.356 4.823 5.888.122 2.049-1.573 4.104-3.313 5.193-.392.244-2.529 0-3.142.129-.637.123 2.659 4.62 4.997 5.613a.32.32 0 0 0 .42-.17.32.32 0 0 0-.17-.42c-2.015-.855-3.584-2.442-4.575-4.383.333 0 2.296.104 2.796-.218.026-1.306 3.877-3.702 3.866-6.112-.013-2.394-1.915-4.694-3.901-6.033-1.711-1.155-4.023-1.288-6.084-1.165m11.576 20.989a.32.32 0 0 0-.064.589c.421.23 1.06.45 1.77.682.709.23 1.482.463 2.112.682.727.25 1.467.383 2.022.687.974.863 2.217 2.12 3.68 3.194.599 3.359 10.442 6.758 10.442 6.758a.32.32 0 0 0 .438-.118.32.32 0 0 0-.115-.438s-5.83-3.392-10.387-6.72c-1.423-1.041-2.666-2.298-3.675-3.187a.4.4 0 0 0-.055-.041c-.694-.385-1.481-.51-2.14-.737-.649-.224-1.421-.457-2.122-.685s-1.336-.457-1.66-.635a.32.32 0 0 0-.244-.028z" color="#000"/><path fill="#e6c737" d="M258.175 330.243c1.554-1.025 3.994-1.804 5.852-1.91-.803 2.365-1.311 5.242-.063 7.552.742.742 1.242-1.012 2.112-.948.112-.14 1.667.782 2.129 1.805-.375 1.185-1.558 3.456-3.752 3.532-2.01-.03-3.811-.712-5.244-2.121-1.485 0-1.914 2.29-3.322 2.47-.824-1.002-2.237-2.232-3.43-2.743-1.984.73-5.194 5.43-8.448 1.476-.842-2.697 1.007-4.17 1.967-3.684.582.114.942.698 1.275 1.107.075-1.277 1.743-3.24 1.48-4.89-.09-1.971-1.924-1.509-2.12-3.622.001-.122 4.659.845 6.458 1.732.324-.65.236-1.887.294-2.61.982-1.235.942-2.268 2.531-2.527.226.89 1.274 1.523 1.752 2.912"/><path fill="#b12f39" d="m485.76 331.866-1.592.42c.166 3.84-.614 7.204 2.002 11.242.562 2.41 2.899 6.691.293 9.962-1.005-3.782-8.215-6.376-11.011-9.568-3.005 5.125-9.006 7.671-11.592 11.288-.886-2.115-1.837-6.227 1.661-10.956.581-2.135 2.705-6.203 1.238-10.639 0-.431.178-1.467.952.452 1.603 1.284 5.924.141 7.693-2.862 4.42-4.89 9.93-1.907 14.693.527-5.624 8.093-7.251 12.064-11.132.961 2.429 8.099 4.403 9.837 7.712.387.85.63 1.326 1.075 2.051.16-6 1.859-11.854.486-13.608-1.549"/><path d="M157.485 331.681c-4.813-.986-8.813-2.222-13.69-2.952-.323-.15-1.155.264-.499.986s1.792 3.456 1.28 5.338c-.589 1.28-1.358 2.641-2.598 3.277-1.696.87-3.843.576-5.714.274-1.523-.244-4.73-3.579-2.952-2.525.134.159.288-.044.433.105.185 1.216 2.36 1.775 3.738 1.754.001-.03 4.347-.987 5.353-2.717.847-1.458.94-3.226-.243-5.052-.573-.886-1.021-1.216-1.741-1.306-1.298-.163-2.867.444-3.622 1.507-1.263-2.397 8.234-3.439 11.187-2.867-.303-.96-4.288-1.279-5.632-1.318a16 16 0 0 0-4.646 1.28c.166-1.485 5.476-3.062 8.627-2.048.454.16 9.856 3.302 14.909 4.494.044.247 2.104.294 3.172.545-.344.65-2.222.538-2.222.539.408.896 5.686 1.322 6.607 2.385-2.662.166-11.747-1.695-11.747-1.695m-9.088-11.084c1.766 1.414 6.007 2.93 5.253 2.29-1.146-.493-4.33-4.009-5.393-3.942-1.132-.483-4.157-2.59-5.14-4.847a10.9 10.9 0 0 1 3.238-.153c2.394-.82 3.392-3.443 3.469-5.504-.083-.282-.169-.422-.294-.832s-2.737-.571-3.848.07c-1.114.644-2.399 2.998-1.989 3.309.963-.34 1.874-2.267 3.206-2.454.589-.082 1.603.064 1.661.655.177 1.8-2.771 3.2-4.561 2.938-.89-.131-1.222-1.324-1.754-2.048-.463-.633-1.357-2.379-1.818-1.755-.383.518-.288 2.312.832 4.592.119 2.278 5.368 6.267 7.135 7.68zm-3.539-1.071c-2.947-1.293-6.586-7.857-5.235-8.704.28 2.664 5.283 7.728 5.235 8.703m201.964 14.063c7.684-.184 22.464-4.26 25.518-4.617-.986 1.805-1.984 3.84-1.139 5.914a6.4 6.4 0 0 0 4.058 3.29c2.65.333 6.042-.495 7.872-2.566.543-7.374-.645-13.91-5.645-14.86a8.2 8.2 0 0 1-2.56-1.062c1.818-1.894 3.994-3.962 4.346-6.561.462-3.405-.351-7.877-3.199-9.802-3.354-2.268-9.165-1.967-12.118.8-1.5 1.407-1.856 4.349-.805 6.117.322 2.225 3.818 4.27 7.245 2.79-.166.742-3.834 5.664-8.166 8.282-3.776 2.28-5.756 2.022-8.417 2.143l-5.106 2.624c3.99.282 10.755-1.732 15.366-4.402.193-1.27 3.854-3.328 5.453-5.294.94-1.156 2.139-2.308 2.394-3.776.278-1.604.614-4.122-1.075-4.762-.634-.239.079 1.912-.819 2.944-.8.918-2.24.59-2.24.59.13-.836 2.167-2.22 1.907-3.534-.077-.384-.434-1.076-.909-.742-.776.545.127 1.385-.256 1.894-.806 1.075-1.705 2.212-3.686 1.638-.713-.206-1.242-1.078-1.286-1.818-.115-1.892 1.009-4.142 2.694-5.005.739-1.402 6.662-.602 9.155 1.206.277.927 1.798 2.714 2.045 4.273.293 1.85-.077 3.818-.742 5.568-.317.832-1.498 2.214-1.498 2.214.174-.602 1.156-3.292 1.165-5.005.008-1.709.009-3.072-1.114-5.005-.113-.192-.576.097-.589.32-.155 2.675.407 9.983-3.891 13.564.838.343 3.342-.114 4.813.555.229 1.466 7.104 3.095 7.872 7.155.618 3.264-1.286 6.254-4.736 7.539-1.644.612-3.967.495-5.21-.742-1.222-1.216-1.516-3.571-.755-5.12.447-.91 1.815-1.683 2.65-1.485.799.19 2.097 2.13 1.83 4.198-.07.55.732-.931.755-1.485.046-1.124-.32-2.538-1.28-3.123-4.914-2.991-13.798.712-17.19 1.522-13.03 3.113-14.674 3.222-33.587-.174l-.812.53s8.084 3.592 21.693 3.264"/><path fill="none" stroke="#000" stroke-linecap="round" stroke-linejoin="round" stroke-width=".64" d="m302.024 334.643-30.716-6.221"/><path fill="#e6c737" d="M198.171 302.042c4.829 1.638 8.66 1.868 9.326 7.338.368-1.62 5.396-4.662 10.538-3.782-2.028 1.587-1.846 9.325-4.854 13.268.322-.367 11.054.032 12.502-31.664-2.803 1.563-5.627 4.356-7.523.794 1.216.772 2.25 2.052 3.07.83.485 1.17 4.02 2.335 3.776.395.797 2.452-1.225 3.584-2.369.653.41 1.873 2.042 1.297 3.322-.65 1.66-3.457 4.45-2.47 5.238.8-2.729 6.001.006 11.635.52-.096 2.02-1.32 3.141-3.233 3.795-2.17.856-4.519 1.425-6.849 1.551.831 1.728.421 3.942-.078 5.824-1.019 2.013-1.52 4.234-1.876 6.463-.653.077-1.027-.795-1.027-.795-1.513-1.024-2.226-3.578-2.099-5.399-.909 1.408-2.442 3.718-4.17 4.282-2.122.303-3.552-.2-4.783-1.955-.333-1.242 1.404-.431 2.057-1.098.741-2.432 1.062-5.565-.435-7.793-.42-.974-2.647-2.012-3.706-2.092.074 2.138 1.55 6.001.474 8.138-.589.576-1.764-.279-2.097-.279-.589.5-.709 1.225-1.54 1.302-.659.08-.762-.193-1.33-.538.892-3.36-3.084-9.057-6.044-7.607.74 1.121 1.961 2.94 1.43 4.608-1.33 2.304-2.753 4.246-5.735 3.747-.244-.973-.25-2.323-1.249-3.219-3.622"/><path d="M304.589 306.688c-.129.522-.225 1.055-.41 1.562-.998-1.894-3.558-2.534-5.722-3.034-1.574-.166-3.648-.499-5.056.243.794 1.485 1.907 2.714 2.074 4.275.499 2.944.666 6.08 2.406 8.448-2.044.122-8.745.556-11.034-2.368-2.011-2.565-1.818-7.002-5.056-8.384-.794 1.216-.794 3.021-2.074 3.84-1.83.486-1.219 3.446-2.406 3.508-1.848.097-2.417-3.101-3.738-3.587-.698-.256.09.896-.32 1.472-.499 1.062-1.318 2.186-.922 3.533.494 1.684 2.469 2.868 2.56 4.611-3.136-3.503-8.051 1.011-11.955.768a4.93 4.93 0 0 0 3.328 4.426.76 21.76 0 0 0 6.797 1.485c-.832 1.728-.333 4.035.166 5.916a21.8 21.8 0 0 1 2.074 6.4c.653.077 1.075-.486 1.485-.73 0 2.726-2.784 2.163-4.776.91"/><path fill="none" stroke="#000" stroke-linecap="round" stroke-linejoin="round" stroke-width=".64" d="M152.04 321.8s5.797-.964 8.561-1.92c2.108-.728 3.973-1.882 6.04-2.88.435-.21 1.157-.234 1.6-.08.55.89 4.823 2.167 7.159 3.42.198 1.162 6.44 3.762 6.44 3.762"/><path fill="#46b3b3" d="M152.425 322.01c2.469-.813 7.857-1.267 11.722-3.469s2.214-2.458 8.845.55 45.888 30.349 83.776 28.186 74.368-24.32 79.36-27.649.677-4.365 17.69 3.84C336.679 335.5 301.85 363.43 255.68 362.61s-93.966-34.442-97.266-38.097c-.714-.792-2.916-.986-5.99-2.505z"/><path fill="#fff" d="M167.462 318.65c-.298.026-.538.175-.922.416l-1.51.909a17.3 17.3 0 0 1-6.605 1.997c-.525.077-1.037.154-1.562.256 0 1.789.554 2.56 1.063.69 6.395 47.872 36.8 96.32 37.674.946"/><path fill="#b12f39" d="m310.912 329.062-3.571 5.798.651.998c1.254.73 2.739.998 3.456-.154a1.856 1.856 0 0 0-.512-2.33 1.46 1.46 0 0 0 1.434-.64c.806-1.318-.32-2.355-1.6-3.149zm.474 1.229.243.154c.819.486 1.421 1.075.909 1.856s-1.28.499-2.112 0l-.23-.128zm140.339 1.101a4.6 4.6 0 0 0-2.048.576c-2.112 1.165-3.072 3.507-2.112 5.235s3.405 2.15 5.478 1.037a5.4 5.4 0 0 0 1.677-1.446l-.499-.883a3.62 3.62 0 0 1-1.587 1.664.046 3.046 0 0 1-4.186-.883.995 2.995 0 0 1 1.523-3.981.738 3.738 0 0 1 2.24-.448zm-141.875 1.357.538.333c.794.461 1.702 1.254 1.19 2.061s-1.485.486-2.291 0l-.678-.41-.038.026zm134.234 2.432-.922.474.381 4.442-8-1.856.366 6.298.909-.474-2.394-4.488"/><path fill="#fff" d="M276.997 350.515c.632.036 1.293.26 1.416 1.011.215 1.331-2.33 1.523-2.33 1.523l-.32-2.419s.602-.151 1.234-.115"/><path fill="#b12f39" d="m413.235 348.237-4.339.883v.038l1.37 6.67.339-.87-.154-.769-3.328.666-.525-2.563.238-.653-.166-.755-3.226.653-.384-1.869.328-.666zm-65.395-2.291-5.862 5.645.062.321.382-1.373.635 1.101.397 1.907.062.32zm5.146 1.472-1.574 6.95.998.218.126-4.941.864 6.566.613-6.925-.998-.218-1.114 4.902-4.864-6.554zm-5.709.294.602 3.046-2.816-.832zm74.778-2.061-.973.321.536 4.774-7.539-3.238.176 6.784.973-.294-1.536-4.839.539 3.251zm-94.042-7.155-.333.704.805.845-2.56 5.453.909.412.56-5.453.779.806.333-.691zm107.712 1.037-3.981 1.92v.051l3.046 6.106.968-1.946-.346-.69-3.046 1.484-1.152-2.304.97-1.446-.346-.704-2.97 1.46-.845-1.703.046-1.55zm-102.336 1.446v.026l1.011 4.557-1.126 2.739.934.384.139-2.752.968-2.56-1.088-.435-2.982 1.907-.755-3.443zm94.861 2.596c-.803.003-1.678.207-2.547.577l-1.574.668.726 6.245.536-.653c2.394-1.024 3.814-2.893 2.906-4.979-.57-1.306-1.706-1.864-3.046-1.859"/><path fill="#fff" d="m323.341 337.011.243.128c.909.461 1.971 1.114 1.434 2.086s-1.626.589-2.56.128l-.294-.154h.038z"/><path fill="#b12f39" d="m457.434 327.885-3.84 2.125.064.026.315 5.979.84-2.125-.383-.691-2.97 1.626-1.28-2.254.893-1.574-.385-.678-2.88 1.587-.934-1.664.931-1.677zm-149.44-.64-3.699 5.722.87.553.699-5.722zm-4.288-2.816-3.84 5.683.944 1.933.435-.666-2.086-1.37h.038l3.366-5.018z"/><path d="M255.58 324.301c-2.267.188-2.606 4.659-2.927 5.304-1.8-.882-4.604-1.971-6.886-1.393.584 3.725 2.432 7.043 1.357 8.325-.333-.422-.324-.992-1.047-1.162-1.423-.657-3.869 1.627-2.436 4.052.897 4.278 6.671.342 8.655-.388.854.818 1.801 1.736 3.58 2.463.408-.166 2.111-1.751 3.764-2.431a7.87 7.87 0 0 0 5.39 2.214.557 4.557 0 0 0 3.238-1.97c.453-1.043.832-2.215.166-3.2a2.56 2.56 0 0 0-2.65-1.486c-.832-.077-1.596 1.271-1.91.675-.928-1.763-.084-4.842.502-7.318-1.862-.232-4.568.618-6.127 1.642-.589-.666-.703-5.197-2.67-5.33zm-.064.927c.671.023.964.676 1.281 1.558.319.882-.289 3.375.38 3.83s1.955.042 3.354-.98c1.539-.867 1.96-1.042 3.214-1.084-.616 2.312-1.466 4.856-.538 6.947l.17 1.028c-2.074-.896-1.087-3.123-1.663-4.429-1.998.452.019 4.948 1.165 5.491.598.466 1.075.389 1.498.832-.41.742-1.805.742-1.805-.154 1.948-1.062 2.24.333-.666 0-1.181-.602-1.847-.179.819.589 1.962 1.646 1.597 2.595-.553 1.435-2.903 1.482-4.429 1.294-.794-.097-1.455-.696-2.068-1.207-1.514-1.26.037-5.499-3.86-4.472-.315 2.541 2.198 3.174.532 4.646-.724.643-.431.445-1.37 1.096-.845-.448-1.164-.451-2.074-1.147-1.532-1.921 1.58-2.138.833-4.595-3.331-.512-3.676 3.922-5.85 5.475-.342.243-.71.476-1.115.59-.773.219-1.682.507-2.405.155-.678-.33-1.101-1.272-1.28-1.869-.827-2.767 3.485-3.612 2.122-1.033.166.474.998.237 1.283.124.567-.223 1.469-2.538 1.651-3.469.435-1.836-.845-4.563-2.184-5.334.318-.627"/><path fill="#6d8138" d="M215.437 286.515h87.501s-20.314 15.194-42.304 14.784-38.144-7.808-45.197-14.784"/><path fill="#fff" d="M294.182 291.942a9.9 9.9 0 0 0 3.366-.91.8 12.8 0 0 0 2.893-2.798.6 89.6 0 0 1-6.259 3.699m4.928-42.061c-15.36 4.966-17.523 3.366-27.686 1.754-10.368-1.651-19.085-2.47-28.16-.41-8.96 2.01-11.11 2.842-27.059.96a41 41 0 0 0-7.782 12.582c-2.803 6.784.96 14.08 8.269 21.76h84.992a43.14 43.14 0 0 0 5.85-20.48c.256-6.758-4.57-12.595-8.384-16.115"/><path fill="#629ab9" d="M214.682 252.032c16.998 2.074 19.072 1.28 28.16-.806s17.83-1.28 28.16.411.429 3.277 28.608-2.048c-4.979-2.867-3.725-2.867-7.462-8.627s2.893-12.314 2.893-12.314c-8.282 2.458-13.261 2.458-25.702 0s-18.253-1.638-26.957.41-11.187 2.458-23.629 1.638c2.074 6.976 4.134 14.362-4.147 21.338"/><path fill="#f09b1e" d="M295.475 228.646c-8.294 2.458-13.274 2.458-25.715 0s-18.253-1.638-26.957.41-11.187 2.458-23.642 1.638c0 0-10.778-18.061-7.462-24.218s6.221-14.784 15.757-14.784.283-.832 55.987.411.36 10.675 16.64 19.29-.832 11.52-4.557 17.254"/><path fill="#f8e38c" stroke="#000" stroke-linecap="round" stroke-linejoin="round" stroke-width=".934" d="M241.055 215.014c-1.522-2.089-2.387-5.54-3.036-7.135.912-1.463 1.303-1.906.125-3.121-1.807-1.864-4.493-1.706-6.636-1.144-1.652.433-2.56.87-3.804 1.715-1.501 1.02-2.848 2.692-3.412 4.483-.614 1.948-1.133 4.616.246 6.124.731.8 1.088 2.607 3.226.422.982.858 4.493 2.017 5.926 3.963.633 2.273 2.441 4.11 3.274 8.315.769-.31 4.623-1.562 6.525-3.018.699-1.3 2.918-2.559 4.119-4.923-4.462-2.15-4.851-3.343-6.554-5.68"/><path d="M238.6 209.093c-3.377.451-10.838 7.45-10.153 7.572.058-.397-.66.106-.781-.015-1.861-1.862 8.465-10.373 10.527-8.832.43.717.407 1.275.407 1.275m-3.697 12.915c1.792-2.127 5.298-4.874 7.245-5.581.742.559.241.206.722.957-1.955 1.51-4.765 3.645-7.296 5.99-.379.242-.397-1.19-.671-1.367"/><path fill="#e6c737" stroke="#000" stroke-linecap="round" stroke-linejoin="round" stroke-width="1.485" d="M272.755 186.586c-.815.12-1.596.102-1.961-.399-2.406-3.32-4.604-4.082-8.151-2.56-1.21.518-2.077-3.36-5.692-3.302-4.42.073-3.745 2.755-5.559 2.268-3.565-.956-7.255.797-8.96 3.366-1.362 2.053-3.974-1.481-6.707 3.11-.719.783.123 1.953-.338 1.021"/><path d="M250.884 204.727c-.115.134 1.004 1.837 1.879 2.296.194.627 2.706.571 4.035.335.597-.64 9.997-4.447 9.942-4.613-.058-.166-6.513 3.456-10.089 4.004-1.135.173-2.362.151-3.434-.255-.913-.346-2.278-1.833-2.332-1.768m5.033-7.215c-.1.146 1.417.893 1.976 1.504.365.398.75.844.867 1.371.11.503-.115 1.024-.205 1.531-.068.39-.397 1.057-.253 1.162.141.105.684-.506.861-.874.3-.618.419-1.377.253-2.043-.161-.659-.632-1.248-1.161-1.674-.657-.53-2.289-1.05-2.339-.977" color="#000"/><path d="M255.1 194.993c-1.367-.058-3.021.895-4.152 1.916-.966.873-1.718 2.09-1.99 3.365-.338 1.582.077 3.277.548 4.826.09.293.247.778.422.817.074.017 1.396 1.422 1.106 1.002-.087-.125-.593-1.101-.737-1.702-.384-1.595-.737-3.324-.317-4.909.285-1.078.978-2.086 1.841-2.794.909-.746 2.098-1.404 3.272-1.325.822.188 5.786 2.578 5.446 5.024-.236 1.696-1.994 3.094-1.405 2.835.294-.128 1.231-.58 2.056-2.345.101-.218 3.027-.977 4.508-1.553a68 68 0 0 0 5.403-2.346c.918-.451 1.169-.86 2.682-.49.172.043.323-.576.152-.62-1.778-.434-2.804.484-4.15 1.04-1.532.634-3.063 1.399-4.652 1.949-1.256.435-2.463.8-3.843 1.062-.159-3.228-3.046-5.62-6.189-5.754" color="#000"/><path fill="#e6c737" d="M240.201 296.115c-29.082-5.491-29.082-28.48-29.082-32.845v-4.045c1.316 4.148 6.716 5.171 9.457 1.789s.622-8.453-3.709-8.881c3.686-1.408 6.694-5.235 7.181-12.403.512-7.59-6.541-12.8-7.603-13.581a4.9 4.9 0 0 0 1.28.154c6.52.343 6.52-9.623 0-9.28a4.6 4.6 0 0 0-2.176.55c-.486-3.136-1.024-7.68.602-10.944-.333-.64 1.152-1.715.909-2.202.075-1.062 2.483-3.11 3.738-4.275.28-.896 1.651-1.382 2.982-2.202.075-.5 2.906-.91 4.147-1.281.165-.09 1.83-.486 2.65.576l.576-.64q-.019.237 0 .474c0 5.734 8.602 5.734 8.602 0a4.21 4.21 0 0 0-1.728-3.392c-2.56-5.325-8.026-4.902-12.89-4.902-8.781 1.062-14.925 9.037-17.165 16.832 0-2.1 8.154-.154 12.544.426" color="#000"/><path d="M221.897 188.43c-7.318 3.452-12.942 10.391-15.231 18.9-.905 3.369-.96 7.508.198 10.982.039 3.123 3.585 5.613 5.778 8.008-.001.006-3.208 1.798-3.748 3.395-.603 1.78-.219 4.128 1.018 5.542.117 1.28 3.213 1.742 4.842 1.583.788-.077 1.106-.256 1.537-.753.314 3.131.023 5.276-1.185 8.183-.435-.388-2.432-1.98-4.462-1.434-1.596.431-3.251 2.108-3.61 3.823-.397 1.89.294 4.23 1.952 5.453-3.51 1.285-5.489 3.891-6.468 7.523-.554-.502-1.032-.659-1.617-.922-.47-.209-1.953-1.348-2.989-1.618-.261.233-.598 10.198-1.531 11.118a7.3 7.3 0 0 0 1.784 3.867s-1.135-.064-2.207-.083c-.786-.013-1.108 2.685-.543 3.352.019 2.368 4.136 6.454 4.782 7.214.558.658 1.203 1.366 2.086 1.778-1.96-.46-4.596.721-4.756 1.21-.187.571 1.48 1.92 2.03 2.143s4.125 3.136 5.432 4.512c1.254 1.322 2.739 2.705 4.621 3.226.006 1.466 1.06 6.836 5.646 6.327.088-.232 5.044-1.715 5.196-3.567.028-.344-.141-1.15-.141-1.15s6.332 2.4 9.563 3.404c3.528 1.098 6.802 2.088 10.706 2.863l2.349-.026c.169.02 1.531-5.98 1.45-6.563-.042-.312-13.974-3.653-18.112-6.413-11.146-7.43-13.795-11.978-14.431-26.876-.029-.713-.279-2.12-.279-2.12.56 3.935 7.114 3.993 9.745.747.723-3.359.956-9.073-3.085-10.015.52-1.642 5.962-5.403 6.427-12.25.461-6.815-4.691-11.428-6.779-13.075.347.163 2.758-.636 3.759-1.55.96-.878 1.766-2.162 1.807-3.462.042-1.292-.657-2.628-1.567-3.546-.966-.973-2.386-1.553-3.75-1.692-.722-.074-1.521.22-2.122.475-.468-3.107-.141-8.526 1.687-12.205.311-2.641 3.61-5.024 6.246-6.26.946-.91 5.501-2.157 6.194-.875.301 1.399 2.079 4.026 5.089 4.34.027.314 4.723-2.352 5.18-4.622.282-1.394-1.293-3.424-1.837-3.852-.164-1.446-3.421-4.033-5.796-4.92-3.392-1.267-7.587-1.664-10.862-.119m2.586.76c1.81-.453 5.64-.502 7.887.362.135.82 5.244 2.82 5.427 4.294.001.731 1.588 2.028 1.635 3.236.041 1.075-1.868 4.224-3.981 3.98-2.565-.296-4.672-2.647-3.981-4.428a.32.32 0 0 0-.556-.239l-.417.461c-.879-1.628-4.791-.154-6.886.824-2.858 1.334-5.487 3.657-6.897 6.48-2.017 4.04-1.971 10.316-1.482 13.462a.32.32 0 0 0 .467.232c2.243-1.094 4.599-.115 5.458.74.773.771 1.091 1.98 1.137 3.071.079 1.876-3.439 4.696-6.369 4.335-.342-.09 8.301 6.326 7.803 13.71-.481 7.086-3.415 10.765-6.976 12.124-.315.12-.253.585.083.619.095.404 5.964 5.603 3.372 8.8-2.417 2.675-6.548 1.839-9.408-2.028 0-.02 2.697 0 4.045.1 6.373-.842 19.366 14.61 27.915.949" color="#000"/><path d="M210.982 260.18c.175.023.356-.04.46-.076-1.051-4.544 3.235-6.413 3.456-6.762-1.358-.442-4.992 3.054-3.917 6.838zm7.374-1.938c-.242.52-.759.886-1.252 1.178-.995.589-3.311.901-3.295 1.078.015.174 2.502.676 3.654.269.968-.34 1.981-1.114 2.248-2.104.348-1.294-.995-3.914-1.16-3.85M230.164 194.107a12 12 0 0 0-1.471.073c-2.81.384-5.756.955-8.132 2.505-2.555 1.668-4.722 4.147-5.99 6.922-1.853 4.058-1.848 8.783-1.92 13.243-.019 1.217.232 3.645.408 3.63s.106-2.812.269-4.207c.472-4.023.335-8.307 2.045-11.978.257-2.697 3.378-5.043 5.773-6.811.44-1.062 3.236-1.553 4.937-2.104.615-.525 4.963-.96 4.966-1.135" color="#000"/><path fill="#e6c737" d="M271.799 296.115c29.082-5.491 29.082-28.48 29.082-32.845v-4.045c-1.316 4.148-6.716 5.171-9.457 1.789s-.622-8.453 3.709-8.881c-3.686-1.408-6.694-5.235-7.181-12.403-.512-7.59 6.541-12.8 7.603-13.581a4.9 4.9 0 0 1-1.28.154c-6.52.343-6.52-9.623 0-9.28a4.6 4.6 0 0 1 2.176.55c.486-3.136 1.024-7.68-.602-10.944.333-.64-1.152-1.715-.909-2.202-1.075-1.062-2.483-3.11-3.738-4.275-1.28-.896-1.651-1.382-2.982-2.202-1.075-.499-2.906-.909-4.147-1.28-1.165-.09-1.83-.486-2.65.576l-.576-.64q.019.237 0 .474c0 5.734-8.602 5.734-8.602 0a4.21 4.21 0 0 1 1.728-3.392c2.56-5.325 8.026-4.902 12.89-4.903.781 1.062 14.925 9.037 17.165 16.832 0 2.1 8.154.154 12.544-1.426" color="#000"/><path d="M290.103 188.43c7.318 3.452 12.942 10.391 15.231 18.9.905 3.369.96 7.508-.198 10.982-1.039 3.123-3.585 5.613-5.778 8.008.001.006 3.208 1.798 3.748 3.395.603 1.779.219 4.128-1.018 5.542-1.117 1.28-3.213 1.742-4.842 1.583-.788-.077-1.106-.256-1.537-.753-.314 3.131-.023 5.276 1.185 8.183.435-.388 2.432-1.981 4.462-1.434.596.43 3.251 2.108 3.61 3.823.397 1.889-.294 4.229-1.952 5.453.51 1.285 5.489 3.891 6.468 7.523.554-.502 1.032-.659 1.617-.922.333-.147 1.137-.67 1.974-1.116.899.7 1.635.838 2.006.901-.118 2.404.118 4.513.484 6.705.389 2.34.074 4.851-1.728 6.877 0 3.41-.195 3.994-.005 0 .502 2.138.397 1.796-2.358 1.292-5.596 7.716-6.423 8.69-.558.658-1.203 1.366-2.086 1.778.96-.46 4.596.72 4.756 1.21.187.57" color="#000"/><path d="M301.018 260.18c-.175.023-.356-.04-.46-.076.051-4.544-3.235-6.413-3.456-6.762.358-.442 4.992 3.054 3.917 6.838zm-7.374-1.938c.242.52.759.886 1.252 1.178.995.589 3.311.901 3.295 1.078-.015.174-2.502.676-3.654.269-.968-.34-1.981-1.114-2.248-2.104-.348-1.294.995-3.914 1.16-3.85M281.836 194.107a12 12 0 0 1 1.471.073c2.81.384 5.756.955 8.132 2.505.555 1.668 4.722 4.147 5.99 6.922.853 4.058 1.848 8.783 1.92 13.243.019 1.217-.232 3.645-.408 3.63s-.106-2.812-.269-4.207c-.472-4.023-.335-8.307-2.045-11.978-1.257-2.697-3.378-5.043-5.773-6.81-1.44-1.062-3.236-1.553-4.937-2.104-1.615-.525-4.963-.96-4.966-1.135" color="#000"/><path fill="#e6c737" d="M271.857 296.922c-.454 2.845-.243 4.467-.243 4.467-.333.742 4.335 4.654 2.262 5.819-3.145.887-6.188 2.371-9.148 4.557-4.111 3.037-7.59 8.238-12.685 8.594-3.044.212-6.395-1.586-8.218-4.032-1.093-1.467-1.719-3.773-.909-5.414.568-1.152 2.121-1.821 3.405-1.805.396.019 2.483 1.28 3.648 2.06.486-.498.471-1.407.243-2.06-.486-1.395-1.745-2.662-3.149-3.123-1.229-.404-2.757-.143-3.84.563-.9.588-1.12.878-2.15 1.485-1.558-1.695-4.124-2.547-3.571-5.581 0 1.69-3.494 3.149-3.072.422-.41-.781-4.493-.781-4.493.488-2.733 6.815.55 7.808.614.989-2.181 1.597-3.447 3.034-4.966.024-.287 2.787 2.813 4.335 4.932.705-2.555 1.783-5.107 3.332-4.741.348.566 2.45 3.356 2.327 5.098.527-1.206 1.644-3.008 3.062-3.051.336 1.152 2.234 3.583 2.074 4.89.297" color="#000"/><path d="M250.66 290.218c-.58.064-1.463.694-2.01 1.748-.532 1.027-.736 2.47-.75 3.107-.536-.781-5.097-1.651-5.933-1.571-.835.082-2.387.662-2.405 1.475s1.085 2.66.699 4.009c-.028.23-2.563 1.426-3.048 3.327-.422 1.645.243 2.806 1.052 3.652.806.847 2.683 2.531 2.813 2.455.32-1.134 3.907-2.796 5.884-2.132.631.548 2.994 3.921 2.81 4.328-.997-.759-2.033-1.809-3.447-1.828-1.399-.018-3.046.668-3.695 1.984-.892 1.805-.218 4.198.937 5.747.891 2.536 5.312 4.381 8.499 4.165.286-.37 9.059-5.347 12.872-8.673.747-2.396 9.518-4.291 9.939-5.17.179-.374-.284-2.056-1.094-3.36-.718-1.155-1.777-1.951-1.9-2.18-.12-.22.204-1.25.241-2.291.045-1.24-.198-2.511-.431-2.657-.274-.172-1.421-.406-2.529-.198-1.341.25-2.684.988-3.108 1.174-.21-.603-.046-1.61-.342-2.483-.39-1.152-1.277-2.138-1.865-2.348-.595-.02-1.321.287-1.898.975-.431.513-.724 1.364-1.12 1.772-.067-.355-.109-1.656-.554-2.775-.448-1.125-1.299-2.065-1.843-2.05-.906.027-1.933.577-2.487 1.504-.508.847-.576 2.035-.758 2.889-.819-.3-1.146-1.778-1.802-2.888-.648-1.093-1.623-1.821-2.726-1.7m.102.756c.828-.017 1.471.302 1.935 1.412.596 1.422 1.658 3.158 2.589 3.337.605.128.745-1.84 1.266-3.213.357-.942.865-1.3 1.75-1.28.663.11 1.108.605 1.441 1.553.573 1.626.721 3.907 1.262 3.369.419-.416.859-1.457 1.366-2.093.529-.663 1.119-.913 1.286-.797.283.197 1.075.969 1.367 1.932.349 1.143.204 2.505.584 2.76.58.388 2.15-.536 3.505-.932.039-.303 1.979-.154 2.09.27.134.51.276 1.06.214 1.556-.128 1-.612 1.884-.312 2.487.448.9 1.5 1.613 2.031 2.412.618.932.695 1.915.892 2.403-.186.96-6.84 2.697-9.6 5.105-3.891 3.393-7.327 7.64-12.23 7.982-1.554.108-2.964.189-4.314-.557-1.169-.646-2.542-1.45-3.357-2.545-1.033-1.385-1.114-3.383-.387-4.86.489-.987 1.094-1.506 2.264-1.49.206.017 3.617 2.007 3.725 1.896.43-1.736-.623-5.563-2.877-6.202-2.112-.596-4.614.333-6.157 2.149-.782-.783-1.792-1.331-2.368-2.106-1.143-1.536-.531-3.634.169-4.507.927-1.156 2.072-1.35 2.154-1.43.175-.17-.017-2.136-.141-2.678-.224-.96-.613-1.677-.669-1.873.098-1.028 6.039.189 8.02 1.23.663-.541 1.005-2.002 1.201-3.482.134-1.028.476-1.526 1.3-1.81" color="#000"/><path d="M263.616 310.691c-.3.01-1.514 1.176-1.684 1.327-1.288 1.139-3.939 4.344-9.012 5.795-1.519.435-2.712-.026-4.621-1.057-.132-.072-.328-.151-.448-.06-.119.092-.143.325-.059.451.006 1.481 4.116 1.53 5.21 1.302.712-.772 6.744-3.359 9.418-5.93.529-.508 1.434-1.638 1.242-1.812a.06.06 0 0 0-.045-.014m-16.677-.246a1.54 1.54 0 0 0-.71.136c-.522.25-1.318 1.251-1.062 1.377.499.244 1.215-.696 1.88-.675.704.023 1.523.966 1.935.842.504-.154-.721-1.228-1.327-1.51a1.9 1.9 0 0 0-.717-.17zM252.204 294.963c-.154.086.397 2.035.483 2.189 0 .927 2.181 1.29 3.309.573 1.777 1.272 3.564 1.395 5.427.09 1.382-.097 2.963-.499 4.122-.01-2.189-1.859-5.669-3.726-7.562-1.568-1.587-3.936-4.004-4.95-4.64-.71-.445-2.234-1.036-2.263-1.097-.044-.096.614.786 1.196 1.223.007 4.508 9.165 8.992 8.87 12.627-.027.323-.407-1.011-.545-1.47-1.297-4.31-3.355-6.115-6.292-7.59-1.055" color="#000"/><path fill="#f7d400" stroke="#000" stroke-width=".934" d="M275.878 218.368c2.138-1.421 3.968-2.65 5.478-3.507.805-2.816 2.893-5.99 5.12-9.832.56-4.506-2.803-4.403-5.504-2.445a63.5 63.5 0 0 0-8.96 7.885c-.384 5.376-2.304 12.019 3.866 7.898z"/><path fill="#6d8138" d="M257.449 219.187c3.359-3.359 5.156-5.222 6.82-8.499s8.077-6.067 7.77-.614-2.496 12.518 3.84 8.295.989-6.927 10.388-2.092c.39 4.736-.55 3.917-1.372 5.719-.74.809-1.26 1.843-2.104 2.542" color="#000"/><path d="M270.198 206.691c-2.258-.352-5.325 2.099-6.216 3.853-1.641 3.231-5.116 6.267-6.954 8.936.784-1.43 6.336-3.14 9.229-7.156.358-.498.934-1.33 1.121-1.312.123.24-.701 3.748-1.17 5.987-.476 2.271-.296 3.766.026 4.705.159.47.253.508.617 1.123-.49.8-1.87 2.688-1.715 2.781l1.916 1.143c.134.081 1.979-2.176 1.979-2.176.013 0 .645.27 1.787.395.889.314 6.449-3.01 8.262-4.703.9-.838 2.588-2.438 3.149-2.25.901.508.362 6.075.472 6.628.709-.347 3.523-3.892 3.622-4.307.422-1.766.246-6.093-.668-6.666-.654-.41-1.472-.388-2.41-.068-1.876.64-4.379 2.39-7.544 4.5-1.558 1.037-2.55 1.271-3.068 1.204-.623-.08-.799-1.038-.847-1.492-.195-1.815.417-4.96.572-7.722.081-1.425-.385-3.213-2.159-3.402m.794.97c1.416.84-.059 8.2.159 10.225.054.506.34 1.951 1.343 2.048.869.082 1.951-.224 3.562-1.298.171-2.115 5.7-3.849 7.398-4.429.847-.289 1.436-.284 1.839-.009.703.53 1.014 4.036.6 5.914-.072.324-2.143 3.114-2.769 3.666.023-.708.347-5.69-.333-6.182-.855-.62-3.238 1.352-4.15 2.202-1.807 1.687-5.12 4.8-7.712 4.541-1.16-.115-1.796-.466-2.205-.41l-1.76 2.065-1.029-.623.628-2.559c-.16-.416-.585-.906-.723-1.313-.278-.814-.463-2.186-.005-4.37.465-2.216 1.587-6.547.942-6.796-.581-.223-1.672 1.105-2.04 1.615-2.445 3.392-3.514 4.6-7.045 6.144.561-2.419 4.461-4.497 5.862-7.259.774-1.523 4.366-4.403 6.438-3.173z" color="#000"/><path fill="#8e4f3e" stroke="#000" stroke-linecap="round" stroke-linejoin="round" stroke-width=".934" d="M280.32 286.464a11.3 11.3 0 0 0 .87-3.392c.422-1.638 1.165-3.61.832-4.928-2.739-3.52-2.33-7.782-1.498-11.648a5.1 5.1 0 0 1 .909 2.79c.576 4.262.166 9.024 3.84 11.814.088-.243 2.074.41 3.162.576-.333-3.034-4.403-3.366-4.48-6.72-1.165-4.774.166-10.61-3.315-14.95-2.15-.896-5.389-.166-7.68-.166-4.902.166-11.034 1.638-16.013-.154-2.739-2.214-7.552-.499-10.778-2.06-3.149-.59-.499-3.52-2.829-4.839-1.485.41-.653 1.882-1.741 2.56a6.4 6.4 0 0 1-6.63-.73l-.077-.166c-.832.5-.576 1.651-.666 2.214.333 1.485 3.226 1.28 1.28 2.97a18.2 18.2 0 0 1-3.686 2.56c-.678.794 0 1.114.09 1.613a2.8 2.8 0 0 0 1.05 2.432c2.189.371 5.35-.704 7.424.717a5.91 5.91 0 0 1 3.571 3.7c1.498 2.7 1.907 6.322 5.389 7.68 2.714-.078 5.85-2.817 7.066-.423"/><path d="M239.078 259.52c1.139-.192 2.79.32 1.344.73s-2.278.512-1.971 0a2.4 2.4 0 0 1 .627-.73"/><path d="M244.422 255.685c0 .177-.18-.276-.212-.102-.102.567-.261 1.216-.772 1.482-.157.082-.899.636-.815.794.082.156.755-.104 1.073-.227.685-.358.846-.813.986-1.574.031-.174-.084-.781-.259-.813zm2.24 2.102c-.909.653-1.042.911-2.15 1.062-.177.024-1.22.347-1.194.524.024.174 1.344-.024 1.519-.047.211-.166 1.204-.306 2.198-1.018a.32.32 0 0 0-.372-.521m33.19 4.928c-.173.038.038 1.33.077 1.503 0 .56 1.975.073 3.366-.264" color="#000"/><path fill="#5a4143" stroke="#000" stroke-linecap="round" stroke-linejoin="round" stroke-width=".934" d="M235.52 159.27s3.046 2.048 5.12 3.277a17.4 17.4 0 0 0 2.906 1.498s0-.128 1.523-.947.792-.82 3.443 1.664 1.37 3.328.538.1-1.92 2.766-.806.075 1.92 3.725.806.664-1.51 3.187-.678.55 2.048 3.174.82.483-1.92 4.134-.679.805 1.28 3.456.411.946-1.382 2.906-.269.973.806.973.806.202"/><path fill="#fff" stroke="#000" stroke-linecap="round" stroke-linejoin="round" stroke-width=".934" d="M266.726 123.968s-.282.128-1.946-.422a4.94 4.94 0 0 0-3.046 7.68l.946.962a.28 17.28 0 0 0 3.315 1.28m-10.227-6.208s-.282.128-1.946-.41a4.787 4.787 0 0 0-3.034 8.448l.933.973a.92 17.92 0 0 0 3.328 1.28m-11.213-1.843s-.269.128-1.92-.41a4.826 4.826 0 0 0-3.046 8.448l.933.973a.92 17.92 0 0 0 3.315 1.28"/><path d="M234.714 162.765c-1.28-1.523 2.56.934 3.11.474s.704-.474 1.869 1.28M235.785 165.088c-1.28-1.523 2.56.947 3.123.474s.678-.474 1.856 0l1.28.538a11 11 0 0 0-2.637.346.379 3.379 0 0 1-3.661-1.37m5.645-.819c-1.28-1.523 2.56.96 3.11.486s.678-.486 1.869 0l1.28.538a11 11 0 0 0-2.624.347.328 3.328 0 0 1-3.661-1.37"/><path d="M244.48 166.396c-1.28-1.51 2.56.973 3.11.486s.678-.486 1.856 0l1.28.55a11 11 0 0 0-2.624.346.354 3.354 0 0 1-3.648-1.382m3.61-2.035c-1.28-1.536 2.56.934 3.098.461s.691-.46 1.869 1.28"/><path d="M251.789 166.4c-1.28-1.523 2.56.947 3.11.474s.691-.474 1.869 0l1.28.538a11 11 0 0 0-2.624.346.366 3.366 0 0 1-3.661-1.37m2.726-1.984c-1.28-1.523 2.56.947 3.11.474s.691-.474 1.869 0l1.28.538a10.8 10.8 0 0 0-2.56.347.341 3.341 0 0 1-3.661-1.37m6.387 2.01c-1.28-1.523 2.56.947 3.11.474s.691-.474 1.856 0l1.28.538a10.8 10.8 0 0 0-2.624.346.328 3.328 0 0 1-3.661-1.357m.307-1.933c-1.28-1.523 2.56.947 3.123.474s.678-.474 1.856 0l1.28.538a10.8 10.8 0 0 0-2.624.346.354 3.354 0 0 1-3.674-1.37m7.027-.32c-1.28-1.536 2.56.934 3.11.461s.678-.46 1.856 1.28"/><path d="M267.827 166.118c-1.28-1.536 2.56.934 3.11.461s.678-.461 1.869 1.28"/><path fill="#fff" d="m404.8 145.421-5.939 2.88a8.27 8.27 0 0 1 1.434-4.659l-1.19-.256c-.385-2.176-1.021-5.491.64-7.411h-1.459c-.243-1.933-.435-5.363.896-7.347l-7.77-.269c-.032.032-2.035 2.729-.115 7.145-2.518-.53-2.003 8.045-.899 8.059l-2.469-.055c-.552-.013.476-1.53.772-2.429-.2-2.472-.591-6.112.817-7.113h-1.587c-.192-1.984-.282-5.389 1.024-7.347l-7.26-.325c-1.961 1.574-2.162 4.861-.883 7.025-.568.443-2.322 2.412-1.009 7.731l-1.779-.056c-.154-1.28-.422-5.901 1.114-8.205l-1.357-.282s-.845-4.915 1.088-7.795l-7.77-.269c-.132.118-1.734 2.616-.637 7.951"/><path fill="none" stroke="#000" stroke-linecap="round" stroke-linejoin="round" stroke-width=".934" d="m377.052 156.771.633.17s-1.229-4.872.691-7.752l-10.97-.325m9.915.14s-1.637-5.053.296-7.92l-9.728-.283m-10.167-3.357-6.378 21.171.786.963-11.016-5.235"/><path fill="none" stroke="#000" stroke-linecap="round" stroke-linejoin="round" stroke-width=".934" d="m367.012 156.756.04.014s-1.188-4.955 1.065-7.822l-11.043-.225c0 .033-1.981 2.897-.515 7.92zm21.905-5.564.085.283c.015-.059-.901-5.144 1.28-7.808.388-.458-8.448-.22-12.408-.31M250.15 149.005s-1.298-5.325.635-8.205l-10.292-.155c-.009.001-1.994 1.821-.694 7.964m1.44-7.966.658.114s-.732-5.167 1.201-8.035l-8.643-.282c-.032 0-2.339 1.714-1.216 8.202m19.561.425s-1.224-4.52.722-7.412l-9.108-.143c-1.092 2.301-1.258 4.68-.68 7.16m19.37 2.712s-1.469-4.788.476-7.668l-9.096-.212c-1.307 1.444-1.408 5.458-.483 7.775m-19.48-10.839.276.227s-.914-5.155 1.032-8.022l-7.5-.269c-.069.067-2.459 2.586-.806 8.064zm10.44.99.276.112s-1.28-4.109.678-6.976l-7.16-.338c-.031.092-2.985 2.947-.794 7.201m10.454 2.105.822.113s-1.053-4.165.905-7.045l-7.386-.325c-.022.063-2.984 3.889-.342 7.258m7.459 12.785.939-2.88c-2.906 8.627 2.624 12.467 2.624 12.467l-14.194-.461m-.321 1.958.96-7.923m-8.794 8.004-.038-2.538m-10.737 2.433-.054-2.292m10.79-30.938v-7.526m-10.79 5.76v-5.76m20.736 9.715v-6.003m-6.221 34.332.171 2.876m-36.731-5.065.656-17.498m26.266 14.502.584 8.883m-2.483-8.883.597 8.883m-2.483-8.884.584 8.883"/><path fill="none" stroke="#000" stroke-linecap="round" stroke-linejoin="round" stroke-width=".64" d="M185.746 166.961s-.618.113-.925.077c-.251-.028-.503-.036-.745-.102-.364-.1-.232-.849-.232-.849"/><path d="M171.74 175.347c.037.1.124.96.302 1.405a6.2 6.2 0 0 0 1.065 1.747c.426.493.956.896 1.505 1.245.462.294 1.426.794 1.485.708.059-.09-.919-.828-1.393-1.226-.404-.338-.89-.589-1.238-.987-.462-.531-.721-1.211-1.082-1.815z" color="#000"/><path fill="none" stroke="#000" stroke-linecap="round" stroke-linejoin="round" stroke-width=".64" d="M161.101 159.45s7.651-2.743 11.612-3.587c3.921-.836 11.94-1.444 11.94-1.444m147.27-2.138s-1.379 2.49-1.046 4.668c1.577 1.471 9.22 1.414 9.22 1.414"/><path d="M345.114 176.62c.047-.077-.553.42-.814.648-.73.64-1.317 1.444-2.102 2.015-.91.662-1.988 1.055-2.972 1.597-.445.246-1.366.653-1.326.75.041.099.956-.23 1.411-.415.085-.436 2.163-.937 3.113-1.62.771-.555 1.449-1.244 2.052-1.98.25-.304.637-.995.637-.995zm-184.679 14.627c-.175-.026-.94 4.195-.965 4.37 0-.95 5.647-1.123 10.176-.187" color="#000"/><path fill="none" stroke="#000" stroke-linecap="round" stroke-linejoin="round" stroke-width=".64" d="m304.467 257.313-1.17-6.239c-.934-5.495.634-20.027.285-24.703-1.37.084-.58.084-3.236.511-.22 2.374-.243 12.658-.244 16.557"/><path d="M150.336 184.637c-.896-.209-2.684-.362-2.753-.201-.07.163 1.692.262 2.501.534.646.218 1.505.356 1.856.865.102.15.099-.557-.077-.579-.561-.259-.992-.495-1.527-.62m-3.183 2.642c-.092.15 1.83.375 2.705.695.494.179 1.242.384 1.421.682.247.41.302-.47.131-.516-.467-.124-.957-.433-1.466-.554-.909-.218-2.79-.307-2.79-.307m.067 2.826c.607.288 1.472.325 2.144.652.348.169.925.279.951.666.014.215.591-.256.431-.349-.485-.28-.756-.458-1.174-.593-.755-.244-1.914-.407-2.353-.374z" color="#000"/><path fill="none" stroke="#b12f39" stroke-linecap="round" stroke-linejoin="round" stroke-width=".384" d="M160.581 333.706c4.211 1.229 9.11 2.314 12.626 2.744m-12.323-1.715c3.583.96 7.743 1.998 12.077 2.419m-12.552.863c1.467.294 2.939.755 4.847 1.21m1.527.229c1.123.273 4.902.878 6.624.867m-13.628-1.545.193 1.225m2.109.507c2.291.335 4.582.694 6.875.886m-12.923-5.795c4.282 1.373 8.655 2.049 12.003 2.292m-11.86-1.388c4.275 1.44 8.55 1.933 11.889 2.18m-12.172-1.558c3.811 1.389 8.393 1.952 12.003 2.292m-5.728 1.88c2.24.544 4.76.75 7.072.858m-5.94.218c2.296.374 3.571.41 5.884.518m-5.32.33c2.326.175 2.922.353 5.235.46m-4.216.417c2.324.175 1.847.24 4.16.348m-10.195-5.133 5.898 1.338m-6.692-.856c1.897.675 3.978 1.102 6.098 1.478m-7.003-1.224c1.544.611 2.912 1.215 5.504 1.677m-5.731-.97c1.544.611 1.469.847 3.891 1.422m-3.891-.602c1.408.576.781.512 2.62 1.027m10.764 2.289c1.477.147 1.225.127 3.226.234m-12.837-12.305c4.206 1.306 9.018 2.373 12.531 2.726"/><path fill="#fff" d="M299.843 344.402c1.107-.077 2.044.305 2.532 1.44.781 1.818-.627 3.123-2.56 3.942l-.321.151-2.099-4.823.333-.141c.726-.311 1.452-.522 2.116-.57"/><path fill="none" stroke="#b12f39" stroke-linecap="round" stroke-linejoin="round" stroke-width=".384" d="M355.054 333.481c-4.394 1.245-8.334 1.039-14.276.748m14.043.532c-3.648.691-9.683.937-14.008.433m13.834 5.021c-1.495-.022-3.369.06-5.332.101m-1.425.07c-1.157.028-4.923-.01-6.602-.384m13.928 1.313-5.955.1m-2.112-.008c-2.312-.155-4.346-.178-6.625-.474m14.195-5.019c-4.476.435-10.474.567-13.798.097m13.581.927c-4.483.504-10.01.419-13.322-.046m12.902 1.051c-4.018.552-8.899.586-12.498.155m5.202 4.122c-2.255-.044-4.353-.343-6.7-.602m6.099 1.526c-2.323-.12-3.917-.411-6.2-.794m5.581 1.503c-2.309-.32-3.665-.384-5.947-.768m5.161 1.523c-2.309-.32-3.098-.383-5.38-.765m16.276-1.747-6.332.059m6.327.635c-1.997.257-3.784.179-5.934.099m6.426.567c-1.637.269-3.046.346-5.678.25m5.862.376c-1.638.27-1.558.348-4.047.397m4.439.292c-1.498.265-.759.224-2.664.337m-9.99.131c-1.473-.17-2.522-.361-4.499-.678m14.496-5.597c-4.018.55-8.899.472-12.497.041"/><path fill="none" stroke="#000" stroke-width=".384" d="m360.571 211.55.966 14.053m-1.542.902a51.7 51.7 0 0 0-11.151-14.008m3.502-1.75c2.54 5.058 6.076 9.416 10.598 13.777m-9.056-14.54c2.55 5.744 4.988 9.343 10.23 13.132M240.173 227.401c-2.182-5.956-5.307-10.327-10.505-14.1m7.695-4.238c1.536 6.038 4.111 9.876 9.583 12.672"/><path fill="none" stroke="#000" stroke-width=".384" d="M238.422 228.092c-1.536-6.039-3.927-10.108-9.399-12.902"/><path d="M277.568 207.309c-.102-.029-.945-.058-.975.044-.032.102.76.294.863.325.165.36 1.787.543 2.291.902s.928.92 1.677 2.074c.056.09.403.71.493.65.09-.058-.111-.772-.172-.86-.753-1.16-1.201-1.766-1.774-2.177-.576-.41-1.242-.598-2.403-.956z" color="#000"/><g fill="none" clip-path="url(#a)"><path fill="#e1e1e1" d="M287.946 176.448c1.489-1.38 1.691-4.11-.685-5.636-1.835-1.179-4.863-1.234-7.765-1.234s-5.468 1.577-5.468 1.577.488 3.96 4.312 5.129.463 1.819 5.2 1.819c2.737 0 4.406-1.656 4.406-1.656z"/><path stroke="#000" stroke-linecap="round" stroke-linejoin="round" stroke-width=".722" d="M287.946 176.448c1.489-1.38 1.691-4.11-.685-5.636-1.835-1.179-4.863-1.234-7.765-1.234s-5.468 1.577-5.468 1.577.488 3.96 4.312 5.129.463 1.819 5.2 1.819c2.737 0 4.406-1.656 4.406-1.656z"/><path fill="#e1e1e1" d="M268.273 176.424s-2.052 1.66-4.789 1.66-4.654-.651-5.479-1.819-4.312-5.128-4.312-5.128.521-1.565 5.221-1.566.577 1.01 5.411 2.094c.835 1.085 3.948 4.76 3.948 4.76"/><path stroke="#000" stroke-linecap="round" stroke-linejoin="round" stroke-width=".722" d="M268.273 176.424s-2.052 1.66-4.789 1.66-4.654-.651-5.479-1.819-4.312-5.128-4.312-5.128.521-1.565 5.221-1.566.577 1.01 5.411 2.094c.835 1.085 3.948 4.76 3.948 4.76"/><path fill="#f3f3f3" d="M278.422 176.424s-2.052 1.66-4.789 1.66-4.654-.651-5.479-1.819-4.312-5.128-4.312-5.128.521-1.565 5.221-1.565c2.7 0 4.577 1.009 5.412 2.094s3.948 4.759 3.948 4.759"/><path stroke="#000" stroke-linecap="round" stroke-linejoin="round" stroke-width=".722" d="M278.422 176.424s-2.052 1.66-4.789 1.66-4.654-.651-5.479-1.819-4.312-5.128-4.312-5.128.521-1.565 5.221-1.565c2.7 0 4.577 1.009 5.412 2.094s3.948 4.759 3.948 4.759"/><path fill="#e1e1e1" d="M247.991 176.431s-2.052 1.659-4.789 1.659-4.654-.651-5.479-1.819c-.825-1.169-4.312-5.129-4.312-5.129s2.521-1.565 5.221-1.565.576 1.009 5.411 2.094.948 4.76 3.948 4.76"/><path stroke="#000" stroke-linecap="round" stroke-linejoin="round" stroke-width=".722" d="M247.991 176.431s-2.052 1.659-4.789 1.659-4.654-.651-5.479-1.819c-.825-1.169-4.312-5.129-4.312-5.129s2.521-1.565 5.221-1.565.576 1.009 5.411 2.094.948 4.76 3.948 4.76"/><path fill="#f3f3f3" d="M258.14 176.431s-2.052 1.659-4.789 1.659-4.654-.651-5.479-1.819c-.825-1.169-4.312-5.129-4.312-5.129s2.521-1.565 5.221-1.565.577 1.009 5.412 2.094.948 4.76 3.948 4.76"/><path stroke="#000" stroke-linecap="round" stroke-linejoin="round" stroke-width=".722" d="M258.14 176.431s-2.052 1.659-4.789 1.659-4.654-.651-5.479-1.819c-.825-1.169-4.312-5.129-4.312-5.129s2.521-1.565 5.221-1.565.577 1.009 5.412 2.094.948 4.76 3.948 4.76"/><path fill="#f3f3f3" d="M224.053 171.233c-1.489 1.38-1.691 4.11.685 5.636.835 1.178 4.863 1.234 7.765 1.234s5.468-1.577 5.468-1.577-3.488-3.96-4.312-5.128-2.463-1.819-5.2-1.819-4.406 1.655-4.406 1.655z"/><path stroke="#000" stroke-linecap="round" stroke-linejoin="round" stroke-width=".722" d="M224.053 171.233c-1.489 1.38-1.691 4.11.685 5.636.835 1.178 4.863 1.234 7.765 1.234s5.468-1.577 5.468-1.577-3.488-3.96-4.312-5.128-2.463-1.819-5.2-1.819-4.406 1.655-4.406 1.655z"/></g><path d="M139.011 320.667s-1.848 1.225-2.761 1.856c-1.533 1.06-3.405 1.777-4.559 3.238a7.6 7.6 0 0 0-1.56 3.868c-.157 1.558.186 3.2.85 4.618.541 1.153 1.509 2.075 2.447 2.938.412.378.859.745 1.375.96.639.265 1.635.521 2.04.367.165-.064-.393-.376-.614-.532-.343-.243-.75-.385-1.096-.625a7 7 0 0 1-1.126-.938c-.776-.817-1.578-1.673-2.019-2.71-.532-1.257-.82-2.687-.659-4.042.133-1.119.653-2.202 1.312-3.116.034-1.436 2.584-2.426 3.985-3.507.867-.668 2.723-1.833 2.723-1.833a.32.32 0 0 0-.337-.541z" color="#000"/><path d="M229.727 315.869c.179 1.411-2.354 4.297-4.372 5.243.573.986 5.562-.714 7.795-1.892.582-.307 1.574-1.062 2.24-1.472.09.256-.808 1.321-1.19 1.624-1.265 1.001-5.299 2.336-5.8 2.65-.21.132.184.312.32.41.724.524 5.722.806 6.387 1.216-.36.516-4.577.433-6.72-.525 1.101 2.291 2.41 2.982 4.006.675 1.559.038 5.532-.96 5.788-.154"/><path fill="#344b51" stroke="#000" stroke-linecap="round" stroke-linejoin="round" stroke-width=".934" d="M320.207 220.867c2.417 3.156 7.398 1.158 9.805-1.638.048-2.383 3.098-4.298 2.125 1.64s-2.538 7.294-5.44 10.034c-2.424 2.289-7.11.942-9.206.37-2.08-.567-1.856-8.265 1.144-10.243.439-.291 1.128-.741 1.572-.163"/><path d="M319.418 223.62c-.539.741-.772 1.715-.8 2.63-.038 1.252.288 2.545.868 3.654.232.448.908 1.178 1.005 1.128.097-.047-.488-.845-.65-1.302-.387-1.092-.772-2.235-.75-3.392.017-.858.23-1.741.65-2.488.319-.566 1.422-1.312 1.354-1.398-.044-.055-1.276.617-1.677 1.167m2.532-.163c-.71.855-1.165 2.004-1.19 3.116-.026 1.19.498 2.38 1.121 3.395.253.415.922 1.1 1.027 1.036s-.467-.828-.644-1.267c-.411-1.024-.973-2.066-.956-3.168.015-.975.516-1.892.933-2.772.141-.297.605-.742.525-.835-.038-.046-.612.252-.815.497m29.849-67.833c-2.292.329-4.908.89-6.82 1.322-.957.218-3.566 1.084-3.621 1.148" color="#000"/><ellipse cx="271.547" cy="245.711" fill="#e6c737" stroke="#000" stroke-linecap="round" stroke-linejoin="round" stroke-width=".509" rx="2.713" ry="2.564"/><ellipse cx="275.125" cy="241.242" fill="#e6c737" stroke="#000" stroke-linecap="round" stroke-linejoin="round" stroke-width=".512" rx="2.711" ry="2.594"/><ellipse cx="274.07" cy="235.742" fill="#e6c737" stroke="#000" stroke-linecap="round" stroke-linejoin="round" stroke-width=".511" rx="2.704" ry="2.594"/><path d="M221.741 311.766c-.106.026.452.832.468 1.289.033.941-.184 1.975-.768 2.717-.572.73-1.569 1.02-2.428 1.381-.28.118-.874.143-.877.251s.603.201.908.16c1.084-.146 2.307-.534 2.963-1.402.678-.896.813-2.231.544-3.32-.108-.435-.81-1.076-.81-1.076m4.155-5.854c-.102.038.461.764.522 1.194.127.899.095 1.911-.355 2.7-.463.813-1.408 1.242-2.208 1.725-.261.157-.845.266-.832.374.013.109.623.114.92.033.079-.294 2.296-.818 2.836-1.8.509-.928.366-2.183.004-3.178-.157-.43-.888-1.05-.888-1.05zm-1.532-7.106c-.099.047.49.788.58 1.235.179.883.264 1.884-.115 2.701-.392.85-1.302 1.352-2.058 1.898-.246.177-.819.333-.797.439s.631.067.918-.041c1.023-.383 2.111-1.041 2.573-2.035.445-.952.324-2.188-.084-3.156-.189-.448-1.015-1.041-1.015-1.041" color="#000"/><g fill="#e6c737" stroke="#000" stroke-linecap="round" stroke-linejoin="round"><ellipse cx="271.547" cy="245.711" stroke-width=".509" rx="2.713" ry="2.564"/><ellipse cx="275.125" cy="241.242" stroke-width=".512" rx="2.711" ry="2.594"/><ellipse cx="274.07" cy="235.742" stroke-width=".511" rx="2.704" ry="2.594"/></g><path d="M290.319 311.766c.106.026-.452.832-.468 1.289-.033.941.184 1.975.768 2.717.572.73 1.569 1.02 2.428 1.381.28.118.874.143.877.251s-.603.201-.908.16c-1.084-.146-2.307-.534-2.963-1.402-.678-.896-.813-2.231-.544-3.32.108-.435.81-1.076.81-1.076m-4.155-5.854c.102.038-.461.764-.522 1.194-.127.899-.095 1.911.355 2.7.463.813 1.408 1.242 2.208 1.725.261.157.845.266.832.374-.013.109-.623.114-.92.033-1.079-.294-2.296-.818-2.836-1.801-.509-.927-.366-2.182-.004-3.177.157-.43.888-1.05.888-1.05zm1.533-7.106c.099.047-.49.788-.58 1.235-.179.883-.264 1.884.115 2.701.392.85 1.302 1.352 2.058 1.898.246.177.819.333.797.439s-.631.067-.918-.041c-1.023-.383-2.111-1.041-2.573-2.035-.445-.952-.324-2.188.084-3.156.189-.448 1.015-1.041 1.015-1.041" color="#000"/></g></svg>