<svg xmlns="http://www.w3.org/2000/svg" width="512" height="512" viewBox="0 0 512 512"><defs><clipPath id="a"><circle cx="256" cy="256" r="256"/></clipPath></defs><g clip-path="url(#a)"><defs><linearGradient id="d" x1="568.459" x2="577.196" y1="1359.623" y2="1368.866" gradientUnits="userSpaceOnUse"><stop offset="0" stop-color="#efece6"/><stop offset="1" stop-color="#e5f2fb"/></linearGradient><linearGradient id="b" x1="1416.895" x2="1399.889" y1="537.913" y2="549.788" gradientUnits="userSpaceOnUse"><stop offset="0" stop-color="#29292d"/><stop offset="1" stop-color="#0f2d46"/></linearGradient></defs><path fill="#00287e" d="M-127.72 0h767.44v512h-767.44z"/><path fill="#e9b12c" d="M381.818 129.997c-.434-7.245-5.322-13.411-4.148-21.074.239-1.571.07-3.24 1.815-3.958.603 1.183.859 13.759 8.41 16.044.46 2.258 12.785-9.42 16.805-8.59.582 1.645.95 3.473 3.696 3.696.723.303 3.222-5.848 6.941-4.864.503 2.314-.961 3.897 1.346 5.186.096-.042 6.097-5.618 9.639-6.709l.737.134c1.62 3.153-3.021 8.131-5.036 10.2-4.323 4.448-9.476 6.896-15.063 9.464-1.943.893-9.633 4.566-7.509 7.982.771 2.85 5.494-.8 6.95-2.341.092-1.156 2.625-3.193 4.393-3.451.419.977.486 3.562.108 4.985.387-1.756 8.022-7.468 9.994-7.515.941.506.687.206 1.139 1.085-.163 2.052-1.809 3.393-1.634 4.884.121 1.268 7.684-4.597 9.047-6.092.748-1.918 2.7-5.908 5.666-5.648.599 1.138.731 2.56.029 4.096-3.761 8.217-9.764 12.836-17.722 16.401-6.35 2.845-21.226 3.69-23.271 11.047l.137.643c1.119.178 4.471-1.633 5.858-2.093.296-1.758 12.945-1.12 18.025.95-9.645 15.132-18.322 7.29-20.134 9.912.137 2.706 4.873 2.734 7.064 2.934.356 13.788.682 19.52.679 33.39-1.334-.76-2.791-1.554-4.084-2.36-.015 6.203.402 8.403 2.016 14.45-2.24-.868-2.63-1.048-4.585-2.338-.562 9.613-.154 11.29 3.551 20.223-1.145-.143-2.534-.274-3.641-.518-2.255 12.457-1.652 17.218 5.677 28.236.771 7.174 9.627 10.445 15.217 16.388.671 7.09 11.072 16.837 10.562 26.755-2.304-1.125-3.606-1.866-5.715-3.35-.798 6.536-2.316 10.614-4.337 16.638-1.838 5.483-.108 13.184 3.373 17.611.264 1.698 3.324 3.44 4.317 5.226-.02 3.597-.213 7.958-.562 11.538-.941 9.691.606 19.581.376 29.144-4.897 3.463-3.839 4.86-5.377 10.224-3.309-1.634-5.301-2.697-8.351-4.932.1-4.926 3.047-5.054 5.724-9.164.21-5.677.058-26.898-3.061-31.535-5.654-8.407-14.597-15.584-19.729-25.312-4.209-7.982-1.896-15.096-3.86-21.859-1.063-1.449-.507-2.855-1.276-3.778-.842.21-.964.22-1.704.646-.495 1.121.149 2.427-.405 4.795-2.368-.57-7.856-3.325-10.067-4.403-6.604-3.22-12.019-6.335-17.737-10.898-5.537-4.418-11.352-10.295-17.349-13.78-.941-4.175-1.634-8.104-2.659-12.376.762-1.561 12.415-2.371 17.801-4.358.875-1.06 4.069-4.42 4.905-7.13-2.258 1.448-4.652 3.213-7.635 4.317-6.837 2.532-23.472 3.641-28.372 8.29-1.491 1.414-2.287 14.276-1.716 16.758.297 1.283 1.94 6.122 2.394 8.353-1.005.51-2.083 1.156-3.07 1.719.252 7.439 1.154 10.067-6.298 13.02-.667-4.663-.096-15.665-.175-20.927.233-7.028-.248-14.948.347-21.88.746-8.737 20.961-13.814 26.939-19.479.099-2.938 3.233-3.415 3.705-7.289-3.367 2.866-6.682 5.237-10.658 7.192.185-9.956 7.224-17.183 13.734-24.695l-3.696-1.364c3.015-3.685 7.483-6.793 11.328-9.572-2.377-.192-4.468-.14-6.845-.107.08-8.317 11.151-10.027 15.159-16.772.188-2.004 1.555-3.581 2.126-5.832-2.141-.365-3.545-.51-5.712-.65-2.581 1.072-4.046 2.638-6.079 4.5-1.85-.452-3.994-1.184-5.835-1.761-1.145-.799-2.636-2.057-3.525-3.134-.816-.641-2.132-1.618-2.153-2.684-.044-2.32 1.052-6.288 2.645-7.993.932-4.203 12.709-4.655 17.911-7.004.989-1.35 5.121-3.178 8.174-4.54.695-.756 5.15-1.328 6.024-2.014-2.039-1.848-25.424.6-36.42-9.665-1.191-1.111-3.038-3.062-3.047-4.793-.003-.32.087-.62.169-.925.243-1.771 5.686 2.8 7.763 4.145a21.4 21.4 0 0 0 6.805 2.837c-.784-1.602-1.911-3.354-1.506-5.082.027-1.729 5.412 3.152 7.801 4.603.699 2.246 16.668 4.549 20.186 2.185.41-2.008-.862-6.216-3.021-7.303-11.611-5.845-29.126-1.002-35.453-15.643-.265-.61-.029-1.01.154-1.584.047-1.429 7.935 8.015 14.716 7.734.791-1.714-2.817-6.595.294-9.332.336-.483 2.447 2.402 3.443 4.053.452 5.717 10.015 7.94 16.42 7.834"/><path fill="url(#b)" d="M353.732 175.015c2.065-.792 3.822-1.712 5.995-1.633l.603.336c-.227 1.762-3.446 2.935-4.958 3.68-.985-1.024-.702-1.734-1.64-2.383"/><path fill="#1a303e" d="M389.214 286.771c2.983 3.044 3.9 4.757 4.072 8.992-1.063-1.449-.507-2.855-1.276-3.778-.842.209-.964.22-1.704.646-.495 1.121.149 2.427-.405 4.795-.332-3.235-.422-7.288-.687-10.654"/><path fill="#003271" d="m393.15 141.893.82-.153c.938.648.655 1.36 1.64 2.383l-.935.904c-1.145-.799-2.636-2.057-3.525-3.134M378.993 158.587c2.051-.002 3.417.445 5.301 1.158-1.491 1.542-2.371 2.414-4.369 3.201-2.03-.062-3.367-.622-5.258-1.311.494-1.785 1.99-2.413 4.326-3.048"/><path fill="#1a303e" d="m399.063 132.88.099.102c.414 1.916-1.937 4.144-3.647 4.801-2.089-2.508 1.416-4.395 3.548-4.903"/><path fill="#e9b12c" d="m166.254 118.867-.104-.181c-.865-1.484-1.655-3.017-3.168-3.921-5.663-3.385-11.132-6.675-16.383-10.694-1.893-1.449-5.706-1.224-8.054-1.203-6.785.061-14.634.12-19.927-4.823-.421-.394-.264-.687-.198-1.168.312-.323.625-.796 1.126-.645.235.979 6.48 2.957 10.087 2.196.393-.716 2.782-4.002 4.024-6.156.119-.822 3.669 5.585 7.487 6.459.027-.246.573-.015 1.374-.784.262-2.002-2.691-5.763-4.493-6.786-2.661-1.511-8.036-2.337-9.313-5.434.021-2.043 5.574 1.83 9.331-.569.468-2.215 4.701-5.564 5.461-9.56.281-1.48-.069-2.287.422-4.062.665-.759.258-.52 1.288-.699.367 2.307-1.05 13.276-.964 16.623.103 3.974 5.181 12.375 8.84 13.475.253-.49 8.5-11.282 9.295-15.221.436-2.16.044-7.341 1.854-8.526.317 1.368 1.075 11.344.673 14.194-.393 2.793 2.063 6.68 2.654 9.582.443 2.177.231 7.314 1.397 8.754.259.644 6.113-7.91 7.995-9.006l.443.23c.926 2.967-.137 5.432-1.273 8.046.551-3.072 11.032-9.57 13.509-15.453.543-1.29.645-3.81 1.278-5.678.767-.725.464-.654 1.334-.747.019 2.88-2.013 13.128-3.428 16.176.723-1.704 9.042-5.064 11.894-9.218.228-1.788 2.472-5.808 4.605-6.325l.307.297c.525 1.946-.624 5.978-1.1 8.07.673-1.566 8.144-4.449 11.38-8.996.435-.612.814-.57 1.389-.6.121 2.944-5.953 11.512-8.955 12.783-2.295.972-17.327 7.304-17.26 9.747.324 1.453 8.317-.766 10.01.719l-.14.528c-5.098 4.893-12.954 1.439-18.749 2.427-1.524.26-2.593 2.675-3.166 4.079.371 1.927 7.295 4.299 13.703 7.613.856 1.83 8.531 2.385 12.108 4.748.662 1.098 2.246 4.085.906 5.707-.95.836-1.287 1.588-1.254 2.86-.621 3.42-2.478 3.418-5.364 3.619-3.116.217-6.75.616-9.789 1.405-8.01 2.077-10.609.876-17.344-3.693.818 8.367 8.059 9.304 16.928 7.467.181 7.432 6.945 9.859 11.789 15.772.931 12.12 17.007 28.03 16.924 43.868-3.427-1.882-6.567-3.567-9.621-6.058-.79-.644-2.616-2.495-3.304-2.514-.903 5.183 3.737 6.996 7.601 9.516.269 4.088 15.077 7.372 20.465 12.571.681 1.621 1.577 5.17 1.667 7.256-.101 13.08.294 26.31.03 39.371-7.295-3.205-8.482-5.22-6.31-12.854-1.031-.547-2.299-1.18-3.283-1.764.493-1.475 2.356-6.82 2.443-7.758.36-3.873.247-13.462-1.189-16.875-1.669-3.967-17.567-6.033-21.618-7.486-2.619-.94-5.855-1.038-8.449-2.384-1.863-.823-4.466-2.708-6.231-3.917.209 3.485 2.403 6.39 6.161 7.626.898 1.939 12.29 2.815 18.124 4.96-1.596 4.052-3.659 8.852-6.165 12.439-9.514 13.62-26.483 27.988-42.606 32.857l.188-3.87c-.78-3.428.339-7.373-.225-8.432-3.357-.486-1.357 3.947-3.222 6.019-1.528 6.91-.791 10.796-3.589 18.705-3.548 10.03-18.767 21.332-21.918 29.36-2.227 5.67-2.531 23.047-1.633 29.07.068.453 4.389 6.878 5.183 8.507-2.426 1.84-5.5 3.27-8.231 4.66-1.36-5.263-1.128-6.145-5.261-9.623-.041-1.465-.069-3.207.053-4.658a1026 1026 0 0 0-.567-35.486c.408-1.858 3.331-3.618 4.798-5.741.519-9.438 3.708-15.996.288-25.593-.675-1.895-1.311-5.88-1.654-8.006a119 119 0 0 1-6.015 3.368c-.688-18.122 11.172-28.062 23.445-39.136.481-8.554 13.777-14.53 17.191-26.699-1.68.404-2.913.541-4.635.745a181 181 0 0 0 1.497-3.835c2.617-7.012 2.726-12.977-.362-19.742-.979.684-2.341 1.309-3.429 1.858.331-5.321.542-7.206-.795-12.394-1.671 1.136-2.229 1.405-4.133 1.975.595-10.422.288-12.63.068-22.594a56.9 56.9 0 0 1 2.678-18.909c1.332-.649 3.536-1.393 3.924-2.87-3.131-2.81-14.025 4.63-21.275-12.086.098-1.796 17.401-1.1 25.896 4.685.844-.458 1.791-1.053 2.629-1.549"/><path fill="#1a303e" d="M124.297 286.895c-.237 3.234-.547 10.664-.986 13.647-.78-3.428.339-7.373-.225-8.432-3.357-.486-1.357 3.947-3.222 6.019.552-5.341.587-7.207 4.433-11.234M162.262 170.991c-2.133-.348-4.272.038-6.234-.438-.349-.836-.251-.548.045-1.627.538-1.418 4.677-.717 7.443-.796-.95.836-1.287 1.588-1.254 2.86"/><path fill="#003271" d="M120.079 130.468c1.348 2.189 2.331 6.597 1.11 8.989-.895.721-.487.523-1.777.58-4.261-2.733-1.327-6.372.666-9.569M134.987 157.109c2.073-.141 5.815.189 6.342 2.658-.632.842-.802.694-1.92 1.086-2.118.462-5.968-.158-6.307-2.66.638-.841.696-.642 1.885-1.084"/><path fill="#e9b12c" d="M244.358 98.793c.83-1.027 1.647-1.865 3.031-1.998.737-.263 11.124 2.88 13.224 4.798.683 2.447 7.879 20.921 9.717 25.63.963-1.252 11.098-2.536 9.747-10.083-.743-4.16-7.716-10.251-5.022-13.901.497-7.446 23.574-.116 29.027 3.402.712 10.135 24.801 28.043 29.278 45.618.476 10.336 2.662 21.184 2.17 31.702-1.853-1.5-3.408-2.662-4.8-4.652-.6-3.752-.786-7.647-1.285-11.375-1.11-8.308-4.599-23.239-8.87-30.43-.789.35-1.783.755-2.528 1.152.561 13.203 8.077 22.559 9.021 36.986-2.45-1.907-3.53-2.803-4.876-5.62-1.864-3.901-5.5-28.728-10.807-28.615l-.463.469c.114 1.78 1.369 4.31 2.033 6.044.304 6.01 3.679 12.33 4.701 18.668-3.478-2.204-3.108-2.038-5.421-5.024-2.671-3.449-4.591-18.368-8.943-18.174-.309.3-.728.63-.556 1.156.708 2.14 1.722 4.787 2.435 6.878a60 60 0 0 1 1.713 6.213c-10.469-3.393-6.015-7.318-11.253-11.834-2.246.831.495 6.303 1.031 8.11-5.843-.568-6.557-2.039-10.361-2.658-.431.484-.387.958-.454 1.624-1.427.852-8.296-2.928-9.884-3.699-.047 2.625-.117 5.301-.125 7.921.099 3.98 9.854 10.556 13.597 14.188-1.579 1.65-3.239 3.48-5.103 4.791-3.248-2.105-5.593-4.568-8.34-7.262.046 4.795 1.981 8.69.632 13.525l-4.972-1.767c.251 1.251.495 2.637.778 3.868.55 1.46 2.418 2.01 4.279 3.08l3.257-.652c.323 1.033.443 1.301.51 2.363l1.445.216-.157 2.237-.009.47-.422 2.324c-.958 1.116-2.089 1.95-3.239 2.87-.376-4.103-1.215-4.028-4.696-5.788-.137 1.883-.417 5.088-2.689 5.366-2.153-1.222-1.923-4.283-1.987-6.438-2.164 1.16-4.544 2.282-5.092 4.624-.09.381-.318.665-.591.945-1.36-.357-3.067-1.846-2.785-3.3.615-3.148 5.232-5.85 7.547-7.989l-.565-4.098c-1.573.535-3.038 1.193-4.562 1.853-2.103-5.126-3.321-10.637-5.674-16.075a436 436 0 0 1-3.504 16.148c-1.634-.715-3.271-1.299-4.942-1.912a161 161 0 0 0-.434 4.153c2.918 3.34 11.761 6.614 5.394 11.115-1.43.21-.632-1.106-1.733-2.385-1.11-1.286-3.077-2.233-4.545-3.022-.186 3.32-.022 4.321-1.867 7.157-2.599-2.295-2.635-3.267-3.084-6.569-3.187 1.962-3.901 2.366-4.48 6.151-4.052-2.9-4.622-4.184-1.449-8.305-1.419-.427-3.145-.864-4.395-1.6-2.861 1.366-2.143 8.751-13.588 9.171.912-5.339 3.531-7.445 8.736-9.98a171 171 0 0 0-5.974-.888c-2.628 5.674-5.895 8.304-12.254 8.657-.955-1.434-.174-2.12-1.171-3.522l-1.01-.076c-2.742 1.844-3.893 2.003-7.089 2.739.763-4.63 2.323-5.24 6.118-8.46-7.189 1.515-7.648 4.554-16.113 1.08.163-6.34 8.741-2.853 15.708-3.145l.383-.019c-3.91-2.056-5.211-3.454-7.08-7.463.684.422 8.491 1.649 11.976 7.192l5.997.05c-4.288-3.03-5.261-4.895-6.689-9.927.059 1.41 9.93 3.915 11.381 10.31l5.634.664c-3.994-3.913-4.558-5.909-5.38-11.219.828 2.463 9.08 5.03 10.262 12.2l2.948.96c.694.037 4.024 1.121 4.886 1.386.797-1.086 2.401-1.533 3.885-2.988.239-1.212.435-2.56.641-3.79-1.656.508-3.579 1.376-5.202 2.056-2.366-7.69-1.578-12.746 1.077-20.003-1.694-4.757-2.564-7.777-3.665-12.721-2.391 1.168-7.062 3.663-9.562 3.978-1.389-.651-.123-.791-1.174-1.756-2.72.288-6.947 3.493-9.81 2.265-1.164-1.068-1.613-1.847-3.107-1.021-1.909 3.253-4.006 3.9-7.38 4.946.688-2.914 4.105-11.874 4.184-13.63-.64-.592-.877-.605-1.732-.89-4.123 3.106-3.309 16.983-13.102 23.379.239-7.058 2.777-13.93 5.479-20.6.564-1.392 1.205-2.776 1.41-4.268-.468-1.022-.196-.846-1-1.18-1.244.475-1.938 2.39-2.493 3.577a73 73 0 0 0-4.963 14.267c-1.861 7.756-1.271 11.957-7.93 17.29.546-8.913 2.355-17.595 4.885-26.15.771-2.605 3.833-8.834 3.956-10.998-.773-.74-.331-.474-1.413-.763-2.271.572-3.01 4.68-3.834 6.658-4.579 10.993-5.99 22.628-7.102 34.378-1.394 1.773-3.397 3.429-5.159 4.815-2.485-30.713 9.327-65.3 37.022-81.434.864-2.25 11.784-4.528 15.327-.469.17 1.341 1.227 4.087.617 5.691-4.115 10.814 4.136 14.833 13.207 17.841.772-3.789 3.814-8.235 5.108-12.173-.784-1.816-1-2.23-2.155-3.828-3.494-3.554-4.467-5.765-9.53-3.626-.415-.94-.406-1.492-.437-2.484-.181-5.77 4.991-4.663 8.668-4.662"/><path fill="#f6efd2" d="M244.358 98.793c.83-1.027 1.647-1.865 3.031-1.998.737-.263 11.124 2.88 13.224 4.798.683 2.447 7.879 20.921 9.717 25.629.469 1.135 1.04 3.185 1.424 4.424-1.888-.526-3.691-1.125-5.552-1.734a159 159 0 0 1-2.671 5.33l-3.868-3.442c-1.235 1.669-2.563 3.663-3.763 5.385-1.36-2.093-2.342-3.386-3.877-5.32l-3.772 3.595c-.864-1.659-1.709-3.48-2.533-5.173-1.831.757-3.891 1.374-5.789 1.987a320 320 0 0 1 2.777-6.708c1.772-3.789 3.814-8.235 5.108-12.173-.784-1.816-1-2.23-2.155-3.828-3.494-3.554-4.467-5.765-9.53-3.626-.415-.941-.406-1.492-.437-2.484-.181-5.77 4.991-4.663 8.668-4.662"/><path fill="#e9b12c" d="M245.657 109.565c-3.494-3.554-4.467-5.765-9.53-3.626-.415-.941-.406-1.492-.437-2.484-.181-5.77 4.991-4.663 8.668-4.662.015 1.407 4.083 8.385 3.278 10.534-.859.338-1.027.277-1.979.237"/><path fill="#003271" d="M248.291 100.709c1.363.274 4.532 1.493 5.721 2.217l.044.354c-3.635 1.066-4.78 1.388-5.765-2.571"/><path fill="#1a303e" d="M210.629 185.013c1.983.103 4.07.266 6.042.139-4.433 2.92-5.984 4.124-7.792 9.188-.955-1.434-.174-2.121-1.171-3.522l-1.01-.076c1.987-2.014 2.7-3.168 3.931-5.729M212.726 153.109c.932-1.834 2.62-5.653 4.308-6.633l.377.234c.353 2.296-.97 5.144-1.579 7.42-1.164-1.068-1.613-1.847-3.107-1.021"/><path fill="#f6efd2" d="M109.896 392.806c9.683-1.127 17.583 2.907 26.27 6.365.163.86 8.253 3.064 10.083 4.155.811 2.86 9.157 5.628 14.135 8.348.332 28.631 116.687 31.858 172.653 8.797a195 195 0 0 0 21.456-10.312c4.238-2.383 8.366-5.162 12.616-7.405.508-1.223 5.232-2.033 7.798-3.102.967-6.231 24.084-10.836 39.575-2.362-5.433 5.569-11.978 11.223-17.944 16.184a225.1 225.1 0 0 1-143.845 48.844 222.36 222.36 0 0 1-154.885-65.051 33.5 33.5 0 0 1 12.089-4.46"/><path fill="#003271" d="m304.082 408.095.159-.108.117 15.954-4.387.111v-4.661l-.038-5.482c-.883 2.409-2.304 5.47-3.344 7.877-1.11.026-1.486.07-2.558-.151-1.853-1.282-2.814-4.725-4.002-7.075l.052 9.534-4.198-.029c-.205-5.223-.125-10.714-.128-15.96l5.023-.052c1.273 2.147 3.07 6.196 4.206 8.564.273-2.31 2.811-5.95 4.098-8.52M181.595 427.54c4.4 1.419 15.136 3.606 11.546 10.513-.714 1.372-2.605 1.946-4 2.272.512 2.409.871 4.835 1.258 7.268l-4.712-1.774c-.617-1.71-.428-6.085-2.359-6.941-1.449.824-2.089 3.577-2.641 5.232l-4.423-1.657q2.622-7.471 5.332-14.911"/><path fill="#f0f3ee" d="M184.88 432.195c1.683.533 3.562.798 4.265 2.505-.026 1.098-.158 1.171-.826 2.112l-.291-.023c-1.734-.125-2.753-.629-4.375-1.261z"/><path fill="#003271" d="M307.146 435.046c4.014-.038 7.096 3.906 4.815 7.579-1.689 2.721-5.019 3.228-7.897 3.918.364 1.302 1.302 3.999.836 5.188l-.859.367-3.254.719-3.656-15.602c3.195-.757 6.807-1.698 10.015-2.17"/><path fill="#f0f3ee" d="M305.174 438.804c1.215-.186 1.687-.117 2.598.737.644 2.045-.21 2.537-2.051 3.195l-1.494.341c-1.678-.405-1.879-1.835-1.451-3.254.856-.932.987-.714 2.397-1.02"/><path fill="#003271" d="M224.952 439.008c1.487.207 3.115.294 4.622.405-.059 1.762-1.438 10.932-.642 11.728.25 6.23 6.112-7.664 6.524-10.875.392.198 3.035.332 4.454.484l-.272 3.222c-.495 3.262-.138 8.235-2.657 10.588-2.92 2.76-9.472 1.908-11.885-1.11-2.264-2.834-.558-10.9-.145-14.442M363.129 411.399c.516.545 1.325 2.188 1.722 2.922-2.217 1.346-4.83 2.741-7.113 4.029l1.352 2.438c2.01-1.02 4.034-2.202 6.001-3.312l1.652 2.805-6.004 3.463.474 2.654c1.512-.827 5.98-3.49 7.291-3.868l.489.335c.498 1.005.932 1.456.883 2.453-2.057 1.544-8.745 5.04-11.177 6.301-2.531-4.276-5.208-9.449-7.652-13.865.443-2.156 7.507-4.355 11.084-6.353M282.631 439.11c1.96-.137 5.197-.044 5.963 2.051-.157 1.089-.871 1.614-1.663 2.45-1.727-.807-5.43-1.625-6.825.038.555 4.104 9.08-.629 10.521 5.354a4.89 4.89 0 0 1-.65 3.874c-1.515 2.278-4.605 2.662-7.075 3.056-2.077-.067-5.482-.213-6.219-2.4.23-1.119 1.054-1.695 1.911-2.528.502 1.066 5.383 2.613 7.413-.108l-.114-.58c-2.438-1.888-9.449-.501-10.151-4.815-.717-4.416 3.74-5.85 6.889-6.391M149.752 413.738c4.572-.303 11.885 2.977 9.959 8.322-.617.527-.428.565-1.349.652-.699.064-2.329-.725-2.502-1.369-.338-1.427-.095-1.981-1.232-2.989-3.469-3.076-7.274 3.076-6.662 6.132.233 1.165 1.636 1.905 2.648 2.453.012-.157 1.941-.685 2.826-1.171.671.341 2.364 1.322 2.373 3.032-.271.548-.619 1.328-1.3 1.474-11.484 2.447-15.773-11.955-4.761-16.537M341.087 423.071c1.518-.102 3.53.35 4.865 1.081.629.83.475.434.457 1.57-.591 1.215-1.655 1.73-2.817 2.511-1.512-1.288-3.615-2.255-5.092-.207-1.748 2.424.242 6.694 2.627 8.043.386 1.352 3.822-2.33 4.99-3.688.862-.973 2.525-.95 3.548-.277-.119 1.36-.169 2.502-.868 3.711-1.617 3.265-8.241 5.558-11.331 3.155-7.014-5.459-5.389-13.959 3.621-15.899M207.327 435.623c5.177-.332 8.054 1.966 9.32 6.886-1.79.119-3.149.489-4.466-.612-3.038-7.445-10.074 1.893-5.809 6.31.481 1.531 3.512.171 4.699-1.096l.236-.253c1.634.673 3.233.868 3.151 2.77-1.963 3.388-7.696 3.032-10.698 1.337-4.135-2.339-4.172-8.19-1.943-11.856.401-2.304 3.091-2.939 5.51-3.487M364.568 397.009l.658.038c.99 1.2 4.439 12.677 5.135 14.867l-3.557 1.244c-.565.151-.271.14-.891-.14-1.174-2.374-4.055-11.914-4.934-14.731zM211.554 388.996l.101 1.762c-1.514 4.142-4.624 10.562-6.514 14.76-1.305-.574-2.915-1.43-4.22-2.08.725-4.367 4.559-10.23 6.633-14.443"/><path fill="#f6efd2" d="M199.557 259.755c37.443-.424 75.451.08 112.972-.071l-.017 62.526-13.204.005c-9.315-.128-18.948-.007-28.287-.005l-12.362.149-.026.045c-.052 1.923 9.7 7.566 11.302 9.454-9.889 5.5-57.51 6.717-70.268 7.006-.285-8.136-.099-17.139-.096-25.336z"/><path fill="#e9b12c" d="M199.57 313.526c4.694-.075 8.811-.572 12.637 2.32.38 1.042 3.541 2.207 5.292 2.383.08.609 12.79.027 18.934.29-.369 2.745-1.898 10.536-.983 12.744.897.82 2.705.679 3.057-.175.578-3.82 1.92-8.296 3.012-12.313.424.239 2.676.233 4.114.265.098 3.609.088 8.657.439 12.147.823.084 6.246.262 8.987-.303.542-2.933.824-6.053 1.387-8.861.017.264 1.174.309 2.211.335l-.026.045c-.052 1.923 9.7 7.566 11.302 9.454-9.889 5.5-57.51 6.717-70.268 7.006-.285-8.136-.099-17.14-.096-25.336"/><path fill="#003271" d="M241.03 289.416c-.757-2.613-.454-2.222-3.035-3.149.025-.137 3.36-4.649 3.599-4.782.513-1.953 2.821 1.872 7.15 1.493l.535.275.032.627c-.719.692-1.244.826-2.174 1.206-1.073 2.089.752 2.625-1.56 4.695.738 1.102 2.39 1.475 3.258 2.679.672 5.096 1.953 6.343 9.023 6.219.37-2.323.891-8.202 2.196-9.636l.591-.031c1.628 1.688-1.847 7.897.044 10.733.038.958-.184 1.393-.766 2.144-1.325 1.715-2.986 16.861-3.475 20.135-.562 2.808-.845 5.927-1.387 8.861-2.741.565-6.164.387-8.987.303-.351-3.49-.341-8.538-.439-12.147-1.439-.033-2.691-.027-4.114-.264-1.092 4.016-1.433 8.493-3.012 12.312-.352.853-2.16.996-3.057.175-.915-2.208.614-9.999.983-12.744.239-1.762.882-5.567.706-7.172-.465-.555-.585-.564-1.213-.902-.491-1.95 1.845-5.954 1.92-8.003.072-1.962-.659-4.289-1.167-6.22-2.054.748-5.96 2.929-6.733-.258-.589-2.43-.65-9.076 1.642-10.645.676.329.708.167.859.626.65 1.974.799 4.558 1.046 6.681.214-2.017 3.766-2.41 7.536-3.209"/><path fill="#f6efd2" d="m283.757 285.501.583-5.962c1.142 2.351 1.881 3.676 2.531 6.226-1.439-.033-2.691-.027-4.114-.264M247.788 299.268c1.589 1.601 1.866 1.923 3.777 3.048.969-.014 3.938-.083 5.904-.208a874 874 0 0 1-2.948 18.625c-1.101-.599-2.791-1.18-4.014-1.643-.082-7.254-3.934-9.453-2.719-19.822"/><path fill="#e9b12c" d="M250.507 319.09c1.223.463 2.913 1.044 4.014 1.643-.355 2.835-.821 5.761-1.235 8.595l-3.181-.985c.105-3.085.236-6.17.402-9.254M271.02 322.209c-1.439-4.095-1.59-8.053.294-12.058a14.94 14.94 0 0 1 8.663-7.784c3.807-1.319 8.29-1.179 11.928.598a14.48 14.48 0 0 1 7.355 8.394c1.398 4.095.67 6.849.047 10.856-9.315-.128-18.948-.007-28.287-.005M307.921 291.301c.766.699 1.186.913 1.378 1.867-.527 1.881-8.666 9.575-10.574 11.26-.929-.939-1.2-.916-1.483-2.084.862-1.536 9.027-9.517 10.679-11.044M283.589 282.947c.888-.016 1.957-.183 2.613.322.414 2.559.151 12 .117 15.12-1.151.009-1.471.068-2.549-.256-.699-1.526-.227-12.812-.181-15.186M264.664 294.437c2.386 1.406 6.671 5.727 7.973 8.244.169.328-.469 1.071-.679 1.394l-.731.135c-1.483-.699-6.004-5.435-7.058-6.886-.288-.949.169-1.881.495-2.886M274.906 288.968c1.209.991 3.813 8.231 4.145 9.943-.478.746-1.005.805-1.917 1.235-1.098-1.23-3.801-7.962-4.171-9.741.347-.773 1.154-1.037 1.943-1.437M294.9 289.013c1.054.364 1.148.374 2.019 1.04.367 1.423-3.047 8.281-3.903 10.126l-2.394-1.214c1.078-2.872 2.788-7.368 4.279-9.952M308.902 304.76c.696.146 1.325 1.858 1.646 2.502a314 314 0 0 1-7.766 3.194l-.478-.08c-.655-1.056-.591-.655-.655-1.799.903-1.54 5.336-2.949 7.253-3.818M303.516 315.097c2.054-.123 4.416-.671 6.167.159.629.985.405 1.158.379 2.478-1.952.11-5.744.739-6.953-.783.012-.96.015-.993.408-1.854M260.283 314.951c2.214.043 4.483-.594 6.184.463.53.985.329 1.129.277 2.352-2.103.044-4.597.625-6.277-.292-.551-1.061-.318-1.187-.184-2.522M262.995 305.772c1.893.499 4.061 1.129 5.22 2.685.163 1.188.055.897-.597 2.196-1.914-.652-4.308-1.126-5.336-2.744-.038-1.095.163-1.091.714-2.137"/><path fill="#f6efd2" d="M123.363 373.307c9.021-1.133 24.05 4.824 32.917 7.74a285 285 0 0 0 17.595 5.255.993 321.993 0 0 0 163.528.242c12.642-3.195 24.352-7.673 36.682-11.405.266-2.843 19.645-3.163 27.591 3.269.175 4.999 11.381 9.117 18.401 13.079-.839.947-2.033 2.054-2.962 2.962a37 37 0 0 0-1.789-1.017c-10.309-5.54-17.51-5.776-28.637-2.421-4.53 1.547-9.417 3.656-13.953 5.368a289 289 0 0 1-23.632 7.853.723 340.723 0 0 1-174.69 2.992c-10.185-2.607-20.82-5.67-30.671-9.28-18.52-6.788-29.445-14.528-48.599-3.529-.775-.655-2.135-2.156-2.882-2.936.889-1.62 6.759-3.95 9.373-5.954.463-5.724 11.842-10.993 21.729-12.217"/><path fill="#003271" d="M343.951 398.486c.431.411.39.507.568 1.095l-.344.597c-2.686 1.582-8.308 3.309-10.976.757-1.483-1.416-1.864-5.497-.352-6.866.669-1.512 7.239-3.22 9.47-3.102l.297.489c-.221 1.969-1.928.92-3.638 2.345l-.023.664c.693.94.405.859 1.288 1.057.824-.463.941-.588 1.853-.673.839.556.585.446.996 1.64q.438.995.862 1.995"/><path fill="#f0f3ee" d="M343.951 398.486c-1.028.376-1.474.533-2.543.734-1.107-.347-.807-.082-1.398-.915l.224-.734c1.098-.958 1.229-.731 2.855-1.081q.438.995.862 1.995M377.19 360.752l.183.175c1.675 1.28 2.447 4.757 1.328 6.57-3.431-.219-4.101-4.248-2.511-6.744"/><path fill="#003271" d="M179.163 393.112c2.022.498 6.373.859 7.217 2.511l-.304.585c-1.717.513-2.128-.699-3.871-.233-1.614 2.47 1.632 1.742 2.695 2.951-.146.786-.264.798-.83 1.357-.258 1.317-.02 1.2-.803 1.99.841.175.807.143 1.418.734l-.073.577c-1.111.999-3.64.457-4.861-.172-1.187-.612-1.167-1.154-1.525-2.307-1.607-1.206-2.683.472-5.094.658l-.175-.419c.813-1.844 4.744-6.513 6.205-8.232"/><path fill="#f0f3ee" d="M183.268 402.273c-.641-.122-1.212-.297-1.837-.475-.719-.819-.549-.361-.593-1.395l.587-.548c1.302-.251 1.3-.023 2.647.428-.258 1.317-.02 1.2-.803 1.99M221.851 362.363l.234.285c-.23 1.349-.238 2.639-1.532 3.286-.694-.437-.5-.146-.741-.789.341-1.116 1.228-1.893 2.039-2.782"/><path fill="#003271" d="M158.505 387.49c.496.064 1.394.172 1.86.3a4.1 4.1 0 0 1 2.54 2.059c2.516 4.8-3.471 7.649-3.706 8.36.894.562 1.466.915 2.223 1.675l-.65.498c-3.65.539-10.031-8.879-2.268-12.893"/><path fill="#f0f3ee" d="M158.609 389.416c.936.006.89.009 1.757.385.753 2.086.417 4.384-1.205 6.094-4.064.163-1.971-4.608-.553-6.478"/><path fill="#003271" d="M325.591 400.983c.355-1.934.749-6.047 1.969-7.198.013.947 3.629 8.45 3.053 9.997l-1.733.623c-1.014-.402-1.142-.47-1.937-1.212-.947.603-.452.466-1.521.489-.387.274-1.235.89-1.649 1.005l.012.402c-.851.67-.382.536-1.451.422-.958-1.104-2.738-8.58-2.01-9.52.69-.188 1.209-.421 1.893-.261.226 1.29 2.453 3.647 3.373 5.252"/><path fill="#f0f3ee" d="M327.676 398.224c.626 2.386.862 3.784 1.203 6.181-1.014-.402-1.142-.469-1.937-1.212zM322.66 399.258c.947 1.387 1.879 2.986 2.761 4.425-.387.274-1.235.891-1.649 1.005-.414-1.666-.769-3.72-1.113-5.43"/><path fill="#003271" d="M369.631 388.006q.03-1.875.108-3.749c.058-1.18.093-2.458.947-3.236.039.35 4.859 7.865 3.979 9.505-.97.306-.539.358-1.349.029-.719-1.745-1.264-3.501-1.844-5.296-.09 2.336.233 4.468-1.337 5.937l-1.736 1.523c-.833.417-.929.52-1.826.516-.559-1.366-3.329-8.191-3.123-9.033.912-.484.967-.51 1.972-.687.282 1.188 2.986 3.158 4.209 4.492"/><path fill="#f0f3ee" d="M366.287 386.893c1.357 1.657 2.336 2.791 3.848 4.302l-1.736 1.523c-.696-1.55-1.526-4.157-2.112-5.826"/><path fill="#003271" d="M301.984 398.912c.903-.076 1.095-.067 1.995.035.542.757 1.523 8.512 1.162 9.534-.993.358-.507.341-1.506.084-.708-.926-.813-4.317-.967-5.77-.495 1.687-.623 3.895-1.96 4.841-1.751-.294-1.858-2.153-3.088-3.443l-.076.556c.198 1.186.819 3.874.382 4.83l-.958.195c-1.387-.979-2.732-9.447-.571-10.323.541.725 3.088 4.18 3.909 5.779q.821-3.163 1.678-6.318M349.84 388.702c.912-.536.58-.51 1.509-.47.305 1.463 3.638 7.988 1.809 9.614-1.389-.073-4.704-3.892-5.843-5.06.326 1.133 1.719 5.37 1.477 6.193-1.092.37-.824.475-1.637.13-.982-2.041-2.429-6.527-2.214-8.79l.352-.545c1.471-.262 1.719.15 2.735 1.183-.218-.588-.53-1.13-.355-1.69.92-.116 1.052-.156 1.94-.48z"/><path fill="#f0f3ee" d="M348.029 390.956c-.218-.588-.53-1.13-.355-1.689.92-.117 1.052-.157 1.94-.481l.227-.084c.559 1.911 1.116 3.924 1.733 5.808-.638-.612-3.178-2.98-3.545-3.554"/><path fill="#003271" d="M250.111 405.737c.015 1.244.23 5.179-.236 6.044l-.746.285c-1.536-.696-1.805-9.106.143-10.044.06.25 1.328.59 1.85 1.57.772-.355 1.707-.513 2.601-.912.88-.562.419-.437 1.416-.45.99 1.399.88 8.309-.134 9.768-2.103.382-3.863-4.646-4.894-6.263"/><path fill="#f0f3ee" d="m295.96 369.407-.023 6.105c-.842-1.719-1.684-3.507-2.578-5.194.772-.355 1.707-.513 2.601-.912"/><path fill="#003271" d="M188.662 395.262c2.158.387 6.066.845 6.721 3.277-.871 4.078-2.785.711-1.532 7.571l-.423.297c-.942-.096-.891-.099-1.679-.647-.377-1.381-.387-3.688-1.894-3.944-1.229 1.311-.149 2.424-1.787 3.679l-.558-.186c-1.102-1.759.664-7.594 1.151-10.047"/><path fill="#f0f3ee" d="M190.392 397.484c1.068.189 1.334.169 2.232.719.479 1.054.337.702.126 2.036-.907.184-1.679.338-2.445-.117-.444-.888-.133-1.614.087-2.639"/><path fill="#003271" d="m275.33 368.154.564.067c1.664.845 2.954 4.833 3.79 6.671.047-1.384.246-4.929.597-6.207l.615-.189.521.315c.881 1.835.212 7.177.121 9.747-1.737-.032-2.318-.294-3.053-1.946-.734-1.649-1.336-3.015-2.23-4.594-.052 1.523.027 5.004-.769 6.085-1.09-.055-.82.128-1.419-.484-.246-1.966.165-7.154.263-9.464M181.038 352.383l.004-.344c.09-5.526 6.642-3.93 6.8-.851-1.279.964-3.051-.868-4.544-.749-.597 2.036 6.368 4.305 1.986 7.763-1.585 1.25-6.764-.6-5.81-3.315.534-.288.685-.399 1.277-.562-.123-.545.207-1.25.287-1.943"/><path fill="url(#d)" d="M138.801 385.658c1.414 1.325 2.94 2.205 3.164 4.113l-.396.277c-1.901-.347-2.276-.821-3.055-2.447-.123-.545.207-1.25.287-1.943"/><path fill="#003271" d="M215.36 399.727c1.809.169 4.249.198 5.661 1.363.755 3.1.218 5.485-3.278 5.555l-.427-.137-.415.277c-.328 1.72-.528 2.074-1.833 3.23l-.571-.329c-.18-1.22.683-8.293.865-9.959"/><path fill="#f0f3ee" d="M217.284 401.749c1.045.096 1.748.032 2.541.673.468.853.31 1.162.154 2.191-1.021.079-1.764.262-2.646-.189-.436-1.072-.197-1.422-.05-2.674"/><path fill="#003271" d="M207.306 403.132c5.36 5.403-6.929 7.163-6.171 2.689l.733-.481c2.016.119 1.621 1.78 4.122 1.124l.145-.492c-.865-1.564-3.683-3.207-4.157-4.352-1.339-3.242 5.903-5.068 6.698-1.244l-.661.932z"/><path fill="#f0f3ee" d="M207.306 403.132c-1.367-.618-2.873-.967-2.736-2.636l.644-.297c1.169.012 1.774.513 2.801 1.11z"/><path fill="#003271" d="M262.785 406.374c2.386.594 3.359 2.546 1.687 4.535a4.06 4.06 0 0 1-2.951 1.442c-1.503.052-2.517-.722-3.507-1.727-.073-.789-.163-.437.265-1.092.871-.204 2.182.463 3.181.792.819-.143.88-.082 1.474-.685-.76-1.873-4.294-1.928-5.185-4.69.285-3.539 6.758-3.796 6.807-1.113l-.915.894c-.28.851-.277.996-.856 1.643"/><path fill="#f0f3ee" d="M262.785 406.374c-1.398-.402-1.707-.352-2.447-1.413l.134-.6.749-.382c1.154-.064 1.404.16 2.421.752-.28.851-.277.996-.856 1.643"/><path fill="#003271" d="M358.297 385.71c1.334.976 6.254 7.055 5.392 8.838-1.937.705-.932-.722-2.613-1.486-3.825.897-1.695 2.013-3.848 3.752l-.667-.239c-.379-2.534-.329-6.854-.277-9.543.012-.612 1.308-.999 2.013-1.322M314.641 396.776c1.101.623 4.55 7.716 5.048 9.167-.638.679-.262.51-1.136.585-1.337-.734-1.212-1.564-2.161-2.054-3.886.382-2.298 2.63-4.503 3.088l-.385-.364c.035-2.255.807-6.974 1.136-9.388.626-.807.888-.682 2.001-1.034M287.74 400.683c1.008-.105 1.407-.224 2.357.047.054 1.794 3.161 6.93 3.793 8.978l-.303.387-1.156.05c-.909-.533-.819-.862-1.308-1.987-5.071.052-2.042 1.456-4.331 2.994-.851-.14-.457.03-1.148-.676.315-2.63 1.436-7.148 2.097-9.793"/><path fill="#f0f3ee" d="M288.949 403.097c.877 1.002 1.491 2.406 1.101 3.696-.941-.134-.772.026-1.401-.495-.347-1.025.05-2.089.3-3.201"/><path fill="#003271" d="M166.438 389.698c.795.192.789.192 1.502.594.016 2.467-2.203 5.613-.839 7.984.999 1.893 2.993-5.12 4.776-6.907.841.032.845.084 1.577.434l-.014.711c-.475 1.841-1.54 7.081-2.986 7.533-9.088 2.834-4.673-8.153-4.016-10.35M272.634 401.603c1.261.16 1.089-.052 1.934.623.446 2.333.711 6.362-.641 8.412-1.171 1.774-3.321 2.313-4.952.76-1.783-1.701-1.64-3.201-1.719-5.47-.082-1.325-.216-2.272.061-3.58.597-.521.242-.379 1.145-.321.908 1.71-.163 7.341 2.362 8.325.942-.769 1.838-5.966 1.809-8.75M224.643 400.814c1.671.038 6.192-.221 6.345 1.745-1.592 1.188-2.74-.341-4.202.53-.292.775-.244.778-.137 1.567.106.722 1.193.073 2.909.518.472.731.339.315.186 1.352-1.547 1.197-2.065-1.142-3.98 1.346.008 2.27 2.804.545 4.628 2.252l-.144.644c-1.016.51-4.992.055-6.429-.038q.37-4.96.823-9.916M277.233 401.431c.801-.006.833-.009 1.611.175.069 1.491.877 5.657 1.06 7.807.34-.052 2.17-.35 3.528-.06.749.605.51.392.661 1.688l-6.216.402c-.268-3.379-.527-6.627-.644-10.012M148.532 384.085c.912.227.99.23 1.774.719.256.979-2.371 7.856-2.836 9.17-1.075-.218-.863-.02-1.588-.661-.294-1.975 1.856-6.901 2.65-9.228M197.958 396.966c.986.207 1.089.233 1.984.676.029 1.279-1.168 7.716-1.449 9.572-.834-.14-1.407-.122-1.978-.714.034-1.879 1.088-7.422 1.442-9.534M243.42 401.886c.817.084.965.125 1.763.35.385 1.218.089 8.229.049 9.822-.648-.064-1.208-.166-1.844-.28-.562-1.057-.043-8.357.033-9.892"/><path fill="#9f1d2f" d="M250.644 62.822c32.258-1.411 69.884 7.39 98.343 22.401-.39.95-.9 1.951-1.363 2.88-2.726 5.484-4.908 11.168-7.606 16.668-24.923-12.022-49.688-19.194-77.492-20.247-30.934-1.414-62.655 6.539-90.241 20.284-2.589-5.36-6.853-14.26-8.921-19.721.077-14.11 56.912-21.061 87.281-22.265"/><path fill="#fce4d7" d="m366.092 46.632.061 1.08-.204 8.666c1.832-1.98 3.851-4.444 5.634-6.514l2.802 1.356c-.76 1.955-3.178 9.211-4.291 10.352-.961-.24-1.203-.13-1.8-.717.087-1.395.955-3.11 1.529-4.448.329-.765.687-1.243.591-1.97-1.821 1.206-3.804 5.66-5.957 4.965-.976-1.51-.428-6.488-.417-8.797-.816 2.176-1.369 5.608-2.86 7.103-.987.285-.594.253-1.727-.218-.387-1.193 2.994-9.107 3.638-10.858M244.938 68.075c3.168-.191 11.188-.551 7.343 5.09.026 1.016.629 1.348 1.267 2.553.026 1.242-.096 1.434-.632 2.57-2.505 1.617-4.966 1.327-7.914 1.356-.008-1.976-.613-10.436-.064-11.569"/><path fill="#9f1d2f" d="m289.602 41.099.331-.011c1.306-.04 2.235-.164 3.2.741.329 1.177.242.778-.07 2.091-.993.238-2.175.577-3.047.119-.604-.821-.428-1.849-.414-2.94M247.206 69.951c1.133-.023 2.179-.164 3.056.455.536.796.417 1.06.341 2.087-.947.283-2.126.589-2.996.132-.595-.787-.421-1.626-.401-2.674"/><path fill="#fce4d7" d="M230.474 69.507c4.275-.657 6.193 3.116 3.207 6.474.03 1.51 2.244 2.84 2.156 4.627l-.685.355c-1.939-.899-2.271-1.752-3.383-3.56l-.36-.409c-3.291-.506-.699 2.394-1.635 4.22-.854.396-.811.365-1.755.191-.944-.91-.91-3.982-1.16-5.45-.321-1.89-.545-3.954-.812-5.867z"/><path fill="#9f1d2f" d="M229.255 71.527c1.516-.068 2.253-.29 3.269 1.027.168.992.048 1.116-.334 2.098-.92.225-1.137.261-2.082.268-.959-.549-.667-.223-1.186-1.18 0-1.091-.039-1.216.333-2.213"/><path fill="#fce4d7" d="M298.993 72.623c.784.144 1.089.224 1.853.461.66 1.657 2.304 5.736 3.26 8.36.501-2.133.693-5.879 2.563-6.896.049.207.83-.004 1.331.66-.189 2.418-1.794 7.683-2.377 10.728-.894.095-1.046-.006-1.934-.275-1.497-1.377-2.359-5.953-3.364-8.433-.373 2.02-.673 6.246-2.595 7.041l-.836-.368c-.661-1.353 1.605-9.263 2.1-11.28M198.084 76.73c2.609.343 4.739 2.124 3.408 4.862-1.086 2.234-2.375 2.555-4.533 3.373a80 80 0 0 1 .397 1.373c.381 1.38.648 1.776.055 2.828-.737.073-.736.094-1.455-.044-1.306-1.398-3.132-8.378-3.798-10.578.291-.828 3.555-1.225 5.927-1.814"/><path fill="#9f1d2f" d="M197.755 78.757c3.191.968 1.581 3.074-.723 4.067l-.593-.076c-1.063-1.06-1.183-1.574-.817-3.026.732-.85.884-.662 2.133-.965"/><path fill="#fce4d7" d="m328.684 36.91.083.41c1.8 1.79-2.869 7.565.207 9.821.99.196 1.04.232 1.94-.139.429-2.422.376-7.062 2.93-8.767.894.038.853.01 1.614.467l-.006.968c-1.072 5.057-1.628 14.267-9.511 7.565-1.267-1.078.475-8.54.743-10.325M311.818 75.787c.399.115 1.456.382 1.634.685.255 2.134-1.655 6.02-1.64 8.337.006.865.364 1.02.786 1.422.008.327 1.081.392 2.091.214.252-1.866 2.022-7.693 3.816-8.497.99.183.938.164 1.698.834l-.087.732c-1.561 5.073-3.624 14.057-10.428 6.527-1.124-1.244 1.608-8.65 2.129-10.253M256.662 67.878c1.081-.022 1.32-.075 2.333.225.011 2.878-1.532 7.692 1.305 9.482.034.107 1.104.154 1.978-.325.01-2.651-.507-7.482 1.474-9.277.807-.048.985-.11 1.739.223l.14.825c-.015 1.923.312 7.667-1.267 9.29-2.473 2.542-7.448 1.461-7.748-2.573-.175-2.326-.017-5.296.047-7.87M220.048 70.892c1.076-.057 1.282-.079 2.329.101.825 1.433 1.897 8.805.957 10.176-1.266 1.844-4.833 2.683-6.689 1.201-1.618-1.293-1.891-4.437-2.289-6.338-.292-1.408-.744-2.405-.281-3.578.877-.33.964-.41 1.868-.333.346 1.572.45 8.967 3.804 9.263.166-1.475.71-7.22.301-10.49M183.61 81.585c.35.09.699.39 1.018.612.12.562.132.291-.009.812-.741.875-3.341 1.994-4.504 2.569-.135.671-.026.738.15 1.444.523 1.331 2.406-.514 4.775-.53.632.587.416.216.482 1.241-.605.65-2.948 1.518-3.905 1.921.357.931.528 1.775 1.31 2.304.224.226 2.957-.823 4.303-1.4l.453.187c.526.85.475.426.319 1.286-1.179 1.123-5.101 2.56-6.806 3.248-1.536-3.398-2.972-7.263-4.35-10.759q3.364-1.508 6.762-2.936M271.425 68.543c.198-.017.402-.032.603-.045.243-.13 5.168.776 5.319 3.375-1.917 1.336-3.991-2.88-5.671-.953-.236 3.046 6.111 3.277 5.389 7.29-.807 1.352-2.121 1.844-3.577 2.21-1.937-.022-4.835-.92-5.389-3.027.251-1.007.029-.761.719-1.261.346.22 1.987 1.664 3.976 2.28.139-.141.719.049 1.579-.721M246.863 40.921l.152.184c1.1 1.132 2.261 7.231 2.702 9.098.345-.317 3.724-1.068 4.921-.745.297.745.304.69.24 1.484l-.77.283a122 122 0 0 0-6.213 1.68c-.85-3.306-1.837-6.626-2.526-9.972-.245-1.19-.08-1.209.495-2.01M238.374 68.539c.842-.029 1.25.001 2.093.081.787.897 1.136 9.671 1.259 11.502-.876.033-1.283.005-2.159-.077-.718-1.086-1.071-9.596-1.193-11.506"/><path fill="#f6efd2" d="M277.793 326.433c2.208-.306 8.806-.149 11.387-.149l23.356.026c-.032 4.978.65 14.862-1.197 19.007-2.322 5.208-16.586 8.584-21.917 10.338l-33.399 11.008c-5.864-2.249-13.867-4.646-20.001-6.691-9.153-3.094-18.433-5.966-27.566-9.106-4.938-1.701-6.435-3.027-8.533-7.544.457-.98 43.434-.358 64.667-4.215.221-4.398 9.604-8.153 8.814-11.337l.428-.594c1.238-.676 2.523-.632 3.962-.743"/><path fill="#e9b12c" d="M369.223 291.779c.953.217 6.807 3.412 8.206 4.106.413 2.194 7.941 3.82 12.607 5.454.315 2.386.507 4.364.682 6.758-2.802 2.572-5.797 5.165-8.179 8.107-6.047 7.464-3.158 13.53-2.185 21.73-1.084 1.75-2.065 2.877-3.51 4.351-4.833 4.923-8.803 10.571-12.319 16.484-1.596 2.683-2.858 5.561-4.594 8.171l-.207.31c-.996.363-2.269.684-3.309.975-2.208.687-3.257 2.351-4.567 4.122a319 319 0 0 1-8.695-3.137c.742-6.572 10.894-6.831 13.128-10.734.412-4.632 11.762-17.842 11.238-22.724-.498-4.617-3.999-16.373-4.911-21.663-1.794-10.39 1.072-14.19 6.615-22.31M275.721 378.705a30.1 30.1 0 0 0-9.211 7.174c-.993 1.13-2.156 2.61-2.919 3.912-1.643 2.808-1.151 3.597-4.766 3.152-.329-.982.618-2.989 1.063-3.944.83-29.554 55.252-23.737 80.583-16.407.218 1.221 9.811 3.1 13.828 5.071-5.412 1.885-6.213 1.43-11.844.915a34.2 34.2 0 0 0-10.763.795 35.7 35.7 0 0 0-9.93 4.104c-5.634 3.45-5.852 4.104-12.359 5.046.974-4.83 4.468-6.872 8.724-10.923-5.331 1.579-10.58 3.705-14.789 7.44-1.923 1.704-6.036 6.895-9.033 5.482.463-3.61 5.159-10.472 7.387-13.536-7.981 3.225-13.067 7.306-17.233 14.914-1.258.119-1.614.36-2.633-.134-.728-1.643 1.218-5.118 1.786-6.976.09-1.191.218-1.456-.387-2.397-1.043-.245-1.675.198-2.756.638-1.221.94-2.409 2.214-3.388 3.402-1.567 1.899-2.525 4.364-4.241 6.132-.006.003-1.459.184-1.57.099.026.023-.673-.111-.626-.102-.318-.428-.577-.583-.382-1.247.261-4.294 3.382-8.76 5.459-12.61"/><path fill="#1a303e" d="M280.47 383.03c1.751-1.896 4.331-3.874 6.65-5.01a147 147 0 0 0-3.507 6.77c.09-1.191.218-1.456-.387-2.397-1.043-.245-1.675.198-2.756.638"/><path fill="#e9b12c" d="M202.468 366.925c9.627-1.264 25.273.821 33.914 5.372.811 4.637 14.306 11.302 17.426 20.725l-3.306-.003c-4.165-7.105-6.785-10.143-14.023-14.302.036 3.772 4.095 8.36 5.458 12.546.207.635-.27 1.11-.611 1.49-.665.126-1.822.152-2.198-.485-3.839-6.507-7.634-10.265-14.097-14.364.602 2.907 5.831 10.76 5.467 13.906-1.525 1.812-3.694-1.67-4.521-2.86-2.006-2.887-3.879-4.923-6.613-7.11-3.256-2.412-5.297-3.283-8.941-4.914a47.1 47.1 0 0 1 7.792 13.863l-3.716-.475c-8.192-7.824-9.415-8.981-20.589-12.926.671 3.286 6.601 6.834 8.964 11.171-6.149-.839-6.754-1.564-12.02-4.803a36.7 36.7 0 0 0-10.542-4.442c-7.549-1.832-10.937-.079-18.048-.428-.669-.032-3.592-1.002-4.422-1.276.104-5.738 30.44-9.563 44.628-10.685M145.827 296.607c.134.117.188.154.345.347.496 11.632.319 26.009-1.197 38.702-.11.923-.042 2.974.451 4.037.209 6.936 7.083 14.282 11.486 20.534.602 3.519 7.073 3.158 12.173 9.228-3.106.996-5.699 1.89-8.731 3.082-2.241-2.738-3.213-3.23-6.528-4.241-2.29-1.177-4.15-5.861-5.61-8.238a169 169 0 0 0-7.099-10.615c-2.564-3.548-6.821-6.88-9.004-10.54.314-5.286 2.474-11.354.491-16.572-1.967-5.177-7.209-9.11-11.009-13.06.959-1.466 6.857-2.75 9.972-4.192.246-2.427 9.537-5.165 14.26-8.472"/><path fill="#9f1d2f" d="M328.841 63.587q.213-.015.425-.029c.591-.35 38.363 19.625 45.572 25.962-4.372 1.283-8.643 3.058-13.19 4.28.417 3.951 1.151 8.285 1.777 12.226l.323 2.38c-5.208-3.575-12.013-7.706-16.831-11.306.754-3.355 4.355-9.57 5.896-13.18-5.666-2.905-11.084-5.575-17.006-7.962-3.848-1.55-7.681-2.905-11.486-4.567.293-3.452 1.11-5.976 4.518-7.806M181.21 63.605c4.964-.316 5.4 4.147 6.505 7.923-9.806 3.97-18.859 6.969-28.251 12.482a1147 1147 0 0 0 6.009 13.096c-2.224 1.446-16.102 10.88-16.917 10.849.456-4.396 1.341-9.692 2.021-14.08a464 464 0 0 1-13.228-4.376c8.128-6.838 34.232-23.301 43.86-25.893"/><path fill="#e9b12c" d="M311.081 206.677c1.666-.182 4.946-.243 6.519.357.83 2.955 17.125 8.403 24.492 12.436-3.828 7.92-4.311 9.109-6.204 17.911-1.678-1.904-3.198-3.933-4.751-5.942-3.83-4.483-9.327-12.236-13.032-17.099-7.716 1.954-14.535 1.848-22.214.237.215-4.495 9.196-6.83 15.191-7.892M196.004 206.662q.846-.041 1.693-.069c7.649-.249 13.956 2.841 19.468 7.992-8.92 1.488-14.086 1.843-23.042-.19-1.889 2.159-5.087 6.72-6.967 9.186a928 928 0 0 1-8.173 10.659c-1.128-7.152-1.742-10.496-3.904-17.38.458-2.117 17.287-9.441 20.926-10.197"/><path fill="#f6efd2" d="M281.515 230.249c10.769-.849 13.303 10.823 8.144 18.434-1.031 1.518-2.837 2.215-4.544 2.778-12.893 1.558-14.489-17.869-3.6-21.212"/><path fill="#003271" d="M281.763 234.288q.481-.054.967-.076c.695-.246 5.392 9.9 2.258 13.147-6.636 2.054-7.008-9.6-3.225-13.072"/><path fill="#f6efd2" d="M255.914 230.439c4.209-.073 10.195-.759 13.702 2.063.009 2.423 1.29 5.861-.912 8.179.114 1.954 3.149 4.532 2.269 7.689-3.329 4.044-10.169 2.918-15.048 2.864a843 843 0 0 1-.012-20.793"/><path fill="#003271" d="M260.825 242.412c3.353-.022 7.239-.417 5.281 4.368-1.643.874-3.478.662-5.328.632-.015-1.642.029-3.352.047-4.999M260.804 234.314c3.085-.026 7.116.107 4.637 4.362-1.655.55-2.939.443-4.643.369z"/><path fill="#f6efd2" d="M295.62 230.448c6.135-.115 16.371-1.648 15.622 7.636-.163 2.038-1.911 3.553-3.394 4.703q2.11 4.168 4.09 8.397l-4.407.068c-2.572-.01-2.141-5.244-4.815-7.333-.923-.304-.877-.276-1.821.026-.457.631-.291 6.111-.294 7.339l-4.969.001z"/><path fill="#003271" d="M300.633 234.334c3.699-.064 7.431.57 4.771 5.218-1.899.568-2.802.497-4.803.506q-.006-2.862.032-5.724"/><path fill="#f6efd2" d="m271.815 197.165.914-.015.008 3.695c-.012 4.01.887 12.002-1.737 15.011-3.754 4.305-13.651 2.932-14.144-3.778-.361-4.913-.152-9.937-.107-14.909l4.921.005c-.007 2.704-.694 15.315 1.27 16.603.926 4.54 4.895-12.647 4.874-16.611M238.613 230.438c4.37-.114 9.392-.002 13.803.004l.035 3.927-8.911-.031.011 4.358.609.026-.029 3.774c-2.145-.022-5.171-.142-7.236.086l-.33.446-.024 4.351.915.015.058 3.837-13.917.038zM241.484 197.146l.221.013-.021 3.995-5.712-.026.013 10.402.04 6.475-4.951-.02.033-16.803-5.626-.01z"/><path fill="#d3b063" d="M279.966 186.87c4.066-.992 9.35-2.442 13.388-3.138.079.735.178 1.348.114 2.088l-.431.08c-1.652 2.555-2.817 2.015-5.669 1.822l-.058.918c1.174.292 9.49.154 11.666.74l2.266.083-.484.523.83.293.084.71c-1.011.449-.644-.542-1.037.316.603.087 1.226.155 1.815.297q-10.342.111-20.687.084l.157-2.237-1.445-.216c-.067-1.062-.186-1.33-.51-2.363"/><path fill="#d3b063" d="M279.966 186.87c4.066-.992 9.35-2.442 13.388-3.138.079.735.178 1.348.114 2.088l-.431.08c-2.936.71-10.041 2.278-12.56 3.333-.067-1.062-.186-1.33-.51-2.363"/><path fill="#2c3025" d="M280.475 189.233c2.52-1.055 9.624-2.623 12.56-3.333-1.652 2.555-2.817 2.015-5.669 1.822l-.058.918c1.174.292 9.49.154 11.666.74-5.383.224-11.576.033-17.055.069z"/><path fill="#e9b12c" d="M293.353 183.732c1.133-.421 1.159-.204 1.599-1.002a26 26 0 0 0-.717-1.91c.86.166 6.522.563 9.336 1.14-1.212.94-6.432 5.29-7.544 5.17-.323-.681-.259-.767-.227-1.51-.851-.333-1.372-.06-2.333.2.064-.74-.035-1.353-.114-2.088M293.691 195.374c.81.189 1.512.466 2.26.156-.079-.74-.099-.927.181-1.653l.361-.191c2.097 1.554 5.401 3.859 7.279 5.507-1.815.292-7.626 1.277-9.132 1.094.099-1.392.769-.75.711-2.101-.568-.361-.521-.35-1.191-.427zM343.479 156.188l.757-.277c.242-.726.108-.925-.114-1.655l.297-.272c2.295.546 6.178 2.149 8.453 3.111-1.899.879-6.432 3.313-8.278 3.052-.393-.726-.178-.729.093-1.819-.588-.142-1.212-.21-1.815-.297.393-.859.026.132 1.037-.316l-.084-.71-.83-.293z"/><path fill="#d3b063" d="M281.754 192.155c3.97 1.242 7.903 2.216 11.937 3.219l.469 2.385q-6.44-1.525-12.828-3.281z"/></g></svg>