<svg xmlns="http://www.w3.org/2000/svg" width="512" height="512" viewBox="0 0 512 512"><defs><clipPath id="a"><circle cx="256" cy="256" r="256"/></clipPath></defs><g clip-path="url(#a)"><path fill="#002a86" d="M-128 512h768V0h-768z"/><g fill="#efae0e"><path d="m263.395 87.135 11.784-8.565-14.953.1-4.495-13.288-4.12 13.162h-14.567l11.786 8.591-4.722 14.139 12.01-8.79 11.985 8.79-4.71-14.137m-106.897 34.062 11.559-8.992-14.779.626-4.933-13.275-4.057 13.5-14.365.64 11.61 8.24-3.895 14.039 11.784-9.217 12.21 8.365zM92.04 220.483l14.964-1.176-12.648-7.703 3.218-13.724-10.706 9.229-12.65-7.514 5.786 13.312-11.345 9.606 14.777-1.265 5.397 13.812zm13.712 108.428 10.895-10.193-14.577 1.928-5.998-12.649-2.781 13.95-14.351 1.704 12.637 7.05-2.994 14.578 10.92-10.27 12.46 7.377zm75.377 76.141 2.567-14.576-10.882 10.393-12.423-6.624 6.387 12.748-10.508 10.07 14.364-1.929 6.212 13.475 2.768-14.765 14.564-1.917-13.062-6.849"/><path d="m223.76 91.406-1.717-.852-1.703-.852-3.644-.413-3.433.213-2.779.64-3.432.85-2.793.201 4.296-2.354 5.561-3.194 5.573-3.87 1.928-1.927 1.503-1.717 1.077.213 1.264-.439.865-.626.639-.863.213-1.265-.213-1.303-.64-1.077-1.076-.638-1.29-.413-1.065.225-1.064.638-.852 1.065-.213 1.277.213 1.078.426 1.076.852.852-.213.2-3.42 3.006-4.07 2.793-4.294 2.342-4.497 2.354-9.204 3.857-9.216 2.793 1.715-1.077 1.753-1.178 6.424-3.206 4.897-2.88 2.129-1.928 1.941-2.155 1.928-2.153 1.265-2.568 1.29-2.767.64-3.006-2.782.413-2.354.664-2.58 1.052-2.14 1.29-4.271 2.993-3.645 3.645-3.206 3.857-2.58 3.845-1.928 3.444-1.277 2.541-.413.45-1.078-.45-.426-.826.2-1.29.426-1.503 1.29-3.644 1.066-3.832h1.076l1.065-.439.864-.864.426-1.077v-1.051l-.426-1.078-.864-.852-1.065-.437h-1.29l-1.077.437-.626.852-.426 1.078-.213 1.051.426.864.426.626.865.64-1.078 3.456-1.502 3.832-1.93 4.082-1.928 3.207-9.204 5.56-.213-.84v-1.29l.85-2.793.865-1.489 1.49-1.278 3.007-2.367 1.076-1.489.852-2.355.426-3.006v-4.282l-.64 1.076-1.289.864-3.207 2.118-3.43 2.567-1.49 1.527-1.291 1.903-.426 1.29.213 1.716.64 1.716 1.064 2.13.425 1.289v1.277l-.213 2.793-2.767 2.141-.864.64-.213.638.213.413.226.225 1.264.213 1.29-.626 3.418-2.153 2.793-.427h3.206l1.503.426 1.503.626 1.277.864.852 1.29-.639 1.077-.2 1.052.2 1.303.426 1.051 1.078.852 1.276.439 1.29-.213 1.278-.64.864-1.077.413-1.276-.2-1.29-.64-1.077-.863-.826-1.064-.452h-1.29l-1.064.45-1.93-1.94-2.14-1.49-2.355-.64-2.355-.212 4.27-2.568 2.355-.437 2.155.213 2.354.437 2.354 1.052 3.218 1.942 4.07 1.703 2.142.64 2.141.224h2.355l2.141-.64 3.645-1.514 1.277-.413h1.49l-1.064-1.503-1.929-1.728-3.845-3.406-2.567-1.078-2.792-.438-2.781.225-2.354.852-3.006 1.278-3.005.876-2.78.413-2.568-.639 3.858-1.928 2.993-1.49 10.069-3.42 2.58.19 2.78 1.076 2.555 1.277 2.366 1.703 3.631 1.942 3.645 1.076 3.857.439 3.857-.439 3.432-1.076 3.193-1.49 2.793-2.155 1.929-2.567-2.58.213-2.78-.414-2.78-.85-2.568-1.504m-92.534 52.91-1.93.226-1.928.439-3.006 1.928-2.554 2.13-1.929 2.354-2.141 2.78-2.141 1.716 1.928-4.282 2.567-6.213 1.916-6.211.426-2.793v-2.13l1.077-.626.64-1.076.437-1.078v-1.076l-.651-1.278-.852-.851-1.277-.414-1.277.188-1.078.439-.852 1.077-.437 1.052v1.302l.437 1.076.852.827 1.078.438 1.277.202v.224l-1.064 4.497-1.504 4.72-1.928 4.697-2.141 4.52-4.934 8.755-5.348 7.739 1.49-4.282 3.005-6.438 1.93-4.91.425-2.793.426-3.004v-2.793l-.426-2.98-.851-2.793-1.29-2.793-1.716 1.941-1.715 2.153-1.265 2.118-1.078 2.354-1.502 5.135-.64 5.16v4.922l.214 4.495.652 3.87.625 2.98-.2.64-1.077.212-.852-.439-.651-1.052-.64-1.515-1.063-3.644-1.503-3.645.852-.638.426-1.077.225-1.052-.225-1.064-.852-.865-.852-.639-1.278-.187-1.076.413-.852.639-.639 1.076-.213 1.052.426 1.078.64.851.638.64.863.212h1.065l1.278 3.206 1.077 4.082 1.064 4.283.213 3.845-3.645 10.069-.85-.626-.626-1.078-1.078-2.567-.213-1.94.426-1.904.865-3.645v-1.715l-.865-2.367-1.503-2.768-2.567-3.445v1.291l-.426 1.49-1.077 3.645-1.277 4.282-.2 2.154.2 2.13.426 1.277 1.076 1.29 1.704 1.077 2.14.852 1.078.638.852 1.077 1.502 2.354-1.063 3.419v1.077l.211.64.213.212h.426l1.065-.651.852-1.278 1.29-3.845 1.715-1.928 2.782-1.928 1.5-.64 1.491-.438h1.504l1.5.44v1.075l.627 1.078.864.826 1.065.639h1.502l1.065-.413 1.078-1.052.424-1.078.213-1.515-.637-1.051-.852-1.078-1.29-.638h-1.077l-1.265.413-.864.64-.64 1.076-2.566-.413-2.567.2-2.367.851-1.93 1.29 1.717-4.721 1.502-1.49 1.93-1.29 2.14-1.052 2.568-.663 3.644-.415 4.27-1.076 2.142-.852 1.93-1.277 1.714-1.302 1.29-1.904 1.929-3.232.852-1.051 1.064-1.077-1.716-.439-2.554-.413-5.148-.225-2.567.64-2.58 1.514-2.14 1.916-1.279 1.928-1.49 2.981-1.928 2.593-1.93 1.69-2.354 1.303 1.717-3.87 1.49-2.98 5.785-9.005 2.355-1.303 2.404-.95 3.369-.54 2.58-.188 4.07-.663 3.644-1.278 3.206-2.13 2.793-2.59 2.354-2.98 1.503-3.208.838-3.206v-3.444l-1.915 1.93-2.354 1.277-2.793 1.076-2.993.44M89.647 243.3l-1.503 1.278-1.064 1.515-1.504 3.419-.639 3.205v6.438l-.639 2.792-1.063-4.72-1.716-6.212-2.355-6.2-1.29-2.591-1.276-1.93.425-1.051v-1.077l-.425-1.077-.652-.852-1.265-.639h-1.29l-1.077.226-1.065.852-.638 1.076v1.278l.425 1.264.852.878.865.638 1.276.2 1.065-.2 1.065-.851v.413l1.928 4.282 1.716 4.496 1.29 4.721 1.064 4.923 1.29 10.068.427 9.418-1.028-1.804-.639-2.38-1.114-6.937-1.503-5.134-1.277-2.593-1.49-2.555-1.716-2.367-2.141-1.904-2.355-1.94-2.58-1.29-.426 2.593v2.541l.852 5.135 1.929 4.946 2.58 4.497 2.98 4.057 3.006 3.432 2.78 2.78 2.355 1.941v.626l-.64.864-.838.213-1.29-.438-1.29-.852-2.994-2.354-1.715-1.077-1.715-.852.213-1.076-.213-1.265-.628-.865-.863-.639-1.065-.438-1.076.225-1.065.64-.651.85-.426 1.077.213 1.265.651.865.852.852.85.225h1.065l.852-.438.652-.64 2.993 1.929 3.431 2.568 3.432 2.793 2.567 2.793 2.98 10.269h-.852l-1.276-.415-2.356-1.515-1.276-1.276-.865-1.717-1.502-3.418-1.278-1.515-1.916-1.278-2.793-1.515-4.07-.826.64.826.637 1.515 1.29 3.645 1.49 4.057 1.078 1.941 1.502 1.49 1.265.851 1.503.226h1.929l2.355-.863h1.289l1.29.426 2.567.85 1.265 3.444.652.84.425.438h.426l.425-.439.44-1.077-.227-1.49-1.277-3.618.426-2.793.851-3.207.652-1.515 1.065-1.077 1.29-1.051 1.277-.44.852.853 1.076.413 1.278.225 1.077-.225 1.064-.826.864-1.078.213-1.265-.426-1.303-.651-1.29-1.277-.638-1.29-.2-1.29.413-1.064.64-.626.85-.226 1.278v1.076l-2.354 1.304-1.93 1.702-1.276 2.154-.865 2.13-1.264-4.722.2-2.342.852-2.154 1.077-1.916 1.49-2.153 2.792-2.568 2.567-3.419 1.29-1.928.852-2.13.426-2.153v-2.355l-.426-3.857-.212-1.278.425-1.515-1.716.877-2.354 1.277-4.07 2.793-1.716 2.13-1.064 2.566-.652 2.78.226 2.567.64 3.232v2.98l-.427 2.792-1.29 2.356-1.503-7.49-.852-10.494 1.065-2.593 1.716-2.341 1.928-2.13 2.142-1.94 2.792-2.782 2.141-3.43 1.266-3.645.652-3.644v-3.619l-.865-3.644-1.264-3.006-1.93-2.767-.437 2.541-1.065 2.568-1.503 2.593-2.141 2.13m27.638 103.904-.426 1.94.213 1.704.64 3.645 1.49 3.006 1.715 2.354 2.141 3.005 1.065 2.354-3.63-3.017-5.136-4.058-5.574-3.644-2.354-1.078-2.354-.626-.213-1.277-.651-.877-1.064-.638-1.078-.2-1.277.2-1.064.64-.852 1.076-.212 1.29.212 1.303.627.826 1.076.852 1.278.224 1.077-.224 1.064-.415.651-.85.426-1.304.426.226 4.07 2.154 4.07 2.755 3.844 3.019 3.858 3.419 7.063 7.075 6.011 7.289-2.103-.965-1.754-1.602-5.134-4.722-4.496-3.206-2.354-1.303-2.793-1.077-2.781-.639-2.793-.413h-2.993l-3.005.413 1.29 2.38 3.432 3.845 1.928 1.703 4.496 2.793 4.708 2.154 4.722 1.265 4.484 1.077 3.856.438 2.994.2.652.439v1.077l-.652.639-1.278.413h-1.503l-3.856.225-4.058.414-.426-1.078-.652-.826-1.064-.451h-1.077l-1.277.451-.652.826-.426 1.078-.2 1.076.626 1.29.652.64 1.064.413 1.29.224.852-.437.651-.64.626-.638.213-1.078 3.432-.187h4.282l4.496.187 3.645.664 8.552 6.212-.626.64-1.289.412-2.781.413-1.928-.413-1.715-.851-3.206-1.716-1.717-.413h-2.58l-2.98.638-3.857 1.49 1.065.414 1.29.64 3.205 2.365 3.857 2.154 1.93.84 2.14.438h1.503l1.278-.865 1.503-1.289 1.49-1.917 1.064-.626 1.078-.663 2.78-.64 3.005 1.717.852.438h.652l.425-.226.213-.413-.44-1.289-1.063-1.052-3.218-2.154-1.49-2.38-1.077-2.98-.213-1.716v-1.49l.426-1.515.863-1.265 1.065.213 1.29-.213 1.064-.64.64-1.076.425-1.277v-1.29l-.64-1.077-1.064-.839-1.29-.439h-1.277l-1.29.64-.851 1.075-.426 1.278.2 1.078.439 1.063.852.865-1.29 2.342-.427 2.567v2.58l.865 2.141-4.07-3.006-1.078-1.903-.626-2.153-.426-2.355.213-2.367.413-3.87v-4.27l-.2-2.355-.426-2.13-1.076-2.152-1.29-1.704-2.78-2.792-.852-1.078-.438-1.276-1.065 1.515-1.077 2.354-1.49 4.922-.213 2.567.864 2.78 1.052 2.567 1.716 1.942 2.354 2.341 1.928 2.354 1.29 2.593.427 2.342-3.206-2.592-2.367-2.343-7.063-7.927-.865-2.567v-2.98l.226-3.018.639-2.756.638-3.87-.425-4.057-1.078-3.644-1.703-3.231-2.367-2.981-2.78-2.354-2.781-1.716-3.218-.877 1.29 2.38.638 2.567.213 2.98-.426 3.006m148.051 96.593h4.496l2.58-.64 2.354-1.264v-.439l-.425-.639-3.005-1.076-4.497-1.716-2.58-1.265-2.78-1.502-4.07-2.141-2.78-.84-1.929-.663-1.076-.627-1.265-1.303-2.354-3.418-1.717-4.282-.225-1.93v-1.716l1.077-.413.865-.863.626-1.078.213-1.052-.439-1.29-.626-1.076-1.065-.852-1.502-.2-1.278.413-1.077.852-.652 1.076-.2 1.278.201 1.303.652.85 1.076.852 1.065.2.213 3.42.85 4.282 1.278 3.645.865 1.515.852.839-4.934-.426-1.917-1.076-1.703-1.49-1.715-1.704-1.078-2.354-1.502-3.42-2.355-3.87-1.278-1.715-1.715-1.515-1.715-1.265-2.142-.839-3.857-.877-1.078-.639-1.264-.85v1.928l.413 2.567 1.077 4.922 1.277 2.367 2.14 2.13 2.356 1.489 2.367.638 3.206.664 2.792 1.265 2.356 1.303 1.928 1.904-4.282-.64-3.22-.625-10.28-3.207-1.93-1.715-1.49-2.593-1.29-2.543-1.065-2.567-1.502-3.869-2.355-3.005-3.006-2.567-3.206-2.13-3.43-1.277-3.42-.652-3.43.214-3.22.863 2.142 1.265 2.141 1.941 1.716 2.343 1.077 2.792.852 1.929.864 1.489 2.567 2.568 2.98 1.941 2.58 1.065 3.207 1.278 2.367 1.715-5.11-.74-6.249-.75-6.425-.225-2.793.224-2.341.627-.852-.851-1.077-.414h-1.077l-1.064.414-1.065.851-.438 1.077-.213 1.303.426 1.05.864 1.078 1.064.639h1.29l1.277-.426.852-.626.639-1.077.226-1.303-.439-1.051h.439l4.708-.213 4.709.213 4.934.413 5.135.864 9.63 2.567 9.004 2.98-4.509-.2-7.063-1.265-5.36-.437-2.767.187-2.792.439-2.782.863-2.792 1.078-2.567 1.49-2.141 1.928 2.354 1.278 2.355 1.077 2.58.626 2.567.451h5.146l5.136-.64 4.922-1.3 4.282-1.492 3.431-1.716 2.78-1.29h.64l.638 1.078-.2.851-.865.865-1.29 1.076-3.419 1.93-1.502 1.051-1.504 1.29-.85-.652-1.065-.2-1.278.201-.864.652-.638.863-.426 1.078.213 1.264.639.864.85.852 1.078.225 1.278-.225.85-.64.64-.638.438-.876v-1.052l-.226-.852 2.793-2.154 3.644-2.13 3.845-2.152 3.432-1.279h3.005l2.781.64 2.555.638 2.58.413 1.502.226 1.703.663 3.432 2.118 3.218 2.354 2.78 2.567m90.205-322.2-11.358-8.98 14.577.414 4.91-13.062 4.069 13.475 14.578.639-11.986 7.926 4.058 14.353-11.772-9.193-12.21 8.14zm64.056 99.198-14.564-1.29 12.637-7.488-3.207-13.714 10.921 9.216 12.436-7.512-5.574 13.286 11.347 9.63-14.99-1.263-5.574 13.499-3.43-14.364m-13.5 108.414-10.709-10.08 14.352 1.927 5.999-12.861 3.006 13.913 14.564 1.941-12.85 7.063 2.982 14.578-10.908-10.294-12.862 7.063 6.425-13.25m-75.19 76.042-2.568-14.365 10.496 10.308 12.635-6.663-5.999 12.874 10.008 10.056-14.353-1.94-5.936 13.311-2.78-14.577-14.577-1.94z"/><path d="m288.254 91.857 1.716-1.077 1.702-.639 3.645-.439 3.431.213 2.782.64 3.417.85h2.781l-4.27-2.116-5.574-3.23-5.347-3.845-2.141-1.929-1.504-1.715h-1.077l-1.064-.226-1.077-.626-.626-1.077-.213-1.277.213-1.077.626-1.077 1.077-.852 1.29-.2 1.277.2 1.077.664.64 1.052.211 1.29v1.052l-.638 1.076-.864.64.226.212 3.63 3.019 3.846 2.754 4.282 2.568 4.51 2.38 9.417 3.869 9.004 2.755-1.716-1.265-2.141-1.277-6.212-3.006-4.72-3.006-2.142-1.715-1.904-2.13-1.716-2.366-1.502-2.354-1.078-2.793-.638-3.006 2.566.44 2.569.637 2.366.852 2.355 1.303 4.27 3.206 3.645 3.619 2.992 3.857 2.58 3.645 1.917 3.43 1.276 2.793.64.188 1.077-.413.213-.852V94.4l-.426-1.49-1.504-3.619-1.063-3.87h-1.078l-1.065-.413-.638-.89-.426-1.052v-1.076l.426-1.065.64-.865 1.276-.413h1.078l1.063.413.865.865.426 1.065v.863l-.213 1.078-.652.638-.639.626.865 3.432 1.703 3.832 1.716 4.096 2.14 3.193 9.005 5.585.213-1.077v-1.052l-.864-2.817-.851-1.466-1.504-1.29-2.78-2.354-1.064-1.516-1.064-2.354-.426-3.193v-4.096l.838.865 1.077 1.077 3.207 2.13 3.644 2.565 1.503 1.517 1.077 1.903.425 1.302v1.703l-.651 1.716-1.277 2.154-.426 1.052v1.515l.426 2.567 2.781 2.13.638.851.226.639v.438l-.439.2-1.278.225-1.289-.638-3.218-2.153-2.782-.414h-3.204l-1.704.413-1.503.64-1.29.876-.851 1.276.639 1.065.212 1.052v1.303l-.638 1.077-1.078.852-1.276.2h-1.29l-1.279-.64-.85-1.076-.213-1.264v-1.278l.639-1.29 1.076-.64 1.065-.412h1.076l1.265.413 1.716-1.941 2.142-1.49 2.366-.852h2.356l-4.284-2.792-2.14-.213-2.356.213-2.354.438-2.141 1.052-3.433 1.941-3.856 1.703-2.354.64-2.141.224h-2.356l-2.14-.639-3.433-1.515-1.277-.413h-1.502l1.063-1.49 1.93-1.941 3.857-3.206 2.354-1.065 2.793-.426 2.993.2 2.14.852 3.007 1.303 2.98.851 2.794.2 2.567-.413-3.858-2.13-2.98-1.301-9.856-3.42-2.793.19-2.78 1.076-2.568 1.277-2.354 1.515-3.431 2.13-3.857 1.076-3.857.213-3.632-.213-3.644-1.076-3.219-1.69-2.567-1.955-2.141-2.542 2.78.188 2.58-.413 2.78-.852 2.58-1.49m92.534 52.924 2.141.225 1.716.413 3.206 1.74 2.567 2.343 1.717 2.354 2.14 2.78 2.142 1.715-1.928-4.495-2.354-5.998-2.141-6.212-.427-2.793v-2.342l-1.065-.639-.652-.852-.425-1.076.213-1.077.44-1.277 1.063-.852 1.064-.438h1.278l1.29.638.851.852.426 1.29-.2 1.277-.439 1.078-.852.85-1.076.426h-1.065v.439l1.065 4.496 1.29 4.695 1.929 4.522 2.14 4.696 4.923 8.566 5.573 7.927-1.504-4.282-3.206-6.412-1.715-5.16-.639-2.768-.426-2.78v-2.793l.426-3.005.852-2.793 1.29-2.755 1.916 1.928 1.49 2.13 1.291 2.153 1.076 2.343 1.503 5.134.64 5.135.211 4.945-.426 4.472-.425 3.87-.864 2.98.426.664 1.076.2.852-.425.626-1.077.439-1.49 1.064-3.646 1.503-3.643-.852-.852-.439-.851-.2-1.078.413-1.052.652-1.076 1.065-.413 1.076-.226 1.065.226 1.077.826.426.876.213 1.278-.213 1.077-.64.826-.863.44-.852.437-.838-.213-1.291 3.418-1.29 4.07-.851 4.297-.438 3.845 3.645 9.856.863-.44.639-1.051 1.077-2.793.2-1.703-.2-1.941-.864-3.645v-1.903l.639-2.379 1.489-2.781 2.58-3.206v1.265l.426 1.528 1.29 3.644 1.065 4.058.213 2.341v2.155l-.64 1.277-1.077 1.29-1.489.864-2.367 1.052-.852.651-1.077 1.052-1.265 2.38.839 3.419v1.489l-.426.452h-.413l-1.076-.64-.64-1.301-1.29-3.858-1.928-1.915-2.567-1.93-1.49-.851-1.504-.225-1.715-.226-1.49.664v1.052l-.427 1.077-.863.852-1.278.45-1.289.213-1.278-.663-.851-.852-.64-1.265v-1.277l.427-1.303.851-.851 1.29-.64h1.277l1.065.427.852.651.652 1.052 2.78-.413 2.58.2 2.353.877 1.904 1.277-1.904-4.72-1.503-1.504-1.928-1.515-2.141-.826-2.356-.64-3.856-.438-4.07-1.277-2.141-.877-1.93-1.052-1.703-1.29-1.502-1.915-1.929-3.445-.64-1.052-1.289-.852 1.716-.45 2.78-.413 4.934-.213 2.781.626 2.354 1.528 2.153 1.904 1.492 1.928 1.502 3.006 1.715 2.354 2.13 1.929 2.14 1.276-1.714-4.056-1.49-2.793-5.774-9.004-2.367-1.49-2.78-.852-2.78-.45-2.793-.19-4.07-.638-3.644-1.29-3.219-2.129-2.78-2.592-2.142-2.993-1.49-3.206-.851-3.419v-3.231l1.928 1.716 2.355 1.515 2.78 1.052 2.78.439m41.778 98.745 1.29 1.492 1.064 1.489 1.49 3.231.64 3.42.213 2.992v3.444l.637 2.542 1.078-4.47 1.715-6.437 2.141-6.211 1.266-2.368 1.29-1.916-.427-1.077v-1.077l.426-1.052.865-1.077 1.065-.439 1.289-.186 1.278.412.851.852.64 1.077v1.277l-.214 1.29-.839.864-1.077.627-1.065.2-1.29-.413-.851-.64-.226.226-1.928 4.27-1.703 4.697-1.278 4.722-1.064 4.922-1.29 10.08-.439 9.418.865-1.917.639-2.367 1.489-6.85 1.503-5.36 1.065-2.567 1.502-2.342 1.93-2.354 1.928-2.154 2.354-1.704 2.793-1.502.2 2.793v2.567l-.2 2.542-.652 2.592-1.928 4.922-2.567 4.496-2.781 4.058-3.005 3.43-2.78 2.793-2.367 1.704-.2.864.64.852h1.063l1.077-.414 1.277-.864 3.218-2.14 1.717-1.278 1.715-.852-.426-1.078.213-1.076.64-.865.838-.626 1.077-.45 1.29.25.851.413.865 1.052.213 1.078-.213 1.076-.439 1.078-1.064.638-.864.413h-.852l-.864-.413-.838-.64-2.994 1.93-3.432 2.567-3.218 2.768-2.781 2.793-3.005 10.293h1.078l1.063-.437 2.58-1.49 1.065-1.304 1.077-1.69 1.265-3.444 1.29-1.49 1.929-1.49 3.005-1.304 4.07-.85-.864.85-.64 1.517-1.076 3.619-1.702 4.096-1.065 1.702-1.504 1.715-1.076.64-1.704.438-1.928-.226-2.367-.626h-1.064l-1.504.187-2.567 1.078-1.277 3.431-.426.626-.638.44h-.426l-.438-.214-.426-1.052.213-1.516 1.29-3.845-.213-2.591-.864-3.206-.852-1.49-1.077-1.265-1.064-.865-1.504-.639-.85 1.052-1.078.452-1.052.213-1.29-.44-1.077-.638-.638-1.076-.213-1.49.213-1.291.864-1.077 1.064-.639 1.29-.2 1.265.2 1.076.852.64.864.438 1.29-.226 1.052 2.367 1.303 1.93 1.703 1.276 2.154.864 2.129 1.49-4.91-.425-2.153-.639-2.154-1.077-2.13-1.715-1.928-2.567-2.568-2.782-3.43-1.076-2.13-.852-1.928-.639-2.154v-2.342l.64-3.87V262.6l-.44-1.49 1.717.638 2.354 1.304 4.083 2.978 1.715 2.13 1.278 2.567.426 2.781-.213 2.378-.426 3.42-.213 2.993.639 2.78.863 2.354 1.065-4.282.64-3.207.864-10.494-1.078-2.568-1.715-2.367-1.917-2.354-2.14-1.715-2.793-2.981-2.142-3.23-1.291-3.645-.625-3.619.2-3.857.652-3.433 1.276-3.205 1.93-2.568.638 2.568.851 2.58 1.716 2.341 2.141 2.154M394.94 347.433l.212 1.928v1.93l-.85 3.618-1.504 3.018-1.715 2.342-2.141 2.792-1.078 2.569 3.645-2.982 5.147-4.096 5.573-3.642 2.555-1.266 2.14-.639.427-1.076.638-.852.864-.64 1.29-.224 1.265.225 1.077.64.64.85.211 1.277-.213 1.29-.638 1.077-1.077.865-1.052.187-1.29-.186-1.077-.664-.64-.84-.424-1.077-.213.2-4.07 2.154-4.07 2.793-4.07 2.981-3.845 3.23-6.863 7.264-6.212 7.289 3.858-2.567 5.36-4.722 4.27-3.206 2.567-1.302 2.58-1.052 2.781-.852 2.993-.437h2.793l3.005.637-1.29 2.155-1.502 2.141-1.93 1.916-1.928 1.716-4.483 2.781-4.71 1.927-4.72 1.504-4.497 1.077-3.856.413h-3.006l-.426.652v1.05l.64.64 1.076.438h5.56l3.857.426.426-.865.852-.851 1.077-.413h1.076l1.065.413.865.851.424 1.078v1.076l-.424 1.078-.865.826-1.065.452h-1.076l-1.077-.226-.64-.64-.425-.85-.2-.853-3.645-.426h-4.282l-4.283.426-3.858.652-8.565 6.211.851.64 1.077.412 2.993.226 1.716-.226 1.715-.851 3.206-1.929 1.93-.425h2.353l3.206.864 3.858 1.49-1.278.438-1.278.64-3.217 2.152-3.645 2.342-2.14.865-1.93.413-1.478-.226-1.502-.626-1.504-1.276-1.502-1.93-.852-.638-1.29-.64-2.567-.663-3.206 1.741-.852.413h-.651l-.425-.213v-.426l.213-1.289 1.076-1.052 3.206-2.154 1.504-2.342 1.063-3.206.426-1.515v-1.69l-.426-1.516-.85-1.277-1.278.2-1.078-.2-1.076-.44-.852-1.075-.426-1.265.213-1.304.639-1.052.863-1.076 1.265-.213h1.504l1.076.626.852 1.078.439 1.076v1.278l-.44 1.076-.85.852 1.064 2.355.64 2.567-.201 2.567-.865 2.154 4.07-3.019 1.078-1.902.85-2.155.213-2.341v-2.567l-.425-3.645-.212-4.509.212-2.153.64-2.13.863-2.153 1.265-1.678 2.793-2.793.851-1.077.64-1.49.863 1.716 1.077 2.34 1.703 4.923v2.593l-.638 2.767-1.29 2.567-1.49 1.929-2.581 2.13-1.99 2.59-1.279 2.568-.35 2.342 3.419-2.78 2.354-2.13 7.076-7.926.639-2.793v-2.78l-.213-3.018-.639-2.781-.426-4.057.213-3.87 1.278-3.619 1.715-3.444 2.13-2.767 2.792-2.38 2.993-1.703 3.006-1.077-1.078 2.367-.85 2.793v2.767zM246.69 444.05l-1.929.213h-2.58l-2.566-.64-2.13-1.515-.213-.413.626-.413 2.793-1.076 4.496-1.717 2.793-1.289 2.567-1.716 4.282-1.904 2.568-1.076 1.917-.439 1.29-.639 1.064-1.276 2.367-3.645 1.703-4.083.426-1.904-.201-1.715-1.077-.439-.851-.851-.64-1.077-.212-1.277.426-1.278.864-1.076 1.064-.627 1.278-.225 1.277.438 1.077.64.64 1.276.224 1.29-.226 1.278-.638.85-1.077.852-1.064.226-.213 3.419-.64 4.07-1.489 3.858-.64 1.49-1.076.864 5.135-.439 1.941-1.052 1.702-1.515 1.504-1.916 1.277-2.153 1.49-3.42 2.141-3.87 1.292-1.703 1.715-1.69 1.928-1.078 1.917-.863 3.856-1.065 1.277-.45 1.291-.852-.213 1.928-.213 2.567-1.29 4.922-1.265 2.367-1.928 1.916-2.58 1.728-2.141.64-3.207.638-3.005 1.076-2.355 1.49-1.715 1.93 4.282-.627 3.219-.639 10.069-3.23 1.929-1.93 1.715-2.353 1.265-2.567.865-2.781 1.715-3.657 2.354-3.194 2.78-2.567 3.218-1.94 3.433-1.266 3.643-.638 3.42.213 3.005.839-2.141 1.29-1.93 1.915-1.715 2.367-1.29 2.793-.638 1.716-1.077 1.704-2.555 2.567-2.78 1.715-2.793 1.303-3.206 1.264-2.153 1.49 4.72-.625 6.424-.64 6.65-.225 2.781.226 2.142.639.837-.865 1.078-.437h1.077l1.278.224.852.852.651 1.278v1.29l-.427 1.076-.863 1.078-1.065.413-1.29.226-1.29-.439-.838-.865-.426-.851-.213-1.277.213-1.077h-.213l-4.721-.213h-4.922l-4.934.64-4.922.875-9.844 2.342-9.004 3.206 4.71-.213 6.849-1.278 5.36-.413 2.78.189 3.006.45 2.781.626 2.566 1.278 2.58 1.515 2.355 1.904-2.355 1.303-2.58 1.076-2.354.639-2.567.413h-5.36l-5.136-.639-4.72-1.289-4.271-1.503-3.645-1.704-2.567-1.49-.64.214-.65.837.225 1.066.852.864 1.29.851 3.205 2.154 1.717 1.052 1.502 1.303.839-.64 1.077-.224 1.065.224 1.076.64.64.851-.176 1.178.175.952-.426 1.076-1.064.663-1.077.414-1.077-.225-1.064-.64-.627-.625-.225-1.077v-.864l.225-.826-2.793-2.154-3.643-2.367-3.858-1.917-3.644-1.29h-2.993l-2.768.627-2.58.638-2.354.226-1.715.413-1.504.663-3.418 1.93-3.432 2.566-2.78 2.355"/></g><g fill="#efae0e"><path d="m205.705 368.97-5.419-2.321 2.967 5.132-3.99 4.57 5.894-1.316 3.102 5.362.59-6.211 5.994-1.324-5.669-2.432.575-6.083zm100.657.104 5.42-2.316-2.966 5.121 3.991 4.575-5.896-1.32-3.107 5.373-.585-6.22-5.99-1.324 5.66-2.43-.566-6.086z"/><path stroke-width="1.465" d="M255.65 127.988a2.25 2.25 0 0 0-2.25 2.252 2.25 2.25 0 0 0 2.25 2.255 2.253 2.253 0 0 0 0-4.507m-94.63 43.654a2.257 2.257 0 0 0-2.255 2.255 2.252 2.252 0 1 0 4.504 0 2.253 2.253 0 0 0-2.25-2.255m-28.9 60.862a2.255 2.255 0 0 0 0 4.509 2.255 2.255 0 0 0 0-4.51m3.492 57.362a2.25 2.25 0 0 0-2.24 2.254c0 1.245 1 2.258 2.24 2.258a2.257 2.257 0 0 0 2.254-2.258 2.254 2.254 0 0 0-2.254-2.254M313.76 141.713a2.257 2.257 0 0 1 2.25 2.256 2.252 2.252 0 1 1-2.25-2.256M224.527 374.84l-2.857-.767.437-1.632c.762.17 1.3.261 1.624.275.502.02.962-.088 1.344-.33.267-.162.497-.414.703-.749a2 2 0 0 0 .226-.464l1.987.535-3.246 12.207-2.444-.657zm24.965-.128-.075 1.945c-.39.352-.93.981-1.631 1.89a17.2 17.2 0 0 0-1.769 2.837c-.389.766-.752 1.71-1.072 2.831-.34 1.122-.516 2.041-.542 2.767l-2.57-.105c.161-2.262 1.002-4.588 2.51-6.967.975-1.477 1.775-2.503 2.42-3.076l-6.273-.26.124-2.231zm19.586.265v1.944q-.556.553-1.545 1.956a18 18 0 0 0-1.657 2.902c-.356.788-.666 1.75-.954 2.877-.289 1.136-.438 2.065-.438 2.79h-2.57c.081-2.264.819-4.618 2.228-7.069.912-1.512 1.673-2.571 2.277-3.165h-6.273l.037-2.236h8.895m17.872-2.483c-.752-.524-1.71-.734-2.874-.617-.814.082-1.48.34-2.023.77a4.3 4.3 0 0 0-1.258 1.606c-.34.757-.526 1.673-.567 2.757-.018.61.023 1.392.114 2.358.169 1.633.596 2.936 1.29 3.912.868 1.246 2.1 1.792 3.693 1.626 1.465-.149 2.495-.71 3.106-1.677.613-.963.843-2.031.735-3.206-.116-1.177-.575-2.11-1.358-2.798-.8-.68-1.742-.97-2.85-.854a3.5 3.5 0 0 0-1.353.393c-.39.208-.71.51-.99.903q-.038-1.466.163-2.238.367-1.404 1.567-1.527c.533-.055.96.098 1.261.464.177.233.28.449.295.65l2.452-.253q-.275-1.482-1.403-2.27m-111.63-22.178-1.71-1.895q.568-.68.639-1.24c.092-.676-.206-1.408-.922-2.188q-.637-.699-1.18-1c-.701-.37-1.323-.312-1.856.18a1.11 1.11 0 0 0-.356 1.07c.089.427.33.993.736 1.703l.686 1.21c.683 1.19 1.056 2.094 1.152 2.711q.201 1.555-1.174 2.832c-.853.774-1.834 1.107-2.958 1.004q-1.694-.156-3.319-1.955c-.915-.993-1.422-2.09-1.536-3.282q-.164-1.785 1.293-3.214l1.735 1.905c-.533.555-.719 1.173-.533 1.858.114.45.39.91.811 1.358q.689.772 1.413.945c.483.115.905.01 1.278-.331q.506-.464.345-1.14c-.058-.299-.302-.827-.735-1.597l-1.092-1.992q-.718-1.309-.8-2.253-.1-1.46 1.165-2.614c.86-.792 1.885-1.117 3.06-.978 1.168.14 2.309.818 3.407 2.024 1.125 1.237 1.722 2.465 1.81 3.69q.12 1.834-1.358 3.189"/><path d="m154.907 332.774 1.711-1.431 3.974 4.797 2.528-2.102-4.523-5.475 1.768-1.475 6.203 7.489-9.853 8.206-5.995-7.246 1.747-1.457 4.328 5.23 2.087-1.745zm-4.088-20.162-8.402 10.697 1.607 2.567 13.261-2.981-1.492-2.373-2.697.655-2.52-3.999 1.793-2.108zm-7.756-12.282 2.115-.908 3.538 8.32-11.765 5.043-1.052-2.463 9.65-4.144zm-1.275-78.83-.639 2.623-10.23-2.489-.906 3.752-2.207-.539 2.44-10.106 2.207.535-.905 3.73zm-3.086-14.518 1.969-4.615-4.49-1.92 1.045-2.45 11.766 5.041-1.04 2.459-5.252-2.255-1.971 4.617 5.253 2.25-1.037 2.447-11.774-5.048 1.05-2.446zm11.703-21.718 1.875 1.195-3.335 5.265 2.77 1.771 3.805-5.998 1.944 1.245-5.21 8.207-10.797-6.897 5.041-7.946 1.914 1.22-3.635 5.735 2.287 1.463zm21.447-18.844 1.86-1.756c.454.369.879.577 1.243.63.675.082 1.402-.235 2.174-.96.457-.434.789-.838.975-1.21.363-.705.292-1.326-.207-1.852q-.425-.47-1.069-.336c-.436.09-.985.343-1.687.762l-1.198.712c-1.17.693-2.068 1.09-2.68 1.182-1.03.16-1.97-.214-2.831-1.136-.794-.834-1.14-1.82-1.049-2.946.09-1.129.72-2.243 1.897-3.35q1.472-1.397 3.25-1.592c1.179-.135 2.253.282 3.22 1.242l-1.873 1.767c-.567-.53-1.17-.698-1.859-.506-.457.135-.905.407-1.353.838-.495.472-.814.95-.915 1.438q-.158.732.347 1.272.47.5 1.145.334.437-.104 1.577-.765l1.97-1.128c.854-.496 1.598-.768 2.237-.826.966-.084 1.845.288 2.618 1.122.806.85 1.14 1.87 1.013 3.047-.108 1.18-.78 2.334-1.96 3.456-1.211 1.145-2.432 1.772-3.645 1.871q-1.826.149-3.2-1.31m21.469-12.211-2.254 1.477-5.777-8.836-3.217 2.114-1.242-1.901 8.666-5.707 1.245 1.904-3.198 2.106zm18.17-9.5L201.97 135l-2.74 1.28 1.275 13.576 2.53-1.187-.309-2.767L207 143.9l1.855 2.04zm12.01-3.734-2.592.727-2.827-10.182-3.708 1.041-.605-2.195 9.98-2.797.612 2.199-3.69 1.024zm17.212-11.383.333 2.2-6.14.946.492 3.263 7-1.075.352 2.28-9.589 1.466-1.931-12.694 9.288-1.422.335 2.247-6.698 1.024.41 2.7zm34.312-4.757c-1.827-.058-3.23.398-4.24 1.361-1.338 1.137-2.036 2.883-2.11 5.234-.08 2.304.516 4.092 1.775 5.36.93 1.029 2.305 1.57 4.139 1.63q2.75.09 4.24-1.365 1.991-1.772 2.106-5.229c.07-2.35-.516-4.136-1.768-5.356-.928-1.029-2.308-1.578-4.142-1.635m-.073 2.269c1.059.035 1.891.456 2.488 1.263.603.81.87 1.93.82 3.372-.043 1.44-.39 2.552-1.041 3.31q-.965 1.148-2.563 1.094c-1.048-.032-1.885-.453-2.486-1.257-.609-.801-.886-1.928-.843-3.373.054-1.448.4-2.55 1.056-3.314.651-.762 1.518-1.125 2.57-1.095m24.062 3.921-.72 2.135-6.084-2.043-.931 2.799 5.321 1.793-.707 2.116-5.324-1.798-1.71 5.108-2.52-.85 4.07-12.155zm33.524 16.815-1.686 10.182 5.634-6.955 1.934 1.578-8.072 9.964-2.075-1.694 1.674-10.387-5.728 7.082-1.938-1.583 8.076-9.966zm17.27 21.946-1.568 1.577-4.4-4.41-2.326 2.332 5.005 5.03-1.623 1.63-6.857-6.88 9.047-9.08 6.638 6.66-1.598 1.607-4.79-4.804-1.925 1.928zm10.896 15.253 1.785-1.786-2.3 1.038-7.031 2.997-1.412-2.05 8.454-10.3 1.617 2.342-5.061 5.58-1.471 1.472 1.855-.835 6.884-3.022 1.606 2.331-5.163 5.438-1.45 1.486 1.831-.795 7.06-2.82 1.551 2.243-12.576 4.333-1.455-2.105zm16.439 32.88 1.312 4.84 4.71-1.29.693 2.574-12.34 3.383-.701-2.574 5.517-1.505-1.328-4.845-5.509 1.508-.693-2.563 12.34-3.38.703 2.564z"/><path stroke-width="1.465" d="m373.062 232.937.41 2.775 2.73.497.687 4.683-2.487 1.2.428 2.879 12.001-6.369-.442-3.002zm5.43 3.663 5.215.903-4.742 2.32zm-.699 19.962 10.065 2.31v3.86l-12.802.011v-2.5l8.659-.01c.26 0 .606.005 1.05.01.447.005.798.008 1.039.008l-10.748-2.42v-2.607l10.74-2.425q-.366 0-1.039.01c-.45.008-.804.013-1.05.013l-8.658.01v-2.502l12.8-.014v3.9zm-3.107 13.402-.347 2.647 4.57.607-.363 2.702q-.278 2.117.506 3.38c.512.843 1.523 1.362 3.015 1.563 1.374.183 2.44-.058 3.192-.735.762-.672 1.217-1.649 1.387-2.925l.735-5.544zm6.4 3.545 3.735.5-.329 2.481c-.087.629-.288 1.094-.62 1.408-.326.308-.816.42-1.48.333-.646-.087-1.108-.324-1.375-.717-.252-.386-.335-.896-.261-1.524zm-5.45 13.058-.773 2.449c-.585-.103-1.044-.082-1.392.058-.634.256-1.112.89-1.42 1.898-.187.605-.27 1.117-.267 1.536.035.795.39 1.3 1.075 1.52a1.11 1.11 0 0 0 1.108-.236q.493-.433 1.098-1.492l.694-1.207c.687-1.18 1.277-1.967 1.769-2.345.819-.647 1.825-.785 3.025-.404q1.64.517 2.35 2.056c.466 1.024.466 2.311-.014 3.856-.407 1.291-1.099 2.287-2.068 2.986-.965.69-2.1.86-3.417.49l.774-2.457c.745.186 1.365.03 1.87-.47q.497-.5.777-1.392c.203-.657.24-1.23.092-1.702a1.34 1.34 0 0 0-.928-.943c-.437-.14-.82-.046-1.165.275-.219.203-.556.682-1.002 1.438l-1.17 1.95q-.763 1.284-1.535 1.814-1.21.823-2.833.31c-1.124-.35-1.911-1.07-2.383-2.162-.466-1.086-.452-2.412.034-3.976.5-1.594 1.25-2.735 2.275-3.422 1.012-.684 2.158-.827 3.427-.428"/><path d="m372.343 307.214-2.084 4.564 4.427 2.045-1.109 2.42-11.63-5.36 1.117-2.42 5.19 2.388 2.085-4.558-5.19-2.39 1.102-2.419 11.63 5.359-1.104 2.42zm-4.78 18.598-10.918-6.712 1.386-2.274 10.922 6.71zm-4.115 7.276-10.054-7.953-1.615 2.058 3.939 3.119-1.71 2.177c-.483.618-.935.957-1.324 1.018q-.583.078-1.551-.665l-.952-.724a5.7 5.7 0 0 0-.928-.596 12 12 0 0 0-.649-.29l-1.817 2.32.255.199c.278-.105.565-.082.869.07.195.095.515.32.98.68l.668.535q1.067.84 1.8.955.75.118 1.574-.36c-.26.708-.242 1.365.043 1.971.262.605.629 1.1 1.115 1.478.398.313.809.53 1.21.644.405.116.815.165 1.251.146a3.16 3.16 0 0 0 1.462-.407c.457-.258.98-.73 1.536-1.431zm-21.718 17.163-1.551-1.602 4.469-4.343-2.289-2.37-5.085 4.949-1.602-1.664 6.963-6.765 8.909 9.228-6.745 6.551-1.582-1.635 4.87-4.726-1.888-1.959zm-215.982-84.03c-.964.998-1.43 2.413-1.367 4.246.051 1.835.584 3.224 1.607 4.166 1.195 1.27 2.98 1.869 5.324 1.807 2.29-.064 4.044-.764 5.223-2.099q1.461-1.491 1.37-4.244c-.044-1.838-.588-3.22-1.606-4.165q-1.875-1.898-5.327-1.8c-2.341.066-4.077.762-5.225 2.09m-1.59-18.519 2.246.005-.009 6.44 2.937.002.019-5.632 2.219.004-.007 5.632 5.363.01-.007 2.673-12.777-.026z"/></g><path fill="#002a86" d="M283.535 378.896c.287-.287.652-.45 1.073-.494q.773-.084 1.372.451c.395.353.628.895.71 1.63.067.658-.048 1.212-.315 1.654q-.404.672-1.226.752a1.73 1.73 0 0 1-1.445-.5q-.609-.587-.712-1.598c-.086-.84.1-1.47.543-1.895m-132.682-57.148-5.147 1.298 3.41-4.051zm51.585-178.155-.629-5.28 3.586 3.9zm154.735 193.512c-.533.24-1.098.117-1.707-.366q-.848-.671-.634-1.525c.082-.323.295-.721.677-1.193l1.867-2.392 2.707 2.138-1.925 2.452c-.362.456-.683.749-.985.886m-222.632-64.37c-.761.655-1.869 1.006-3.307 1.04-1.436.044-2.56-.245-3.355-.857-.803-.613-1.21-1.445-1.245-2.51-.023-1.065.34-1.916 1.109-2.562.772-.65 1.873-.986 3.31-1.027 1.447-.04 2.562.24 3.354.843.806.603 1.207 1.438 1.243 2.498.025 1.064-.34 1.916-1.11 2.575"/><path fill="#fff" stroke="#000" stroke-width=".39952" d="M144.32 256.353h222.904c-.004-28.158-11.814-57.607-31.345-78.33-20.849-22.12-50.396-34.557-80.573-33.358-26.386 1.05-52.51 10.033-72.093 26.882-23.796 20.473-38.893 52.87-38.893 84.806z"/><path fill="#946922" fill-rule="evenodd" d="m345.627 278.04 20.864-.294-7.444 21.745-7.053 11.95-69.939 7.152-103.243-.196-13.193 3.796-11.397-19.844-7.735-20.979-1.371-9.208 70.918 3.135z"/><path fill="#4f9eff" d="M277.804 309.007c-2.287.914-35.38 4.745-40.218 7-1.575-.902-7.292 5.982-10.553 2.286-8.139 1.415-20.388 4.892-29.52 3.67-8.079-1.084-21.525 3.396-29.148 2.567 19.9 24.941 53.251 42.356 87.634 43.091 40.057.857 83.557-23.705 98.965-60.206.11-.182-17.599-1.705-22.913-1.498 0 0-51.971 2.176-54.247 3.09"/><path fill="#efae0e" fill-rule="evenodd" d="M242.638 256.502a13.36 13.36 0 0 1 13.514-13.209 13.36 13.36 0 0 1 13.209 13.514L256 256.654z"/><path fill="none" stroke="#000" stroke-linecap="round" stroke-linejoin="round" stroke-miterlimit="6.3" stroke-width=".670495" d="m313.884 261.763-1.212-28.052-.179 5.343-.174 5.243-.582 17.432z"/><path fill="#2a1510" fill-rule="evenodd" stroke="#000" stroke-linecap="round" stroke-linejoin="round" stroke-miterlimit="6.3" stroke-width=".76628" d="m309.752 233.225-31.223 16.604"/><path fill="#efae0e" fill-rule="evenodd" d="m272.427 252.485 26.622-7.868c.794.876 1.55 2.032 1.04 4.008l-27.365 5.443zm-1.626-3.295 4.363-3.047c.531.605.46 1.45.07 2.424l-3.74 2.355zm-2.91-3.463 21.265-19.394c1.477.532 2.63 1.387 3.186 2.84l-23.204 18.147zm5.888-14.476-9.074 12.399 1.801 1.108 9.766-11.36c-.451-1.095-1.123-1.97-2.493-2.147m-1.247-19.74-11.428 30.684 2.147.97 13.368-30.477c-1.238-.829-2.488-1.614-4.087-1.177m-13.645 13.853-2.355 15.861 2.148.277 3.394-15.792c-1.312-.863-2.232-.554-3.187-.346m-9.281-17.94 1.732 34.77 2.77-.623.624-34.493c-1.621-.06-2.997-.609-5.126.346m-6.857 18.425 4.64 17.8 2.217-1.246-4.294-17.109c-1.145-.396-1.972-.156-2.563.555m-10.667-14.269 13.645 32.9-1.039 1.04-16.346-31.654c.888-1.36 2.311-1.828 3.74-2.286m-.97 18.424 12.122 16.9-1.108 1.248-13.368-16.554c.666-1.246 1.508-1.432 2.355-1.594m-16.069-3.047 26.598 22.233-.762 1.178-30.13-21.195c1.12-1.154 2.622-1.798 4.294-2.216m3.74 13.645c-.884.719-1.354 1.52-1.315 2.424l21.887 10.251.623-1.385zm-13.575 4.363c-.603 1.311-1.006 2.662-.693 4.156l34.078 7.065.485-1.316z"/><path fill="#4f9eff" stroke="#000" stroke-width=".38314" d="M146.064 275.953c29.99 4.896 168.82 12.532 175.304 11.349 2.33-.423 5.693.404 7.395.638 3.916.528 7.192.106 11.31-1.165 3.69-1.143 18.527-3.346 23.921-3.509 2.422-9.012 3.826-17.497 3.826-27.268 0 0-226.684 0-223.256.098"/><path fill="none" stroke="#000" stroke-linecap="round" stroke-linejoin="round" stroke-miterlimit="6.3" stroke-width=".670495" d="m280.636 267.823.228-3.67 3.463.103-.129-3.177-3.214.13.123-3.374 2.965.108-.09-2.213-2.796-.101.123-3.252 2.534-.105-.109-2.688-2.338.25.087-2.378 1.993.072-.138-3.394-1.732-.069.138-3.256 1.594.07-.139-3.74-1.316-.07.07-2.597 1.142-.035-.157-2.726-.818-.005"/><path fill="#2a1510" fill-rule="evenodd" stroke="#000" stroke-linecap="round" stroke-linejoin="round" stroke-miterlimit="6.3" stroke-width=".76628" d="m223.184 220.245-44.275 28.113"/><path fill="none" stroke="#000" stroke-linecap="round" stroke-linejoin="round" stroke-miterlimit="6.3" stroke-width=".670495" d="m280.775 266.991 1.731-47.792 1.94 48zm7.272 1.316-5.471-48.9 9.281 48.277z"/><path fill="none" stroke="#000" stroke-linecap="round" stroke-linejoin="round" stroke-miterlimit="6.3" stroke-width=".670495" d="m282.838 218.31 15.868 50.74-5.681-.097-1.567-2.351z"/><path fill="none" stroke="#000" stroke-linecap="round" stroke-linejoin="round" stroke-miterlimit="6.3" stroke-width=".76628" d="m300.03 268.1.139-6.788m3.463-.139-.208 7.134m-12.883-7.272 17.177.207M309.588 261.727l4.087-.208v-1.8l-4.017.069.207-2.424h3.74l-.068-2.182-3.394-.104.207-2.563 3.048-1.177.208-2.84-2.078-.416"/><path fill="none" stroke="#000" stroke-linecap="round" stroke-linejoin="round" stroke-miterlimit="6.3" stroke-width=".670495" d="m227.417 221.468 5.358 41.367-2.459.139-.173-2.217-3.13-36.189-.61-2.113 1.523 40.796 5.126.831-.589-3.394-4.537-.346-.138-2.147 4.225.138-.312-2.943-4.017-.035-.104-2.77 3.74.069-.346-2.84-3.463.138-.139-2.735 3.117-.45-.277-2.356-2.944.139-.103-2.979 2.7-.069-.345-3.74h-2.529l-.103-3.463 2.112-.208-.38-2.528-1.87.208-.105-2.736 1.628.069-.347-3.117-1.42.208-.692-3.844z"/><path fill="none" stroke="#000" stroke-linecap="round" stroke-linejoin="round" stroke-miterlimit="6.3" stroke-width=".76628" d="M170.926 244.562c7.528 11.718 17.565 21.424 27.916 31.346"/><path fill="#2a1510" fill-rule="evenodd" stroke="#000" stroke-linecap="round" stroke-linejoin="round" stroke-miterlimit="6.3" stroke-width=".76628" d="m277.841 218.725-67.11 39.066"/><path fill="none" stroke="#000" stroke-linecap="round" stroke-linejoin="round" stroke-miterlimit="6.3" stroke-width=".670495" d="m227.102 208.295 1.371-20.276m62.691 76.132-3.394-.069-.484-3.047 3.255.069-.554-3.117h-2.91l-.346-2.355h2.702l-.589-3.879-2.459.07-.416-4.156h2.078l-.676-3.533-2.025-.173-.346-3.082 1.8.069-.415-2.493-1.628-.035-.311-3.22 1.316-.07-.587-3.255-1.214-.07-.277-2.285 1.084-.15"/><path fill="#2a1510" stroke="#000" stroke-linecap="round" stroke-linejoin="round" stroke-width=".38965337999999994" d="M190.534 255.681c-.074 1.065.037 6.44-.21 7.327-.355-.128-11.084-12.292-11.895-13.376zm-8.008-5.489a32 32 0 0 1-2.196-.951c-.945-.457-1.824-1.041-2.718-1.592-2.136-1.315-6.318-4.09-6.318-4.09l-1.078.833s2.258 1.565 3.306 2.449c2.013 1.697 3.85 3.594 5.706 5.461a191 191 0 0 1 6.416 6.783c1.779 1.974 3.554 3.957 5.192 6.049 1.075 1.373 2.024 2.84 3.037 4.26 4.252 5.968 13.052 18.44 13.052 18.44s4.861.707 7.444.956c9.726.937 19.238 1.375 28.97 2.253 18.895 1.703 37.953 3.548 56.838 5.363 4.252.408 8.508.726 12.758 1.15 1.854.186 5.51.686 5.51.686s.423-1.757.539-2.473c.044-.276-.009-.574.098-.832a1.37 1.37 0 0 1 .44-.564c.409-.305 1.036-.23 1.42-.563.3-.259.707-.652.589-1.029-.057-.18-.34-.17-.515-.244-.416-.175-1.048-.074-1.273-.466-.282-.488-.148-1.314.294-1.665.236-.188.604.064.906.05.33-.017.747.087.98-.148.34-.346.38-.995.195-1.445-.07-.172-.375-.092-.545-.17-.37-.17-.837-.101-1.096-.417-.19-.234-.21-.69 0-.906.16-.165.458-.031.686-.025.435.013.88.239 1.298.123.41-.114.698-.438.717-.864.016-.37-.452-.662-.798-.734-.566-.118-.8-.513-1.02-1.047-.104-.25-.011-.545.048-.809.072-.317.28-.591.367-.905.111-.399.222-.813.196-1.225-.016-.263-.254-.498-.22-.76.037-.282.24-.53.44-.734.29-.296.683-.475 1.054-.66.586-.295 1.255-.406 1.836-.71.49-.257 1.001-.522 1.372-.931.23-.255.3-.62.49-.906.208-.315.478-.584.71-.882.318-.41.735-.768.93-1.25.142-.35.071-.755.147-1.126.085-.415.238-.813.343-1.224.099-.39.133-.798.27-1.176.251-.696.62-1.35 1.004-1.983.472-.78 1.105-1.456 1.591-2.229.288-.457.642-.898.784-1.42.08-.291-.007-.605.024-.906.029-.272.102-.538.147-.808.073-.434-1.52-.242-1.867-.51-.527-.41.622-1.238.624-1.906.002-.57-.41-1.069-.52-1.627-.112-.568-.338-1.188-.138-1.732 2.638-7.175 7.271-21.453 7.271-21.453l-1.314-.573-8.762 24.07s-.28.362-.485.38c-6.035.53-18.043.831-18.043.831l.034-2.562 3.394-25.455 3.082.035.347-3.879-3.602-.07.762-8.761-1.732-.312-.935-.346-.554.208.035.935 1.247.346.069.762-.45 6.857-2.078-.139-.173 3.88h.692l-3.082 27.982-.069 4.986-.886 1.384s-5.29-.145-7.934-.22c-6.936-.199-13.883-.21-20.824-.322l.79-7.401 5.235-40.737 3.566.044-.017-3.134-3.089.055.333-6.02 1.31.178-.016-2.021-2.626-.336 1.953-21.166-1.305.109-1.713 20.93-1.64-.078-.127 1.818 1.392.19-.408 6.508-2.322-.128-.325 2.923 2.749.1-5.992 40.638-1.212 7.462c-5.601-.124-11.197-.345-16.779-.813-7.974-.669-15.928-1.753-23.779-3.306-3.072-.608-6.952-1.537-10.97-2.55l5.583-38.517 2.057.098v-3.624l-1.861-.098s.17-4.662.588-7.347c.053-.343.64-.37.783-.685.122-.268.162-.637 0-.882-.41-.623-1.372-.586-2.057-.882-.752-.324-1.467-.747-2.253-.98-.142-.041-.308-.137-.452-.136a.24.24 0 0 0-.135.039c-.338.221-.356.776-.294 1.175.076.493.834.778.783 1.274-.319 3.123-.49 8.13-.49 8.13l-1.273.196-.196 3.82 1.274.098-5.458 37.434c-9.473-2.461-18.664-5.084-18.664-5.084l.147 3.11s-7.628-3.35-11.485-4.923a55 55 0 0 0-1.903-.73z"/><path fill="none" stroke="#000" stroke-width=".38965337999999994" d="M239.775 317.45c4.839-2.255 11.257-4.126 17.505-3.361 6.233.763 9.581-.456 11.095-1.524 1.532-1.07 3.508-2.295 6.999-1.832 3.506.448 6.237-.154 8.528-1.072 2.276-.914 5.145-1.299 6.994-.914 6.699 1.37 36.623-.392 42.16-2.905-6.495.819-41.201.803-44.435-.418-3.231-1.221-6.907-.647-11.167 1.183-4.255 1.835-7.209 2.083-9.277 1.106-1.165-.535-2.895-.459-3.895.57-1.005 1.035-.612 2.14-5.175 2.14-4.559 0-20.073.244-28.903 1.77 3.26 3.691 7.99 4.354 9.571 5.257z"/><path fill="none" stroke="#000" stroke-width=".38965337999999994" d="M170.265 328.26c4.055 3.242 44.793-.447 46.93-1.514 2.122-1.072 3.958-1.949 8.67-2.234 5.215-.307 9.343-.916 13.395-4.943 4.75-3.316-4.571-8.883-10.805-8.251-1.874.19-3.654.158-5.632-.454-1.023-.317-12.07-2.196-24.58-1.871-11.734.304-24.93 2.736-27.158 4.683-.368.333-3.893 1.554-4.29 1.902-2.873 2.527-2.067 4.244.88 8.89.858 1.342 1.367 2.814 2.59 3.791z"/><path fill-rule="evenodd" stroke="#000" stroke-linecap="round" stroke-linejoin="round" stroke-miterlimit="6.3" stroke-width=".38314" d="m249.572 341.59.381 3.463.278 2.909-3.221 1.593.311-7.238zm12.884-.035-.382 3.463-.277 2.91 3.221 1.592-.311-7.238z"/><path fill="#efae0e" fill-rule="evenodd" stroke="#000" stroke-linecap="round" stroke-linejoin="round" stroke-miterlimit="6.3" stroke-width=".38314" d="m183.759 285.533.734 4.457 136.793 9.844 36.728 2.76.05-1.372-31.432-3.088z"/><path fill="none" stroke="#000" stroke-width=".5747099999999999" d="M198.577 186.948c-.055-1.169 1.215-2.526 2.384-2.574 1.235-.051 2.62 1.273 2.734 2.503.108 1.154-.931 2.668-2.085 2.782-1.35.134-2.97-1.357-3.033-2.711zm-9.741-11.907c-.056-1.17 1.215-2.527 2.384-2.577 1.236-.053 2.628 1.267 2.744 2.499.11 1.157-.938 2.674-2.095 2.789-1.35.133-2.969-1.357-3.033-2.711zm-12.187 39.696c-.53-1.044.07-2.806 1.116-3.332 1.102-.554 2.908.077 3.516 1.15.575 1.012.24 2.826-.77 3.405-1.17.672-3.25-.02-3.862-1.223zm-12.793-5.525c-.531-1.044.069-2.806 1.116-3.332 1.101-.554 2.907.077 3.516 1.15.574 1.012.24 2.826-.77 3.405-1.171.673-3.25-.019-3.862-1.223zm-12.052 37.195c-.531-1.044.069-2.807 1.116-3.333 1.101-.553 2.907.078 3.516 1.15.574 1.012.24 2.827-.77 3.406-1.17.672-3.25-.02-3.862-1.223zm15.792 37.68c-.531-1.045.07-2.807 1.116-3.333 1.101-.554 2.907.077 3.516 1.15.574 1.012.24 2.826-.77 3.406-1.17.672-3.25-.02-3.862-1.224zm-12.537 4.086c-.53-1.044.07-2.806 1.116-3.332 1.102-.554 2.907.077 3.516 1.15.575 1.012.24 2.826-.77 3.405-1.17.672-3.25-.02-3.862-1.223zm27.29 26.39c-.531-1.045.07-2.807 1.116-3.333 1.102-.554 2.907.078 3.516 1.15.575 1.012.24 2.826-.77 3.406-1.17.672-3.25-.02-3.862-1.224zm-10.25 8.103c-.532-1.044.068-2.806 1.115-3.332 1.102-.554 2.907.077 3.516 1.15.575 1.012.24 2.826-.77 3.405-1.17.673-3.25-.019-3.862-1.223zm32.9 13.022c-.532-1.044.069-2.806 1.115-3.332 1.102-.554 2.908.077 3.516 1.15.575 1.012.24 2.826-.77 3.405-1.17.672-3.25-.02-3.862-1.223zm-5.61 11.706c-.532-1.045.068-2.807 1.115-3.333 1.101-.554 2.907.078 3.516 1.15.574 1.012.24 2.826-.77 3.406-1.17.672-3.25-.02-3.862-1.223zm25.158-188.028c-.056-1.166 1.206-2.525 2.372-2.576 1.236-.054 2.627 1.27 2.742 2.5.109 1.157-.937 2.672-2.092 2.785-1.346.132-2.957-1.357-3.022-2.709z"/><g fill="#efae0e" stroke="#000" stroke-width="2"><path stroke-width=".38314" d="M239.576 357.032c1.102-3.044 2.958-12.36 2.24-16.411-.009.024-.025.05-.025.068 0-.03.01-.068.016-.104v-.002.002c.229-1.124.262-2.732.078-3.235-1.706-.095-4.27-.227-7.042-.191 2.304 11.017-2.127 17.2-.506 21.476 1.93 2.06 4.133 1.448 5.24-1.603m9.947-3.372c-.525 2.224-2.187 3.96-4.23 5.075 1.13 1.552 1.949 2.32 2.886 1.783.87-.496 3.243-3.016 4.42-5.413-1.238-.038-2.368-.472-3.076-1.445"/><path fill="none" stroke-width=".38965337999999994" d="M248.865 352.262c-2.612-4.626.959-6.627.75-9.944-.046-.748-.282-1.779-.446-2.202-1.257-3.332-7.997-1.684-7.352.506.717 4.05-1.14 13.366-2.234 16.41-1.113 3.047-3.662 2.417-5.604.353-.47 5.619 6.562 7.574 11.243 5.01 2.043-1.122 3.693-2.851 4.23-5.076.16-.664.277-1.415.371-2.208.054-.385.092-.775.127-1.18a18 18 0 0 1-1.085-1.669z"/><path stroke-width=".38314" d="M262.464 353.66c.525 2.224 2.187 3.96 4.23 5.075-1.13 1.552-1.949 2.32-2.886 1.783-.87-.496-3.243-3.016-4.42-5.413 1.238-.038 2.368-.472 3.076-1.445"/><path stroke-width=".38314" d="M255.988 342.339c-1.99.056-5.192 1.764-6.075 2.792.103 1.37-1.824 2.56-1.862 4.043-.043 1.707 2.523 6.51 4.902 8.936.818.835 2.857 1.746 3.04 1.746.184 0 2.22-.913 3.04-1.746 2.317-2.35 4.802-7.05 4.799-8.66-.003-1.554-1.86-2.96-1.758-4.319-.883-1.028-4.085-2.736-6.075-2.792zM272.412 357.032c-1.101-3.044-2.958-12.36-2.24-16.411.009.024.025.05.025.068 0-.03-.01-.068-.016-.104v-.002.002c-.228-1.124-.261-2.732-.078-3.235 1.707-.095 4.27-.227 7.042-.191-2.304 11.017 2.128 17.2.506 21.476-1.93 2.06-4.133 1.448-5.239-1.603"/><path fill="none" stroke-width=".38965337999999994" d="M263.123 352.262c2.612-4.626-.958-6.627-.75-9.944.046-.748.282-1.779.446-2.202 1.257-3.332 7.997-1.684 7.352.506-.717 4.05 1.14 13.366 2.234 16.41 1.113 3.047 3.662 2.417 5.604.353.47 5.619-6.562 7.574-11.243 5.01-2.043-1.122-3.693-2.851-4.23-5.076a19 19 0 0 1-.371-2.208 23 23 0 0 1-.127-1.18c.419-.564.764-1.119 1.085-1.669z"/></g><path fill="#3f863f" stroke="#000" stroke-width=".38275686" d="M242.512 168.902c2.606-2.125 5.666-4.095 7.648-5.161-3.21-1.975-6.57-2.128-9.933-2.128 2.285-1.216 4.586-4.703 4.738-7.439-3.974-.608-9.626 1.972-11.457 5.011-1.157 1.895-5.266 6.157-7.957 8.527.73-1.757 1.928-3.967 1.928-5.878 0-.793-.796-1.026-1.03-.077-.969 3.832-5.266 7.192-9.15 8.517-5.376 1.834-10.916 4.466-16.353 7.847-.796-.64-.997-1.385-.975-2.007.094-1.524 2.161-2.163 4.586-2.273 3.995-.174 17.613-8.259 15.41-15.531-1.567 3.177-5.397 4.123-10.635 4.593-6.59.608-12.144 6.535-10.76 13.138.34 1.613.494 2.529.459 3.316a84 84 0 0 0-6.077 4.391c.26-2.221.281-5.032-.237-6.608-.338-1.061-1.526-2.334-1.127-.113.322 1.79-.55 6.42-2.169 9.699-5.878 5.218-11.255 11.47-15.652 18.708-.754-.289-1.17-.794-1.361-1.296-.55-1.416 1.04-2.86 3.191-3.976 3.257-4.057 12.499-14.833 7.44-20.516-.085 3.527-3.16 5.988-7.706 8.597-5.73 3.299-8.272 10.994-4.234 16.404.832 1.109 1.335 1.825 1.65 2.46-1.095 1.901-2.094 3.894-3.054 5.923-.685-1.873-1.634-3.872-2.596-4.903-.754-.826-2.356-1.505-1.075.36.889 1.29 1.85 4.856 2.03 8.148-3.214 6.82-5.697 15.216-7.044 24.616-.832.021-1.415-.298-1.805-.692-1.042-1.115-.101-3.045 1.484-4.88 1.24-4.651 5.374-17.405-.756-21.789 1.233 3.31-.702 6.733-3.958 10.83-4.075 5.178-3.567 13.259 2.221 16.79 1.264.773 2.008 1.273 2.552 1.773a100 100 0 0 0-.57 5.654c-1.48-1.655-3.52-3.505-5.022-4.16-1.014-.459-2.772-.433-.827.753 1.49.918 4.21 4.41 5.635 7.688-.272 8.203.33 16.905 2.008 25.798a2.2 2.2 0 0 1-1.703-.139c-1.31-.68-1.32-2.625-.766-4.651.935-3.332-2.488-17.669-9.484-18.76 2.365 2.54 2.161 6.053 1.16 10.522-1.255 5.622 2.45 12.518 8.645 14.002 1.11.264 1.869.465 2.448.689.453 2.238 1.103 4.762 1.947 7.483-2.034-.888-4.608-1.718-6.23-1.707-1.128.005-2.704.742-.455 1.033 1.661.219 5.272 2.088 7.903 4.33 2.28 6.336 5.629 13.477 10.162 20.606-.602.577-1.25.733-1.804.702-1.526-.117-2.928-2.272-3.018-4.676-.114-3.973-7.275-17.51-14.627-15.427 3.166 1.597 4.069 5.424 4.475 10.628.524 6.559 6.405 12.157 13.067 10.863 1.39-.268 2.261-.4 2.982-.411a99 99 0 0 0 4.5 6.25c-2.187-.155-4.826-.082-6.331.46-1.059.372-2.292 1.588-.083 1.123 1.635-.345 5.66.218 8.898 1.463 4.177 4.936 9.033 9.637 14.601 13.817-.39.49-.873.733-1.323.826-1.512.289-4.777-1.74-5.498-4.048-1.174-3.795-11.138-9.047-17.675-5.114 3.48.712 5.976-.385 7.738 4.53 2.25 6.19 10.611 8.439 15.702 5.99 1.12-.533 1.874-.878 2.51-1.09a81 81 0 0 0 6.591 4.26c-1.909.768-3.974 1.834-5.004 2.846-.8.782-1.415 2.407.409 1.057 1.186-.888 4.423-1.912 7.568-2.278 7.125 3.762 15.168 6.639 24.21 8.254-.102.791-.524 1.284-.93 1.648-1.159 1.01-3.626.703-5.415-.922-3.495-2-18.464-6.276-22.083.407 3.357-1.143 7.445-.076 11.476 3.27 5.084 4.205 13.229 3.93 16.94-1.72.86-1.305 1.475-1.913 2.09-2.303a89 89 0 0 0 4.864.615c.312-1.42.711-2.768.871-3.853a81 81 0 0 1-5.176-.754c.515-1.458 1.35-3.116.652-5.042-1.222-3.555-6.857-8.576-12.4-8.625-4.347-.065-8.087-4.748-11.52-5.11 1.254 2.112 2.041 3.753 2.495 5.998 1.178 5.913 7.754 9.531 15.728 8.88 2.03-.163 3.506 1.9 3.818 3.675-8.19-1.564-16.494-4.405-24.355-8.418-2.025-2.365-2.712-4.567-2.99-5.905-.455-2.046-1.432-2.368-1.07.173.178 1.275.525 2.76 1 4.079a92 92 0 0 1-5.55-3.368c1.075-1.284 2.96-2.477 3.157-4.818.373-3.739-2.663-10.626-7.686-12.958-3.924-1.848-5.382-7.655-8.357-9.395.263 2.44.296 4.255-.229 6.486-1.398 5.863 3.086 11.87 10.606 14.561 2.179.78 2.49 3.882 1.7 5.577-5.432-3.638-10.484-7.867-14.95-12.65-1.703-3.996-1.34-7.04-.973-8.672.451-2.043-.297-2.742-1.035-.289-.524 1.736-.907 3.96-.865 5.728a75 75 0 0 1-4.727-6.331c1.11-1.48 4.118-1.837 5.127-4.558 1.352-3.515.248-10.95-3.983-14.521-3.315-2.816-3.166-8.787-5.572-11.25-.404 2.423-.848 4.184-1.942 6.197-2.899 5.295-.17 12.26 6.382 16.827 2.258 1.57 1.11 5.624-.593 6.429-4.101-6.296-7.31-13.143-9.694-20.227-.265-4.321 1.092-7.082 1.982-8.496 1.11-1.778.636-2.684-.89-.617-.948 1.289-1.919 2.982-2.526 4.513-.631-2.24-1.208-4.501-1.701-6.77 1.448-.369 3.733.174 5.193-1.43 2.179-2.32 3.36-8.867.737-13.528-2.046-3.67-.208-8.503-1.575-11.516-1.042 1.823-1.048 3.179-2.581 4.376-3.448 3.631-3.091 8.802-.218 16.312 1.325 1.949-.18 4.396-1.735 4.934-2.549-12.363-2.889-24.865-1.405-35.872 1.779-.08 4.085 1.37 6.507.132 3.383-1.679 7.646-7.888 6.963-13.361-.508-4.3 3.662-8.604 3.563-12.033-1.935 1.515-3.473 2.51-5.652 3.252-5.736 1.944-8.475 8.912-6.771 16.677.55 2.506-2.607 4.605-4.475 4.398a102.4 102.4 0 0 1 5.992-22.618c3.29-3.651 6.559-4.576 8.33-4.877 2.08-.37 2.436-1.324-.127-1.07-2.131.211-4.834.868-6.453 1.803a92 92 0 0 1 3.695-7.394c1.805.382 3.431 2.897 6.314 2.62 3.77-.306 10.05-4.502 11.466-9.834 1.131-4.178 6.608-6.634 7.808-9.856-2.372.69-4.153 1.052-6.457.939-6.056-.314-11.204 5.143-12.527 12.981-.451 2.691-4.617 3.417-6.09 2.242 4.049-7.063 9.032-13.467 14.932-18.614 4.37-1.853 7.65-1.362 9.351-.925 2.046.514 2.774-.212.321-1.026-1.83-.609-4.238-1.09-6.055-1.045a97 97 0 0 1 6.575-4.732c1.493 1.102 1.904 4.065 4.636 5.016 3.546 1.292 11.012.097 14.552-4.156 2.8-3.32 8.806-3.264 11.253-5.692-2.446-.357-4.23-.78-6.26-1.84-5.362-2.807-12.342 0-16.845 6.567-1.539 2.233-5.57 1.19-6.45-.453 7.156-4.565 15.156-8.154 23.437-10.182 5.645-1.382 14.874.834 17.4-1.233"/><path fill="#d4212f" d="M198.577 186.948c-.055-1.169 1.215-2.526 2.384-2.574 1.235-.051 2.62 1.273 2.734 2.503.108 1.154-.931 2.668-2.085 2.782-1.35.134-2.97-1.357-3.033-2.711m-9.741-11.907c-.056-1.17 1.215-2.527 2.384-2.577 1.236-.053 2.628 1.267 2.744 2.499.11 1.157-.938 2.674-2.095 2.789-1.35.133-2.969-1.357-3.033-2.711m-12.187 39.696c-.53-1.044.07-2.806 1.116-3.332 1.102-.554 2.908.077 3.516 1.15.575 1.012.24 2.826-.77 3.405-1.17.672-3.25-.02-3.862-1.223m-12.793-5.525c-.531-1.044.069-2.806 1.116-3.332 1.101-.554 2.907.077 3.516 1.15.574 1.012.24 2.826-.77 3.405-1.171.673-3.25-.019-3.862-1.223m-12.052 37.195c-.531-1.044.069-2.807 1.116-3.333 1.101-.553 2.907.078 3.516 1.15.574 1.012.24 2.827-.77 3.406-1.17.672-3.25-.02-3.862-1.223m15.792 37.68c-.531-1.045.07-2.807 1.116-3.333 1.101-.554 2.907.077 3.516 1.15.574 1.012.24 2.826-.77 3.406-1.17.672-3.25-.02-3.862-1.224m-12.537 4.086c-.53-1.044.07-2.806 1.116-3.332 1.102-.554 2.907.077 3.516 1.15.575 1.012.24 2.826-.77 3.405-1.17.672-3.25-.02-3.862-1.223zm27.29 26.39c-.531-1.045.07-2.807 1.116-3.333 1.102-.554 2.907.078 3.516 1.15.575 1.012.24 2.826-.77 3.406-1.17.672-3.25-.02-3.862-1.224zm-10.25 8.103c-.532-1.044.068-2.806 1.115-3.332 1.102-.554 2.907.077 3.516 1.15.575 1.012.24 2.826-.77 3.405-1.17.673-3.25-.019-3.862-1.223m32.9 13.022c-.532-1.044.069-2.806 1.115-3.332 1.102-.554 2.908.077 3.516 1.15.575 1.012.24 2.826-.77 3.405-1.17.672-3.25-.02-3.862-1.223m-5.61 11.706c-.532-1.045.068-2.807 1.115-3.333 1.101-.554 2.907.078 3.516 1.15.574 1.012.24 2.826-.77 3.406-1.17.672-3.25-.02-3.862-1.223zm25.158-188.028c-.056-1.166 1.206-2.525 2.372-2.576 1.236-.054 2.627 1.27 2.742 2.5.109 1.157-.937 2.672-2.092 2.785-1.346.132-2.957-1.357-3.022-2.709z"/><path fill="none" stroke="#000" stroke-width=".5747099999999999" d="M313.411 186.948c.055-1.169-1.215-2.526-2.384-2.574-1.234-.051-2.62 1.273-2.734 2.503-.108 1.154.932 2.668 2.085 2.782 1.35.134 2.97-1.357 3.033-2.711zm9.741-11.907c.056-1.17-1.215-2.527-2.384-2.577-1.236-.053-2.628 1.267-2.744 2.499-.11 1.157.938 2.674 2.095 2.789 1.35.133 2.97-1.357 3.033-2.711zm12.187 39.696c.53-1.044-.07-2.806-1.116-3.332-1.102-.554-2.907.077-3.516 1.15-.575 1.012-.24 2.826.77 3.405 1.17.672 3.25-.02 3.862-1.223zm12.793-5.525c.532-1.044-.069-2.806-1.115-3.332-1.102-.554-2.908.077-3.516 1.15-.575 1.012-.24 2.826.77 3.405 1.17.673 3.25-.019 3.861-1.223zm12.052 37.195c.532-1.044-.069-2.807-1.115-3.333-1.102-.553-2.908.078-3.516 1.15-.575 1.012-.24 2.827.769 3.406 1.171.672 3.25-.02 3.862-1.223zm-15.792 37.68c.531-1.045-.069-2.807-1.116-3.333-1.101-.554-2.907.077-3.516 1.15-.574 1.012-.24 2.826.77 3.406 1.171.672 3.25-.02 3.862-1.224zm12.537 4.086c.531-1.044-.07-2.806-1.116-3.332-1.102-.554-2.907.077-3.516 1.15-.574 1.012-.24 2.826.77 3.405 1.17.672 3.25-.02 3.862-1.223zm-27.29 26.39c.531-1.045-.07-2.807-1.116-3.333-1.101-.554-2.907.078-3.516 1.15-.574 1.012-.24 2.826.77 3.406 1.171.672 3.25-.02 3.862-1.224zm10.251 8.103c.531-1.044-.069-2.806-1.116-3.332-1.101-.554-2.907.077-3.516 1.15-.574 1.012-.24 2.826.77 3.405 1.17.673 3.25-.019 3.862-1.223zm-32.9 13.022c.53-1.044-.07-2.806-1.116-3.332-1.102-.554-2.907.077-3.516 1.15-.575 1.012-.24 2.826.77 3.405 1.17.672 3.25-.02 3.862-1.223zm5.61 11.706c.531-1.045-.069-2.807-1.116-3.333-1.101-.554-2.907.078-3.516 1.15-.574 1.012-.24 2.826.77 3.406 1.171.672 3.25-.02 3.862-1.223zm-25.159-188.028c.056-1.166-1.206-2.525-2.372-2.576-1.236-.054-2.627 1.27-2.742 2.5-.108 1.157.937 2.672 2.092 2.785 1.347.132 2.957-1.357 3.022-2.709z"/><path fill="#3f863f" stroke="#000" stroke-width=".38275686" d="M269.473 168.902c-2.606-2.125-5.665-4.095-7.648-5.161 3.211-1.975 6.57-2.128 9.933-2.128-2.285-1.216-4.586-4.703-4.737-7.439 3.974-.608 9.625 1.972 11.456 5.011 1.158 1.895 5.267 6.157 7.958 8.527-.73-1.757-1.929-3.967-1.929-5.878 0-.793.796-1.026 1.03-.077.97 3.832 5.267 7.192 9.151 8.517 5.375 1.834 10.916 4.466 16.352 7.847.796-.64.997-1.385.976-2.007-.094-1.524-2.162-2.163-4.586-2.273-3.995-.174-17.614-8.259-15.41-15.531 1.567 3.177 5.397 4.123 10.635 4.593 6.59.608 12.144 6.535 10.76 13.138-.34 1.613-.494 2.529-.46 3.316a84 84 0 0 1 6.078 4.391c-.26-2.221-.282-5.032.236-6.608.338-1.061 1.526-2.334 1.127-.113-.321 1.79.55 6.42 2.169 9.699 5.879 5.218 11.256 11.47 15.653 18.708.754-.289 1.17-.794 1.36-1.296.551-1.416-1.039-2.86-3.191-3.976-3.256-4.057-12.499-14.833-7.44-20.516.085 3.527 3.161 5.988 7.707 8.597 5.73 3.299 8.272 10.994 4.234 16.404-.832 1.109-1.335 1.825-1.65 2.46 1.095 1.901 2.094 3.894 3.053 5.923.685-1.873 1.635-3.872 2.597-4.903.753-.826 2.355-1.505 1.074.36-.888 1.29-1.85 4.856-2.029 8.148 3.213 6.82 5.697 15.216 7.044 24.616.831.021 1.415-.298 1.804-.692 1.043-1.115.102-3.045-1.483-4.88-1.241-4.651-5.374-17.405.756-21.789-1.233 3.31.701 6.733 3.957 10.83 4.076 5.178 3.568 13.259-2.22 16.79-1.265.773-2.009 1.273-2.552 1.773a100 100 0 0 1 .569 5.654c1.48-1.655 3.52-3.505 5.023-4.16 1.014-.459 2.771-.433.827.753-1.491.918-4.21 4.41-5.635 7.688.271 8.203-.33 16.905-2.008 25.798a2.2 2.2 0 0 0 1.703-.139c1.31-.68 1.319-2.625.766-4.651-.936-3.332 2.488-17.669 9.484-18.76-2.365 2.54-2.162 6.053-1.16 10.522 1.254 5.622-2.45 12.518-8.645 14.002-1.11.264-1.87.465-2.448.689-.454 2.238-1.103 4.762-1.947 7.483 2.034-.888 4.607-1.718 6.23-1.707 1.127.005 2.703.742.454 1.033-1.661.219-5.271 2.088-7.903 4.33-2.28 6.336-5.628 13.477-10.162 20.606.602.577 1.25.733 1.805.702 1.526-.117 2.927-2.272 3.017-4.676.114-3.973 7.275-17.51 14.628-15.427-3.166 1.597-4.07 5.424-4.475 10.628-.525 6.559-6.406 12.157-13.068 10.863-1.39-.268-2.26-.4-2.982-.411a99 99 0 0 1-4.5 6.25c2.187-.155 4.826-.082 6.332.46 1.058.372 2.291 1.588.083 1.123-1.635-.345-5.661.218-8.898 1.463-4.177 4.936-9.033 9.637-14.602 13.817.39.49.874.733 1.323.826 1.513.289 4.778-1.74 5.498-4.048 1.174-3.795 11.138-9.047 17.675-5.114-3.48.712-5.975-.385-7.738 4.53-2.249 6.19-10.61 8.439-15.702 5.99-1.12-.533-1.874-.878-2.509-1.09a81 81 0 0 1-6.591 4.26c1.908.768 3.973 1.834 5.003 2.846.801.782 1.416 2.407-.408 1.057-1.187-.888-4.423-1.912-7.568-2.278-7.126 3.762-15.169 6.639-24.21 8.254.101.791.524 1.284.93 1.648 1.158 1.01 3.626.703 5.414-.922 3.495-2 18.464-6.276 22.084.407-3.358-1.143-7.446-.076-11.477 3.27-5.084 4.205-13.228 3.93-16.94-1.72-.86-1.305-1.475-1.913-2.089-2.303a89 89 0 0 1-4.864.615c-.312-1.42-.712-2.768-.872-3.853 1.72-.186 3.45-.453 5.177-.754-.515-1.458-1.351-3.116-.652-5.042 1.222-3.555 6.856-8.576 12.4-8.625 4.347-.065 8.087-4.748 11.52-5.11-1.255 2.112-2.042 3.753-2.495 5.998-1.179 5.913-7.754 9.531-15.729 8.88-2.029-.163-3.506 1.9-3.817 3.675 8.189-1.564 16.494-4.405 24.354-8.418 2.025-2.365 2.713-4.567 2.991-5.905.454-2.046 1.432-2.368 1.068.173a21 21 0 0 1-.999 4.079 92 92 0 0 0 5.55-3.368c-1.074-1.284-2.96-2.477-3.156-4.818-.373-3.739 2.662-10.626 7.685-12.958 3.925-1.848 5.382-7.655 8.357-9.395-.262 2.44-.295 4.255.23 6.486 1.398 5.863-3.087 11.87-10.607 14.561-2.178.78-2.49 3.882-1.699 5.577 5.432-3.638 10.483-7.867 14.95-12.65 1.702-3.996 1.339-7.04.972-8.672-.45-2.043.298-2.742 1.035-.289.525 1.736.907 3.96.865 5.728a75 75 0 0 0 4.728-6.331c-1.11-1.48-4.119-1.837-5.128-4.558-1.35-3.515-.248-10.95 3.984-14.521 3.314-2.816 3.166-8.787 5.571-11.25.404 2.423.848 4.184 1.942 6.197 2.9 5.295.17 12.26-6.381 16.827-2.26 1.57-1.111 5.624.592 6.429 4.102-6.296 7.31-13.143 9.694-20.227.265-4.321-1.092-7.082-1.982-8.496-1.11-1.778-.636-2.684.89-.617.948 1.289 1.92 2.982 2.527 4.513.63-2.24 1.207-4.501 1.7-6.77-1.448-.369-3.732.174-5.193-1.43-2.178-2.32-3.36-8.867-.737-13.528 2.046-3.67.208-8.503 1.576-11.516 1.042 1.823 1.047 3.179 2.58 4.376 3.448 3.631 3.092 8.802.219 16.312-1.325 1.949.18 4.396 1.734 4.934 2.55-12.363 2.89-24.865 1.406-35.872-1.78-.08-4.085 1.37-6.507.132-3.384-1.679-7.646-7.888-6.963-13.361.508-4.3-3.662-8.604-3.563-12.033 1.934 1.515 3.473 2.51 5.651 3.252 5.737 1.944 8.475 8.912 6.772 16.677-.55 2.506 2.606 4.605 4.474 4.398a102.4 102.4 0 0 0-5.991-22.618c-3.29-3.651-6.56-4.576-8.33-4.877-2.08-.37-2.437-1.324.127-1.07 2.13.211 4.834.868 6.452 1.803a92 92 0 0 0-3.695-7.394c-1.805.382-3.43 2.897-6.313 2.62-3.77-.306-10.051-4.502-11.466-9.834-1.132-4.178-6.609-6.634-7.809-9.856 2.372.69 4.154 1.052 6.458.939 6.055-.314 11.203 5.143 12.526 12.981.452 2.691 4.617 3.417 6.091 2.242-4.05-7.063-9.032-13.467-14.932-18.614-4.371-1.853-7.65-1.362-9.352-.925-2.046.514-2.774-.212-.321-1.026 1.831-.609 4.239-1.09 6.056-1.045a97 97 0 0 0-6.576-4.732c-1.493 1.102-1.904 4.065-4.635 5.016-3.546 1.292-11.012.097-14.552-4.156-2.8-3.32-8.806-3.264-11.253-5.692 2.445-.357 4.229-.78 6.259-1.84 5.363-2.807 12.342 0 16.846 6.567 1.538 2.233 5.569 1.19 6.45-.453-7.157-4.565-15.156-8.154-23.438-10.182-5.644-1.382-14.874.834-17.4-1.233"/><path fill="#d4212f" d="M313.411 186.948c.055-1.169-1.215-2.526-2.384-2.574-1.234-.051-2.62 1.273-2.734 2.503-.108 1.154.932 2.668 2.085 2.782 1.35.134 2.97-1.357 3.033-2.711m9.741-11.907c.056-1.17-1.215-2.527-2.384-2.577-1.236-.053-2.628 1.267-2.744 2.499-.11 1.157.938 2.674 2.095 2.789 1.35.133 2.97-1.357 3.033-2.711m12.187 39.696c.53-1.044-.07-2.806-1.116-3.332-1.102-.554-2.907.077-3.516 1.15-.575 1.012-.24 2.826.77 3.405 1.17.672 3.25-.02 3.862-1.223m12.793-5.525c.532-1.044-.069-2.806-1.115-3.332-1.102-.554-2.908.077-3.516 1.15-.575 1.012-.24 2.826.77 3.405 1.17.673 3.25-.019 3.861-1.223m12.052 37.195c.532-1.044-.069-2.807-1.115-3.333-1.102-.553-2.908.078-3.516 1.15-.575 1.012-.24 2.827.769 3.406 1.171.672 3.25-.02 3.862-1.223m-15.792 37.68c.531-1.045-.069-2.807-1.116-3.333-1.101-.554-2.907.077-3.516 1.15-.574 1.012-.24 2.826.77 3.406 1.171.672 3.25-.02 3.862-1.224m12.537 4.086c.531-1.044-.07-2.806-1.116-3.332-1.102-.554-2.907.077-3.516 1.15-.574 1.012-.24 2.826.77 3.405 1.17.672 3.25-.02 3.862-1.223zm-27.29 26.39c.531-1.045-.07-2.807-1.116-3.333-1.101-.554-2.907.078-3.516 1.15-.574 1.012-.24 2.826.77 3.406 1.171.672 3.25-.02 3.862-1.224zm10.251 8.103c.531-1.044-.069-2.806-1.116-3.332-1.101-.554-2.907.077-3.516 1.15-.574 1.012-.24 2.826.77 3.405 1.17.673 3.25-.019 3.862-1.223m-32.9 13.022c.53-1.044-.07-2.806-1.116-3.332-1.102-.554-2.907.077-3.516 1.15-.575 1.012-.24 2.826.77 3.405 1.17.672 3.25-.02 3.862-1.223m5.61 11.706c.531-1.045-.069-2.807-1.116-3.333-1.101-.554-2.907.078-3.516 1.15-.574 1.012-.24 2.826.77 3.406 1.171.672 3.25-.02 3.862-1.223zm-25.159-188.028c.056-1.166-1.206-2.525-2.372-2.576-1.236-.054-2.627 1.27-2.742 2.5-.108 1.157.937 2.672 2.092 2.785 1.347.132 2.957-1.357 3.022-2.709z"/><g transform="translate(107.892 107.892)scale(.19157)"><path fill="#d4212f" fill-rule="evenodd" stroke="#000" stroke-miterlimit="6.3" stroke-width="2" d="M915.012 411.87s-5.884 1.993-8.948 2.301c-6.623.666-13.45.444-19.942-1.022-7.379-1.667-13.929-5.911-20.964-8.693-15.75-6.227-31.504-12.484-47.553-17.896-16.351-5.514-32.5-12.498-49.598-14.828-8.615-1.174-17.472-.727-26.078.511-5.77.83-11.532 2.265-16.873 4.602-4.42 1.933-9.513 3.713-12.272 7.67-2.39 3.427-2.922 8.109-2.557 12.271.301 3.43 1.778 6.828 3.835 9.588 1.722 2.31 4.275 3.937 6.775 5.369 1.944 1.112 4.999.58 6.264 2.428.554.809.527 2.114 0 2.94-.708 1.11-2.333 1.24-3.58 1.662-2.976 1.009-6.157 1.273-9.203 2.046-10.825 2.746-22.077 4.516-32.213 9.203-4.463 2.064-9.128 4.402-12.272 8.182-1.66 1.995-2.472 4.631-3.068 7.158-.667 2.825.135 5.863-.511 8.693-.699 3.054-1.608 6.257-3.58 8.692-2.47 3.05-6.311 4.694-9.715 6.647-3.025 1.736-6.111 3.497-9.46 4.474-2.597.759-5.765-.274-8.053 1.023-2.122 1.204 4.155.91 6.264 1.15 3.73.426 7.505.24 11.25.512 3.416.248 6.833 1.502 10.226 1.022 3.635-.513 7.404-1.742 10.226-4.09 2.944-2.45 4.87-6.1 6.136-9.715 1.02-2.913-.248-6.39 1.023-9.204 1.043-2.31 2.957-4.293 5.113-5.625 8.585-5.302 19.475-5.298 29.145-8.18 6.51-1.941 13.71-2.475 19.43-6.137 2.134-1.366 3.854-3.426 5.114-5.624 1.42-2.48 2.388-5.33 2.556-8.181.163-2.77-.334-5.68-1.534-8.182-1.358-2.834-4.457-4.501-6.136-7.158-.896-1.42-2.683-3.05-2.045-4.602 1.827-4.442 8.686-4.446 13.422-5.241 7.402-1.242 15.057-.08 22.499.895 9.655 1.264 19.21 3.493 28.506 6.391 9.125 2.845 17.967 6.611 26.589 10.738 7.57 3.624 15.101 7.472 21.986 12.272 5.157 3.595 9.192 8.633 14.318 12.272 4.982 3.536 10.102 7.134 15.85 9.203 6.829 2.459 14.244 2.981 21.476 3.58 4.756.393 14.317 0 14.317 0h.64z"/><path fill="#fff" fill-rule="evenodd" d="m842.276 395.636-11.504 21.987 8.309 4.474 10.098-23.52zm9.716 4.218-10.61 23.905 9.076 5.88 9.331-27.228zM863.752 404.456l-9.843 27.484 8.181 7.286 9.076-31.702zm-71.074-3.962s1.166-1.066 1.278-1.79c.193-1.238-.36-2.607-1.15-3.58-2.226-2.74-5.936-3.904-9.204-5.24-5.548-2.27-11.45-3.753-17.385-4.602a64.8 64.8 0 0 0-15.084-.384c-3.47.32-6.895 1.151-10.226 2.173-2.814.864-5.825 1.56-8.181 3.324-1.481 1.109-2.817 2.609-3.452 4.346-.497 1.362-.414 2.926-.128 4.346.305 1.515 1.196 2.853 1.918 4.219 1.42 2.688 3.74 4.923 4.73 7.797.824 2.394 1.54 5.095.894 7.543-.716 2.71-2.967 4.829-4.985 6.775-1.744 1.681-3.82 3.05-6.008 4.09-5.943 2.822-12.606 3.774-18.92 5.625-5.447 1.597-11.065 2.684-16.361 4.73-4.427 1.709-9.35 2.988-12.784 6.263-1.407 1.343-2.042 3.327-2.812 5.113-.992 2.302-2.3 7.159-2.3 7.159s-.618 5.521-2.046 7.798c-1.22 1.945-3.165 3.492-5.241 4.474-2.191 1.036-4.78.814-7.159 1.278-4.445.867-8.985 1.416-13.294 2.812-.798.259-3.068 1.023-2.301 1.023s9.448 1.006 14.19 1.278c3.404.196 6.88.91 10.226.256 2.51-.491 5.075-1.42 7.03-3.068 2.965-2.498 5.028-6.087 6.392-9.715 1.316-3.503-.105-7.757 1.534-11.122.831-1.706 2.347-3.094 3.963-4.09 7.526-4.639 16.898-5.207 25.31-7.926 7.95-2.569 16.467-3.88 23.777-7.925 1.642-.909 3.255-2.052 4.346-3.58 1.905-2.666 3.02-5.955 3.451-9.203.237-1.782.078-3.67-.511-5.37-.747-2.154-2.26-3.989-3.707-5.751-1.09-1.328-2.715-2.178-3.707-3.58-.947-1.338-2.221-2.843-2.045-4.474.182-1.694 1.609-3.208 3.067-4.09 3.879-2.346 8.894-1.996 13.423-2.174 7.775-.304 15.564.8 23.265 1.918 6.591.957 19.558 4.09 19.558 4.09z"/><path fill="#002a86" fill-rule="evenodd" d="m876.024 411.487-4.602 33.62s6.903 4.346 7.925 4.474c1.023.127 17.002 1.022 17.002 1.022l16.49.128 1.662-38.733-8.82 2.301s-13.295 0-14.062-.128c-.767-.127-11.377-2.556-11.377-2.556l-3.963-1.662z"/><path fill="#fff" fill-rule="evenodd" d="m831.027 392.44-10.226 19.686 7.414 3.835 9.715-21.603zm-22.37-8.18-9.715 19.43 8.181 3.45 8.692-20.197zm10.61 3.706-9.715 19.686 8.18 3.58 8.821-20.837-7.286-2.812z"/><circle cx="906.575" cy="420.819" r="1.152" fill="#fff" fill-rule="evenodd"/><circle cx="897.499" cy="420.307" r="1.152" fill="#fff" fill-rule="evenodd"/><circle cx="890.085" cy="419.668" r="1.152" fill="#fff" fill-rule="evenodd"/><circle cx="881.564" cy="417.09" r="1.152" fill="#fff" fill-rule="evenodd"/><circle cx="880.648" cy="423.104" r="1.152" fill="#fff" fill-rule="evenodd"/><circle cx="888.935" cy="425.932" r="1.152" fill="#fff" fill-rule="evenodd"/><circle cx="896.364" cy="426.608" r="1.152" fill="#fff" fill-rule="evenodd"/><circle cx="905.169" cy="427.338" r="1.152" fill="#fff" fill-rule="evenodd"/><circle cx="904.146" cy="433.218" r="1.152" fill="#fff" fill-rule="evenodd"/><circle cx="895.597" cy="433.511" r="1.152" fill="#fff" fill-rule="evenodd"/><circle cx="888.04" cy="432.579" r="1.152" fill="#fff" fill-rule="evenodd"/><circle cx="879.603" cy="429.511" r="1.152" fill="#fff" fill-rule="evenodd"/><circle cx="878.421" cy="436.03" r="1.152" fill="#fff" fill-rule="evenodd"/><circle cx="886.927" cy="438.625" r="1.152" fill="#fff" fill-rule="evenodd"/><circle cx="894.703" cy="439.279" r="1.152" fill="#fff" fill-rule="evenodd"/><circle cx="902.996" cy="439.738" r="1.152" fill="#fff" fill-rule="evenodd"/><circle cx="902.229" cy="446.64" r="1.152" fill="#fff" fill-rule="evenodd"/><circle cx="892.897" cy="445.873" r="1.152" fill="#fff" fill-rule="evenodd"/><circle cx="885.452" cy="444.76" r="1.152" fill="#fff" fill-rule="evenodd"/><circle cx="876.919" cy="442.422" r="1.152" fill="#fff" fill-rule="evenodd"/><path fill="none" stroke="#000" stroke-miterlimit="6.3" stroke-width="2" d="M914.884 411.487s-5.77 2.31-8.82 2.684c-6.606.811-13.45.444-19.942-1.022-7.379-1.667-13.929-5.911-20.964-8.693-15.75-6.227-31.504-12.484-47.553-17.896-16.351-5.514-32.5-12.498-49.598-14.828-8.615-1.174-17.472-.727-26.078.511-5.77.83-11.532 2.265-16.873 4.602-4.42 1.933-9.513 3.713-12.272 7.67-2.39 3.427-3.065 8.124-2.557 12.271.49 3.992 2.582 7.85 5.241 10.866 1.814 2.057 4.486 3.18 6.903 4.474 1.514.811 3.787.61 4.73 2.045.538.82.527 2.114 0 2.94-.708 1.11-2.333 1.24-3.58 1.662-2.976 1.009-6.157 1.273-9.203 2.046-10.825 2.746-22.077 4.516-32.213 9.203-4.463 2.064-9.128 4.402-12.272 8.182-1.66 1.995-2.472 4.631-3.068 7.158-.667 2.825.135 5.863-.511 8.693-.699 3.054-1.608 6.257-3.58 8.692-2.47 3.05-6.311 4.694-9.715 6.647-3.025 1.736-6.111 3.497-9.46 4.474-2.597.759-5.765-.274-8.053 1.023-2.122 1.204 4.155.91 6.264 1.15 3.73.426 7.505.24 11.25.512 3.416.248 6.833 1.502 10.226 1.022 3.635-.513 7.404-1.742 10.226-4.09 2.944-2.45 4.87-6.1 6.136-9.715 1.02-2.913-.248-6.39 1.023-9.204 1.043-2.31 2.957-4.293 5.113-5.625 8.585-5.302 19.475-5.298 29.145-8.18 6.51-1.941 13.71-2.475 19.43-6.137 2.134-1.366 3.854-3.426 5.114-5.624 1.42-2.48 2.388-5.33 2.556-8.181.163-2.77-.334-5.68-1.534-8.182-1.358-2.834-4.457-4.501-6.136-7.158-.896-1.42-2.683-3.05-2.045-4.602 1.827-4.442 8.686-4.446 13.422-5.241 7.402-1.242 15.057-.08 22.499.895 9.655 1.264 19.21 3.493 28.506 6.391 9.125 2.845 17.967 6.611 26.589 10.738 7.57 3.624 15.101 7.472 21.986 12.272 5.157 3.595 9.192 8.633 14.318 12.272 4.982 3.536 10.102 7.134 15.85 9.203 6.829 2.459 14.244 2.981 21.476 3.58 4.756.393 14.317 0 14.317 0l1.023.255z"/></g><path fill="#fefdfe" fill-rule="evenodd" d="M335.909 239.39s-3.497-.61-5.264-.658c-2.14-.058-4.318-.018-6.407.45-.87.195-1.706.55-2.494.97-.446.237-.784.661-1.246.865-.477.21-1.02.216-1.524.347-.64.165-1.311.263-1.905.554-.423.207-.72.622-1.143.83-.723.359-1.545.467-2.32.694-.726.212-1.435.503-2.182.623-.285.046-.866.035-.866.035s-1.708 1.488-1.8 3.81c-.078 1.92-1.195 3.594-.97 5.54 1.36.408 2.684-.26 3.948-.693.84-.287 1.529-.919 2.355-1.246 1.057-.419 2.247-.448 3.29-.9.908-.395 1.593-1.234 2.528-1.559 1.218-.424 2.554-.433 3.844-.45 1.947-.027 3.894.22 5.818.52.841.13 2.494.553 2.494.553z"/><path fill="#d4212f" fill-rule="evenodd" d="M328.744 238.418c-1.451-.015-2.94.048-4.387.391a9 9 0 0 0-2.28.904c-.645.36-1.027.894-1.463 1.095-.917.422-2.141.314-3.33.75-.993.364-1.788.991-2.621 1.36-.51.225-.98.497-1.492.659-.814.256-1.613.445-2.246.522h-.367c-.237.216-.388.406-.549.599l.741-.008c.764-.037 1.741-.236 2.576-.463.574-.157 1.12-.375 1.647-.608.951-.422 1.734-1.034 2.574-1.342.967-.354 2.22-.236 3.388-.773.688-.317 1.08-.879 1.515-1.122a8.2 8.2 0 0 1 2.084-.827c1.35-.321 2.779-.386 4.202-.371 1.134.011 2.656.144 3.974.301a43 43 0 0 1 1.752.244c.485.08.622-.675.124-.756a44 44 0 0 0-1.785-.248c-1.336-.16-2.871-.295-4.057-.307z" color="#000"/><path fill="#d4212f" fill-rule="evenodd" d="M328.177 239.988c-1.45-.015-2.941.048-4.387.391-.801.19-1.57.508-2.28.904-.645.36-1.027.894-1.463 1.095-.917.422-2.141.314-3.33.75-.993.364-1.788.991-2.621 1.36-.513.227-1.02.438-1.532.568-.907.23-3.072.401-3.072.401-.156.255-.254.508-.37.762 0 0 2.637-.17 3.63-.42.586-.149 1.132-.38 1.654-.61.952-.422 1.734-1.034 2.574-1.342.967-.354 2.22-.235 3.388-.773.688-.317 1.08-.88 1.515-1.122a8.2 8.2 0 0 1 2.084-.828c1.35-.32 2.779-.385 4.202-.37 1.134.011 2.656.144 3.974.301a43 43 0 0 1 1.752.244c.485.08 1.218-.53 1.218-.53-.233-.076-.596-.145-1.094-.227a44 44 0 0 0-1.785-.247c-1.337-.16-2.871-.295-4.057-.307" color="#000"/><path fill="#d4212f" fill-rule="evenodd" d="M327.588 241.615c-1.451-.015-2.94.048-4.387.392a9 9 0 0 0-2.28.904c-.645.36-1.026.894-1.462 1.094-.918.423-2.142.315-3.332.75-.992.364-1.787.992-2.62 1.36-.511.227-1.02.434-1.535.569-.883.231-3.123.456-3.123.456-.051.21-.075.486-.092.77 0 0 2.46-.236 3.41-.485.58-.152 1.126-.376 1.65-.609.952-.42 1.734-1.033 2.574-1.341.967-.354 2.22-.236 3.388-.774.688-.316 1.08-.878 1.516-1.121a8.2 8.2 0 0 1 2.083-.828c1.351-.32 2.78-.385 4.202-.37 1.134.011 2.656.143 3.974.301.659.079 1.268.165 1.752.244.485.079.623-.675.124-.757a44 44 0 0 0-1.785-.248c-1.336-.16-2.871-.295-4.057-.307z" color="#000"/><path fill="#d4212f" fill-rule="evenodd" d="M326.895 243.382c-1.45-.015-2.94.048-4.386.391-.801.19-1.57.508-2.28.904-.645.36-1.027.894-1.463 1.095-.918.422-2.142.314-3.331.75-.993.364-1.787.991-2.62 1.36-.518.229-1.021.447-1.526.566-.792.185-2.626.312-2.626.312l-.17.757s2.067-.111 2.97-.323c.598-.14 1.143-.382 1.661-.612.952-.42 1.735-1.033 2.575-1.34.967-.355 2.219-.236 3.387-.774.688-.317 1.08-.879 1.516-1.122a8.2 8.2 0 0 1 2.084-.828c1.35-.32 2.779-.385 4.202-.37 1.134.011 2.627.108 3.945.265.659.08 1.296.2 1.78.28.485.079.984.11 1.105.15l.113-.681c-.232-.075-.595-.144-1.094-.226a44 44 0 0 0-1.784-.247c-1.337-.16-2.872-.295-4.058-.307" color="#000"/><path fill="#d4212f" fill-rule="evenodd" d="M326.237 244.836c-1.45-.015-2.94.048-4.386.391-.802.19-1.57.508-2.28.904-.645.36-1.027.894-1.463 1.095-.918.423-2.142.314-3.33.75-.993.364-1.789.992-2.622 1.36-.515.229-1.02.445-1.528.567-.712.172-2.354.311-2.354.311l-.197.723.34-.002c.717-.035 1.589-.094 2.391-.287.593-.143 1.139-.38 1.658-.61.952-.422 1.735-1.034 2.575-1.342.966-.355 2.219-.236 3.387-.774.688-.316 1.08-.878 1.516-1.121a8.2 8.2 0 0 1 2.084-.828c1.35-.32 2.778-.385 4.202-.37 1.134.01 2.656.143 3.973.3a43 43 0 0 1 1.753.245c.484.079.86.159.982.198l.326.121.274-.733-.364-.117c-.233-.075-.596-.144-1.095-.226a44 44 0 0 0-1.784-.248c-1.337-.16-2.872-.295-4.058-.307z" color="#000"/><path fill="#d4212f" fill-rule="evenodd" d="M325.718 246.36c-1.45-.015-2.941.048-4.387.391-.801.19-1.57.508-2.28.904-.645.36-1.026.894-1.462 1.095-.918.422-2.142.314-3.332.75-.992.364-1.787.992-2.62 1.36-.516.229-1.02.446-1.527.566-.646.155-2.199.2-2.199.2a7 7 0 0 0-.125.766s1.77-.045 2.502-.22c.594-.142 1.14-.381 1.66-.611.95-.422 1.733-1.033 2.573-1.341.967-.354 2.22-.236 3.388-.774.688-.317 1.08-.879 1.516-1.122a8.2 8.2 0 0 1 2.083-.827c1.35-.321 2.779-.385 4.202-.37 1.134.01 2.656.143 3.974.3a43 43 0 0 1 1.752.244c.485.08 1.278.266 1.278.266l.264-.706s-.92-.235-1.418-.316a44 44 0 0 0-1.785-.248c-1.336-.16-2.871-.295-4.057-.307z" color="#000"/><path fill="#d4212f" fill-rule="evenodd" d="M325.025 248.022c-1.45-.014-2.94.048-4.387.392a9 9 0 0 0-2.28.904c-.645.36-1.026.894-1.462 1.094-.918.423-2.142.315-3.331.75-1.015.372-1.769 1.072-2.588 1.348-.9.303-2.232.467-2.91.5l-.308.006-.037.778.383-.019c.745-.036 2.085-.191 3.117-.54 1.03-.346 1.789-1.053 2.607-1.353.967-.354 2.219-.236 3.387-.774.688-.316 1.08-.878 1.516-1.121a8.2 8.2 0 0 1 2.083-.828c1.351-.32 2.78-.385 4.202-.37 1.135.011 2.657.143 3.975.301.658.08 1.285.192 1.77.271.483.08 1.303.314 1.303.314l.293-.784s-.992-.232-1.49-.314a44 44 0 0 0-1.786-.248c-1.336-.16-2.87-.295-4.057-.307" color="#000"/><path fill="#002868" d="M335.909 239.39s-.717-.335-1.098-.433c-1.101-.283-2.25-.347-3.384-.434-1.233-.096-3.71-.1-3.71-.1s-.744 1.731-.995 2.636c-.28 1.012-.562 3.1-.562 3.1s2.863.052 4.284.212c1.137.127 3.381.593 3.381.593z"/><path fill="#fff" fill-opacity=".994" d="m330.59 238.904-.06.288-.311.036.273.142-.06.288.23-.2.274.143-.133-.267.23-.2-.311.036zm1.22.137-.196.23-.293-.104.172.245-.196.23.302-.078.172.245.015-.293.302-.078-.293-.104zm-2.37.273.09.28-.257.168.313.007.09.282.104-.278.313.007-.25-.178.104-.277-.257.167zm2.887.279.03.292-.286.118.306.063.03.292.158-.253.306.063-.208-.22.159-.253-.287.118zm-3.246.374-.145.26-.309-.05.219.21-.145.261.28-.13.22.21-.046-.291.28-.13-.308-.05zm3.925.442-.117.272-.312-.02.24.189-.119.272.266-.156.24.19-.075-.286.265-.155-.312-.021zm-4.374.504v.294l-.298.091.298.09v.294l.184-.238.297.09-.184-.237.184-.238-.298.091zm4.572.515-.239.19-.266-.155.119.272-.24.19.313-.022.118.272.075-.285.312-.022-.266-.155zm-4.002.438-.218.21-.281-.13.146.26-.219.211.309-.05.146.26.045-.29.308-.05-.28-.13zm3.208.361-.03.293-.306.063.287.117-.03.293.208-.22.287.117-.159-.253.207-.22-.305.063zm-2.73.315-.09.281-.312.008.257.167-.089.281.249-.179.258.167-.104-.277.248-.179-.313.008zm2.095.236-.171.246-.302-.077.196.229-.171.246.292-.105.197.23-.016-.294.293-.105-.302-.077zm-1.338.154.061.288-.273.144.31.034.061.288.132-.266.31.035-.229-.2.132-.266-.274.143z"/><path fill="none" stroke="#000" stroke-linecap="round" stroke-linejoin="round" stroke-miterlimit="6.3" stroke-width=".33218238" d="M328.744 238.418a33 33 0 0 0-.934.005h-.092v.001c-1.121.025-2.254.122-3.36.385a9 9 0 0 0-2.28.904c-.646.36-1.027.894-1.463 1.095-.918.422-2.142.314-3.331.75-.993.364-1.788.991-2.621 1.36-.509.225-.98.497-1.492.659-.812.255-1.608.444-2.24.52l-.026.002h-.346c-.097.088-.177.17-.251.252l-.03.032c-.095.105-.179.208-.265.31l-.004.005h0a6 6 0 0 0-.515.76h-.002a4.94 4.94 0 0 0-.21.403q-.064.135-.124.278l-.036.08h.003a5.3 5.3 0 0 0-.274.92h-.003c-.05.21-.075.487-.091.77a7 7 0 0 1-.187 1.26l-.046.205c-.07.281-.15.56-.231.838l-.02.002-.196.723h.01a12 12 0 0 0-.17.688h-.006a5 5 0 0 0-.075.395q-.03.181-.05.366v.006a5 5 0 0 0-.025.624h-.002l-.037.778.383-.019c.745-.036 2.085-.191 3.116-.539 1.03-.347 1.79-1.054 2.608-1.354.967-.354 2.219-.236 3.387-.774.688-.316 1.08-.878 1.515-1.121a8.2 8.2 0 0 1 2.084-.828c1.35-.32 2.78-.385 4.202-.37 1.135.011 2.657.143 3.974.301.646.078 1.256.187 1.737.266.688.155 1.336.32 1.336.32l.294-.785.356-.954h0l.264-.706.285-.764h0l.274-.733h0l.288-.77 2.083-5.574s-.716-.335-1.097-.433c-1.101-.283-2.25-.347-3.384-.434a35 35 0 0 0-1.664-.07c-.357-.02-.702-.032-1.02-.035z"/><path fill="#fefdfe" fill-rule="evenodd" d="M330.445 264.667a1 1 0 0 0-.172.002s-2.968.498-4.457.71c-2.004.286-4.011.548-6.024.759-1.858.194-3.719.368-5.584.465-1.965.103-3.934.122-5.901.123-.408 0-1.224-.025-1.224-.025-.81.11-.534.859.048.93 0 0 3.036.173 4.555.148 2.127-.035 4.247-.25 6.367-.417 1.888-.147 3.778-.283 5.657-.514a91 91 0 0 0 5.363-.832c.5-.093 1.494-.319 1.494-.319.565-.102.678-.978-.122-1.03m-126.411 6.501a1 1 0 0 0-.244.015c-.15.031-.312.113-.392.245-.118.196-.15.48-.049.685.156.317.56.444.882.588 5.202 2.314 10.968 3.11 16.554 4.212 7.554 1.49 15.235 2.255 22.872 3.232 3.13.4 6.262.79 9.404 1.078 6.355.584 12.73.928 19.1 1.322 3.591.222 7.18.472 10.776.588 6.69.215 13.388.35 20.08.196 3.825-.088 7.644-.372 11.46-.637 1.177-.082 3.527-.294 3.527-.294l-.147-.881s-8.717.243-13.077.245c-6.4.002-12.801-.134-19.199-.343-3.43-.112-6.858-.283-10.284-.49-6.683-.404-13.37-.8-20.032-1.47-7.697-.772-15.372-1.775-23.02-2.938-4.359-.663-8.69-1.5-13.027-2.302-4.235-.782-8.48-1.518-12.685-2.449-.592-.13-1.17-.322-1.764-.44-.242-.049-.49-.145-.735-.162zm122.48 3.26c.329-.027.67-1.079-.184-.883-2.964.479-5.982.18-8.975.28-.89-.006-.413.777-.134.75 2.922.032 5.98.12 9.293-.148"/><path fill="#efae0e" fill-rule="evenodd" d="m191.78 260.102-.123.938 1.95.552.176-1.087zm3.086.735-.123.937 1.949.553.177-1.087zm3.522 1.03-.123.938 1.949.551.177-1.087zm-7.587.733-.123 1.246 1.949.734.177-1.445zm3.731 3.586s1.07 1.256 1.715 1.763c1.311 1.032 2.855 1.728 4.31 2.546.451.255.852.737 1.37.735a.71.71 0 0 0 .54-.293c.164-.23.216-.56.147-.833-.078-.304-.321-.57-.588-.735-.27-.166-.628-.101-.93-.196-.643-.2-1.247-.51-1.862-.783-1.581-.704-4.701-2.204-4.701-2.204zm131.042 3.532c-.226.004-.478.238-.542.454-.238.815-.607 1.468-.832 2.204-.085.277-.027.733.245.833.31.115.74-.221.833-.539.248-.85.49-1.246.734-2.008.1-.314-.027-.83-.343-.93a.3.3 0 0 0-.095-.014zm-5.364.03c-.227.003-.478.237-.542.454-.238.815-.607 1.468-.832 2.204-.085.276-.027.732.245.832.31.115.74-.221.832-.538.249-.851.491-1.247.735-2.009.1-.314-.028-.83-.343-.93a.3.3 0 0 0-.095-.013m2.621.068c-.226.003-.478.238-.541.455-.239.814-.608 1.468-.833 2.203-.085.277-.026.732.245.833.31.115.74-.221.833-.538.248-.852.49-1.247.734-2.009.101-.315-.027-.83-.343-.93a.3.3 0 0 0-.095-.014"/><path fill="none" stroke="#efae0e" stroke-linecap="round" stroke-linejoin="round" stroke-miterlimit="6.3" stroke-width=".8812219999999998" d="m190.908 256.93-.049 5.19.49.343 11.118 2.89.196-1.322-.196-.784-.784-.686v-2.595l-1.47-.343-.342 1.028-2.498-.636-.392-1.568-1.273-.146-.196 1.077-2.596-.784-.293-1.42zm136.499 11.95-8.62.048z"/><path fill="#d4212f" fill-rule="evenodd" stroke="#000" stroke-linecap="round" stroke-linejoin="round" stroke-miterlimit="6.3" stroke-width=".38314" d="m205.504 277.892-5.338.05 5.877 8.375 4.163-.098zm3.38.295c-.29 1.07 1.076 2.28 2.302 3.477 0 0 27.888 1.965 41.826 3.036 18.128 1.393 54.364 4.408 54.364 4.408l-.588-1.91s-36.652-3.816-55-5.485c-14.291-1.3-42.904-3.526-42.904-3.526m103.913 8.618c-.328.021-.674.411-.67.736.006.496.593.92 1.078 1.029 2.084.469 5.73.636 5.73.636l.196-1.665s-4.233-.543-6.27-.735a.4.4 0 0 0-.064 0m.8 3.185c-.44-.02-.915.447-.98.881-.043.283.161.675.44.735 1.994.428 4.996.637 4.996.637l.441-1.763s-3.24-.413-4.898-.49m.342 2.987c-.323-.01-.666.363-.685.686-.018.29.25.644.538.686 1.132.166 3.184.293 3.184.293l.49-1.37s-2.37-.26-3.527-.295"/><path fill="#efae0e" fill-rule="evenodd" d="m218.655 283.28.024 3.918 5.312.577v-3.916zm13.471 1.447.006 3.917 5.584.577.058-3.91zm14.734 1.473.05 3.92 5.249.432-.068-3.921zm12.588 1.016-.127 3.905 6.508.63-.101-3.926zm13.658 1.367.102 3.926 5.779.599-.09-3.925zm13.488 1.332-.067 3.91 6.18.411v-3.917zm13.886.822.124 3.923 5.793.277-.025-3.919z"/><path fill="#efae0e" fill-rule="evenodd" stroke="#000" stroke-linecap="round" stroke-linejoin="round" stroke-miterlimit="6.3" stroke-width=".38314" d="M215.33 278.118a1.13 1.13 0 0 0-.623.206c-.279.188-.57.458-.676.773-1.674 4.964-5.549 17.163-5.391 17.262.594.373 1.57.556 2.238.051.177-.133 3.365-11.577 4.924-17.107.093-.329.183-.724.03-.98-.094-.154-.311-.203-.502-.205m13.128 1.415a1.05 1.05 0 0 0-.598.196c-.255.18-.512.435-.579.735-1.041 4.718-3.362 16.313-3.191 16.407.643.354 1.646.529 2.25.05.16-.127 1.89-11.005 2.743-16.261.05-.312.09-.688-.096-.93-.114-.148-.338-.194-.529-.197m14.562 1.396a1 1 0 0 0-.587.196c-.245.179-.489.435-.539.735-.786 4.718-2.478 16.313-2.302 16.407.663.354 1.675.528 2.253.049.153-.127 1.293-11.004 1.861-16.26.034-.313.053-.689-.147-.931-.121-.148-.347-.193-.539-.196zm13.192 1.298a.9.9 0 0 0-.566.196c-.225.179-.44.435-.455.735-.249 4.718-.62 16.313-.434 16.407.703.354 1.735.528 2.259.049.138-.127.04-11.005.01-16.26-.003-.313-.026-.689-.253-.93-.139-.148-.37-.194-.562-.197zm13.382.93a.86.86 0 0 0-.554.197c-.215.178-.413.435-.411.734.032 4.719.353 16.313.545 16.407.724.355 1.766.529 2.261.05.131-.127-.617-11.005-.96-16.26-.02-.313-.067-.689-.309-.931-.147-.148-.38-.194-.572-.196m12.28.982a.72.72 0 0 0-.519.202c-.182.183-.335.445-.28.752.877 4.835 3.27 16.716 3.48 16.812.786.363 1.859.541 2.268.05.108-.13-2.584-11.276-3.867-16.661-.077-.32-.19-.705-.475-.954-.173-.15-.415-.198-.607-.2m25.298.492a.63.63 0 0 0-.492.204c-.16.186-.28.453-.184.765 1.49 4.912 5.39 16.984 5.61 17.082.833.368 1.928.55 2.275.05.092-.131-4.015-11.456-5.98-16.928-.117-.325-.28-.717-.596-.97a1.05 1.05 0 0 0-.633-.203m-12.302.292a.66.66 0 0 0-.502.201c-.167.184-.297.448-.216.756 1.286 4.848 4.685 16.76 4.902 16.857.817.364 1.905.542 2.273.05.097-.13-3.539-11.306-5.278-16.706-.103-.32-.249-.708-.555-.956-.186-.152-.432-.2-.625-.202z"/><path fill="#d4212f" fill-rule="evenodd" stroke="#000" stroke-miterlimit="6.3" stroke-width=".38314" d="M228.204 189.346s-4.455.163-6.58.762c-2.058.581-4.075 1.464-5.819 2.702-1.864 1.323-3.349 3.134-4.779 4.917-.553.69-1.31 1.345-1.454 2.217-.105.635.119 1.34.484 1.87.499.723 1.789.723 2.148 1.524.17.381.03.864-.139 1.246-.593 1.348-1.67 2.53-2.91 3.325-1.154.742-2.741.52-3.947 1.178-1.121.611-2.171 1.45-2.91 2.493-.442.627-.958 1.39-.83 2.147.065.388.37.86.762.9.376.04.641-.415.9-.692.455-.486.637-1.191 1.108-1.662.648-.648 1.427-1.207 2.286-1.524.916-.338 1.98-.043 2.91-.346a9.6 9.6 0 0 0 3.324-1.87c1.067-.933 2.093-2.057 2.562-3.394.268-.763.428-1.7.07-2.425-.315-.637-1.323-.664-1.732-1.246-.193-.275-.345-.641-.277-.97.207-.995 1.17-1.69 1.94-2.355.673-.583 1.47-1.026 2.285-1.385 1.497-.66 3.098-1.105 4.71-1.386 1.572-.272 4.78-.277 4.78-.277l.692.07z"/><path fill="#fff" fill-rule="evenodd" d="m220.598 190.425.403 5.178 1.315-.23-.362-5.35zm-5.47 2.899 1.484 3.926-.891.573-1.433-3.768zm-1.849 1.744-.855.959 1.827 3.056.732-.653zM210.661 198.156l2.853 3.072-.133-.73-2.06-3.138z"/><path fill="#002a86" fill-rule="evenodd" d="m223.286 189.814-.112 5.447c1.526-.09 3.042-.234 4.614-.096l.416-5.818c-1.673.122-3.431.156-4.918.467"/><path fill="#fff" fill-rule="evenodd" d="m219.711 190.744-1.208.512.73 4.839 1.134-.297zm-3.388 1.714 1.283 4.3.788-.325-1.141-4.538zm-3.015 8.37s.16.487.366.802c.266.407.643.867.694 1.379.07.697-.284 1.38-.554 2.026a7 7 0 0 1-.952 1.645c-.518.657-1.12 1.27-1.819 1.731-.435.289-.936.476-1.437.624-.578.17-1.193.175-1.783.294-.681.138-1.392.203-2.026.485-.493.22-.923.568-1.334.918-.444.378-.84.814-1.212 1.264-.311.376-.565.797-.848 1.195-.173.242-.323.504-.52.727-.25.284.052.502.052.502l.71.087s.7-1.005 1.074-1.49c.37-.48.69-1.018 1.16-1.402a5.2 5.2 0 0 1 1.645-.883c.498-.167 1.04-.153 1.558-.243.666-.115 1.361-.138 1.992-.38 1.059-.408 2.033-1.045 2.909-1.767.463-.382 1.212-1.333 1.212-1.333s.492-.921.692-1.403c.233-.557.522-1.114.59-1.714.048-.433-.14-1.299-.14-1.299l-1.073-.64c-.388-.306-.653-.734-.956-1.125zM227.139 190.04a.147.147 0 0 0-.148.146.147.147 0 0 0 .148.147.147.147 0 0 0 .147-.147.147.147 0 0 0-.147-.147zm-1.013.111a.147.147 0 0 0-.148.148.147.147 0 0 0 .148.147.147.147 0 0 0 .147-.147.147.147 0 0 0-.147-.148m-1.022.087a.147.147 0 0 0-.147.147.147.147 0 0 0 .147.148.147.147 0 0 0 .147-.148.147.147 0 0 0-.147-.147m-.952.07a.147.147 0 0 0-.148.147.147.147 0 0 0 .148.147.147.147 0 0 0 .147-.147.147.147 0 0 0-.147-.147zm2.978.623a.147.147 0 0 0-.147.147.147.147 0 0 0 .147.147.147.147 0 0 0 .147-.147.147.147 0 0 0-.147-.147m-1.039.225a.147.147 0 0 0-.147.147.147.147 0 0 0 .147.147.147.147 0 0 0 .147-.147.147.147 0 0 0-.147-.147m-1.039.017a.147.147 0 0 0-.147.147.147.147 0 0 0 .147.148.147.147 0 0 0 .147-.148.147.147 0 0 0-.147-.147m-.952.052a.147.147 0 0 0-.148.148.147.147 0 0 0 .148.147.147.147 0 0 0 .147-.147.147.147 0 0 0-.147-.148zm3.03.693a.147.147 0 0 0-.147.147.147.147 0 0 0 .147.148.147.147 0 0 0 .147-.148.147.147 0 0 0-.147-.147m-1.074.138a.147.147 0 0 0-.147.148.147.147 0 0 0 .147.147.147.147 0 0 0 .148-.147.147.147 0 0 0-.148-.148zm-1.004.087a.147.147 0 0 0-.147.147.147.147 0 0 0 .147.147.147.147 0 0 0 .147-.147.147.147 0 0 0-.147-.147m-1.004.121a.147.147 0 0 0-.147.147.147.147 0 0 0 .147.148.147.147 0 0 0 .147-.148.147.147 0 0 0-.147-.147m3.03.676a.147.147 0 0 0-.148.147.147.147 0 0 0 .148.147.147.147 0 0 0 .147-.147.147.147 0 0 0-.147-.147m-.987.086a.147.147 0 0 0-.147.147.147.147 0 0 0 .147.148.147.147 0 0 0 .147-.148.147.147 0 0 0-.147-.147m-1.056.121a.147.147 0 0 0-.148.148.147.147 0 0 0 .148.147.147.147 0 0 0 .147-.147.147.147 0 0 0-.147-.148m-1.022.053a.147.147 0 0 0-.147.146.147.147 0 0 0 .147.148.147.147 0 0 0 .147-.148.147.147 0 0 0-.147-.146m3.03.692a.147.147 0 0 0-.147.147.147.147 0 0 0 .147.147.147.147 0 0 0 .148-.147.147.147 0 0 0-.148-.147m-.987.035a.147.147 0 0 0-.147.147.147.147 0 0 0 .147.147.147.147 0 0 0 .148-.147.147.147 0 0 0-.148-.148zm-1.021.086a.147.147 0 0 0-.148.147.147.147 0 0 0 .148.148.147.147 0 0 0 .147-.148.147.147 0 0 0-.147-.147m-.987.087a.147.147 0 0 0-.147.147.147.147 0 0 0 .147.147.147.147 0 0 0 .147-.147.147.147 0 0 0-.147-.147"/><path fill="none" stroke="#000" stroke-miterlimit="6.3" stroke-width=".38314" d="M228.204 189.346s-4.455.163-6.58.762c-2.058.581-4.075 1.464-5.819 2.702-1.864 1.323-3.349 3.134-4.779 4.917-.553.69-1.31 1.345-1.454 2.217-.105.635.119 1.34.484 1.87.499.723 1.789.723 2.148 1.524.17.381.03.864-.139 1.246-.593 1.348-1.67 2.53-2.91 3.325-1.154.742-2.741.52-3.947 1.178-1.121.611-2.171 1.45-2.91 2.493-.442.627-.958 1.39-.83 2.147.065.388.37.86.762.9.376.04.641-.415.9-.692.455-.486.637-1.191 1.108-1.662.648-.648 1.427-1.207 2.286-1.524.916-.338 1.98-.043 2.91-.346a9.6 9.6 0 0 0 3.324-1.87c1.067-.933 2.093-2.057 2.562-3.394.268-.763.428-1.7.07-2.425-.315-.637-1.323-.664-1.732-1.246-.193-.275-.345-.641-.277-.97.207-.995 1.17-1.69 1.94-2.355.673-.583 1.47-1.026 2.285-1.385 1.497-.66 3.098-1.105 4.71-1.386 1.572-.272 4.78-.277 4.78-.277l.692.07z"/><path fill="#efae0e" fill-rule="evenodd" d="M256 143.076A112.924 112.924 0 0 0 143.074 256 112.924 112.924 0 0 0 256 368.924 112.924 112.924 0 0 0 368.924 256a112.924 112.924 0 0 0-112.925-112.925zm0 2.742A110.18 110.18 0 0 1 366.18 256 110.18 110.18 0 0 1 255.999 366.18 110.18 110.18 0 0 1 145.82 256a110.18 110.18 0 0 1 110.18-110.181z"/><path fill="#efae0e" fill-rule="evenodd" d="M256 115.649a140.35 140.35 0 0 0-140.352 140.35A140.35 140.35 0 0 0 256 396.352 140.35 140.35 0 0 0 396.351 256 140.35 140.35 0 0 0 256 115.648zm0 2.742A137.61 137.61 0 0 1 393.607 256a137.61 137.61 0 0 1-137.609 137.608A137.61 137.61 0 0 1 118.391 256 137.61 137.61 0 0 1 256 118.392z"/><path fill="#efae0e" fill-rule="evenodd" d="M256 107.894A148.106 148.106 0 0 0 107.892 256 148.106 148.106 0 0 0 256 404.106 148.106 148.106 0 0 0 404.106 256 148.106 148.106 0 0 0 256 107.894zm0 5.012A143.094 143.094 0 0 1 399.092 256 143.094 143.094 0 0 1 256 399.094 143.094 143.094 0 0 1 112.906 256a143.094 143.094 0 0 1 143.093-143.094"/><path fill="#fff" d="M306.446 270.313h5.534v3.85h-5.534z"/><path fill="#fff" d="M312.414 274.163q-2.778.07-5.557.108l-.051-3.851q2.756-.036 5.51-.107zm-9.449.143q-2.78.012-5.56-.01l.031-3.852q2.756.022 5.512.01zm-9.451-.058q-2.78-.045-5.56-.127l.114-3.85q2.754.08 5.51.126zm-9.45-.259q-2.778-.106-5.555-.248l.196-3.847q2.752.141 5.507.246zm-9.442-.465a427 427 0 0 1-5.548-.37l.281-3.841q2.748.2 5.499.367zm-9.429-.672a418 418 0 0 1-5.538-.495l.367-3.833q2.743.262 5.488.49zm-9.41-.885a413 413 0 0 1-5.527-.62l.455-3.823q2.735.326 5.474.614zm-9.389-1.098a406 406 0 0 1-5.509-.747l.543-3.811a402 402 0 0 0 5.457.74zm-9.36-1.315a400 400 0 0 1-5.49-.876l.634-3.797a396 396 0 0 0 5.437.868zm-9.325-1.534a393 393 0 0 1-5.467-1.007l.724-3.78a389 389 0 0 0 5.414.996zm-9.286-1.758a387 387 0 0 1-5.442-1.139l.816-3.762q2.69.584 5.388 1.128zm-9.242-1.983a381 381 0 0 1-5.414-1.273l.909-3.741a376 376 0 0 0 5.359 1.26z"/></g></svg>