<svg xmlns="http://www.w3.org/2000/svg" width="512" height="512" viewBox="0 0 512 512">
  <defs><clipPath id="c"><circle cx="256" cy="256" r="256"/></clipPath></defs>
  <g clip-path="url(#c)">
    <g transform="scale(32.000000) translate(-5.0,0.0)">
<defs><clipPath id="a"><path d="M0 16V0l26 3-6 5 6 5z"/></clipPath></defs><g fill="#fff" stroke="#bf0a30" clip-path="url(#a)"><path stroke-width="4" d="M26 3 0 0v16l26-3"/><path stroke-width="2" d="M0 8h26"/></g><path fill="#00205b" d="M0 0v16l16-8z"/><g transform="translate(4.944 8)"><circle r="3" fill="#fff"/><circle r="2" fill="#bf0a30"/><g fill="#fff"><path d="m8.57 0-.595-.193-.097.297z"/><path d="m8.57 0-.595.193-.097-.297z"/><path d="M8.137.594V-.03h-.312z"/><path d="M8.137.594 7.77.09l.253-.184z"/><path d="M8.137-.594 7.77-.09l.253.184z"/><path d="M8.137-.594V.03h-.312z"/><path d="m7.439.367.594-.193-.097-.297z"/><path d="m7.439.367.367-.505.253.183z"/><path d="m7.439-.367.367.505.253-.183z"/><path d="m7.439-.367.594.193-.097.297z"/></g><g fill="#fff"><path d="m4.57 0-.595-.193-.097.297z"/><path d="m4.57 0-.595.193-.097-.297z"/><path d="M4.137.594V-.03h-.312z"/><path d="M4.137.594 3.77.09l.253-.184z"/><path d="M4.137-.594 3.77-.09l.253.184z"/><path d="M4.137-.594V.03h-.312z"/><path d="m3.439.367.594-.193-.097-.297z"/><path d="m3.439.367.367-.505.253.183z"/><path d="m3.439-.367.367.505.253-.183z"/><path d="m3.439-.367.594.193-.097.297zM6.476-1.101l-.618-.091-.045.31z"/><path d="m6.476-1.101-.553.29-.145-.277z"/><path d="m6.15-.443-.105-.616-.308.052z"/><path d="M6.15-.443 5.703-.88l.219-.223z"/><path d="m5.95-1.615-.276.56.28.139z"/><path d="m5.95-1.615.106.616-.308.053z"/><path d="m5.423-.55.554-.29-.145-.276z"/><path d="m5.423-.55.278-.56.28.14z"/><path d="m5.3-1.274.447.437.218-.223z"/><path d="m5.3-1.274.618.09-.045.31zM6.476 1.101l-.553-.29-.145.277z"/><path d="m6.476 1.101-.618.091-.045-.31z"/><path d="m5.95 1.615.106-.616-.308-.053z"/><path d="m5.95 1.615-.276-.56.28-.139z"/><path d="M6.15.443 5.703.88l.219.223z"/><path d="m6.15.443-.105.616-.308-.052z"/><path d="m5.3 1.274.618-.09-.045-.31z"/><path d="m5.3 1.274.447-.437.218.223z"/><path d="m5.423.55.278.56.28-.14z"/><path d="m5.423.55.554.29-.145.276z"/></g><g fill="#fff"><path d="m2.043 4.087-.093-.618-.309.046z"/><path d="m2.043 4.087-.438-.445.223-.22z"/><path d="m1.319 3.966.559-.28-.14-.279z"/><path d="m1.319 3.966.288-.554.277.144z"/><path d="m2.382 3.435-.617-.103-.05.309z"/><path d="m2.382 3.435-.56.28-.139-.28z"/><path d="m1.21 3.24.438.445.222-.22z"/><path d="m1.21 3.24.616.102-.051.309z"/><path d="m1.866 2.911-.288.555.278.144z"/><path d="m1.866 2.911.093.618-.309.047zM-.205 4.565l.22-.585-.293-.11z"/><path d="m-.205 4.565-.167-.603.302-.083z"/><path d="m-.78 4.107.625.028.014-.313z"/><path d="m-.78 4.107.522-.345.172.261z"/><path d="m.408 4.16-.489-.39-.195.245z"/><path d="m.408 4.16-.625-.028.015-.312z"/><path d="m-.522 3.419.167.602.3-.083z"/><path d="m-.522 3.419.49.39-.196.244z"/><path d="m.212 3.452-.521.344.172.26z"/><path d="m.212 3.452-.22.585-.292-.11zM-2.402 3.887l.477-.404-.202-.239z"/><path d="m-2.402 3.887.148-.607.304.074z"/><path d="m-2.68 3.207.53.329.165-.266z"/><path d="m-2.68 3.207.622-.047.024.312z"/><path d="m-1.67 3.832-.237-.578-.289.118z"/><path d="m-1.67 3.832-.531-.329.164-.265z"/><path d="m-2.12 2.732-.149.607.304.074z"/><path d="m-2.12 2.732.237.578-.29.119z"/><path d="m-1.495 3.118-.624.047.024.312z"/><path d="m-1.495 3.118-.477.404-.202-.238zM-2.468 6.088l.402-.478-.239-.201z"/><path d="m-2.468 6.088.044-.623.312.022z"/><path d="m-2.857 5.464.58.235.117-.29z"/><path d="m-2.857 5.464.607-.15.075.303z"/><path d="m-1.755 5.911-.33-.53-.266.165z"/><path d="m-1.755 5.911-.58-.235.118-.29z"/><path d="m-2.384 4.902-.044.624.312.022z"/><path d="m-2.384 4.902.33.53-.264.166z"/><path d="m-1.703 5.178-.606.15.075.304z"/><path d="m-1.703 5.178-.402.479-.24-.202zM-4.342 4.93l.538-.318-.159-.27z"/><path d="m-4.342 4.93.248-.574.287.124z"/><path d="m-4.502 4.213.469.413.206-.234z"/><path d="m-4.502 4.213.622.059-.03.31z"/><path d="m-3.61 4.999-.137-.61-.305.068z"/><path d="m-3.61 4.999-.47-.413.207-.235z"/><path d="m-3.87 3.839-.248.574.287.124z"/><path d="m-3.87 3.839.137.61-.305.068z"/><path d="m-3.319 4.324-.622-.058-.03.311z"/><path d="m-3.319 4.324-.537.319-.16-.269zM-3.99 2.225l.612-.12-.06-.307z"/><path d="m-3.99 2.225.424-.458.23.212z"/><path d="m-3.903 1.496.304.545.273-.152z"/><path d="m-3.903 1.496.567.262-.131.284z"/><path d="m-3.324 2.534.074-.62-.31-.038z"/><path d="m-3.324 2.534-.305-.546.273-.152z"/><path d="m-3.182 1.354-.425.458.229.212z"/><path d="m-3.182 1.354-.075.62-.31-.037z"/><path d="m-2.824 1.995-.568-.262-.13.283z"/><path d="m-2.824 1.995-.614.121-.06-.306z"/></g><g fill="#fff"><path d="m-4.57 0 .595.193.097-.297z"/><path d="m-4.57 0 .595-.193.097.297z"/><path d="M-4.137-.594V.03h.312z"/><path d="m-4.137-.594.367.505-.253.184z"/><path d="M-4.137.594-3.77.09l-.253-.184z"/><path d="M-4.137.594V-.03h.312z"/><path d="m-3.439-.367-.594.193.097.297z"/><path d="m-3.439-.367-.367.505-.253-.183z"/><path d="m-3.439.367-.367-.505-.253.183z"/><path d="m-3.439.367-.594-.193.097-.297z"/></g><g fill="#fff"><path d="m2.043-4.087-.093.618-.309-.046z"/><path d="m2.043-4.087-.438.445.223.22z"/><path d="m1.319-3.966.559.28-.14.279z"/><path d="m1.319-3.966.288.554.277-.144z"/><path d="m2.382-3.435-.617.103-.05-.309z"/><path d="m2.382-3.435-.56-.28-.139.28z"/><path d="m1.21-3.24.438-.445.222.22z"/><path d="m1.21-3.24.616-.102-.051-.309z"/><path d="m1.866-2.911-.288-.555.278-.144z"/><path d="m1.866-2.911.093-.618-.309-.047zM-.205-4.565l.22.585-.293.11z"/><path d="m-.205-4.565-.167.603.302.083z"/><path d="m-.78-4.107.625-.028.014.313z"/><path d="m-.78-4.107.522.345.172-.261z"/><path d="m.408-4.16-.489.39-.195-.245z"/><path d="m.408-4.16-.625.028.015.312z"/><path d="m-.522-3.419.167-.602.3.083z"/><path d="m-.522-3.419.49-.39-.196-.244z"/><path d="m.212-3.452-.521-.344.172-.26z"/><path d="m.212-3.452-.22-.585-.292.11zM-2.402-3.887l.477.404-.202.239z"/><path d="m-2.402-3.887.148.607.304-.074z"/><path d="m-2.68-3.207.53-.329.165.266z"/><path d="m-2.68-3.207.622.047.024-.312z"/><path d="m-1.67-3.832-.237.578-.289-.118z"/><path d="m-1.67-3.832-.531.329.164.265z"/><path d="m-2.12-2.732-.149-.607.304-.074z"/><path d="m-2.12-2.732.237-.578-.29-.119z"/><path d="m-1.495-3.118-.624-.047.024-.312z"/><path d="m-1.495-3.118-.477-.404-.202.238zM-2.468-6.088l.402.478-.239.201z"/><path d="m-2.468-6.088.044.623.312-.022z"/><path d="m-2.857-5.464.58-.235.117.29z"/><path d="m-2.857-5.464.607.15.075-.303z"/><path d="m-1.755-5.911-.33.53-.266-.165z"/><path d="m-1.755-5.911-.58.235.118.29z"/><path d="m-2.384-4.902-.044-.624.312-.022z"/><path d="m-2.384-4.902.33-.53-.264-.166z"/><path d="m-1.703-5.178-.606-.15.075-.304z"/><path d="m-1.703-5.178-.402-.479-.24.202zM-4.342-4.93l.538.318-.159.27z"/><path d="m-4.342-4.93.248.574.287-.124z"/><path d="m-4.502-4.213.469-.413.206.234z"/><path d="m-4.502-4.213.622-.059-.03-.31z"/><path d="m-3.61-4.999-.137.61-.305-.068z"/><path d="m-3.61-4.999-.47.413.207.235z"/><path d="m-3.87-3.839-.248-.574.287-.124z"/><path d="m-3.87-3.839.137-.61-.305-.068z"/><path d="m-3.319-4.324-.622.058-.03-.311z"/><path d="m-3.319-4.324-.537-.319-.16.269zM-3.99-2.225l.612.12-.06.307z"/><path d="m-3.99-2.225.424.458.23-.212z"/><path d="m-3.903-1.496.304-.545.273.152z"/><path d="m-3.903-1.496.567-.262-.131-.284z"/><path d="m-3.324-2.534.074.62-.31.038z"/><path d="m-3.324-2.534-.305.546.273.152z"/><path d="m-3.182-1.354-.425-.458.229-.212z"/><path d="m-3.182-1.354-.075-.62-.31.037z"/><path d="m-2.824-1.995-.568.262-.13-.283z"/><path d="m-2.824-1.995-.614-.121-.06.306z"/></g></g>
    </g>
  <!-- border --><circle cx="256" cy="256" r="256" fill="none" stroke="#cdcfd3" stroke-width="16"/>
</g>
</svg>