<svg xmlns="http://www.w3.org/2000/svg" width="512" height="512" viewBox="0 0 512 512"><defs><clipPath id="c"><circle cx="256" cy="256" r="256"/></clipPath></defs><g clip-path="url(#c)"><path fill="#BF0A30" d="M256 0c83.8 0 158.1 40.2 204.8 102.4l46 102.4a257 257 0 0 1 0 102.4l-46 102.4A256 256 0 0 1 256 512 256 256 0 0 1 51.2 409.6l-46-102.4a257 257 0 0 1 0-102.4l46-102.4A256 256 0 0 1 256 0"/><path fill="#FFFFFF" d="M460.8 102.4a255 255 0 0 1 46 102.4H5.2a255 255 0 0 1 46-102.4zm0 307.2a255 255 0 0 0 46-102.4H5.2a255 255 0 0 0 46 102.4z"/><path fill="#0033A0" d="M0 245.6A255 255 0 0 1 74.9 74.9L256 256 74.9 437.1A255 255 0 0 1 0 266.4z"/><path fill="#FFFFFF" d="m106 182 16.7 51.2h53.7l-43.5 31.5 16.6 51.1-43.4-31.6-43.5 31.6 16.6-51-43.4-31.6h53.7z"/><!-- border --><circle cx="256" cy="256" r="256" fill="none" stroke="#cdcfd3" stroke-width="16"/>
</g></svg>