<svg width="500" height="300" viewBox="0 0 500 300" fill="none" xmlns="http://www.w3.org/2000/svg">
<path d="M498.856 0H1.14417V150H498.856V0Z" fill="#003884"/>
<path d="M498.856 150H1.14417V300H498.856V150Z" fill="#FF6600"/>
<path d="M249.657 7.29285C250.11 7.29285 250.563 7.29285 251.03 7.29285C251.201 8.63838 251.373 9.98392 251.545 11.3295C251.654 12.2219 251.771 13.1075 251.881 14.0205C252.142 16.032 252.396 18.0366 252.65 20.048C253.281 25.032 253.913 30.016 254.551 34.9999C254.908 37.7871 255.265 40.5812 255.615 43.3752C255.691 43.9244 255.76 44.4805 255.828 45.0503C256.686 51.7711 257.51 58.4988 258.265 65.2402C258.41 66.524 258.554 67.8009 258.705 69.0846C258.959 71.3363 259.199 73.588 259.432 75.8398C259.542 76.8283 259.659 77.81 259.769 78.7986C259.858 79.6155 259.947 80.4393 260.037 81.2768C260.833 84.1876 261.972 85.4645 264.073 87.6132C267.259 89.2402 270.3 89.3638 273.684 88.2997C275.4 86.9679 275.4 86.9679 277.117 84.8672C277.487 84.421 277.851 83.9816 278.229 83.5217C282.375 78.4553 286.302 73.2036 290.27 67.9931C291.581 66.27 292.892 64.5537 294.21 62.8306C299.064 56.4942 303.856 50.1166 308.572 43.6773C312.842 37.8626 317.277 32.1853 321.739 26.5148C321.966 26.9679 322.192 27.421 322.426 27.8878C321.911 29.3707 321.327 30.826 320.709 32.2677C320.524 32.707 320.339 33.1464 320.146 33.5995C319.535 35.0274 318.924 36.4553 318.307 37.8832C317.888 38.8649 317.476 39.8398 317.057 40.8146C316.24 42.7368 315.423 44.659 314.606 46.5743C313.275 49.691 311.984 52.8146 310.714 55.9519C309.67 58.5125 308.606 61.0526 307.474 63.5789C305.407 68.1922 303.478 72.8672 301.529 77.5285C301.144 78.4553 300.753 79.3821 300.368 80.3157C299.606 82.1212 298.851 83.9267 298.096 85.7322C297.403 87.4004 296.702 89.0549 295.995 90.7162C295.837 91.08 295.837 91.08 295.048 92.9267C294.918 93.2494 294.918 93.2494 294.224 94.8558C293.174 97.6498 293.05 99.8123 294.046 102.627C295.22 105.078 296.215 106.073 298.57 107.522C303.32 108.792 307.172 107.501 311.572 105.593C312.025 105.4 312.478 105.208 312.945 105.009C314.407 104.378 315.863 103.739 317.318 103.101C318.348 102.661 319.371 102.215 320.4 101.776C323.366 100.499 326.332 99.2082 329.291 97.9107C329.654 97.7528 329.654 97.7528 331.494 96.9496C336.657 94.6979 336.657 94.6979 338.853 93.7368C345.272 90.9359 351.739 88.2448 358.206 85.5537C358.487 85.437 358.487 85.437 359.881 84.8604C361.453 84.2013 363.032 83.5491 364.611 82.8901C365.078 82.6979 365.551 82.4988 366.039 82.2997C367.288 81.778 368.545 81.2631 369.794 80.7482C370.426 80.4599 371.057 80.1784 371.702 79.8832C373.226 79.3752 373.226 79.3752 375.286 80.0617C374.826 80.405 374.366 80.7482 373.892 81.0983C370.233 83.8375 366.581 86.5903 362.956 89.3775C358.309 92.9473 353.627 96.4691 348.897 99.929C344.078 103.458 339.341 107.075 334.645 110.769C331.94 112.89 329.208 114.963 326.421 116.982C325.837 117.407 325.247 117.84 324.636 118.279C323.51 119.089 322.378 119.899 321.245 120.709C317.819 123.181 314.744 125.632 312.815 129.49C312.54 133.08 312.863 135.4 314.874 138.414C318.307 141.249 321.3 141.757 325.577 142.231C326.222 142.307 326.874 142.389 327.547 142.471C329.682 142.739 331.824 142.986 333.959 143.233C335.448 143.412 336.938 143.59 338.421 143.776C342.327 144.249 346.233 144.709 350.146 145.169C354.135 145.636 358.124 146.124 362.112 146.604C369.938 147.545 377.757 148.478 385.583 149.398C385.583 149.625 385.583 149.851 385.583 150.085C357.265 150.085 328.947 150.085 299.771 150.085C299.318 146.46 298.865 142.835 298.398 139.101C294.478 125.989 286.748 115.423 274.954 108.27C262.384 101.494 249.046 100.32 235.24 104.089C222.787 108.256 212.627 117.064 206.188 128.453C204.89 131.165 203.922 133.863 203.057 136.739C202.988 136.972 202.988 136.972 202.638 138.14C201.506 142.21 201.313 145.712 200.915 150.085C172.597 150.085 144.279 150.085 115.103 150.085C115.103 149.858 115.103 149.632 115.103 149.398C115.927 149.302 116.751 149.206 117.602 149.103C125.38 148.19 133.158 147.256 140.936 146.316C144.931 145.835 148.934 145.355 152.929 144.888C156.794 144.435 160.652 143.968 164.51 143.501C165.979 143.323 167.455 143.144 168.924 142.979C170.991 142.739 173.05 142.485 175.11 142.231C175.721 142.162 176.332 142.094 176.956 142.025C180.554 141.558 182.936 140.789 185.812 138.414C187.817 135.414 188.263 133.066 187.872 129.49C186.842 127.561 186.842 127.561 185.812 126.057C185.812 125.604 185.812 125.151 185.812 124.684C185.421 124.499 185.03 124.32 184.632 124.135C177.437 120.359 170.991 114.387 164.558 109.471C160.68 106.513 156.773 103.574 152.86 100.657C148.906 97.7047 144.959 94.7391 141.046 91.7459C140.4 91.2517 139.762 90.7642 139.103 90.2631C137.826 89.2883 136.549 88.3066 135.279 87.3249C130.275 83.5011 130.275 83.5011 127.714 81.8741C127.178 81.5034 126.636 81.1327 126.087 80.7482C126.087 80.2951 126.087 79.842 126.087 79.3752C130.927 80.9199 135.602 82.7391 140.291 84.6956C141.101 85.032 141.918 85.3752 142.762 85.7185C157.082 91.6842 171.341 97.8146 185.613 103.911C186.238 104.178 186.869 104.446 187.522 104.721C188.593 105.188 189.67 105.648 190.748 106.114C194.242 107.625 197.249 108.867 201.039 107.783C203.51 106.691 204.821 105.757 206.407 103.533C207.767 99.1876 207.087 95.9267 205.309 91.8215C205.22 91.6086 205.22 91.6086 204.746 90.5034C204.149 89.1098 203.545 87.7162 202.934 86.3226C202.522 85.3684 202.11 84.4073 201.698 83.4462C200.888 81.5652 200.078 79.6842 199.268 77.81C197.709 74.1922 196.22 70.5469 194.744 66.8947C194.098 65.3226 193.453 63.7642 192.691 62.2471C192.032 60.929 191.442 59.6041 190.872 58.2448C190.659 57.7437 190.446 57.2425 190.233 56.7276C190.007 56.1922 189.78 55.6567 189.554 55.1075C189.313 54.5446 189.08 53.9885 188.84 53.4118C188.339 52.2311 187.844 51.0503 187.343 49.8626C186.595 48.0709 185.84 46.286 185.085 44.4942C183.918 41.7208 182.757 38.9473 181.597 36.1739C181.082 34.9244 180.554 33.6819 180.025 32.4393C179.764 31.8215 179.51 31.2105 179.242 30.572C179.133 30.3249 179.133 30.3249 178.597 29.0549C178.261 27.8878 178.261 27.8878 178.947 26.5148C180.265 28.1418 181.583 29.7757 182.895 31.4027C183.265 31.8626 183.636 32.3226 184.014 32.7894C189.931 40.1487 189.931 40.1487 189.931 42.3043C190.384 42.3043 190.837 42.3043 191.304 42.3043C192.396 43.643 192.396 43.643 193.707 45.524C195.725 48.3729 197.785 51.1739 199.927 53.9336C202.927 57.8054 205.872 61.7185 208.81 65.6453C212.304 70.3134 215.819 74.9679 219.403 79.5743C220.288 80.7345 221.16 81.9153 221.991 83.1235C224.174 86.2951 225.856 87.9771 229.748 88.9862C233.448 89.2059 235.556 88.3478 238.419 85.9038C239.998 84.167 240.183 82.4233 240.519 80.1372C240.561 79.9038 240.561 79.9038 240.746 78.7025C240.993 77.0961 241.206 75.4896 241.419 73.8832C241.46 73.5949 241.46 73.5949 241.659 72.1395C242.291 67.5125 242.86 62.8787 243.423 58.2448C243.602 56.7688 243.787 55.286 243.966 53.81C244.439 49.9588 244.913 46.1144 245.38 42.2631C245.86 38.3157 246.348 34.3684 246.828 30.4279C247.776 22.7185 248.716 15.0022 249.657 7.29285Z" fill="white"/>
<path d="M176.888 185.096C181.611 188.954 181.611 188.954 182.38 191.275C184.638 191.824 185.613 192.03 187.872 191.275C188.098 190.595 188.325 189.915 188.558 189.215C189.011 189.215 189.464 189.215 189.931 189.215C190.089 188.776 190.24 188.336 190.405 187.883C191.304 186.469 191.304 186.469 192.89 185.865C194.737 185.783 194.737 185.783 196.275 186.915C196.508 187.176 196.508 187.176 197.696 188.487C198.176 189.002 198.657 189.517 199.151 190.046C199.329 190.252 199.329 190.252 200.229 191.275C199.329 193.272 198.355 194.714 196.796 196.252C196.439 196.609 196.089 196.966 195.725 197.336C194.737 198.14 194.737 198.14 193.364 198.14C194.297 202.053 196.034 203.68 198.856 206.378C198.856 206.831 198.856 207.284 198.856 207.751C199.309 207.751 199.762 207.751 200.229 207.751C199.295 209.872 198.272 211.245 196.535 212.769C196.137 213.133 195.732 213.503 195.32 213.881C194.05 214.616 194.05 214.616 192.622 214.519C191.304 213.929 191.304 213.929 189.67 211.87C187.872 209.81 187.872 209.81 185.943 208.863C182.771 209.24 181.583 211.08 179.586 213.455C178.261 214.616 178.261 214.616 176.881 214.588C175.254 213.805 174.21 212.899 172.94 211.609C172.728 211.403 172.728 211.403 171.664 210.352C170.709 209.124 170.709 209.124 170.709 207.064C171.162 207.064 171.616 207.064 172.082 207.064C172.082 206.611 172.082 206.158 172.082 205.691C172.535 205.691 172.989 205.691 173.455 205.691C173.455 205.238 173.455 204.785 173.455 204.318C173.908 204.318 174.362 204.318 174.828 204.318C175.281 203.412 175.735 202.506 176.201 201.572C176.654 201.572 177.108 201.572 177.574 201.572C176.854 199.059 176.194 198.133 174.142 196.423C172.082 194.707 172.082 194.707 170.709 191.275C172.748 189.236 174.787 187.197 176.888 185.096Z" fill="white"/>
<path d="M110.984 185.783C114.108 186.565 115.075 187.526 117.162 189.902C117.162 190.355 117.162 190.808 117.162 191.275C118.522 191.728 119.881 192.181 121.281 192.648C121.281 192.194 121.281 191.741 121.281 191.275C121.961 191.275 122.641 191.275 123.341 191.275C123.513 190.753 123.684 190.224 123.856 189.689C124.81 187.643 125.476 186.833 127.46 185.783C129.952 186.057 131.091 187.128 132.78 188.913C133.199 189.352 133.625 189.792 134.057 190.245C134.373 190.588 134.689 190.924 135.011 191.275C133.124 194.206 131.105 196.863 128.833 199.513C129.828 203.172 132.32 205.252 135.011 207.751C134.119 209.707 133.151 211.217 131.661 212.769C131.325 213.133 130.989 213.503 130.638 213.881C129.519 214.616 129.519 214.616 128.133 214.492C126.039 213.627 124.817 212.172 123.341 210.497C123.341 210.043 123.341 209.59 123.341 209.124C121.151 208.911 121.151 208.911 118.535 209.124C116.49 210.805 115.199 212.419 113.73 214.616C110.421 214.334 108.986 212.982 106.865 210.497C106.865 210.043 106.865 209.59 106.865 209.124C106.412 209.124 105.959 209.124 105.492 209.124C105.492 208.444 105.492 207.764 105.492 207.064C106.645 205.959 106.645 205.959 108.156 204.792C110.572 202.78 111.739 201.318 112.357 198.14C111.451 197.686 110.545 197.233 109.611 196.767C109.611 196.313 109.611 195.86 109.611 195.394C109.185 195.208 108.76 195.023 108.32 194.838C106.865 194.021 106.865 194.021 105.492 191.961C107.304 189.922 109.117 187.883 110.984 185.783Z" fill="white"/>
<path d="M258.581 185.096C261.238 187.21 263.407 189.215 265.446 191.961C264.691 192.833 263.929 193.705 263.174 194.577C262.748 195.064 262.329 195.551 261.89 196.053C260.641 197.453 260.641 197.453 259.453 198.551C258.581 199.513 258.581 199.513 258.622 201.27C259.439 203.391 260.016 203.371 262.014 204.318C263.256 205.629 264.334 207.009 265.446 208.437C263.16 210.723 260.867 213.016 258.581 215.302C257.661 214.533 256.748 213.764 255.835 212.982C255.327 212.556 254.812 212.124 254.291 211.684C253.892 211.293 253.501 210.902 253.089 210.497C253.089 210.043 253.089 209.59 253.089 209.124C250.831 208.574 249.856 208.368 247.597 209.124C247.13 210.03 246.67 210.95 246.224 211.87C244.934 213.414 244.934 213.414 243.478 214.616C240.732 214.616 240.732 214.616 239.387 213.51C239.181 213.27 239.181 213.27 238.117 212.041C237.684 211.561 237.259 211.087 236.812 210.593C235.927 209.124 235.927 209.124 236.03 207.689C236.943 205.65 238.384 204.4 240.046 202.945C240.499 202.945 240.952 202.945 241.419 202.945C241.927 201.4 241.927 201.4 242.105 199.513C240.993 198.098 240.993 198.098 239.442 196.767C237.753 195.304 236.757 194.398 235.961 192.297C235.927 190.588 235.927 190.588 236.792 189.181C237.21 188.762 237.636 188.35 238.069 187.924C238.487 187.506 238.899 187.08 239.325 186.648C240.732 185.783 240.732 185.783 242.442 185.817C245.091 186.819 246.43 188.741 248.242 190.849C249.657 191.961 249.657 191.961 251.503 191.858C253.549 191.103 253.549 190.464 254.462 188.529C255.773 187.286 257.153 186.208 258.581 185.096Z" fill="white"/>
<path d="M323.112 185.096C323.874 185.741 324.629 186.38 325.384 187.025C325.597 187.204 325.597 187.204 326.668 188.11C329.064 190.224 329.064 190.224 329.977 191.275C329.764 192.778 329.764 192.778 329.291 194.021C328.838 194.021 328.384 194.021 327.918 194.021C327.691 194.7 327.465 195.38 327.231 196.08C325.899 197.583 325.899 197.583 324.485 198.826C324.032 198.826 323.579 198.826 323.112 198.826C324.973 202.471 326.702 204.606 329.977 207.064C329.579 209.474 328.728 210.668 327.018 212.384C326.606 212.803 326.201 213.229 325.783 213.661C324.485 214.616 324.485 214.616 321.739 214.616C318.307 211.025 318.307 211.025 318.307 209.124C316.494 209.124 314.682 209.124 312.815 209.124C312.657 209.522 312.506 209.913 312.341 210.325C311.181 212.316 309.945 213.373 308.009 214.616C305.764 214.684 305.071 213.757 303.375 212.254C301.831 210.497 301.831 210.497 301.831 209.124C301.378 209.124 300.924 209.124 300.458 209.124C301.412 206.934 302.51 205.609 304.275 204.016C306.211 202.156 307.24 200.94 307.323 198.14C306.952 197.995 306.588 197.858 306.211 197.714C303.89 196.368 302.311 194.583 300.458 192.648C301.542 189.826 303.492 187.519 305.95 185.783C307.927 185.865 307.927 185.865 309.382 186.469C309.382 186.922 309.382 187.375 309.382 187.842C309.78 188.014 310.172 188.185 310.584 188.357C312.334 189.332 313.515 190.506 314.874 191.961C317.243 190.945 318.753 189.6 320.538 187.76C320.778 187.506 320.778 187.506 322.007 186.249C322.371 185.872 322.735 185.487 323.112 185.096Z" fill="white"/>
<path d="M371.167 185.783C374.483 186.243 375.911 188.453 378.032 190.849C379.405 191.961 379.405 191.961 380.826 191.934C382.419 191.144 383.112 190.3 384.169 188.872C385.584 187.114 386.037 186.545 388.247 185.824C388.728 185.81 389.208 185.796 389.703 185.783C389.874 186.208 390.046 186.634 390.217 187.073C391.233 188.796 392.064 189.05 393.822 189.902C394.508 191.961 394.508 191.961 393.348 194.364C392.16 196.32 391 197.625 389.016 198.826C389.394 201.105 389.799 203.055 391.076 205.005C392.531 205.863 392.531 205.863 393.822 206.378C393.712 206.721 393.712 206.721 393.135 208.437C393.362 208.554 393.362 208.554 394.508 209.124C392.922 210.936 391.336 212.748 389.703 214.616C386.799 213.888 386.455 213.579 384.636 211.444C382.439 209.137 382.439 209.137 379.92 209.041C378.087 209.789 377.249 210.4 375.973 211.87C375.519 211.87 375.066 211.87 374.6 211.87C374.373 212.549 374.146 213.229 373.913 213.929C372.657 214.54 372.657 214.54 371.167 214.616C369.87 213.703 369.87 213.703 368.634 212.384C368.222 211.959 367.81 211.526 367.384 211.087C366.362 209.81 366.362 209.81 365.675 207.751C365.867 207.572 365.867 207.572 366.849 206.673C367.357 206.192 367.858 205.712 368.38 205.217C368.881 204.751 369.382 204.277 369.897 203.796C371.346 202.039 371.86 201.105 371.854 198.826C370.693 197.412 370.693 197.412 369.108 196.08C367.522 194.748 367.522 194.748 366.362 193.334C366.478 191 366.87 190.114 368.38 188.316C369.794 187.156 369.794 187.156 371.167 187.156C371.167 186.703 371.167 186.249 371.167 185.783Z" fill="white"/>
</svg>
