<svg xmlns="http://www.w3.org/2000/svg" width="512" height="512" viewBox="0 0 512 512">
  <defs>
    <clipPath id="c">
      <circle cx="256" cy="256" r="256"/>
    </clipPath>
  </defs>
  <g clip-path="url(#c)">
    <path fill="#FFFFFF" d="M0 0h512v512H0z"/>
    <path fill="#0038B8" d="M0 55.7h512v66.7H0z"/>
    <path fill="#0038B8" d="M0 389.6h512v66.7H0z"/>
    <path fill="#0038B8" d="M352.4 200.3H288l-32-55.6-32.1 55.6h-64.3l32.1 55.7-32 55.7h64.2l32.1 55.6 32.1-55.6h64.3L320.3 256l32-55.7zm-57 55.7-19.7 34.2h-39.4L216.5 256l19.8-34.2h39.4l19.8 34.2zM256 187.6l7.3 12.7h-14.6zm-59.2 34.2h14.7l-7.4 12.7zm0 68.4 7.3-12.7 7.4 12.7zm59.2 34.2-7.3-12.7h14.6zm59.2-34.2h-14.7l7.4-12.7zm-14.7-68.4h14.7l-7.3 12.7z"/>
  </g>
</svg>
