<svg xmlns="http://www.w3.org/2000/svg" width="728" height="484.56" viewBox="0 0 728 484.555"><path fill="#1DB062" fill-rule="evenodd" d="M0 .001h242.706v484.553H0z" color="#000000" overflow="visible"/><path fill="#FFFFFF" fill-rule="evenodd" d="M242.687.002h242.706v484.553H242.687z" color="#000000" overflow="visible"/><path fill="#94C9E9" fill-rule="evenodd" d="M485.294 0H728v484.553H485.294z" color="#000000" overflow="visible"/><g fill="#FCBF49" stroke="#843511" stroke-width="1.5" transform="translate(364.4176 111.6768)scale(.44553)"><path d="m-8 0 6 159.5s0 3 2 3 2-3 2-3L8 0"/><path fill="#843511" stroke="none" d="m-4 0 4 109.5L4 0"/><path d="M-15.076 51.529c-9.186 20.071-1.298 36.473-10.475 53.995s-3.44 31.956-4.055 39.995-7.192 10.272-5.532 12.14 8.537-1.834 11.22-12.514-3.719-16.829 7.286-38.316 2.26-31.175 13.307-50.358"/><path fill="#843511" stroke="none" d="M-12.543 56.636c-7.127 19.98.38 33.243-9.188 50.176 10.63-12.124 3.622-27.837 12.908-48.398"/><path d="M8 0 2-159.5s0-3-2-3-2 3-2 3L-8 0"/><path fill="#843511" stroke="none" d="M4 0 0-109.5-4 0"/><path d="M15.076-51.529c9.186-20.071 1.298-36.473 10.475-53.995s3.44-31.956 4.055-39.995 7.192-10.272 5.532-12.14-8.537 1.834-11.22 12.514 3.719 16.829-7.286 38.316-2.26 31.175-13.307 50.358"/><path fill="#843511" stroke="none" d="M12.543-56.636c7.127-19.98-.38-33.243 9.188-50.176-10.63 12.124-3.622 27.837-12.908 48.398"/><path d="m0-8-159.5 6s-3 0-3 2 3 2 3 2L0 8"/><path fill="#843511" stroke="none" d="m0-4-109.5 4L0 4"/><path d="M-51.529-15.076c-20.071-9.186-36.473-1.298-53.995-10.475s-31.956-3.44-39.995-4.055-10.272-7.192-12.14-5.532 1.834 8.537 12.514 11.22 16.829-3.719 38.316 7.286 31.175 2.26 50.358 13.307"/><path fill="#843511" stroke="none" d="M-56.636-12.543c-19.98-7.127-33.243.38-50.176-9.188 12.124 10.63 27.837 3.622 48.398 12.908"/><path d="m0 8 159.5-6s3 0 3-2-3-2-3-2L0-8"/><path fill="#843511" stroke="none" d="m0 4 109.5-4L0-4"/><path d="M51.529 15.076c20.071 9.186 36.473 1.298 53.995 10.475s31.956 3.44 39.995 4.055 10.272 7.192 12.14 5.532-1.834-8.537-12.514-11.22-16.829 3.719-38.316-7.286-31.175-2.26-50.358-13.307"/><path fill="#843511" stroke="none" d="M56.636 12.543c19.98 7.127 33.243-.38 50.176 9.188-12.124-10.63-27.837-3.622-48.398-12.908"/><path d="m-5.657-5.657-108.54 117.026s-2.122 2.122-.708 3.536 3.536-.707 3.536-.707L5.657 5.657"/><path fill="#843511" stroke="none" d="m-2.828-2.828-74.6 80.256 80.256-74.6"/><path d="M-47.097 25.776C-67.785 33.473-73.805 50.65-92.684 56.55s-25.029 20.163-31.148 25.413-12.35 2.177-12.496 4.673 7.334 4.74 16.782-.915 9.27-14.53 32.246-21.942 23.643-20.446 45.018-26.2"/><path fill="#843511" stroke="none" d="M-48.917 31.178c-19.168 9.09-23.238 23.776-41.977 28.983 16.09-1.056 22.245-17.122 43.35-25.095"/><path d="m5.657 5.657 108.54-117.026s2.122-2.122.708-3.536-3.536.707-3.536.707L-5.657-5.657"/><path fill="#843511" stroke="none" d="m2.828 2.828 74.6-80.256-80.256 74.6"/><path d="M47.097-25.776C67.785-33.473 73.805-50.65 92.684-56.55s25.029-20.163 31.148-25.413 12.35-2.177 12.496-4.673-7.334-4.74-16.782.915-9.27 14.53-32.246 21.942-23.643 20.446-45.018 26.2"/><path fill="#843511" stroke="none" d="M48.917-31.178c19.168-9.09 23.238-23.776 41.977-28.983-16.09 1.056-22.245 17.122-43.35 25.095"/><path d="m5.657-5.657-117.026-108.54s-2.122-2.122-3.536-.708.707 3.536.707 3.536L-5.657 5.657"/><path fill="#843511" stroke="none" d="m2.828-2.828-80.256-74.6 74.6 80.256"/><path d="M-25.776-47.097C-33.473-67.785-50.65-73.805-56.55-92.684s-20.163-25.029-25.413-31.148-2.177-12.35-4.673-12.496-4.74 7.334.915 16.782 14.53 9.27 21.942 32.246 20.446 23.643 26.2 45.018"/><path fill="#843511" stroke="none" d="M-31.178-48.917c-9.09-19.168-23.776-23.238-28.983-41.977 1.056 16.09 17.122 22.245 25.095 43.35"/><path d="m-5.657 5.657 117.026 108.54s2.122 2.122 3.536.708-.707-3.536-.707-3.536L5.657-5.657"/><path fill="#843511" stroke="none" d="m-2.828 2.828 80.256 74.6-74.6-80.256"/><path d="M25.776 47.097C33.473 67.785 50.65 73.805 56.55 92.684s20.163 25.029 25.413 31.148 2.177 12.35 4.673 12.496 4.74-7.334-.915-16.782-14.53-9.27-21.942-32.246-20.446-23.643-26.2-45.018"/><path fill="#843511" stroke="none" d="M31.178 48.917c9.09 19.168 23.776 23.238 28.983 41.977-1.056-16.09-17.122-22.245-25.095-43.35"/><path d="m-7.391-3.061-55.495 149.654s-1.148 2.772.7 3.537 2.996-2.006 2.996-2.006L7.39 3.061"/><path fill="#843511" stroke="none" d="m-3.696-1.53-38.208 102.695L3.696 1.53"/><path d="M-33.647 41.837c-16.168 15.028-15.157 33.2-30.342 45.877s-15.407 28.207-19.051 35.398-10.576 6.738-9.757 9.1 8.59 1.572 15.155-7.268 3.004-16.972 21.394-32.612 14.02-27.937 31.565-41.432"/><path fill="#843511" stroke="none" d="M-33.262 47.525c-14.23 15.732-12.37 30.858-27.69 42.84 14.461-7.133 14-24.331 30.447-39.774"/><path d="m7.391 3.061 55.495-149.654s1.148-2.772-.7-3.537-2.996 2.006-2.996 2.006L-7.39-3.061"/><path fill="#843511" stroke="none" d="m3.696 1.53 38.208-102.695-45.6 99.634"/><path d="M33.647-41.837c16.168-15.028 15.157-33.2 30.342-45.877s15.407-28.207 19.051-35.398 10.576-6.738 9.757-9.1-8.59-1.572-15.155 7.268-3.004 16.972-21.394 32.612S42.228-64.395 24.683-50.9"/><path fill="#843511" stroke="none" d="M33.262-47.525c14.23-15.732 12.37-30.858 27.69-42.84-14.461 7.133-14 24.331-30.447 39.774"/><path d="m3.061-7.391-149.654-55.495s-2.772-1.148-3.537.7 2.006 2.996 2.006 2.996L-3.061 7.39"/><path fill="#843511" stroke="none" d="m1.53-3.696-102.695-38.208 99.634 45.6"/><path d="M-41.837-33.647c-15.028-16.168-33.2-15.157-45.877-30.342s-28.207-15.407-35.398-19.051-6.738-10.576-9.1-9.757-1.572 8.59 7.268 15.155 16.972 3.004 32.612 21.394 27.937 14.02 41.432 31.565"/><path fill="#843511" stroke="none" d="M-47.525-33.262c-15.732-14.23-30.858-12.37-42.84-27.69 7.133 14.461 24.331 14 39.774 30.447"/><path d="m-3.061 7.391 149.654 55.495s2.772 1.148 3.537-.7-2.006-2.996-2.006-2.996L3.061-7.39"/><path fill="#843511" stroke="none" d="m-1.53 3.696 102.695 38.208L1.53-3.696"/><path d="M41.837 33.647c15.028 16.168 33.2 15.157 45.877 30.342s28.207 15.407 35.398 19.051 6.738 10.576 9.1 9.757 1.572-8.59-7.268-15.155-16.972-3.004-32.612-21.394S64.395 42.228 50.9 24.683"/><path fill="#843511" stroke="none" d="M47.525 33.262c15.732 14.23 30.858 12.37 42.84 27.69-7.133-14.461-24.331-14-39.774-30.447"/><path d="M-3.061-7.391-148.124 59.19s-2.772 1.148-2.006 2.996 3.537.7 3.537.7L3.06 7.39"/><path fill="#843511" stroke="none" d="m-1.53-3.696-99.635 45.6L1.531 3.696"/><path d="M-53.376 5.791c-22.059-.806-34.193 12.759-53.894 10.985s-30.84 9.051-38.502 11.56-12.242-2.715-13.333-.465 4.962 7.185 15.855 5.577 14.125-9.877 38.188-7.932 29.668-9.842 51.617-6.978"/><path fill="#843511" stroke="none" d="M-57.125 10.085c-21.187 1.062-30.567 13.073-49.872 10.713 15.269 5.182 27.104-7.306 49.653-6.595"/><path d="M3.061 7.391 148.124-59.19s2.772-1.148 2.006-2.996-3.537-.7-3.537-.7L-3.06-7.39"/><path fill="#843511" stroke="none" d="m1.53 3.696 99.635-45.6L-1.531-3.696"/><path d="M53.376-5.791c22.059.806 34.193-12.759 53.894-10.985s30.84-9.051 38.502-11.56 12.242 2.715 13.333.465-4.962-7.185-15.855-5.577-14.125 9.877-38.188 7.932-29.668 9.842-51.617 6.978"/><path fill="#843511" stroke="none" d="M57.125-10.085c21.187-1.062 30.567-13.073 49.872-10.713-15.269-5.182-27.104 7.306-49.653 6.595"/><path d="M7.391-3.061-59.19-148.124s-1.148-2.772-2.996-2.006-.7 3.537-.7 3.537L-7.39 3.06"/><path fill="#843511" stroke="none" d="m3.696-1.53-45.6-99.635L-3.696 1.531"/><path d="M-5.791-53.376c.806-22.059-12.759-34.193-10.985-53.894s-9.051-30.84-11.56-38.502 2.715-12.242.465-13.333-7.185 4.962-5.577 15.855 9.877 14.125 7.932 38.188 9.842 29.668 6.978 51.617"/><path fill="#843511" stroke="none" d="M-10.085-57.125c-1.062-21.187-13.073-30.567-10.713-49.872-5.182 15.269 7.306 27.104 6.595 49.653"/><path d="M-7.391 3.061 59.19 148.124s1.148 2.772 2.996 2.006.7-3.537.7-3.537L7.39-3.06"/><path fill="#843511" stroke="none" d="m-3.696 1.53 45.6 99.635L3.696-1.531"/><path d="M5.791 53.376C4.985 75.435 18.55 87.569 16.776 107.27s9.051 30.84 11.56 38.502-2.715 12.242-.465 13.333 7.185-4.962 5.577-15.855-9.877-14.125-7.932-38.188-9.842-29.668-6.978-51.617"/><path fill="#843511" stroke="none" d="M10.085 57.125c1.062 21.187 13.073 30.567 10.713 49.872 5.182-15.269-7.306-27.104-6.595-49.653"/><circle r="65" stroke-width="1"/><g fill="#843511" stroke="none"><path d="M41-14C29.5-24 15-25.5 7-18 1.194-10.237 1.711-1.096 8.5 8.5c-.5 0-1.5.5-2 1C1.457-.103.59-9.991 4-19c11-9 26-10 37 5"/><path d="M23-17c-6.5 0-8 1.5-11 4s-4.5 2-5 2.5 0 2 1 1.5 3-1.5 6-4 6-2.5 9-2.5c9 0 14 7.5 15 7S33-17 23-17"/><path d="M34.5-8.5C28-15.5 16-16 11-8h2c5-8 17-4.5 18-1v1"/><circle cx="22" cy="-9" r="4.5"/><path d="M11-8c5 4.5 16 5 23.5-.5L31-9c-5 5.5-13 5-18 1v-1"/><path d="M35-6C26.5.5 18 0 13-3S8-7 9-7s2 1 6 3 10 2 20-2M10.5 9a3 3 0 1 1-4 3C6 13 4 16 0 16h-1l1 1.5c1 0 4 0 6-1.5a4.5 4.5 0 1 0 4.5-7m6 21C12 27 10 22.5 5 22.5c-1 0-3 .5-5 1.5h-1l1 1.5c2 0 5-2.5 8.5-.5s5.5 4 8 5M15 30C5 27 3 29 0 29h-1l1 2c4 0 6-3 15-1"/><path d="M16.5 30C5.5 29 9 35.5 0 35.5h-1L0 37c11 0 6-6 16.5-7M9 46a9 9 0 1 0-18 0 9.25 9.25 0 0 1 18 0"/></g><g fill="#843511" stroke="none" transform="scale(-1 1)"><path d="M41-14C29.5-24 15-25.5 7-18 1.194-10.237 1.711-1.096 8.5 8.5c-.5 0-1.5.5-2 1C1.457-.103.59-9.991 4-19c11-9 26-10 37 5"/><path d="M23-17c-6.5 0-8 1.5-11 4s-4.5 2-5 2.5 0 2 1 1.5 3-1.5 6-4 6-2.5 9-2.5c9 0 14 7.5 15 7S33-17 23-17"/><path d="M34.5-8.5C28-15.5 16-16 11-8h2c5-8 17-4.5 18-1v1"/><circle cx="22" cy="-9" r="4.5"/><path d="M11-8c5 4.5 16 5 23.5-.5L31-9c-5 5.5-13 5-18 1v-1"/><path d="M35-6C26.5.5 18 0 13-3S8-7 9-7s2 1 6 3 10 2 20-2M10.5 9a3 3 0 1 1-4 3C6 13 4 16 0 16h-1l1 1.5c1 0 4 0 6-1.5a4.5 4.5 0 1 0 4.5-7m6 21C12 27 10 22.5 5 22.5c-1 0-3 .5-5 1.5h-1l1 1.5c2 0 5-2.5 8.5-.5s5.5 4 8 5M15 30C5 27 3 29 0 29h-1l1 2c4 0 6-3 15-1"/><path d="M16.5 30C5.5 29 9 35.5 0 35.5h-1L0 37c11 0 6-6 16.5-7M9 46a9 9 0 1 0-18 0 9.25 9.25 0 0 1 18 0"/></g></g><path fill="#FCBF49" fill-rule="evenodd" stroke="#FFDC4D" stroke-width=".625" d="m370.751 233.668-6.048-4.492-6.018 4.54 2.404-7.14-6.178-4.32 7.534.079 2.2-7.21 2.252 7.19 7.537-.137-6.142 4.364zm-24.549.792-7.054-2.647-4.53 6.025.338-7.527-7.13-2.447 7.263-2.003.124-7.538 4.15 6.289 7.207-2.212-4.699 5.89zm-23.548 8.085-7.457-1.078-3.136 6.855-1.28-7.425-7.488-.865 6.666-3.51-1.491-7.39 5.399 5.255 6.567-3.702-3.33 6.759zm-20.529 13.315-7.483.876-1.268 7.43-3.146-6.846-7.46 1.09 5.54-5.107-3.342-6.757 6.57 3.69 5.393-5.266-1.48 7.387zm-16.943 17.087-6.959 2.888.812 7.495-4.898-5.726-6.877 3.088 3.932-6.427-5.062-5.586 7.328 1.754 3.749-6.54.596 7.51zm-11.528 22.5-6.165 4.33 2.42 7.14-6.024-4.525-6.043 4.508 2.443-7.128-6.155-4.354 7.534.12 2.239-7.198 2.213 7.202zm106.856-60.991 6.903-3.018 4.844 5.776-.738-7.498 6.99-2.822-7.359-1.615-.523-7.52-3.81 6.5-7.314-1.827 5.004 5.633zm23.743 6.289 7.469-.996 3.06 6.89 1.361-7.411 7.498-.782-6.627-3.584 1.573-7.373-5.457 5.195-6.525-3.774 3.255 6.795zm21.129 13.168 7.509.625 1.516 7.385 2.915-6.948 7.491.84-5.707-4.92 3.114-6.865-6.442 3.908-5.567-5.083 1.726 7.334zm17.013 17.587 7.095 2.535-.434 7.526 4.603-5.964 7.024 2.738-4.25-6.221 4.775-5.834-7.23 2.12-4.073-6.344-.219 7.531zm12.669 20.456 6.132 4.379-2.475 7.12 6.059-4.478 6.007 4.554-2.387-7.146 6.188-4.306-7.534.062-2.183-7.216-2.27 7.185zm6.179 24.517 5.035 5.605-3.962 6.414 6.886-3.056 4.875 5.75-.778-7.494 6.975-2.86-7.368-1.575-.564-7.518-3.775 6.52zM333.726 424.608l-7.288 1.91-3.888-6.46-.436 7.523-7.344 1.701 7.02 2.74-.652 7.51 4.774-5.83 6.942 2.94-4.069-6.341zm-22.479-9.9-7.532-.176-1.954-7.281-2.495 7.11-7.529-.393 5.99 4.57-2.699 7.04 6.198-4.286 5.86 4.742-2.16-7.218zm-18.827-16.291-7.32-1.784-.35-7.53-3.959 6.411-7.27-1.993 4.874 5.745-4.143 6.299 6.971-2.86 4.71 5.886-.566-7.513zm-14.075-20.015-6.615-3.606 1.597-7.367-5.474 5.177-6.513-3.796 3.233 6.806-5.623 5.021 7.471-.97 3.039 6.899 1.385-7.406zm-9.34-22.176-5.377-5.278 3.55-6.65-6.68 3.484-5.227-5.432 1.248 7.43-6.781 3.293 7.452 1.109 1.036 7.466 3.358-6.745zm-2.295-25.177-4.103-6.32 4.91-5.72-7.278 1.95-3.923-6.438-.395 7.525-7.334 1.741 7.033 2.7-.61 7.514 4.742-5.855zm104.148 96.344 6.595 3.644 5.356-5.304-1.427 7.398 6.7 3.456-7.477.928-1.216 7.44-3.194-6.824-7.451 1.142 5.503-5.146zm24.223-4.067 7.345 1.682 3.684-6.577.67 7.505 7.394 1.471-6.93 2.957.885 7.486-4.954-5.677-6.846 3.155 3.869-6.465zm22.256-11.159 7.534.072 2.192-7.213 2.26 7.188 7.537-.144-6.137 4.37 2.466 7.124-6.053-4.486-6.013 4.546 2.396-7.143zm18.565-15.939 7.299-1.868.264-7.534 4.032 6.364 7.247-2.077-4.807 5.802 4.215 6.25-7.004-2.78-4.641 5.941.479-7.52zm14.506-19.198 6.51-3.792-1.806-7.32 5.619 5.02 6.403-3.98-3.038 6.896 5.763 4.86-7.496-.759-2.84 6.983-1.596-7.364zm8.418-23.84 5.532-5.116-3.353-6.752 6.575 3.68 5.385-5.275-1.467 7.39 6.68 3.492-7.481.887-1.257 7.433-3.156-6.841zM345.97 427.435l5.756 4.861 6.289-4.156-2.844 6.977 5.896 4.697-7.514-.55-2.645 7.06-1.8-7.316-7.531-.335 6.402-3.972z" color="#000000" overflow="visible"/><path fill="#C24900" fill-rule="evenodd" stroke="#C24900" stroke-width=".387" d="M283.056 341.409c3.708-4.382 8.557-3.122 10.898-2.604 5.812 2.064 8.262 6.52 6.324 11.49 11.063.324 16.314-1.516 17.633-2.786 3.457-3.761 1.5-13.733 6.78-13.448 6.396 1.39-1.626 7.624.381 11.122 6.507-3.908 25.103-12.248 34.511-12.932 11.545-1.161 21.04 1.324 24.379 4.038 4.456-13.86 9.14-33.648 27.73-36.11 7.17-.095 8.539 3.921 8.94 6.97.257 3.513-1.822 6.22-5.755 6.427-3.468.54-4.036-4.563-8.471-3.863-2.725 1.152-4.32 3.27-5.998 7.001l12.642 11.794c7.87-7.093 15.983-13.54 23.854-13.3 7.035.148 10.6 6.877 10.137 10.568-.473 3.77-.976 6.197-7.088 7.538-6.144 1.347-9.431-5.849-19.317 2.077l-23.252 22.644c7.615 3.419 11.361 7.563 7.613 10.015-5.192 2.434-9.929 2.382-14.164 3.404-5.019 1.21-7.468 1.85-6.911 13.055l.047 2.824-41.277.03c5.27-1.32 21.581-6.669 26.61-17.497l-.073-8.901 4.799-2.315-1.206-1.67c-11.406-6.878-30.152-3.232-51.82.76-.19 4.584-1.237 11.472-6.167 14.52l-.39 1.092c.838.736 4.58 4.683 4.57 9.18-.008 4.496-3.99 9.256-10.665 9.294-6.637.038-9.409-6.418-9.447-9.256-.037-2.877 1.95-10.346 10.923-10.282l.534-1.321c-2.613-1.951.27-8.75 1.05-10.217-4.832 1.088-12.628 1.89-19.684.3-10.108-3.831-11.782-16.267-8.67-19.641zm106.13-.121c1.804-3.4 8.795-17.97 9.688-21.598.816 1.785 9.098 10.124 11.34 11.568-2.869 1.197-15.083 14.816-17.153 17.609-.76-2.337-2.773-6.098-3.875-7.58zm-81.332 36.243a1.925 1.925 0 1 1-3.85-.002 1.925 1.925 0 0 1 3.85.002zm7.978 2.906a1.925 1.925 0 1 1-3.85-.002 1.925 1.925 0 0 1 3.85.002zm-6.61 5.243a1.925 1.925 0 1 1-3.851-.002 1.925 1.925 0 0 1 3.85.002z"/><path fill="#DB8E45" fill-rule="evenodd" stroke="#DB8E45" stroke-width=".387" d="M293.12 347.693c-5.642-1.913-3.22-6.037-.686-5.575 7.277 1.896-.922 8.123 4.035 11.553 3.456 1.95 19.409-.139 22.266-2.777 3.512-4.183 3.128-15.036 5.588-14.509 2.124.826-4.206 11.25-2.36 13.7 8.522-1.812 21.315-13.134 37.896-14.06 14.447-.839 20.072 3.34 22.847 5.892 5.743 4.262 7.268 11.373 7.996 14.667 1.377-1.701 29.556-37.339 42.943-37.946 7.248.005 8.402 3.734 7.2 4.413-3.252 1.078-2.387-1.648-6.044-1.56-11.042.938-36.635 29.114-42.039 36.381 5.299 4.12 5.195 5.523 4.428 7.007-1.681 2.166-5.166-.843-6.83-1.067-3.257-.438-6.645 12.547-13.4 18.668l-14.892-.047c14.673-2.687 18.9-13.057 21.477-18.472 4.39-8.04-2.39-20.184-13.728-20.474l12.505 11.138-7.656-.018-5.113-4.933c-7.176-5.872-26.527-3.676-49.887 5.151-2.5 4.866-3.63 15.292-5.323 14.678-1.887-1.146 2.813-12.906 3.594-14.372-3.123.632-17.051 1.977-20.801.899-4.487-1.203-6.274-3.538-4.016-8.337z"/><path fill="#DB8E45" fill-rule="evenodd" stroke="#DB8E45" stroke-width=".387" d="M385.622 337.705c2.341-8.225 9.821-28.687 24.511-34.64 3.063-.735 4.154.731 4.75 1.772.434.705 1.103 3.444-2.727 3.766-1.804.128-1.634-2.02-5.451-1.47-6.543 1.994-15.325 20.014-18.508 30.841-.443 1.522-2.837 1.094-2.575-.27z" color="#000000" overflow="visible"/></svg>
