<svg xmlns="http://www.w3.org/2000/svg" width="5783" height="3515" viewBox="0 0 152988 92992" fill-rule="evenodd" clip-rule="evenodd"><path fill="#FEFEFE" d="M0 0h152988v92992H0z"/><path fill="#00A3E0" d="M0 0h51496v92992H0zm101492 0h51496v92992h-51496z"/><path fill="#FEFEFE" d="M101492 0H51496v92992h49996z"/><path fill="#00A3E0" d="M95055 50156c307-1357 470-2768 470-4217 0-10515-8527-19042-19042-19042s-19043 8527-19043 19042c0 1449 163 2860 470 4217l18464-14689z"/><path fill="#1A472B" d="m75607 34124-4 604a18625 18625 0 0 1-8955-2768c2003 2186 3899 3422 6899 3987-4236 645-6998 2729-9464 5607 3169-2389 7153-4183 11504-4378l-8 1258c-2786 204-5312 1176-7268 3101 2189-1084 4629-1845 7260-1956l-6 963c-1741 248-3183 912-4261 2542a9515 9515 0 0 1 4254-1477l-4 688a4900 4900 0 0 0-3343 2419 7329 7329 0 0 1 3335-1305l-110 16866h-4c-21 986-524 1834-1247 2240 913 151 1718 691 2286 1470 560-784 1358-1332 2265-1495-700-415-1183-1249-1204-2215h-2l-111-16866a7329 7329 0 0 1 3336 1305 4900 4900 0 0 0-3343-2419l-5-688a9515 9515 0 0 1 4254 1477c-1002-1639-2519-2294-4261-2542l-6-966c2646 104 4908 881 7261 1959-1957-2008-4483-2897-7268-3101l-9-1258c4352 195 8335 1989 11504 4378-2466-2878-5227-4962-9464-5607 3001-565 4958-1796 6899-3987a18625 18625 0 0 1-8955 2768l-4-635a13676 13676 0 0 0 6810-2474 10620 10620 0 0 0-7546-3134c-3106 0-5902 1331-7849 3453a13676 13676 0 0 0 6834 2186"/><path fill="#BF940D" fill-rule="nonzero" d="m75724 34125-4 605-1 190-119-5-10-1a18884 18884 0 0 1-2704-323 18683 18683 0 0 1-5302-1892c701 671 1410 1230 2181 1688 1089 647 2305 1094 3796 1374l1089 205-1092 166c-2106 321-3845 999-5363 1954-1099 691-2083 1528-3008 2481q118-79 237-156 716-466 1472-882c2594-1427 5545-2399 8688-2540l122-5-2 193-8 1259-1 176-111 9h-6q-582 43-1147 131-567 88-1112 224c-1466 364-2822 987-4011 1902 787-340 1604-634 2447-870 1216-341 2490-560 3814-616l121-5-1 193-7 963-1 169-106 15c-860 123-1647 348-2350 744a5073 5073 0 0 0-1305 1051q222-120 448-226a9587 9587 0 0 1 3183-875l126-12-2 200-4 688-1 164-102 20h-3a4775 4775 0 0 0-2805 1678q134-77 266-146a7401 7401 0 0 1 2511-790l128-17-1 204-111 16866-1 186h-12a3230 3230 0 0 1-133 702 2749 2749 0 0 1-804 1259q183 55 353 127a3824 3824 0 0 1 1514 1190 4330 4330 0 0 1 466-517c406-380 880-664 1397-824q-110-98-208-210a2953 2953 0 0 1-702-1727h-10l-1-186-110-16865-2-205 128 17h4q253 33 517 85 264 53 504 119a7409 7409 0 0 1 1753 733q-103-127-216-247a4787 4787 0 0 0-2592-1432l-102-20-2-164-4-688-1-200 125 12h5a9702 9702 0 0 1 1290 214 9594 9594 0 0 1 2388 914 4744 4744 0 0 0-1328-1082c-712-394-1518-617-2379-740l-106-15-1-169-6-966-2-192 122 5c1329 52 2562 273 3758 617 892 256 1764 581 2639 954a9666 9666 0 0 0-2491-1473c-1216-495-2536-766-3922-867l-111-9-1-176-8-1259-1-193 122 5 10 1q917 42 1811 175 894 132 1761 347c2483 612 4787 1704 6813 3053-924-952-1908-1788-3006-2479-1518-955-3257-1633-5364-1954l-1091-166 1089-205c1491-281 2722-726 3819-1372v-1c786-463 1505-1030 2203-1714l-208 112a18749 18749 0 0 1-7854 2129l-119 5-1-190-4-636-1-179 112-9h6a13701 13701 0 0 0 2058-327 13597 13597 0 0 0 4499-1988 10659 10659 0 0 0-1576-1242 10520 10520 0 0 0-5717-1677h-1v-1a10531 10531 0 0 0-7598 3225 13436 13436 0 0 0 1536 824 13598 13598 0 0 0 5051 1217l116 6zm-237 411 2-232a13750 13750 0 0 1-6753-2188l-8-5-202-131 180-196a10807 10807 0 0 1 3525-2548c1340-602 2826-937 4390-937v-1h1a10684 10684 0 0 1 6746 2386q450 363 862 776v1l187 187-201 142a13780 13780 0 0 1-6739 2479l1 267a18546 18546 0 0 0 8789-2745l8-5 878-540-768 866c-979 1106-1963 1969-3079 2627v-1c-881 519-1844 910-2952 1191 1723 367 3194 987 4504 1811 1539 968 2854 2216 4094 3663l991 1156-1111-837c-2270-1711-4960-3116-7904-3842q-860-212-1746-344-831-124-1685-168l6 888c1359 109 2657 383 3858 871a9784 9784 0 0 1 3357 2251l668 686-764-350c-1172-537-2322-999-3508-1340a15566 15566 0 0 0-3601-607l4 605c840 128 1627 355 2330 743a5067 5067 0 0 1 1899 1839l389 637-518-334a9434 9434 0 0 0-4091-1451l2 324a4986 4986 0 0 1 2594 1473l-1 1a5058 5058 0 0 1 721 984l1 2 359 648-495-353a7253 7253 0 0 0-2787-1207q-184-38-382-65l108 16517 3 139c14 628 246 1198 613 1616a2220 2220 0 0 0 501 421l14 9 456 273-484 87a3349 3349 0 0 0-1693 869 3840 3840 0 0 0-506 579l-2 2-77 107-77-106a3623 3623 0 0 0-1498-1215 3219 3219 0 0 0-720-210l-3-1-518-86 491-275c487-274 867-755 1050-1340a2601 2601 0 0 0 118-712l1-20 4-179h1l108-16475a7237 7237 0 0 0-3167 1270l-3 2-495 348 360-643a5042 5042 0 0 1 2815-2324q247-81 499-136l2-323a9422 9422 0 0 0-3004 847 9398 9398 0 0 0-1083 601l-4 3-570 364 445-673c551-834 1195-1421 1923-1830 693-390 1463-618 2303-747l4-601c-1265 63-2486 277-3657 605a19844 19844 0 0 0-3450 1337l-884 438 787-775c1421-1398 3138-2298 5035-2769q554-137 1124-226 521-82 1055-125l5-888c-3071 159-5956 1116-8495 2513a23397 23397 0 0 0-2833 1836l-7 5-1108 834 989-1153c1239-1447 2555-2695 4094-3663a13667 13667 0 0 1 4504-1811 10937 10937 0 0 1-2929-1193c-1110-659-2092-1521-3102-2623l-834-911 944 584a18534 18534 0 0 0 8796 2750"/><path fill="#EB2629" d="M76483 64410q172 1 337 19a851 851 0 0 0 1451 597q274 215 490 487a851 851 0 0 0 604 1448 2928 2928 0 0 1 2 690 850 850 0 0 0-597 1451 2922 2922 0 0 1-487 489 850 850 0 0 0-1448 605 2928 2928 0 0 1-690 1 850 850 0 0 0-1451-596 2921 2921 0 0 1-489-487 850 850 0 0 0-605-1448 2928 2928 0 0 1-1-690 850 850 0 0 0 596-1451q215-274 487-489a850 850 0 0 0 1448-605q174-21 353-21"/><path fill="#FEFEFE" fill-rule="nonzero" d="M79366 67463h-5766v-299h5766z"/><path fill="#FEFEFE" fill-rule="nonzero" d="M76632 64431v5765h-299v-5765z"/><path fill="#FEFEFE" fill-rule="nonzero" d="m78627 65381-4077 4077-212-212 4077-4077z"/><path fill="#FEFEFE" fill-rule="nonzero" d="m78420 69460-4077-4077 203-216 4077 4077z"/><path fill="#BF910C" fill-rule="nonzero" d="m76970 64429-299 1 132 148-10-1-10-1-10-1-9-1-10-1-10-1-10-1-10-1-10-1-10-1h-10l-10-1-10-1-10-1h-10l-10-1h-10l-10-1h-10l-10-1h-10l-10-1h-20l-10-1h-71v-300h33l12 1h33l11 1h23l11 1h11l11 1h11l11 1h11l12 1 11 1 11 1h11l11 1 11 1 11 1 11 1 11 1 11 1 11 1 11 1 11 1 11 1 11 1 11 2zm-132-148 131 15 1 133zm791 843-18 299-49-5-48-6-48-9-47-11-46-13-45-15-44-17-43-19-42-21-40-23-40-25-38-27-36-28-36-29-33-32-33-32-31-35-29-35-27-37-26-38-24-40-23-40-20-42-19-43-16-43-15-45-12-45-11-46-8-47-6-48-4-48-1-49 299-1 1 34 3 34 4 33 5 33 8 32 9 32 10 31 11 30 13 30 15 29 15 29 17 28 18 26 20 26 20 25 22 24 23 23 23 22 25 21 26 20 27 18 27 18 29 16 29 14 30 14 30 12 32 11 32 9 33 7 33 6 34 5zm734-216-184 236 198-12-19 18-19 18-19 17-20 16-20 16-21 16-21 15-21 14-22 14-22 13-23 13-23 12-23 12-24 11-24 10-24 10-24 9-25 9-25 8-26 7-25 6-26 6-26 6-27 4-26 4-27 3-27 3-27 1-27 1h-55l-28-1 18-299 19 1h39l19-1 19-1 19-2 19-2 18-2 19-4 18-3 18-4 18-5 18-5 17-6 18-6 17-6 17-7 16-7 17-8 16-8 16-9 16-8 16-10 15-9 15-11 15-10 14-11 15-11 14-12 13-12 14-12 13-13zm-197 12 93-93 104 81zm701 698-213-210-11 198-13-16-12-16-13-16-14-16-13-15-13-16-14-15-13-16-14-15-14-15-14-15-14-15-14-15-14-15-15-14-14-15-15-14-14-14-15-15-15-14-15-14-15-14-16-13-15-14-15-14-16-13-15-13-16-13-16-13-16-13-16-13-16-13 184-236 18 15 18 14 18 14 17 15 18 14 17 15 17 15 17 15 17 15 17 15 17 15 16 16 17 16 16 15 17 16 16 16 16 16 16 16 16 17 15 16 16 17 15 16 16 17 15 17 15 17 15 17 15 17 14 18 15 17 14 18 15 17 14 18zm11-198 82 104-93 94zm-37 1156-223 198-32-37-30-39-27-40-26-41-23-42-21-42-19-43-17-44-14-45-13-45-10-45-8-45-6-46-4-46-2-46v-46l3-46 4-46 7-46 8-45 11-45 13-44 15-44 17-44 19-42 21-42 23-41 26-40 27-39 29-38 32-37 33-35 213 210-24 25-22 26-20 26-19 28-18 28-16 28-15 30-13 29-12 31-11 30-9 32-7 31-6 32-5 32-3 32-2 32v33l1 32 3 32 4 32 6 32 7 32 9 31 10 32 12 30 13 30 15 30 16 29 18 29 19 28 21 27zm672 367-297 36 149 131h-26l-26-1-26-2-25-2-26-3-25-4-26-4-25-5-26-6-25-6-25-7-25-7-24-9-25-9-24-9-24-10-24-11-23-12-24-12-23-13-23-13-22-14-22-15-22-16-22-16-21-16-21-18-20-18-20-18-20-19-19-20-18-21 223-198 14 14 13 14 14 14 14 13 14 12 15 12 14 12 15 11 16 11 15 10 16 10 16 10 16 9 16 8 17 8 17 8 16 7 17 7 17 6 18 6 17 5 18 5 17 4 18 4 18 4 18 3 18 2 18 2 18 2 18 1 18 1h18zm-148-132h133l15 132zm171 503h-299v-32l-1-11v-32l-1-10v-21l-1-11v-10l-1-11v-10l-1-11v-10l-1-11-1-10-1-10v-11l-1-10-1-11-1-10-1-10-1-11-1-10-1-11-1-10-1-10-1-11-1-10-2-10 297-36 2 11 1 12 1 11 2 11 1 12 1 11 1 12 1 11 1 12 1 11 1 12 1 11 1 12 1 11 1 12v12l1 11 1 12v11l1 12v12l1 11v12l1 12v35l1 11zm-169 487-1-299-148 132 1-10 1-10 1-10 1-10 1-10 1-9 1-10 1-10 1-10 1-10 1-10v-10l1-10 1-10v-10l1-10 1-10v-10l1-10v-20l1-10v-11l1-10v-40l1-10v-31h299v45l-1 12v33l-1 11v12l-1 11v11l-1 11v11l-1 11v11l-1 12-1 11v11l-1 11-1 11-1 11-1 11-1 11-1 11-1 11-1 11-1 11-1 11-1 10-1 11-2 11zm148-133-15 132-133 1zm-843 792-298-18 4-49 6-49 9-47 11-47 13-46 15-45 17-44 20-43 21-42 23-40 24-40 27-38 28-36 30-36 31-33 33-33 34-31 35-29 37-27 38-26 40-24 40-23 42-20 43-19 43-16 45-15 45-13 47-10 46-8 48-6 48-4 49-2 2 300-35 1-33 2-34 5-33 5-32 8-32 8-31 11-30 11-30 13-29 15-29 15-27 17-27 18-26 20-25 20-24 22-23 23-22 23-21 25-20 26-18 26-17 28-16 28-15 30-14 30-12 30-10 32-9 32-8 33-6 33-5 34zm216 734-236-184 12 198-18-19-17-19-17-19-17-20-16-20-15-21-15-21-15-21-14-22-13-22-13-23-12-23-12-23-11-24-10-24-10-24-9-25-8-24-8-26-8-25-6-26-6-25-5-27-5-26-4-26-3-27-2-27-2-27-1-28v-55l2-27 298 18-1 19v39l1 19 1 19 2 19 2 19 3 18 3 19 4 18 4 18 4 18 5 18 6 17 6 17 6 18 7 17 7 16 8 17 8 16 9 16 9 16 9 16 10 15 10 15 10 15 11 14 11 15 12 13 12 14 12 13 13 13zm-12-198 93 94-81 104zm-698 702 210-213-198-11 16-13 16-13 16-13 16-13 16-13 15-13 16-14 15-14 15-13 15-14 15-14 15-14 15-14 15-14 14-15 15-14 14-15 15-15 14-14 14-15 14-15 14-15 14-16 13-15 14-15 13-16 13-16 14-15 13-16 13-16 13-16 12-16 236 184-14 18-14 18-15 18-14 17-15 17-15 18-15 17-15 17-15 17-15 17-15 17-16 16-15 17-16 16-16 17-16 16-16 16-16 16-16 16-17 15-16 16-17 15-17 15-17 16-17 15-17 15-17 15-18 14-17 15-18 14-17 15-18 14zm198 11-104 82-94-93zm-1155-37-199-224 38-31 38-30 40-28 41-25 42-23 42-21 44-19 44-17 44-15 45-12 45-10 46-9 46-6 45-4 47-1h46l46 2 45 5 46 6 45 9 45 11 45 13 43 15 44 17 42 19 42 21 41 23 40 26 39 27 38 29 37 32 35 33-210 213-25-24-26-22-26-20-27-19-28-18-29-16-29-15-30-13-30-12-31-11-31-9-32-7-32-7-32-4-32-3-32-2h-32l-33 1-32 3-32 4-32 6-32 7-31 9-31 10-31 12-30 13-30 15-29 16-29 18-28 19-27 21zm-368 672-36-297-131 149v-26l1-26 2-26 2-25 3-26 4-26 4-25 5-25 6-26 6-25 7-25 8-25 8-24 9-25 9-24 11-24 10-24 12-24 12-23 13-23 13-23 15-22 14-23 16-21 16-22 17-21 17-21 18-20 18-20 20-20 19-19 21-19 199 224-15 13-14 14-13 14-13 14-13 14-12 14-12 15-11 15-11 16-10 15-10 16-9 16-9 16-9 16-8 17-8 16-7 17-6 17-7 17-5 18-6 17-5 18-4 17-4 18-4 18-3 18-2 18-2 18-2 18-1 18-1 18v18zm132-148v132l-132 16zm-502 171v-299h10l11-1h53l10-1h21l11-1h10l11-1h10l11-1 10-1h11l10-1 11-1h10l11-1 10-1 10-1 11-1 10-1 10-1 11-1 10-1 10-1 11-1 10-1 10-2 36 297-11 2-11 1-12 1-11 2-12 1-11 1-12 1-11 1-12 1-11 1-12 1-11 1-12 1-11 1h-12l-11 1-12 1h-12l-11 1-12 1h-12l-11 1h-24l-11 1h-35l-12 1zm-488-169 300-1-133-148 10 1 10 1 10 1 10 1 10 1 10 1 10 1 10 1 10 1 10 1h10l9 1 10 1 10 1h10l10 1h10l10 1h11l10 1h10l10 1h20l10 1h50l11 1h10v299h-34l-11-1h-34l-11-1h-22l-12-1h-11l-11-1h-11l-11-1h-11l-11-1-11-1-11-1h-11l-11-1-11-1-11-1-12-1-11-1-10-1-11-1-11-1-11-1-11-1-11-2-11-1zm133 148-132-15-1-133zm-791-843 17-299 49 5 49 6 48 9 46 11 46 13 45 15 44 17 43 19 42 21 41 23 39 25 38 27 37 28 35 29 34 32 32 32 31 35 29 35 28 37 26 38 24 40 22 40 20 42 19 42 17 44 14 45 13 45 10 46 9 47 6 48 3 48 2 49-299 1-1-34-3-34-4-33-6-33-7-32-9-32-10-31-12-31-13-29-14-30-16-28-17-28-18-26-19-26-21-25-22-24-22-23-24-22-25-21-26-20-26-18-28-18-28-16-29-14-30-14-31-12-31-10-33-10-32-7-34-6-34-5zm-735 216 184-236-197 12 18-18 19-18 19-17 20-16 21-16 20-16 21-15 22-14 22-14 22-13 22-13 23-12 24-12 23-11 24-10 24-10 25-9 25-9 25-7 25-8 26-6 26-6 26-5 26-5 27-4 26-3 27-2 28-2 27-1h55l27 1-17 299-20-1h-39l-19 1-19 1-19 2-18 2-19 3-18 3-19 3-18 4-17 5-18 5-18 6-17 6-17 6-17 7-17 7-17 8-16 8-16 9-16 8-15 10-16 10-15 10-15 10-14 11-14 11-14 12-14 12-13 12-13 13zm198-12-94 93-104-81zm-702-698 213 210 11-198 13 16 13 16 13 16 13 16 13 15 14 16 13 15 14 16 14 15 13 15 14 15 14 15 14 15 15 15 14 14 15 15 14 14 15 15 15 14 15 14 15 14 15 14 15 13 15 14 16 14 15 13 16 13 16 13 15 14 16 12 16 13 16 13-184 236-18-14-18-15-17-14-18-15-17-14-18-15-17-15-17-15-17-15-17-15-16-15-17-16-17-16-16-15-16-16-16-16-17-16-15-16-16-17-16-16-15-17-16-16-15-17-15-17-16-17-14-17-15-17-15-18-15-17-14-18-14-17-15-18zm-10 198-83-104 93-94zm36-1156 224-198 32 37 29 39 28 40 25 41 23 42 22 42 18 43 17 44 15 45 12 45 11 45 8 46 6 45 4 46 2 46-1 46-2 46-5 46-6 46-9 45-11 45-12 44-15 44-17 44-20 42-21 42-23 41-25 40-28 39-29 38-31 37-34 35-213-210 24-25 22-26 21-26 19-28 17-28 17-28 14-30 14-29 12-31 10-30 9-32 8-31 6-32 4-32 4-32 1-32v-33l-1-32-3-32-4-32-6-32-7-32-9-31-10-31-12-31-13-30-14-30-17-29-17-29-20-28-21-27zm-672-367 297-36-148-131h25l26 1 26 2 26 2 25 3 26 4 25 4 26 5 25 6 25 6 25 7 25 7 25 9 24 9 24 9 24 10 24 11 24 12 23 12 23 13 23 13 23 14 22 15 22 16 21 16 21 16 21 18 21 18 19 18 20 19 19 20 19 21-224 198-13-14-14-14-13-14-14-13-15-12-14-12-15-12-15-11-15-11-16-10-16-10-15-10-17-9-16-8-16-8-17-8-17-7-17-7-17-6-17-6-18-5-17-5-18-4-18-4-17-4-18-3-18-2-18-2-18-2-19-1-18-1h-18zm148 132h-132l-16-132zm-171-502h300v63l1 11v21l1 10v11l1 10v11l1 10v11l1 10v11l1 10 1 11 1 10v10l1 11 1 10 1 11 1 10 1 10 1 11 1 10 1 10 1 11 2 10 1 10-297 36-1-11-2-12-1-11-1-11-2-12-1-11-1-12-1-11-1-12-1-11-1-12-1-11-1-12v-12l-1-11-1-12-1-11v-12l-1-11v-12l-1-12v-11l-1-12v-23l-1-12v-47l-1-12zm169-488 2 299 147-132-1 10-1 10-1 10-1 10-1 10-1 10-1 9-1 10-1 10v10l-1 10-1 10-1 10v10l-1 10-1 10v10l-1 10v10l-1 10v21l-1 10v20l-1 10v61h-300v-12l1-11v-56l1-11v-11l1-12v-22l1-11 1-11v-11l1-11v-11l1-12 1-11 1-11 1-11v-11l1-11 1-11 1-11 1-11 1-11 1-11 2-11 1-10 1-11 1-11zm-148 133 15-132 133-1zm843-792 299 18-4 49-7 49-9 47-10 47-14 46-15 45-17 44-19 43-21 42-23 40-25 40-26 38-28 36-30 36-31 34-33 32-34 31-36 29-37 27-38 26-39 24-41 23-42 20-42 19-44 16-44 15-46 13-46 10-47 8-48 6-48 4-49 2-1-300 34-1 34-2 33-5 33-5 32-8 32-8 31-11 31-11 30-13 29-15 28-15 28-17 27-18 26-20 25-20 24-22 23-23 21-23 21-25 20-26 19-26 17-28 16-28 15-30 13-29 12-31 11-32 9-32 8-33 6-33 4-34zm-215-734 235 184-12-198 18 19 18 19 17 19 16 20 16 20 16 21 15 21 14 21 14 22 13 23 13 22 12 23 12 23 11 24 10 24 10 24 9 25 9 24 8 26 7 25 7 26 5 26 6 26 4 26 4 27 3 26 3 27 1 27 1 28 1 27-1 28-1 27-299-18 1-19v-58l-2-19-1-19-3-18-2-19-3-18-4-19-4-18-5-18-5-17-5-18-6-17-7-18-7-17-7-16-8-17-8-16-8-16-9-16-10-16-9-15-10-15-11-15-11-14-11-15-12-13-12-14-12-13-12-13zm12 198-94-94 82-104zm698-702-211 213 198 11-16 13-16 13-16 13-15 13-16 13-16 13-15 14-15 14-16 13-15 14-15 14-15 14-15 14-14 14-15 15-15 14-14 15-14 15-14 14-15 15-14 15-13 15-14 16-14 15-13 15-14 16-13 16-13 15-13 16-13 16-13 16-13 16-235-184 14-18 14-18 14-18 15-17 14-17 15-18 15-17 15-17 15-17 15-17 16-17 15-16 16-17 15-16 16-17 16-16 16-16 17-16 16-15 16-16 17-16 17-15 16-16 17-15 17-15 17-15 18-15 17-14 17-15 18-14 18-15 17-14zm-199-11 104-82 95 93zm1156 37 199 224-38 31-39 30-40 28-41 25-41 23-43 21-43 19-44 17-45 15-44 12-46 10-45 9-46 6-46 4-46 1h-46l-46-2-46-5-46-6-45-9-45-11-44-13-44-15-43-17-43-19-42-21-41-23-40-26-39-27-38-29-37-32-35-33 210-213 25 24 26 22 27 20 27 19 28 18 29 16 29 15 30 13 30 12 31 11 31 9 31 7 32 7 32 4 32 3 33 2h32l32-1 32-3 33-4 32-6 31-7 32-9 31-10 30-12 31-13 29-15 29-16 29-18 28-19 27-21zm367-672 36 297 132-149-1 26-1 26-1 26-3 25-3 26-3 26-5 25-5 25-5 26-7 25-7 25-7 25-8 24-9 25-10 24-10 24-11 24-12 24-12 23-13 23-13 23-14 22-15 23-15 21-16 22-17 21-17 21-18 20-19 20-19 20-20 19-21 19-198-224 14-13 14-14 14-14 13-14 12-14 13-14 11-15 11-15 11-16 11-15 9-16 10-16 9-16 8-16 8-17 8-16 7-17 7-17 6-17 6-18 5-17 5-18 5-17 3-18 4-18 3-18 3-18 2-18 1-18 2-18v-36zm-132 148 1-132 131-16zm503-171v300h-64l-10 1h-21l-11 1h-21l-11 1h-10l-11 1-10 1h-10l-11 1-10 1h-11l-10 1-11 1-10 1-10 1-11 1-10 1-10 1-11 1-10 1-10 1-11 1-10 2-36-297 11-2 12-1 11-1 12-2 11-1 12-1 11-1 12-1 11-1 12-1 11-1 12-1 11-1 12-1h11l12-1 12-1h11l12-1 11-1h24l11-1h12l12-1h35l11-1z"/><path fill="#006647" d="M99624 53338c-534 93-1560 352-2042 518-422 146-935 427-1168 1025-224 576-1643 3373-2932 4937 531-42 1133-109 1702-322 446-167 731-369 1075-933 1271-2076 1902-3224 2102-3561 281-470 771-1276 1263-1664"/><path fill="#BF940D" fill-rule="nonzero" d="m97644 54035-123-358 48-16 51-17 54-17 57-18 58-18 61-18 63-18 65-19 66-19 67-18 69-19 70-19 71-19 72-19 72-18 72-19 73-18 72-18 72-18 72-17 72-17 70-16 70-16 68-16 67-15 66-14 64-13 62-13 60-12 58-11 56-11 53-9 64 373-50 9-52 10-56 10-58 12-60 12-62 13-64 14-65 15-67 15-68 15-70 17-70 16-70 17-71 18-72 17-71 18-71 18-71 19-70 18-70 19-68 18-68 19-66 18-65 18-62 18-61 18-59 18-57 17-54 17-51 16-48 16zm-1053 915-353-137 25-62 27-60 29-57 31-56 32-54 33-52 35-50 36-49 38-46 38-45 40-43 40-41 41-40 42-37 43-37 43-34 44-33 44-32 45-30 45-29 45-27 45-26 45-25 45-23 45-22 45-21 45-20 44-19 44-18 43-17 43-16 43-15 123 358-37 13-38 14-38 15-38 15-38 17-38 17-39 18-38 19-38 20-38 20-38 22-37 23-37 23-37 25-36 26-35 27-35 27-35 30-33 30-33 31-32 33-31 34-30 35-30 36-28 38-27 39-26 41-25 42-24 44-23 45-21 47zm-3124 4680 30 377-162-309 119-147 120-154 120-161 121-166 120-170 120-175 120-179 118-181 118-184 116-185 115-186 113-187 111-186 108-186 106-183 103-182 99-179 97-175 93-171 89-166 85-161 80-155 77-148 71-141 66-132 61-124 55-115 49-104 44-94 36-83 30-69 23-56 353 137-27 65-32 75-39 87-45 98-50 107-57 117-62 127-67 134-72 143-77 150-82 157-86 163-90 168-94 173-98 177-101 181-104 183-107 186-109 188-112 189-115 189-116 189-118 188-120 187-121 184-121 182-123 179-123 175-124 170-124 165-124 160-123 153zm30 377-446 36 285-345zm1621-688 133 354-56 21-57 19-56 19-57 18-56 17-57 16-56 16-57 15-56 14-57 13-56 13-56 12-56 11-56 11-56 10-56 10-55 9-56 9-55 8-55 7-54 8-55 7-54 6-53 6-54 6-53 5-53 6-52 5-52 4-51 5-51 4-51 4-30-377 50-4 50-4 50-5 50-4 51-5 51-5 51-5 52-6 51-6 52-6 52-7 52-7 52-7 52-8 53-8 52-8 52-10 53-9 52-10 53-11 52-11 52-12 53-12 52-13 52-14 52-14 52-15 51-16 52-16 51-17 51-18zm980-855 323 198-34 54-33 52-33 50-33 48-33 47-33 45-33 43-34 42-33 40-33 38-34 38-34 35-35 35-34 33-35 31-36 31-36 29-36 28-37 27-37 25-37 25-38 24-39 22-39 22-39 21-40 20-41 19-41 18-42 18-42 18-43 17-43 16-133-354 39-15 38-15 37-15 36-16 35-16 34-16 33-16 32-17 31-18 31-18 30-18 30-20 29-20 29-21 28-22 28-23 28-24 28-25 28-26 28-28 28-29 28-31 28-32 28-34 28-36 29-37 29-40 29-41 30-43 30-46 30-47zm2101-3559 325 194-19 33-23 38-25 43-27 48-31 53-33 58-36 63-39 68-41 72-45 78-47 83-51 88-53 92-57 98-59 103-63 108-66 113-68 119-73 123-75 129-79 133-82 139-85 144-89 150-92 155-96 160-99 165-103 171-106 176-110 181-114 187-117 192-323-198 117-191 113-187 110-181 106-175 103-170 98-165 96-160 92-154 88-149 85-143 82-139 79-133 75-128 72-123 68-118 66-113 62-107 59-103 57-98 53-92 50-88 48-82 44-78 42-72 39-68 36-63 33-58 31-54 28-48 25-44 23-40zm1457-1380-64-373 149 335-41 34-42 36-43 39-42 41-43 43-43 45-43 47-43 48-42 50-43 51-42 53-42 53-42 55-41 55-41 56-40 56-40 56-39 57-39 57-38 57-37 56-37 57-35 55-35 55-34 54-33 54-32 52-31 51-30 50-29 48-28 46-27 45-325-194 27-45 28-47 30-49 30-51 32-52 33-53 34-55 35-56 36-56 36-58 38-58 39-58 39-59 40-60 41-59 42-59 42-59 44-59 43-59 45-58 45-57 45-57 46-55 47-54 47-54 48-52 48-50 48-49 49-47 50-46 50-43 51-41zm-64-373 737-128-588 463z"/><path fill="#006647" d="M95202 51076c377 714 686 1592 806 2051 97 366 205 691-84 1366-494 1156-2161 3997-2947 4980-203-692-315-1227-329-1730-10-358 168-901 584-1521 416-621 1192-1874 1519-2801 290-825 461-1530 451-2345"/><path fill="#BF940D" fill-rule="nonzero" d="m96191 53079-366 96-11-43-13-45-13-47-15-50-15-51-17-54-18-55-18-58-20-59-20-60-22-62-22-63-23-64-24-66-24-66-25-67-27-68-26-69-28-69-28-70-29-69-29-70-30-70-31-70-31-70-32-70-32-69-33-69-33-68-33-67-34-67-34-66 335-176 36 69 35 70 35 70 35 71 34 72 33 72 33 72 32 73 32 72 31 73 31 72 29 72 29 72 29 71 27 71 27 70 26 69 26 69 24 67 24 66 23 66 22 64 21 62 20 61 20 60 18 58 18 56 16 54 15 52 15 51 13 48zm-92 1488-349-148 25-59 22-57 20-54 18-53 16-50 14-49 12-46 11-45 9-44 7-41 6-41 5-39 3-37 2-37 1-36v-34l-1-34-1-33-3-33-4-32-4-32-5-32-6-31-6-32-7-32-7-32-8-32-8-32-9-33-9-34-9-34-9-34 366-97 9 34 9 34 10 35 9 35 9 35 8 36 9 37 8 37 7 39 7 39 7 39 5 41 5 42 3 42 3 44 1 44v46l-1 47-3 47-5 49-5 50-8 51-9 53-11 53-13 55-15 56-17 58-18 59-21 61-23 62-25 64zm-3304 4959 363-107-329-65 74-94 79-105 84-115 88-125 92-133 95-140 99-148 101-155 103-160 105-165 107-170 108-173 108-177 108-179 109-181 108-183 107-182 106-183 105-181 102-181 100-178 97-175 95-172 90-168 87-163 82-158 78-151 73-145 67-137 61-129 55-119 48-110 348 148-51 117-57 125-63 133-69 141-75 147-79 155-83 160-88 165-92 170-95 173-98 178-101 179-104 182-105 184-107 184-108 184-109 184-109 182-110 181-109 178-109 176-108 171-106 167-105 163-102 156-100 151-98 143-94 136-91 129-87 119-83 110-78 101zm330 65-227 284-103-349zm-666-1842 378-11 2 45 2 45 3 45 3 46 3 46 5 47 5 47 5 47 6 48 6 48 7 48 8 49 8 50 8 50 10 51 9 51 11 52 11 52 11 54 12 54 12 54 13 55 14 56 14 57 15 58 15 58 16 59 16 60 17 61 18 62 18 63 18 63-363 107-19-65-18-64-18-64-18-62-16-62-17-61-16-60-15-60-15-59-14-58-13-58-13-57-13-57-12-56-11-55-11-55-11-54-9-54-10-53-8-53-8-53-8-52-7-52-6-52-6-51-5-51-5-50-4-50-3-51-3-49-2-50zm616-1633 315 211-37 56-36 56-34 54-33 55-32 53-30 53-29 53-27 52-26 51-25 50-24 50-22 49-21 48-20 47-19 47-17 46-16 45-15 43-14 43-12 42-12 41-10 40-9 39-8 38-7 37-5 36-5 34-3 33-3 32-2 31v57l-378 11-1-41 1-41 2-42 4-42 4-43 6-44 7-45 9-46 9-46 11-47 12-48 14-48 14-49 16-50 17-50 19-52 19-51 21-53 23-53 23-54 25-54 26-55 27-55 29-57 30-56 32-57 33-58 34-58 35-59 37-59 38-60zm1497-2758 357 126-33 91-35 93-38 93-40 96-42 96-44 96-46 98-47 98-48 98-50 99-51 99-51 98-53 99-53 98-54 97-54 96-55 96-54 94-55 93-54 92-54 90-53 88-53 87-52 84-51 81-50 80-49 76-48 74-45 71-45 67-42 64-41 61-314-211 40-59 41-63 43-66 45-69 47-73 48-75 49-78 50-80 51-83 52-85 53-86 53-89 53-90 54-91 53-92 53-94 53-94 53-95 52-96 51-96 51-96 49-96 48-95 47-95 45-95 44-94 42-92 40-92 38-90 35-88 33-87zm798-2371-335 177 357-91v79l-1 78-1 78-3 77-4 77-5 76-6 75-7 76-8 75-9 75-10 74-10 74-12 74-13 74-14 74-14 74-16 73-16 74-17 74-19 73-18 74-20 74-21 75-21 74-22 75-23 75-24 75-24 76-25 77-26 76-27 78-27 78-357-126 27-76 25-75 26-75 24-74 23-73 23-73 22-72 21-72 21-71 19-71 19-70 18-71 17-70 17-69 15-70 15-69 13-69 13-70 12-69 11-69 10-69 10-70 8-70 7-70 7-70 5-70 5-71 4-71 2-72 2-73v-146zm-357 91-10-785 367 694z"/><path fill="#006647" d="M95444 60954c-534-94-1587-197-2097-203-446-6-1024 85-1446 569-405 466-2687 2618-4429 3654 514 140 1103 280 1711 273 476-6 812-101 1327-515 1898-1524 2880-2391 3183-2640 423-348 1157-940 1751-1138"/><path fill="#BF940D" fill-rule="nonzero" d="m93345 60940 5-379 51 1 54 2 56 2 59 2 62 3 63 4 65 4 67 4 69 5 70 5 71 5 72 6 74 6 73 7 74 7 75 7 74 7 74 8 75 8 73 8 73 8 72 8 71 9 69 9 68 8 67 9 65 9 63 9 60 9 58 9 56 9 53 9-65 373-50-8-53-9-56-9-58-8-61-9-63-9-64-8-67-9-68-8-70-9-70-8-72-8-72-8-73-8-73-7-73-7-73-7-73-7-72-6-72-6-71-6-70-6-68-5-67-4-65-5-64-3-61-4-59-3-56-2-54-2-51-1zm-1301 504-285-248 44-50 46-47 47-44 47-42 49-40 49-38 49-36 51-33 51-31 51-29 52-27 52-25 52-23 52-22 53-19 52-18 53-17 52-14 52-14 52-12 52-10 51-9 51-8 50-7 50-6 49-4 49-4 48-3 47-2 47-1h91l-5 379h-80l-40 1-41 2-42 2-42 3-42 4-42 5-43 6-43 6-43 8-42 9-43 9-43 11-43 12-42 13-43 15-42 16-41 17-42 18-41 20-41 21-40 23-40 25-39 26-39 27-39 30-38 31-37 33-36 35-36 37zm-4523 3347-99 366-47-346 162-98 164-105 168-110 169-115 171-120 172-124 173-127 173-131 173-133 172-135 171-137 169-137 168-138 164-138 162-137 158-136 155-134 150-133 145-129 140-127 134-122 129-119 121-113 115-108 107-103 99-96 91-89 82-82 72-74 63-65 51-55 41-45 285 248-46 52-57 61-65 68-75 77-85 84-92 91-101 98-109 104-117 110-123 115-130 120-136 124-141 128-147 131-152 133-156 136-160 138-164 139-167 139-169 140-172 139-173 139-175 137-175 135-176 133-177 130-176 127-175 122-174 119-172 113-171 109-168 102zm-99 366-431-117 384-229zm1759-100 4 379h-119l-59-2-60-2-58-3-59-4-59-4-58-6-58-6-57-6-58-7-57-8-56-8-57-9-56-9-55-10-56-10-55-11-54-11-55-11-53-12-54-12-53-12-53-12-52-13-52-13-51-12-51-14-50-13-50-13-49-13-49-13 99-366 48 13 48 13 49 13 49 13 49 13 50 12 50 12 50 13 51 12 51 11 51 12 51 11 51 10 52 11 52 10 52 9 53 10 52 8 53 8 53 8 53 7 54 7 53 6 53 6 54 4 54 5 54 3 53 3 54 2 54 1 55 1zm1211-472 237 295-50 39-49 38-48 36-48 34-46 33-47 31-45 30-46 27-45 27-44 25-45 23-44 23-44 20-44 20-43 18-44 16-44 16-43 14-44 12-43 12-44 10-44 10-44 8-44 7-44 6-44 6-45 4-45 4-45 3-46 2-46 1-47 1-4-379h41l41-2 40-1 39-3 38-3 38-4 36-4 36-5 36-6 35-6 35-8 34-8 34-9 34-10 35-11 34-12 34-13 35-15 35-15 36-17 36-18 36-19 38-21 38-23 39-24 39-25 41-27 41-29 43-31 43-33 45-34zm3181-2639 240 293-29 24-34 28-38 32-43 36-46 40-51 43-55 47-59 50-64 55-68 58-73 62-77 65-82 70-86 73-91 76-95 81-101 84-104 88-110 92-114 95-120 99-124 103-129 107-134 111-139 114-144 118-150 122-154 126-160 130-165 133-170 138-175 141-237-295 175-141 169-137 165-133 159-129 154-126 149-122 144-117 138-114 134-111 129-106 123-103 119-99 114-95 110-91 104-88 100-84 95-80 90-76 86-73 82-69 77-66 72-61 68-58 64-55 59-50 56-47 51-44 47-40 42-36 39-33 35-29zm1838-806 66-373 27 366-51 18-52 20-52 22-54 24-55 26-56 28-56 29-57 32-57 32-57 34-58 35-57 36-58 37-57 38-58 39-57 39-56 40-56 40-56 41-55 40-54 41-53 40-53 41-51 40-50 39-50 39-47 38-47 38-45 36-44 36-42 34-40 34-241-293 41-33 43-35 44-36 46-38 48-38 49-39 50-40 52-41 53-41 54-41 55-42 56-42 57-43 58-42 59-42 59-41 60-42 60-41 61-40 62-39 61-39 62-38 62-36 63-36 62-34 62-33 63-31 62-30 62-27 62-26 62-24 62-22zm66-373 736 129-709 237z"/><path fill="#006647" d="M91968 57300c113 800 186 1759 145 2231-33 378-42 721-541 1258-856 920-3386 3030-4459 3689 43-719 120-1261 276-1739 112-340 463-790 1064-1234 602-443 1756-1360 2377-2122 552-678 872-1313 1138-2083"/><path fill="#BF940D" fill-rule="nonzero" d="m92301 59548-377-33 4-42 2-46 2-48 2-51 1-53v-115l-1-61-1-63-2-64-2-67-3-68-3-69-4-71-5-72-4-74-6-74-5-75-7-76-6-76-7-77-7-78-8-78-8-77-9-78-8-78-9-78-10-77-9-76-10-77-10-75-10-74 374-53 11 76 10 77 10 78 10 78 10 79 9 79 9 79 8 80 9 79 7 80 8 79 7 78 7 79 6 77 6 77 5 77 5 75 5 74 4 73 3 72 3 71 3 69 2 67 1 66 1 64v62l-1 60-1 58-1 56-3 54-3 52zm-591 1370-277-258 43-47 40-46 37-44 35-44 32-42 30-41 27-39 25-39 23-38 21-37 20-36 17-35 16-34 14-34 13-33 12-32 11-33 9-31 9-32 7-32 7-31 6-32 5-31 5-32 4-32 4-33 4-33 3-33 3-34 3-35 3-35 3-35 377 33-3 35-3 35-3 36-3 35-4 37-4 37-4 37-5 38-6 38-6 40-8 39-9 40-9 41-11 41-13 42-14 43-15 42-17 44-19 44-21 44-22 45-25 46-26 46-28 47-31 47-33 48-35 48-38 50-40 50-42 51-46 51zm-4786 3549 378 22-288-172 102-64 110-72 118-80 125-88 131-94 138-100 142-106 148-111 151-116 155-120 158-123 160-127 161-130 163-132 164-133 163-135 163-136 161-136 160-135 157-135 155-134 150-132 147-130 142-128 137-124 131-120 124-116 117-112 110-106 101-101 93-94 82-87 277 258-87 92-96 98-105 104-112 109-120 114-127 118-133 123-138 126-144 128-148 132-153 133-156 135-158 136-161 137-163 137-164 137-165 136-165 135-164 133-163 131-162 128-159 125-157 121-153 118-150 112-145 108-140 102-135 97-129 89-122 83-115 76-108 68zm289 172-310 190 21-362zm-4-1959 360 118-14 43-13 43-13 44-12 44-13 45-11 45-12 46-11 46-10 47-10 47-10 48-10 49-9 49-9 51-8 50-8 52-8 52-8 53-7 54-7 55-7 56-6 56-6 57-6 59-6 59-5 60-5 61-5 62-5 63-4 64-5 65-4 66-378-22 5-68 4-67 5-65 4-65 5-64 6-63 5-62 6-61 6-61 7-59 6-59 7-59 8-57 7-57 8-56 9-55 8-54 9-55 10-53 9-53 11-52 10-52 11-51 12-50 11-50 13-50 13-49 13-49 13-48 15-48 14-48zm1132-1327 225 305-54 40-52 40-51 40-49 40-48 40-46 39-45 40-44 39-42 40-40 39-39 38-38 39-36 38-35 38-33 38-32 37-30 36-29 37-27 36-26 35-25 35-23 34-22 33-20 33-19 33-17 31-16 31-15 30-13 29-12 28-10 28-9 26-360-118 13-38 15-38 16-39 18-39 19-39 20-39 22-40 23-40 25-40 26-41 28-41 29-41 30-41 32-41 33-42 35-42 36-42 37-42 39-43 40-42 42-43 43-43 45-43 46-43 47-43 49-43 51-43 51-44 54-43 54-43 57-43zm2342-2090 294 239-62 75-65 75-68 76-69 76-72 76-74 76-76 77-78 76-78 76-81 76-81 76-82 75-83 75-83 74-83 73-84 73-84 71-83 71-83 69-82 68-81 66-80 65-79 63-77 62-76 60-74 57-72 56-69 53-67 51-65 49-61 46-59 43-225-304 58-43 60-45 63-47 66-51 68-52 71-55 72-56 75-59 76-60 77-62 79-64 80-66 80-66 82-68 81-69 82-70 82-71 81-72 82-72 80-73 80-73 79-73 78-74 76-74 75-73 72-74 71-73 69-72 66-72 63-71 61-71zm1472-1989-374 52 366 36-26 73-26 72-26 72-27 71-27 71-28 70-28 69-29 69-30 69-30 68-31 67-32 68-32 66-33 67-34 66-35 66-36 65-36 66-38 65-38 65-40 64-40 65-42 65-43 64-43 65-45 64-46 65-48 64-48 65-50 64-51 65-53 65-293-239 50-62 48-61 47-61 46-61 45-61 43-61 43-61 41-61 40-60 39-61 38-61 37-60 36-61 35-62 35-61 33-61 33-62 32-62 31-63 31-63 30-63 29-64 28-64 28-65 28-66 27-66 26-66 26-68 26-68 25-69 25-69 25-71zm-366-36 257-742 109 778z"/><path fill="#006647" d="M88873 66628c-464-280-1409-757-1882-947-414-167-985-291-1553 8-547 287-3452 1469-5452 1805 429 316 927 660 1497 873 446 167 794 200 1424 0 2320-735 3550-1188 3922-1310 520-172 1418-459 2044-429"/><path fill="#BF940D" fill-rule="nonzero" d="m86921 65856 141-351 48 19 49 21 52 23 55 23 56 25 57 26 60 28 61 28 62 29 63 30 65 31 65 32 66 32 66 33 67 33 67 34 66 33 67 34 66 34 66 34 65 34 64 34 63 34 62 33 60 33 59 32 57 32 55 31 54 30 51 30 48 28 47 28-196 324-44-26-46-27-49-28-51-30-54-30-55-30-57-32-59-32-61-32-62-33-62-34-64-33-65-33-65-34-65-33-66-33-65-33-66-33-65-32-65-32-64-31-63-30-62-29-60-29-60-28-58-26-55-25-54-24-52-23-50-21-46-20zm-1395 0-177-335 60-30 59-27 60-25 60-22 59-20 60-17 59-15 59-13 59-10 58-9 58-6 58-5 57-3 56-1 56 1 56 2 54 4 54 5 54 6 52 8 52 9 51 10 51 11 49 12 49 13 47 13 47 14 46 15 45 16 44 15 42 17 42 16-141 351-37-14-37-14-39-14-39-14-39-12-40-13-41-11-41-11-42-10-42-9-43-9-43-7-44-6-43-6-45-4-44-3-45-2h-45l-45 1-45 2-46 3-45 6-46 6-46 9-46 10-47 11-46 14-47 15-46 18-47 19-47 22zm-5427 1486-225 304 81-339 186-33 192-38 195-42 200-46 203-50 205-54 208-56 208-59 209-62 210-63 208-66 208-67 206-68 203-69 200-69 197-70 193-69 187-69 183-69 176-67 169-66 163-64 154-62 146-59 137-57 128-54 116-50 106-47 94-42 82-38 68-33 54-28 177 335-63 32-74 36-86 40-98 44-108 48-120 52-129 54-140 58-148 60-156 63-165 65-171 67-179 67-184 69-190 70-195 71-199 70-202 70-206 70-209 69-210 68-212 66-212 65-213 62-212 61-211 57-210 55-208 51-205 47-202 44-198 39-193 35zm-225 304-359-265 440-74zm1676 544-133 354-56-21-55-22-55-23-54-23-54-25-53-24-53-26-53-26-52-26-51-27-51-27-50-28-50-28-49-29-49-29-49-29-48-30-47-29-47-30-46-30-46-31-46-30-45-31-45-30-44-31-43-31-44-30-42-31-42-30-42-31-41-30-41-30 224-304 40 29 41 30 41 29 41 30 41 29 42 30 42 30 42 29 43 29 43 30 44 29 44 29 44 28 44 29 45 28 45 28 46 27 46 27 46 27 47 26 47 26 47 26 47 25 48 24 49 24 48 23 49 23 49 22 50 22 50 20 50 20zm1300-3 114 361-61 18-59 18-58 16-57 15-55 13-54 13-54 11-52 9-52 9-50 7-50 6-49 4-49 4-48 2-47 1h-47l-46-2-45-2-46-4-45-5-44-6-44-7-44-9-44-9-43-10-44-11-43-12-43-13-43-14-44-14-43-16-44-16 132-354 40 14 38 14 38 12 37 12 37 11 36 10 36 9 35 9 36 7 35 7 35 5 35 5 35 4 35 3 36 2 37 1h74l38-2 40-3 40-4 41-5 42-6 44-7 45-8 46-9 47-11 50-12 50-13 53-15 54-16zm3919-1310 119 359-37 12-41 15-47 16-53 18-57 20-63 22-69 24-73 25-80 28-84 30-90 31-96 33-101 35-107 37-112 39-118 40-124 43-130 44-135 46-141 47-148 50-153 51-159 53-165 54-171 57-177 58-183 60-190 61-195 63-202 65-208 67-215 68-114-361 214-68 207-66 202-65 195-63 189-61 183-60 176-58 171-56 164-55 159-52 152-51 147-49 141-48 134-46 130-44 123-42 118-40 112-39 106-36 101-35 95-34 90-31 85-29 79-28 73-26 69-24 63-22 58-20 53-18 49-17 43-14zm2006-87 196-324-107 351-54-2h-55l-58 2-59 3-60 4-62 6-63 7-64 9-65 9-66 11-66 12-67 13-67 14-67 14-68 16-67 16-67 16-67 18-67 17-65 18-66 19-64 18-63 19-63 18-61 19-60 19-58 18-57 18-55 18-54 17-52 17-49 16-119-359 50-17 53-17 54-17 56-19 59-18 59-19 62-19 63-19 64-19 65-20 67-19 68-19 68-18 69-19 70-18 70-17 71-17 71-16 72-16 71-14 72-14 71-13 71-12 71-10 71-9 70-8 69-7 69-5 68-4 67-1h66l66 2zm196-324 640 387-747-36z"/><path fill="#006647" d="M86953 61965c-184 786-462 1708-672 2133-167 339-299 656-959 976-1131 549-4252 1601-5490 1828 299-655 567-1133 885-1521 227-277 718-570 1439-766s2129-634 2983-1120c760-432 1287-908 1814-1530"/><path fill="#BF940D" fill-rule="nonzero" d="m86451 64181-339-167 18-38 19-41 19-44 20-47 20-50 21-52 21-55 21-57 22-59 21-61 22-62 22-65 22-66 22-68 22-68 22-70 22-72 22-72 22-73 21-74 22-74 21-75 21-75 20-75 21-76 20-76 19-75 20-76 18-74 19-75 18-74 17-73 368 86-17 75-18 76-19 76-19 76-20 77-20 77-20 77-21 78-21 77-22 77-21 76-22 76-22 75-22 75-23 74-22 73-23 72-23 71-22 69-23 69-23 66-22 66-23 63-23 62-22 60-22 58-22 56-22 54-22 51-22 50-21 47zm-1046 1064-165-341 57-28 53-28 51-28 48-28 45-28 43-27 40-27 37-28 35-26 33-27 31-27 29-26 28-26 25-26 24-27 23-26 21-26 21-26 19-27 18-26 18-27 17-28 17-27 16-28 15-29 16-28 15-30 15-30 15-30 15-31 16-32 16-32 339 167-15 32-16 31-15 32-17 33-16 32-17 33-18 34-18 33-19 34-21 34-21 34-23 34-24 35-25 34-26 35-29 34-30 35-31 34-34 34-35 34-37 34-39 34-42 33-43 33-46 33-48 33-50 33-53 32-56 32-58 32-60 32zm-5745 1578 344 158-206-265 117-23 129-28 139-32 148-36 156-40 165-44 171-47 178-50 183-53 187-56 192-58 195-61 198-62 199-64 201-66 201-67 201-67 200-69 198-68 195-69 192-69 189-69 184-68 178-67 172-67 166-64 158-64 150-61 140-60 131-57 120-54 109-52 165 341-115 54-125 57-135 59-145 61-153 63-161 64-168 66-174 67-181 69-186 68-190 70-194 69-197 70-200 69-201 69-203 68-203 68-202 66-201 64-200 63-197 61-193 59-190 57-186 54-180 51-174 48-168 44-160 41-153 38-144 33-135 29-125 24zm206 265-358 66 152-331zm705-1827 293 239-28 35-29 36-27 36-28 37-27 37-28 38-27 38-27 40-26 39-27 41-27 41-26 42-27 43-26 44-26 44-27 45-26 46-26 47-26 47-27 49-26 49-26 51-27 51-26 52-27 53-27 54-27 55-27 56-27 57-27 58-28 60-27 60-344-158 28-61 28-61 28-60 28-58 28-58 28-57 27-56 28-55 27-54 28-53 27-53 28-51 27-51 28-50 28-50 28-48 27-48 28-47 28-46 29-46 28-45 29-44 28-44 29-43 29-43 30-42 29-41 30-40 31-40 30-40 31-39zm1535-829 100 365-65 18-63 19-62 19-60 19-59 20-58 21-56 20-55 21-53 22-52 21-51 22-48 23-48 22-46 23-45 23-43 23-41 23-40 24-39 23-37 24-35 23-34 24-32 24-31 23-29 23-28 23-26 23-25 23-22 22-22 23-19 21-18 22-293-240 26-31 28-31 29-30 30-30 32-29 33-30 35-29 36-29 38-28 39-29 40-28 42-28 43-27 45-27 46-27 47-27 49-26 50-26 52-25 53-25 54-25 56-25 57-24 59-23 59-23 62-23 62-22 64-21 65-21 67-21 68-20zm2939-1101 187 329-84 47-88 47-90 46-93 45-94 45-97 45-98 44-100 43-101 42-102 42-103 42-104 40-104 40-105 39-104 38-104 37-104 37-103 35-102 35-101 33-100 33-98 32-97 30-94 30-92 28-90 27-87 26-84 24-81 24-78 22-74 20-70 20-100-366 69-19 73-20 76-21 79-23 83-24 86-26 88-26 90-28 93-29 95-30 96-31 98-32 99-33 101-34 101-35 101-36 102-36 102-37 102-38 102-39 101-40 100-40 99-40 97-41 97-42 94-42 92-43 90-42 88-44 85-43 82-44zm2092-1323-368-86 329 165-51 59-50 58-51 58-51 56-51 56-51 56-51 54-52 54-53 53-52 52-54 52-53 51-55 51-55 50-55 49-57 49-57 48-57 48-59 47-59 47-60 46-62 46-62 45-63 45-64 44-65 44-66 43-68 43-68 43-70 42-71 42-73 42-187-329 69-40 67-40 66-40 65-40 64-41 62-41 62-41 60-42 59-42 59-42 57-43 57-43 56-44 54-44 55-45 53-45 53-46 52-47 52-47 51-47 51-49 50-48 50-50 50-50 49-51 49-52 49-53 49-53 48-55 49-55 48-56 49-56zm-328-165 507-600-179 765z"/><path fill="#006647" d="M53341 53338c534 93 1560 352 2042 518 422 146 935 427 1168 1025 224 576 1643 3373 2933 4937-531-42-1133-109-1703-322-446-167-730-369-1075-933-1270-2076-1901-3224-2102-3561-280-470-771-1276-1263-1664"/><path fill="#BF940D" fill-rule="nonzero" d="m55321 54035-45-15-48-16-51-16-54-17-56-17-59-18-61-18-63-18-65-18-66-18-67-19-69-18-69-19-71-18-70-19-72-18-71-18-71-17-71-18-71-17-70-16-69-17-68-15-67-15-66-15-64-14-62-13-60-12-58-12-55-10-53-10-50-9 65-373 53 9 55 11 58 11 60 12 63 13 63 13 66 14 67 15 69 16 69 16 71 16 71 17 72 17 72 18 73 18 72 18 73 19 72 18 71 19 71 19 70 19 69 19 68 18 66 19 64 19 63 18 61 18 59 18 56 18 54 17 51 17 49 16zm1054 915-20-49-22-47-22-45-24-44-25-42-26-41-28-39-28-38-29-36-30-35-32-34-32-33-32-31-34-30-34-29-35-28-36-27-36-26-36-25-37-23-38-23-37-22-38-20-39-20-38-19-38-18-39-17-38-17-38-15-38-15-37-14-38-13 124-358 42 15 43 16 44 17 44 18 44 19 44 20 45 21 45 22 45 23 46 25 45 26 45 27 45 29 44 30 44 32 44 33 43 34 43 37 42 37 41 40 41 41 39 43 39 45 37 46 36 49 35 50 34 52 32 54 30 56 29 57 27 60 26 62zm3124 4680-161 309-124-153-124-160-123-165-124-170-123-175-123-179-122-182-121-184-119-187-118-188-117-189-114-189-112-189-110-188-107-186-104-183-101-181-98-177-94-173-90-168-86-163-81-157-77-150-73-143-67-134-62-127-56-117-51-107-45-98-39-87-32-75-26-65 353-137 22 56 30 69 37 83 43 94 50 104 55 115 61 124 66 132 71 141 76 148 81 155 85 161 89 166 93 171 96 175 100 179 103 182 106 183 108 186 111 186 112 187 115 186 116 185 118 184 119 181 119 179 120 175 121 170 120 166 120 161 120 154 119 147-161 309zm131 68 284 345-445-36zm-1783-379 51 18 51 18 52 17 51 16 52 16 52 15 51 14 53 14 52 13 52 12 52 12 53 11 52 11 53 10 52 9 53 10 52 8 52 8 52 8 53 7 52 7 52 7 51 6 52 6 51 6 51 5 51 5 51 5 50 4 51 5 50 4 49 4-30 377-51-4-50-4-52-5-52-4-52-5-53-6-53-5-53-6-54-6-54-6-54-7-55-8-55-7-55-8-55-9-56-9-55-10-56-10-56-11-56-11-57-12-56-13-56-13-57-14-56-15-57-16-56-16-57-17-56-18-57-19-56-19-56-21zm-979-855 30 50 31 47 30 46 29 43 30 41 29 40 28 37 29 36 28 34 28 32 28 31 28 29 27 28 28 26 28 25 28 24 28 23 29 22 28 21 30 20 29 20 30 18 31 18 32 18 32 17 33 16 34 16 35 16 35 16 37 15 38 15 39 15-132 354-44-16-43-17-42-18-41-18-42-18-40-19-40-20-40-21-39-22-38-22-38-24-38-25-37-25-37-27-36-28-36-29-35-31-35-31-35-33-34-35-34-35-34-38-34-38-33-40-33-42-33-43-33-45-33-47-33-48-34-50-33-52-33-54zm-2101-3559 20 35 23 40 26 44 28 48 31 54 33 58 36 63 39 68 41 72 45 78 47 82 50 88 54 92 56 98 59 103 63 107 65 113 69 118 72 123 75 128 78 133 82 139 85 143 89 149 92 154 95 160 99 165 102 170 106 175 110 181 113 187 118 191-323 198-118-192-113-187-110-181-107-176-103-171-99-165-95-160-93-155-88-150-86-144-82-139-79-133-75-129-72-123-69-119-66-113-62-108-60-103-56-98-54-92-50-88-48-83-44-78-42-72-39-68-36-63-33-58-30-53-28-48-25-43-22-38-20-33zm-1458-1380 150-335 50 41 50 43 50 46 49 47 49 49 48 50 48 52 47 54 46 54 46 55 46 57 45 57 44 58 44 59 43 59 42 59 42 59 41 59 40 60 40 59 38 58 38 58 37 58 36 56 35 56 34 55 33 53 31 52 31 51 29 49 29 47 27 45-325 194-27-45-28-46-29-48-30-50-31-51-32-52-33-54-34-54-35-55-36-55-36-57-38-56-38-57-38-57-39-57-40-56-41-56-40-56-42-55-41-55-42-53-43-53-42-51-43-50-43-48-43-47-42-45-43-43-43-41-42-39-42-36-42-34 150-335zm-85-38-587-463 737 128z"/><path fill="#006647" d="M57763 51076c-377 714-685 1592-806 2051-96 366-204 691 84 1366 494 1156 2161 3997 2948 4980 203-692 314-1227 328-1730 11-358-168-901-584-1521-416-621-1192-1874-1518-2801-291-825-462-1530-452-2345"/><path fill="#BF940D" fill-rule="nonzero" d="m56774 53079 12-46 14-48 14-51 16-52 16-54 17-56 19-58 19-60 20-61 21-62 22-64 23-66 24-66 25-67 25-69 26-69 27-70 28-71 28-71 29-72 30-72 30-72 31-73 32-72 32-73 33-72 34-72 34-72 34-71 35-70 36-70 36-69 335 176-35 66-33 67-34 67-33 68-33 69-32 69-31 70-32 70-30 70-30 70-30 70-28 69-29 70-27 69-27 69-26 68-25 67-25 66-24 66-23 64-22 63-21 62-21 60-19 59-19 58-17 55-17 54-16 51-14 50-14 47-12 45-12 43zm93 1488-27-65-25-64-23-62-21-61-19-59-17-58-14-56-13-55-11-53-10-53-7-51-6-50-4-49-3-47-2-47v-46l2-44 2-44 4-42 4-42 6-41 6-39 7-39 8-39 8-37 8-37 9-36 9-35 9-35 9-35 9-34 9-34 366 97-9 34-9 34-9 34-8 33-9 32-7 32-8 32-7 32-6 32-6 31-5 32-4 32-3 32-3 33-2 33-1 34v34l1 36 2 37 4 37 4 39 6 41 8 41 8 44 11 45 12 46 14 49 16 50 18 53 20 54 23 57 24 59zm3303 4959-329 65-79-101-83-110-87-119-90-129-95-136-97-143-100-151-103-156-104-163-107-167-108-172-108-175-110-178-109-181-110-182-109-184-108-184-107-184-105-184-103-182-101-179-98-178-96-173-91-170-88-165-84-160-79-155-74-147-69-141-63-133-58-125-51-117 348-148 48 110 55 119 62 129 67 137 73 145 77 151 83 158 86 163 91 168 94 172 97 175 100 178 103 181 104 181 106 183 107 182 108 183 109 181 109 179 108 177 108 173 106 170 105 165 104 160 101 155 98 148 96 140 92 133 88 125 84 115 79 105 74 94-330 65zm0 0-102 349-227-284zm337-1777-2 49-2 50-3 49-4 51-4 50-4 50-6 51-5 51-7 52-7 52-7 52-8 53-9 53-9 53-10 54-10 54-11 55-12 55-12 56-12 57-13 57-14 58-14 58-15 59-15 60-16 60-16 61-17 62-17 62-18 64-19 64-19 65-363-107 19-63 18-63 17-62 17-61 16-60 16-59 16-58 14-58 14-57 14-56 13-55 13-54 12-54 11-54 11-52 10-52 10-51 9-51 9-50 8-50 7-49 7-48 7-48 6-48 5-47 5-47 4-47 4-46 3-46 3-45 2-45 1-45zm-617-1633 40 60 38 60 37 59 36 59 34 58 33 58 31 57 30 56 29 57 27 55 27 55 24 54 24 54 22 53 21 53 20 51 18 52 17 50 16 50 15 49 13 48 12 48 11 47 10 46 8 46 7 45 6 44 5 43 3 42 2 42 1 41v41l-379-11 1-28-1-29-2-31-2-32-4-33-4-34-6-36-7-37-8-38-9-39-10-40-11-41-13-42-13-43-15-43-16-45-18-46-18-47-20-47-21-48-23-49-23-50-25-50-26-51-28-52-29-53-30-53-31-53-33-55-35-54-35-56-37-56zm-1497-2758 31 84 33 87 36 88 38 90 40 92 41 92 44 94 46 95 46 95 49 95 49 96 50 96 52 96 52 96 52 95 53 94 53 94 54 92 53 91 54 90 53 89 52 86 52 85 51 83 50 80 49 78 48 75 47 73 45 69 43 66 42 63 40 59-315 211-40-61-43-64-44-67-46-71-47-74-49-76-50-80-51-81-52-84-53-87-54-88-54-90-54-92-54-93-55-94-54-96-55-96-53-97-54-98-52-99-52-98-51-99-50-99-48-98-47-98-46-98-43-96-42-97-40-95-38-93-36-93-33-91zm-797-2371 356 91v74l1 72 1 73 3 72 3 71 5 71 6 70 6 70 7 70 9 70 9 70 10 69 11 69 12 69 13 70 14 69 14 69 16 70 16 69 17 70 18 71 19 70 20 71 20 71 21 72 22 72 23 73 24 73 24 74 25 75 26 75 26 76-357 126-27-78-26-78-26-76-25-77-25-76-23-75-23-75-22-75-22-74-20-75-20-74-19-74-18-73-17-74-17-74-15-73-15-74-13-74-13-74-12-74-11-74-10-75-9-74-8-75-7-76-6-75-5-77-3-76-3-77-2-78-1-78 1-79 357 91zm0 0 366-694-10 785z"/><path fill="#006647" d="M57522 60954c533-94 1587-197 2096-203 447-6 1024 85 1446 569 406 466 2687 2618 4430 3654-514 140-1103 280-1712 273-476-6-812-101-1327-515-1897-1524-2880-2391-3182-2640-423-348-1157-940-1751-1138"/><path fill="#BF940D" fill-rule="nonzero" d="m59621 60940-48 1-51 1-53 2-57 2-59 3-61 4-63 3-66 5-67 4-68 5-70 6-71 6-71 6-73 6-73 7-73 7-73 7-73 7-73 8-72 8-71 8-71 8-69 9-68 8-67 9-65 8-63 9-61 9-58 8-56 9-53 9-50 8-65-373 53-9 56-9 58-9 61-9 63-9 64-9 67-9 68-8 70-9 71-9 72-8 72-8 74-8 74-8 74-8 75-7 74-7 74-7 74-7 73-6 72-6 71-5 70-5 69-5 67-4 65-4 64-4 61-3 59-2 57-2 54-2 51-1zm1300 504-35-39-36-37-37-35-37-33-38-31-38-30-39-27-40-26-39-25-41-23-41-21-41-20-41-18-42-17-42-16-42-15-43-13-43-12-42-11-43-9-43-9-43-8-43-6-42-6-43-5-42-4-42-3-41-2-41-2-41-1h-80l-4-379h90l47 1 47 2 49 3 48 4 50 4 49 6 51 7 51 8 51 9 52 10 51 12 53 14 52 14 52 17 53 18 52 19 52 22 53 23 52 25 51 27 52 29 51 31 50 33 50 36 49 38 48 40 48 42 47 44 45 47 45 50zm4523 3347-47 346-168-103-170-108-173-113-174-119-175-122-176-127-176-130-176-133-176-135-175-137-173-139-172-139-169-140-167-139-163-139-160-138-157-136-151-133-147-131-142-128-136-124-130-120-123-115-116-110-109-104-101-98-93-91-84-84-75-77-66-68-56-61-47-52 286-248 40 45 52 55 62 65 73 74 81 82 91 89 99 96 108 103 114 108 122 113 128 119 134 122 140 127 146 129 150 133 154 134 159 136 161 137 165 138 167 138 169 137 171 137 172 135 173 133 173 131 173 127 172 124 171 120 170 115 167 110 165 105 162 98-47 346zm147 20 383 229-430 117zm-1806 246 54 1 54-1 54-1 54-2 54-3 54-3 53-5 54-4 54-6 53-6 53-7 53-7 53-8 53-8 53-8 52-10 52-9 52-10 52-11 52-10 51-11 51-12 51-11 50-12 50-13 50-12 50-12 49-13 49-13 49-13 48-13 48-13 100 366-49 13-50 13-49 13-51 13-51 14-51 12-52 13-52 13-53 12-53 12-53 12-54 12-54 11-55 11-55 11-55 10-56 10-56 9-56 9-57 8-57 8-57 7-58 6-58 6-58 6-58 4-59 4-59 3-59 2-60 2h-119zm-1211-472 46 36 44 34 44 33 42 31 42 29 40 27 40 25 39 24 38 23 37 21 37 19 36 18 35 17 35 15 35 15 35 13 34 12 34 11 34 10 34 9 35 8 35 8 35 6 35 6 36 5 37 4 37 4 38 3 39 3 40 1 41 2h42l-5 379-47-1-46-1-45-2-46-3-44-4-45-4-45-6-44-6-44-7-44-8-43-10-44-10-44-12-43-12-44-14-44-16-43-16-44-18-44-20-44-20-44-23-44-23-45-25-45-27-45-28-46-29-46-31-47-33-47-34-49-36-49-38-49-39zm-3181-2639 31 26 35 29 39 33 43 36 47 40 51 44 55 47 60 50 63 55 68 58 73 61 77 66 81 69 86 73 91 76 95 80 99 84 105 88 109 91 114 95 119 99 124 103 129 106 133 111 139 114 144 117 149 122 153 126 160 129 164 133 170 137 175 141-237 295-176-141-170-138-165-133-159-130-155-126-149-122-144-118-139-114-135-111-129-107-124-103-119-99-115-95-109-92-105-88-100-84-96-81-90-76-87-73-81-70-77-65-73-62-68-58-64-54-60-51-55-47-50-43-47-40-42-36-38-32-34-28-30-24zm-1839-806 28-366 61 22 62 24 62 26 62 27 63 30 62 31 62 33 63 34 62 36 62 36 62 38 62 39 61 39 61 40 61 41 59 42 60 41 58 42 58 42 57 43 57 42 55 42 54 41 53 41 51 41 51 40 49 39 47 38 46 38 45 36 42 35 41 33-241 293-40-34-42-34-44-35-45-37-46-38-48-38-49-39-50-39-52-40-52-41-54-40-54-41-55-40-55-41-56-40-57-40-57-39-57-39-58-38-57-37-58-36-58-35-57-34-57-32-57-31-56-30-55-28-55-26-54-24-53-22-52-20-50-18 27-366zm-92-7-710-237 737-129z"/><path fill="#006647" d="M60997 57300c-112 800-186 1759-144 2231 33 378 41 721 541 1258 856 920 3386 3030 4458 3689-43-719-119-1261-276-1739-111-340-463-790-1064-1234-601-443-1756-1360-2376-2122-552-678-872-1313-1139-2083"/><path fill="#BF940D" fill-rule="nonzero" d="m60664 59548-4-49-3-52-2-54-2-56-1-58v-122l1-64 1-66 2-67 2-69 3-71 4-72 4-73 4-74 5-75 6-77 6-77 6-77 6-79 8-78 7-79 8-80 8-79 9-80 9-79 9-79 9-79 10-78 10-78 10-77 11-76 375 53-10 74-11 75-9 77-10 76-9 77-9 78-9 78-8 78-8 77-8 78-7 78-7 77-7 76-6 76-6 75-5 75-5 73-4 72-4 71-4 69-2 68-3 67-2 64-1 63-1 61v115l1 53 2 51 2 49 3 45 3 42zm591 1370-48-53-45-51-43-51-40-50-37-50-36-48-32-48-31-47-29-47-26-46-24-46-23-45-20-44-19-44-17-44-16-42-14-43-12-42-11-41-10-41-9-40-7-40-7-39-6-38-5-38-4-37-4-37-4-37-3-36-3-35-3-35-3-35 377-33 3 35 3 35 3 35 3 34 4 33 3 33 4 33 4 32 5 32 5 31 6 32 7 31 8 32 8 31 10 32 10 33 12 32 13 33 14 34 16 34 18 35 19 36 21 37 23 38 25 39 28 39 29 41 32 42 35 44 37 44 40 46 43 47zm4786 3549-288 172-108-68-115-76-123-83-129-89-134-97-140-102-146-108-149-112-154-118-156-121-160-125-161-128-163-131-165-133-164-135-165-136-164-137-163-137-161-137-159-136-156-135-152-133-148-132-144-128-139-126-133-123-126-118-120-114-113-109-104-104-96-98-88-92 277-258 83 87 92 94 102 101 109 106 117 112 125 116 131 120 136 124 142 128 147 130 151 132 154 134 158 135 159 135 162 136 163 136 163 135 163 133 163 132 162 130 160 127 158 123 154 120 152 116 147 111 143 106 137 100 132 94 125 88 118 80 110 72 101 64-288 172zm0 0 21 362-309-190zm-285-1787 15 47 15 48 14 48 14 48 13 49 13 49 12 50 12 50 11 50 11 51 11 52 10 52 10 53 9 53 9 54 9 55 8 55 8 56 8 57 7 57 7 59 7 58 6 60 6 61 6 61 6 62 5 63 5 64 5 65 5 65 4 67 4 68-378 22-4-66-4-65-5-64-4-63-5-62-5-61-6-60-5-59-6-59-6-57-7-56-7-56-7-55-7-54-7-53-8-52-8-52-9-50-9-51-9-49-9-49-10-48-10-47-11-47-11-46-11-46-12-45-12-45-13-44-12-44-14-43-14-43zm-1132-1327 58 43 56 43 55 43 53 43 52 44 50 43 49 43 48 43 46 43 44 43 43 43 42 43 40 42 39 43 38 42 36 42 34 42 34 42 31 41 31 41 29 41 27 41 26 41 25 40 23 40 22 40 21 39 19 39 17 39 16 39 15 38 13 38-359 118-10-26-10-27-12-29-13-29-15-30-16-31-17-31-19-33-20-33-22-33-23-34-24-35-26-35-28-36-29-37-30-36-32-37-33-38-35-38-36-38-37-39-39-38-41-39-42-40-43-39-45-40-47-39-47-40-50-40-50-40-53-40-53-40zm-2342-2090 58 69 60 71 64 71 66 72 68 72 71 73 73 74 75 73 76 74 77 73 79 74 80 73 81 73 81 72 82 72 82 71 81 70 82 69 81 68 81 66 79 66 79 64 78 62 76 60 74 59 73 56 70 55 68 52 66 51 64 47 60 45 57 43-224 304-59-43-62-46-64-49-67-51-70-53-72-56-74-57-75-60-78-62-79-63-80-65-81-66-82-68-83-69-83-71-83-71-84-73-84-73-83-74-83-75-82-75-81-76-80-76-79-76-77-76-76-77-74-76-72-76-70-76-67-76-65-75-62-75zm-1472-1989 366-36 25 71 25 69 25 69 26 68 26 68 27 66 27 67 27 65 28 65 29 64 29 64 30 63 30 63 31 63 32 62 33 62 34 61 34 62 35 61 36 61 37 60 38 61 40 61 40 61 41 60 42 61 44 61 44 61 46 61 47 61 49 62 49 61-293 239-52-65-51-64-50-65-49-65-47-64-46-65-45-64-44-65-43-64-41-65-41-64-39-65-39-65-37-65-37-66-35-65-35-66-34-66-33-67-33-66-31-67-31-68-31-68-29-68-29-69-29-70-27-70-28-70-27-72-26-71-26-73-25-73 366-35zm0 0 110-778 256 742z"/><path fill="#006647" d="M64093 66628c464-280 1408-757 1881-947 414-167 986-291 1554 8 546 287 3452 1469 5451 1805-429 316-927 660-1497 873-446 167-793 200-1423 0-2321-735-3550-1188-3922-1310-520-172-1419-459-2044-429"/><path fill="#BF940D" fill-rule="nonzero" d="m66045 65856-44 18-47 20-49 21-52 23-54 24-56 25-58 26-59 28-61 29-62 29-63 30-64 31-65 32-65 32-65 33-66 33-65 33-66 33-65 34-64 33-64 33-63 34-62 33-60 32-59 32-57 32-56 30-54 30-51 30-49 28-46 27-43 26-196-324 46-28 49-28 51-30 53-30 55-31 58-32 58-32 61-33 62-33 63-34 64-34 65-34 65-34 66-34 67-34 67-33 67-34 66-33 67-33 65-32 66-32 64-31 63-30 63-29 61-28 59-28 58-26 56-25 54-23 52-23 50-21 47-19zm1395 0-47-23-47-22-47-19-47-18-46-15-47-14-46-11-46-10-46-9-46-6-46-6-45-3-46-2-45-1h-45l-45 2-44 3-44 4-44 6-43 6-43 7-43 9-42 9-42 10-41 11-41 11-40 13-40 12-39 14-38 14-38 14-37 14-141-351 42-16 43-17 44-15 45-16 45-15 47-14 48-13 48-13 50-12 50-11 51-10 52-9 53-8 53-6 54-5 55-4 55-2 56-1 57 1 57 3 58 5 58 6 58 9 59 10 59 13 59 15 59 17 60 20 59 22 60 25 60 27 59 30zm5427 1486 81 339-194-35-198-39-202-44-205-47-207-51-210-55-211-57-213-61-212-62-213-65-212-66-210-68-208-69-206-70-203-70-199-70-195-71-190-70-184-69-178-68-172-66-164-65-157-63-148-60-139-58-130-54-119-52-109-48-98-44-86-40-74-36-62-32 176-335 54 28 68 33 82 38 94 42 106 47 117 50 127 54 137 57 146 59 155 62 162 64 170 66 176 67 182 69 188 69 192 69 197 70 201 69 203 69 206 68 207 67 209 66 209 63 209 62 209 59 207 56 206 54 202 50 200 46 196 42 191 38 187 33 81 339zm144-35 440 74-359 265zm-1595 883 50-20 51-20 50-20 49-22 49-22 49-23 49-23 48-24 48-24 48-25 47-26 47-26 46-26 47-27 45-27 46-27 45-28 45-28 45-29 44-28 44-29 43-29 43-30 43-29 42-29 43-30 41-30 42-29 41-30 41-29 40-30 40-29 225 304-41 30-41 30-42 31-42 30-43 31-43 30-44 31-44 31-45 30-45 31-45 30-46 31-47 30-47 30-47 29-48 30-48 29-49 29-50 29-49 28-51 28-51 27-51 27-52 26-52 26-53 26-53 24-54 25-55 23-55 23-55 22-56 21zm-1300-3 56 17 54 16 52 15 51 13 49 12 48 11 46 9 45 8 43 7 43 6 41 5 40 4 39 3 38 2h75l36-1 36-2 36-3 35-4 35-5 35-5 35-7 35-7 36-9 35-9 36-10 37-11 37-12 38-12 39-14 39-14 132 354-43 16-44 16-43 14-43 14-44 13-43 12-43 11-44 10-43 9-44 9-44 7-45 6-45 5-45 4-46 2-46 2h-47l-47-1-48-2-48-4-49-4-50-6-51-7-51-9-53-9-53-11-54-13-56-13-57-15-58-16-59-18-60-18zm-3920-1310 39 13 43 14 48 17 53 18 58 20 64 22 68 24 74 26 79 28 84 29 90 31 96 34 100 35 107 36 112 39 118 40 123 42 129 44 135 46 141 48 146 49 153 51 158 52 165 55 170 56 177 58 183 60 189 61 195 63 201 65 208 66 214 68-114 361-215-68-208-67-202-65-196-63-189-61-184-60-177-58-171-57-165-54-159-53-153-51-147-50-141-47-136-46-129-44-124-43-118-40-113-39-106-37-102-35-95-33-90-31-85-30-79-28-74-25-68-24-63-22-58-20-52-18-47-16-42-15-36-12zm-2005-87-107-351 65-2h66l68 1 68 4 68 5 70 7 70 8 70 9 71 10 71 12 72 13 71 14 72 14 71 16 71 16 71 17 70 17 70 18 69 19 69 18 67 19 67 19 65 20 65 19 63 19 61 19 60 19 58 18 56 19 55 17 52 17 50 17-118 359-50-16-52-17-53-17-55-18-57-18-59-18-60-19-61-19-62-18-64-19-64-18-65-19-66-18-66-17-67-18-67-16-68-16-67-16-68-14-67-14-66-13-67-12-66-11-64-9-65-9-63-7-61-6-61-4-59-3-57-2h-56l-53 2-107-351zm-89 27-747 36 640-387z"/><path fill="#006647" d="M66012 61965c184 786 463 1708 672 2133 168 339 299 656 959 976 1131 549 4253 1601 5491 1828-300-655-567-1133-886-1521-227-277-717-570-1438-766-722-196-2129-634-2983-1120-760-432-1288-908-1815-1530"/><path fill="#BF940D" fill-rule="nonzero" d="m66514 64181-21-44-22-47-21-50-22-51-22-54-22-56-23-58-22-60-23-62-22-63-23-65-22-67-23-69-23-69-23-71-22-72-23-73-22-74-22-75-22-75-22-76-22-76-21-77-21-77-21-78-20-77-20-77-20-77-19-76-19-76-18-76-18-75 369-86 17 73 18 74 18 75 19 74 19 76 20 75 20 76 20 76 21 75 21 75 21 75 21 74 22 74 22 73 21 72 22 72 22 70 22 68 22 68 22 66 22 65 22 62 22 61 21 59 21 57 21 55 21 52 20 50 20 47 20 44 19 41 18 38zm1047 1064-64-32-61-32-58-32-56-32-52-32-51-33-48-33-45-33-44-33-41-33-39-34-38-34-35-34-33-34-32-34-30-35-28-34-27-35-25-34-24-35-22-34-22-34-20-34-19-34-19-33-18-34-17-33-16-32-16-33-16-32-15-31-16-32 340-167 16 32 15 32 15 31 15 30 16 30 15 30 15 28 16 29 16 28 16 27 17 28 18 27 18 26 20 27 20 26 22 26 22 26 24 27 26 26 27 26 29 26 31 27 33 27 35 26 38 27 40 28 42 27 45 28 48 28 51 28 54 28 57 28zm5745 1578-206 265-126-24-135-29-144-33-152-38-161-41-167-44-174-48-181-51-185-54-190-57-194-59-197-61-199-63-202-64-202-66-203-68-202-68-201-69-200-69-197-70-195-69-190-70-186-68-180-68-175-68-168-66-161-64-153-63-144-61-135-59-125-57-115-54 165-341 109 52 120 54 130 57 141 60 150 61 158 64 165 64 173 67 178 67 184 68 188 69 192 69 196 69 198 68 200 69 200 67 201 67 201 66 200 64 197 62 195 61 192 58 188 56 183 53 177 50 172 47 164 44 157 40 148 36 139 32 128 28 118 23-206 265zm0 0 151 331-357-66zm-912-1562 32 38 30 39 31 40 30 40 30 40 30 41 29 42 29 43 29 43 29 44 28 44 29 45 28 46 28 46 28 47 28 48 28 48 27 50 28 50 28 51 27 51 28 53 27 53 28 54 27 55 28 56 28 57 28 58 27 58 28 60 29 61 28 61-344 158-28-60-27-60-28-58-27-57-27-56-27-55-27-54-26-53-27-52-26-51-27-51-26-49-26-49-26-47-27-47-26-46-26-45-27-44-26-44-26-43-27-42-26-41-27-41-27-39-27-40-27-38-27-38-28-37-27-37-28-36-28-36-28-35zm-1535-829 69 19 68 20 67 21 65 21 64 21 63 22 61 23 60 23 58 23 57 24 56 25 55 25 53 25 51 25 50 26 49 26 48 27 46 27 44 27 43 28 42 27 41 28 39 29 37 28 36 29 35 29 34 30 31 29 31 30 29 30 27 31 27 31-293 240-18-22-20-21-21-23-23-22-24-23-26-23-28-23-29-23-31-23-32-24-34-24-36-23-37-24-38-23-40-23-42-24-43-23-45-23-46-23-47-22-49-23-50-22-52-21-54-22-54-21-57-20-57-21-59-20-61-19-61-19-64-19-64-18zm-2939-1101 79 43 82 44 84 43 88 44 90 42 92 43 95 42 96 42 98 41 99 40 100 40 101 40 101 39 102 38 102 37 102 36 102 36 101 35 100 34 99 33 98 32 97 31 94 30 93 29 91 28 88 26 85 26 83 24 80 23 76 21 72 20 69 19-99 366-71-20-74-20-77-22-81-24-85-24-87-26-89-27-93-28-94-30-96-30-98-32-100-33-101-33-102-35-104-35-103-37-104-37-105-38-104-39-104-40-104-40-103-42-103-42-101-42-99-43-99-44-96-45-95-45-92-45-91-46-87-47-85-47zm-2092-1323 329-165 48 56 49 56 48 55 49 55 49 53 48 53 49 52 50 51 49 50 50 50 51 48 50 49 52 47 51 47 52 47 53 46 54 45 54 45 55 44 56 44 56 43 58 43 58 42 59 42 61 42 61 41 63 41 63 41 65 40 66 40 68 40 68 40-187 329-72-42-71-42-70-42-69-43-67-43-66-43-66-44-64-44-63-45-62-45-61-46-60-46-60-47-58-47-58-48-57-48-56-49-56-49-55-50-54-51-54-51-53-52-53-52-52-53-52-54-52-54-51-56-51-56-51-56-50-58-51-58-50-59 329-165zm0 0-179-765 508 600z"/><path fill="#BF940D" d="m99972 49943-1485 217-253 1480-666-1345-1485 217 1074-1049-665-1346 1329 698 1074-1049-252 1480zm284-5622-1393 559 102 1498-963-1152-1393 560 798-1272-962-1152 1456 366 798-1271 101 1498z"/><path fill="#BF940D" d="m100264 44440-1396 552 95 1499-957-1157-1396 552 804-1267-957-1157 1454 373 805-1267 94 1498zm-981-5424-1231 859 436 1436-1197-906-1232 859 492-1419-1197-906 1501 30 491-1419 436 1437zm-2201-5053-1001 1119 755 1297-1374-606-1001 1119 152-1494-1373-606 1468-317 152-1494 755 1298zm-3303-4412-718 1319 1033 1090-1476-275-717 1319-195-1489-1476-274 1355-646-195-1488 1033 1089zm-4230-3534-395 1448 1256 823-1500 72-395 1449-531-1404-1500 72 1171-940-532-1404 1255 823zm-4928-2468-52 1501 1412 512-1443 415-52 1500-840-1244-1443 415 924-1184-841-1244 1411 513zm-5364-1269 295 1472 1491 175-1309 735 295 1472-1104-1017-1309 735 627-1364-1104-1018 1491 175zm-5512-1 626 1364 1491-173-1105 1017 626 1365-1309-737-1104 1017 296-1472-1308-737 1491-173zm-5364 1265 922 1184 1412-511-842 1243 923 1185-1443-416-841 1243-50-1501-1443-416 1412-511zm-4930 2464 1170 941 1256-822-533 1403 1170 941-1500-73-533 1403-394-1449-1499-73 1256-822zm-4232 3531 1355 647 1034-1089-197 1489 1355 647-1476 273-197 1488-716-1319-1476 273 1034-1089zm-3307 4410 1468 318 756-1297 150 1493 1468 319-1374 605 151 1493-1000-1119-1374 605 755-1297zm-2204 5051 1501-27 437-1436 491 1419 1501-28-1198 905 490 1419-1231-860-1198 905 438-1437zm-985 5424 1455-372 96-1499 803 1269 1454-372-958 1155 804 1269-1396-554-958 1156 96-1498zm289 5504 1330-697-251-1480 1073 1050 1330-697-667 1346 1074 1049-1486-218-667 1345-251-1480z"/></svg>
