<svg xmlns="http://www.w3.org/2000/svg" width="507.32" height="507.32" viewBox="0 0 507.32 507.32"><path fill="#F00000" d="M0 0h507.32v507.32H0Z"/><path fill="#FFFFFF" d="M253.88 507.32V0H0v507.32Z"/><g stroke-width=".93"><path fill="#FFFFFF" d="m393.75 132.81-33.72 21.83 11.54-37.34L341 96.9h38.33l14.41-39.08 14.42 39.07h38.34l-30.27 20.7 11.55 37.05z"/><path fill="#F00000" d="m116.6 132.81-33.73 21.83L94.4 117.3 63.85 96.9h38.34l14.4-39.08 14.42 39.07h38.35l-30.28 20.7 11.54 37.05z"/><path fill="#F00000" d="m116.6 227.84-33.73 21.82 11.52-37.35-30.54-20.4h38.34l14.4-39.07 14.42 39.07h38.35l-30.28 20.7 11.54 37.05z"/><path fill="#F00000" d="m116.6 322.85-33.73 21.82 11.52-37.34-30.54-20.4h38.34l14.4-39.08 14.42 39.08h38.35l-30.28 20.68 11.54 37.06z"/><path fill="#F00000" d="m116.6 417.85-33.73 21.84 11.52-37.35-30.54-20.4h38.34l14.4-39.06 14.42 39.06h38.35l-30.28 20.7 11.54 37.05z"/><path fill="#FFFFFF" d="m393.75 227.83-33.72 21.83 11.54-37.34L341 191.9h38.33l14.41-39.07 14.42 39.07h38.34l-30.27 20.7 11.55 37.05z"/><path fill="#FFFFFF" d="m393.75 322.85-33.72 21.83 11.54-37.35-30.56-20.4h38.33l14.41-39.08 14.42 39.08h38.34l-30.27 20.7 11.55 37.05z"/><path fill="#FFFFFF" d="m393.75 417.87-33.72 21.82 11.54-37.34-30.56-20.4h38.33l14.41-39.08 14.42 39.07h38.34l-30.27 20.7 11.55 37.05zM253.88 279.32v-75l14.42 39.08h38.33l-30.26 20.7 11.55 37.05zm0-95.03v-75l14.42 39.08h38.33l-30.26 20.7 11.55 37.05zm0-95v-75l14.42 39.07h38.33l-30.26 20.7 11.55 37.05zm0 380.08v-75l14.42 39.07h38.33l-30.26 20.7 11.55 37.05zm0-95.04v-75l14.42 39.08h38.33l-30.26 20.7 11.55 37.05z"/><path fill="#F00000" d="M253.88 279.32v-75l-14.42 39.08h-38.33l30.26 20.7-11.54 37.05zm0-95.03v-75l-14.42 39.08h-38.33l30.26 20.7-11.54 37.05zm0-95v-75l-14.42 39.07h-38.33l30.26 20.7-11.54 37.05zm0 380.08v-75l-14.42 39.07h-38.33l30.26 20.7-11.54 37.05zm0-95.04v-75l-14.42 39.08h-38.33l30.26 20.7-11.54 37.05z"/></g></svg>
