<svg xmlns="http://www.w3.org/2000/svg" width="1200" height="864" viewBox="0 0 317.5 228.6">
  <rect fill="#BA0E09" width="317.5" height="228.6"/>
  <path fill="#FEBE01" d="M136.047 0v91.53H0v45.359h136.047V228.6h45.359v-91.711H317.5V91.53H181.406V0z"/>
  <path fill="#FEBE01" d="M52.792 25.55c-10.801 0-17.843 8.483-17.843 21.037 0 12.099 9.097 19.678 16.587 19.678l16.677.029 16.677-.029c7.489 0 16.587-7.58 16.587-19.678 0-12.554-7.042-21.037-17.843-21.037-6.897 0-11.668 3.915-15.421 11.492-3.753-7.577-8.524-11.492-15.421-11.492zm.294 12.054c3.919 0 6.847 3.96 6.83 8.708l-.001 7.947h-6.312c-3.83 0-8.106-1.172-8.106-8.336 0-4.64 3.521-8.319 7.589-8.319zm30.253 0c4.068 0 7.588 3.679 7.588 8.319 0 7.165-4.276 8.336-8.106 8.336h-6.312l-.001-7.947c-.016-4.749 2.911-8.708 6.83-8.708z"/>
  <path fill="#FEBE01" d="M233.82 25.55c-10.801 0-17.843 8.483-17.843 21.037 0 12.099 9.097 19.679 16.587 19.679l16.677.029 16.677-.029c7.489 0 16.587-7.58 16.587-19.679 0-12.554-7.042-21.037-17.843-21.037-6.897 0-11.668 3.915-15.421 11.492-3.753-7.577-8.524-11.492-15.421-11.492zm.294 12.054c3.919 0 6.847 3.96 6.83 8.708l-.001 7.947h-6.312c-3.83 0-8.106-1.172-8.106-8.336 0-4.64 3.521-8.319 7.589-8.319zm30.253 0c4.068 0 7.588 3.679 7.588 8.319 0 7.165-4.276 8.336-8.106 8.336h-6.312l-.001-7.947c-.016-4.749 2.911-8.708 6.83-8.708z"/>
  <path fill="#FEBE01" d="M233.82 202.584c-10.801 0-17.843-8.484-17.843-21.038 0-12.099 9.097-19.678 16.587-19.678l16.677-.029 16.677.029c7.489 0 16.587 7.579 16.587 19.678 0 12.554-7.042 21.038-17.843 21.038-6.897 0-11.668-3.916-15.421-11.492-3.753 7.576-8.524 11.492-15.421 11.492zm.294-12.054c3.919 0 6.847-3.96 6.83-8.708l-.001-7.947h-6.312c-3.83 0-8.106 1.172-8.106 8.336 0 4.64 3.521 8.319 7.589 8.319zm30.253 0c4.068 0 7.588-3.679 7.588-8.319 0-7.165-4.276-8.336-8.106-8.336h-6.312l-.001 7.947c-.016 4.748 2.911 8.708 6.83 8.708z"/>
  <path fill="#FEBE01" d="M52.792 202.584c-10.801 0-17.843-8.484-17.843-21.038 0-12.099 9.097-19.678 16.587-19.678l16.677-.029 16.677.029c7.489 0 16.587 7.579 16.587 19.678 0 12.554-7.042 21.038-17.843 21.038-6.897 0-11.668-3.916-15.421-11.492-3.753 7.576-8.524 11.492-15.421 11.492zm.294-12.054c3.919 0 6.847-3.96 6.83-8.708l-.001-7.947h-6.312c-3.83 0-8.106 1.172-8.106 8.336 0 4.64 3.521 8.319 7.589 8.319zm30.253 0c4.068 0 7.588-3.679 7.588-8.319 0-7.165-4.276-8.336-8.106-8.336h-6.312l-.001 7.947c-.016 4.748 2.911 8.708 6.83 8.708z"/>
</svg>
