<svg xmlns="http://www.w3.org/2000/svg" width="1000" height="600" viewBox="2.5 0 95 60">
  <rect fill="#bf0a30" width="100" height="60"/>
  <path stroke="#FFFFFF" stroke-width="12" d="M0,0L100,60M0,60L100,0"/>
  <path stroke="#002868" stroke-width="9" d="M0,0L100,60M0,60L100,0"/>
  <g fill="#FFFFFF">
    <path d="M10,3 L11.76337,8.42706 L7.14682,5.07294 L12.85318,5.07294 L8.23663,8.42706z"/>
    <path d="M23.333,11 L25.09637,16.42706 L20.47982,13.07294 L26.18618,13.07294 L21.56963,16.42706z"/>
    <path d="M36.667,19 L38.43037,24.42706 L33.81382,21.07294 L39.52018,21.07294 L34.90363,24.42706z"/>
    <path d="M63.333,35 L65.09637,40.42706 L60.47982,37.07294 L66.18618,37.07294 L61.56963,40.42706z"/>
    <path d="M76.667,43 L78.43037,48.42706 L73.81382,45.07294 L79.52018,45.07294 L74.90363,48.42706z"/>
    <path d="M90,51 L91.76337,56.42706 L87.14682,53.07294 L92.85318,53.07294 L88.23663,56.42706z"/>
    <path d="M90,3 L91.76337,8.42706 L87.14682,5.07294 L92.85318,5.07294 L88.23663,8.42706z"/>
    <path d="M76.667,11 L78.43037,16.42706 L73.81382,13.07294 L79.52018,13.07294 L74.90363,16.42706z"/>
    <path d="M63.333,19 L65.09637,24.42706 L60.47982,21.07294 L66.18618,21.07294 L61.56963,24.42706z"/>
    <path d="M36.667,35 L38.43037,40.42706 L33.81382,37.07294 L39.52018,37.07294 L34.90363,40.42706z"/>
    <path d="M23.333,43 L25.09637,48.42706 L20.47982,45.07294 L26.18618,45.07294 L21.56963,48.42706z"/>
    <path d="M10,51 L11.76337,56.42706 L7.14682,53.07294 L12.85318,53.07294 L8.23663,56.42706z"/>
    <path d="M50,27 L51.76337,32.42706 L47.14682,29.07294 L52.85318,29.07294 L48.23663,32.42706z"/>
  </g>
</svg>
